<svg xmlns="http://www.w3.org/2000/svg" xmlns:xlink="http://www.w3.org/1999/xlink" xmlns:inkscape="http://www.inkscape.org/namespaces/inkscape" version="1.1" width="1254.65" height="903.03" viewBox="0 0 1254.65 903.03">
<defs>
<clipPath id="clip_1">
<path transform="matrix(1,0,0,-1,-99.983,838.56106)" d="M124.89168-39.56215V813.66928H1329.7407V-39.56215"/>
</clipPath>
</defs>
<g clip-path="url(#clip_1)">
<path transform="matrix(1,0,0,-1,-99.983,838.56106)" d="M-49.81384 49.81384H-20.63289L.00099 70.44772 20.63489 49.81384H49.81583V78.99478L-49.81084 178.62148V207.80242H-78.99179L-99.62569 228.43631-164.029 164.03299-128.80464 128.80962-93.58127 164.03299-29.17795 99.63068-49.81184 78.99678Z" fill="#029386"/>
<path transform="matrix(1,0,0,-1,-99.983,838.56106)" stroke-width="2.98883" stroke-linecap="butt" stroke-miterlimit="10" stroke-linejoin="miter" fill="none" stroke="#000000" d="M-49.81384 49.81384H-20.63289L.00099 70.44772 20.63489 49.81384H49.81583V78.99478L-49.81084 178.62148V207.80242H-78.99179L-99.62569 228.43631-164.029 164.03299-128.80464 128.80962-93.58127 164.03299-29.17795 99.63068-49.81184 78.99678Z"/>
<path transform="matrix(1,0,0,-1,-99.983,838.56106)" d="M-49.81384-49.81384V-20.63289L-70.44772 .00099-49.81384 20.63489V49.81583H-78.99478L-178.62148-49.81084H-207.80242V-78.99179L-228.43631-99.62569-164.03299-164.029-128.80962-128.80464-164.03299-93.58127-99.63068-29.17795-78.99678-49.81184Z" fill="#029386"/>
<path transform="matrix(1,0,0,-1,-99.983,838.56106)" stroke-width="2.98883" stroke-linecap="butt" stroke-miterlimit="10" stroke-linejoin="miter" fill="none" stroke="#000000" d="M-49.81384-49.81384V-20.63289L-70.44772 .00099-49.81384 20.63489V49.81583H-78.99478L-178.62148-49.81084H-207.80242V-78.99179L-228.43631-99.62569-164.03299-164.029-128.80962-128.80464-164.03299-93.58127-99.63068-29.17795-78.99678-49.81184Z"/>
<path transform="matrix(1,0,0,-1,-99.983,838.56106)" d="M49.81384-49.81384H20.63289L-.00099-70.44772-20.63489-49.81384H-49.81583V-78.99478L49.81084-178.62148V-207.80242H78.99179L99.62569-228.43631 164.029-164.03299 128.80464-128.80962 93.58127-164.03299 29.17795-99.63068 49.81184-78.99678Z" fill="#029386"/>
<path transform="matrix(1,0,0,-1,-99.983,838.56106)" stroke-width="2.98883" stroke-linecap="butt" stroke-miterlimit="10" stroke-linejoin="miter" fill="none" stroke="#000000" d="M49.81384-49.81384H20.63289L-.00099-70.44772-20.63489-49.81384H-49.81583V-78.99478L49.81084-178.62148V-207.80242H78.99179L99.62569-228.43631 164.029-164.03299 128.80464-128.80962 93.58127-164.03299 29.17795-99.63068 49.81184-78.99678Z"/>
<path transform="matrix(1,0,0,-1,-99.983,838.56106)" d="M49.81384 49.81384V20.63289L70.44772-.00099 49.81384-20.63489V-49.81583H78.99478L178.62148 49.81084H207.80242V78.99179L228.43631 99.62569 164.03299 164.029 128.80962 128.80464 164.03299 93.58127 99.63068 29.17795 78.99678 49.81184Z" fill="#029386"/>
<path transform="matrix(1,0,0,-1,-99.983,838.56106)" stroke-width="2.98883" stroke-linecap="butt" stroke-miterlimit="10" stroke-linejoin="miter" fill="none" stroke="#000000" d="M49.81384 49.81384V20.63289L70.44772-.00099 49.81384-20.63489V-49.81583H78.99478L178.62148 49.81084H207.80242V78.99179L228.43631 99.62569 164.03299 164.029 128.80962 128.80464 164.03299 93.58127 99.63068 29.17795 78.99678 49.81184Z"/>
<path transform="matrix(1,0,0,-1,-99.983,838.56106)" d="M307.84956 49.81384H278.6686L258.0357 70.44673 237.4028 49.81384H208.22187V20.63289L187.58896 0 208.22187-20.63289V-49.81384H237.4028L258.0357-70.44673 278.6686-49.81384H307.84956V-20.63289L328.48246 0 307.84956 20.63289Z" fill="#029386"/>
<path transform="matrix(1,0,0,-1,-99.983,838.56106)" stroke-width="2.98883" stroke-linecap="butt" stroke-miterlimit="10" stroke-linejoin="miter" fill="none" stroke="#000000" d="M307.84956 49.81384H278.6686L258.0357 70.44673 237.4028 49.81384H208.22187V20.63289L187.58896 0 208.22187-20.63289V-49.81384H237.4028L258.0357-70.44673 278.6686-49.81384H307.84956V-20.63289L328.48246 0 307.84956 20.63289Z"/>
<path transform="matrix(1,0,0,-1,-99.983,838.56106)" d="M208.22187-208.22187H237.4028L258.0367-187.58797 278.6706-208.22187H307.85154V-179.04091L208.22486-79.41422V-50.23328H179.0439L158.41-29.59938 94.00668-94.0027 129.23105-129.22608 164.45442-94.0027 228.85774-158.40502 208.22385-179.03891Z" fill="#029386"/>
<path transform="matrix(1,0,0,-1,-99.983,838.56106)" stroke-width="2.98883" stroke-linecap="butt" stroke-miterlimit="10" stroke-linejoin="miter" fill="none" stroke="#000000" d="M208.22187-208.22187H237.4028L258.0367-187.58797 278.6706-208.22187H307.85154V-179.04091L208.22486-79.41422V-50.23328H179.0439L158.41-29.59938 94.00668-94.0027 129.23105-129.22608 164.45442-94.0027 228.85774-158.40502 208.22385-179.03891Z"/>
<path transform="matrix(1,0,0,-1,-99.983,838.56106)" d="M208.22187-307.84956V-278.6686L187.58797-258.0347 208.22187-237.4008V-208.21987H179.04091L79.41422-307.84654H50.23328V-337.0275L29.59938-357.66139 94.0027-422.0647 129.22608-386.84037 94.0027-351.61698 158.40502-287.21366 179.03891-307.84757Z" fill="#029386"/>
<path transform="matrix(1,0,0,-1,-99.983,838.56106)" stroke-width="2.98883" stroke-linecap="butt" stroke-miterlimit="10" stroke-linejoin="miter" fill="none" stroke="#000000" d="M208.22187-307.84956V-278.6686L187.58797-258.0347 208.22187-237.4008V-208.21987H179.04091L79.41422-307.84654H50.23328V-337.0275L29.59938-357.66139 94.0027-422.0647 129.22608-386.84037 94.0027-351.61698 158.40502-287.21366 179.03891-307.84757Z"/>
<path transform="matrix(1,0,0,-1,-99.983,838.56106)" d="M307.84956-307.84956H278.6686L258.0347-328.48344 237.4008-307.84956H208.21987V-337.0305L307.84654-436.65718V-465.83815H337.0275L357.66139-486.47203 422.0647-422.0687 386.84037-386.8453 351.61698-422.0687 287.21366-357.66639 307.84757-337.0325Z" fill="#029386"/>
<path transform="matrix(1,0,0,-1,-99.983,838.56106)" stroke-width="2.98883" stroke-linecap="butt" stroke-miterlimit="10" stroke-linejoin="miter" fill="none" stroke="#000000" d="M307.84956-307.84956H278.6686L258.0347-328.48344 237.4008-307.84956H208.21987V-337.0305L307.84654-436.65718V-465.83815H337.0275L357.66139-486.47203 422.0647-422.0687 386.84037-386.8453 351.61698-422.0687 287.21366-357.66639 307.84757-337.0325Z"/>
<path transform="matrix(1,0,0,-1,-99.983,838.56106)" d="M307.84956-208.22187V-237.4028L328.48344-258.0367 307.84956-278.6706V-307.85154H337.0305L436.65718-208.22486H465.83815V-179.0439L486.47203-158.41 422.0687-94.00668 386.8453-129.23105 422.0687-164.45442 357.66639-228.85774 337.0325-208.22385Z" fill="#029386"/>
<path transform="matrix(1,0,0,-1,-99.983,838.56106)" stroke-width="2.98883" stroke-linecap="butt" stroke-miterlimit="10" stroke-linejoin="miter" fill="none" stroke="#000000" d="M307.84956-208.22187V-237.4028L328.48344-258.0367 307.84956-278.6706V-307.85154H337.0305L436.65718-208.22486H465.83815V-179.0439L486.47203-158.41 422.0687-94.00668 386.8453-129.23105 422.0687-164.45442 357.66639-228.85774 337.0325-208.22385Z"/>
<path transform="matrix(1,0,0,-1,-99.983,838.56106)" d="M565.88528-208.22187H536.7043L516.0714-187.58896 495.4385-208.22187H466.25758V-237.4028L445.62467-258.0357 466.25758-278.6686V-307.84956H495.4385L516.0714-328.48246 536.7043-307.84956H565.88528V-278.6686L586.5181-258.0357 565.88528-237.4028Z" fill="#029386"/>
<path transform="matrix(1,0,0,-1,-99.983,838.56106)" stroke-width="2.98883" stroke-linecap="butt" stroke-miterlimit="10" stroke-linejoin="miter" fill="none" stroke="#000000" d="M565.88528-208.22187H536.7043L516.0714-187.58896 495.4385-208.22187H466.25758V-237.4028L445.62467-258.0357 466.25758-278.6686V-307.84956H495.4385L516.0714-328.48246 536.7043-307.84956H565.88528V-278.6686L586.5181-258.0357 565.88528-237.4028Z"/>
<path transform="matrix(1,0,0,-1,-99.983,838.56106)" d="M466.25758 49.81384H495.4385L516.0724 70.44772 536.7063 49.81384H565.88729V78.99478L466.26057 178.62148V207.80242H437.0796L416.4457 228.43631 352.0424 164.03299 387.26676 128.80962 422.49015 164.03299 486.89347 99.63068 466.25956 78.99678Z" fill="#029386"/>
<path transform="matrix(1,0,0,-1,-99.983,838.56106)" stroke-width="2.98883" stroke-linecap="butt" stroke-miterlimit="10" stroke-linejoin="miter" fill="none" stroke="#000000" d="M466.25758 49.81384H495.4385L516.0724 70.44772 536.7063 49.81384H565.88729V78.99478L466.26057 178.62148V207.80242H437.0796L416.4457 228.43631 352.0424 164.03299 387.26676 128.80962 422.49015 164.03299 486.89347 99.63068 466.25956 78.99678Z"/>
<path transform="matrix(1,0,0,-1,-99.983,838.56106)" d="M466.25758-49.81384V-20.63289L445.62367 .00099 466.25758 20.63489V49.81583H437.0766L337.44993-49.81084H308.26899V-78.99179L287.6351-99.62569 352.0384-164.029 387.26179-128.80464 352.0384-93.58127 416.44075-29.17795 437.07463-49.81184Z" fill="#029386"/>
<path transform="matrix(1,0,0,-1,-99.983,838.56106)" stroke-width="2.98883" stroke-linecap="butt" stroke-miterlimit="10" stroke-linejoin="miter" fill="none" stroke="#000000" d="M466.25758-49.81384V-20.63289L445.62367 .00099 466.25758 20.63489V49.81583H437.0766L337.44993-49.81084H308.26899V-78.99179L287.6351-99.62569 352.0384-164.029 387.26179-128.80464 352.0384-93.58127 416.44075-29.17795 437.07463-49.81184Z"/>
<path transform="matrix(1,0,0,-1,-99.983,838.56106)" d="M565.88528-49.81384H536.7043L516.0704-70.44772 495.43653-49.81384H466.25559V-78.99478L565.88229-178.62148V-207.80242H595.0632L615.6971-228.43631 680.1004-164.03299 644.87606-128.80962 609.6527-164.03299 545.2494-99.63068 565.88327-78.99678Z" fill="#029386"/>
<path transform="matrix(1,0,0,-1,-99.983,838.56106)" stroke-width="2.98883" stroke-linecap="butt" stroke-miterlimit="10" stroke-linejoin="miter" fill="none" stroke="#000000" d="M565.88528-49.81384H536.7043L516.0704-70.44772 495.43653-49.81384H466.25559V-78.99478L565.88229-178.62148V-207.80242H595.0632L615.6971-228.43631 680.1004-164.03299 644.87606-128.80962 609.6527-164.03299 545.2494-99.63068 565.88327-78.99678Z"/>
<path transform="matrix(1,0,0,-1,-99.983,838.56106)" d="M565.88528 49.81384V20.63289L586.5191-.00099 565.88528-20.63489V-49.81583H595.0662L694.6929 49.81084H723.87387V78.99179L744.5077 99.62569 680.1044 164.029 644.88107 128.80464 680.1044 93.58127 615.7021 29.17795 595.0682 49.81184Z" fill="#029386"/>
<path transform="matrix(1,0,0,-1,-99.983,838.56106)" stroke-width="2.98883" stroke-linecap="butt" stroke-miterlimit="10" stroke-linejoin="miter" fill="none" stroke="#000000" d="M565.88528 49.81384V20.63289L586.5191-.00099 565.88528-20.63489V-49.81583H595.0662L694.6929 49.81084H723.87387V78.99179L744.5077 99.62569 680.1044 164.029 644.88107 128.80464 680.1044 93.58127 615.7021 29.17795 595.0682 49.81184Z"/>
<path transform="matrix(1,0,0,-1,-99.983,838.56106)" d="M823.92098 49.81384H794.74L774.1071 70.44673 753.4742 49.81384H724.2933V20.63289L703.6604 0 724.2933-20.63289V-49.81384H753.4742L774.1071-70.44673 794.74-49.81384H823.92098V-20.63289L844.55386 0 823.92098 20.63289Z" fill="#029386"/>
<path transform="matrix(1,0,0,-1,-99.983,838.56106)" stroke-width="2.98883" stroke-linecap="butt" stroke-miterlimit="10" stroke-linejoin="miter" fill="none" stroke="#000000" d="M823.92098 49.81384H794.74L774.1071 70.44673 753.4742 49.81384H724.2933V20.63289L703.6604 0 724.2933-20.63289V-49.81384H753.4742L774.1071-70.44673 794.74-49.81384H823.92098V-20.63289L844.55386 0 823.92098 20.63289Z"/>
<path transform="matrix(1,0,0,-1,-99.983,838.56106)" d="M724.2933-208.22187H753.4742L774.1081-187.58797 794.742-208.22187H823.9229V-179.04091L724.29629-79.41422V-50.23328H695.1153L674.4814-29.59938 610.0781-94.0027 645.3025-129.22608 680.5258-94.0027 744.92916-158.40502 724.2953-179.03891Z" fill="#029386"/>
<path transform="matrix(1,0,0,-1,-99.983,838.56106)" stroke-width="2.98883" stroke-linecap="butt" stroke-miterlimit="10" stroke-linejoin="miter" fill="none" stroke="#000000" d="M724.2933-208.22187H753.4742L774.1081-187.58797 794.742-208.22187H823.9229V-179.04091L724.29629-79.41422V-50.23328H695.1153L674.4814-29.59938 610.0781-94.0027 645.3025-129.22608 680.5258-94.0027 744.92916-158.40502 724.2953-179.03891Z"/>
<path transform="matrix(1,0,0,-1,-99.983,838.56106)" d="M724.2933-307.84956V-278.6686L703.65939-258.0347 724.2933-237.4008V-208.21987H695.1123L595.48568-307.84654H566.3047V-337.0275L545.6708-357.66139 610.0741-422.0647 645.2975-386.84037 610.0741-351.61698 674.47647-287.21366 695.1103-307.84757Z" fill="#029386"/>
<path transform="matrix(1,0,0,-1,-99.983,838.56106)" stroke-width="2.98883" stroke-linecap="butt" stroke-miterlimit="10" stroke-linejoin="miter" fill="none" stroke="#000000" d="M724.2933-307.84956V-278.6686L703.65939-258.0347 724.2933-237.4008V-208.21987H695.1123L595.48568-307.84654H566.3047V-337.0275L545.6708-357.66139 610.0741-422.0647 645.2975-386.84037 610.0741-351.61698 674.47647-287.21366 695.1103-307.84757Z"/>
<path transform="matrix(1,0,0,-1,-99.983,838.56106)" d="M823.92098-307.84956H794.74L774.10617-328.48344 753.4722-307.84956H724.29129V-337.0305L823.91799-436.65718V-465.83815H853.0989L873.7328-486.47203 938.1361-422.0687 902.91177-386.8453 867.6884-422.0687 803.28506-357.66639 823.91897-337.0325Z" fill="#029386"/>
<path transform="matrix(1,0,0,-1,-99.983,838.56106)" stroke-width="2.98883" stroke-linecap="butt" stroke-miterlimit="10" stroke-linejoin="miter" fill="none" stroke="#000000" d="M823.92098-307.84956H794.74L774.10617-328.48344 753.4722-307.84956H724.29129V-337.0305L823.91799-436.65718V-465.83815H853.0989L873.7328-486.47203 938.1361-422.0687 902.91177-386.8453 867.6884-422.0687 803.28506-357.66639 823.91897-337.0325Z"/>
<path transform="matrix(1,0,0,-1,-99.983,838.56106)" d="M823.92098-208.22187V-237.4028L844.5548-258.0367 823.92098-278.6706V-307.85154H853.1019L952.7286-208.22486H981.90957V-179.0439L1002.54348-158.41 938.1401-94.00668 902.91677-129.23105 938.1401-164.45442 873.7378-228.85774 853.1039-208.22385Z" fill="#029386"/>
<path transform="matrix(1,0,0,-1,-99.983,838.56106)" stroke-width="2.98883" stroke-linecap="butt" stroke-miterlimit="10" stroke-linejoin="miter" fill="none" stroke="#000000" d="M823.92098-208.22187V-237.4028L844.5548-258.0367 823.92098-278.6706V-307.85154H853.1019L952.7286-208.22486H981.90957V-179.0439L1002.54348-158.41 938.1401-94.00668 902.91677-129.23105 938.1401-164.45442 873.7378-228.85774 853.1039-208.22385Z"/>
<path transform="matrix(1,0,0,-1,-99.983,838.56106)" d="M1081.9567-208.22187H1052.7758L1032.1428-187.58896 1011.50997-208.22187H982.329V-237.4028L961.6961-258.0357 982.329-278.6686V-307.84956H1011.50997L1032.1428-328.48246 1052.7758-307.84956H1081.9567V-278.6686L1102.5896-258.0357 1081.9567-237.4028Z" fill="#029386"/>
<path transform="matrix(1,0,0,-1,-99.983,838.56106)" stroke-width="2.98883" stroke-linecap="butt" stroke-miterlimit="10" stroke-linejoin="miter" fill="none" stroke="#000000" d="M1081.9567-208.22187H1052.7758L1032.1428-187.58896 1011.50997-208.22187H982.329V-237.4028L961.6961-258.0357 982.329-278.6686V-307.84956H1011.50997L1032.1428-328.48246 1052.7758-307.84956H1081.9567V-278.6686L1102.5896-258.0357 1081.9567-237.4028Z"/>
<path transform="matrix(1,0,0,-1,-99.983,838.56106)" d="M982.329 49.81384H1011.50997L1032.1438 70.44772 1052.7777 49.81384H1081.9586V78.99478L982.332 178.62148V207.80242H953.151L932.5171 228.43631 868.1138 164.03299 903.3382 128.80962 938.5615 164.03299 1002.96487 99.63068 982.33096 78.99678Z" fill="#029386"/>
<path transform="matrix(1,0,0,-1,-99.983,838.56106)" stroke-width="2.98883" stroke-linecap="butt" stroke-miterlimit="10" stroke-linejoin="miter" fill="none" stroke="#000000" d="M982.329 49.81384H1011.50997L1032.1438 70.44772 1052.7777 49.81384H1081.9586V78.99478L982.332 178.62148V207.80242H953.151L932.5171 228.43631 868.1138 164.03299 903.3382 128.80962 938.5615 164.03299 1002.96487 99.63068 982.33096 78.99678Z"/>
<path transform="matrix(1,0,0,-1,-99.983,838.56106)" d="M982.329-49.81384V-20.63289L961.69509 .00099 982.329 20.63489V49.81583H953.148L853.5213-49.81084H824.3404V-78.99179L803.7065-99.62569 868.1098-164.029 903.3332-128.80464 868.1098-93.58127 932.51217-29.17795 953.14608-49.81184Z" fill="#029386"/>
<path transform="matrix(1,0,0,-1,-99.983,838.56106)" stroke-width="2.98883" stroke-linecap="butt" stroke-miterlimit="10" stroke-linejoin="miter" fill="none" stroke="#000000" d="M982.329-49.81384V-20.63289L961.69509 .00099 982.329 20.63489V49.81583H953.148L853.5213-49.81084H824.3404V-78.99179L803.7065-99.62569 868.1098-164.029 903.3332-128.80464 868.1098-93.58127 932.51217-29.17795 953.14608-49.81184Z"/>
<path transform="matrix(1,0,0,-1,-99.983,838.56106)" d="M1081.9567-49.81384H1052.7758L1032.1419-70.44772 1011.50796-49.81384H982.32699V-78.99478L1081.9536-178.62148V-207.80242H1111.1347L1131.7686-228.43631 1196.1719-164.03299 1160.9475-128.80962 1125.7241-164.03299 1061.3208-99.63068 1081.9547-78.99678Z" fill="#029386"/>
<path transform="matrix(1,0,0,-1,-99.983,838.56106)" stroke-width="2.98883" stroke-linecap="butt" stroke-miterlimit="10" stroke-linejoin="miter" fill="none" stroke="#000000" d="M1081.9567-49.81384H1052.7758L1032.1419-70.44772 1011.50796-49.81384H982.32699V-78.99478L1081.9536-178.62148V-207.80242H1111.1347L1131.7686-228.43631 1196.1719-164.03299 1160.9475-128.80962 1125.7241-164.03299 1061.3208-99.63068 1081.9547-78.99678Z"/>
<path transform="matrix(1,0,0,-1,-99.983,838.56106)" d="M1081.9567 49.81384V20.63289L1102.5906-.00099 1081.9567-20.63489V-49.81583H1111.1376L1210.7643 49.81084H1239.9452V78.99179L1260.5791 99.62569 1196.1758 164.029 1160.9524 128.80464 1196.1758 93.58127 1131.7736 29.17795 1111.1397 49.81184Z" fill="#029386"/>
<path transform="matrix(1,0,0,-1,-99.983,838.56106)" stroke-width="2.98883" stroke-linecap="butt" stroke-miterlimit="10" stroke-linejoin="miter" fill="none" stroke="#000000" d="M1081.9567 49.81384V20.63289L1102.5906-.00099 1081.9567-20.63489V-49.81583H1111.1376L1210.7643 49.81084H1239.9452V78.99179L1260.5791 99.62569 1196.1758 164.029 1160.9524 128.80464 1196.1758 93.58127 1131.7736 29.17795 1111.1397 49.81184Z"/>
<path transform="matrix(1,0,0,-1,-99.983,838.56106)" d="M1339.9923 49.81384H1310.8114L1290.1786 70.44673 1269.5457 49.81384H1240.3648V20.63289L1219.7318 0 1240.3648-20.63289V-49.81384H1269.5457L1290.1786-70.44673 1310.8114-49.81384H1339.9923V-20.63289L1360.6253 0 1339.9923 20.63289Z" fill="#029386"/>
<path transform="matrix(1,0,0,-1,-99.983,838.56106)" stroke-width="2.98883" stroke-linecap="butt" stroke-miterlimit="10" stroke-linejoin="miter" fill="none" stroke="#000000" d="M1339.9923 49.81384H1310.8114L1290.1786 70.44673 1269.5457 49.81384H1240.3648V20.63289L1219.7318 0 1240.3648-20.63289V-49.81384H1269.5457L1290.1786-70.44673 1310.8114-49.81384H1339.9923V-20.63289L1360.6253 0 1339.9923 20.63289Z"/>
<path transform="matrix(1,0,0,-1,-99.983,838.56106)" d="M1240.3648-208.22187H1269.5457L1290.1796-187.58797 1310.8135-208.22187H1339.9944V-179.04091L1240.3677-79.41422V-50.23328H1211.1868L1190.5529-29.59938 1126.1495-94.0027 1161.3739-129.22608 1196.5973-94.0027 1261.0006-158.40502 1240.3667-179.03891Z" fill="#029386"/>
<path transform="matrix(1,0,0,-1,-99.983,838.56106)" stroke-width="2.98883" stroke-linecap="butt" stroke-miterlimit="10" stroke-linejoin="miter" fill="none" stroke="#000000" d="M1240.3648-208.22187H1269.5457L1290.1796-187.58797 1310.8135-208.22187H1339.9944V-179.04091L1240.3677-79.41422V-50.23328H1211.1868L1190.5529-29.59938 1126.1495-94.0027 1161.3739-129.22608 1196.5973-94.0027 1261.0006-158.40502 1240.3667-179.03891Z"/>
<path transform="matrix(1,0,0,-1,-99.983,838.56106)" d="M1240.3648-307.84956V-278.6686L1219.7308-258.0347 1240.3648-237.4008V-208.21987H1211.1837L1111.557-307.84654H1082.3761V-337.0275L1061.7422-357.66139 1126.1455-422.0647 1161.3689-386.84037 1126.1455-351.61698 1190.5479-287.21366 1211.1818-307.84757Z" fill="#029386"/>
<path transform="matrix(1,0,0,-1,-99.983,838.56106)" stroke-width="2.98883" stroke-linecap="butt" stroke-miterlimit="10" stroke-linejoin="miter" fill="none" stroke="#000000" d="M1240.3648-307.84956V-278.6686L1219.7308-258.0347 1240.3648-237.4008V-208.21987H1211.1837L1111.557-307.84654H1082.3761V-337.0275L1061.7422-357.66139 1126.1455-422.0647 1161.3689-386.84037 1126.1455-351.61698 1190.5479-287.21366 1211.1818-307.84757Z"/>
<path transform="matrix(1,0,0,-1,-99.983,838.56106)" d="M1339.9923-307.84956H1310.8114L1290.1775-328.48344 1269.5436-307.84956H1240.3627V-337.0305L1339.9894-436.65718V-465.83815H1369.1703L1389.8042-486.47203 1454.2075-422.0687 1418.9832-386.8453 1383.7598-422.0687 1319.3565-357.66639 1339.9904-337.0325Z" fill="#029386"/>
<path transform="matrix(1,0,0,-1,-99.983,838.56106)" stroke-width="2.98883" stroke-linecap="butt" stroke-miterlimit="10" stroke-linejoin="miter" fill="none" stroke="#000000" d="M1339.9923-307.84956H1310.8114L1290.1775-328.48344 1269.5436-307.84956H1240.3627V-337.0305L1339.9894-436.65718V-465.83815H1369.1703L1389.8042-486.47203 1454.2075-422.0687 1418.9832-386.8453 1383.7598-422.0687 1319.3565-357.66639 1339.9904-337.0325Z"/>
<path transform="matrix(1,0,0,-1,-99.983,838.56106)" d="M1339.9923-208.22187V-237.4028L1360.6262-258.0367 1339.9923-278.6706V-307.85154H1369.1734L1468.8-208.22486H1497.981V-179.0439L1518.6149-158.41 1454.2116-94.00668 1418.9882-129.23105 1454.2116-164.45442 1389.8092-228.85774 1369.1753-208.22385Z" fill="#029386"/>
<path transform="matrix(1,0,0,-1,-99.983,838.56106)" stroke-width="2.98883" stroke-linecap="butt" stroke-miterlimit="10" stroke-linejoin="miter" fill="none" stroke="#000000" d="M1339.9923-208.22187V-237.4028L1360.6262-258.0367 1339.9923-278.6706V-307.85154H1369.1734L1468.8-208.22486H1497.981V-179.0439L1518.6149-158.41 1454.2116-94.00668 1418.9882-129.23105 1454.2116-164.45442 1389.8092-228.85774 1369.1753-208.22385Z"/>
<path transform="matrix(1,0,0,-1,-99.983,838.56106)" d="M1598.0281-208.22187H1568.8472L1548.2142-187.58896 1527.5813-208.22187H1498.4004V-237.4028L1477.7675-258.0357 1498.4004-278.6686V-307.84956H1527.5813L1548.2142-328.48246 1568.8472-307.84956H1598.0281V-278.6686L1618.661-258.0357 1598.0281-237.4028Z" fill="#029386"/>
<path transform="matrix(1,0,0,-1,-99.983,838.56106)" stroke-width="2.98883" stroke-linecap="butt" stroke-miterlimit="10" stroke-linejoin="miter" fill="none" stroke="#000000" d="M1598.0281-208.22187H1568.8472L1548.2142-187.58896 1527.5813-208.22187H1498.4004V-237.4028L1477.7675-258.0357 1498.4004-278.6686V-307.84956H1527.5813L1548.2142-328.48246 1568.8472-307.84956H1598.0281V-278.6686L1618.661-258.0357 1598.0281-237.4028Z"/>
<path transform="matrix(1,0,0,-1,-99.983,838.56106)" d="M-49.81384 565.88528H-20.63289L.00099 586.5191 20.63489 565.88528H49.81583V595.0662L-49.81084 694.6929V723.87387H-78.99179L-99.62569 744.5077-164.029 680.1044-128.80464 644.88107-93.58127 680.1044-29.17795 615.7021-49.81184 595.0682Z" fill="#029386"/>
<path transform="matrix(1,0,0,-1,-99.983,838.56106)" stroke-width="2.98883" stroke-linecap="butt" stroke-miterlimit="10" stroke-linejoin="miter" fill="none" stroke="#000000" d="M-49.81384 565.88528H-20.63289L.00099 586.5191 20.63489 565.88528H49.81583V595.0662L-49.81084 694.6929V723.87387H-78.99179L-99.62569 744.5077-164.029 680.1044-128.80464 644.88107-93.58127 680.1044-29.17795 615.7021-49.81184 595.0682Z"/>
<path transform="matrix(1,0,0,-1,-99.983,838.56106)" d="M-49.81384 466.25758V495.4385L-70.44772 516.0724-49.81384 536.7063V565.88729H-78.99478L-178.62148 466.26057H-207.80242V437.0796L-228.43631 416.4457-164.03299 352.0424-128.80962 387.26676-164.03299 422.49015-99.63068 486.89347-78.99678 466.25956Z" fill="#029386"/>
<path transform="matrix(1,0,0,-1,-99.983,838.56106)" stroke-width="2.98883" stroke-linecap="butt" stroke-miterlimit="10" stroke-linejoin="miter" fill="none" stroke="#000000" d="M-49.81384 466.25758V495.4385L-70.44772 516.0724-49.81384 536.7063V565.88729H-78.99478L-178.62148 466.26057H-207.80242V437.0796L-228.43631 416.4457-164.03299 352.0424-128.80962 387.26676-164.03299 422.49015-99.63068 486.89347-78.99678 466.25956Z"/>
<path transform="matrix(1,0,0,-1,-99.983,838.56106)" d="M49.81384 466.25758H20.63289L-.00099 445.62367-20.63489 466.25758H-49.81583V437.0766L49.81084 337.44993V308.26899H78.99179L99.62569 287.6351 164.029 352.0384 128.80464 387.26179 93.58127 352.0384 29.17795 416.44075 49.81184 437.07463Z" fill="#029386"/>
<path transform="matrix(1,0,0,-1,-99.983,838.56106)" stroke-width="2.98883" stroke-linecap="butt" stroke-miterlimit="10" stroke-linejoin="miter" fill="none" stroke="#000000" d="M49.81384 466.25758H20.63289L-.00099 445.62367-20.63489 466.25758H-49.81583V437.0766L49.81084 337.44993V308.26899H78.99179L99.62569 287.6351 164.029 352.0384 128.80464 387.26179 93.58127 352.0384 29.17795 416.44075 49.81184 437.07463Z"/>
<path transform="matrix(1,0,0,-1,-99.983,838.56106)" d="M49.81384 565.88528V536.7043L70.44772 516.0704 49.81384 495.43653V466.25559H78.99478L178.62148 565.88229H207.80242V595.0632L228.43631 615.6971 164.03299 680.1004 128.80962 644.87606 164.03299 609.6527 99.63068 545.2494 78.99678 565.88327Z" fill="#029386"/>
<path transform="matrix(1,0,0,-1,-99.983,838.56106)" stroke-width="2.98883" stroke-linecap="butt" stroke-miterlimit="10" stroke-linejoin="miter" fill="none" stroke="#000000" d="M49.81384 565.88528V536.7043L70.44772 516.0704 49.81384 495.43653V466.25559H78.99478L178.62148 565.88229H207.80242V595.0632L228.43631 615.6971 164.03299 680.1004 128.80962 644.87606 164.03299 609.6527 99.63068 545.2494 78.99678 565.88327Z"/>
<path transform="matrix(1,0,0,-1,-99.983,838.56106)" d="M307.84956 565.88528H278.6686L258.0357 586.5181 237.4028 565.88528H208.22187V536.7043L187.58896 516.0714 208.22187 495.4385V466.25758H237.4028L258.0357 445.62467 278.6686 466.25758H307.84956V495.4385L328.48246 516.0714 307.84956 536.7043Z" fill="#029386"/>
<path transform="matrix(1,0,0,-1,-99.983,838.56106)" stroke-width="2.98883" stroke-linecap="butt" stroke-miterlimit="10" stroke-linejoin="miter" fill="none" stroke="#000000" d="M307.84956 565.88528H278.6686L258.0357 586.5181 237.4028 565.88528H208.22187V536.7043L187.58896 516.0714 208.22187 495.4385V466.25758H237.4028L258.0357 445.62467 278.6686 466.25758H307.84956V495.4385L328.48246 516.0714 307.84956 536.7043Z"/>
<path transform="matrix(1,0,0,-1,-99.983,838.56106)" d="M208.22187 307.84956H237.4028L258.0367 328.48344 278.6706 307.84956H307.85154V337.0305L208.22486 436.65718V465.83815H179.0439L158.41 486.47203 94.00668 422.0687 129.23105 386.8453 164.45442 422.0687 228.85774 357.66639 208.22385 337.0325Z" fill="#029386"/>
<path transform="matrix(1,0,0,-1,-99.983,838.56106)" stroke-width="2.98883" stroke-linecap="butt" stroke-miterlimit="10" stroke-linejoin="miter" fill="none" stroke="#000000" d="M208.22187 307.84956H237.4028L258.0367 328.48344 278.6706 307.84956H307.85154V337.0305L208.22486 436.65718V465.83815H179.0439L158.41 486.47203 94.00668 422.0687 129.23105 386.8453 164.45442 422.0687 228.85774 357.66639 208.22385 337.0325Z"/>
<path transform="matrix(1,0,0,-1,-99.983,838.56106)" d="M208.22187 208.22187V237.4028L187.58797 258.0367 208.22187 278.6706V307.85154H179.04091L79.41422 208.22486H50.23328V179.0439L29.59938 158.41 94.0027 94.00668 129.22608 129.23105 94.0027 164.45442 158.40502 228.85774 179.03891 208.22385Z" fill="#029386"/>
<path transform="matrix(1,0,0,-1,-99.983,838.56106)" stroke-width="2.98883" stroke-linecap="butt" stroke-miterlimit="10" stroke-linejoin="miter" fill="none" stroke="#000000" d="M208.22187 208.22187V237.4028L187.58797 258.0367 208.22187 278.6706V307.85154H179.04091L79.41422 208.22486H50.23328V179.0439L29.59938 158.41 94.0027 94.00668 129.22608 129.23105 94.0027 164.45442 158.40502 228.85774 179.03891 208.22385Z"/>
<path transform="matrix(1,0,0,-1,-99.983,838.56106)" d="M307.84956 208.22187H278.6686L258.0347 187.58797 237.4008 208.22187H208.21987V179.04091L307.84654 79.41422V50.23328H337.0275L357.66139 29.59938 422.0647 94.0027 386.84037 129.22608 351.61698 94.0027 287.21366 158.40502 307.84757 179.03891Z" fill="#029386"/>
<path transform="matrix(1,0,0,-1,-99.983,838.56106)" stroke-width="2.98883" stroke-linecap="butt" stroke-miterlimit="10" stroke-linejoin="miter" fill="none" stroke="#000000" d="M307.84956 208.22187H278.6686L258.0347 187.58797 237.4008 208.22187H208.21987V179.04091L307.84654 79.41422V50.23328H337.0275L357.66139 29.59938 422.0647 94.0027 386.84037 129.22608 351.61698 94.0027 287.21366 158.40502 307.84757 179.03891Z"/>
<path transform="matrix(1,0,0,-1,-99.983,838.56106)" d="M307.84956 307.84956V278.6686L328.48344 258.0347 307.84956 237.4008V208.21987H337.0305L436.65718 307.84654H465.83815V337.0275L486.47203 357.66139 422.0687 422.0647 386.8453 386.84037 422.0687 351.61698 357.66639 287.21366 337.0325 307.84757Z" fill="#029386"/>
<path transform="matrix(1,0,0,-1,-99.983,838.56106)" stroke-width="2.98883" stroke-linecap="butt" stroke-miterlimit="10" stroke-linejoin="miter" fill="none" stroke="#000000" d="M307.84956 307.84956V278.6686L328.48344 258.0347 307.84956 237.4008V208.21987H337.0305L436.65718 307.84654H465.83815V337.0275L486.47203 357.66139 422.0687 422.0647 386.8453 386.84037 422.0687 351.61698 357.66639 287.21366 337.0325 307.84757Z"/>
<path transform="matrix(1,0,0,-1,-99.983,838.56106)" d="M565.88528 307.84956H536.7043L516.0714 328.48246 495.4385 307.84956H466.25758V278.6686L445.62467 258.0357 466.25758 237.4028V208.22187H495.4385L516.0714 187.58896 536.7043 208.22187H565.88528V237.4028L586.5181 258.0357 565.88528 278.6686Z" fill="#029386"/>
<path transform="matrix(1,0,0,-1,-99.983,838.56106)" stroke-width="2.98883" stroke-linecap="butt" stroke-miterlimit="10" stroke-linejoin="miter" fill="none" stroke="#000000" d="M565.88528 307.84956H536.7043L516.0714 328.48246 495.4385 307.84956H466.25758V278.6686L445.62467 258.0357 466.25758 237.4028V208.22187H495.4385L516.0714 187.58896 536.7043 208.22187H565.88528V237.4028L586.5181 258.0357 565.88528 278.6686Z"/>
<path transform="matrix(1,0,0,-1,-99.983,838.56106)" d="M466.25758 565.88528H495.4385L516.0724 586.5191 536.7063 565.88528H565.88729V595.0662L466.26057 694.6929V723.87387H437.0796L416.4457 744.5077 352.0424 680.1044 387.26676 644.88107 422.49015 680.1044 486.89347 615.7021 466.25956 595.0682Z" fill="#029386"/>
<path transform="matrix(1,0,0,-1,-99.983,838.56106)" stroke-width="2.98883" stroke-linecap="butt" stroke-miterlimit="10" stroke-linejoin="miter" fill="none" stroke="#000000" d="M466.25758 565.88528H495.4385L516.0724 586.5191 536.7063 565.88528H565.88729V595.0662L466.26057 694.6929V723.87387H437.0796L416.4457 744.5077 352.0424 680.1044 387.26676 644.88107 422.49015 680.1044 486.89347 615.7021 466.25956 595.0682Z"/>
<path transform="matrix(1,0,0,-1,-99.983,838.56106)" d="M466.25758 466.25758V495.4385L445.62367 516.0724 466.25758 536.7063V565.88729H437.0766L337.44993 466.26057H308.26899V437.0796L287.6351 416.4457 352.0384 352.0424 387.26179 387.26676 352.0384 422.49015 416.44075 486.89347 437.07463 466.25956Z" fill="#029386"/>
<path transform="matrix(1,0,0,-1,-99.983,838.56106)" stroke-width="2.98883" stroke-linecap="butt" stroke-miterlimit="10" stroke-linejoin="miter" fill="none" stroke="#000000" d="M466.25758 466.25758V495.4385L445.62367 516.0724 466.25758 536.7063V565.88729H437.0766L337.44993 466.26057H308.26899V437.0796L287.6351 416.4457 352.0384 352.0424 387.26179 387.26676 352.0384 422.49015 416.44075 486.89347 437.07463 466.25956Z"/>
<path transform="matrix(1,0,0,-1,-99.983,838.56106)" d="M565.88528 466.25758H536.7043L516.0704 445.62367 495.43653 466.25758H466.25559V437.0766L565.88229 337.44993V308.26899H595.0632L615.6971 287.6351 680.1004 352.0384 644.87606 387.26179 609.6527 352.0384 545.2494 416.44075 565.88327 437.07463Z" fill="#029386"/>
<path transform="matrix(1,0,0,-1,-99.983,838.56106)" stroke-width="2.98883" stroke-linecap="butt" stroke-miterlimit="10" stroke-linejoin="miter" fill="none" stroke="#000000" d="M565.88528 466.25758H536.7043L516.0704 445.62367 495.43653 466.25758H466.25559V437.0766L565.88229 337.44993V308.26899H595.0632L615.6971 287.6351 680.1004 352.0384 644.87606 387.26179 609.6527 352.0384 545.2494 416.44075 565.88327 437.07463Z"/>
<path transform="matrix(1,0,0,-1,-99.983,838.56106)" d="M565.88528 565.88528V536.7043L586.5191 516.0704 565.88528 495.43653V466.25559H595.0662L694.6929 565.88229H723.87387V595.0632L744.5077 615.6971 680.1044 680.1004 644.88107 644.87606 680.1044 609.6527 615.7021 545.2494 595.0682 565.88327Z" fill="#029386"/>
<path transform="matrix(1,0,0,-1,-99.983,838.56106)" stroke-width="2.98883" stroke-linecap="butt" stroke-miterlimit="10" stroke-linejoin="miter" fill="none" stroke="#000000" d="M565.88528 565.88528V536.7043L586.5191 516.0704 565.88528 495.43653V466.25559H595.0662L694.6929 565.88229H723.87387V595.0632L744.5077 615.6971 680.1044 680.1004 644.88107 644.87606 680.1044 609.6527 615.7021 545.2494 595.0682 565.88327Z"/>
<path transform="matrix(1,0,0,-1,-99.983,838.56106)" d="M823.92098 565.88528H794.74L774.1071 586.5181 753.4742 565.88528H724.2933V536.7043L703.6604 516.0714 724.2933 495.4385V466.25758H753.4742L774.1071 445.62467 794.74 466.25758H823.92098V495.4385L844.55386 516.0714 823.92098 536.7043Z" fill="#029386"/>
<path transform="matrix(1,0,0,-1,-99.983,838.56106)" stroke-width="2.98883" stroke-linecap="butt" stroke-miterlimit="10" stroke-linejoin="miter" fill="none" stroke="#000000" d="M823.92098 565.88528H794.74L774.1071 586.5181 753.4742 565.88528H724.2933V536.7043L703.6604 516.0714 724.2933 495.4385V466.25758H753.4742L774.1071 445.62467 794.74 466.25758H823.92098V495.4385L844.55386 516.0714 823.92098 536.7043Z"/>
<path transform="matrix(1,0,0,-1,-99.983,838.56106)" d="M724.2933 307.84956H753.4742L774.1081 328.48344 794.742 307.84956H823.9229V337.0305L724.29629 436.65718V465.83815H695.1153L674.4814 486.47203 610.0781 422.0687 645.3025 386.8453 680.5258 422.0687 744.92916 357.66639 724.2953 337.0325Z" fill="#029386"/>
<path transform="matrix(1,0,0,-1,-99.983,838.56106)" stroke-width="2.98883" stroke-linecap="butt" stroke-miterlimit="10" stroke-linejoin="miter" fill="none" stroke="#000000" d="M724.2933 307.84956H753.4742L774.1081 328.48344 794.742 307.84956H823.9229V337.0305L724.29629 436.65718V465.83815H695.1153L674.4814 486.47203 610.0781 422.0687 645.3025 386.8453 680.5258 422.0687 744.92916 357.66639 724.2953 337.0325Z"/>
<path transform="matrix(1,0,0,-1,-99.983,838.56106)" d="M724.2933 208.22187V237.4028L703.65939 258.0367 724.2933 278.6706V307.85154H695.1123L595.48568 208.22486H566.3047V179.0439L545.6708 158.41 610.0741 94.00668 645.2975 129.23105 610.0741 164.45442 674.47647 228.85774 695.1103 208.22385Z" fill="#029386"/>
<path transform="matrix(1,0,0,-1,-99.983,838.56106)" stroke-width="2.98883" stroke-linecap="butt" stroke-miterlimit="10" stroke-linejoin="miter" fill="none" stroke="#000000" d="M724.2933 208.22187V237.4028L703.65939 258.0367 724.2933 278.6706V307.85154H695.1123L595.48568 208.22486H566.3047V179.0439L545.6708 158.41 610.0741 94.00668 645.2975 129.23105 610.0741 164.45442 674.47647 228.85774 695.1103 208.22385Z"/>
<path transform="matrix(1,0,0,-1,-99.983,838.56106)" d="M823.92098 208.22187H794.74L774.10617 187.58797 753.4722 208.22187H724.29129V179.04091L823.91799 79.41422V50.23328H853.0989L873.7328 29.59938 938.1361 94.0027 902.91177 129.22608 867.6884 94.0027 803.28506 158.40502 823.91897 179.03891Z" fill="#029386"/>
<path transform="matrix(1,0,0,-1,-99.983,838.56106)" stroke-width="2.98883" stroke-linecap="butt" stroke-miterlimit="10" stroke-linejoin="miter" fill="none" stroke="#000000" d="M823.92098 208.22187H794.74L774.10617 187.58797 753.4722 208.22187H724.29129V179.04091L823.91799 79.41422V50.23328H853.0989L873.7328 29.59938 938.1361 94.0027 902.91177 129.22608 867.6884 94.0027 803.28506 158.40502 823.91897 179.03891Z"/>
<path transform="matrix(1,0,0,-1,-99.983,838.56106)" d="M823.92098 307.84956V278.6686L844.5548 258.0347 823.92098 237.4008V208.21987H853.1019L952.7286 307.84654H981.90957V337.0275L1002.54348 357.66139 938.1401 422.0647 902.91677 386.84037 938.1401 351.61698 873.7378 287.21366 853.1039 307.84757Z" fill="#029386"/>
<path transform="matrix(1,0,0,-1,-99.983,838.56106)" stroke-width="2.98883" stroke-linecap="butt" stroke-miterlimit="10" stroke-linejoin="miter" fill="none" stroke="#000000" d="M823.92098 307.84956V278.6686L844.5548 258.0347 823.92098 237.4008V208.21987H853.1019L952.7286 307.84654H981.90957V337.0275L1002.54348 357.66139 938.1401 422.0647 902.91677 386.84037 938.1401 351.61698 873.7378 287.21366 853.1039 307.84757Z"/>
<path transform="matrix(1,0,0,-1,-99.983,838.56106)" d="M1081.9567 307.84956H1052.7758L1032.1428 328.48246 1011.50997 307.84956H982.329V278.6686L961.6961 258.0357 982.329 237.4028V208.22187H1011.50997L1032.1428 187.58896 1052.7758 208.22187H1081.9567V237.4028L1102.5896 258.0357 1081.9567 278.6686Z" fill="#029386"/>
<path transform="matrix(1,0,0,-1,-99.983,838.56106)" stroke-width="2.98883" stroke-linecap="butt" stroke-miterlimit="10" stroke-linejoin="miter" fill="none" stroke="#000000" d="M1081.9567 307.84956H1052.7758L1032.1428 328.48246 1011.50997 307.84956H982.329V278.6686L961.6961 258.0357 982.329 237.4028V208.22187H1011.50997L1032.1428 187.58896 1052.7758 208.22187H1081.9567V237.4028L1102.5896 258.0357 1081.9567 278.6686Z"/>
<path transform="matrix(1,0,0,-1,-99.983,838.56106)" d="M982.329 565.88528H1011.50997L1032.1438 586.5191 1052.7777 565.88528H1081.9586V595.0662L982.332 694.6929V723.87387H953.151L932.5171 744.5077 868.1138 680.1044 903.3382 644.88107 938.5615 680.1044 1002.96487 615.7021 982.33096 595.0682Z" fill="#029386"/>
<path transform="matrix(1,0,0,-1,-99.983,838.56106)" stroke-width="2.98883" stroke-linecap="butt" stroke-miterlimit="10" stroke-linejoin="miter" fill="none" stroke="#000000" d="M982.329 565.88528H1011.50997L1032.1438 586.5191 1052.7777 565.88528H1081.9586V595.0662L982.332 694.6929V723.87387H953.151L932.5171 744.5077 868.1138 680.1044 903.3382 644.88107 938.5615 680.1044 1002.96487 615.7021 982.33096 595.0682Z"/>
<path transform="matrix(1,0,0,-1,-99.983,838.56106)" d="M982.329 466.25758V495.4385L961.69509 516.0724 982.329 536.7063V565.88729H953.148L853.5213 466.26057H824.3404V437.0796L803.7065 416.4457 868.1098 352.0424 903.3332 387.26676 868.1098 422.49015 932.51217 486.89347 953.14608 466.25956Z" fill="#029386"/>
<path transform="matrix(1,0,0,-1,-99.983,838.56106)" stroke-width="2.98883" stroke-linecap="butt" stroke-miterlimit="10" stroke-linejoin="miter" fill="none" stroke="#000000" d="M982.329 466.25758V495.4385L961.69509 516.0724 982.329 536.7063V565.88729H953.148L853.5213 466.26057H824.3404V437.0796L803.7065 416.4457 868.1098 352.0424 903.3332 387.26676 868.1098 422.49015 932.51217 486.89347 953.14608 466.25956Z"/>
<path transform="matrix(1,0,0,-1,-99.983,838.56106)" d="M1081.9567 466.25758H1052.7758L1032.1419 445.62367 1011.50796 466.25758H982.32699V437.0766L1081.9536 337.44993V308.26899H1111.1347L1131.7686 287.6351 1196.1719 352.0384 1160.9475 387.26179 1125.7241 352.0384 1061.3208 416.44075 1081.9547 437.07463Z" fill="#029386"/>
<path transform="matrix(1,0,0,-1,-99.983,838.56106)" stroke-width="2.98883" stroke-linecap="butt" stroke-miterlimit="10" stroke-linejoin="miter" fill="none" stroke="#000000" d="M1081.9567 466.25758H1052.7758L1032.1419 445.62367 1011.50796 466.25758H982.32699V437.0766L1081.9536 337.44993V308.26899H1111.1347L1131.7686 287.6351 1196.1719 352.0384 1160.9475 387.26179 1125.7241 352.0384 1061.3208 416.44075 1081.9547 437.07463Z"/>
<path transform="matrix(1,0,0,-1,-99.983,838.56106)" d="M1081.9567 565.88528V536.7043L1102.5906 516.0704 1081.9567 495.43653V466.25559H1111.1376L1210.7643 565.88229H1239.9452V595.0632L1260.5791 615.6971 1196.1758 680.1004 1160.9524 644.87606 1196.1758 609.6527 1131.7736 545.2494 1111.1397 565.88327Z" fill="#029386"/>
<path transform="matrix(1,0,0,-1,-99.983,838.56106)" stroke-width="2.98883" stroke-linecap="butt" stroke-miterlimit="10" stroke-linejoin="miter" fill="none" stroke="#000000" d="M1081.9567 565.88528V536.7043L1102.5906 516.0704 1081.9567 495.43653V466.25559H1111.1376L1210.7643 565.88229H1239.9452V595.0632L1260.5791 615.6971 1196.1758 680.1004 1160.9524 644.87606 1196.1758 609.6527 1131.7736 545.2494 1111.1397 565.88327Z"/>
<path transform="matrix(1,0,0,-1,-99.983,838.56106)" d="M1339.9923 565.88528H1310.8114L1290.1786 586.5181 1269.5457 565.88528H1240.3648V536.7043L1219.7318 516.0714 1240.3648 495.4385V466.25758H1269.5457L1290.1786 445.62467 1310.8114 466.25758H1339.9923V495.4385L1360.6253 516.0714 1339.9923 536.7043Z" fill="#029386"/>
<path transform="matrix(1,0,0,-1,-99.983,838.56106)" stroke-width="2.98883" stroke-linecap="butt" stroke-miterlimit="10" stroke-linejoin="miter" fill="none" stroke="#000000" d="M1339.9923 565.88528H1310.8114L1290.1786 586.5181 1269.5457 565.88528H1240.3648V536.7043L1219.7318 516.0714 1240.3648 495.4385V466.25758H1269.5457L1290.1786 445.62467 1310.8114 466.25758H1339.9923V495.4385L1360.6253 516.0714 1339.9923 536.7043Z"/>
<path transform="matrix(1,0,0,-1,-99.983,838.56106)" d="M1240.3648 307.84956H1269.5457L1290.1796 328.48344 1310.8135 307.84956H1339.9944V337.0305L1240.3677 436.65718V465.83815H1211.1868L1190.5529 486.47203 1126.1495 422.0687 1161.3739 386.8453 1196.5973 422.0687 1261.0006 357.66639 1240.3667 337.0325Z" fill="#029386"/>
<path transform="matrix(1,0,0,-1,-99.983,838.56106)" stroke-width="2.98883" stroke-linecap="butt" stroke-miterlimit="10" stroke-linejoin="miter" fill="none" stroke="#000000" d="M1240.3648 307.84956H1269.5457L1290.1796 328.48344 1310.8135 307.84956H1339.9944V337.0305L1240.3677 436.65718V465.83815H1211.1868L1190.5529 486.47203 1126.1495 422.0687 1161.3739 386.8453 1196.5973 422.0687 1261.0006 357.66639 1240.3667 337.0325Z"/>
<path transform="matrix(1,0,0,-1,-99.983,838.56106)" d="M1240.3648 208.22187V237.4028L1219.7308 258.0367 1240.3648 278.6706V307.85154H1211.1837L1111.557 208.22486H1082.3761V179.0439L1061.7422 158.41 1126.1455 94.00668 1161.3689 129.23105 1126.1455 164.45442 1190.5479 228.85774 1211.1818 208.22385Z" fill="#029386"/>
<path transform="matrix(1,0,0,-1,-99.983,838.56106)" stroke-width="2.98883" stroke-linecap="butt" stroke-miterlimit="10" stroke-linejoin="miter" fill="none" stroke="#000000" d="M1240.3648 208.22187V237.4028L1219.7308 258.0367 1240.3648 278.6706V307.85154H1211.1837L1111.557 208.22486H1082.3761V179.0439L1061.7422 158.41 1126.1455 94.00668 1161.3689 129.23105 1126.1455 164.45442 1190.5479 228.85774 1211.1818 208.22385Z"/>
<path transform="matrix(1,0,0,-1,-99.983,838.56106)" d="M1339.9923 208.22187H1310.8114L1290.1775 187.58797 1269.5436 208.22187H1240.3627V179.04091L1339.9894 79.41422V50.23328H1369.1703L1389.8042 29.59938 1454.2075 94.0027 1418.9832 129.22608 1383.7598 94.0027 1319.3565 158.40502 1339.9904 179.03891Z" fill="#029386"/>
<path transform="matrix(1,0,0,-1,-99.983,838.56106)" stroke-width="2.98883" stroke-linecap="butt" stroke-miterlimit="10" stroke-linejoin="miter" fill="none" stroke="#000000" d="M1339.9923 208.22187H1310.8114L1290.1775 187.58797 1269.5436 208.22187H1240.3627V179.04091L1339.9894 79.41422V50.23328H1369.1703L1389.8042 29.59938 1454.2075 94.0027 1418.9832 129.22608 1383.7598 94.0027 1319.3565 158.40502 1339.9904 179.03891Z"/>
<path transform="matrix(1,0,0,-1,-99.983,838.56106)" d="M1339.9923 307.84956V278.6686L1360.6262 258.0347 1339.9923 237.4008V208.21987H1369.1734L1468.8 307.84654H1497.981V337.0275L1518.6149 357.66139 1454.2116 422.0647 1418.9882 386.84037 1454.2116 351.61698 1389.8092 287.21366 1369.1753 307.84757Z" fill="#029386"/>
<path transform="matrix(1,0,0,-1,-99.983,838.56106)" stroke-width="2.98883" stroke-linecap="butt" stroke-miterlimit="10" stroke-linejoin="miter" fill="none" stroke="#000000" d="M1339.9923 307.84956V278.6686L1360.6262 258.0347 1339.9923 237.4008V208.21987H1369.1734L1468.8 307.84654H1497.981V337.0275L1518.6149 357.66139 1454.2116 422.0647 1418.9882 386.84037 1454.2116 351.61698 1389.8092 287.21366 1369.1753 307.84757Z"/>
<path transform="matrix(1,0,0,-1,-99.983,838.56106)" d="M1598.0281 307.84956H1568.8472L1548.2142 328.48246 1527.5813 307.84956H1498.4004V278.6686L1477.7675 258.0357 1498.4004 237.4028V208.22187H1527.5813L1548.2142 187.58896 1568.8472 208.22187H1598.0281V237.4028L1618.661 258.0357 1598.0281 278.6686Z" fill="#029386"/>
<path transform="matrix(1,0,0,-1,-99.983,838.56106)" stroke-width="2.98883" stroke-linecap="butt" stroke-miterlimit="10" stroke-linejoin="miter" fill="none" stroke="#000000" d="M1598.0281 307.84956H1568.8472L1548.2142 328.48246 1527.5813 307.84956H1498.4004V278.6686L1477.7675 258.0357 1498.4004 237.4028V208.22187H1527.5813L1548.2142 187.58896 1568.8472 208.22187H1598.0281V237.4028L1618.661 258.0357 1598.0281 278.6686Z"/>
<path transform="matrix(1,0,0,-1,-99.983,838.56106)" d="M-49.81384 1081.9567H-20.63289L.00099 1102.5906 20.63489 1081.9567H49.81583V1111.1376L-49.81084 1210.7643V1239.9452H-78.99179L-99.62569 1260.5791-164.029 1196.1758-128.80464 1160.9524-93.58127 1196.1758-29.17795 1131.7736-49.81184 1111.1397Z" fill="#029386"/>
<path transform="matrix(1,0,0,-1,-99.983,838.56106)" stroke-width="2.98883" stroke-linecap="butt" stroke-miterlimit="10" stroke-linejoin="miter" fill="none" stroke="#000000" d="M-49.81384 1081.9567H-20.63289L.00099 1102.5906 20.63489 1081.9567H49.81583V1111.1376L-49.81084 1210.7643V1239.9452H-78.99179L-99.62569 1260.5791-164.029 1196.1758-128.80464 1160.9524-93.58127 1196.1758-29.17795 1131.7736-49.81184 1111.1397Z"/>
<path transform="matrix(1,0,0,-1,-99.983,838.56106)" d="M-49.81384 982.329V1011.50997L-70.44772 1032.1438-49.81384 1052.7777V1081.9586H-78.99478L-178.62148 982.332H-207.80242V953.151L-228.43631 932.5171-164.03299 868.1138-128.80962 903.3382-164.03299 938.5615-99.63068 1002.96487-78.99678 982.33096Z" fill="#029386"/>
<path transform="matrix(1,0,0,-1,-99.983,838.56106)" stroke-width="2.98883" stroke-linecap="butt" stroke-miterlimit="10" stroke-linejoin="miter" fill="none" stroke="#000000" d="M-49.81384 982.329V1011.50997L-70.44772 1032.1438-49.81384 1052.7777V1081.9586H-78.99478L-178.62148 982.332H-207.80242V953.151L-228.43631 932.5171-164.03299 868.1138-128.80962 903.3382-164.03299 938.5615-99.63068 1002.96487-78.99678 982.33096Z"/>
<path transform="matrix(1,0,0,-1,-99.983,838.56106)" d="M49.81384 982.329H20.63289L-.00099 961.69509-20.63489 982.329H-49.81583V953.148L49.81084 853.5213V824.3404H78.99179L99.62569 803.7065 164.029 868.1098 128.80464 903.3332 93.58127 868.1098 29.17795 932.51217 49.81184 953.14608Z" fill="#029386"/>
<path transform="matrix(1,0,0,-1,-99.983,838.56106)" stroke-width="2.98883" stroke-linecap="butt" stroke-miterlimit="10" stroke-linejoin="miter" fill="none" stroke="#000000" d="M49.81384 982.329H20.63289L-.00099 961.69509-20.63489 982.329H-49.81583V953.148L49.81084 853.5213V824.3404H78.99179L99.62569 803.7065 164.029 868.1098 128.80464 903.3332 93.58127 868.1098 29.17795 932.51217 49.81184 953.14608Z"/>
<path transform="matrix(1,0,0,-1,-99.983,838.56106)" d="M49.81384 1081.9567V1052.7758L70.44772 1032.1419 49.81384 1011.50796V982.32699H78.99478L178.62148 1081.9536H207.80242V1111.1347L228.43631 1131.7686 164.03299 1196.1719 128.80962 1160.9475 164.03299 1125.7241 99.63068 1061.3208 78.99678 1081.9547Z" fill="#029386"/>
<path transform="matrix(1,0,0,-1,-99.983,838.56106)" stroke-width="2.98883" stroke-linecap="butt" stroke-miterlimit="10" stroke-linejoin="miter" fill="none" stroke="#000000" d="M49.81384 1081.9567V1052.7758L70.44772 1032.1419 49.81384 1011.50796V982.32699H78.99478L178.62148 1081.9536H207.80242V1111.1347L228.43631 1131.7686 164.03299 1196.1719 128.80962 1160.9475 164.03299 1125.7241 99.63068 1061.3208 78.99678 1081.9547Z"/>
<path transform="matrix(1,0,0,-1,-99.983,838.56106)" d="M307.84956 1081.9567H278.6686L258.0357 1102.5896 237.4028 1081.9567H208.22187V1052.7758L187.58896 1032.1428 208.22187 1011.50997V982.329H237.4028L258.0357 961.6961 278.6686 982.329H307.84956V1011.50997L328.48246 1032.1428 307.84956 1052.7758Z" fill="#029386"/>
<path transform="matrix(1,0,0,-1,-99.983,838.56106)" stroke-width="2.98883" stroke-linecap="butt" stroke-miterlimit="10" stroke-linejoin="miter" fill="none" stroke="#000000" d="M307.84956 1081.9567H278.6686L258.0357 1102.5896 237.4028 1081.9567H208.22187V1052.7758L187.58896 1032.1428 208.22187 1011.50997V982.329H237.4028L258.0357 961.6961 278.6686 982.329H307.84956V1011.50997L328.48246 1032.1428 307.84956 1052.7758Z"/>
<path transform="matrix(1,0,0,-1,-99.983,838.56106)" d="M208.22187 823.92098H237.4028L258.0367 844.5548 278.6706 823.92098H307.85154V853.1019L208.22486 952.7286V981.90957H179.0439L158.41 1002.54348 94.00668 938.1401 129.23105 902.91677 164.45442 938.1401 228.85774 873.7378 208.22385 853.1039Z" fill="#029386"/>
<path transform="matrix(1,0,0,-1,-99.983,838.56106)" stroke-width="2.98883" stroke-linecap="butt" stroke-miterlimit="10" stroke-linejoin="miter" fill="none" stroke="#000000" d="M208.22187 823.92098H237.4028L258.0367 844.5548 278.6706 823.92098H307.85154V853.1019L208.22486 952.7286V981.90957H179.0439L158.41 1002.54348 94.00668 938.1401 129.23105 902.91677 164.45442 938.1401 228.85774 873.7378 208.22385 853.1039Z"/>
<path transform="matrix(1,0,0,-1,-99.983,838.56106)" d="M208.22187 724.2933V753.4742L187.58797 774.1081 208.22187 794.742V823.9229H179.04091L79.41422 724.29629H50.23328V695.1153L29.59938 674.4814 94.0027 610.0781 129.22608 645.3025 94.0027 680.5258 158.40502 744.92916 179.03891 724.2953Z" fill="#029386"/>
<path transform="matrix(1,0,0,-1,-99.983,838.56106)" stroke-width="2.98883" stroke-linecap="butt" stroke-miterlimit="10" stroke-linejoin="miter" fill="none" stroke="#000000" d="M208.22187 724.2933V753.4742L187.58797 774.1081 208.22187 794.742V823.9229H179.04091L79.41422 724.29629H50.23328V695.1153L29.59938 674.4814 94.0027 610.0781 129.22608 645.3025 94.0027 680.5258 158.40502 744.92916 179.03891 724.2953Z"/>
<path transform="matrix(1,0,0,-1,-99.983,838.56106)" d="M307.84956 724.2933H278.6686L258.0347 703.65939 237.4008 724.2933H208.21987V695.1123L307.84654 595.48568V566.3047H337.0275L357.66139 545.6708 422.0647 610.0741 386.84037 645.2975 351.61698 610.0741 287.21366 674.47647 307.84757 695.1103Z" fill="#029386"/>
<path transform="matrix(1,0,0,-1,-99.983,838.56106)" stroke-width="2.98883" stroke-linecap="butt" stroke-miterlimit="10" stroke-linejoin="miter" fill="none" stroke="#000000" d="M307.84956 724.2933H278.6686L258.0347 703.65939 237.4008 724.2933H208.21987V695.1123L307.84654 595.48568V566.3047H337.0275L357.66139 545.6708 422.0647 610.0741 386.84037 645.2975 351.61698 610.0741 287.21366 674.47647 307.84757 695.1103Z"/>
<path transform="matrix(1,0,0,-1,-99.983,838.56106)" d="M307.84956 823.92098V794.74L328.48344 774.10617 307.84956 753.4722V724.29129H337.0305L436.65718 823.91799H465.83815V853.0989L486.47203 873.7328 422.0687 938.1361 386.8453 902.91177 422.0687 867.6884 357.66639 803.28506 337.0325 823.91897Z" fill="#029386"/>
<path transform="matrix(1,0,0,-1,-99.983,838.56106)" stroke-width="2.98883" stroke-linecap="butt" stroke-miterlimit="10" stroke-linejoin="miter" fill="none" stroke="#000000" d="M307.84956 823.92098V794.74L328.48344 774.10617 307.84956 753.4722V724.29129H337.0305L436.65718 823.91799H465.83815V853.0989L486.47203 873.7328 422.0687 938.1361 386.8453 902.91177 422.0687 867.6884 357.66639 803.28506 337.0325 823.91897Z"/>
<path transform="matrix(1,0,0,-1,-99.983,838.56106)" d="M565.88528 823.92098H536.7043L516.0714 844.55386 495.4385 823.92098H466.25758V794.74L445.62467 774.1071 466.25758 753.4742V724.2933H495.4385L516.0714 703.6604 536.7043 724.2933H565.88528V753.4742L586.5181 774.1071 565.88528 794.74Z" fill="#029386"/>
<path transform="matrix(1,0,0,-1,-99.983,838.56106)" stroke-width="2.98883" stroke-linecap="butt" stroke-miterlimit="10" stroke-linejoin="miter" fill="none" stroke="#000000" d="M565.88528 823.92098H536.7043L516.0714 844.55386 495.4385 823.92098H466.25758V794.74L445.62467 774.1071 466.25758 753.4742V724.2933H495.4385L516.0714 703.6604 536.7043 724.2933H565.88528V753.4742L586.5181 774.1071 565.88528 794.74Z"/>
<path transform="matrix(1,0,0,-1,-99.983,838.56106)" d="M466.25758 1081.9567H495.4385L516.0724 1102.5906 536.7063 1081.9567H565.88729V1111.1376L466.26057 1210.7643V1239.9452H437.0796L416.4457 1260.5791 352.0424 1196.1758 387.26676 1160.9524 422.49015 1196.1758 486.89347 1131.7736 466.25956 1111.1397Z" fill="#029386"/>
<path transform="matrix(1,0,0,-1,-99.983,838.56106)" stroke-width="2.98883" stroke-linecap="butt" stroke-miterlimit="10" stroke-linejoin="miter" fill="none" stroke="#000000" d="M466.25758 1081.9567H495.4385L516.0724 1102.5906 536.7063 1081.9567H565.88729V1111.1376L466.26057 1210.7643V1239.9452H437.0796L416.4457 1260.5791 352.0424 1196.1758 387.26676 1160.9524 422.49015 1196.1758 486.89347 1131.7736 466.25956 1111.1397Z"/>
<path transform="matrix(1,0,0,-1,-99.983,838.56106)" d="M466.25758 982.329V1011.50997L445.62367 1032.1438 466.25758 1052.7777V1081.9586H437.0766L337.44993 982.332H308.26899V953.151L287.6351 932.5171 352.0384 868.1138 387.26179 903.3382 352.0384 938.5615 416.44075 1002.96487 437.07463 982.33096Z" fill="#029386"/>
<path transform="matrix(1,0,0,-1,-99.983,838.56106)" stroke-width="2.98883" stroke-linecap="butt" stroke-miterlimit="10" stroke-linejoin="miter" fill="none" stroke="#000000" d="M466.25758 982.329V1011.50997L445.62367 1032.1438 466.25758 1052.7777V1081.9586H437.0766L337.44993 982.332H308.26899V953.151L287.6351 932.5171 352.0384 868.1138 387.26179 903.3382 352.0384 938.5615 416.44075 1002.96487 437.07463 982.33096Z"/>
<path transform="matrix(1,0,0,-1,-99.983,838.56106)" d="M565.88528 982.329H536.7043L516.0704 961.69509 495.43653 982.329H466.25559V953.148L565.88229 853.5213V824.3404H595.0632L615.6971 803.7065 680.1004 868.1098 644.87606 903.3332 609.6527 868.1098 545.2494 932.51217 565.88327 953.14608Z" fill="#029386"/>
<path transform="matrix(1,0,0,-1,-99.983,838.56106)" stroke-width="2.98883" stroke-linecap="butt" stroke-miterlimit="10" stroke-linejoin="miter" fill="none" stroke="#000000" d="M565.88528 982.329H536.7043L516.0704 961.69509 495.43653 982.329H466.25559V953.148L565.88229 853.5213V824.3404H595.0632L615.6971 803.7065 680.1004 868.1098 644.87606 903.3332 609.6527 868.1098 545.2494 932.51217 565.88327 953.14608Z"/>
<path transform="matrix(1,0,0,-1,-99.983,838.56106)" d="M565.88528 1081.9567V1052.7758L586.5191 1032.1419 565.88528 1011.50796V982.32699H595.0662L694.6929 1081.9536H723.87387V1111.1347L744.5077 1131.7686 680.1044 1196.1719 644.88107 1160.9475 680.1044 1125.7241 615.7021 1061.3208 595.0682 1081.9547Z" fill="#029386"/>
<path transform="matrix(1,0,0,-1,-99.983,838.56106)" stroke-width="2.98883" stroke-linecap="butt" stroke-miterlimit="10" stroke-linejoin="miter" fill="none" stroke="#000000" d="M565.88528 1081.9567V1052.7758L586.5191 1032.1419 565.88528 1011.50796V982.32699H595.0662L694.6929 1081.9536H723.87387V1111.1347L744.5077 1131.7686 680.1044 1196.1719 644.88107 1160.9475 680.1044 1125.7241 615.7021 1061.3208 595.0682 1081.9547Z"/>
<path transform="matrix(1,0,0,-1,-99.983,838.56106)" d="M823.92098 1081.9567H794.74L774.1071 1102.5896 753.4742 1081.9567H724.2933V1052.7758L703.6604 1032.1428 724.2933 1011.50997V982.329H753.4742L774.1071 961.6961 794.74 982.329H823.92098V1011.50997L844.55386 1032.1428 823.92098 1052.7758Z" fill="#029386"/>
<path transform="matrix(1,0,0,-1,-99.983,838.56106)" stroke-width="2.98883" stroke-linecap="butt" stroke-miterlimit="10" stroke-linejoin="miter" fill="none" stroke="#000000" d="M823.92098 1081.9567H794.74L774.1071 1102.5896 753.4742 1081.9567H724.2933V1052.7758L703.6604 1032.1428 724.2933 1011.50997V982.329H753.4742L774.1071 961.6961 794.74 982.329H823.92098V1011.50997L844.55386 1032.1428 823.92098 1052.7758Z"/>
<path transform="matrix(1,0,0,-1,-99.983,838.56106)" d="M724.2933 823.92098H753.4742L774.1081 844.5548 794.742 823.92098H823.9229V853.1019L724.29629 952.7286V981.90957H695.1153L674.4814 1002.54348 610.0781 938.1401 645.3025 902.91677 680.5258 938.1401 744.92916 873.7378 724.2953 853.1039Z" fill="#029386"/>
<path transform="matrix(1,0,0,-1,-99.983,838.56106)" stroke-width="2.98883" stroke-linecap="butt" stroke-miterlimit="10" stroke-linejoin="miter" fill="none" stroke="#000000" d="M724.2933 823.92098H753.4742L774.1081 844.5548 794.742 823.92098H823.9229V853.1019L724.29629 952.7286V981.90957H695.1153L674.4814 1002.54348 610.0781 938.1401 645.3025 902.91677 680.5258 938.1401 744.92916 873.7378 724.2953 853.1039Z"/>
<path transform="matrix(1,0,0,-1,-99.983,838.56106)" d="M724.2933 724.2933V753.4742L703.65939 774.1081 724.2933 794.742V823.9229H695.1123L595.48568 724.29629H566.3047V695.1153L545.6708 674.4814 610.0741 610.0781 645.2975 645.3025 610.0741 680.5258 674.47647 744.92916 695.1103 724.2953Z" fill="#029386"/>
<path transform="matrix(1,0,0,-1,-99.983,838.56106)" stroke-width="2.98883" stroke-linecap="butt" stroke-miterlimit="10" stroke-linejoin="miter" fill="none" stroke="#000000" d="M724.2933 724.2933V753.4742L703.65939 774.1081 724.2933 794.742V823.9229H695.1123L595.48568 724.29629H566.3047V695.1153L545.6708 674.4814 610.0741 610.0781 645.2975 645.3025 610.0741 680.5258 674.47647 744.92916 695.1103 724.2953Z"/>
<path transform="matrix(1,0,0,-1,-99.983,838.56106)" d="M823.92098 724.2933H794.74L774.10617 703.65939 753.4722 724.2933H724.29129V695.1123L823.91799 595.48568V566.3047H853.0989L873.7328 545.6708 938.1361 610.0741 902.91177 645.2975 867.6884 610.0741 803.28506 674.47647 823.91897 695.1103Z" fill="#029386"/>
<path transform="matrix(1,0,0,-1,-99.983,838.56106)" stroke-width="2.98883" stroke-linecap="butt" stroke-miterlimit="10" stroke-linejoin="miter" fill="none" stroke="#000000" d="M823.92098 724.2933H794.74L774.10617 703.65939 753.4722 724.2933H724.29129V695.1123L823.91799 595.48568V566.3047H853.0989L873.7328 545.6708 938.1361 610.0741 902.91177 645.2975 867.6884 610.0741 803.28506 674.47647 823.91897 695.1103Z"/>
<path transform="matrix(1,0,0,-1,-99.983,838.56106)" d="M823.92098 823.92098V794.74L844.5548 774.10617 823.92098 753.4722V724.29129H853.1019L952.7286 823.91799H981.90957V853.0989L1002.54348 873.7328 938.1401 938.1361 902.91677 902.91177 938.1401 867.6884 873.7378 803.28506 853.1039 823.91897Z" fill="#029386"/>
<path transform="matrix(1,0,0,-1,-99.983,838.56106)" stroke-width="2.98883" stroke-linecap="butt" stroke-miterlimit="10" stroke-linejoin="miter" fill="none" stroke="#000000" d="M823.92098 823.92098V794.74L844.5548 774.10617 823.92098 753.4722V724.29129H853.1019L952.7286 823.91799H981.90957V853.0989L1002.54348 873.7328 938.1401 938.1361 902.91677 902.91177 938.1401 867.6884 873.7378 803.28506 853.1039 823.91897Z"/>
<path transform="matrix(1,0,0,-1,-99.983,838.56106)" d="M1081.9567 823.92098H1052.7758L1032.1428 844.55386 1011.50997 823.92098H982.329V794.74L961.6961 774.1071 982.329 753.4742V724.2933H1011.50997L1032.1428 703.6604 1052.7758 724.2933H1081.9567V753.4742L1102.5896 774.1071 1081.9567 794.74Z" fill="#029386"/>
<path transform="matrix(1,0,0,-1,-99.983,838.56106)" stroke-width="2.98883" stroke-linecap="butt" stroke-miterlimit="10" stroke-linejoin="miter" fill="none" stroke="#000000" d="M1081.9567 823.92098H1052.7758L1032.1428 844.55386 1011.50997 823.92098H982.329V794.74L961.6961 774.1071 982.329 753.4742V724.2933H1011.50997L1032.1428 703.6604 1052.7758 724.2933H1081.9567V753.4742L1102.5896 774.1071 1081.9567 794.74Z"/>
<path transform="matrix(1,0,0,-1,-99.983,838.56106)" d="M982.329 1081.9567H1011.50997L1032.1438 1102.5906 1052.7777 1081.9567H1081.9586V1111.1376L982.332 1210.7643V1239.9452H953.151L932.5171 1260.5791 868.1138 1196.1758 903.3382 1160.9524 938.5615 1196.1758 1002.96487 1131.7736 982.33096 1111.1397Z" fill="#029386"/>
<path transform="matrix(1,0,0,-1,-99.983,838.56106)" stroke-width="2.98883" stroke-linecap="butt" stroke-miterlimit="10" stroke-linejoin="miter" fill="none" stroke="#000000" d="M982.329 1081.9567H1011.50997L1032.1438 1102.5906 1052.7777 1081.9567H1081.9586V1111.1376L982.332 1210.7643V1239.9452H953.151L932.5171 1260.5791 868.1138 1196.1758 903.3382 1160.9524 938.5615 1196.1758 1002.96487 1131.7736 982.33096 1111.1397Z"/>
<path transform="matrix(1,0,0,-1,-99.983,838.56106)" d="M982.329 982.329V1011.50997L961.69509 1032.1438 982.329 1052.7777V1081.9586H953.148L853.5213 982.332H824.3404V953.151L803.7065 932.5171 868.1098 868.1138 903.3332 903.3382 868.1098 938.5615 932.51217 1002.96487 953.14608 982.33096Z" fill="#029386"/>
<path transform="matrix(1,0,0,-1,-99.983,838.56106)" stroke-width="2.98883" stroke-linecap="butt" stroke-miterlimit="10" stroke-linejoin="miter" fill="none" stroke="#000000" d="M982.329 982.329V1011.50997L961.69509 1032.1438 982.329 1052.7777V1081.9586H953.148L853.5213 982.332H824.3404V953.151L803.7065 932.5171 868.1098 868.1138 903.3332 903.3382 868.1098 938.5615 932.51217 1002.96487 953.14608 982.33096Z"/>
<path transform="matrix(1,0,0,-1,-99.983,838.56106)" d="M1081.9567 982.329H1052.7758L1032.1419 961.69509 1011.50796 982.329H982.32699V953.148L1081.9536 853.5213V824.3404H1111.1347L1131.7686 803.7065 1196.1719 868.1098 1160.9475 903.3332 1125.7241 868.1098 1061.3208 932.51217 1081.9547 953.14608Z" fill="#029386"/>
<path transform="matrix(1,0,0,-1,-99.983,838.56106)" stroke-width="2.98883" stroke-linecap="butt" stroke-miterlimit="10" stroke-linejoin="miter" fill="none" stroke="#000000" d="M1081.9567 982.329H1052.7758L1032.1419 961.69509 1011.50796 982.329H982.32699V953.148L1081.9536 853.5213V824.3404H1111.1347L1131.7686 803.7065 1196.1719 868.1098 1160.9475 903.3332 1125.7241 868.1098 1061.3208 932.51217 1081.9547 953.14608Z"/>
<path transform="matrix(1,0,0,-1,-99.983,838.56106)" d="M1081.9567 1081.9567V1052.7758L1102.5906 1032.1419 1081.9567 1011.50796V982.32699H1111.1376L1210.7643 1081.9536H1239.9452V1111.1347L1260.5791 1131.7686 1196.1758 1196.1719 1160.9524 1160.9475 1196.1758 1125.7241 1131.7736 1061.3208 1111.1397 1081.9547Z" fill="#029386"/>
<path transform="matrix(1,0,0,-1,-99.983,838.56106)" stroke-width="2.98883" stroke-linecap="butt" stroke-miterlimit="10" stroke-linejoin="miter" fill="none" stroke="#000000" d="M1081.9567 1081.9567V1052.7758L1102.5906 1032.1419 1081.9567 1011.50796V982.32699H1111.1376L1210.7643 1081.9536H1239.9452V1111.1347L1260.5791 1131.7686 1196.1758 1196.1719 1160.9524 1160.9475 1196.1758 1125.7241 1131.7736 1061.3208 1111.1397 1081.9547Z"/>
<path transform="matrix(1,0,0,-1,-99.983,838.56106)" d="M1339.9923 1081.9567H1310.8114L1290.1786 1102.5896 1269.5457 1081.9567H1240.3648V1052.7758L1219.7318 1032.1428 1240.3648 1011.50997V982.329H1269.5457L1290.1786 961.6961 1310.8114 982.329H1339.9923V1011.50997L1360.6253 1032.1428 1339.9923 1052.7758Z" fill="#029386"/>
<path transform="matrix(1,0,0,-1,-99.983,838.56106)" stroke-width="2.98883" stroke-linecap="butt" stroke-miterlimit="10" stroke-linejoin="miter" fill="none" stroke="#000000" d="M1339.9923 1081.9567H1310.8114L1290.1786 1102.5896 1269.5457 1081.9567H1240.3648V1052.7758L1219.7318 1032.1428 1240.3648 1011.50997V982.329H1269.5457L1290.1786 961.6961 1310.8114 982.329H1339.9923V1011.50997L1360.6253 1032.1428 1339.9923 1052.7758Z"/>
<path transform="matrix(1,0,0,-1,-99.983,838.56106)" d="M1240.3648 823.92098H1269.5457L1290.1796 844.5548 1310.8135 823.92098H1339.9944V853.1019L1240.3677 952.7286V981.90957H1211.1868L1190.5529 1002.54348 1126.1495 938.1401 1161.3739 902.91677 1196.5973 938.1401 1261.0006 873.7378 1240.3667 853.1039Z" fill="#029386"/>
<path transform="matrix(1,0,0,-1,-99.983,838.56106)" stroke-width="2.98883" stroke-linecap="butt" stroke-miterlimit="10" stroke-linejoin="miter" fill="none" stroke="#000000" d="M1240.3648 823.92098H1269.5457L1290.1796 844.5548 1310.8135 823.92098H1339.9944V853.1019L1240.3677 952.7286V981.90957H1211.1868L1190.5529 1002.54348 1126.1495 938.1401 1161.3739 902.91677 1196.5973 938.1401 1261.0006 873.7378 1240.3667 853.1039Z"/>
<path transform="matrix(1,0,0,-1,-99.983,838.56106)" d="M1240.3648 724.2933V753.4742L1219.7308 774.1081 1240.3648 794.742V823.9229H1211.1837L1111.557 724.29629H1082.3761V695.1153L1061.7422 674.4814 1126.1455 610.0781 1161.3689 645.3025 1126.1455 680.5258 1190.5479 744.92916 1211.1818 724.2953Z" fill="#029386"/>
<path transform="matrix(1,0,0,-1,-99.983,838.56106)" stroke-width="2.98883" stroke-linecap="butt" stroke-miterlimit="10" stroke-linejoin="miter" fill="none" stroke="#000000" d="M1240.3648 724.2933V753.4742L1219.7308 774.1081 1240.3648 794.742V823.9229H1211.1837L1111.557 724.29629H1082.3761V695.1153L1061.7422 674.4814 1126.1455 610.0781 1161.3689 645.3025 1126.1455 680.5258 1190.5479 744.92916 1211.1818 724.2953Z"/>
<path transform="matrix(1,0,0,-1,-99.983,838.56106)" d="M1339.9923 724.2933H1310.8114L1290.1775 703.65939 1269.5436 724.2933H1240.3627V695.1123L1339.9894 595.48568V566.3047H1369.1703L1389.8042 545.6708 1454.2075 610.0741 1418.9832 645.2975 1383.7598 610.0741 1319.3565 674.47647 1339.9904 695.1103Z" fill="#029386"/>
<path transform="matrix(1,0,0,-1,-99.983,838.56106)" stroke-width="2.98883" stroke-linecap="butt" stroke-miterlimit="10" stroke-linejoin="miter" fill="none" stroke="#000000" d="M1339.9923 724.2933H1310.8114L1290.1775 703.65939 1269.5436 724.2933H1240.3627V695.1123L1339.9894 595.48568V566.3047H1369.1703L1389.8042 545.6708 1454.2075 610.0741 1418.9832 645.2975 1383.7598 610.0741 1319.3565 674.47647 1339.9904 695.1103Z"/>
<path transform="matrix(1,0,0,-1,-99.983,838.56106)" d="M1339.9923 823.92098V794.74L1360.6262 774.10617 1339.9923 753.4722V724.29129H1369.1734L1468.8 823.91799H1497.981V853.0989L1518.6149 873.7328 1454.2116 938.1361 1418.9882 902.91177 1454.2116 867.6884 1389.8092 803.28506 1369.1753 823.91897Z" fill="#029386"/>
<path transform="matrix(1,0,0,-1,-99.983,838.56106)" stroke-width="2.98883" stroke-linecap="butt" stroke-miterlimit="10" stroke-linejoin="miter" fill="none" stroke="#000000" d="M1339.9923 823.92098V794.74L1360.6262 774.10617 1339.9923 753.4722V724.29129H1369.1734L1468.8 823.91799H1497.981V853.0989L1518.6149 873.7328 1454.2116 938.1361 1418.9882 902.91177 1454.2116 867.6884 1389.8092 803.28506 1369.1753 823.91897Z"/>
<path transform="matrix(1,0,0,-1,-99.983,838.56106)" d="M1598.0281 823.92098H1568.8472L1548.2142 844.55386 1527.5813 823.92098H1498.4004V794.74L1477.7675 774.1071 1498.4004 753.4742V724.2933H1527.5813L1548.2142 703.6604 1568.8472 724.2933H1598.0281V753.4742L1618.661 774.1071 1598.0281 794.74Z" fill="#029386"/>
<path transform="matrix(1,0,0,-1,-99.983,838.56106)" stroke-width="2.98883" stroke-linecap="butt" stroke-miterlimit="10" stroke-linejoin="miter" fill="none" stroke="#000000" d="M1598.0281 823.92098H1568.8472L1548.2142 844.55386 1527.5813 823.92098H1498.4004V794.74L1477.7675 774.1071 1498.4004 753.4742V724.2933H1527.5813L1548.2142 703.6604 1568.8472 724.2933H1598.0281V753.4742L1618.661 774.1071 1598.0281 794.74Z"/>
</g>
</svg>
