<svg xmlns="http://www.w3.org/2000/svg" xmlns:xlink="http://www.w3.org/1999/xlink" xmlns:inkscape="http://www.inkscape.org/namespaces/inkscape" version="1.1" width="789.04" height="450.12" viewBox="0 0 789.04 450.12">
<defs>
<path id="font_1_96" d="M.47799684 .3775177C.47799684 .42051698 .43598939 .43652345 .38598634 .43652345 .31900025 .43652345 .2619934 .4065094 .21598816 .35050965V.3895111C.21598816 .4206543 .20999146 .43066407 .17599488 .43066407H.07499695C.06098938 .43066407 .034988405 .43066407 .034988405 .4016571 .034988405 .37265016 .06098938 .37265016 .07499695 .37265016H.15098572V.057998659H.07499695C.06098938 .057998659 .034988405 .057998659 .034988405 .0289917 .034988405 0 .06098938 0 .07499695 0H.32099916C.33499146 0 .36099244 0 .36099244 .0289917 .36099244 .057998659 .33499146 .057998659 .32099916 .057998659H.21598816V.18885803C.21598816 .30751039 .2999878 .37850953 .3849945 .37850953 .3899994 .37850953 .3959961 .37850953 .40098573 .3775177 .4039917 .34152223 .43199159 .33851625 .43899537 .33851625 .46199037 .33851625 .47799684 .35551454 .47799684 .3775177Z"/>
<path id="font_1_50" d="M.45599366 .109298709C.45599366 .11531067 .45399476 .13737488 .4229889 .13737488 .4039917 .13737488 .397995 .13035584 .3919983 .11531067 .36698915 .057144166 .3019867 .052139284 .2829895 .052139284 .19999695 .052139284 .13398743 .11531067 .12298584 .19238281H.41600038C.43699647 .19238281 .45599366 .19238281 .45599366 .22938538 .45599366 .34640504 .3899994 .4404297 .2649994 .4404297 .14898682 .4404297 .055999757 .34040834 .055999757 .21838379 .055999757 .09225464 .15699768-.005859375 .27999879-.005859375 .40899659-.005859375 .45599366 .083221439 .45599366 .109298709M.3899994 .24739075 .12399292 .24737549C.13699341 .33239747 .20199585 .38241578 .2649994 .38241578 .36499024 .38241578 .38598634 .2973938 .3899994 .24737549V.24739075Z"/>
<path id="font_1_43" d="M.45599366 .109176639C.45599366 .13520813 .43099977 .13520813 .4229889 .13520813 .3999939 .13520813 .3959961 .12719727 .3909912 .1131897 .36898805 .058135988 .31999208 .052139284 .29599 .052139284 .21099854 .052139284 .13899231 .12319946 .13899231 .21627808 .13899231 .26731874 .16799927 .38241578 .29899598 .38241578 .32598878 .38241578 .34700013 .38041688 .35598756 .37942506 .36299134 .37742616 .3639984 .37641908 .3639984 .37141419 .36698915 .3303833 .397995 .32937623 .4039917 .32937623 .42599488 .32937623 .44499208 .34439088 .44499208 .37141419 .44499208 .4404297 .34399415 .4404297 .2999878 .4404297 .1289978 .4404297 .07398987 .300354 .07398987 .21627808 .07398987 .094177249 .16699219-.005859375 .2869873-.005859375 .42099-.006011963 .45599366 .09298706 .45599366 .10899353V.109176639Z"/>
<path id="font_1_105" d="M.43998719 .123031619C.43998719 .14299011 .43998719 .16496277 .40699769 .16496277 .375 .16496277 .375 .14299011 .375 .122024539 .37399293 .06211853 .31698609 .052139284 .2939911 .052139284 .21598816 .052139284 .21598816 .10206604 .21598816 .12602234V.37265016H.37799073C.3919983 .37265016 .41799928 .37265016 .41799928 .4016571 .41799928 .43066407 .3919983 .43066407 .37799073 .43066407H.21598816V.51268008C.21598816 .5307007 .21598816 .55371096 .18399048 .55371096 .15098572 .55371096 .15098572 .5307007 .15098572 .51268008V.43066407H.06599426C.051986696 .43066407 .024993897 .43066407 .024993897 .4016571 .024993897 .37265016 .050994874 .37265016 .06498718 .37265016H.15098572V.121032718C.15098572 .028137207 .21499634-.005859375 .2869873-.005859375 .34098817-.005859375 .43998719 .021133423 .43998719 .123031619Z"/>
<path id="font_1_88" d="M.31399537 .055999757C.31399537 .08898926 .2869873 .11299133 .2579956 .11299133 .22599793 .11299133 .20098877 .08799744 .20098877 .055999757 .20098877 .025985718 .22698975 0 .25698854 0 .2899933 0 .31399537 .026992798 .31399537 .055999757Z"/>
<path id="font_1_77" d="M.49899293 .0289917C.49899293 .057998659 .47299195 .057998659 .45899964 .057998659H.41799928V.29264833C.41799928 .3905182 .37199403 .43652345 .2899933 .43652345 .22200012 .43652345 .17799378 .3985138 .16099549 .3795166 .16099549 .4166565 .16099549 .43066407 .12098694 .43066407H.054992677C.040985109 .43066407 .01499939 .43066407 .01499939 .4016571 .01499939 .37265016 .040985109 .37265016 .054992677 .37265016H.09599304V.057998659H.054992677C.040985109 .057998659 .01499939 .057998659 .01499939 .0289917 .01499939 0 .040985109 0 .054992677 0H.20199585C.21598816 0 .24198914 0 .24198914 .0289917 .24198914 .057998659 .21598816 .057998659 .20199585 .057998659H.16099549V.23880005C.16099549 .3355713 .22898865 .37850953 .2829895 .37850953 .34098817 .37850953 .35299684 .3455658 .35299684 .2886505V.057998659H.31199647C.2979889 .057998659 .27198792 .057998659 .27198792 .0289917 .27198792 0 .2979889 0 .31199647 0H.45899964C.47299195 0 .49899293 0 .49899293 .0289917Z"/>
<path id="font_1_47" d="M.49899293 .0289917C.49899293 .057998659 .47299195 .057998659 .45899964 .057998659H.41799928V.57032778C.41799928 .60131838 .4119873 .6113281 .37799073 .6113281H.31199647C.2979889 .6113281 .27198792 .6113281 .27198792 .58232119 .27198792 .5533142 .2979889 .5533142 .31199647 .5533142H.35299684V.3865204C.33699037 .4025116 .29599 .43652345 .23498535 .43652345 .1289978 .43652345 .036987306 .34057618 .036987306 .2147522 .036987306 .09213257 .12298584-.005859375 .22599793-.005859375 .29100038-.005859375 .33399964 .03312683 .35299684 .055130006 .35299684 .0129852299 .35299684 0 .3929901 0H.45899964C.47299195 0 .49899293 0 .49899293 .0289917M.35299684 .18998719C.35299684 .13397217 .30699159 .052139284 .23199463 .052139284 .1599884 .052139284 .101989749 .125 .101989749 .21482849 .101989749 .31063844 .16999817 .37850953 .24099732 .37850953 .30599977 .37850953 .35299684 .31962586 .35299684 .2677307V.18998719Z"/>
<path id="font_1_85" d="M.42799378-.057006837C.42799378-.04399109 .42099-.039993287 .40699769-.02999878 .2689972 .06504822 .23498535 .20811463 .23498535 .30516053 .23498535 .40020753 .2669983 .54426577 .40699769 .64131167 .42099 .6513214 .42799378 .6553192 .42799378 .6683197 .42799378 .67832949 .4229889 .69433596 .39898683 .69433596 .37399293 .69433596 .2999878 .63630679 .2539978 .5712738 .19799805 .49324037 .16999817 .40020753 .16999817 .30516053 .16999817 .19410706 .20999146 .10107422 .2519989 .042037965 .2979889-.021987915 .37098695-.08300781 .39898683-.08300781 .4229889-.08300781 .42799378-.06600952 .42799378-.057006837Z"/>
<path id="font_1_63" d="M.49899293 .0289917C.49899293 .057998659 .47299195 .057998659 .45899964 .057998659H.41799928V.29264833C.41799928 .3905182 .37199403 .43652345 .2899933 .43652345 .22200012 .43652345 .17799378 .3985138 .16099549 .3795166V.57032778C.16099549 .60131838 .15499878 .6113281 .12098694 .6113281H.054992677C.040985109 .6113281 .01499939 .6113281 .01499939 .58232119 .01499939 .5533142 .040985109 .5533142 .054992677 .5533142H.09599304V.057998659H.054992677C.040985109 .057998659 .01499939 .057998659 .01499939 .0289917 .01499939 0 .040985109 0 .054992677 0H.20199585C.21598816 0 .24198914 0 .24198914 .0289917 .24198914 .057998659 .21598816 .057998659 .20199585 .057998659H.16099549V.23872376C.16099549 .3355713 .22898865 .37850953 .2829895 .37850953 .34098817 .37850953 .35299684 .3455658 .35299684 .2886505V.057998659H.31199647C.2979889 .057998659 .27198792 .057998659 .27198792 .0289917 .27198792 0 .2979889 0 .31199647 0H.45899964C.47299195 0 .49899293 0 .49899293 .0289917Z"/>
<path id="font_1_116" d="M.48599244 .0289917C.48599244 .057998659 .45999146 .057998659 .44599916 .057998659H.41099549L.28199769 .22181702 .39698792 .37265016H.43199159C.44599916 .37265016 .47200013 .37265016 .47200013 .4016571 .47200013 .43066407 .44599916 .43066407 .43199159 .43066407H.32099916C.30699159 .43066407 .2809906 .43066407 .2809906 .4016571 .2809906 .37265016 .30499269 .37265016 .32899476 .37265016L.2539978 .26976014 .1769867 .37265016C.19999695 .37265016 .22399903 .37265016 .22399903 .4016571 .22399903 .43066407 .19799805 .43066407 .18399048 .43066407H.07299805C.05899048 .43066407 .032989503 .43066407 .032989503 .4016571 .032989503 .37265016 .05899048 .37265016 .07299805 .37265016H.10798645L.22698975 .22181702 .101989749 .057998659H.067993167C.053985597 .057998659 .026992798 .057998659 .026992798 .0289917 .026992798 0 .053985597 0 .067993167 0H.17799378C.19198609 0 .21798706 0 .21798706 .0289917 .21798706 .057998659 .19499207 .057998659 .16799927 .057998659L.2539978 .18385315 .34399415 .057998659C.31900025 .057998659 .29499818 .057998659 .29499818 .0289917 .29499818 0 .32099916 0 .33499146 0H.44599916C.45999146 0 .48599244 0 .48599244 .0289917Z"/>
<path id="font_1_86" d="M.34399415 .30516053C.34399415 .38319398 .32499696 .48423768 .25299073 .58128359 .21899414 .6273041 .14498902 .69433596 .114990238 .69433596 .09199524 .69433596 .085998538 .6773224 .085998538 .6683197 .085998538 .65631106 .09298706 .6513214 .11099243 .63931277 .23298645 .55326846 .2789917 .4192047 .2789917 .30615235 .2789917 .21612549 .25 .06904602 .10699463-.02999878 .09399414-.039001466 .085998538-.04399109 .085998538-.057006837 .085998538-.06600952 .09199524-.08300781 .114990238-.08300781 .13999939-.08300781 .21398926-.024993897 .2599945 .040039064 .31799317 .12207031 .34399415 .21612549 .34399415 .30516053Z"/>
<path id="font_1_66" d="M.44099427 .0289917C.44099427 .057998659 .4149933 .057998659 .40098573 .057998659H.3019867V.3896637C.3019867 .4206543 .29599 .43066407 .2619934 .43066407H.12998963C.115997318 .43066407 .08999634 .43066407 .08999634 .4016571 .08999634 .37265016 .115997318 .37265016 .12998963 .37265016H.23699951V.057998659H.12298584C.10899353 .057998659 .08198547 .057998659 .08198547 .0289917 .08198547 0 .10899353 0 .12298584 0H.40098573C.4149933 0 .44099427 0 .44099427 .0289917M.3019867 .55574038C.3019867 .58073428 .28199769 .6007385 .25698854 .6007385 .23199463 .6007385 .21199036 .58073428 .21199036 .55574038 .21199036 .5307312 .23199463 .5107422 .25698854 .5107422 .28199769 .5107422 .3019867 .5307312 .3019867 .55574038Z"/>
<path id="font_1_59" d="M.5 .3905182C.5 .40951539 .4850006 .44252015 .42900086 .44252015 .41099549 .44252015 .3659973 .43852235 .32398988 .40551759 .29100038 .42851258 .25698854 .43652345 .22898865 .43652345 .13798523 .43652345 .067993167 .36351014 .067993167 .2775116 .067993167 .25550843 .07299805 .21751404 .100997928 .18151856 .08198547 .15351868 .07899475 .1235199 .07899475 .11151123 .07899475 .07650757 .09599304 .04850769 .10398865 .039520265 .04899597 .0098724369 .0289917-.044052125 .0289917-.08299255 .0289917-.16586304 .12998963-.22886658 .25698854-.22886658 .38398744-.22886658 .4850006-.16687012 .4850006-.08299255 .4850006 .06088257 .30799867 .06088257 .2749939 .06088257H.18998719C.17799378 .06088257 .13198853 .06088257 .13198853 .11480713 .13198853 .13380432 .1349945 .13780213 .13899231 .14579773 .15899658 .13179016 .19198609 .11878967 .22799683 .11878967 .31900025 .11878967 .3889923 .19180298 .3889923 .2778015 .3889923 .30262757 .3829956 .3335724 .3619995 .36653138 .3880005 .38050843 .4119873 .3835144 .4269867 .38452149 .43299867 .35354615 .46299745 .35255433 .46299745 .35255433 .47499085 .35255433 .5 .36054994 .5 .3905182M.32398988 .27764894C.32398988 .22073365 .2809906 .17480469 .22799683 .17480469 .17799378 .17480469 .1329956 .21873474 .1329956 .27764894 .1329956 .33657838 .1789856 .38050843 .22799683 .38050843 .2809906 .38087464 .32398988 .33486939 .32398988 .2778778V.27764894M.42799378-.08299255C.42799378-.12892151 .35499574-.17285156 .25698854-.17285156 .15899658-.17285156 .085998538-.12892151 .085998538-.08299255 .085998538-.06800842 .09098816-.033065797 .12799073-.010101318 .15098572 .0048828127 .16099549 .0048828127 .22999573 .0048828127 .31799317 .0048828127 .42799378 .0048828127 .42799378-.08299255Z"/>
<path id="font_1_110" d="M.45899964-.16819763C.45899964-.13520813 .42799378-.13520813 .4139862-.13520813H.099990848C.08699036-.13520813 .054992677-.13520813 .054992677-.16720581 .054992677-.20019531 .085998538-.20019531 .099990848-.20019531H.4139862C.4269867-.20019531 .45899964-.20019531 .45899964-.16819763Z"/>
<path id="font_1_81" d="M.45599366 .21627808C.45599366 .3413849 .36499024 .4404297 .25698854 .4404297 .14898682 .4404297 .057998659 .3413849 .057998659 .21627808 .057998659 .090164188 .1499939-.005859375 .25698854-.005859375 .3639984-.005859375 .45599366 .090164188 .45599366 .21627808M.3909912 .22328186C.3909912 .12719727 .32899476 .052139284 .25698854 .052139284 .18499756 .052139284 .12298584 .12820435 .12298584 .22328186 .12298584 .31636048 .18699646 .38241578 .25698854 .38241578 .32699586 .38241578 .3909912 .31636048 .3909912 .22328186Z"/>
<path id="font_1_55" d="M.42900086 .56018069C.42900086 .6171875 .35299684 .6171875 .33799745 .6171875 .2619934 .6171875 .18199158 .574173 .18199158 .48487855V.43066407H.08299255C.068984989 .43066407 .041992189 .43066407 .041992189 .4016571 .041992189 .37265016 .067993167 .37265016 .08198547 .37265016H.18199158V.057998659H.08699036C.07299805 .057998659 .04699707 .057998659 .04699707 .0289917 .04699707 0 .07299805 0 .08699036 0H.34199525C.35598756 0 .38198854 0 .38198854 .0289917 .38198854 .057998659 .35598756 .057998659 .34199525 .057998659H.24699402V.37265016H.36799623C.38198854 .37265016 .4079895 .37265016 .4079895 .4016571 .4079895 .43066407 .38198854 .43066407 .36799623 .43066407H.24699402V.48086549C.24699402 .5591736 .31698609 .5591736 .34899903 .5591736 .34899903 .5591736 .35699464 .52001956 .3899994 .52001956 .4059906 .52001956 .42900086 .532074 .42900086 .56018069Z"/>
<path id="font_1_72" d="M.45199586 .0289917C.45199586 .057998659 .42599488 .057998659 .4119873 .057998659H.2899933V.57032778C.2899933 .60131838 .28399659 .6113281 .25 .6113281H.102996829C.08898926 .6113281 .06298828 .6113281 .06298828 .58232119 .06298828 .5533142 .08898926 .5533142 .102996829 .5533142H.22499085V.057998659H.102996829C.08898926 .057998659 .06298828 .057998659 .06298828 .0289917 .06298828 0 .08898926 0 .102996829 0H.4119873C.42599488 0 .45199586 0 .45199586 .0289917Z"/>
<path id="font_1_35" d="M.47698976 .21582031C.47698976 .33859254 .3929901 .43652345 .2889862 .43652345 .21598816 .43652345 .16999817 .3925171 .16099549 .38252259V.57032778C.16099549 .60131838 .15499878 .6113281 .12098694 .6113281H.054992677C.040985109 .6113281 .01499939 .6113281 .01499939 .58232119 .01499939 .5533142 .040985109 .5533142 .054992677 .5533142H.09599304V.041137697C.09599304 .023132325 .09599304 .0001373291 .1289978 .0001373291 .16099549 .0001373291 .16099549 .021133423 .16099549 .05014038 .18499756 .023132325 .22200012-.005859375 .27799989-.005859375 .38398744-.005859375 .47698976 .08906555 .47698976 .21582031M.4119873 .21582031C.4119873 .120010379 .34399415 .052139284 .272995 .052139284 .19799805 .052139284 .16099549 .13697815 .16099549 .18687439V.2657318C.16099549 .32261659 .21699524 .37850953 .28199769 .37850953 .35398866 .37850953 .4119873 .3056488 .4119873 .21582031Z"/>
<path id="font_1_114" d="M.49899293 .4016571C.49899293 .43066407 .47200013 .43066407 .45799256 .43066407H.34599305C.33198548 .43066407 .30499269 .43066407 .30499269 .4016571 .30499269 .37265016 .33198548 .37265016 .34599305 .37265016H.3929901L.34298707 .06802368H.34199525C.33799745 .09399414 .32199098 .1499176 .31199647 .18188477 .2939911 .24681092 .29100038 .25878907 .2579956 .25878907 .22599793 .25878907 .22200012 .24681092 .20399475 .18287659 .18399048 .11495972 .1769867 .085998538 .17399597 .06802368H.17298889L.12098694 .37265016H.16799927C.18199158 .37265016 .20899964 .37265016 .20899964 .4016571 .20899964 .43066407 .18199158 .43066407 .16799927 .43066407H.055999757C.041992189 .43066407 .01499939 .43066407 .01499939 .4016571 .01499939 .37265016 .039993287 .37265016 .06399536 .37265016L.12399292 .033065797C.12998963-.0018920899 .1459961-.0048828127 .16899109-.0048828127 .20799256-.0048828127 .20999146 .0030975342 .22999573 .072021488 .23899842 .10697937 .25498963 .16191101 .2579956 .18887329H.25898744C.2599945 .17588806 .2649994 .1479187 .28599549 .071014408 .30599977 .0041046144 .30799867-.0048828127 .34599305-.0048828127 .36299134-.0048828127 .3829956-.0048828127 .3899994 .032058717L.44999696 .37265016C.47399903 .37265016 .49899293 .37265016 .49899293 .4016571Z"/>
<path id="font_1_28" d="M.5089874 .0289917C.5089874 .057998659 .48298646 .057998659 .46899415 .057998659 .44299317 .057998659 .4229889 .05999756 .40899659 .06600952V.2842865C.40899659 .36039735 .35198976 .4404297 .21699524 .4404297 .1749878 .4404297 .07798767 .4404297 .07798767 .37141419 .07798767 .3443756 .09700012 .3293457 .11898804 .3293457 .125 .3293457 .1579895 .33135987 .15899658 .3734131 .15899658 .37841798 .1599884 .37942506 .18099976 .38142396 .19299317 .38241578 .20599365 .38241578 .21798706 .38241578 .24099732 .38241578 .2749939 .38241578 .30799867 .35739137 .34399415 .3293457 .34399415 .3013153 .34399415 .27227784 .2849884 .27027894 .22698975 .26626588 .16499329 .24624634 .114990238 .22921753 .050994874 .19317627 .050994874 .1250763 .050994874 .054138185 .11399841-.005859375 .20698548-.005859375 .23899842-.005859375 .30099488-.000869751 .35299684 .035125734 .37298585 .0019989014 .4229889 0 .46099855 0 .4850006 0 .5089874 0 .5089874 .0289917M.34399415 .13198853C.34399415 .10899353 .34399415 .08799744 .30299378 .068984989 .2679901 .052139284 .22099304 .052139284 .21798706 .052139284 .15899658 .052139284 .115997318 .08418274 .115997318 .12522888 .115997318 .18431092 .22299195 .21835327 .34399415 .21835327V.13198853Z"/>
<path id="font_1_112" d="M.4909973 .4016571C.4909973 .43066407 .46398927 .43066407 .44999696 .43066407H.33999635C.32598878 .43066407 .29899598 .43066407 .29899598 .4016571 .29899598 .37265016 .32598878 .37265016 .33999635 .37265016H.36499024L.25698854 .05104065 .14898682 .37265016H.17399597C.18798828 .37265016 .21499634 .37265016 .21499634 .4016571 .21499634 .43066407 .18798828 .43066407 .17399597 .43066407H.06399536C.049987794 .43066407 .022994996 .43066407 .022994996 .4016571 .022994996 .37265016 .049987794 .37265016 .06399536 .37265016H.08999634L.20498657 .029067994C.21598816-.0048828127 .23799134-.0048828127 .25698854-.0048828127 .27598573-.0048828127 .2979889-.0048828127 .30899049 .029067994L.42399598 .37265016H.44999696C.46398927 .37265016 .4909973 .37265016 .4909973 .4016571Z"/>
</defs>
<path transform="matrix(1,0,0,-1,0,450.12)" d="M0 0H789.041V450.12H0Z" fill="#feffff"/>
<path transform="matrix(1,0,0,-1,394.521,225.06)" stroke-width=".3985" stroke-linecap="butt" stroke-dasharray="2.98883,2.98883" stroke-miterlimit="10" stroke-linejoin="miter" fill="none" stroke="#929591" d="M-149.44153-129.42035V129.42035H149.44153V-129.42035ZM149.44153 129.42035"/>
<path transform="matrix(1,0,0,-1,394.521,225.06)" d="M149.44153 0 74.72076 129.42035H-74.72076L-149.44153 0-74.72076-129.42035H74.72076Z" fill="#029386"/>
<path transform="matrix(1,0,0,-1,394.521,225.06)" stroke-width="1.99255" stroke-linecap="butt" stroke-miterlimit="10" stroke-linejoin="miter" fill="none" stroke="#000000" d="M149.44153 0 74.72076 129.42035H-74.72076L-149.44153 0-74.72076-129.42035H74.72076Z"/>
<path transform="matrix(1,0,0,-1,394.521,225.06)" d="M-109.59045-34.86969H109.59045V34.86969H-109.59045Z" fill="#ffffff"/>
<path transform="matrix(1,0,0,-1,394.521,225.06)" stroke-width="1.99255" stroke-linecap="butt" stroke-miterlimit="10" stroke-linejoin="miter" fill="none" stroke="#000000" d="M-109.59045-34.86969H109.59045V34.86969H-109.59045Z"/>
<path transform="matrix(1,0,0,-1,394.521,225.06)" d="M-88.2123-10.67296H88.2123V10.67296H-88.2123Z" fill="#ffffff"/>
<use data-text="r" xlink:href="#font_1_96" transform="matrix(17.2154,0,0,-17.2154,319.158,230.319)"/>
<use data-text="e" xlink:href="#font_1_50" transform="matrix(17.2154,0,0,-17.2154,328.02394,230.319)"/>
<use data-text="c" xlink:href="#font_1_43" transform="matrix(17.2154,0,0,-17.2154,336.88987,230.319)"/>
<use data-text="t" xlink:href="#font_1_105" transform="matrix(17.2154,0,0,-17.2154,345.7558,230.319)"/>
<use data-text="." xlink:href="#font_1_88" transform="matrix(17.2154,0,0,-17.2154,354.62174,230.319)"/>
<use data-text="c" xlink:href="#font_1_43" transform="matrix(17.2154,0,0,-17.2154,363.48768,230.319)"/>
<use data-text="e" xlink:href="#font_1_50" transform="matrix(17.2154,0,0,-17.2154,372.3536,230.319)"/>
<use data-text="n" xlink:href="#font_1_77" transform="matrix(17.2154,0,0,-17.2154,381.21955,230.319)"/>
<use data-text="t" xlink:href="#font_1_105" transform="matrix(17.2154,0,0,-17.2154,390.08549,230.319)"/>
<use data-text="e" xlink:href="#font_1_50" transform="matrix(17.2154,0,0,-17.2154,398.95143,230.319)"/>
<use data-text="r" xlink:href="#font_1_96" transform="matrix(17.2154,0,0,-17.2154,407.81736,230.319)"/>
<use data-text="e" xlink:href="#font_1_50" transform="matrix(17.2154,0,0,-17.2154,416.6833,230.319)"/>
<use data-text="d" xlink:href="#font_1_47" transform="matrix(17.2154,0,0,-17.2154,425.54924,230.319)"/>
<use data-text="(" xlink:href="#font_1_85" transform="matrix(17.2154,0,0,-17.2154,434.41517,230.319)"/>
<use data-text="h" xlink:href="#font_1_63" transform="matrix(17.2154,0,0,-17.2154,443.2811,230.319)"/>
<use data-text="e" xlink:href="#font_1_50" transform="matrix(17.2154,0,0,-17.2154,452.14704,230.319)"/>
<use data-text="x" xlink:href="#font_1_116" transform="matrix(17.2154,0,0,-17.2154,461.01298,230.319)"/>
<use data-text=")" xlink:href="#font_1_86" transform="matrix(17.2154,0,0,-17.2154,469.8789,230.319)"/>
<path transform="matrix(1,0,0,-1,394.521,225.06)" d="M149.44153-34.86969H368.62245V34.86969H149.44153Z" fill="#ffffff"/>
<path transform="matrix(1,0,0,-1,394.521,225.06)" stroke-width="1.99255" stroke-linecap="butt" stroke-miterlimit="10" stroke-linejoin="miter" fill="none" stroke="#000000" d="M149.44153-34.86969H368.62245V34.86969H149.44153Z"/>
<path transform="matrix(1,0,0,-1,394.521,225.06)" d="M170.81967-11.9297H347.24427V11.9297H170.81967Z" fill="#ffffff"/>
<use data-text="r" xlink:href="#font_1_96" transform="matrix(17.2154,0,0,-17.2154,578.19,229.06299)"/>
<use data-text="e" xlink:href="#font_1_50" transform="matrix(17.2154,0,0,-17.2154,587.0559,229.06299)"/>
<use data-text="c" xlink:href="#font_1_43" transform="matrix(17.2154,0,0,-17.2154,595.9219,229.06299)"/>
<use data-text="t" xlink:href="#font_1_105" transform="matrix(17.2154,0,0,-17.2154,604.7878,229.06299)"/>
<use data-text="." xlink:href="#font_1_88" transform="matrix(17.2154,0,0,-17.2154,613.65377,229.06299)"/>
<use data-text="r" xlink:href="#font_1_96" transform="matrix(17.2154,0,0,-17.2154,622.51968,229.06299)"/>
<use data-text="i" xlink:href="#font_1_66" transform="matrix(17.2154,0,0,-17.2154,631.3856,229.06299)"/>
<use data-text="g" xlink:href="#font_1_59" transform="matrix(17.2154,0,0,-17.2154,640.2515,229.06299)"/>
<use data-text="h" xlink:href="#font_1_63" transform="matrix(17.2154,0,0,-17.2154,649.1175,229.06299)"/>
<use data-text="t" xlink:href="#font_1_105" transform="matrix(17.2154,0,0,-17.2154,657.9834,229.06299)"/>
<use data-text="_" xlink:href="#font_1_110" transform="matrix(17.2154,0,0,-17.2154,666.84939,229.06299)"/>
<use data-text="o" xlink:href="#font_1_81" transform="matrix(17.2154,0,0,-17.2154,675.7153,229.06299)"/>
<use data-text="f" xlink:href="#font_1_55" transform="matrix(17.2154,0,0,-17.2154,684.58126,229.06299)"/>
<use data-text="(" xlink:href="#font_1_85" transform="matrix(17.2154,0,0,-17.2154,693.44717,229.06299)"/>
<use data-text="h" xlink:href="#font_1_63" transform="matrix(17.2154,0,0,-17.2154,702.3131,229.06299)"/>
<use data-text="e" xlink:href="#font_1_50" transform="matrix(17.2154,0,0,-17.2154,711.179,229.06299)"/>
<use data-text="x" xlink:href="#font_1_116" transform="matrix(17.2154,0,0,-17.2154,720.045,229.06299)"/>
<use data-text=")" xlink:href="#font_1_86" transform="matrix(17.2154,0,0,-17.2154,728.9109,229.06299)"/>
<path transform="matrix(1,0,0,-1,394.521,225.06)" d="M-368.62245-34.86969H-149.44153V34.86969H-368.62245Z" fill="#ffffff"/>
<path transform="matrix(1,0,0,-1,394.521,225.06)" stroke-width="1.99255" stroke-linecap="butt" stroke-miterlimit="10" stroke-linejoin="miter" fill="none" stroke="#000000" d="M-368.62245-34.86969H-149.44153V34.86969H-368.62245Z"/>
<path transform="matrix(1,0,0,-1,394.521,225.06)" d="M-342.81126-11.68007H-175.25272V11.68007H-342.81126Z" fill="#ffffff"/>
<use data-text="r" xlink:href="#font_1_96" transform="matrix(17.2154,0,0,-17.2154,64.55899,229.312)"/>
<use data-text="e" xlink:href="#font_1_50" transform="matrix(17.2154,0,0,-17.2154,73.42493,229.312)"/>
<use data-text="c" xlink:href="#font_1_43" transform="matrix(17.2154,0,0,-17.2154,82.29086,229.312)"/>
<use data-text="t" xlink:href="#font_1_105" transform="matrix(17.2154,0,0,-17.2154,91.1568,229.312)"/>
<use data-text="." xlink:href="#font_1_88" transform="matrix(17.2154,0,0,-17.2154,100.022739,229.312)"/>
<use data-text="l" xlink:href="#font_1_72" transform="matrix(17.2154,0,0,-17.2154,108.88867,229.312)"/>
<use data-text="e" xlink:href="#font_1_50" transform="matrix(17.2154,0,0,-17.2154,117.75461,229.312)"/>
<use data-text="f" xlink:href="#font_1_55" transform="matrix(17.2154,0,0,-17.2154,126.620548,229.312)"/>
<use data-text="t" xlink:href="#font_1_105" transform="matrix(17.2154,0,0,-17.2154,135.48648,229.312)"/>
<use data-text="_" xlink:href="#font_1_110" transform="matrix(17.2154,0,0,-17.2154,144.35242,229.312)"/>
<use data-text="o" xlink:href="#font_1_81" transform="matrix(17.2154,0,0,-17.2154,153.21836,229.312)"/>
<use data-text="f" xlink:href="#font_1_55" transform="matrix(17.2154,0,0,-17.2154,162.08429,229.312)"/>
<use data-text="(" xlink:href="#font_1_85" transform="matrix(17.2154,0,0,-17.2154,170.95023,229.312)"/>
<use data-text="h" xlink:href="#font_1_63" transform="matrix(17.2154,0,0,-17.2154,179.81616,229.312)"/>
<use data-text="e" xlink:href="#font_1_50" transform="matrix(17.2154,0,0,-17.2154,188.6821,229.312)"/>
<use data-text="x" xlink:href="#font_1_116" transform="matrix(17.2154,0,0,-17.2154,197.54804,229.312)"/>
<use data-text=")" xlink:href="#font_1_86" transform="matrix(17.2154,0,0,-17.2154,206.41397,229.312)"/>
<path transform="matrix(1,0,0,-1,394.521,225.06)" d="M-368.62245-199.15953H-149.44153V-129.42015H-368.62245Z" fill="#ffffff"/>
<path transform="matrix(1,0,0,-1,394.521,225.06)" stroke-width="1.99255" stroke-linecap="butt" stroke-miterlimit="10" stroke-linejoin="miter" fill="none" stroke="#000000" d="M-368.62245-199.15953H-149.44153V-129.42015H-368.62245Z"/>
<path transform="matrix(1,0,0,-1,394.521,225.06)" d="M-356.11036-175.96991H-161.95362V-152.60977H-356.11036Z" fill="#ffffff"/>
<use data-text="r" xlink:href="#font_1_96" transform="matrix(17.2154,0,0,-17.2154,51.25998,393.602)"/>
<use data-text="e" xlink:href="#font_1_50" transform="matrix(17.2154,0,0,-17.2154,60.125917,393.602)"/>
<use data-text="c" xlink:href="#font_1_43" transform="matrix(17.2154,0,0,-17.2154,68.99185,393.602)"/>
<use data-text="t" xlink:href="#font_1_105" transform="matrix(17.2154,0,0,-17.2154,77.85779,393.602)"/>
<use data-text="." xlink:href="#font_1_88" transform="matrix(17.2154,0,0,-17.2154,86.723728,393.602)"/>
<use data-text="b" xlink:href="#font_1_35" transform="matrix(17.2154,0,0,-17.2154,95.58966,393.602)"/>
<use data-text="e" xlink:href="#font_1_50" transform="matrix(17.2154,0,0,-17.2154,104.4556,393.602)"/>
<use data-text="l" xlink:href="#font_1_72" transform="matrix(17.2154,0,0,-17.2154,113.32153,393.602)"/>
<use data-text="o" xlink:href="#font_1_81" transform="matrix(17.2154,0,0,-17.2154,122.18747,393.602)"/>
<use data-text="w" xlink:href="#font_1_114" transform="matrix(17.2154,0,0,-17.2154,131.0534,393.602)"/>
<use data-text="_" xlink:href="#font_1_110" transform="matrix(17.2154,0,0,-17.2154,139.91934,393.602)"/>
<use data-text="l" xlink:href="#font_1_72" transform="matrix(17.2154,0,0,-17.2154,148.78528,393.602)"/>
<use data-text="e" xlink:href="#font_1_50" transform="matrix(17.2154,0,0,-17.2154,157.65122,393.602)"/>
<use data-text="f" xlink:href="#font_1_55" transform="matrix(17.2154,0,0,-17.2154,166.51715,393.602)"/>
<use data-text="t" xlink:href="#font_1_105" transform="matrix(17.2154,0,0,-17.2154,175.38309,393.602)"/>
<use data-text="(" xlink:href="#font_1_85" transform="matrix(17.2154,0,0,-17.2154,184.24903,393.602)"/>
<use data-text="h" xlink:href="#font_1_63" transform="matrix(17.2154,0,0,-17.2154,193.11496,393.602)"/>
<use data-text="e" xlink:href="#font_1_50" transform="matrix(17.2154,0,0,-17.2154,201.9809,393.602)"/>
<use data-text="x" xlink:href="#font_1_116" transform="matrix(17.2154,0,0,-17.2154,210.84683,393.602)"/>
<use data-text=")" xlink:href="#font_1_86" transform="matrix(17.2154,0,0,-17.2154,219.71277,393.602)"/>
<path transform="matrix(1,0,0,-1,394.521,225.06)" d="M149.44153-199.15953H368.62245V-129.42015H149.44153Z" fill="#ffffff"/>
<path transform="matrix(1,0,0,-1,394.521,225.06)" stroke-width="1.99255" stroke-linecap="butt" stroke-miterlimit="10" stroke-linejoin="miter" fill="none" stroke="#000000" d="M149.44153-199.15953H368.62245V-129.42015H149.44153Z"/>
<path transform="matrix(1,0,0,-1,394.521,225.06)" d="M157.52057-176.21955H360.5434V-152.36014H157.52057Z" fill="#ffffff"/>
<use data-text="r" xlink:href="#font_1_96" transform="matrix(17.2154,0,0,-17.2154,564.891,393.352)"/>
<use data-text="e" xlink:href="#font_1_50" transform="matrix(17.2154,0,0,-17.2154,573.75698,393.352)"/>
<use data-text="c" xlink:href="#font_1_43" transform="matrix(17.2154,0,0,-17.2154,582.62289,393.352)"/>
<use data-text="t" xlink:href="#font_1_105" transform="matrix(17.2154,0,0,-17.2154,591.4888,393.352)"/>
<use data-text="." xlink:href="#font_1_88" transform="matrix(17.2154,0,0,-17.2154,600.35476,393.352)"/>
<use data-text="b" xlink:href="#font_1_35" transform="matrix(17.2154,0,0,-17.2154,609.2207,393.352)"/>
<use data-text="e" xlink:href="#font_1_50" transform="matrix(17.2154,0,0,-17.2154,618.0866,393.352)"/>
<use data-text="l" xlink:href="#font_1_72" transform="matrix(17.2154,0,0,-17.2154,626.9525,393.352)"/>
<use data-text="o" xlink:href="#font_1_81" transform="matrix(17.2154,0,0,-17.2154,635.8185,393.352)"/>
<use data-text="w" xlink:href="#font_1_114" transform="matrix(17.2154,0,0,-17.2154,644.68447,393.352)"/>
<use data-text="_" xlink:href="#font_1_110" transform="matrix(17.2154,0,0,-17.2154,653.55038,393.352)"/>
<use data-text="r" xlink:href="#font_1_96" transform="matrix(17.2154,0,0,-17.2154,662.41629,393.352)"/>
<use data-text="i" xlink:href="#font_1_66" transform="matrix(17.2154,0,0,-17.2154,671.2822,393.352)"/>
<use data-text="g" xlink:href="#font_1_59" transform="matrix(17.2154,0,0,-17.2154,680.1482,393.352)"/>
<use data-text="h" xlink:href="#font_1_63" transform="matrix(17.2154,0,0,-17.2154,689.0141,393.352)"/>
<use data-text="t" xlink:href="#font_1_105" transform="matrix(17.2154,0,0,-17.2154,697.88,393.352)"/>
<use data-text="(" xlink:href="#font_1_85" transform="matrix(17.2154,0,0,-17.2154,706.746,393.352)"/>
<use data-text="h" xlink:href="#font_1_63" transform="matrix(17.2154,0,0,-17.2154,715.61196,393.352)"/>
<use data-text="e" xlink:href="#font_1_50" transform="matrix(17.2154,0,0,-17.2154,724.47787,393.352)"/>
<use data-text="x" xlink:href="#font_1_116" transform="matrix(17.2154,0,0,-17.2154,733.34378,393.352)"/>
<use data-text=")" xlink:href="#font_1_86" transform="matrix(17.2154,0,0,-17.2154,742.2097,393.352)"/>
<path transform="matrix(1,0,0,-1,394.521,225.06)" d="M149.44153 129.42015H368.62245V199.15953H149.44153Z" fill="#ffffff"/>
<path transform="matrix(1,0,0,-1,394.521,225.06)" stroke-width="1.99255" stroke-linecap="butt" stroke-miterlimit="10" stroke-linejoin="miter" fill="none" stroke="#000000" d="M149.44153 129.42015H368.62245V199.15953H149.44153Z"/>
<path transform="matrix(1,0,0,-1,394.521,225.06)" d="M157.52057 152.36014H360.5434V176.21955H157.52057Z" fill="#ffffff"/>
<use data-text="r" xlink:href="#font_1_96" transform="matrix(17.2154,0,0,-17.2154,564.891,64.772998)"/>
<use data-text="e" xlink:href="#font_1_50" transform="matrix(17.2154,0,0,-17.2154,573.75698,64.772998)"/>
<use data-text="c" xlink:href="#font_1_43" transform="matrix(17.2154,0,0,-17.2154,582.62289,64.772998)"/>
<use data-text="t" xlink:href="#font_1_105" transform="matrix(17.2154,0,0,-17.2154,591.4888,64.772998)"/>
<use data-text="." xlink:href="#font_1_88" transform="matrix(17.2154,0,0,-17.2154,600.35476,64.772998)"/>
<use data-text="a" xlink:href="#font_1_28" transform="matrix(17.2154,0,0,-17.2154,609.2207,64.772998)"/>
<use data-text="b" xlink:href="#font_1_35" transform="matrix(17.2154,0,0,-17.2154,618.0866,64.772998)"/>
<use data-text="o" xlink:href="#font_1_81" transform="matrix(17.2154,0,0,-17.2154,626.9525,64.772998)"/>
<use data-text="v" xlink:href="#font_1_112" transform="matrix(17.2154,0,0,-17.2154,635.8185,64.772998)"/>
<use data-text="e" xlink:href="#font_1_50" transform="matrix(17.2154,0,0,-17.2154,644.68447,64.772998)"/>
<use data-text="_" xlink:href="#font_1_110" transform="matrix(17.2154,0,0,-17.2154,653.55038,64.772998)"/>
<use data-text="r" xlink:href="#font_1_96" transform="matrix(17.2154,0,0,-17.2154,662.41629,64.772998)"/>
<use data-text="i" xlink:href="#font_1_66" transform="matrix(17.2154,0,0,-17.2154,671.2822,64.772998)"/>
<use data-text="g" xlink:href="#font_1_59" transform="matrix(17.2154,0,0,-17.2154,680.1482,64.772998)"/>
<use data-text="h" xlink:href="#font_1_63" transform="matrix(17.2154,0,0,-17.2154,689.0141,64.772998)"/>
<use data-text="t" xlink:href="#font_1_105" transform="matrix(17.2154,0,0,-17.2154,697.88,64.772998)"/>
<use data-text="(" xlink:href="#font_1_85" transform="matrix(17.2154,0,0,-17.2154,706.746,64.772998)"/>
<use data-text="h" xlink:href="#font_1_63" transform="matrix(17.2154,0,0,-17.2154,715.61196,64.772998)"/>
<use data-text="e" xlink:href="#font_1_50" transform="matrix(17.2154,0,0,-17.2154,724.47787,64.772998)"/>
<use data-text="x" xlink:href="#font_1_116" transform="matrix(17.2154,0,0,-17.2154,733.34378,64.772998)"/>
<use data-text=")" xlink:href="#font_1_86" transform="matrix(17.2154,0,0,-17.2154,742.2097,64.772998)"/>
<path transform="matrix(1,0,0,-1,394.521,225.06)" d="M-368.62245 129.42015H-149.44153V199.15953H-368.62245Z" fill="#ffffff"/>
<path transform="matrix(1,0,0,-1,394.521,225.06)" stroke-width="1.99255" stroke-linecap="butt" stroke-miterlimit="10" stroke-linejoin="miter" fill="none" stroke="#000000" d="M-368.62245 129.42015H-149.44153V199.15953H-368.62245Z"/>
<path transform="matrix(1,0,0,-1,394.521,225.06)" d="M-356.11036 152.60977H-161.95362V175.96991H-356.11036Z" fill="#ffffff"/>
<use data-text="r" xlink:href="#font_1_96" transform="matrix(17.2154,0,0,-17.2154,51.25998,65.022)"/>
<use data-text="e" xlink:href="#font_1_50" transform="matrix(17.2154,0,0,-17.2154,60.125917,65.022)"/>
<use data-text="c" xlink:href="#font_1_43" transform="matrix(17.2154,0,0,-17.2154,68.99185,65.022)"/>
<use data-text="t" xlink:href="#font_1_105" transform="matrix(17.2154,0,0,-17.2154,77.85779,65.022)"/>
<use data-text="." xlink:href="#font_1_88" transform="matrix(17.2154,0,0,-17.2154,86.723728,65.022)"/>
<use data-text="a" xlink:href="#font_1_28" transform="matrix(17.2154,0,0,-17.2154,95.58966,65.022)"/>
<use data-text="b" xlink:href="#font_1_35" transform="matrix(17.2154,0,0,-17.2154,104.4556,65.022)"/>
<use data-text="o" xlink:href="#font_1_81" transform="matrix(17.2154,0,0,-17.2154,113.32153,65.022)"/>
<use data-text="v" xlink:href="#font_1_112" transform="matrix(17.2154,0,0,-17.2154,122.18747,65.022)"/>
<use data-text="e" xlink:href="#font_1_50" transform="matrix(17.2154,0,0,-17.2154,131.0534,65.022)"/>
<use data-text="_" xlink:href="#font_1_110" transform="matrix(17.2154,0,0,-17.2154,139.91934,65.022)"/>
<use data-text="l" xlink:href="#font_1_72" transform="matrix(17.2154,0,0,-17.2154,148.78528,65.022)"/>
<use data-text="e" xlink:href="#font_1_50" transform="matrix(17.2154,0,0,-17.2154,157.65122,65.022)"/>
<use data-text="f" xlink:href="#font_1_55" transform="matrix(17.2154,0,0,-17.2154,166.51715,65.022)"/>
<use data-text="t" xlink:href="#font_1_105" transform="matrix(17.2154,0,0,-17.2154,175.38309,65.022)"/>
<use data-text="(" xlink:href="#font_1_85" transform="matrix(17.2154,0,0,-17.2154,184.24903,65.022)"/>
<use data-text="h" xlink:href="#font_1_63" transform="matrix(17.2154,0,0,-17.2154,193.11496,65.022)"/>
<use data-text="e" xlink:href="#font_1_50" transform="matrix(17.2154,0,0,-17.2154,201.9809,65.022)"/>
<use data-text="x" xlink:href="#font_1_116" transform="matrix(17.2154,0,0,-17.2154,210.84683,65.022)"/>
<use data-text=")" xlink:href="#font_1_86" transform="matrix(17.2154,0,0,-17.2154,219.71277,65.022)"/>
<path transform="matrix(1,0,0,-1,394.521,225.06)" d="M-109.59045 129.42015H109.59045V199.15953H-109.59045Z" fill="#ffffff"/>
<path transform="matrix(1,0,0,-1,394.521,225.06)" stroke-width="1.99255" stroke-linecap="butt" stroke-miterlimit="10" stroke-linejoin="miter" fill="none" stroke="#000000" d="M-109.59045 129.42015H109.59045V199.15953H-109.59045Z"/>
<path transform="matrix(1,0,0,-1,394.521,225.06)" d="M-74.9132 153.61688H74.9132V174.9628H-74.9132Z" fill="#ffffff"/>
<use data-text="r" xlink:href="#font_1_96" transform="matrix(17.2154,0,0,-17.2154,332.45698,66.03)"/>
<use data-text="e" xlink:href="#font_1_50" transform="matrix(17.2154,0,0,-17.2154,341.32295,66.03)"/>
<use data-text="c" xlink:href="#font_1_43" transform="matrix(17.2154,0,0,-17.2154,350.18885,66.03)"/>
<use data-text="t" xlink:href="#font_1_105" transform="matrix(17.2154,0,0,-17.2154,359.0548,66.03)"/>
<use data-text="." xlink:href="#font_1_88" transform="matrix(17.2154,0,0,-17.2154,367.92073,66.03)"/>
<use data-text="a" xlink:href="#font_1_28" transform="matrix(17.2154,0,0,-17.2154,376.78669,66.03)"/>
<use data-text="b" xlink:href="#font_1_35" transform="matrix(17.2154,0,0,-17.2154,385.6526,66.03)"/>
<use data-text="o" xlink:href="#font_1_81" transform="matrix(17.2154,0,0,-17.2154,394.51856,66.03)"/>
<use data-text="v" xlink:href="#font_1_112" transform="matrix(17.2154,0,0,-17.2154,403.38447,66.03)"/>
<use data-text="e" xlink:href="#font_1_50" transform="matrix(17.2154,0,0,-17.2154,412.25044,66.03)"/>
<use data-text="(" xlink:href="#font_1_85" transform="matrix(17.2154,0,0,-17.2154,421.11634,66.03)"/>
<use data-text="h" xlink:href="#font_1_63" transform="matrix(17.2154,0,0,-17.2154,429.9823,66.03)"/>
<use data-text="e" xlink:href="#font_1_50" transform="matrix(17.2154,0,0,-17.2154,438.8482,66.03)"/>
<use data-text="x" xlink:href="#font_1_116" transform="matrix(17.2154,0,0,-17.2154,447.71418,66.03)"/>
<use data-text=")" xlink:href="#font_1_86" transform="matrix(17.2154,0,0,-17.2154,456.58009,66.03)"/>
<path transform="matrix(1,0,0,-1,394.521,225.06)" d="M-109.59045-199.15953H109.59045V-129.42015H-109.59045Z" fill="#ffffff"/>
<path transform="matrix(1,0,0,-1,394.521,225.06)" stroke-width="1.99255" stroke-linecap="butt" stroke-miterlimit="10" stroke-linejoin="miter" fill="none" stroke="#000000" d="M-109.59045-199.15953H109.59045V-129.42015H-109.59045Z"/>
<path transform="matrix(1,0,0,-1,394.521,225.06)" d="M-74.9132-174.9628H74.9132V-153.61688H-74.9132Z" fill="#ffffff"/>
<use data-text="r" xlink:href="#font_1_96" transform="matrix(17.2154,0,0,-17.2154,332.45698,394.609)"/>
<use data-text="e" xlink:href="#font_1_50" transform="matrix(17.2154,0,0,-17.2154,341.32295,394.609)"/>
<use data-text="c" xlink:href="#font_1_43" transform="matrix(17.2154,0,0,-17.2154,350.18885,394.609)"/>
<use data-text="t" xlink:href="#font_1_105" transform="matrix(17.2154,0,0,-17.2154,359.0548,394.609)"/>
<use data-text="." xlink:href="#font_1_88" transform="matrix(17.2154,0,0,-17.2154,367.92073,394.609)"/>
<use data-text="b" xlink:href="#font_1_35" transform="matrix(17.2154,0,0,-17.2154,376.78669,394.609)"/>
<use data-text="e" xlink:href="#font_1_50" transform="matrix(17.2154,0,0,-17.2154,385.6526,394.609)"/>
<use data-text="l" xlink:href="#font_1_72" transform="matrix(17.2154,0,0,-17.2154,394.51856,394.609)"/>
<use data-text="o" xlink:href="#font_1_81" transform="matrix(17.2154,0,0,-17.2154,403.38447,394.609)"/>
<use data-text="w" xlink:href="#font_1_114" transform="matrix(17.2154,0,0,-17.2154,412.25044,394.609)"/>
<use data-text="(" xlink:href="#font_1_85" transform="matrix(17.2154,0,0,-17.2154,421.11634,394.609)"/>
<use data-text="h" xlink:href="#font_1_63" transform="matrix(17.2154,0,0,-17.2154,429.9823,394.609)"/>
<use data-text="e" xlink:href="#font_1_50" transform="matrix(17.2154,0,0,-17.2154,438.8482,394.609)"/>
<use data-text="x" xlink:href="#font_1_116" transform="matrix(17.2154,0,0,-17.2154,447.71418,394.609)"/>
<use data-text=")" xlink:href="#font_1_86" transform="matrix(17.2154,0,0,-17.2154,456.58009,394.609)"/>
</svg>
