<svg xmlns="http://www.w3.org/2000/svg" xmlns:xlink="http://www.w3.org/1999/xlink" xmlns:inkscape="http://www.inkscape.org/namespaces/inkscape" version="1.1" width="482.05" height="482.05" viewBox="0 0 482.05 482.05">
<path transform="matrix(1,0,0,-1,241.026,241.02399)" d="M-51.9648 13.92793-38.03984-38.03984 13.92793-51.9648 51.9648-13.92793 38.03984 38.03984-13.92793 51.9648Z" fill="#4166ac"/>
<path transform="matrix(1,0,0,-1,241.026,241.02399)" stroke-width=".3985" stroke-linecap="butt" stroke-miterlimit="10" stroke-linejoin="miter" fill="none" stroke="#000000" d="M-51.9648 13.92793-38.03984-38.03984 13.92793-51.9648 51.9648-13.92793 38.03984 38.03984-13.92793 51.9648Z"/>
<path transform="matrix(1,0,0,-1,241.026,241.02399)" d="M-54.94168 25.04042-25.04042 54.94168-65.88676 65.88676Z" fill="#3190b9"/>
<path transform="matrix(1,0,0,-1,241.026,241.02399)" stroke-width=".3985" stroke-linecap="butt" stroke-miterlimit="10" stroke-linejoin="miter" fill="none" stroke="#000000" d="M-54.94168 25.04042-25.04042 54.94168-65.88676 65.88676Z"/>
<path transform="matrix(1,0,0,-1,241.026,241.02399)" d="M-49.15231-35.06296-60.0994 5.79335-90.00763-24.11487Z" fill="#3190b9"/>
<path transform="matrix(1,0,0,-1,241.026,241.02399)" stroke-width=".3985" stroke-linecap="butt" stroke-miterlimit="10" stroke-linejoin="miter" fill="none" stroke="#000000" d="M-49.15231-35.06296-60.0994 5.79335-90.00763-24.11487Z"/>
<path transform="matrix(1,0,0,-1,241.026,241.02399)" d="M5.79335-60.0994-35.06296-49.15231-24.11487-90.00763Z" fill="#3190b9"/>
<path transform="matrix(1,0,0,-1,241.026,241.02399)" stroke-width=".3985" stroke-linecap="butt" stroke-miterlimit="10" stroke-linejoin="miter" fill="none" stroke="#000000" d="M5.79335-60.0994-35.06296-49.15231-24.11487-90.00763Z"/>
<path transform="matrix(1,0,0,-1,241.026,241.02399)" d="M60.0994-5.79335 90.00763 24.11487 49.15231 35.06296Z" fill="#3190b9"/>
<path transform="matrix(1,0,0,-1,241.026,241.02399)" stroke-width=".3985" stroke-linecap="butt" stroke-miterlimit="10" stroke-linejoin="miter" fill="none" stroke="#000000" d="M60.0994-5.79335 90.00763 24.11487 49.15231 35.06296Z"/>
<path transform="matrix(1,0,0,-1,241.026,241.02399)" d="M54.94168-25.04042 25.04042-54.94168 65.88676-65.88676Z" fill="#3190b9"/>
<path transform="matrix(1,0,0,-1,241.026,241.02399)" stroke-width=".3985" stroke-linecap="butt" stroke-miterlimit="10" stroke-linejoin="miter" fill="none" stroke="#000000" d="M54.94168-25.04042 25.04042-54.94168 65.88676-65.88676Z"/>
<path transform="matrix(1,0,0,-1,241.026,241.02399)" d="M35.06296 49.15231 24.11487 90.00763-5.79335 60.0994Z" fill="#3190b9"/>
<path transform="matrix(1,0,0,-1,241.026,241.02399)" stroke-width=".3985" stroke-linecap="butt" stroke-miterlimit="10" stroke-linejoin="miter" fill="none" stroke="#000000" d="M35.06296 49.15231 24.11487 90.00763-5.79335 60.0994Z"/>
<path transform="matrix(1,0,0,-1,241.026,241.02399)" d="M129.05171 63.15897 63.15897 129.05171 32.24947 98.14223 46.17444 46.17444 98.14223 32.24947Z" fill="#27896c"/>
<path transform="matrix(1,0,0,-1,241.026,241.02399)" stroke-width=".3985" stroke-linecap="butt" stroke-miterlimit="10" stroke-linejoin="miter" fill="none" stroke="#000000" d="M129.05171 63.15897 63.15897 129.05171 32.24947 98.14223 46.17444 46.17444 98.14223 32.24947Z"/>
<path transform="matrix(1,0,0,-1,241.026,241.02399)" d="M-16.9058 63.07626 21.138 101.1201 9.82426 143.34432-80.17836 119.22644-68.86365 76.99825Z" fill="#27896c"/>
<path transform="matrix(1,0,0,-1,241.026,241.02399)" stroke-width=".3985" stroke-linecap="butt" stroke-miterlimit="10" stroke-linejoin="miter" fill="none" stroke="#000000" d="M-16.9058 63.07626 21.138 101.1201 9.82426 143.34432-80.17836 119.22644-68.86365 76.99825Z"/>
<path transform="matrix(1,0,0,-1,241.026,241.02399)" d="M-63.07626 16.9058-76.99825 68.86365-119.22644 80.17836-143.34432-9.82426-101.1201-21.138Z" fill="#27896c"/>
<path transform="matrix(1,0,0,-1,241.026,241.02399)" stroke-width=".3985" stroke-linecap="butt" stroke-miterlimit="10" stroke-linejoin="miter" fill="none" stroke="#000000" d="M-63.07626 16.9058-76.99825 68.86365-119.22644 80.17836-143.34432-9.82426-101.1201-21.138Z"/>
<path transform="matrix(1,0,0,-1,241.026,241.02399)" d="M-46.17444-46.17444-98.14223-32.24947-129.05171-63.15897-63.15897-129.05171-32.24947-98.14223Z" fill="#27896c"/>
<path transform="matrix(1,0,0,-1,241.026,241.02399)" stroke-width=".3985" stroke-linecap="butt" stroke-miterlimit="10" stroke-linejoin="miter" fill="none" stroke="#000000" d="M-46.17444-46.17444-98.14223-32.24947-129.05171-63.15897-63.15897-129.05171-32.24947-98.14223Z"/>
<path transform="matrix(1,0,0,-1,241.026,241.02399)" d="M16.9058-63.07626-21.138-101.1201-9.82426-143.34432 80.17836-119.22644 68.86365-76.99825Z" fill="#27896c"/>
<path transform="matrix(1,0,0,-1,241.026,241.02399)" stroke-width=".3985" stroke-linecap="butt" stroke-miterlimit="10" stroke-linejoin="miter" fill="none" stroke="#000000" d="M16.9058-63.07626-21.138-101.1201-9.82426-143.34432 80.17836-119.22644 68.86365-76.99825Z"/>
<path transform="matrix(1,0,0,-1,241.026,241.02399)" d="M63.07626-16.9058 76.99825-68.86365 119.22644-80.17836 143.34432 9.82426 101.1201 21.138Z" fill="#27896c"/>
<path transform="matrix(1,0,0,-1,241.026,241.02399)" stroke-width=".3985" stroke-linecap="butt" stroke-miterlimit="10" stroke-linejoin="miter" fill="none" stroke="#000000" d="M63.07626-16.9058 76.99825-68.86365 119.22644-80.17836 143.34432 9.82426 101.1201 21.138Z"/>
<path transform="matrix(1,0,0,-1,241.026,241.02399)" d="M19.44733 145.92267 29.2726 109.2547 56.11429 136.09639 40.6152 151.59548Z" fill="#3aacad"/>
<path transform="matrix(1,0,0,-1,241.026,241.02399)" stroke-width=".3985" stroke-linecap="butt" stroke-miterlimit="10" stroke-linejoin="miter" fill="none" stroke="#000000" d="M19.44733 145.92267 29.2726 109.2547 56.11429 136.09639 40.6152 151.59548Z"/>
<path transform="matrix(1,0,0,-1,241.026,241.02399)" d="M-110.97429 110.97429-116.64807 89.8024-79.9761 79.9761-89.8024 116.64807Z" fill="#3aacad"/>
<path transform="matrix(1,0,0,-1,241.026,241.02399)" stroke-width=".3985" stroke-linecap="butt" stroke-miterlimit="10" stroke-linejoin="miter" fill="none" stroke="#000000" d="M-110.97429 110.97429-116.64807 89.8024-79.9761 79.9761-89.8024 116.64807Z"/>
<path transform="matrix(1,0,0,-1,241.026,241.02399)" d="M-151.59548-40.6152-136.09639-56.11429-109.2547-29.2726-145.92267-19.44733Z" fill="#3aacad"/>
<path transform="matrix(1,0,0,-1,241.026,241.02399)" stroke-width=".3985" stroke-linecap="butt" stroke-miterlimit="10" stroke-linejoin="miter" fill="none" stroke="#000000" d="M-151.59548-40.6152-136.09639-56.11429-109.2547-29.2726-145.92267-19.44733Z"/>
<path transform="matrix(1,0,0,-1,241.026,241.02399)" d="M-40.6152-151.59548-19.44733-145.92267-29.2726-109.2547-56.11429-136.09639Z" fill="#3aacad"/>
<path transform="matrix(1,0,0,-1,241.026,241.02399)" stroke-width=".3985" stroke-linecap="butt" stroke-miterlimit="10" stroke-linejoin="miter" fill="none" stroke="#000000" d="M-40.6152-151.59548-19.44733-145.92267-29.2726-109.2547-56.11429-136.09639Z"/>
<path transform="matrix(1,0,0,-1,241.026,241.02399)" d="M136.09639 56.11429 109.2547 29.2726 145.92267 19.44733 151.59548 40.6152Z" fill="#3aacad"/>
<path transform="matrix(1,0,0,-1,241.026,241.02399)" stroke-width=".3985" stroke-linecap="butt" stroke-miterlimit="10" stroke-linejoin="miter" fill="none" stroke="#000000" d="M136.09639 56.11429 109.2547 29.2726 145.92267 19.44733 151.59548 40.6152Z"/>
<path transform="matrix(1,0,0,-1,241.026,241.02399)" d="M110.97429-110.97429 116.64807-89.8024 79.9761-79.9761 89.8024-116.64807Z" fill="#3aacad"/>
<path transform="matrix(1,0,0,-1,241.026,241.02399)" stroke-width=".3985" stroke-linecap="butt" stroke-miterlimit="10" stroke-linejoin="miter" fill="none" stroke="#000000" d="M110.97429-110.97429 116.64807-89.8024 79.9761-79.9761 89.8024-116.64807Z"/>
<path transform="matrix(1,0,0,-1,241.026,241.02399)" d="M9.62303 182.58766 16.86896 155.54572 32.4816 159.72908Z" fill="#b1dbcf"/>
<path transform="matrix(1,0,0,-1,241.026,241.02399)" stroke-width=".3985" stroke-linecap="butt" stroke-miterlimit="10" stroke-linejoin="miter" fill="none" stroke="#000000" d="M9.62303 182.58766 16.86896 155.54572 32.4816 159.72908Z"/>
<path transform="matrix(1,0,0,-1,241.026,241.02399)" d="M182.58766 9.62303 159.72908 32.4816 155.54572 16.86896Z" fill="#b1dbcf"/>
<path transform="matrix(1,0,0,-1,241.026,241.02399)" stroke-width=".3985" stroke-linecap="butt" stroke-miterlimit="10" stroke-linejoin="miter" fill="none" stroke="#000000" d="M182.58766 9.62303 159.72908 32.4816 155.54572 16.86896Z"/>
<path transform="matrix(1,0,0,-1,241.026,241.02399)" d="M-153.31903 99.62769-126.2711 92.38075-122.08675 107.9964Z" fill="#b1dbcf"/>
<path transform="matrix(1,0,0,-1,241.026,241.02399)" stroke-width=".3985" stroke-linecap="butt" stroke-miterlimit="10" stroke-linejoin="miter" fill="none" stroke="#000000" d="M-153.31903 99.62769-126.2711 92.38075-122.08675 107.9964Z"/>
<path transform="matrix(1,0,0,-1,241.026,241.02399)" d="M82.95897 162.94107 51.72769 154.57234 63.15897 143.14107Z" fill="#b1dbcf"/>
<path transform="matrix(1,0,0,-1,241.026,241.02399)" stroke-width=".3985" stroke-linecap="butt" stroke-miterlimit="10" stroke-linejoin="miter" fill="none" stroke="#000000" d="M82.95897 162.94107 51.72769 154.57234 63.15897 143.14107Z"/>
<path transform="matrix(1,0,0,-1,241.026,241.02399)" d="M-162.94107-82.95897-143.14107-63.15897-154.57234-51.72769Z" fill="#b1dbcf"/>
<path transform="matrix(1,0,0,-1,241.026,241.02399)" stroke-width=".3985" stroke-linecap="butt" stroke-miterlimit="10" stroke-linejoin="miter" fill="none" stroke="#000000" d="M-162.94107-82.95897-143.14107-63.15897-154.57234-51.72769Z"/>
<path transform="matrix(1,0,0,-1,241.026,241.02399)" d="M-99.62769 153.31903-107.9964 122.08675-92.38075 126.2711Z" fill="#b1dbcf"/>
<path transform="matrix(1,0,0,-1,241.026,241.02399)" stroke-width=".3985" stroke-linecap="butt" stroke-miterlimit="10" stroke-linejoin="miter" fill="none" stroke="#000000" d="M-99.62769 153.31903-107.9964 122.08675-92.38075 126.2711Z"/>
<path transform="matrix(1,0,0,-1,241.026,241.02399)" d="M-9.62303-182.58766-16.86896-155.54572-32.4816-159.72908Z" fill="#b1dbcf"/>
<path transform="matrix(1,0,0,-1,241.026,241.02399)" stroke-width=".3985" stroke-linecap="butt" stroke-miterlimit="10" stroke-linejoin="miter" fill="none" stroke="#000000" d="M-9.62303-182.58766-16.86896-155.54572-32.4816-159.72908Z"/>
<path transform="matrix(1,0,0,-1,241.026,241.02399)" d="M-182.58766-9.62303-159.72908-32.4816-155.54572-16.86896Z" fill="#b1dbcf"/>
<path transform="matrix(1,0,0,-1,241.026,241.02399)" stroke-width=".3985" stroke-linecap="butt" stroke-miterlimit="10" stroke-linejoin="miter" fill="none" stroke="#000000" d="M-182.58766-9.62303-159.72908-32.4816-155.54572-16.86896Z"/>
<path transform="matrix(1,0,0,-1,241.026,241.02399)" d="M153.31903-99.62769 126.2711-92.38075 122.08675-107.9964Z" fill="#b1dbcf"/>
<path transform="matrix(1,0,0,-1,241.026,241.02399)" stroke-width=".3985" stroke-linecap="butt" stroke-miterlimit="10" stroke-linejoin="miter" fill="none" stroke="#000000" d="M153.31903-99.62769 126.2711-92.38075 122.08675-107.9964Z"/>
<path transform="matrix(1,0,0,-1,241.026,241.02399)" d="M-82.95897-162.94107-51.72769-154.57234-63.15897-143.14107Z" fill="#b1dbcf"/>
<path transform="matrix(1,0,0,-1,241.026,241.02399)" stroke-width=".3985" stroke-linecap="butt" stroke-miterlimit="10" stroke-linejoin="miter" fill="none" stroke="#000000" d="M-82.95897-162.94107-51.72769-154.57234-63.15897-143.14107Z"/>
<path transform="matrix(1,0,0,-1,241.026,241.02399)" d="M162.94107 82.95897 143.14107 63.15897 154.57234 51.72769Z" fill="#b1dbcf"/>
<path transform="matrix(1,0,0,-1,241.026,241.02399)" stroke-width=".3985" stroke-linecap="butt" stroke-miterlimit="10" stroke-linejoin="miter" fill="none" stroke="#000000" d="M162.94107 82.95897 143.14107 63.15897 154.57234 51.72769Z"/>
<path transform="matrix(1,0,0,-1,241.026,241.02399)" d="M99.62769-153.31903 107.9964-122.08675 92.38075-126.2711Z" fill="#b1dbcf"/>
<path transform="matrix(1,0,0,-1,241.026,241.02399)" stroke-width=".3985" stroke-linecap="butt" stroke-miterlimit="10" stroke-linejoin="miter" fill="none" stroke="#000000" d="M99.62769-153.31903 107.9964-122.08675 92.38075-126.2711Z"/>
<path transform="matrix(1,0,0,-1,241.026,241.02399)" d="M-9.62303 215.92307 7.24591 152.96735 16.86896 155.54572 9.62303 182.58766 56.11429 136.09639 63.15897 143.14107Z" fill="#ffffff"/>
<path transform="matrix(1,0,0,-1,241.026,241.02399)" stroke-width=".3985" stroke-linecap="butt" stroke-miterlimit="10" stroke-linejoin="miter" fill="none" stroke="#000000" d="M-9.62303 215.92307 7.24591 152.96735 16.86896 155.54572 9.62303 182.58766 56.11429 136.09639 63.15897 143.14107Z"/>
<path transform="matrix(1,0,0,-1,241.026,241.02399)" d="M154.57234 51.72769 70.20364 136.09639 63.15897 129.05171 151.59548 40.6152Z" fill="#ffffff"/>
<path transform="matrix(1,0,0,-1,241.026,241.02399)" stroke-width=".3985" stroke-linecap="butt" stroke-miterlimit="10" stroke-linejoin="miter" fill="none" stroke="#000000" d="M154.57234 51.72769 70.20364 136.09639 63.15897 129.05171 151.59548 40.6152Z"/>
<path transform="matrix(1,0,0,-1,241.026,241.02399)" d="M215.92307-9.62303 162.70696 43.59308 159.72908 32.4816 182.58766 9.62303 109.2547 29.2726 101.1201 21.138Z" fill="#ffffff"/>
<path transform="matrix(1,0,0,-1,241.026,241.02399)" stroke-width=".3985" stroke-linecap="butt" stroke-miterlimit="10" stroke-linejoin="miter" fill="none" stroke="#000000" d="M215.92307-9.62303 162.70696 43.59308 159.72908 32.4816 182.58766 9.62303 109.2547 29.2726 101.1201 21.138Z"/>
<path transform="matrix(1,0,0,-1,241.026,241.02399)" d="M-13.92793 51.9648 90.00763 24.11487 98.14223 32.24947-5.79335 60.0994Z" fill="#ffffff"/>
<path transform="matrix(1,0,0,-1,241.026,241.02399)" stroke-width=".3985" stroke-linecap="butt" stroke-miterlimit="10" stroke-linejoin="miter" fill="none" stroke="#000000" d="M-13.92793 51.9648 90.00763 24.11487 98.14223 32.24947-5.79335 60.0994Z"/>
<path transform="matrix(1,0,0,-1,241.026,241.02399)" d="M-119.22644 80.17836-25.04042 54.94168-16.9058 63.07626-116.64807 89.8024Z" fill="#ffffff"/>
<path transform="matrix(1,0,0,-1,241.026,241.02399)" stroke-width=".3985" stroke-linecap="butt" stroke-miterlimit="10" stroke-linejoin="miter" fill="none" stroke="#000000" d="M-119.22644 80.17836-25.04042 54.94168-16.9058 63.07626-116.64807 89.8024Z"/>
<path transform="matrix(1,0,0,-1,241.026,241.02399)" d="M-191.81119 99.62769-128.84947 82.75772-126.2711 92.38075-153.31903 99.62769-89.8024 116.64807-92.38075 126.2711Z" fill="#ffffff"/>
<path transform="matrix(1,0,0,-1,241.026,241.02399)" stroke-width=".3985" stroke-linecap="butt" stroke-miterlimit="10" stroke-linejoin="miter" fill="none" stroke="#000000" d="M-191.81119 99.62769-128.84947 82.75772-126.2711 92.38075-153.31903 99.62769-89.8024 116.64807-92.38075 126.2711Z"/>
<path transform="matrix(1,0,0,-1,241.026,241.02399)" d="M32.4816 159.72908-82.75772 128.84947-80.17836 119.22644 40.6152 151.59548Z" fill="#ffffff"/>
<path transform="matrix(1,0,0,-1,241.026,241.02399)" stroke-width=".3985" stroke-linecap="butt" stroke-miterlimit="10" stroke-linejoin="miter" fill="none" stroke="#000000" d="M32.4816 159.72908-82.75772 128.84947-80.17836 119.22644 40.6152 151.59548Z"/>
<path transform="matrix(1,0,0,-1,241.026,241.02399)" d="M116.29639 182.18914 43.59308 162.70696 51.72769 154.57234 82.95897 162.94107 29.2726 109.2547 32.24947 98.14223Z" fill="#ffffff"/>
<path transform="matrix(1,0,0,-1,241.026,241.02399)" stroke-width=".3985" stroke-linecap="butt" stroke-miterlimit="10" stroke-linejoin="miter" fill="none" stroke="#000000" d="M116.29639 182.18914 43.59308 162.70696 51.72769 154.57234 82.95897 162.94107 29.2726 109.2547 32.24947 98.14223Z"/>
<path transform="matrix(1,0,0,-1,241.026,241.02399)" d="M-51.9648 13.92793 24.11487 90.00763 21.138 101.1201-54.94168 25.04042Z" fill="#ffffff"/>
<path transform="matrix(1,0,0,-1,241.026,241.02399)" stroke-width=".3985" stroke-linecap="butt" stroke-miterlimit="10" stroke-linejoin="miter" fill="none" stroke="#000000" d="M-51.9648 13.92793 24.11487 90.00763 21.138 101.1201-54.94168 25.04042Z"/>
<path transform="matrix(1,0,0,-1,241.026,241.02399)" d="M-129.05171-63.15897-60.0994 5.79335-63.07626 16.9058-136.09639-56.11429Z" fill="#ffffff"/>
<path transform="matrix(1,0,0,-1,241.026,241.02399)" stroke-width=".3985" stroke-linecap="butt" stroke-miterlimit="10" stroke-linejoin="miter" fill="none" stroke="#000000" d="M-129.05171-63.15897-60.0994 5.79335-63.07626 16.9058-136.09639-56.11429Z"/>
<path transform="matrix(1,0,0,-1,241.026,241.02399)" d="M-182.18914-116.29639-136.09639-70.20364-143.14107-63.15897-162.94107-82.95897-145.92267-19.44733-155.54572-16.86896Z" fill="#ffffff"/>
<path transform="matrix(1,0,0,-1,241.026,241.02399)" stroke-width=".3985" stroke-linecap="butt" stroke-miterlimit="10" stroke-linejoin="miter" fill="none" stroke="#000000" d="M-182.18914-116.29639-136.09639-70.20364-143.14107-63.15897-162.94107-82.95897-145.92267-19.44733-155.54572-16.86896Z"/>
<path transform="matrix(1,0,0,-1,241.026,241.02399)" d="M-122.08675 107.9964-152.96735-7.24591-143.34432-9.82426-110.97429 110.97429Z" fill="#ffffff"/>
<path transform="matrix(1,0,0,-1,241.026,241.02399)" stroke-width=".3985" stroke-linecap="butt" stroke-miterlimit="10" stroke-linejoin="miter" fill="none" stroke="#000000" d="M-122.08675 107.9964-152.96735-7.24591-143.34432-9.82426-110.97429 110.97429Z"/>
<path transform="matrix(1,0,0,-1,241.026,241.02399)" d="M-99.62769 191.81119-119.10887 119.10887-107.9964 122.08675-99.62769 153.31903-79.9761 79.9761-68.86365 76.99825Z" fill="#ffffff"/>
<path transform="matrix(1,0,0,-1,241.026,241.02399)" stroke-width=".3985" stroke-linecap="butt" stroke-miterlimit="10" stroke-linejoin="miter" fill="none" stroke="#000000" d="M-99.62769 191.81119-119.10887 119.10887-107.9964 122.08675-99.62769 153.31903-79.9761 79.9761-68.86365 76.99825Z"/>
<path transform="matrix(1,0,0,-1,241.026,241.02399)" d="M-38.03984-38.03984-65.88676 65.88676-76.99825 68.86365-49.15231-35.06296Z" fill="#ffffff"/>
<path transform="matrix(1,0,0,-1,241.026,241.02399)" stroke-width=".3985" stroke-linecap="butt" stroke-miterlimit="10" stroke-linejoin="miter" fill="none" stroke="#000000" d="M-38.03984-38.03984-65.88676 65.88676-76.99825 68.86365-49.15231-35.06296Z"/>
<path transform="matrix(1,0,0,-1,241.026,241.02399)" d="M-9.82426-143.34432-35.06296-49.15231-46.17444-46.17444-19.44733-145.92267Z" fill="#ffffff"/>
<path transform="matrix(1,0,0,-1,241.026,241.02399)" stroke-width=".3985" stroke-linecap="butt" stroke-miterlimit="10" stroke-linejoin="miter" fill="none" stroke="#000000" d="M-9.82426-143.34432-35.06296-49.15231-46.17444-46.17444-19.44733-145.92267Z"/>
<path transform="matrix(1,0,0,-1,241.026,241.02399)" d="M9.62303-215.92307-7.24591-152.96735-16.86896-155.54572-9.62303-182.58766-56.11429-136.09639-63.15897-143.14107Z" fill="#ffffff"/>
<path transform="matrix(1,0,0,-1,241.026,241.02399)" stroke-width=".3985" stroke-linecap="butt" stroke-miterlimit="10" stroke-linejoin="miter" fill="none" stroke="#000000" d="M9.62303-215.92307-7.24591-152.96735-16.86896-155.54572-9.62303-182.58766-56.11429-136.09639-63.15897-143.14107Z"/>
<path transform="matrix(1,0,0,-1,241.026,241.02399)" d="M-154.57234-51.72769-70.20364-136.09639-63.15897-129.05171-151.59548-40.6152Z" fill="#ffffff"/>
<path transform="matrix(1,0,0,-1,241.026,241.02399)" stroke-width=".3985" stroke-linecap="butt" stroke-miterlimit="10" stroke-linejoin="miter" fill="none" stroke="#000000" d="M-154.57234-51.72769-70.20364-136.09639-63.15897-129.05171-151.59548-40.6152Z"/>
<path transform="matrix(1,0,0,-1,241.026,241.02399)" d="M-215.92307 9.62303-162.70696-43.59308-159.72908-32.4816-182.58766-9.62303-109.2547-29.2726-101.1201-21.138Z" fill="#ffffff"/>
<path transform="matrix(1,0,0,-1,241.026,241.02399)" stroke-width=".3985" stroke-linecap="butt" stroke-miterlimit="10" stroke-linejoin="miter" fill="none" stroke="#000000" d="M-215.92307 9.62303-162.70696-43.59308-159.72908-32.4816-182.58766-9.62303-109.2547-29.2726-101.1201-21.138Z"/>
<path transform="matrix(1,0,0,-1,241.026,241.02399)" d="M13.92793-51.9648-90.00763-24.11487-98.14223-32.24947 5.79335-60.0994Z" fill="#ffffff"/>
<path transform="matrix(1,0,0,-1,241.026,241.02399)" stroke-width=".3985" stroke-linecap="butt" stroke-miterlimit="10" stroke-linejoin="miter" fill="none" stroke="#000000" d="M13.92793-51.9648-90.00763-24.11487-98.14223-32.24947 5.79335-60.0994Z"/>
<path transform="matrix(1,0,0,-1,241.026,241.02399)" d="M119.22644-80.17836 25.04042-54.94168 16.9058-63.07626 116.64807-89.8024Z" fill="#ffffff"/>
<path transform="matrix(1,0,0,-1,241.026,241.02399)" stroke-width=".3985" stroke-linecap="butt" stroke-miterlimit="10" stroke-linejoin="miter" fill="none" stroke="#000000" d="M119.22644-80.17836 25.04042-54.94168 16.9058-63.07626 116.64807-89.8024Z"/>
<path transform="matrix(1,0,0,-1,241.026,241.02399)" d="M191.81119-99.62769 128.84947-82.75772 126.2711-92.38075 153.31903-99.62769 89.8024-116.64807 92.38075-126.2711Z" fill="#ffffff"/>
<path transform="matrix(1,0,0,-1,241.026,241.02399)" stroke-width=".3985" stroke-linecap="butt" stroke-miterlimit="10" stroke-linejoin="miter" fill="none" stroke="#000000" d="M191.81119-99.62769 128.84947-82.75772 126.2711-92.38075 153.31903-99.62769 89.8024-116.64807 92.38075-126.2711Z"/>
<path transform="matrix(1,0,0,-1,241.026,241.02399)" d="M-32.4816-159.72908 82.75772-128.84947 80.17836-119.22644-40.6152-151.59548Z" fill="#ffffff"/>
<path transform="matrix(1,0,0,-1,241.026,241.02399)" stroke-width=".3985" stroke-linecap="butt" stroke-miterlimit="10" stroke-linejoin="miter" fill="none" stroke="#000000" d="M-32.4816-159.72908 82.75772-128.84947 80.17836-119.22644-40.6152-151.59548Z"/>
<path transform="matrix(1,0,0,-1,241.026,241.02399)" d="M-116.29639-182.18914-43.59308-162.70696-51.72769-154.57234-82.95897-162.94107-29.2726-109.2547-32.24947-98.14223Z" fill="#ffffff"/>
<path transform="matrix(1,0,0,-1,241.026,241.02399)" stroke-width=".3985" stroke-linecap="butt" stroke-miterlimit="10" stroke-linejoin="miter" fill="none" stroke="#000000" d="M-116.29639-182.18914-43.59308-162.70696-51.72769-154.57234-82.95897-162.94107-29.2726-109.2547-32.24947-98.14223Z"/>
<path transform="matrix(1,0,0,-1,241.026,241.02399)" d="M51.9648-13.92793-24.11487-90.00763-21.138-101.1201 54.94168-25.04042Z" fill="#ffffff"/>
<path transform="matrix(1,0,0,-1,241.026,241.02399)" stroke-width=".3985" stroke-linecap="butt" stroke-miterlimit="10" stroke-linejoin="miter" fill="none" stroke="#000000" d="M51.9648-13.92793-24.11487-90.00763-21.138-101.1201 54.94168-25.04042Z"/>
<path transform="matrix(1,0,0,-1,241.026,241.02399)" d="M129.05171 63.15897 60.0994-5.79335 63.07626-16.9058 136.09639 56.11429Z" fill="#ffffff"/>
<path transform="matrix(1,0,0,-1,241.026,241.02399)" stroke-width=".3985" stroke-linecap="butt" stroke-miterlimit="10" stroke-linejoin="miter" fill="none" stroke="#000000" d="M129.05171 63.15897 60.0994-5.79335 63.07626-16.9058 136.09639 56.11429Z"/>
<path transform="matrix(1,0,0,-1,241.026,241.02399)" d="M182.18914 116.29639 136.09639 70.20364 143.14107 63.15897 162.94107 82.95897 145.92267 19.44733 155.54572 16.86896Z" fill="#ffffff"/>
<path transform="matrix(1,0,0,-1,241.026,241.02399)" stroke-width=".3985" stroke-linecap="butt" stroke-miterlimit="10" stroke-linejoin="miter" fill="none" stroke="#000000" d="M182.18914 116.29639 136.09639 70.20364 143.14107 63.15897 162.94107 82.95897 145.92267 19.44733 155.54572 16.86896Z"/>
<path transform="matrix(1,0,0,-1,241.026,241.02399)" d="M122.08675-107.9964 152.96735 7.24591 143.34432 9.82426 110.97429-110.97429Z" fill="#ffffff"/>
<path transform="matrix(1,0,0,-1,241.026,241.02399)" stroke-width=".3985" stroke-linecap="butt" stroke-miterlimit="10" stroke-linejoin="miter" fill="none" stroke="#000000" d="M122.08675-107.9964 152.96735 7.24591 143.34432 9.82426 110.97429-110.97429Z"/>
<path transform="matrix(1,0,0,-1,241.026,241.02399)" d="M99.62769-191.81119 119.10887-119.10887 107.9964-122.08675 99.62769-153.31903 79.9761-79.9761 68.86365-76.99825Z" fill="#ffffff"/>
<path transform="matrix(1,0,0,-1,241.026,241.02399)" stroke-width=".3985" stroke-linecap="butt" stroke-miterlimit="10" stroke-linejoin="miter" fill="none" stroke="#000000" d="M99.62769-191.81119 119.10887-119.10887 107.9964-122.08675 99.62769-153.31903 79.9761-79.9761 68.86365-76.99825Z"/>
<path transform="matrix(1,0,0,-1,241.026,241.02399)" d="M38.03984 38.03984 65.88676-65.88676 76.99825-68.86365 49.15231 35.06296Z" fill="#ffffff"/>
<path transform="matrix(1,0,0,-1,241.026,241.02399)" stroke-width=".3985" stroke-linecap="butt" stroke-miterlimit="10" stroke-linejoin="miter" fill="none" stroke="#000000" d="M38.03984 38.03984 65.88676-65.88676 76.99825-68.86365 49.15231 35.06296Z"/>
<path transform="matrix(1,0,0,-1,241.026,241.02399)" d="M9.82426 143.34432 35.06296 49.15231 46.17444 46.17444 19.44733 145.92267Z" fill="#ffffff"/>
<path transform="matrix(1,0,0,-1,241.026,241.02399)" stroke-width=".3985" stroke-linecap="butt" stroke-miterlimit="10" stroke-linejoin="miter" fill="none" stroke="#000000" d="M9.82426 143.34432 35.06296 49.15231 46.17444 46.17444 19.44733 145.92267Z"/>
</svg>
