<svg xmlns="http://www.w3.org/2000/svg" xmlns:xlink="http://www.w3.org/1999/xlink" xmlns:inkscape="http://www.inkscape.org/namespaces/inkscape" version="1.1" width="2858.66" height="774.51" viewBox="0 0 2858.66 774.51">
<path transform="matrix(1,0,0,-1,383.255,387.256)" d="M935.0955-110.9952 1005.24136-98.61646 1046.0907-156.97536 1086.9401-98.61646 1157.0859-110.9952 1144.7072-40.84933 1203.066 0 1144.7072 40.84933 1157.0859 110.9952 1086.9401 98.61646 1046.0907 156.97536 1005.24136 98.61646 935.0955 110.9952 947.47427 40.84933 889.11538 0 947.47427-40.84933Z" fill="#00ad7a"/>
<path transform="matrix(1,0,0,-1,383.255,387.256)" stroke-width="2.98883" stroke-linecap="butt" stroke-miterlimit="10" stroke-linejoin="miter" fill="none" stroke="#000000" d="M935.0955-110.9952 1005.24136-98.61646 1046.0907-156.97536 1086.9401-98.61646 1157.0859-110.9952 1144.7072-40.84933 1203.066 0 1144.7072 40.84933 1157.0859 110.9952 1086.9401 98.61646 1046.0907 156.97536 1005.24136 98.61646 935.0955 110.9952 947.47427 40.84933 889.11538 0 947.47427-40.84933Z"/>
<path transform="matrix(1,0,0,-1,383.255,387.256)" d="M832.95718 135.56339 817.8387 49.89154 871.74227 12.16054 925.6458 49.89154 910.5273 135.56339 996.19918 120.44489 1033.9302 174.34845 996.19918 228.252 910.5273 213.1335 925.6458 298.80534 871.74227 336.53636 817.8387 298.80534 832.95718 213.1335 747.28536 228.252 709.5543 174.34845 747.28536 120.44489Z" fill="#96d0b6"/>
<path transform="matrix(1,0,0,-1,383.255,387.256)" stroke-width="2.98883" stroke-linecap="butt" stroke-miterlimit="10" stroke-linejoin="miter" fill="none" stroke="#000000" d="M832.95718 135.56339 817.8387 49.89154 871.74227 12.16054 925.6458 49.89154 910.5273 135.56339 996.19918 120.44489 1033.9302 174.34845 996.19918 228.252 910.5273 213.1335 925.6458 298.80534 871.74227 336.53636 817.8387 298.80534 832.95718 213.1335 747.28536 228.252 709.5543 174.34845 747.28536 120.44489Z"/>
<path transform="matrix(1,0,0,-1,383.255,387.256)" d="M1181.654-213.1335 1166.5355-298.80534 1220.4392-336.53636 1274.3427-298.80534 1259.2243-213.1335 1344.896-228.252 1382.6271-174.34845 1344.896-120.44489 1259.2243-135.56339 1274.3427-49.89154 1220.4392-12.16054 1166.5355-49.89154 1181.654-135.56339 1095.9823-120.44489 1058.2512-174.34845 1095.9823-228.252Z" fill="#96d0b6"/>
<path transform="matrix(1,0,0,-1,383.255,387.256)" stroke-width="2.98883" stroke-linecap="butt" stroke-miterlimit="10" stroke-linejoin="miter" fill="none" stroke="#000000" d="M1181.654-213.1335 1166.5355-298.80534 1220.4392-336.53636 1274.3427-298.80534 1259.2243-213.1335 1344.896-228.252 1382.6271-174.34845 1344.896-120.44489 1259.2243-135.56339 1274.3427-49.89154 1220.4392-12.16054 1166.5355-49.89154 1181.654-135.56339 1095.9823-120.44489 1058.2512-174.34845 1095.9823-228.252Z"/>
<path transform="matrix(1,0,0,-1,383.255,387.256)" d="M910.5273-135.56339 925.6458-49.89154 871.74227-12.16054 817.8387-49.89154 832.95718-135.56339 747.28536-120.44489 709.5543-174.34845 747.28536-228.252 832.95718-213.1335 817.8387-298.80534 871.74227-336.53636 925.6458-298.80534 910.5273-213.1335 996.19918-228.252 1033.9302-174.34845 996.19918-120.44489Z" fill="#96d0b6"/>
<path transform="matrix(1,0,0,-1,383.255,387.256)" stroke-width="2.98883" stroke-linecap="butt" stroke-miterlimit="10" stroke-linejoin="miter" fill="none" stroke="#000000" d="M910.5273-135.56339 925.6458-49.89154 871.74227-12.16054 817.8387-49.89154 832.95718-135.56339 747.28536-120.44489 709.5543-174.34845 747.28536-228.252 832.95718-213.1335 817.8387-298.80534 871.74227-336.53636 925.6458-298.80534 910.5273-213.1335 996.19918-228.252 1033.9302-174.34845 996.19918-120.44489Z"/>
<path transform="matrix(1,0,0,-1,383.255,387.256)" d="M1259.2243 135.56339 1344.896 120.44489 1382.6271 174.34845 1344.896 228.252 1259.2243 213.1335 1274.3427 298.80534 1220.4392 336.53636 1166.5355 298.80534 1181.654 213.1335 1095.9823 228.252 1058.2512 174.34845 1095.9823 120.44489 1181.654 135.56339 1166.5355 49.89154 1220.4392 12.16054 1274.3427 49.89154Z" fill="#96d0b6"/>
<path transform="matrix(1,0,0,-1,383.255,387.256)" stroke-width="2.98883" stroke-linecap="butt" stroke-miterlimit="10" stroke-linejoin="miter" fill="none" stroke="#000000" d="M1259.2243 135.56339 1344.896 120.44489 1382.6271 174.34845 1344.896 228.252 1259.2243 213.1335 1274.3427 298.80534 1220.4392 336.53636 1166.5355 298.80534 1181.654 213.1335 1095.9823 228.252 1058.2512 174.34845 1095.9823 120.44489 1181.654 135.56339 1166.5355 49.89154 1220.4392 12.16054 1274.3427 49.89154Z"/>
<path transform="matrix(1,0,0,-1,383.255,387.256)" d="M1505.7828-110.9952 1493.404-40.84933 1551.763 0 1493.404 40.84933 1505.7828 110.9952 1435.637 98.61646 1394.7876 156.97536 1353.9382 98.61646 1283.7924 110.9952 1296.1712 40.84933 1237.8123 0 1296.1712-40.84933 1283.7924-110.9952 1353.9382-98.61646 1394.7876-156.97536 1435.637-98.61646Z" fill="#00795f"/>
<path transform="matrix(1,0,0,-1,383.255,387.256)" stroke-width="2.98883" stroke-linecap="butt" stroke-miterlimit="10" stroke-linejoin="miter" fill="none" stroke="#000000" d="M1505.7828-110.9952 1493.404-40.84933 1551.763 0 1493.404 40.84933 1505.7828 110.9952 1435.637 98.61646 1394.7876 156.97536 1353.9382 98.61646 1283.7924 110.9952 1296.1712 40.84933 1237.8123 0 1296.1712-40.84933 1283.7924-110.9952 1353.9382-98.61646 1394.7876-156.97536 1435.637-98.61646Z"/>
<path transform="matrix(1,0,0,-1,383.255,387.256)" d="M808.389 110.9952 738.2431 98.61646 697.3938 156.97536 656.54446 98.61646 586.39859 110.9952 598.77737 40.84933 540.41848 0 598.77737-40.84933 586.39859-110.9952 656.54446-98.61646 697.3938-156.97536 738.2431-98.61646 808.389-110.9952 796.01028-40.84933 854.36917 0 796.01028 40.84933Z" fill="#00795f"/>
<path transform="matrix(1,0,0,-1,383.255,387.256)" stroke-width="2.98883" stroke-linecap="butt" stroke-miterlimit="10" stroke-linejoin="miter" fill="none" stroke="#000000" d="M808.389 110.9952 738.2431 98.61646 697.3938 156.97536 656.54446 98.61646 586.39859 110.9952 598.77737 40.84933 540.41848 0 598.77737-40.84933 586.39859-110.9952 656.54446-98.61646 697.3938-156.97536 738.2431-98.61646 808.389-110.9952 796.01028-40.84933 854.36917 0 796.01028 40.84933Z"/>
<path transform="matrix(1,0,0,-1,383.255,387.256)" d="M1607.9212 135.56339 1693.5929 120.44489 1731.324 174.34845 1693.5929 228.252 1607.9212 213.1335 1623.0396 298.80534 1569.1361 336.53636 1515.2324 298.80534 1530.351 213.1335 1444.6792 228.252 1406.9481 174.34845 1444.6792 120.44489 1530.351 135.56339 1515.2324 49.89154 1569.1361 12.16054 1623.0396 49.89154Z" fill="#02993b"/>
<path transform="matrix(1,0,0,-1,383.255,387.256)" stroke-width="2.98883" stroke-linecap="butt" stroke-miterlimit="10" stroke-linejoin="miter" fill="none" stroke="#000000" d="M1607.9212 135.56339 1693.5929 120.44489 1731.324 174.34845 1693.5929 228.252 1607.9212 213.1335 1623.0396 298.80534 1569.1361 336.53636 1515.2324 298.80534 1530.351 213.1335 1444.6792 228.252 1406.9481 174.34845 1444.6792 120.44489 1530.351 135.56339 1515.2324 49.89154 1569.1361 12.16054 1623.0396 49.89154Z"/>
<path transform="matrix(1,0,0,-1,383.255,387.256)" d="M484.26029 213.1335 398.58845 228.252 360.85746 174.34845 398.58845 120.44489 484.26029 135.56339 469.14179 49.89154 523.04537 12.16054 576.9489 49.89154 561.8304 135.56339 647.50228 120.44489 685.2333 174.34845 647.50228 228.252 561.8304 213.1335 576.9489 298.80534 523.04537 336.53636 469.14179 298.80534Z" fill="#02993b"/>
<path transform="matrix(1,0,0,-1,383.255,387.256)" stroke-width="2.98883" stroke-linecap="butt" stroke-miterlimit="10" stroke-linejoin="miter" fill="none" stroke="#000000" d="M484.26029 213.1335 398.58845 228.252 360.85746 174.34845 398.58845 120.44489 484.26029 135.56339 469.14179 49.89154 523.04537 12.16054 576.9489 49.89154 561.8304 135.56339 647.50228 120.44489 685.2333 174.34845 647.50228 228.252 561.8304 213.1335 576.9489 298.80534 523.04537 336.53636 469.14179 298.80534Z"/>
<path transform="matrix(1,0,0,-1,383.255,387.256)" d="M1530.351-135.56339 1444.6792-120.44489 1406.9481-174.34845 1444.6792-228.252 1530.351-213.1335 1515.2324-298.80534 1569.1361-336.53636 1623.0396-298.80534 1607.9212-213.1335 1693.5929-228.252 1731.324-174.34845 1693.5929-120.44489 1607.9212-135.56339 1623.0396-49.89154 1569.1361-12.16054 1515.2324-49.89154Z" fill="#02993b"/>
<path transform="matrix(1,0,0,-1,383.255,387.256)" stroke-width="2.98883" stroke-linecap="butt" stroke-miterlimit="10" stroke-linejoin="miter" fill="none" stroke="#000000" d="M1530.351-135.56339 1444.6792-120.44489 1406.9481-174.34845 1444.6792-228.252 1530.351-213.1335 1515.2324-298.80534 1569.1361-336.53636 1623.0396-298.80534 1607.9212-213.1335 1693.5929-228.252 1731.324-174.34845 1693.5929-120.44489 1607.9212-135.56339 1623.0396-49.89154 1569.1361-12.16054 1515.2324-49.89154Z"/>
<path transform="matrix(1,0,0,-1,383.255,387.256)" d="M561.8304-135.56339 576.9489-49.89154 523.04537-12.16054 469.14179-49.89154 484.26029-135.56339 398.58845-120.44489 360.85746-174.34845 398.58845-228.252 484.26029-213.1335 469.14179-298.80534 523.04537-336.53636 576.9489-298.80534 561.8304-213.1335 647.50228-228.252 685.2333-174.34845 647.50228-120.44489Z" fill="#02993b"/>
<path transform="matrix(1,0,0,-1,383.255,387.256)" stroke-width="2.98883" stroke-linecap="butt" stroke-miterlimit="10" stroke-linejoin="miter" fill="none" stroke="#000000" d="M561.8304-135.56339 576.9489-49.89154 523.04537-12.16054 469.14179-49.89154 484.26029-135.56339 398.58845-120.44489 360.85746-174.34845 398.58845-228.252 484.26029-213.1335 469.14179-298.80534 523.04537-336.53636 576.9489-298.80534 561.8304-213.1335 647.50228-228.252 685.2333-174.34845 647.50228-120.44489Z"/>
<path transform="matrix(1,0,0,-1,383.255,387.256)" d="M237.70169 110.9952 250.08043 40.84933 191.72153 0 250.08043-40.84933 237.70169-110.9952 307.84757-98.61646 348.6969-156.97536 389.54624-98.61646 459.6921-110.9952 447.31336-40.84933 505.67228 0 447.31336 40.84933 459.6921 110.9952 389.54624 98.61646 348.6969 156.97536 307.84757 98.61646Z" fill="#9acc82"/>
<path transform="matrix(1,0,0,-1,383.255,387.256)" stroke-width="2.98883" stroke-linecap="butt" stroke-miterlimit="10" stroke-linejoin="miter" fill="none" stroke="#000000" d="M237.70169 110.9952 250.08043 40.84933 191.72153 0 250.08043-40.84933 237.70169-110.9952 307.84757-98.61646 348.6969-156.97536 389.54624-98.61646 459.6921-110.9952 447.31336-40.84933 505.67228 0 447.31336 40.84933 459.6921 110.9952 389.54624 98.61646 348.6969 156.97536 307.84757 98.61646Z"/>
<path transform="matrix(1,0,0,-1,383.255,387.256)" d="M1632.4893 110.9952 1644.868 40.84933 1586.5092 0 1644.868-40.84933 1632.4893-110.9952 1702.6351-98.61646 1743.4845-156.97536 1784.3339-98.61646 1854.4797-110.9952 1842.101-40.84933 1900.4598 0 1842.101 40.84933 1854.4797 110.9952 1784.3339 98.61646 1743.4845 156.97536 1702.6351 98.61646Z" fill="#9acc82"/>
<path transform="matrix(1,0,0,-1,383.255,387.256)" stroke-width="2.98883" stroke-linecap="butt" stroke-miterlimit="10" stroke-linejoin="miter" fill="none" stroke="#000000" d="M1632.4893 110.9952 1644.868 40.84933 1586.5092 0 1644.868-40.84933 1632.4893-110.9952 1702.6351-98.61646 1743.4845-156.97536 1784.3339-98.61646 1854.4797-110.9952 1842.101-40.84933 1900.4598 0 1842.101 40.84933 1854.4797 110.9952 1784.3339 98.61646 1743.4845 156.97536 1702.6351 98.61646Z"/>
<path transform="matrix(1,0,0,-1,383.255,387.256)" d="M213.1335 135.56339 298.80534 120.44489 336.53636 174.34845 298.80534 228.252 213.1335 213.1335 228.252 298.80534 174.34845 336.53636 120.44489 298.80534 135.56339 213.1335 49.89154 228.252 12.16054 174.34845 49.89154 120.44489 135.56339 135.56339 120.44489 49.89154 174.34845 12.16054 228.252 49.89154Z" fill="#f6f4d8"/>
<path transform="matrix(1,0,0,-1,383.255,387.256)" stroke-width="2.98883" stroke-linecap="butt" stroke-miterlimit="10" stroke-linejoin="miter" fill="none" stroke="#000000" d="M213.1335 135.56339 298.80534 120.44489 336.53636 174.34845 298.80534 228.252 213.1335 213.1335 228.252 298.80534 174.34845 336.53636 120.44489 298.80534 135.56339 213.1335 49.89154 228.252 12.16054 174.34845 49.89154 120.44489 135.56339 135.56339 120.44489 49.89154 174.34845 12.16054 228.252 49.89154Z"/>
<path transform="matrix(1,0,0,-1,383.255,387.256)" d="M135.56339-135.56339 49.89154-120.44489 12.16054-174.34845 49.89154-228.252 135.56339-213.1335 120.44489-298.80534 174.34845-336.53636 228.252-298.80534 213.1335-213.1335 298.80534-228.252 336.53636-174.34845 298.80534-120.44489 213.1335-135.56339 228.252-49.89154 174.34845-12.16054 120.44489-49.89154Z" fill="#f6f4d8"/>
<path transform="matrix(1,0,0,-1,383.255,387.256)" stroke-width="2.98883" stroke-linecap="butt" stroke-miterlimit="10" stroke-linejoin="miter" fill="none" stroke="#000000" d="M135.56339-135.56339 49.89154-120.44489 12.16054-174.34845 49.89154-228.252 135.56339-213.1335 120.44489-298.80534 174.34845-336.53636 228.252-298.80534 213.1335-213.1335 298.80534-228.252 336.53636-174.34845 298.80534-120.44489 213.1335-135.56339 228.252-49.89154 174.34845-12.16054 120.44489-49.89154Z"/>
<path transform="matrix(1,0,0,-1,383.255,387.256)" d="M1879.0479 213.1335 1793.3761 228.252 1755.645 174.34845 1793.3761 120.44489 1879.0479 135.56339 1863.9293 49.89154 1917.833 12.16054 1971.7365 49.89154 1956.618 135.56339 2042.2898 120.44489 2080.0208 174.34845 2042.2898 228.252 1956.618 213.1335 1971.7365 298.80534 1917.833 336.53636 1863.9293 298.80534Z" fill="#f6f4d8"/>
<path transform="matrix(1,0,0,-1,383.255,387.256)" stroke-width="2.98883" stroke-linecap="butt" stroke-miterlimit="10" stroke-linejoin="miter" fill="none" stroke="#000000" d="M1879.0479 213.1335 1793.3761 228.252 1755.645 174.34845 1793.3761 120.44489 1879.0479 135.56339 1863.9293 49.89154 1917.833 12.16054 1971.7365 49.89154 1956.618 135.56339 2042.2898 120.44489 2080.0208 174.34845 2042.2898 228.252 1956.618 213.1335 1971.7365 298.80534 1917.833 336.53636 1863.9293 298.80534Z"/>
<path transform="matrix(1,0,0,-1,383.255,387.256)" d="M1956.618-135.56339 1971.7365-49.89154 1917.833-12.16054 1863.9293-49.89154 1879.0479-135.56339 1793.3761-120.44489 1755.645-174.34845 1793.3761-228.252 1879.0479-213.1335 1863.9293-298.80534 1917.833-336.53636 1971.7365-298.80534 1956.618-213.1335 2042.2898-228.252 2080.0208-174.34845 2042.2898-120.44489Z" fill="#f6f4d8"/>
<path transform="matrix(1,0,0,-1,383.255,387.256)" stroke-width="2.98883" stroke-linecap="butt" stroke-miterlimit="10" stroke-linejoin="miter" fill="none" stroke="#000000" d="M1956.618-135.56339 1971.7365-49.89154 1917.833-12.16054 1863.9293-49.89154 1879.0479-135.56339 1793.3761-120.44489 1755.645-174.34845 1793.3761-228.252 1879.0479-213.1335 1863.9293-298.80534 1917.833-336.53636 1971.7365-298.80534 1956.618-213.1335 2042.2898-228.252 2080.0208-174.34845 2042.2898-120.44489Z"/>
<path transform="matrix(1,0,0,-1,383.255,387.256)" d="M110.9952-110.9952 98.61646-40.84933 156.97536 0 98.61646 40.84933 110.9952 110.9952 40.84933 98.61646 0 156.97536-40.84933 98.61646-110.9952 110.9952-98.61646 40.84933-156.97536 0-98.61646-40.84933-110.9952-110.9952-40.84933-98.61646 0-156.97536 40.84933-98.61646Z" fill="#d8de8a"/>
<path transform="matrix(1,0,0,-1,383.255,387.256)" stroke-width="2.98883" stroke-linecap="butt" stroke-miterlimit="10" stroke-linejoin="miter" fill="none" stroke="#000000" d="M110.9952-110.9952 98.61646-40.84933 156.97536 0 98.61646 40.84933 110.9952 110.9952 40.84933 98.61646 0 156.97536-40.84933 98.61646-110.9952 110.9952-98.61646 40.84933-156.97536 0-98.61646-40.84933-110.9952-110.9952-40.84933-98.61646 0-156.97536 40.84933-98.61646Z"/>
<path transform="matrix(1,0,0,-1,383.255,387.256)" d="M2203.1766 110.9952 2133.0308 98.61646 2092.1815 156.97536 2051.332 98.61646 1981.1862 110.9952 1993.565 40.84933 1935.206 0 1993.565-40.84933 1981.1862-110.9952 2051.332-98.61646 2092.1815-156.97536 2133.0308-98.61646 2203.1766-110.9952 2190.7979-40.84933 2249.1568 0 2190.7979 40.84933Z" fill="#d8de8a"/>
<path transform="matrix(1,0,0,-1,383.255,387.256)" stroke-width="2.98883" stroke-linecap="butt" stroke-miterlimit="10" stroke-linejoin="miter" fill="none" stroke="#000000" d="M2203.1766 110.9952 2133.0308 98.61646 2092.1815 156.97536 2051.332 98.61646 1981.1862 110.9952 1993.565 40.84933 1935.206 0 1993.565-40.84933 1981.1862-110.9952 2051.332-98.61646 2092.1815-156.97536 2133.0308-98.61646 2203.1766-110.9952 2190.7979-40.84933 2249.1568 0 2190.7979 40.84933Z"/>
<path transform="matrix(1,0,0,-1,383.255,387.256)" d="M-120.44489-298.80534-180.06108-340.5354-168.6358-356.8584-98.61646-307.84757-110.9952-237.70169-40.84933-250.08043 0-191.72153-12.16054-174.34845-49.89154-228.252-135.56339-213.1335Z" fill="#ffffff"/>
<path transform="matrix(1,0,0,-1,383.255,387.256)" stroke-width="2.98883" stroke-linecap="butt" stroke-miterlimit="10" stroke-linejoin="miter" fill="none" stroke="#000000" d="M-120.44489-298.80534-180.06108-340.5354-168.6358-356.8584-98.61646-307.84757-110.9952-237.70169-40.84933-250.08043 0-191.72153-12.16054-174.34845-49.89154-228.252-135.56339-213.1335Z"/>
<path transform="matrix(1,0,0,-1,383.255,387.256)" d="M40.84933-98.61646 0-156.97536 12.16054-174.34845 49.89154-120.44489 135.56339-135.56339 120.44489-49.89154 250.08043 40.84933 237.70169 110.9952 307.84757 98.61646 348.6969 156.97536 336.53636 174.34845 298.80534 120.44489 213.1335 135.56339 228.252 49.89154 98.61646-40.84933 110.9952-110.9952Z" fill="#ffffff"/>
<path transform="matrix(1,0,0,-1,383.255,387.256)" stroke-width="2.98883" stroke-linecap="butt" stroke-miterlimit="10" stroke-linejoin="miter" fill="none" stroke="#000000" d="M40.84933-98.61646 0-156.97536 12.16054-174.34845 49.89154-120.44489 135.56339-135.56339 120.44489-49.89154 250.08043 40.84933 237.70169 110.9952 307.84757 98.61646 348.6969 156.97536 336.53636 174.34845 298.80534 120.44489 213.1335 135.56339 228.252 49.89154 98.61646-40.84933 110.9952-110.9952Z"/>
<path transform="matrix(1,0,0,-1,383.255,387.256)" d="M389.54624 250.08043 348.6969 191.72153 360.85746 174.34845 398.58845 228.252 484.26029 213.1335 469.14179 298.80534 523.04537 336.53636 576.9489 298.80534 561.8304 213.1335 647.50228 228.252 738.2431 98.61646 808.389 110.9952 796.01028 40.84933 854.36917 0 871.74227 12.16054 817.8387 49.89154 832.95718 135.56339 747.28536 120.44489 656.54446 250.08043 586.39859 237.70169 598.77737 307.84757 523.04537 360.85746 447.31336 307.84757 459.6921 237.70169Z" fill="#ffffff"/>
<path transform="matrix(1,0,0,-1,383.255,387.256)" stroke-width="2.98883" stroke-linecap="butt" stroke-miterlimit="10" stroke-linejoin="miter" fill="none" stroke="#000000" d="M389.54624 250.08043 348.6969 191.72153 360.85746 174.34845 398.58845 228.252 484.26029 213.1335 469.14179 298.80534 523.04537 336.53636 576.9489 298.80534 561.8304 213.1335 647.50228 228.252 738.2431 98.61646 808.389 110.9952 796.01028 40.84933 854.36917 0 871.74227 12.16054 817.8387 49.89154 832.95718 135.56339 747.28536 120.44489 656.54446 250.08043 586.39859 237.70169 598.77737 307.84757 523.04537 360.85746 447.31336 307.84757 459.6921 237.70169Z"/>
<path transform="matrix(1,0,0,-1,383.255,387.256)" d="M947.47427-40.84933 889.11538 0 871.74227-12.16054 925.6458-49.89154 910.5273-135.56339 996.19918-120.44489 1086.9401-250.08043 1157.0859-237.70169 1144.7072-307.84757 1220.4392-360.85746 1296.1712-307.84757 1283.7924-237.70169 1353.9382-250.08043 1394.7876-191.72153 1382.6271-174.34845 1344.896-228.252 1259.2243-213.1335 1274.3427-298.80534 1220.4392-336.53636 1166.5355-298.80534 1181.654-213.1335 1095.9823-228.252 1005.24136-98.61646 935.0955-110.9952Z" fill="#ffffff"/>
<path transform="matrix(1,0,0,-1,383.255,387.256)" stroke-width="2.98883" stroke-linecap="butt" stroke-miterlimit="10" stroke-linejoin="miter" fill="none" stroke="#000000" d="M947.47427-40.84933 889.11538 0 871.74227-12.16054 925.6458-49.89154 910.5273-135.56339 996.19918-120.44489 1086.9401-250.08043 1157.0859-237.70169 1144.7072-307.84757 1220.4392-360.85746 1296.1712-307.84757 1283.7924-237.70169 1353.9382-250.08043 1394.7876-191.72153 1382.6271-174.34845 1344.896-228.252 1259.2243-213.1335 1274.3427-298.80534 1220.4392-336.53636 1166.5355-298.80534 1181.654-213.1335 1095.9823-228.252 1005.24136-98.61646 935.0955-110.9952Z"/>
<path transform="matrix(1,0,0,-1,383.255,387.256)" d="M1435.637-98.61646 1394.7876-156.97536 1406.9481-174.34845 1444.6792-120.44489 1530.351-135.56339 1515.2324-49.89154 1644.868 40.84933 1632.4893 110.9952 1702.6351 98.61646 1743.4845 156.97536 1731.324 174.34845 1693.5929 120.44489 1607.9212 135.56339 1623.0396 49.89154 1493.404-40.84933 1505.7828-110.9952Z" fill="#ffffff"/>
<path transform="matrix(1,0,0,-1,383.255,387.256)" stroke-width="2.98883" stroke-linecap="butt" stroke-miterlimit="10" stroke-linejoin="miter" fill="none" stroke="#000000" d="M1435.637-98.61646 1394.7876-156.97536 1406.9481-174.34845 1444.6792-120.44489 1530.351-135.56339 1515.2324-49.89154 1644.868 40.84933 1632.4893 110.9952 1702.6351 98.61646 1743.4845 156.97536 1731.324 174.34845 1693.5929 120.44489 1607.9212 135.56339 1623.0396 49.89154 1493.404-40.84933 1505.7828-110.9952Z"/>
<path transform="matrix(1,0,0,-1,383.255,387.256)" d="M1784.3339 250.08043 1743.4845 191.72153 1755.645 174.34845 1793.3761 228.252 1879.0479 213.1335 1863.9293 298.80534 1917.833 336.53636 1971.7365 298.80534 1956.618 213.1335 2042.2898 228.252 2133.0308 98.61646 2203.1766 110.9952 2190.7979 40.84933 2249.1568 0 2266.5299 12.16054 2212.6263 49.89154 2227.7449 135.56339 2142.073 120.44489 2051.332 250.08043 1981.1862 237.70169 1993.565 307.84757 1917.833 360.85746 1842.101 307.84757 1854.4797 237.70169Z" fill="#ffffff"/>
<path transform="matrix(1,0,0,-1,383.255,387.256)" stroke-width="2.98883" stroke-linecap="butt" stroke-miterlimit="10" stroke-linejoin="miter" fill="none" stroke="#000000" d="M1784.3339 250.08043 1743.4845 191.72153 1755.645 174.34845 1793.3761 228.252 1879.0479 213.1335 1863.9293 298.80534 1917.833 336.53636 1971.7365 298.80534 1956.618 213.1335 2042.2898 228.252 2133.0308 98.61646 2203.1766 110.9952 2190.7979 40.84933 2249.1568 0 2266.5299 12.16054 2212.6263 49.89154 2227.7449 135.56339 2142.073 120.44489 2051.332 250.08043 1981.1862 237.70169 1993.565 307.84757 1917.833 360.85746 1842.101 307.84757 1854.4797 237.70169Z"/>
<path transform="matrix(1,0,0,-1,383.255,387.256)" d="M2342.2618-40.84933 2283.9029 0 2266.5299-12.16054 2320.4334-49.89154 2305.315-135.56339 2390.9869-120.44489 2432.7169-180.06108 2449.0399-168.6358 2400.029-98.61646 2329.883-110.9952Z" fill="#ffffff"/>
<path transform="matrix(1,0,0,-1,383.255,387.256)" stroke-width="2.98883" stroke-linecap="butt" stroke-miterlimit="10" stroke-linejoin="miter" fill="none" stroke="#000000" d="M2342.2618-40.84933 2283.9029 0 2266.5299-12.16054 2320.4334-49.89154 2305.315-135.56339 2390.9869-120.44489 2432.7169-180.06108 2449.0399-168.6358 2400.029-98.61646 2329.883-110.9952Z"/>
<path transform="matrix(1,0,0,-1,383.255,387.256)" d="M-307.84757-98.61646-356.8584-168.6358-340.5354-180.06108-298.80534-120.44489-213.1335-135.56339-228.252-49.89154-98.61646 40.84933-110.9952 110.9952-40.84933 98.61646 0 156.97536-12.16054 174.34845-49.89154 120.44489-135.56339 135.56339-120.44489 49.89154-250.08043-40.84933-237.70169-110.9952Z" fill="#ffffff"/>
<path transform="matrix(1,0,0,-1,383.255,387.256)" stroke-width="2.98883" stroke-linecap="butt" stroke-miterlimit="10" stroke-linejoin="miter" fill="none" stroke="#000000" d="M-307.84757-98.61646-356.8584-168.6358-340.5354-180.06108-298.80534-120.44489-213.1335-135.56339-228.252-49.89154-98.61646 40.84933-110.9952 110.9952-40.84933 98.61646 0 156.97536-12.16054 174.34845-49.89154 120.44489-135.56339 135.56339-120.44489 49.89154-250.08043-40.84933-237.70169-110.9952Z"/>
<path transform="matrix(1,0,0,-1,383.255,387.256)" d="M40.84933 250.08043 0 191.72153 12.16054 174.34845 49.89154 228.252 135.56339 213.1335 120.44489 298.80534 174.34845 336.53636 228.252 298.80534 213.1335 213.1335 298.80534 228.252 389.54624 98.61646 459.6921 110.9952 447.31336 40.84933 505.67228 0 523.04537 12.16054 469.14179 49.89154 484.26029 135.56339 398.58845 120.44489 307.84757 250.08043 237.70169 237.70169 250.08043 307.84757 174.34845 360.85746 98.61646 307.84757 110.9952 237.70169Z" fill="#ffffff"/>
<path transform="matrix(1,0,0,-1,383.255,387.256)" stroke-width="2.98883" stroke-linecap="butt" stroke-miterlimit="10" stroke-linejoin="miter" fill="none" stroke="#000000" d="M40.84933 250.08043 0 191.72153 12.16054 174.34845 49.89154 228.252 135.56339 213.1335 120.44489 298.80534 174.34845 336.53636 228.252 298.80534 213.1335 213.1335 298.80534 228.252 389.54624 98.61646 459.6921 110.9952 447.31336 40.84933 505.67228 0 523.04537 12.16054 469.14179 49.89154 484.26029 135.56339 398.58845 120.44489 307.84757 250.08043 237.70169 237.70169 250.08043 307.84757 174.34845 360.85746 98.61646 307.84757 110.9952 237.70169Z"/>
<path transform="matrix(1,0,0,-1,383.255,387.256)" d="M598.77737-40.84933 540.41848 0 523.04537-12.16054 576.9489-49.89154 561.8304-135.56339 647.50228-120.44489 738.2431-250.08043 808.389-237.70169 796.01028-307.84757 871.74227-360.85746 947.47427-307.84757 935.0955-237.70169 1005.24136-250.08043 1046.0907-191.72153 1033.9302-174.34845 996.19918-228.252 910.5273-213.1335 925.6458-298.80534 871.74227-336.53636 817.8387-298.80534 832.95718-213.1335 747.28536-228.252 656.54446-98.61646 586.39859-110.9952Z" fill="#ffffff"/>
<path transform="matrix(1,0,0,-1,383.255,387.256)" stroke-width="2.98883" stroke-linecap="butt" stroke-miterlimit="10" stroke-linejoin="miter" fill="none" stroke="#000000" d="M598.77737-40.84933 540.41848 0 523.04537-12.16054 576.9489-49.89154 561.8304-135.56339 647.50228-120.44489 738.2431-250.08043 808.389-237.70169 796.01028-307.84757 871.74227-360.85746 947.47427-307.84757 935.0955-237.70169 1005.24136-250.08043 1046.0907-191.72153 1033.9302-174.34845 996.19918-228.252 910.5273-213.1335 925.6458-298.80534 871.74227-336.53636 817.8387-298.80534 832.95718-213.1335 747.28536-228.252 656.54446-98.61646 586.39859-110.9952Z"/>
<path transform="matrix(1,0,0,-1,383.255,387.256)" d="M1086.9401-98.61646 1046.0907-156.97536 1058.2512-174.34845 1095.9823-120.44489 1181.654-135.56339 1166.5355-49.89154 1296.1712 40.84933 1283.7924 110.9952 1353.9382 98.61646 1394.7876 156.97536 1382.6271 174.34845 1344.896 120.44489 1259.2243 135.56339 1274.3427 49.89154 1144.7072-40.84933 1157.0859-110.9952Z" fill="#ffffff"/>
<path transform="matrix(1,0,0,-1,383.255,387.256)" stroke-width="2.98883" stroke-linecap="butt" stroke-miterlimit="10" stroke-linejoin="miter" fill="none" stroke="#000000" d="M1086.9401-98.61646 1046.0907-156.97536 1058.2512-174.34845 1095.9823-120.44489 1181.654-135.56339 1166.5355-49.89154 1296.1712 40.84933 1283.7924 110.9952 1353.9382 98.61646 1394.7876 156.97536 1382.6271 174.34845 1344.896 120.44489 1259.2243 135.56339 1274.3427 49.89154 1144.7072-40.84933 1157.0859-110.9952Z"/>
<path transform="matrix(1,0,0,-1,383.255,387.256)" d="M1435.637 250.08043 1394.7876 191.72153 1406.9481 174.34845 1444.6792 228.252 1530.351 213.1335 1515.2324 298.80534 1569.1361 336.53636 1623.0396 298.80534 1607.9212 213.1335 1693.5929 228.252 1784.3339 98.61646 1854.4797 110.9952 1842.101 40.84933 1900.4598 0 1917.833 12.16054 1863.9293 49.89154 1879.0479 135.56339 1793.3761 120.44489 1702.6351 250.08043 1632.4893 237.70169 1644.868 307.84757 1569.1361 360.85746 1493.404 307.84757 1505.7828 237.70169Z" fill="#ffffff"/>
<path transform="matrix(1,0,0,-1,383.255,387.256)" stroke-width="2.98883" stroke-linecap="butt" stroke-miterlimit="10" stroke-linejoin="miter" fill="none" stroke="#000000" d="M1435.637 250.08043 1394.7876 191.72153 1406.9481 174.34845 1444.6792 228.252 1530.351 213.1335 1515.2324 298.80534 1569.1361 336.53636 1623.0396 298.80534 1607.9212 213.1335 1693.5929 228.252 1784.3339 98.61646 1854.4797 110.9952 1842.101 40.84933 1900.4598 0 1917.833 12.16054 1863.9293 49.89154 1879.0479 135.56339 1793.3761 120.44489 1702.6351 250.08043 1632.4893 237.70169 1644.868 307.84757 1569.1361 360.85746 1493.404 307.84757 1505.7828 237.70169Z"/>
<path transform="matrix(1,0,0,-1,383.255,387.256)" d="M1993.565-40.84933 1935.206 0 1917.833-12.16054 1971.7365-49.89154 1956.618-135.56339 2042.2898-120.44489 2133.0308-250.08043 2203.1766-237.70169 2190.7979-307.84757 2260.8172-356.8584 2272.2425-340.5354 2212.6263-298.80534 2227.7449-213.1335 2142.073-228.252 2051.332-98.61646 1981.1862-110.9952Z" fill="#ffffff"/>
<path transform="matrix(1,0,0,-1,383.255,387.256)" stroke-width="2.98883" stroke-linecap="butt" stroke-miterlimit="10" stroke-linejoin="miter" fill="none" stroke="#000000" d="M1993.565-40.84933 1935.206 0 1917.833-12.16054 1971.7365-49.89154 1956.618-135.56339 2042.2898-120.44489 2133.0308-250.08043 2203.1766-237.70169 2190.7979-307.84757 2260.8172-356.8584 2272.2425-340.5354 2212.6263-298.80534 2227.7449-213.1335 2142.073-228.252 2051.332-98.61646 1981.1862-110.9952Z"/>
<path transform="matrix(1,0,0,-1,383.255,387.256)" d="M2400.029 98.61646 2449.0399 168.6358 2432.7169 180.06108 2390.9869 120.44489 2305.315 135.56339 2320.4334 49.89154 2190.7979-40.84933 2203.1766-110.9952 2133.0308-98.61646 2092.1815-156.97536 2104.342-174.34845 2142.073-120.44489 2227.7449-135.56339 2212.6263-49.89154 2342.2618 40.84933 2329.883 110.9952Z" fill="#ffffff"/>
<path transform="matrix(1,0,0,-1,383.255,387.256)" stroke-width="2.98883" stroke-linecap="butt" stroke-miterlimit="10" stroke-linejoin="miter" fill="none" stroke="#000000" d="M2400.029 98.61646 2449.0399 168.6358 2432.7169 180.06108 2390.9869 120.44489 2305.315 135.56339 2320.4334 49.89154 2190.7979-40.84933 2203.1766-110.9952 2133.0308-98.61646 2092.1815-156.97536 2104.342-174.34845 2142.073-120.44489 2227.7449-135.56339 2212.6263-49.89154 2342.2618 40.84933 2329.883 110.9952Z"/>
<path transform="matrix(1,0,0,-1,383.255,387.256)" d="M2051.332-250.08043 2092.1815-191.72153 2080.0208-174.34845 2042.2898-228.252 1956.618-213.1335 1971.7365-298.80534 1917.833-336.53636 1863.9293-298.80534 1879.0479-213.1335 1793.3761-228.252 1702.6351-98.61646 1632.4893-110.9952 1644.868-40.84933 1586.5092 0 1569.1361-12.16054 1623.0396-49.89154 1607.9212-135.56339 1693.5929-120.44489 1784.3339-250.08043 1854.4797-237.70169 1842.101-307.84757 1917.833-360.85746 1993.565-307.84757 1981.1862-237.70169Z" fill="#ffffff"/>
<path transform="matrix(1,0,0,-1,383.255,387.256)" stroke-width="2.98883" stroke-linecap="butt" stroke-miterlimit="10" stroke-linejoin="miter" fill="none" stroke="#000000" d="M2051.332-250.08043 2092.1815-191.72153 2080.0208-174.34845 2042.2898-228.252 1956.618-213.1335 1971.7365-298.80534 1917.833-336.53636 1863.9293-298.80534 1879.0479-213.1335 1793.3761-228.252 1702.6351-98.61646 1632.4893-110.9952 1644.868-40.84933 1586.5092 0 1569.1361-12.16054 1623.0396-49.89154 1607.9212-135.56339 1693.5929-120.44489 1784.3339-250.08043 1854.4797-237.70169 1842.101-307.84757 1917.833-360.85746 1993.565-307.84757 1981.1862-237.70169Z"/>
<path transform="matrix(1,0,0,-1,383.255,387.256)" d="M1493.404 40.84933 1551.763 0 1569.1361 12.16054 1515.2324 49.89154 1530.351 135.56339 1444.6792 120.44489 1353.9382 250.08043 1283.7924 237.70169 1296.1712 307.84757 1220.4392 360.85746 1144.7072 307.84757 1157.0859 237.70169 1086.9401 250.08043 1046.0907 191.72153 1058.2512 174.34845 1095.9823 228.252 1181.654 213.1335 1166.5355 298.80534 1220.4392 336.53636 1274.3427 298.80534 1259.2243 213.1335 1344.896 228.252 1435.637 98.61646 1505.7828 110.9952Z" fill="#ffffff"/>
<path transform="matrix(1,0,0,-1,383.255,387.256)" stroke-width="2.98883" stroke-linecap="butt" stroke-miterlimit="10" stroke-linejoin="miter" fill="none" stroke="#000000" d="M1493.404 40.84933 1551.763 0 1569.1361 12.16054 1515.2324 49.89154 1530.351 135.56339 1444.6792 120.44489 1353.9382 250.08043 1283.7924 237.70169 1296.1712 307.84757 1220.4392 360.85746 1144.7072 307.84757 1157.0859 237.70169 1086.9401 250.08043 1046.0907 191.72153 1058.2512 174.34845 1095.9823 228.252 1181.654 213.1335 1166.5355 298.80534 1220.4392 336.53636 1274.3427 298.80534 1259.2243 213.1335 1344.896 228.252 1435.637 98.61646 1505.7828 110.9952Z"/>
<path transform="matrix(1,0,0,-1,383.255,387.256)" d="M1005.24136 98.61646 1046.0907 156.97536 1033.9302 174.34845 996.19918 120.44489 910.5273 135.56339 925.6458 49.89154 796.01028-40.84933 808.389-110.9952 738.2431-98.61646 697.3938-156.97536 709.5543-174.34845 747.28536-120.44489 832.95718-135.56339 817.8387-49.89154 947.47427 40.84933 935.0955 110.9952Z" fill="#ffffff"/>
<path transform="matrix(1,0,0,-1,383.255,387.256)" stroke-width="2.98883" stroke-linecap="butt" stroke-miterlimit="10" stroke-linejoin="miter" fill="none" stroke="#000000" d="M1005.24136 98.61646 1046.0907 156.97536 1033.9302 174.34845 996.19918 120.44489 910.5273 135.56339 925.6458 49.89154 796.01028-40.84933 808.389-110.9952 738.2431-98.61646 697.3938-156.97536 709.5543-174.34845 747.28536-120.44489 832.95718-135.56339 817.8387-49.89154 947.47427 40.84933 935.0955 110.9952Z"/>
<path transform="matrix(1,0,0,-1,383.255,387.256)" d="M656.54446-250.08043 697.3938-191.72153 685.2333-174.34845 647.50228-228.252 561.8304-213.1335 576.9489-298.80534 523.04537-336.53636 469.14179-298.80534 484.26029-213.1335 398.58845-228.252 307.84757-98.61646 237.70169-110.9952 250.08043-40.84933 191.72153 0 174.34845-12.16054 228.252-49.89154 213.1335-135.56339 298.80534-120.44489 389.54624-250.08043 459.6921-237.70169 447.31336-307.84757 523.04537-360.85746 598.77737-307.84757 586.39859-237.70169Z" fill="#ffffff"/>
<path transform="matrix(1,0,0,-1,383.255,387.256)" stroke-width="2.98883" stroke-linecap="butt" stroke-miterlimit="10" stroke-linejoin="miter" fill="none" stroke="#000000" d="M656.54446-250.08043 697.3938-191.72153 685.2333-174.34845 647.50228-228.252 561.8304-213.1335 576.9489-298.80534 523.04537-336.53636 469.14179-298.80534 484.26029-213.1335 398.58845-228.252 307.84757-98.61646 237.70169-110.9952 250.08043-40.84933 191.72153 0 174.34845-12.16054 228.252-49.89154 213.1335-135.56339 298.80534-120.44489 389.54624-250.08043 459.6921-237.70169 447.31336-307.84757 523.04537-360.85746 598.77737-307.84757 586.39859-237.70169Z"/>
<path transform="matrix(1,0,0,-1,383.255,387.256)" d="M98.61646 40.84933 156.97536 0 174.34845 12.16054 120.44489 49.89154 135.56339 135.56339 49.89154 120.44489-40.84933 250.08043-110.9952 237.70169-98.61646 307.84757-168.6358 356.8584-180.06108 340.5354-120.44489 298.80534-135.56339 213.1335-49.89154 228.252 40.84933 98.61646 110.9952 110.9952Z" fill="#ffffff"/>
<path transform="matrix(1,0,0,-1,383.255,387.256)" stroke-width="2.98883" stroke-linecap="butt" stroke-miterlimit="10" stroke-linejoin="miter" fill="none" stroke="#000000" d="M98.61646 40.84933 156.97536 0 174.34845 12.16054 120.44489 49.89154 135.56339 135.56339 49.89154 120.44489-40.84933 250.08043-110.9952 237.70169-98.61646 307.84757-168.6358 356.8584-180.06108 340.5354-120.44489 298.80534-135.56339 213.1335-49.89154 228.252 40.84933 98.61646 110.9952 110.9952Z"/>
<path transform="matrix(1,0,0,-1,383.255,387.256)" d="M2212.6263 298.80534 2272.2425 340.5354 2260.8172 356.8584 2190.7979 307.84757 2203.1766 237.70169 2133.0308 250.08043 2092.1815 191.72153 2104.342 174.34845 2142.073 228.252 2227.7449 213.1335Z" fill="#ffffff"/>
<path transform="matrix(1,0,0,-1,383.255,387.256)" stroke-width="2.98883" stroke-linecap="butt" stroke-miterlimit="10" stroke-linejoin="miter" fill="none" stroke="#000000" d="M2212.6263 298.80534 2272.2425 340.5354 2260.8172 356.8584 2190.7979 307.84757 2203.1766 237.70169 2133.0308 250.08043 2092.1815 191.72153 2104.342 174.34845 2142.073 228.252 2227.7449 213.1335Z"/>
<path transform="matrix(1,0,0,-1,383.255,387.256)" d="M2051.332 98.61646 2092.1815 156.97536 2080.0208 174.34845 2042.2898 120.44489 1956.618 135.56339 1971.7365 49.89154 1842.101-40.84933 1854.4797-110.9952 1784.3339-98.61646 1743.4845-156.97536 1755.645-174.34845 1793.3761-120.44489 1879.0479-135.56339 1863.9293-49.89154 1993.565 40.84933 1981.1862 110.9952Z" fill="#ffffff"/>
<path transform="matrix(1,0,0,-1,383.255,387.256)" stroke-width="2.98883" stroke-linecap="butt" stroke-miterlimit="10" stroke-linejoin="miter" fill="none" stroke="#000000" d="M2051.332 98.61646 2092.1815 156.97536 2080.0208 174.34845 2042.2898 120.44489 1956.618 135.56339 1971.7365 49.89154 1842.101-40.84933 1854.4797-110.9952 1784.3339-98.61646 1743.4845-156.97536 1755.645-174.34845 1793.3761-120.44489 1879.0479-135.56339 1863.9293-49.89154 1993.565 40.84933 1981.1862 110.9952Z"/>
<path transform="matrix(1,0,0,-1,383.255,387.256)" d="M1702.6351-250.08043 1743.4845-191.72153 1731.324-174.34845 1693.5929-228.252 1607.9212-213.1335 1623.0396-298.80534 1569.1361-336.53636 1515.2324-298.80534 1530.351-213.1335 1444.6792-228.252 1353.9382-98.61646 1283.7924-110.9952 1296.1712-40.84933 1237.8123 0 1220.4392-12.16054 1274.3427-49.89154 1259.2243-135.56339 1344.896-120.44489 1435.637-250.08043 1505.7828-237.70169 1493.404-307.84757 1569.1361-360.85746 1644.868-307.84757 1632.4893-237.70169Z" fill="#ffffff"/>
<path transform="matrix(1,0,0,-1,383.255,387.256)" stroke-width="2.98883" stroke-linecap="butt" stroke-miterlimit="10" stroke-linejoin="miter" fill="none" stroke="#000000" d="M1702.6351-250.08043 1743.4845-191.72153 1731.324-174.34845 1693.5929-228.252 1607.9212-213.1335 1623.0396-298.80534 1569.1361-336.53636 1515.2324-298.80534 1530.351-213.1335 1444.6792-228.252 1353.9382-98.61646 1283.7924-110.9952 1296.1712-40.84933 1237.8123 0 1220.4392-12.16054 1274.3427-49.89154 1259.2243-135.56339 1344.896-120.44489 1435.637-250.08043 1505.7828-237.70169 1493.404-307.84757 1569.1361-360.85746 1644.868-307.84757 1632.4893-237.70169Z"/>
<path transform="matrix(1,0,0,-1,383.255,387.256)" d="M1144.7072 40.84933 1203.066 0 1220.4392 12.16054 1166.5355 49.89154 1181.654 135.56339 1095.9823 120.44489 1005.24136 250.08043 935.0955 237.70169 947.47427 307.84757 871.74227 360.85746 796.01028 307.84757 808.389 237.70169 738.2431 250.08043 697.3938 191.72153 709.5543 174.34845 747.28536 228.252 832.95718 213.1335 817.8387 298.80534 871.74227 336.53636 925.6458 298.80534 910.5273 213.1335 996.19918 228.252 1086.9401 98.61646 1157.0859 110.9952Z" fill="#ffffff"/>
<path transform="matrix(1,0,0,-1,383.255,387.256)" stroke-width="2.98883" stroke-linecap="butt" stroke-miterlimit="10" stroke-linejoin="miter" fill="none" stroke="#000000" d="M1144.7072 40.84933 1203.066 0 1220.4392 12.16054 1166.5355 49.89154 1181.654 135.56339 1095.9823 120.44489 1005.24136 250.08043 935.0955 237.70169 947.47427 307.84757 871.74227 360.85746 796.01028 307.84757 808.389 237.70169 738.2431 250.08043 697.3938 191.72153 709.5543 174.34845 747.28536 228.252 832.95718 213.1335 817.8387 298.80534 871.74227 336.53636 925.6458 298.80534 910.5273 213.1335 996.19918 228.252 1086.9401 98.61646 1157.0859 110.9952Z"/>
<path transform="matrix(1,0,0,-1,383.255,387.256)" d="M656.54446 98.61646 697.3938 156.97536 685.2333 174.34845 647.50228 120.44489 561.8304 135.56339 576.9489 49.89154 447.31336-40.84933 459.6921-110.9952 389.54624-98.61646 348.6969-156.97536 360.85746-174.34845 398.58845-120.44489 484.26029-135.56339 469.14179-49.89154 598.77737 40.84933 586.39859 110.9952Z" fill="#ffffff"/>
<path transform="matrix(1,0,0,-1,383.255,387.256)" stroke-width="2.98883" stroke-linecap="butt" stroke-miterlimit="10" stroke-linejoin="miter" fill="none" stroke="#000000" d="M656.54446 98.61646 697.3938 156.97536 685.2333 174.34845 647.50228 120.44489 561.8304 135.56339 576.9489 49.89154 447.31336-40.84933 459.6921-110.9952 389.54624-98.61646 348.6969-156.97536 360.85746-174.34845 398.58845-120.44489 484.26029-135.56339 469.14179-49.89154 598.77737 40.84933 586.39859 110.9952Z"/>
<path transform="matrix(1,0,0,-1,383.255,387.256)" d="M307.84757-250.08043 348.6969-191.72153 336.53636-174.34845 298.80534-228.252 213.1335-213.1335 228.252-298.80534 174.34845-336.53636 120.44489-298.80534 135.56339-213.1335 49.89154-228.252-40.84933-98.61646-110.9952-110.9952-98.61646-40.84933-156.97536 0-174.34845-12.16054-120.44489-49.89154-135.56339-135.56339-49.89154-120.44489 40.84933-250.08043 110.9952-237.70169 98.61646-307.84757 174.34845-360.85746 250.08043-307.84757 237.70169-237.70169Z" fill="#ffffff"/>
<path transform="matrix(1,0,0,-1,383.255,387.256)" stroke-width="2.98883" stroke-linecap="butt" stroke-miterlimit="10" stroke-linejoin="miter" fill="none" stroke="#000000" d="M307.84757-250.08043 348.6969-191.72153 336.53636-174.34845 298.80534-228.252 213.1335-213.1335 228.252-298.80534 174.34845-336.53636 120.44489-298.80534 135.56339-213.1335 49.89154-228.252-40.84933-98.61646-110.9952-110.9952-98.61646-40.84933-156.97536 0-174.34845-12.16054-120.44489-49.89154-135.56339-135.56339-49.89154-120.44489 40.84933-250.08043 110.9952-237.70169 98.61646-307.84757 174.34845-360.85746 250.08043-307.84757 237.70169-237.70169Z"/>
<path transform="matrix(1,0,0,-1,383.255,387.256)" d="M-250.08043 40.84933-191.72153 0-174.34845 12.16054-228.252 49.89154-213.1335 135.56339-298.80534 120.44489-340.5354 180.06108-356.8584 168.6358-307.84757 98.61646-237.70169 110.9952Z" fill="#ffffff"/>
<path transform="matrix(1,0,0,-1,383.255,387.256)" stroke-width="2.98883" stroke-linecap="butt" stroke-miterlimit="10" stroke-linejoin="miter" fill="none" stroke="#000000" d="M-250.08043 40.84933-191.72153 0-174.34845 12.16054-228.252 49.89154-213.1335 135.56339-298.80534 120.44489-340.5354 180.06108-356.8584 168.6358-307.84757 98.61646-237.70169 110.9952Z"/>
<path transform="matrix(1,0,0,-1,383.255,387.256)" d="M-120.44489-298.80534-180.06108-340.5354-168.6358-356.8584-98.61646-307.84757-110.9952-237.70169-40.84933-250.08043 0-191.72153-12.16054-174.34845-49.89154-228.252-135.56339-213.1335Z" fill="#029386"/>
<path transform="matrix(1,0,0,-1,383.255,387.256)" stroke-width="2.98883" stroke-linecap="butt" stroke-miterlimit="10" stroke-linejoin="miter" fill="none" stroke="#000000" d="M-120.44489-298.80534-180.06108-340.5354-168.6358-356.8584-98.61646-307.84757-110.9952-237.70169-40.84933-250.08043 0-191.72153-12.16054-174.34845-49.89154-228.252-135.56339-213.1335Z"/>
<path transform="matrix(1,0,0,-1,383.255,387.256)" d="M40.84933-98.61646 0-156.97536 12.16054-174.34845 49.89154-120.44489 135.56339-135.56339 120.44489-49.89154 250.08043 40.84933 237.70169 110.9952 307.84757 98.61646 348.6969 156.97536 336.53636 174.34845 298.80534 120.44489 213.1335 135.56339 228.252 49.89154 98.61646-40.84933 110.9952-110.9952Z" fill="#029386"/>
<path transform="matrix(1,0,0,-1,383.255,387.256)" stroke-width="2.98883" stroke-linecap="butt" stroke-miterlimit="10" stroke-linejoin="miter" fill="none" stroke="#000000" d="M40.84933-98.61646 0-156.97536 12.16054-174.34845 49.89154-120.44489 135.56339-135.56339 120.44489-49.89154 250.08043 40.84933 237.70169 110.9952 307.84757 98.61646 348.6969 156.97536 336.53636 174.34845 298.80534 120.44489 213.1335 135.56339 228.252 49.89154 98.61646-40.84933 110.9952-110.9952Z"/>
<path transform="matrix(1,0,0,-1,383.255,387.256)" d="M389.54624 250.08043 348.6969 191.72153 360.85746 174.34845 398.58845 228.252 484.26029 213.1335 469.14179 298.80534 523.04537 336.53636 576.9489 298.80534 561.8304 213.1335 647.50228 228.252 738.2431 98.61646 808.389 110.9952 796.01028 40.84933 854.36917 0 871.74227 12.16054 817.8387 49.89154 832.95718 135.56339 747.28536 120.44489 656.54446 250.08043 586.39859 237.70169 598.77737 307.84757 523.04537 360.85746 447.31336 307.84757 459.6921 237.70169Z" fill="#029386"/>
<path transform="matrix(1,0,0,-1,383.255,387.256)" stroke-width="2.98883" stroke-linecap="butt" stroke-miterlimit="10" stroke-linejoin="miter" fill="none" stroke="#000000" d="M389.54624 250.08043 348.6969 191.72153 360.85746 174.34845 398.58845 228.252 484.26029 213.1335 469.14179 298.80534 523.04537 336.53636 576.9489 298.80534 561.8304 213.1335 647.50228 228.252 738.2431 98.61646 808.389 110.9952 796.01028 40.84933 854.36917 0 871.74227 12.16054 817.8387 49.89154 832.95718 135.56339 747.28536 120.44489 656.54446 250.08043 586.39859 237.70169 598.77737 307.84757 523.04537 360.85746 447.31336 307.84757 459.6921 237.70169Z"/>
<path transform="matrix(1,0,0,-1,383.255,387.256)" d="M947.47427-40.84933 889.11538 0 871.74227-12.16054 925.6458-49.89154 910.5273-135.56339 996.19918-120.44489 1086.9401-250.08043 1157.0859-237.70169 1144.7072-307.84757 1220.4392-360.85746 1296.1712-307.84757 1283.7924-237.70169 1353.9382-250.08043 1394.7876-191.72153 1382.6271-174.34845 1344.896-228.252 1259.2243-213.1335 1274.3427-298.80534 1220.4392-336.53636 1166.5355-298.80534 1181.654-213.1335 1095.9823-228.252 1005.24136-98.61646 935.0955-110.9952Z" fill="#029386"/>
<path transform="matrix(1,0,0,-1,383.255,387.256)" stroke-width="2.98883" stroke-linecap="butt" stroke-miterlimit="10" stroke-linejoin="miter" fill="none" stroke="#000000" d="M947.47427-40.84933 889.11538 0 871.74227-12.16054 925.6458-49.89154 910.5273-135.56339 996.19918-120.44489 1086.9401-250.08043 1157.0859-237.70169 1144.7072-307.84757 1220.4392-360.85746 1296.1712-307.84757 1283.7924-237.70169 1353.9382-250.08043 1394.7876-191.72153 1382.6271-174.34845 1344.896-228.252 1259.2243-213.1335 1274.3427-298.80534 1220.4392-336.53636 1166.5355-298.80534 1181.654-213.1335 1095.9823-228.252 1005.24136-98.61646 935.0955-110.9952Z"/>
<path transform="matrix(1,0,0,-1,383.255,387.256)" d="M1435.637-98.61646 1394.7876-156.97536 1406.9481-174.34845 1444.6792-120.44489 1530.351-135.56339 1515.2324-49.89154 1644.868 40.84933 1632.4893 110.9952 1702.6351 98.61646 1743.4845 156.97536 1731.324 174.34845 1693.5929 120.44489 1607.9212 135.56339 1623.0396 49.89154 1493.404-40.84933 1505.7828-110.9952Z" fill="#029386"/>
<path transform="matrix(1,0,0,-1,383.255,387.256)" stroke-width="2.98883" stroke-linecap="butt" stroke-miterlimit="10" stroke-linejoin="miter" fill="none" stroke="#000000" d="M1435.637-98.61646 1394.7876-156.97536 1406.9481-174.34845 1444.6792-120.44489 1530.351-135.56339 1515.2324-49.89154 1644.868 40.84933 1632.4893 110.9952 1702.6351 98.61646 1743.4845 156.97536 1731.324 174.34845 1693.5929 120.44489 1607.9212 135.56339 1623.0396 49.89154 1493.404-40.84933 1505.7828-110.9952Z"/>
<path transform="matrix(1,0,0,-1,383.255,387.256)" d="M1784.3339 250.08043 1743.4845 191.72153 1755.645 174.34845 1793.3761 228.252 1879.0479 213.1335 1863.9293 298.80534 1917.833 336.53636 1971.7365 298.80534 1956.618 213.1335 2042.2898 228.252 2133.0308 98.61646 2203.1766 110.9952 2190.7979 40.84933 2249.1568 0 2266.5299 12.16054 2212.6263 49.89154 2227.7449 135.56339 2142.073 120.44489 2051.332 250.08043 1981.1862 237.70169 1993.565 307.84757 1917.833 360.85746 1842.101 307.84757 1854.4797 237.70169Z" fill="#029386"/>
<path transform="matrix(1,0,0,-1,383.255,387.256)" stroke-width="2.98883" stroke-linecap="butt" stroke-miterlimit="10" stroke-linejoin="miter" fill="none" stroke="#000000" d="M1784.3339 250.08043 1743.4845 191.72153 1755.645 174.34845 1793.3761 228.252 1879.0479 213.1335 1863.9293 298.80534 1917.833 336.53636 1971.7365 298.80534 1956.618 213.1335 2042.2898 228.252 2133.0308 98.61646 2203.1766 110.9952 2190.7979 40.84933 2249.1568 0 2266.5299 12.16054 2212.6263 49.89154 2227.7449 135.56339 2142.073 120.44489 2051.332 250.08043 1981.1862 237.70169 1993.565 307.84757 1917.833 360.85746 1842.101 307.84757 1854.4797 237.70169Z"/>
<path transform="matrix(1,0,0,-1,383.255,387.256)" d="M2342.2618-40.84933 2283.9029 0 2266.5299-12.16054 2320.4334-49.89154 2305.315-135.56339 2390.9869-120.44489 2432.7169-180.06108 2449.0399-168.6358 2400.029-98.61646 2329.883-110.9952Z" fill="#029386"/>
<path transform="matrix(1,0,0,-1,383.255,387.256)" stroke-width="2.98883" stroke-linecap="butt" stroke-miterlimit="10" stroke-linejoin="miter" fill="none" stroke="#000000" d="M2342.2618-40.84933 2283.9029 0 2266.5299-12.16054 2320.4334-49.89154 2305.315-135.56339 2390.9869-120.44489 2432.7169-180.06108 2449.0399-168.6358 2400.029-98.61646 2329.883-110.9952Z"/>
<path transform="matrix(1,0,0,-1,383.255,387.256)" d="M-307.84757-98.61646-356.8584-168.6358-340.5354-180.06108-298.80534-120.44489-213.1335-135.56339-228.252-49.89154-98.61646 40.84933-110.9952 110.9952-40.84933 98.61646 0 156.97536-12.16054 174.34845-49.89154 120.44489-135.56339 135.56339-120.44489 49.89154-250.08043-40.84933-237.70169-110.9952Z" fill="#029386"/>
<path transform="matrix(1,0,0,-1,383.255,387.256)" stroke-width="2.98883" stroke-linecap="butt" stroke-miterlimit="10" stroke-linejoin="miter" fill="none" stroke="#000000" d="M-307.84757-98.61646-356.8584-168.6358-340.5354-180.06108-298.80534-120.44489-213.1335-135.56339-228.252-49.89154-98.61646 40.84933-110.9952 110.9952-40.84933 98.61646 0 156.97536-12.16054 174.34845-49.89154 120.44489-135.56339 135.56339-120.44489 49.89154-250.08043-40.84933-237.70169-110.9952Z"/>
<path transform="matrix(1,0,0,-1,383.255,387.256)" d="M40.84933 250.08043 0 191.72153 12.16054 174.34845 49.89154 228.252 135.56339 213.1335 120.44489 298.80534 174.34845 336.53636 228.252 298.80534 213.1335 213.1335 298.80534 228.252 389.54624 98.61646 459.6921 110.9952 447.31336 40.84933 505.67228 0 523.04537 12.16054 469.14179 49.89154 484.26029 135.56339 398.58845 120.44489 307.84757 250.08043 237.70169 237.70169 250.08043 307.84757 174.34845 360.85746 98.61646 307.84757 110.9952 237.70169Z" fill="#029386"/>
<path transform="matrix(1,0,0,-1,383.255,387.256)" stroke-width="2.98883" stroke-linecap="butt" stroke-miterlimit="10" stroke-linejoin="miter" fill="none" stroke="#000000" d="M40.84933 250.08043 0 191.72153 12.16054 174.34845 49.89154 228.252 135.56339 213.1335 120.44489 298.80534 174.34845 336.53636 228.252 298.80534 213.1335 213.1335 298.80534 228.252 389.54624 98.61646 459.6921 110.9952 447.31336 40.84933 505.67228 0 523.04537 12.16054 469.14179 49.89154 484.26029 135.56339 398.58845 120.44489 307.84757 250.08043 237.70169 237.70169 250.08043 307.84757 174.34845 360.85746 98.61646 307.84757 110.9952 237.70169Z"/>
<path transform="matrix(1,0,0,-1,383.255,387.256)" d="M598.77737-40.84933 540.41848 0 523.04537-12.16054 576.9489-49.89154 561.8304-135.56339 647.50228-120.44489 738.2431-250.08043 808.389-237.70169 796.01028-307.84757 871.74227-360.85746 947.47427-307.84757 935.0955-237.70169 1005.24136-250.08043 1046.0907-191.72153 1033.9302-174.34845 996.19918-228.252 910.5273-213.1335 925.6458-298.80534 871.74227-336.53636 817.8387-298.80534 832.95718-213.1335 747.28536-228.252 656.54446-98.61646 586.39859-110.9952Z" fill="#029386"/>
<path transform="matrix(1,0,0,-1,383.255,387.256)" stroke-width="2.98883" stroke-linecap="butt" stroke-miterlimit="10" stroke-linejoin="miter" fill="none" stroke="#000000" d="M598.77737-40.84933 540.41848 0 523.04537-12.16054 576.9489-49.89154 561.8304-135.56339 647.50228-120.44489 738.2431-250.08043 808.389-237.70169 796.01028-307.84757 871.74227-360.85746 947.47427-307.84757 935.0955-237.70169 1005.24136-250.08043 1046.0907-191.72153 1033.9302-174.34845 996.19918-228.252 910.5273-213.1335 925.6458-298.80534 871.74227-336.53636 817.8387-298.80534 832.95718-213.1335 747.28536-228.252 656.54446-98.61646 586.39859-110.9952Z"/>
<path transform="matrix(1,0,0,-1,383.255,387.256)" d="M1086.9401-98.61646 1046.0907-156.97536 1058.2512-174.34845 1095.9823-120.44489 1181.654-135.56339 1166.5355-49.89154 1296.1712 40.84933 1283.7924 110.9952 1353.9382 98.61646 1394.7876 156.97536 1382.6271 174.34845 1344.896 120.44489 1259.2243 135.56339 1274.3427 49.89154 1144.7072-40.84933 1157.0859-110.9952Z" fill="#029386"/>
<path transform="matrix(1,0,0,-1,383.255,387.256)" stroke-width="2.98883" stroke-linecap="butt" stroke-miterlimit="10" stroke-linejoin="miter" fill="none" stroke="#000000" d="M1086.9401-98.61646 1046.0907-156.97536 1058.2512-174.34845 1095.9823-120.44489 1181.654-135.56339 1166.5355-49.89154 1296.1712 40.84933 1283.7924 110.9952 1353.9382 98.61646 1394.7876 156.97536 1382.6271 174.34845 1344.896 120.44489 1259.2243 135.56339 1274.3427 49.89154 1144.7072-40.84933 1157.0859-110.9952Z"/>
<path transform="matrix(1,0,0,-1,383.255,387.256)" d="M1435.637 250.08043 1394.7876 191.72153 1406.9481 174.34845 1444.6792 228.252 1530.351 213.1335 1515.2324 298.80534 1569.1361 336.53636 1623.0396 298.80534 1607.9212 213.1335 1693.5929 228.252 1784.3339 98.61646 1854.4797 110.9952 1842.101 40.84933 1900.4598 0 1917.833 12.16054 1863.9293 49.89154 1879.0479 135.56339 1793.3761 120.44489 1702.6351 250.08043 1632.4893 237.70169 1644.868 307.84757 1569.1361 360.85746 1493.404 307.84757 1505.7828 237.70169Z" fill="#029386"/>
<path transform="matrix(1,0,0,-1,383.255,387.256)" stroke-width="2.98883" stroke-linecap="butt" stroke-miterlimit="10" stroke-linejoin="miter" fill="none" stroke="#000000" d="M1435.637 250.08043 1394.7876 191.72153 1406.9481 174.34845 1444.6792 228.252 1530.351 213.1335 1515.2324 298.80534 1569.1361 336.53636 1623.0396 298.80534 1607.9212 213.1335 1693.5929 228.252 1784.3339 98.61646 1854.4797 110.9952 1842.101 40.84933 1900.4598 0 1917.833 12.16054 1863.9293 49.89154 1879.0479 135.56339 1793.3761 120.44489 1702.6351 250.08043 1632.4893 237.70169 1644.868 307.84757 1569.1361 360.85746 1493.404 307.84757 1505.7828 237.70169Z"/>
<path transform="matrix(1,0,0,-1,383.255,387.256)" d="M1993.565-40.84933 1935.206 0 1917.833-12.16054 1971.7365-49.89154 1956.618-135.56339 2042.2898-120.44489 2133.0308-250.08043 2203.1766-237.70169 2190.7979-307.84757 2260.8172-356.8584 2272.2425-340.5354 2212.6263-298.80534 2227.7449-213.1335 2142.073-228.252 2051.332-98.61646 1981.1862-110.9952Z" fill="#029386"/>
<path transform="matrix(1,0,0,-1,383.255,387.256)" stroke-width="2.98883" stroke-linecap="butt" stroke-miterlimit="10" stroke-linejoin="miter" fill="none" stroke="#000000" d="M1993.565-40.84933 1935.206 0 1917.833-12.16054 1971.7365-49.89154 1956.618-135.56339 2042.2898-120.44489 2133.0308-250.08043 2203.1766-237.70169 2190.7979-307.84757 2260.8172-356.8584 2272.2425-340.5354 2212.6263-298.80534 2227.7449-213.1335 2142.073-228.252 2051.332-98.61646 1981.1862-110.9952Z"/>
<path transform="matrix(1,0,0,-1,383.255,387.256)" d="M2400.029 98.61646 2449.0399 168.6358 2432.7169 180.06108 2390.9869 120.44489 2305.315 135.56339 2320.4334 49.89154 2190.7979-40.84933 2203.1766-110.9952 2133.0308-98.61646 2092.1815-156.97536 2104.342-174.34845 2142.073-120.44489 2227.7449-135.56339 2212.6263-49.89154 2342.2618 40.84933 2329.883 110.9952Z" fill="#029386"/>
<path transform="matrix(1,0,0,-1,383.255,387.256)" stroke-width="2.98883" stroke-linecap="butt" stroke-miterlimit="10" stroke-linejoin="miter" fill="none" stroke="#000000" d="M2400.029 98.61646 2449.0399 168.6358 2432.7169 180.06108 2390.9869 120.44489 2305.315 135.56339 2320.4334 49.89154 2190.7979-40.84933 2203.1766-110.9952 2133.0308-98.61646 2092.1815-156.97536 2104.342-174.34845 2142.073-120.44489 2227.7449-135.56339 2212.6263-49.89154 2342.2618 40.84933 2329.883 110.9952Z"/>
<path transform="matrix(1,0,0,-1,383.255,387.256)" d="M2051.332-250.08043 2092.1815-191.72153 2080.0208-174.34845 2042.2898-228.252 1956.618-213.1335 1971.7365-298.80534 1917.833-336.53636 1863.9293-298.80534 1879.0479-213.1335 1793.3761-228.252 1702.6351-98.61646 1632.4893-110.9952 1644.868-40.84933 1586.5092 0 1569.1361-12.16054 1623.0396-49.89154 1607.9212-135.56339 1693.5929-120.44489 1784.3339-250.08043 1854.4797-237.70169 1842.101-307.84757 1917.833-360.85746 1993.565-307.84757 1981.1862-237.70169Z" fill="#029386"/>
<path transform="matrix(1,0,0,-1,383.255,387.256)" stroke-width="2.98883" stroke-linecap="butt" stroke-miterlimit="10" stroke-linejoin="miter" fill="none" stroke="#000000" d="M2051.332-250.08043 2092.1815-191.72153 2080.0208-174.34845 2042.2898-228.252 1956.618-213.1335 1971.7365-298.80534 1917.833-336.53636 1863.9293-298.80534 1879.0479-213.1335 1793.3761-228.252 1702.6351-98.61646 1632.4893-110.9952 1644.868-40.84933 1586.5092 0 1569.1361-12.16054 1623.0396-49.89154 1607.9212-135.56339 1693.5929-120.44489 1784.3339-250.08043 1854.4797-237.70169 1842.101-307.84757 1917.833-360.85746 1993.565-307.84757 1981.1862-237.70169Z"/>
<path transform="matrix(1,0,0,-1,383.255,387.256)" d="M1493.404 40.84933 1551.763 0 1569.1361 12.16054 1515.2324 49.89154 1530.351 135.56339 1444.6792 120.44489 1353.9382 250.08043 1283.7924 237.70169 1296.1712 307.84757 1220.4392 360.85746 1144.7072 307.84757 1157.0859 237.70169 1086.9401 250.08043 1046.0907 191.72153 1058.2512 174.34845 1095.9823 228.252 1181.654 213.1335 1166.5355 298.80534 1220.4392 336.53636 1274.3427 298.80534 1259.2243 213.1335 1344.896 228.252 1435.637 98.61646 1505.7828 110.9952Z" fill="#029386"/>
<path transform="matrix(1,0,0,-1,383.255,387.256)" stroke-width="2.98883" stroke-linecap="butt" stroke-miterlimit="10" stroke-linejoin="miter" fill="none" stroke="#000000" d="M1493.404 40.84933 1551.763 0 1569.1361 12.16054 1515.2324 49.89154 1530.351 135.56339 1444.6792 120.44489 1353.9382 250.08043 1283.7924 237.70169 1296.1712 307.84757 1220.4392 360.85746 1144.7072 307.84757 1157.0859 237.70169 1086.9401 250.08043 1046.0907 191.72153 1058.2512 174.34845 1095.9823 228.252 1181.654 213.1335 1166.5355 298.80534 1220.4392 336.53636 1274.3427 298.80534 1259.2243 213.1335 1344.896 228.252 1435.637 98.61646 1505.7828 110.9952Z"/>
<path transform="matrix(1,0,0,-1,383.255,387.256)" d="M1005.24136 98.61646 1046.0907 156.97536 1033.9302 174.34845 996.19918 120.44489 910.5273 135.56339 925.6458 49.89154 796.01028-40.84933 808.389-110.9952 738.2431-98.61646 697.3938-156.97536 709.5543-174.34845 747.28536-120.44489 832.95718-135.56339 817.8387-49.89154 947.47427 40.84933 935.0955 110.9952Z" fill="#029386"/>
<path transform="matrix(1,0,0,-1,383.255,387.256)" stroke-width="2.98883" stroke-linecap="butt" stroke-miterlimit="10" stroke-linejoin="miter" fill="none" stroke="#000000" d="M1005.24136 98.61646 1046.0907 156.97536 1033.9302 174.34845 996.19918 120.44489 910.5273 135.56339 925.6458 49.89154 796.01028-40.84933 808.389-110.9952 738.2431-98.61646 697.3938-156.97536 709.5543-174.34845 747.28536-120.44489 832.95718-135.56339 817.8387-49.89154 947.47427 40.84933 935.0955 110.9952Z"/>
<path transform="matrix(1,0,0,-1,383.255,387.256)" d="M656.54446-250.08043 697.3938-191.72153 685.2333-174.34845 647.50228-228.252 561.8304-213.1335 576.9489-298.80534 523.04537-336.53636 469.14179-298.80534 484.26029-213.1335 398.58845-228.252 307.84757-98.61646 237.70169-110.9952 250.08043-40.84933 191.72153 0 174.34845-12.16054 228.252-49.89154 213.1335-135.56339 298.80534-120.44489 389.54624-250.08043 459.6921-237.70169 447.31336-307.84757 523.04537-360.85746 598.77737-307.84757 586.39859-237.70169Z" fill="#029386"/>
<path transform="matrix(1,0,0,-1,383.255,387.256)" stroke-width="2.98883" stroke-linecap="butt" stroke-miterlimit="10" stroke-linejoin="miter" fill="none" stroke="#000000" d="M656.54446-250.08043 697.3938-191.72153 685.2333-174.34845 647.50228-228.252 561.8304-213.1335 576.9489-298.80534 523.04537-336.53636 469.14179-298.80534 484.26029-213.1335 398.58845-228.252 307.84757-98.61646 237.70169-110.9952 250.08043-40.84933 191.72153 0 174.34845-12.16054 228.252-49.89154 213.1335-135.56339 298.80534-120.44489 389.54624-250.08043 459.6921-237.70169 447.31336-307.84757 523.04537-360.85746 598.77737-307.84757 586.39859-237.70169Z"/>
<path transform="matrix(1,0,0,-1,383.255,387.256)" d="M98.61646 40.84933 156.97536 0 174.34845 12.16054 120.44489 49.89154 135.56339 135.56339 49.89154 120.44489-40.84933 250.08043-110.9952 237.70169-98.61646 307.84757-168.6358 356.8584-180.06108 340.5354-120.44489 298.80534-135.56339 213.1335-49.89154 228.252 40.84933 98.61646 110.9952 110.9952Z" fill="#029386"/>
<path transform="matrix(1,0,0,-1,383.255,387.256)" stroke-width="2.98883" stroke-linecap="butt" stroke-miterlimit="10" stroke-linejoin="miter" fill="none" stroke="#000000" d="M98.61646 40.84933 156.97536 0 174.34845 12.16054 120.44489 49.89154 135.56339 135.56339 49.89154 120.44489-40.84933 250.08043-110.9952 237.70169-98.61646 307.84757-168.6358 356.8584-180.06108 340.5354-120.44489 298.80534-135.56339 213.1335-49.89154 228.252 40.84933 98.61646 110.9952 110.9952Z"/>
<path transform="matrix(1,0,0,-1,383.255,387.256)" d="M2212.6263 298.80534 2272.2425 340.5354 2260.8172 356.8584 2190.7979 307.84757 2203.1766 237.70169 2133.0308 250.08043 2092.1815 191.72153 2104.342 174.34845 2142.073 228.252 2227.7449 213.1335Z" fill="#029386"/>
<path transform="matrix(1,0,0,-1,383.255,387.256)" stroke-width="2.98883" stroke-linecap="butt" stroke-miterlimit="10" stroke-linejoin="miter" fill="none" stroke="#000000" d="M2212.6263 298.80534 2272.2425 340.5354 2260.8172 356.8584 2190.7979 307.84757 2203.1766 237.70169 2133.0308 250.08043 2092.1815 191.72153 2104.342 174.34845 2142.073 228.252 2227.7449 213.1335Z"/>
<path transform="matrix(1,0,0,-1,383.255,387.256)" d="M2051.332 98.61646 2092.1815 156.97536 2080.0208 174.34845 2042.2898 120.44489 1956.618 135.56339 1971.7365 49.89154 1842.101-40.84933 1854.4797-110.9952 1784.3339-98.61646 1743.4845-156.97536 1755.645-174.34845 1793.3761-120.44489 1879.0479-135.56339 1863.9293-49.89154 1993.565 40.84933 1981.1862 110.9952Z" fill="#029386"/>
<path transform="matrix(1,0,0,-1,383.255,387.256)" stroke-width="2.98883" stroke-linecap="butt" stroke-miterlimit="10" stroke-linejoin="miter" fill="none" stroke="#000000" d="M2051.332 98.61646 2092.1815 156.97536 2080.0208 174.34845 2042.2898 120.44489 1956.618 135.56339 1971.7365 49.89154 1842.101-40.84933 1854.4797-110.9952 1784.3339-98.61646 1743.4845-156.97536 1755.645-174.34845 1793.3761-120.44489 1879.0479-135.56339 1863.9293-49.89154 1993.565 40.84933 1981.1862 110.9952Z"/>
<path transform="matrix(1,0,0,-1,383.255,387.256)" d="M1702.6351-250.08043 1743.4845-191.72153 1731.324-174.34845 1693.5929-228.252 1607.9212-213.1335 1623.0396-298.80534 1569.1361-336.53636 1515.2324-298.80534 1530.351-213.1335 1444.6792-228.252 1353.9382-98.61646 1283.7924-110.9952 1296.1712-40.84933 1237.8123 0 1220.4392-12.16054 1274.3427-49.89154 1259.2243-135.56339 1344.896-120.44489 1435.637-250.08043 1505.7828-237.70169 1493.404-307.84757 1569.1361-360.85746 1644.868-307.84757 1632.4893-237.70169Z" fill="#029386"/>
<path transform="matrix(1,0,0,-1,383.255,387.256)" stroke-width="2.98883" stroke-linecap="butt" stroke-miterlimit="10" stroke-linejoin="miter" fill="none" stroke="#000000" d="M1702.6351-250.08043 1743.4845-191.72153 1731.324-174.34845 1693.5929-228.252 1607.9212-213.1335 1623.0396-298.80534 1569.1361-336.53636 1515.2324-298.80534 1530.351-213.1335 1444.6792-228.252 1353.9382-98.61646 1283.7924-110.9952 1296.1712-40.84933 1237.8123 0 1220.4392-12.16054 1274.3427-49.89154 1259.2243-135.56339 1344.896-120.44489 1435.637-250.08043 1505.7828-237.70169 1493.404-307.84757 1569.1361-360.85746 1644.868-307.84757 1632.4893-237.70169Z"/>
<path transform="matrix(1,0,0,-1,383.255,387.256)" d="M1144.7072 40.84933 1203.066 0 1220.4392 12.16054 1166.5355 49.89154 1181.654 135.56339 1095.9823 120.44489 1005.24136 250.08043 935.0955 237.70169 947.47427 307.84757 871.74227 360.85746 796.01028 307.84757 808.389 237.70169 738.2431 250.08043 697.3938 191.72153 709.5543 174.34845 747.28536 228.252 832.95718 213.1335 817.8387 298.80534 871.74227 336.53636 925.6458 298.80534 910.5273 213.1335 996.19918 228.252 1086.9401 98.61646 1157.0859 110.9952Z" fill="#029386"/>
<path transform="matrix(1,0,0,-1,383.255,387.256)" stroke-width="2.98883" stroke-linecap="butt" stroke-miterlimit="10" stroke-linejoin="miter" fill="none" stroke="#000000" d="M1144.7072 40.84933 1203.066 0 1220.4392 12.16054 1166.5355 49.89154 1181.654 135.56339 1095.9823 120.44489 1005.24136 250.08043 935.0955 237.70169 947.47427 307.84757 871.74227 360.85746 796.01028 307.84757 808.389 237.70169 738.2431 250.08043 697.3938 191.72153 709.5543 174.34845 747.28536 228.252 832.95718 213.1335 817.8387 298.80534 871.74227 336.53636 925.6458 298.80534 910.5273 213.1335 996.19918 228.252 1086.9401 98.61646 1157.0859 110.9952Z"/>
<path transform="matrix(1,0,0,-1,383.255,387.256)" d="M656.54446 98.61646 697.3938 156.97536 685.2333 174.34845 647.50228 120.44489 561.8304 135.56339 576.9489 49.89154 447.31336-40.84933 459.6921-110.9952 389.54624-98.61646 348.6969-156.97536 360.85746-174.34845 398.58845-120.44489 484.26029-135.56339 469.14179-49.89154 598.77737 40.84933 586.39859 110.9952Z" fill="#029386"/>
<path transform="matrix(1,0,0,-1,383.255,387.256)" stroke-width="2.98883" stroke-linecap="butt" stroke-miterlimit="10" stroke-linejoin="miter" fill="none" stroke="#000000" d="M656.54446 98.61646 697.3938 156.97536 685.2333 174.34845 647.50228 120.44489 561.8304 135.56339 576.9489 49.89154 447.31336-40.84933 459.6921-110.9952 389.54624-98.61646 348.6969-156.97536 360.85746-174.34845 398.58845-120.44489 484.26029-135.56339 469.14179-49.89154 598.77737 40.84933 586.39859 110.9952Z"/>
<path transform="matrix(1,0,0,-1,383.255,387.256)" d="M307.84757-250.08043 348.6969-191.72153 336.53636-174.34845 298.80534-228.252 213.1335-213.1335 228.252-298.80534 174.34845-336.53636 120.44489-298.80534 135.56339-213.1335 49.89154-228.252-40.84933-98.61646-110.9952-110.9952-98.61646-40.84933-156.97536 0-174.34845-12.16054-120.44489-49.89154-135.56339-135.56339-49.89154-120.44489 40.84933-250.08043 110.9952-237.70169 98.61646-307.84757 174.34845-360.85746 250.08043-307.84757 237.70169-237.70169Z" fill="#029386"/>
<path transform="matrix(1,0,0,-1,383.255,387.256)" stroke-width="2.98883" stroke-linecap="butt" stroke-miterlimit="10" stroke-linejoin="miter" fill="none" stroke="#000000" d="M307.84757-250.08043 348.6969-191.72153 336.53636-174.34845 298.80534-228.252 213.1335-213.1335 228.252-298.80534 174.34845-336.53636 120.44489-298.80534 135.56339-213.1335 49.89154-228.252-40.84933-98.61646-110.9952-110.9952-98.61646-40.84933-156.97536 0-174.34845-12.16054-120.44489-49.89154-135.56339-135.56339-49.89154-120.44489 40.84933-250.08043 110.9952-237.70169 98.61646-307.84757 174.34845-360.85746 250.08043-307.84757 237.70169-237.70169Z"/>
<path transform="matrix(1,0,0,-1,383.255,387.256)" d="M-250.08043 40.84933-191.72153 0-174.34845 12.16054-228.252 49.89154-213.1335 135.56339-298.80534 120.44489-340.5354 180.06108-356.8584 168.6358-307.84757 98.61646-237.70169 110.9952Z" fill="#029386"/>
<path transform="matrix(1,0,0,-1,383.255,387.256)" stroke-width="2.98883" stroke-linecap="butt" stroke-miterlimit="10" stroke-linejoin="miter" fill="none" stroke="#000000" d="M-250.08043 40.84933-191.72153 0-174.34845 12.16054-228.252 49.89154-213.1335 135.56339-298.80534 120.44489-340.5354 180.06108-356.8584 168.6358-307.84757 98.61646-237.70169 110.9952Z"/>
</svg>
