<svg xmlns="http://www.w3.org/2000/svg" xmlns:xlink="http://www.w3.org/1999/xlink" xmlns:inkscape="http://www.inkscape.org/namespaces/inkscape" version="1.1" width="1584.06" height="687.42" viewBox="0 0 1584.06 687.42">
<path transform="matrix(1,0,0,-1,94.645008,343.70899)" stroke-width="39.85107" stroke-linecap="butt" stroke-miterlimit="10" stroke-linejoin="miter" fill="none" stroke="#029386" d="M0-139.47876V199.25537"/>
<path transform="matrix(1,0,0,-1,94.645008,343.70899)" stroke-width="39.85107" stroke-linecap="butt" stroke-miterlimit="10" stroke-linejoin="miter" fill="none" stroke="#029386" d="M69.73938 139.47876V-199.25537"/>
<path transform="matrix(1,0,0,-1,94.645008,343.70899)" stroke-width="39.85107" stroke-linecap="butt" stroke-miterlimit="10" stroke-linejoin="miter" fill="none" stroke="#029386" d="M139.47876-139.47876V199.25537"/>
<path transform="matrix(1,0,0,-1,94.645008,343.70899)" stroke-width="39.85107" stroke-linecap="butt" stroke-miterlimit="10" stroke-linejoin="miter" fill="none" stroke="#029386" d="M209.21814 139.47876V-199.25537"/>
<path transform="matrix(1,0,0,-1,94.645008,343.70899)" stroke-width="39.85107" stroke-linecap="butt" stroke-miterlimit="10" stroke-linejoin="miter" fill="none" stroke="#029386" d="M278.95753-139.47876V199.25537"/>
<path transform="matrix(1,0,0,-1,94.645008,343.70899)" stroke-width="39.85107" stroke-linecap="butt" stroke-miterlimit="10" stroke-linejoin="miter" fill="none" stroke="#029386" d="M348.6969 139.47876V-199.25537"/>
<path transform="matrix(1,0,0,-1,94.645008,343.70899)" stroke-width="39.85107" stroke-linecap="butt" stroke-miterlimit="10" stroke-linejoin="miter" fill="none" stroke="#029386" d="M418.43629-139.47876V199.25537"/>
<path transform="matrix(1,0,0,-1,94.645008,343.70899)" stroke-width="39.85107" stroke-linecap="butt" stroke-miterlimit="10" stroke-linejoin="miter" fill="none" stroke="#029386" d="M488.17567 139.47876V-199.25537"/>
<path transform="matrix(1,0,0,-1,94.645008,343.70899)" stroke-width="39.85107" stroke-linecap="butt" stroke-miterlimit="10" stroke-linejoin="miter" fill="none" stroke="#029386" d="M557.91506-139.47876V199.25537"/>
<path transform="matrix(1,0,0,-1,94.645008,343.70899)" stroke-width="39.85107" stroke-linecap="butt" stroke-miterlimit="10" stroke-linejoin="miter" fill="none" stroke="#029386" d="M627.6544 139.47876V-199.25537"/>
<path transform="matrix(1,0,0,-1,94.645008,343.70899)" stroke-width="39.85107" stroke-linecap="butt" stroke-miterlimit="10" stroke-linejoin="miter" fill="none" stroke="#029386" d="M697.3938-139.47876V199.25537"/>
<path transform="matrix(1,0,0,-1,94.645008,343.70899)" stroke-width="39.85107" stroke-linecap="butt" stroke-miterlimit="10" stroke-linejoin="miter" fill="none" stroke="#029386" d="M767.1332 139.47876V-199.25537"/>
<path transform="matrix(1,0,0,-1,94.645008,343.70899)" stroke-width="39.85107" stroke-linecap="butt" stroke-miterlimit="10" stroke-linejoin="miter" fill="none" stroke="#029386" d="M836.87258-139.47876V199.25537"/>
<path transform="matrix(1,0,0,-1,94.645008,343.70899)" stroke-width="39.85107" stroke-linecap="butt" stroke-miterlimit="10" stroke-linejoin="miter" fill="none" stroke="#029386" d="M906.61196 139.47876V-199.25537"/>
<path transform="matrix(1,0,0,-1,94.645008,343.70899)" stroke-width="39.85107" stroke-linecap="butt" stroke-miterlimit="10" stroke-linejoin="miter" fill="none" stroke="#029386" d="M976.3513-139.47876V199.25537"/>
<path transform="matrix(1,0,0,-1,94.645008,343.70899)" stroke-width="39.85107" stroke-linecap="butt" stroke-miterlimit="10" stroke-linejoin="miter" fill="none" stroke="#029386" d="M1046.0907 139.47876V-199.25537"/>
<path transform="matrix(1,0,0,-1,94.645008,343.70899)" stroke-width="39.85107" stroke-linecap="butt" stroke-miterlimit="10" stroke-linejoin="miter" fill="none" stroke="#029386" d="M1115.8301-139.47876V199.25537"/>
<path transform="matrix(1,0,0,-1,94.645008,343.70899)" stroke-width="39.85107" stroke-linecap="butt" stroke-miterlimit="10" stroke-linejoin="miter" fill="none" stroke="#029386" d="M1185.5695 139.47876V-199.25537"/>
<path transform="matrix(1,0,0,-1,94.645008,343.70899)" stroke-width="39.85107" stroke-linecap="butt" stroke-miterlimit="10" stroke-linejoin="miter" fill="none" stroke="#029386" d="M1255.3088-139.47876V199.25537"/>
<path transform="matrix(1,0,0,-1,94.645008,343.70899)" stroke-width="39.85107" stroke-linecap="butt" stroke-miterlimit="10" stroke-linejoin="miter" fill="none" stroke="#029386" d="M1325.0482 139.47876V-199.25537"/>
<path transform="matrix(1,0,0,-1,94.645008,343.70899)" stroke-width="39.85107" stroke-linecap="butt" stroke-miterlimit="10" stroke-linejoin="miter" fill="none" stroke="#029386" d="M1394.7876-139.47876V199.25537"/>
<path transform="matrix(1,0,0,-1,94.645008,343.70899)" stroke-width="39.85107" stroke-linecap="butt" stroke-miterlimit="10" stroke-linejoin="miter" fill="none" stroke="#029386" d="M-49.81384-199.25537H1444.6015"/>
<path transform="matrix(1,0,0,-1,94.645008,343.70899)" stroke-width="39.85107" stroke-linecap="butt" stroke-miterlimit="10" stroke-linejoin="miter" fill="none" stroke="#029386" d="M-49.81384-249.06922H1444.6015"/>
<path transform="matrix(1,0,0,-1,94.645008,343.70899)" stroke-width="39.85107" stroke-linecap="butt" stroke-miterlimit="10" stroke-linejoin="miter" fill="none" stroke="#029386" d="M-49.81384-298.88307H1444.6015"/>
<path transform="matrix(1,0,0,-1,94.645008,343.70899)" stroke-width="39.85107" stroke-linecap="butt" stroke-miterlimit="10" stroke-linejoin="miter" fill="none" stroke="#029386" d="M-49.81384 199.25537H1444.6015"/>
<path transform="matrix(1,0,0,-1,94.645008,343.70899)" stroke-width="39.85107" stroke-linecap="butt" stroke-miterlimit="10" stroke-linejoin="miter" fill="none" stroke="#029386" d="M-49.81384 249.06922H1444.6015"/>
<path transform="matrix(1,0,0,-1,94.645008,343.70899)" stroke-width="39.85107" stroke-linecap="butt" stroke-miterlimit="10" stroke-linejoin="miter" fill="none" stroke="#029386" d="M-49.81384 298.88307H1444.6015"/>
</svg>
