<svg xmlns="http://www.w3.org/2000/svg" xmlns:xlink="http://www.w3.org/1999/xlink" xmlns:inkscape="http://www.inkscape.org/namespaces/inkscape" version="1.1" width="374" height="330.62" viewBox="0 0 374 330.62">
<path transform="matrix(1,0,0,-1,74.919,262.375)" d="M236.61576 64.71016H186.80191L161.89499 21.57039H211.70883Z" fill="#4c4c4c"/>
<path transform="matrix(1,0,0,-1,74.919,262.375)" stroke-width=".3985" stroke-linecap="butt" stroke-miterlimit="10" stroke-linejoin="miter" fill="none" stroke="#000000" d="M236.61576 64.71016H186.80191L161.89499 21.57039H211.70883Z"/>
<path transform="matrix(1,0,0,-1,74.919,262.375)" d="M161.89499 21.57039 186.80191 64.71016 161.89499 107.84996 136.98807 64.71016Z" fill="#666666"/>
<path transform="matrix(1,0,0,-1,74.919,262.375)" stroke-width=".3985" stroke-linecap="butt" stroke-miterlimit="10" stroke-linejoin="miter" fill="none" stroke="#000000" d="M161.89499 21.57039 186.80191 64.71016 161.89499 107.84996 136.98807 64.71016Z"/>
<path transform="matrix(1,0,0,-1,74.919,262.375)" d="M161.89499 107.84996 186.80191 64.71016H236.61576L211.70883 107.84996Z" fill="#999999"/>
<path transform="matrix(1,0,0,-1,74.919,262.375)" stroke-width=".3985" stroke-linecap="butt" stroke-miterlimit="10" stroke-linejoin="miter" fill="none" stroke="#000000" d="M161.89499 107.84996 186.80191 64.71016H236.61576L211.70883 107.84996Z"/>
<path transform="matrix(1,0,0,-1,74.919,262.375)" d="M273.97615 0H224.1623L199.25537-43.13977H249.06922Z" fill="#4c4c4c"/>
<path transform="matrix(1,0,0,-1,74.919,262.375)" stroke-width=".3985" stroke-linecap="butt" stroke-miterlimit="10" stroke-linejoin="miter" fill="none" stroke="#000000" d="M273.97615 0H224.1623L199.25537-43.13977H249.06922Z"/>
<path transform="matrix(1,0,0,-1,74.919,262.375)" d="M199.25537-43.13977 224.1623 0 199.25537 43.13977 174.34845 0Z" fill="#666666"/>
<path transform="matrix(1,0,0,-1,74.919,262.375)" stroke-width=".3985" stroke-linecap="butt" stroke-miterlimit="10" stroke-linejoin="miter" fill="none" stroke="#000000" d="M199.25537-43.13977 224.1623 0 199.25537 43.13977 174.34845 0Z"/>
<path transform="matrix(1,0,0,-1,74.919,262.375)" d="M199.25537 43.13977 224.1623 0H273.97615L249.06922 43.13977Z" fill="#999999"/>
<path transform="matrix(1,0,0,-1,74.919,262.375)" stroke-width=".3985" stroke-linecap="butt" stroke-miterlimit="10" stroke-linejoin="miter" fill="none" stroke="#000000" d="M199.25537 43.13977 224.1623 0H273.97615L249.06922 43.13977Z"/>
<path transform="matrix(1,0,0,-1,74.919,262.375)" d="M199.25537 0H149.44153L124.5346-43.13977H174.34845Z" fill="#4c4c4c"/>
<path transform="matrix(1,0,0,-1,74.919,262.375)" stroke-width=".3985" stroke-linecap="butt" stroke-miterlimit="10" stroke-linejoin="miter" fill="none" stroke="#000000" d="M199.25537 0H149.44153L124.5346-43.13977H174.34845Z"/>
<path transform="matrix(1,0,0,-1,74.919,262.375)" d="M124.5346-43.13977 149.44153 0 124.5346 43.13977 99.62769 0Z" fill="#666666"/>
<path transform="matrix(1,0,0,-1,74.919,262.375)" stroke-width=".3985" stroke-linecap="butt" stroke-miterlimit="10" stroke-linejoin="miter" fill="none" stroke="#000000" d="M124.5346-43.13977 149.44153 0 124.5346 43.13977 99.62769 0Z"/>
<path transform="matrix(1,0,0,-1,74.919,262.375)" d="M124.5346 43.13977 149.44153 0H199.25537L174.34845 43.13977Z" fill="#999999"/>
<path transform="matrix(1,0,0,-1,74.919,262.375)" stroke-width=".3985" stroke-linecap="butt" stroke-miterlimit="10" stroke-linejoin="miter" fill="none" stroke="#000000" d="M124.5346 43.13977 149.44153 0H199.25537L174.34845 43.13977Z"/>
<path transform="matrix(1,0,0,-1,74.919,262.375)" d="M124.5346 0H74.72076L49.81384-43.13977H99.62769Z" fill="#4c4c4c"/>
<path transform="matrix(1,0,0,-1,74.919,262.375)" stroke-width=".3985" stroke-linecap="butt" stroke-miterlimit="10" stroke-linejoin="miter" fill="none" stroke="#000000" d="M124.5346 0H74.72076L49.81384-43.13977H99.62769Z"/>
<path transform="matrix(1,0,0,-1,74.919,262.375)" d="M49.81384-43.13977 74.72076 0 49.81384 43.13977 24.90692 0Z" fill="#666666"/>
<path transform="matrix(1,0,0,-1,74.919,262.375)" stroke-width=".3985" stroke-linecap="butt" stroke-miterlimit="10" stroke-linejoin="miter" fill="none" stroke="#000000" d="M49.81384-43.13977 74.72076 0 49.81384 43.13977 24.90692 0Z"/>
<path transform="matrix(1,0,0,-1,74.919,262.375)" d="M49.81384 43.13977 74.72076 0H124.5346L99.62769 43.13977Z" fill="#999999"/>
<path transform="matrix(1,0,0,-1,74.919,262.375)" stroke-width=".3985" stroke-linecap="butt" stroke-miterlimit="10" stroke-linejoin="miter" fill="none" stroke="#000000" d="M49.81384 43.13977 74.72076 0H124.5346L99.62769 43.13977Z"/>
<path transform="matrix(1,0,0,-1,74.919,262.375)" d="M49.81384 0H0L-24.90692-43.13977H24.90692Z" fill="#4c4c4c"/>
<path transform="matrix(1,0,0,-1,74.919,262.375)" stroke-width=".3985" stroke-linecap="butt" stroke-miterlimit="10" stroke-linejoin="miter" fill="none" stroke="#000000" d="M49.81384 0H0L-24.90692-43.13977H24.90692Z"/>
<path transform="matrix(1,0,0,-1,74.919,262.375)" d="M-24.90692-43.13977 0 0-24.90692 43.13977-49.81384 0Z" fill="#666666"/>
<path transform="matrix(1,0,0,-1,74.919,262.375)" stroke-width=".3985" stroke-linecap="butt" stroke-miterlimit="10" stroke-linejoin="miter" fill="none" stroke="#000000" d="M-24.90692-43.13977 0 0-24.90692 43.13977-49.81384 0Z"/>
<path transform="matrix(1,0,0,-1,74.919,262.375)" d="M-24.90692 43.13977 0 0H49.81384L24.90692 43.13977Z" fill="#999999"/>
<path transform="matrix(1,0,0,-1,74.919,262.375)" stroke-width=".3985" stroke-linecap="butt" stroke-miterlimit="10" stroke-linejoin="miter" fill="none" stroke="#000000" d="M-24.90692 43.13977 0 0H49.81384L24.90692 43.13977Z"/>
<path transform="matrix(1,0,0,-1,74.919,262.375)" d="M87.17422 64.71016H37.36038L12.45346 21.57039H62.2673Z" fill="#4c4c4c"/>
<path transform="matrix(1,0,0,-1,74.919,262.375)" stroke-width=".3985" stroke-linecap="butt" stroke-miterlimit="10" stroke-linejoin="miter" fill="none" stroke="#000000" d="M87.17422 64.71016H37.36038L12.45346 21.57039H62.2673Z"/>
<path transform="matrix(1,0,0,-1,74.919,262.375)" d="M12.45346 21.57039 37.36038 64.71016 12.45346 107.84996-12.45346 64.71016Z" fill="#666666"/>
<path transform="matrix(1,0,0,-1,74.919,262.375)" stroke-width=".3985" stroke-linecap="butt" stroke-miterlimit="10" stroke-linejoin="miter" fill="none" stroke="#000000" d="M12.45346 21.57039 37.36038 64.71016 12.45346 107.84996-12.45346 64.71016Z"/>
<path transform="matrix(1,0,0,-1,74.919,262.375)" d="M12.45346 107.84996 37.36038 64.71016H87.17422L62.2673 107.84996Z" fill="#999999"/>
<path transform="matrix(1,0,0,-1,74.919,262.375)" stroke-width=".3985" stroke-linecap="butt" stroke-miterlimit="10" stroke-linejoin="miter" fill="none" stroke="#000000" d="M12.45346 107.84996 37.36038 64.71016H87.17422L62.2673 107.84996Z"/>
<path transform="matrix(1,0,0,-1,74.919,262.375)" d="M124.5346 129.42035H74.72076L49.81384 86.28055H99.62769Z" fill="#4c4c4c"/>
<path transform="matrix(1,0,0,-1,74.919,262.375)" stroke-width=".3985" stroke-linecap="butt" stroke-miterlimit="10" stroke-linejoin="miter" fill="none" stroke="#000000" d="M124.5346 129.42035H74.72076L49.81384 86.28055H99.62769Z"/>
<path transform="matrix(1,0,0,-1,74.919,262.375)" d="M49.81384 86.28055 74.72076 129.42035 49.81384 172.56012 24.90692 129.42035Z" fill="#666666"/>
<path transform="matrix(1,0,0,-1,74.919,262.375)" stroke-width=".3985" stroke-linecap="butt" stroke-miterlimit="10" stroke-linejoin="miter" fill="none" stroke="#000000" d="M49.81384 86.28055 74.72076 129.42035 49.81384 172.56012 24.90692 129.42035Z"/>
<path transform="matrix(1,0,0,-1,74.919,262.375)" d="M49.81384 172.56012 74.72076 129.42035H124.5346L99.62769 172.56012Z" fill="#999999"/>
<path transform="matrix(1,0,0,-1,74.919,262.375)" stroke-width=".3985" stroke-linecap="butt" stroke-miterlimit="10" stroke-linejoin="miter" fill="none" stroke="#000000" d="M49.81384 172.56012 74.72076 129.42035H124.5346L99.62769 172.56012Z"/>
<path transform="matrix(1,0,0,-1,74.919,262.375)" d="M112.08115 150.98973 124.5346 172.56012H149.44153L161.89499 194.13053H112.08115L87.17422 150.98973Z" fill="#4c4c4c"/>
<path transform="matrix(1,0,0,-1,74.919,262.375)" stroke-width=".3985" stroke-linecap="butt" stroke-miterlimit="10" stroke-linejoin="miter" fill="none" stroke="#000000" d="M112.08115 150.98973 124.5346 172.56012H149.44153L161.89499 194.13053H112.08115L87.17422 150.98973Z"/>
<path transform="matrix(1,0,0,-1,74.919,262.375)" d="M87.17422 150.98973 112.08115 194.13053 87.17422 237.2703 62.2673 194.13053Z" fill="#666666"/>
<path transform="matrix(1,0,0,-1,74.919,262.375)" stroke-width=".3985" stroke-linecap="butt" stroke-miterlimit="10" stroke-linejoin="miter" fill="none" stroke="#000000" d="M87.17422 150.98973 112.08115 194.13053 87.17422 237.2703 62.2673 194.13053Z"/>
<path transform="matrix(1,0,0,-1,74.919,262.375)" d="M87.17422 237.2703 112.08115 194.13053H161.89499L136.98807 237.2703Z" fill="#999999"/>
<path transform="matrix(1,0,0,-1,74.919,262.375)" stroke-width=".3985" stroke-linecap="butt" stroke-miterlimit="10" stroke-linejoin="miter" fill="none" stroke="#000000" d="M87.17422 237.2703 112.08115 194.13053H161.89499L136.98807 237.2703Z"/>
<path transform="matrix(1,0,0,-1,74.919,262.375)" d="M149.44153 86.28055 161.89499 107.84996H186.80191L199.25537 129.42035H149.44153L124.5346 86.28055Z" fill="#4c4c4c"/>
<path transform="matrix(1,0,0,-1,74.919,262.375)" stroke-width=".3985" stroke-linecap="butt" stroke-miterlimit="10" stroke-linejoin="miter" fill="none" stroke="#000000" d="M149.44153 86.28055 161.89499 107.84996H186.80191L199.25537 129.42035H149.44153L124.5346 86.28055Z"/>
<path transform="matrix(1,0,0,-1,74.919,262.375)" d="M124.5346 86.28055 149.44153 129.42035 124.5346 172.56012 99.62769 129.42035Z" fill="#666666"/>
<path transform="matrix(1,0,0,-1,74.919,262.375)" stroke-width=".3985" stroke-linecap="butt" stroke-miterlimit="10" stroke-linejoin="miter" fill="none" stroke="#000000" d="M124.5346 86.28055 149.44153 129.42035 124.5346 172.56012 99.62769 129.42035Z"/>
<path transform="matrix(1,0,0,-1,74.919,262.375)" d="M124.5346 172.56012 149.44153 129.42035H199.25537L174.34845 172.56012Z" fill="#999999"/>
<path transform="matrix(1,0,0,-1,74.919,262.375)" stroke-width=".3985" stroke-linecap="butt" stroke-miterlimit="10" stroke-linejoin="miter" fill="none" stroke="#000000" d="M124.5346 172.56012 149.44153 129.42035H199.25537L174.34845 172.56012Z"/>
</svg>
