<svg xmlns="http://www.w3.org/2000/svg" xmlns:xlink="http://www.w3.org/1999/xlink" xmlns:inkscape="http://www.inkscape.org/namespaces/inkscape" version="1.1" width="283" height="283" viewBox="0 0 283 283">
<path transform="matrix(1,0,0,-1,-1382.785,141.5)" d="M1495.6676 7.67133 1503.3369 0 1495.6676-7.67133 1506.1494-10.47884 1503.34-20.96365 1513.8247-18.15414 1516.6322-28.63597 1524.3036-20.96664 1531.9749-28.63597 1534.7825-18.15414 1545.2672-20.96365 1542.4578-10.47884 1552.9396-7.67133 1545.2703 0 1552.9396 7.67133 1542.4578 10.47884 1545.2672 20.96365 1534.7825 18.15414 1531.9749 28.63597 1524.3036 20.96664 1516.6322 28.63597 1513.8247 18.15414 1503.34 20.96365 1506.1494 10.47884Z" fill="#b7bf8e"/>
<path transform="matrix(1,0,0,-1,-1382.785,141.5)" stroke-width=".3985" stroke-linecap="butt" stroke-miterlimit="10" stroke-linejoin="miter" fill="none" stroke="#000000" d="M1495.6676 7.67133 1503.3369 0 1495.6676-7.67133 1506.1494-10.47884 1503.34-20.96365 1513.8247-18.15414 1516.6322-28.63597 1524.3036-20.96664 1531.9749-28.63597 1534.7825-18.15414 1545.2672-20.96365 1542.4578-10.47884 1552.9396-7.67133 1545.2703 0 1552.9396 7.67133 1542.4578 10.47884 1545.2672 20.96365 1534.7825 18.15414 1531.9749 28.63597 1524.3036 20.96664 1516.6322 28.63597 1513.8247 18.15414 1503.34 20.96365 1506.1494 10.47884Z"/>
<path transform="matrix(1,0,0,-1,-1382.785,141.5)" d="M1487.3338 5.43867 1467.0326 0 1487.3338-5.43867 1492.7714 0Z" fill="#696c75"/>
<path transform="matrix(1,0,0,-1,-1382.785,141.5)" stroke-width=".3985" stroke-linecap="butt" stroke-miterlimit="10" stroke-linejoin="miter" fill="none" stroke="#000000" d="M1487.3338 5.43867 1467.0326 0 1487.3338-5.43867 1492.7714 0Z"/>
<path transform="matrix(1,0,0,-1,-1382.785,141.5)" d="M1547.5009 29.2975 1552.9406 49.59964 1538.076 34.73618 1540.0667 27.30595Z" fill="#696c75"/>
<path transform="matrix(1,0,0,-1,-1382.785,141.5)" stroke-width=".3985" stroke-linecap="butt" stroke-miterlimit="10" stroke-linejoin="miter" fill="none" stroke="#000000" d="M1547.5009 29.2975 1552.9406 49.59964 1538.076 34.73618 1540.0667 27.30595Z"/>
<path transform="matrix(1,0,0,-1,-1382.785,141.5)" d="M1538.076-34.73618 1552.9406-49.59964 1547.5009-29.2975 1540.0667-27.30595Z" fill="#696c75"/>
<path transform="matrix(1,0,0,-1,-1382.785,141.5)" stroke-width=".3985" stroke-linecap="butt" stroke-miterlimit="10" stroke-linejoin="miter" fill="none" stroke="#000000" d="M1538.076-34.73618 1552.9406-49.59964 1547.5009-29.2975 1540.0667-27.30595Z"/>
<path transform="matrix(1,0,0,-1,-1382.785,141.5)" d="M1561.2734-5.43867 1581.5746 0 1561.2734 5.43867 1555.8357 0Z" fill="#696c75"/>
<path transform="matrix(1,0,0,-1,-1382.785,141.5)" stroke-width=".3985" stroke-linecap="butt" stroke-miterlimit="10" stroke-linejoin="miter" fill="none" stroke="#000000" d="M1561.2734-5.43867 1581.5746 0 1561.2734 5.43867 1555.8357 0Z"/>
<path transform="matrix(1,0,0,-1,-1382.785,141.5)" d="M1501.1063-29.2975 1495.6666-49.59964 1510.531-34.73618 1508.5405-27.30595Z" fill="#696c75"/>
<path transform="matrix(1,0,0,-1,-1382.785,141.5)" stroke-width=".3985" stroke-linecap="butt" stroke-miterlimit="10" stroke-linejoin="miter" fill="none" stroke="#000000" d="M1501.1063-29.2975 1495.6666-49.59964 1510.531-34.73618 1508.5405-27.30595Z"/>
<path transform="matrix(1,0,0,-1,-1382.785,141.5)" d="M1510.531 34.73618 1495.6666 49.59964 1501.1063 29.2975 1508.5405 27.30595Z" fill="#696c75"/>
<path transform="matrix(1,0,0,-1,-1382.785,141.5)" stroke-width=".3985" stroke-linecap="butt" stroke-miterlimit="10" stroke-linejoin="miter" fill="none" stroke="#000000" d="M1510.531 34.73618 1495.6666 49.59964 1501.1063 29.2975 1508.5405 27.30595Z"/>
<path transform="matrix(1,0,0,-1,-1382.785,141.5)" d="M1559.0398 13.77252 1573.9032 28.63698 1553.6011 23.1973 1551.6095 15.76309Z" fill="#696c75"/>
<path transform="matrix(1,0,0,-1,-1382.785,141.5)" stroke-width=".3985" stroke-linecap="butt" stroke-miterlimit="10" stroke-linejoin="miter" fill="none" stroke="#000000" d="M1559.0398 13.77252 1573.9032 28.63698 1553.6011 23.1973 1551.6095 15.76309Z"/>
<path transform="matrix(1,0,0,-1,-1382.785,141.5)" d="M1559.0398-13.77252 1551.6095-15.76309 1553.6011-23.1973 1573.9032-28.63698Z" fill="#696c75"/>
<path transform="matrix(1,0,0,-1,-1382.785,141.5)" stroke-width=".3985" stroke-linecap="butt" stroke-miterlimit="10" stroke-linejoin="miter" fill="none" stroke="#000000" d="M1559.0398-13.77252 1551.6095-15.76309 1553.6011-23.1973 1573.9032-28.63698Z"/>
<path transform="matrix(1,0,0,-1,-1382.785,141.5)" d="M1518.8649-36.96983 1524.3036-57.27097 1529.7423-36.96983 1524.3036-31.53215Z" fill="#696c75"/>
<path transform="matrix(1,0,0,-1,-1382.785,141.5)" stroke-width=".3985" stroke-linecap="butt" stroke-miterlimit="10" stroke-linejoin="miter" fill="none" stroke="#000000" d="M1518.8649-36.96983 1524.3036-57.27097 1529.7423-36.96983 1524.3036-31.53215Z"/>
<path transform="matrix(1,0,0,-1,-1382.785,141.5)" d="M1495.0061-23.1973 1496.9977-15.76309 1489.5674-13.77252 1474.704-28.63698Z" fill="#696c75"/>
<path transform="matrix(1,0,0,-1,-1382.785,141.5)" stroke-width=".3985" stroke-linecap="butt" stroke-miterlimit="10" stroke-linejoin="miter" fill="none" stroke="#000000" d="M1495.0061-23.1973 1496.9977-15.76309 1489.5674-13.77252 1474.704-28.63698Z"/>
<path transform="matrix(1,0,0,-1,-1382.785,141.5)" d="M1495.0061 23.1973 1474.704 28.63698 1489.5674 13.77252 1496.9977 15.76309Z" fill="#696c75"/>
<path transform="matrix(1,0,0,-1,-1382.785,141.5)" stroke-width=".3985" stroke-linecap="butt" stroke-miterlimit="10" stroke-linejoin="miter" fill="none" stroke="#000000" d="M1495.0061 23.1973 1474.704 28.63698 1489.5674 13.77252 1496.9977 15.76309Z"/>
<path transform="matrix(1,0,0,-1,-1382.785,141.5)" d="M1518.8649 36.96983 1524.3036 31.53215 1529.7423 36.96983 1524.3036 57.27097Z" fill="#696c75"/>
<path transform="matrix(1,0,0,-1,-1382.785,141.5)" stroke-width=".3985" stroke-linecap="butt" stroke-miterlimit="10" stroke-linejoin="miter" fill="none" stroke="#000000" d="M1518.8649 36.96983 1524.3036 31.53215 1529.7423 36.96983 1524.3036 57.27097Z"/>
<path transform="matrix(1,0,0,-1,-1382.785,141.5)" d="M1464.1384-39.20448 1448.3115-55.03333 1455.9829-68.32068 1469.2703-75.992 1485.0991-60.16515 1492.7725-31.53116Z" fill="#e7e5cd"/>
<path transform="matrix(1,0,0,-1,-1382.785,141.5)" stroke-width=".3985" stroke-linecap="butt" stroke-miterlimit="10" stroke-linejoin="miter" fill="none" stroke="#000000" d="M1464.1384-39.20448 1448.3115-55.03333 1455.9829-68.32068 1469.2703-75.992 1485.0991-60.16515 1492.7725-31.53116Z"/>
<path transform="matrix(1,0,0,-1,-1382.785,141.5)" d="M1455.9829 68.32068 1448.3115 55.03333 1464.1384 39.20448 1492.7725 31.53116 1485.0991 60.16515 1469.2703 75.992Z" fill="#e7e5cd"/>
<path transform="matrix(1,0,0,-1,-1382.785,141.5)" stroke-width=".3985" stroke-linecap="butt" stroke-miterlimit="10" stroke-linejoin="miter" fill="none" stroke="#000000" d="M1455.9829 68.32068 1448.3115 55.03333 1464.1384 39.20448 1492.7725 31.53116 1485.0991 60.16515 1469.2703 75.992Z"/>
<path transform="matrix(1,0,0,-1,-1382.785,141.5)" d="M1520.436 71.70801 1514.6447 93.32623H1499.2871L1486.0037 85.65788 1491.7991 64.0327 1512.7637 43.07103Z" fill="#e7e5cd"/>
<path transform="matrix(1,0,0,-1,-1382.785,141.5)" stroke-width=".3985" stroke-linecap="butt" stroke-miterlimit="10" stroke-linejoin="miter" fill="none" stroke="#000000" d="M1520.436 71.70801 1514.6447 93.32623H1499.2871L1486.0037 85.65788 1491.7991 64.0327 1512.7637 43.07103Z"/>
<path transform="matrix(1,0,0,-1,-1382.785,141.5)" d="M1617.6298 25.01651 1609.9614 38.29985 1588.3363 32.50453 1567.3746 11.53986 1596.0116 3.86754 1617.6298 9.6589Z" fill="#e7e5cd"/>
<path transform="matrix(1,0,0,-1,-1382.785,141.5)" stroke-width=".3985" stroke-linecap="butt" stroke-miterlimit="10" stroke-linejoin="miter" fill="none" stroke="#000000" d="M1617.6298 25.01651 1609.9614 38.29985 1588.3363 32.50453 1567.3746 11.53986 1596.0116 3.86754 1617.6298 9.6589Z"/>
<path transform="matrix(1,0,0,-1,-1382.785,141.5)" d="M1588.3363-32.50453 1609.9614-38.29985 1617.6298-25.01651V-9.6589L1596.0116-3.86754 1567.3746-11.53986Z" fill="#e7e5cd"/>
<path transform="matrix(1,0,0,-1,-1382.785,141.5)" stroke-width=".3985" stroke-linecap="butt" stroke-miterlimit="10" stroke-linejoin="miter" fill="none" stroke="#000000" d="M1588.3363-32.50453 1609.9614-38.29985 1617.6298-25.01651V-9.6589L1596.0116-3.86754 1567.3746-11.53986Z"/>
<path transform="matrix(1,0,0,-1,-1382.785,141.5)" d="M1520.436-71.70801 1512.7637-43.07103 1491.7991-64.0327 1486.0037-85.65788 1499.2871-93.32623H1514.6447Z" fill="#e7e5cd"/>
<path transform="matrix(1,0,0,-1,-1382.785,141.5)" stroke-width=".3985" stroke-linecap="butt" stroke-miterlimit="10" stroke-linejoin="miter" fill="none" stroke="#000000" d="M1520.436-71.70801 1512.7637-43.07103 1491.7991-64.0327 1486.0037-85.65788 1499.2871-93.32623H1514.6447Z"/>
<path transform="matrix(1,0,0,-1,-1382.785,141.5)" d="M1584.4688 39.20448 1600.2957 55.03333 1592.6243 68.32068 1579.3369 75.992 1563.508 60.16515 1555.8347 31.53116Z" fill="#e7e5cd"/>
<path transform="matrix(1,0,0,-1,-1382.785,141.5)" stroke-width=".3985" stroke-linecap="butt" stroke-miterlimit="10" stroke-linejoin="miter" fill="none" stroke="#000000" d="M1584.4688 39.20448 1600.2957 55.03333 1592.6243 68.32068 1579.3369 75.992 1563.508 60.16515 1555.8347 31.53116Z"/>
<path transform="matrix(1,0,0,-1,-1382.785,141.5)" d="M1600.2957-55.03333 1584.4688-39.20448 1555.8347-31.53116 1563.508-60.16515 1579.3369-75.992 1592.6243-68.32068Z" fill="#e7e5cd"/>
<path transform="matrix(1,0,0,-1,-1382.785,141.5)" stroke-width=".3985" stroke-linecap="butt" stroke-miterlimit="10" stroke-linejoin="miter" fill="none" stroke="#000000" d="M1600.2957-55.03333 1584.4688-39.20448 1555.8347-31.53116 1563.508-60.16515 1579.3369-75.992 1592.6243-68.32068Z"/>
<path transform="matrix(1,0,0,-1,-1382.785,141.5)" d="M1528.1712-71.70801 1533.9625-93.32623H1549.3201L1562.6034-85.65788 1556.8081-64.0327 1535.8434-43.07103Z" fill="#e7e5cd"/>
<path transform="matrix(1,0,0,-1,-1382.785,141.5)" stroke-width=".3985" stroke-linecap="butt" stroke-miterlimit="10" stroke-linejoin="miter" fill="none" stroke="#000000" d="M1528.1712-71.70801 1533.9625-93.32623H1549.3201L1562.6034-85.65788 1556.8081-64.0327 1535.8434-43.07103Z"/>
<path transform="matrix(1,0,0,-1,-1382.785,141.5)" d="M1438.6456-38.29985 1460.2709-32.50453 1481.2326-11.53986 1452.5956-3.86754 1430.9773-9.6589V-25.01651Z" fill="#e7e5cd"/>
<path transform="matrix(1,0,0,-1,-1382.785,141.5)" stroke-width=".3985" stroke-linecap="butt" stroke-miterlimit="10" stroke-linejoin="miter" fill="none" stroke="#000000" d="M1438.6456-38.29985 1460.2709-32.50453 1481.2326-11.53986 1452.5956-3.86754 1430.9773-9.6589V-25.01651Z"/>
<path transform="matrix(1,0,0,-1,-1382.785,141.5)" d="M1460.2709 32.50453 1438.6456 38.29985 1430.9773 25.01651V9.6589L1452.5956 3.86754 1481.2326 11.53986Z" fill="#e7e5cd"/>
<path transform="matrix(1,0,0,-1,-1382.785,141.5)" stroke-width=".3985" stroke-linecap="butt" stroke-miterlimit="10" stroke-linejoin="miter" fill="none" stroke="#000000" d="M1460.2709 32.50453 1438.6456 38.29985 1430.9773 25.01651V9.6589L1452.5956 3.86754 1481.2326 11.53986Z"/>
<path transform="matrix(1,0,0,-1,-1382.785,141.5)" d="M1533.9625 93.32623 1528.1712 71.70801 1535.8434 43.07103 1556.8081 64.0327 1562.6034 85.65788 1549.3201 93.32623Z" fill="#e7e5cd"/>
<path transform="matrix(1,0,0,-1,-1382.785,141.5)" stroke-width=".3985" stroke-linecap="butt" stroke-miterlimit="10" stroke-linejoin="miter" fill="none" stroke="#000000" d="M1533.9625 93.32623 1528.1712 71.70801 1535.8434 43.07103 1556.8081 64.0327 1562.6034 85.65788 1549.3201 93.32623Z"/>
<path transform="matrix(1,0,0,-1,-1382.785,141.5)" d="M1449.7053-43.07204 1435.0402-47.00134 1430.9773-39.96265V-53.88364L1443.0403-60.8486 1438.9735-53.80492Z" fill="#fef5ee"/>
<path transform="matrix(1,0,0,-1,-1382.785,141.5)" stroke-width=".3985" stroke-linecap="butt" stroke-miterlimit="10" stroke-linejoin="miter" fill="none" stroke="#000000" d="M1449.7053-43.07204 1435.0402-47.00134 1430.9773-39.96265V-53.88364L1443.0403-60.8486 1438.9735-53.80492Z"/>
<path transform="matrix(1,0,0,-1,-1382.785,141.5)" d="M1443.0403 60.8486 1430.9773 53.88364V39.96265L1435.0402 47.00134 1449.7053 43.07204 1438.9735 53.80492Z" fill="#fef5ee"/>
<path transform="matrix(1,0,0,-1,-1382.785,141.5)" stroke-width=".3985" stroke-linecap="butt" stroke-miterlimit="10" stroke-linejoin="miter" fill="none" stroke="#000000" d="M1443.0403 60.8486 1430.9773 53.88364V39.96265L1435.0402 47.00134 1449.7053 43.07204 1438.9735 53.80492Z"/>
<path transform="matrix(1,0,0,-1,-1382.785,141.5)" d="M1524.3036 86.14606 1528.2289 100.79831H1536.3765L1524.3036 107.76726 1512.2307 100.79831H1520.3783Z" fill="#fef5ee"/>
<path transform="matrix(1,0,0,-1,-1382.785,141.5)" stroke-width=".3985" stroke-linecap="butt" stroke-miterlimit="10" stroke-linejoin="miter" fill="none" stroke="#000000" d="M1524.3036 86.14606 1528.2289 100.79831H1536.3765L1524.3036 107.76726 1512.2307 100.79831H1520.3783Z"/>
<path transform="matrix(1,0,0,-1,-1382.785,141.5)" d="M1617.6298 39.96265V53.88364L1605.5669 60.8486 1609.6337 53.80492 1598.9019 43.07204 1613.567 47.00134Z" fill="#fef5ee"/>
<path transform="matrix(1,0,0,-1,-1382.785,141.5)" stroke-width=".3985" stroke-linecap="butt" stroke-miterlimit="10" stroke-linejoin="miter" fill="none" stroke="#000000" d="M1617.6298 39.96265V53.88364L1605.5669 60.8486 1609.6337 53.80492 1598.9019 43.07204 1613.567 47.00134Z"/>
<path transform="matrix(1,0,0,-1,-1382.785,141.5)" d="M1598.9019-43.07204 1609.6337-53.80492 1605.5669-60.8486 1617.6298-53.88364V-39.96265L1613.567-47.00134Z" fill="#fef5ee"/>
<path transform="matrix(1,0,0,-1,-1382.785,141.5)" stroke-width=".3985" stroke-linecap="butt" stroke-miterlimit="10" stroke-linejoin="miter" fill="none" stroke="#000000" d="M1598.9019-43.07204 1609.6337-53.80492 1605.5669-60.8486 1617.6298-53.88364V-39.96265L1613.567-47.00134Z"/>
<path transform="matrix(1,0,0,-1,-1382.785,141.5)" d="M1524.3036-86.14606 1520.3783-100.79831H1512.2307L1524.3036-107.76726 1536.3765-100.79831H1528.2289Z" fill="#fef5ee"/>
<path transform="matrix(1,0,0,-1,-1382.785,141.5)" stroke-width=".3985" stroke-linecap="butt" stroke-miterlimit="10" stroke-linejoin="miter" fill="none" stroke="#000000" d="M1524.3036-86.14606 1520.3783-100.79831H1512.2307L1524.3036-107.76726 1536.3765-100.79831H1528.2289Z"/>
<path transform="matrix(1,0,0,-1,-1382.785,141.5)" d="M1463.455-81.2633 1470.4199-93.32623H1484.341L1477.3023-89.26341 1481.2316-74.59822 1470.4987-85.33011Z" fill="#fef5ee"/>
<path transform="matrix(1,0,0,-1,-1382.785,141.5)" stroke-width=".3985" stroke-linecap="butt" stroke-miterlimit="10" stroke-linejoin="miter" fill="none" stroke="#000000" d="M1463.455-81.2633 1470.4199-93.32623H1484.341L1477.3023-89.26341 1481.2316-74.59822 1470.4987-85.33011Z"/>
<path transform="matrix(1,0,0,-1,-1382.785,141.5)" d="M1484.341 93.32623H1470.4199L1463.455 81.2633 1470.4987 85.33011 1481.2316 74.59822 1477.3023 89.26341Z" fill="#fef5ee"/>
<path transform="matrix(1,0,0,-1,-1382.785,141.5)" stroke-width=".3985" stroke-linecap="butt" stroke-miterlimit="10" stroke-linejoin="miter" fill="none" stroke="#000000" d="M1484.341 93.32623H1470.4199L1463.455 81.2633 1470.4987 85.33011 1481.2316 74.59822 1477.3023 89.26341Z"/>
<path transform="matrix(1,0,0,-1,-1382.785,141.5)" d="M1625.1019-12.07288 1632.0708 0 1625.1019 12.07288V3.92532L1610.4497 0 1625.1019-3.92532Z" fill="#fef5ee"/>
<path transform="matrix(1,0,0,-1,-1382.785,141.5)" stroke-width=".3985" stroke-linecap="butt" stroke-miterlimit="10" stroke-linejoin="miter" fill="none" stroke="#000000" d="M1625.1019-12.07288 1632.0708 0 1625.1019 12.07288V3.92532L1610.4497 0 1625.1019-3.92532Z"/>
<path transform="matrix(1,0,0,-1,-1382.785,141.5)" d="M1585.1522 81.2633 1578.1873 93.32623H1564.2662L1571.3049 89.26341 1567.3756 74.59822 1578.1085 85.33011Z" fill="#fef5ee"/>
<path transform="matrix(1,0,0,-1,-1382.785,141.5)" stroke-width=".3985" stroke-linecap="butt" stroke-miterlimit="10" stroke-linejoin="miter" fill="none" stroke="#000000" d="M1585.1522 81.2633 1578.1873 93.32623H1564.2662L1571.3049 89.26341 1567.3756 74.59822 1578.1085 85.33011Z"/>
<path transform="matrix(1,0,0,-1,-1382.785,141.5)" d="M1564.2662-93.32623H1578.1873L1585.1522-81.2633 1578.1085-85.33011 1567.3756-74.59822 1571.3049-89.26341Z" fill="#fef5ee"/>
<path transform="matrix(1,0,0,-1,-1382.785,141.5)" stroke-width=".3985" stroke-linecap="butt" stroke-miterlimit="10" stroke-linejoin="miter" fill="none" stroke="#000000" d="M1564.2662-93.32623H1578.1873L1585.1522-81.2633 1578.1085-85.33011 1567.3756-74.59822 1571.3049-89.26341Z"/>
<path transform="matrix(1,0,0,-1,-1382.785,141.5)" d="M1423.5053 12.07288 1416.5364 0 1423.5053-12.07288V-3.92532L1438.1575 0 1423.5053 3.92532Z" fill="#fef5ee"/>
<path transform="matrix(1,0,0,-1,-1382.785,141.5)" stroke-width=".3985" stroke-linecap="butt" stroke-miterlimit="10" stroke-linejoin="miter" fill="none" stroke="#000000" d="M1423.5053 12.07288 1416.5364 0 1423.5053-12.07288V-3.92532L1438.1575 0 1423.5053 3.92532Z"/>
<path transform="matrix(1,0,0,-1,-1382.785,141.5)" d="M1450.5133-73.79022 1466.1061-100.79831H1520.3783L1524.3036-86.14606 1520.436-71.70801 1514.6447-93.32623H1470.4199L1463.455-81.2633Z" fill="#ffffff"/>
<path transform="matrix(1,0,0,-1,-1382.785,141.5)" stroke-width=".3985" stroke-linecap="butt" stroke-miterlimit="10" stroke-linejoin="miter" fill="none" stroke="#000000" d="M1450.5133-73.79022 1466.1061-100.79831H1520.3783L1524.3036-86.14606 1520.436-71.70801 1514.6447-93.32623H1470.4199L1463.455-81.2633Z"/>
<path transform="matrix(1,0,0,-1,-1382.785,141.5)" d="M1438.9735-53.80492 1443.0403-60.8486 1455.9829-68.32068 1448.3115-55.03333 1489.5674-13.77252 1481.2326-11.53986Z" fill="#ffffff"/>
<path transform="matrix(1,0,0,-1,-1382.785,141.5)" stroke-width=".3985" stroke-linecap="butt" stroke-miterlimit="10" stroke-linejoin="miter" fill="none" stroke="#000000" d="M1438.9735-53.80492 1443.0403-60.8486 1455.9829-68.32068 1448.3115-55.03333 1489.5674-13.77252 1481.2326-11.53986Z"/>
<path transform="matrix(1,0,0,-1,-1382.785,141.5)" d="M1492.7714 0 1487.3338-5.43867 1495.6676-7.67133 1503.3369 0 1474.704 28.63698 1460.2709 32.50453Z" fill="#ffffff"/>
<path transform="matrix(1,0,0,-1,-1382.785,141.5)" stroke-width=".3985" stroke-linecap="butt" stroke-miterlimit="10" stroke-linejoin="miter" fill="none" stroke="#000000" d="M1492.7714 0 1487.3338-5.43867 1495.6676-7.67133 1503.3369 0 1474.704 28.63698 1460.2709 32.50453Z"/>
<path transform="matrix(1,0,0,-1,-1382.785,141.5)" d="M1438.9735 53.80492 1449.7053 43.07204 1464.1384 39.20448 1448.3115 55.03333 1470.4199 93.32623H1484.341L1497.2855 100.79831H1466.1061Z" fill="#ffffff"/>
<path transform="matrix(1,0,0,-1,-1382.785,141.5)" stroke-width=".3985" stroke-linecap="butt" stroke-miterlimit="10" stroke-linejoin="miter" fill="none" stroke="#000000" d="M1438.9735 53.80492 1449.7053 43.07204 1464.1384 39.20448 1448.3115 55.03333 1470.4199 93.32623H1484.341L1497.2855 100.79831H1466.1061Z"/>
<path transform="matrix(1,0,0,-1,-1382.785,141.5)" d="M1520.3783 100.79831H1512.2307L1499.2871 93.32623H1514.6447L1529.7423 36.96983 1535.8434 43.07103Z" fill="#ffffff"/>
<path transform="matrix(1,0,0,-1,-1382.785,141.5)" stroke-width=".3985" stroke-linecap="butt" stroke-miterlimit="10" stroke-linejoin="miter" fill="none" stroke="#000000" d="M1520.3783 100.79831H1512.2307L1499.2871 93.32623H1514.6447L1529.7423 36.96983 1535.8434 43.07103Z"/>
<path transform="matrix(1,0,0,-1,-1382.785,141.5)" d="M1540.0667 27.30595 1538.076 34.73618 1531.9749 28.63597 1534.7825 18.15414 1573.9032 28.63698 1584.4688 39.20448Z" fill="#ffffff"/>
<path transform="matrix(1,0,0,-1,-1382.785,141.5)" stroke-width=".3985" stroke-linecap="butt" stroke-miterlimit="10" stroke-linejoin="miter" fill="none" stroke="#000000" d="M1540.0667 27.30595 1538.076 34.73618 1531.9749 28.63597 1534.7825 18.15414 1573.9032 28.63698 1584.4688 39.20448Z"/>
<path transform="matrix(1,0,0,-1,-1382.785,141.5)" d="M1613.567 47.00134 1598.9019 43.07204 1588.3363 32.50453 1609.9614 38.29985 1632.0708 0 1625.1019-12.07288V-27.01802L1640.6986 0Z" fill="#ffffff"/>
<path transform="matrix(1,0,0,-1,-1382.785,141.5)" stroke-width=".3985" stroke-linecap="butt" stroke-miterlimit="10" stroke-linejoin="miter" fill="none" stroke="#000000" d="M1613.567 47.00134 1598.9019 43.07204 1588.3363 32.50453 1609.9614 38.29985 1632.0708 0 1625.1019-12.07288V-27.01802L1640.6986 0Z"/>
<path transform="matrix(1,0,0,-1,-1382.785,141.5)" d="M1613.567-47.00134 1617.6298-39.96265V-25.01651L1609.9614-38.29985 1553.6011-23.1973 1555.8347-31.53116Z" fill="#ffffff"/>
<path transform="matrix(1,0,0,-1,-1382.785,141.5)" stroke-width=".3985" stroke-linecap="butt" stroke-miterlimit="10" stroke-linejoin="miter" fill="none" stroke="#000000" d="M1613.567-47.00134 1617.6298-39.96265V-25.01651L1609.9614-38.29985 1553.6011-23.1973 1555.8347-31.53116Z"/>
<path transform="matrix(1,0,0,-1,-1382.785,141.5)" d="M1540.0667-27.30595 1547.5009-29.2975 1545.2672-20.96365 1534.7825-18.15414 1524.3036-57.27097 1528.1712-71.70801Z" fill="#ffffff"/>
<path transform="matrix(1,0,0,-1,-1382.785,141.5)" stroke-width=".3985" stroke-linecap="butt" stroke-miterlimit="10" stroke-linejoin="miter" fill="none" stroke="#000000" d="M1540.0667-27.30595 1547.5009-29.2975 1545.2672-20.96365 1534.7825-18.15414 1524.3036-57.27097 1528.1712-71.70801Z"/>
<path transform="matrix(1,0,0,-1,-1382.785,141.5)" d="M1598.0938 73.79022 1582.5011 100.79831H1528.2289L1524.3036 86.14606 1528.1712 71.70801 1533.9625 93.32623H1578.1873L1585.1522 81.2633Z" fill="#ffffff"/>
<path transform="matrix(1,0,0,-1,-1382.785,141.5)" stroke-width=".3985" stroke-linecap="butt" stroke-miterlimit="10" stroke-linejoin="miter" fill="none" stroke="#000000" d="M1598.0938 73.79022 1582.5011 100.79831H1528.2289L1524.3036 86.14606 1528.1712 71.70801 1533.9625 93.32623H1578.1873L1585.1522 81.2633Z"/>
<path transform="matrix(1,0,0,-1,-1382.785,141.5)" d="M1609.6337 53.80492 1605.5669 60.8486 1592.6243 68.32068 1600.2957 55.03333 1559.0398 13.77252 1567.3746 11.53986Z" fill="#ffffff"/>
<path transform="matrix(1,0,0,-1,-1382.785,141.5)" stroke-width=".3985" stroke-linecap="butt" stroke-miterlimit="10" stroke-linejoin="miter" fill="none" stroke="#000000" d="M1609.6337 53.80492 1605.5669 60.8486 1592.6243 68.32068 1600.2957 55.03333 1559.0398 13.77252 1567.3746 11.53986Z"/>
<path transform="matrix(1,0,0,-1,-1382.785,141.5)" d="M1555.8357 0 1561.2734 5.43867 1552.9396 7.67133 1545.2703 0 1573.9032-28.63698 1588.3363-32.50453Z" fill="#ffffff"/>
<path transform="matrix(1,0,0,-1,-1382.785,141.5)" stroke-width=".3985" stroke-linecap="butt" stroke-miterlimit="10" stroke-linejoin="miter" fill="none" stroke="#000000" d="M1555.8357 0 1561.2734 5.43867 1552.9396 7.67133 1545.2703 0 1573.9032-28.63698 1588.3363-32.50453Z"/>
<path transform="matrix(1,0,0,-1,-1382.785,141.5)" d="M1609.6337-53.80492 1598.9019-43.07204 1584.4688-39.20448 1600.2957-55.03333 1578.1873-93.32623H1564.2662L1551.3217-100.79831H1582.5011Z" fill="#ffffff"/>
<path transform="matrix(1,0,0,-1,-1382.785,141.5)" stroke-width=".3985" stroke-linecap="butt" stroke-miterlimit="10" stroke-linejoin="miter" fill="none" stroke="#000000" d="M1609.6337-53.80492 1598.9019-43.07204 1584.4688-39.20448 1600.2957-55.03333 1578.1873-93.32623H1564.2662L1551.3217-100.79831H1582.5011Z"/>
<path transform="matrix(1,0,0,-1,-1382.785,141.5)" d="M1528.2289-100.79831H1536.3765L1549.3201-93.32623H1533.9625L1518.8649-36.96983 1512.7637-43.07103Z" fill="#ffffff"/>
<path transform="matrix(1,0,0,-1,-1382.785,141.5)" stroke-width=".3985" stroke-linecap="butt" stroke-miterlimit="10" stroke-linejoin="miter" fill="none" stroke="#000000" d="M1528.2289-100.79831H1536.3765L1549.3201-93.32623H1533.9625L1518.8649-36.96983 1512.7637-43.07103Z"/>
<path transform="matrix(1,0,0,-1,-1382.785,141.5)" d="M1508.5405-27.30595 1510.531-34.73618 1516.6322-28.63597 1513.8247-18.15414 1474.704-28.63698 1464.1384-39.20448Z" fill="#ffffff"/>
<path transform="matrix(1,0,0,-1,-1382.785,141.5)" stroke-width=".3985" stroke-linecap="butt" stroke-miterlimit="10" stroke-linejoin="miter" fill="none" stroke="#000000" d="M1508.5405-27.30595 1510.531-34.73618 1516.6322-28.63597 1513.8247-18.15414 1474.704-28.63698 1464.1384-39.20448Z"/>
<path transform="matrix(1,0,0,-1,-1382.785,141.5)" d="M1435.0402-47.00134 1449.7053-43.07204 1460.2709-32.50453 1438.6456-38.29985 1416.5364 0 1423.5053 12.07288V27.01802L1407.9086 0Z" fill="#ffffff"/>
<path transform="matrix(1,0,0,-1,-1382.785,141.5)" stroke-width=".3985" stroke-linecap="butt" stroke-miterlimit="10" stroke-linejoin="miter" fill="none" stroke="#000000" d="M1435.0402-47.00134 1449.7053-43.07204 1460.2709-32.50453 1438.6456-38.29985 1416.5364 0 1423.5053 12.07288V27.01802L1407.9086 0Z"/>
<path transform="matrix(1,0,0,-1,-1382.785,141.5)" d="M1435.0402 47.00134 1430.9773 39.96265V25.01651L1438.6456 38.29985 1495.0061 23.1973 1492.7725 31.53116Z" fill="#ffffff"/>
<path transform="matrix(1,0,0,-1,-1382.785,141.5)" stroke-width=".3985" stroke-linecap="butt" stroke-miterlimit="10" stroke-linejoin="miter" fill="none" stroke="#000000" d="M1435.0402 47.00134 1430.9773 39.96265V25.01651L1438.6456 38.29985 1495.0061 23.1973 1492.7725 31.53116Z"/>
<path transform="matrix(1,0,0,-1,-1382.785,141.5)" d="M1508.5405 27.30595 1501.1063 29.2975 1503.34 20.96365 1513.8247 18.15414 1524.3036 57.27097 1520.436 71.70801Z" fill="#ffffff"/>
<path transform="matrix(1,0,0,-1,-1382.785,141.5)" stroke-width=".3985" stroke-linecap="butt" stroke-miterlimit="10" stroke-linejoin="miter" fill="none" stroke="#000000" d="M1508.5405 27.30595 1501.1063 29.2975 1503.34 20.96365 1513.8247 18.15414 1524.3036 57.27097 1520.436 71.70801Z"/>
<path transform="matrix(1,0,0,-1,-1382.785,141.5)" d="M1625.1019-58.1975V-3.92532L1610.4497 0 1596.0116-3.86754 1617.6298-9.6589V-53.88364L1605.5669-60.8486 1598.0938-73.79022Z" fill="#ffffff"/>
<path transform="matrix(1,0,0,-1,-1382.785,141.5)" stroke-width=".3985" stroke-linecap="butt" stroke-miterlimit="10" stroke-linejoin="miter" fill="none" stroke="#000000" d="M1625.1019-58.1975V-3.92532L1610.4497 0 1596.0116-3.86754 1617.6298-9.6589V-53.88364L1605.5669-60.8486 1598.0938-73.79022Z"/>
<path transform="matrix(1,0,0,-1,-1382.785,141.5)" d="M1578.1085-85.33011 1585.1522-81.2633 1592.6243-68.32068 1579.3369-75.992 1538.076-34.73618 1535.8434-43.07103Z" fill="#ffffff"/>
<path transform="matrix(1,0,0,-1,-1382.785,141.5)" stroke-width=".3985" stroke-linecap="butt" stroke-miterlimit="10" stroke-linejoin="miter" fill="none" stroke="#000000" d="M1578.1085-85.33011 1585.1522-81.2633 1592.6243-68.32068 1579.3369-75.992 1538.076-34.73618 1535.8434-43.07103Z"/>
<path transform="matrix(1,0,0,-1,-1382.785,141.5)" d="M1524.3036-31.53215 1529.7423-36.96983 1531.9749-28.63597 1524.3036-20.96664 1495.6666-49.59964 1491.7991-64.0327Z" fill="#ffffff"/>
<path transform="matrix(1,0,0,-1,-1382.785,141.5)" stroke-width=".3985" stroke-linecap="butt" stroke-miterlimit="10" stroke-linejoin="miter" fill="none" stroke="#000000" d="M1524.3036-31.53215 1529.7423-36.96983 1531.9749-28.63597 1524.3036-20.96664 1495.6666-49.59964 1491.7991-64.0327Z"/>
<path transform="matrix(1,0,0,-1,-1382.785,141.5)" d="M1470.4987-85.33011 1481.2316-74.59822 1485.0991-60.16515 1469.2703-75.992 1430.9773-53.88364V-39.96265L1423.5053-27.01802V-58.1975Z" fill="#ffffff"/>
<path transform="matrix(1,0,0,-1,-1382.785,141.5)" stroke-width=".3985" stroke-linecap="butt" stroke-miterlimit="10" stroke-linejoin="miter" fill="none" stroke="#000000" d="M1470.4987-85.33011 1481.2316-74.59822 1485.0991-60.16515 1469.2703-75.992 1430.9773-53.88364V-39.96265L1423.5053-27.01802V-58.1975Z"/>
<path transform="matrix(1,0,0,-1,-1382.785,141.5)" d="M1423.5053-3.92532V-12.07288L1430.9773-25.01651V-9.6589L1487.3338 5.43867 1481.2326 11.53986Z" fill="#ffffff"/>
<path transform="matrix(1,0,0,-1,-1382.785,141.5)" stroke-width=".3985" stroke-linecap="butt" stroke-miterlimit="10" stroke-linejoin="miter" fill="none" stroke="#000000" d="M1423.5053-3.92532V-12.07288L1430.9773-25.01651V-9.6589L1487.3338 5.43867 1481.2326 11.53986Z"/>
<path transform="matrix(1,0,0,-1,-1382.785,141.5)" d="M1496.9977 15.76309 1489.5674 13.77252 1495.6676 7.67133 1506.1494 10.47884 1495.6666 49.59964 1485.0991 60.16515Z" fill="#ffffff"/>
<path transform="matrix(1,0,0,-1,-1382.785,141.5)" stroke-width=".3985" stroke-linecap="butt" stroke-miterlimit="10" stroke-linejoin="miter" fill="none" stroke="#000000" d="M1496.9977 15.76309 1489.5674 13.77252 1495.6676 7.67133 1506.1494 10.47884 1495.6666 49.59964 1485.0991 60.16515Z"/>
<path transform="matrix(1,0,0,-1,-1382.785,141.5)" d="M1477.3023 89.26341 1481.2316 74.59822 1491.7991 64.0327 1486.0037 85.65788 1524.3036 107.76726 1536.3765 100.79831H1551.3217L1524.3036 116.39502Z" fill="#ffffff"/>
<path transform="matrix(1,0,0,-1,-1382.785,141.5)" stroke-width=".3985" stroke-linecap="butt" stroke-miterlimit="10" stroke-linejoin="miter" fill="none" stroke="#000000" d="M1477.3023 89.26341 1481.2316 74.59822 1491.7991 64.0327 1486.0037 85.65788 1524.3036 107.76726 1536.3765 100.79831H1551.3217L1524.3036 116.39502Z"/>
<path transform="matrix(1,0,0,-1,-1382.785,141.5)" d="M1571.3049 89.26341 1564.2662 93.32623H1549.3201L1562.6034 85.65788 1547.5009 29.2975 1555.8347 31.53116Z" fill="#ffffff"/>
<path transform="matrix(1,0,0,-1,-1382.785,141.5)" stroke-width=".3985" stroke-linecap="butt" stroke-miterlimit="10" stroke-linejoin="miter" fill="none" stroke="#000000" d="M1571.3049 89.26341 1564.2662 93.32623H1549.3201L1562.6034 85.65788 1547.5009 29.2975 1555.8347 31.53116Z"/>
<path transform="matrix(1,0,0,-1,-1382.785,141.5)" d="M1551.6095 15.76309 1553.6011 23.1973 1545.2672 20.96365 1542.4578 10.47884 1581.5746 0 1596.0116 3.86754Z" fill="#ffffff"/>
<path transform="matrix(1,0,0,-1,-1382.785,141.5)" stroke-width=".3985" stroke-linecap="butt" stroke-miterlimit="10" stroke-linejoin="miter" fill="none" stroke="#000000" d="M1551.6095 15.76309 1553.6011 23.1973 1545.2672 20.96365 1542.4578 10.47884 1581.5746 0 1596.0116 3.86754Z"/>
<path transform="matrix(1,0,0,-1,-1382.785,141.5)" d="M1625.1019 3.92532V12.07288L1617.6298 25.01651V9.6589L1561.2734-5.43867 1567.3746-11.53986Z" fill="#ffffff"/>
<path transform="matrix(1,0,0,-1,-1382.785,141.5)" stroke-width=".3985" stroke-linecap="butt" stroke-miterlimit="10" stroke-linejoin="miter" fill="none" stroke="#000000" d="M1625.1019 3.92532V12.07288L1617.6298 25.01651V9.6589L1561.2734-5.43867 1567.3746-11.53986Z"/>
<path transform="matrix(1,0,0,-1,-1382.785,141.5)" d="M1551.6095-15.76309 1559.0398-13.77252 1552.9396-7.67133 1542.4578-10.47884 1552.9406-49.59964 1563.508-60.16515Z" fill="#ffffff"/>
<path transform="matrix(1,0,0,-1,-1382.785,141.5)" stroke-width=".3985" stroke-linecap="butt" stroke-miterlimit="10" stroke-linejoin="miter" fill="none" stroke="#000000" d="M1551.6095-15.76309 1559.0398-13.77252 1552.9396-7.67133 1542.4578-10.47884 1552.9406-49.59964 1563.508-60.16515Z"/>
<path transform="matrix(1,0,0,-1,-1382.785,141.5)" d="M1571.3049-89.26341 1567.3756-74.59822 1556.8081-64.0327 1562.6034-85.65788 1524.3036-107.76726 1512.2307-100.79831H1497.2855L1524.3036-116.39502Z" fill="#ffffff"/>
<path transform="matrix(1,0,0,-1,-1382.785,141.5)" stroke-width=".3985" stroke-linecap="butt" stroke-miterlimit="10" stroke-linejoin="miter" fill="none" stroke="#000000" d="M1571.3049-89.26341 1567.3756-74.59822 1556.8081-64.0327 1562.6034-85.65788 1524.3036-107.76726 1512.2307-100.79831H1497.2855L1524.3036-116.39502Z"/>
<path transform="matrix(1,0,0,-1,-1382.785,141.5)" d="M1477.3023-89.26341 1484.341-93.32623H1499.2871L1486.0037-85.65788 1501.1063-29.2975 1492.7725-31.53116Z" fill="#ffffff"/>
<path transform="matrix(1,0,0,-1,-1382.785,141.5)" stroke-width=".3985" stroke-linecap="butt" stroke-miterlimit="10" stroke-linejoin="miter" fill="none" stroke="#000000" d="M1477.3023-89.26341 1484.341-93.32623H1499.2871L1486.0037-85.65788 1501.1063-29.2975 1492.7725-31.53116Z"/>
<path transform="matrix(1,0,0,-1,-1382.785,141.5)" d="M1496.9977-15.76309 1495.0061-23.1973 1503.34-20.96365 1506.1494-10.47884 1467.0326 0 1452.5956-3.86754Z" fill="#ffffff"/>
<path transform="matrix(1,0,0,-1,-1382.785,141.5)" stroke-width=".3985" stroke-linecap="butt" stroke-miterlimit="10" stroke-linejoin="miter" fill="none" stroke="#000000" d="M1496.9977-15.76309 1495.0061-23.1973 1503.34-20.96365 1506.1494-10.47884 1467.0326 0 1452.5956-3.86754Z"/>
<path transform="matrix(1,0,0,-1,-1382.785,141.5)" d="M1423.5053 3.92532 1438.1575 0 1452.5956 3.86754 1430.9773 9.6589V53.88364L1443.0403 60.8486 1450.5133 73.79022 1423.5053 58.1975Z" fill="#ffffff"/>
<path transform="matrix(1,0,0,-1,-1382.785,141.5)" stroke-width=".3985" stroke-linecap="butt" stroke-miterlimit="10" stroke-linejoin="miter" fill="none" stroke="#000000" d="M1423.5053 3.92532 1438.1575 0 1452.5956 3.86754 1430.9773 9.6589V53.88364L1443.0403 60.8486 1450.5133 73.79022 1423.5053 58.1975Z"/>
<path transform="matrix(1,0,0,-1,-1382.785,141.5)" d="M1470.4987 85.33011 1463.455 81.2633 1455.9829 68.32068 1469.2703 75.992 1510.531 34.73618 1512.7637 43.07103Z" fill="#ffffff"/>
<path transform="matrix(1,0,0,-1,-1382.785,141.5)" stroke-width=".3985" stroke-linecap="butt" stroke-miterlimit="10" stroke-linejoin="miter" fill="none" stroke="#000000" d="M1470.4987 85.33011 1463.455 81.2633 1455.9829 68.32068 1469.2703 75.992 1510.531 34.73618 1512.7637 43.07103Z"/>
<path transform="matrix(1,0,0,-1,-1382.785,141.5)" d="M1524.3036 31.53215 1518.8649 36.96983 1516.6322 28.63597 1524.3036 20.96664 1552.9406 49.59964 1556.8081 64.0327Z" fill="#ffffff"/>
<path transform="matrix(1,0,0,-1,-1382.785,141.5)" stroke-width=".3985" stroke-linecap="butt" stroke-miterlimit="10" stroke-linejoin="miter" fill="none" stroke="#000000" d="M1524.3036 31.53215 1518.8649 36.96983 1516.6322 28.63597 1524.3036 20.96664 1552.9406 49.59964 1556.8081 64.0327Z"/>
<path transform="matrix(1,0,0,-1,-1382.785,141.5)" d="M1578.1085 85.33011 1567.3756 74.59822 1563.508 60.16515 1579.3369 75.992 1617.6298 53.88364V39.96265L1625.1019 27.01802V58.1975Z" fill="#ffffff"/>
<path transform="matrix(1,0,0,-1,-1382.785,141.5)" stroke-width=".3985" stroke-linecap="butt" stroke-miterlimit="10" stroke-linejoin="miter" fill="none" stroke="#000000" d="M1578.1085 85.33011 1567.3756 74.59822 1563.508 60.16515 1579.3369 75.992 1617.6298 53.88364V39.96265L1625.1019 27.01802V58.1975Z"/>
</svg>
