<svg xmlns="http://www.w3.org/2000/svg" xmlns:xlink="http://www.w3.org/1999/xlink" xmlns:inkscape="http://www.inkscape.org/namespaces/inkscape" version="1.1" width="293.9" height="293.9" viewBox="0 0 293.9 293.9">
<path transform="matrix(1,0,0,-1,-869.24,146.95099)" d="M1004.69638 0 1008.0648-3.3694V-8.13759H1012.833L1016.2024-11.506 1019.5718-8.13759H1024.34V-3.3694L1027.7084 0 1024.34 3.3694V8.13759H1019.5718L1016.2024 11.506 1012.833 8.13759H1008.0648V3.3694Z" fill="#ad80af"/>
<path transform="matrix(1,0,0,-1,-869.24,146.95099)" stroke-width=".3985" stroke-linecap="butt" stroke-miterlimit="10" stroke-linejoin="miter" fill="none" stroke="#000000" d="M1004.69638 0 1008.0648-3.3694V-8.13759H1012.833L1016.2024-11.506 1019.5718-8.13759H1024.34V-3.3694L1027.7084 0 1024.34 3.3694V8.13759H1019.5718L1016.2024 11.506 1012.833 8.13759H1008.0648V3.3694Z"/>
<path transform="matrix(1,0,0,-1,-869.24,146.95099)" d="M999.4141-5.28424 996.56179-8.13759H1000.5927V-6.46384Z" fill="#f6ed43"/>
<path transform="matrix(1,0,0,-1,-869.24,146.95099)" stroke-width=".3985" stroke-linecap="butt" stroke-miterlimit="10" stroke-linejoin="miter" fill="none" stroke="#000000" d="M999.4141-5.28424 996.56179-8.13759H1000.5927V-6.46384Z"/>
<path transform="matrix(1,0,0,-1,-869.24,146.95099)" d="M1031.812-8.13759H1035.843L1032.9906-5.28424 1031.812-6.46384Z" fill="#f6ed43"/>
<path transform="matrix(1,0,0,-1,-869.24,146.95099)" stroke-width=".3985" stroke-linecap="butt" stroke-miterlimit="10" stroke-linejoin="miter" fill="none" stroke="#000000" d="M1031.812-8.13759H1035.843L1032.9906-5.28424 1031.812-6.46384Z"/>
<path transform="matrix(1,0,0,-1,-869.24,146.95099)" d="M1010.91818 16.78825 1008.0648 19.6406V15.60867H1009.7385Z" fill="#f6ed43"/>
<path transform="matrix(1,0,0,-1,-869.24,146.95099)" stroke-width=".3985" stroke-linecap="butt" stroke-miterlimit="10" stroke-linejoin="miter" fill="none" stroke="#000000" d="M1010.91818 16.78825 1008.0648 19.6406V15.60867H1009.7385Z"/>
<path transform="matrix(1,0,0,-1,-869.24,146.95099)" d="M1008.0648-15.60867V-19.6406L1010.91818-16.78825 1009.7385-15.60867Z" fill="#f6ed43"/>
<path transform="matrix(1,0,0,-1,-869.24,146.95099)" stroke-width=".3985" stroke-linecap="butt" stroke-miterlimit="10" stroke-linejoin="miter" fill="none" stroke="#000000" d="M1008.0648-15.60867V-19.6406L1010.91818-16.78825 1009.7385-15.60867Z"/>
<path transform="matrix(1,0,0,-1,-869.24,146.95099)" d="M1032.9906 5.28424 1035.843 8.13759H1031.812V6.46384Z" fill="#f6ed43"/>
<path transform="matrix(1,0,0,-1,-869.24,146.95099)" stroke-width=".3985" stroke-linecap="butt" stroke-miterlimit="10" stroke-linejoin="miter" fill="none" stroke="#000000" d="M1032.9906 5.28424 1035.843 8.13759H1031.812V6.46384Z"/>
<path transform="matrix(1,0,0,-1,-869.24,146.95099)" d="M1000.5927 8.13759H996.56179L999.4141 5.28424 1000.5927 6.46384Z" fill="#f6ed43"/>
<path transform="matrix(1,0,0,-1,-869.24,146.95099)" stroke-width=".3985" stroke-linecap="butt" stroke-miterlimit="10" stroke-linejoin="miter" fill="none" stroke="#000000" d="M1000.5927 8.13759H996.56179L999.4141 5.28424 1000.5927 6.46384Z"/>
<path transform="matrix(1,0,0,-1,-869.24,146.95099)" d="M1021.48666-16.78825 1024.34-19.6406V-15.60867H1022.66629Z" fill="#f6ed43"/>
<path transform="matrix(1,0,0,-1,-869.24,146.95099)" stroke-width=".3985" stroke-linecap="butt" stroke-miterlimit="10" stroke-linejoin="miter" fill="none" stroke="#000000" d="M1021.48666-16.78825 1024.34-19.6406V-15.60867H1022.66629Z"/>
<path transform="matrix(1,0,0,-1,-869.24,146.95099)" d="M1024.34 15.60867V19.6406L1021.48666 16.78825 1022.66629 15.60867Z" fill="#f6ed43"/>
<path transform="matrix(1,0,0,-1,-869.24,146.95099)" stroke-width=".3985" stroke-linecap="butt" stroke-miterlimit="10" stroke-linejoin="miter" fill="none" stroke="#000000" d="M1024.34 15.60867V19.6406L1021.48666 16.78825 1022.66629 15.60867Z"/>
<path transform="matrix(1,0,0,-1,-869.24,146.95099)" d="M989.0917-15.60867 982.8679-21.8354 986.23538-29.967 994.36697-33.33443 1000.5927-27.11069V-15.60867Z" fill="#f49f3a"/>
<path transform="matrix(1,0,0,-1,-869.24,146.95099)" stroke-width=".3985" stroke-linecap="butt" stroke-miterlimit="10" stroke-linejoin="miter" fill="none" stroke="#000000" d="M989.0917-15.60867 982.8679-21.8354 986.23538-29.967 994.36697-33.33443 1000.5927-27.11069V-15.60867Z"/>
<path transform="matrix(1,0,0,-1,-869.24,146.95099)" d="M1046.4086-8.13759H1055.2136L1058.584 0 1055.2136 8.13759H1046.4086L1038.2739 0Z" fill="#f49f3a"/>
<path transform="matrix(1,0,0,-1,-869.24,146.95099)" stroke-width=".3985" stroke-linecap="butt" stroke-miterlimit="10" stroke-linejoin="miter" fill="none" stroke="#000000" d="M1046.4086-8.13759H1055.2136L1058.584 0 1055.2136 8.13759H1046.4086L1038.2739 0Z"/>
<path transform="matrix(1,0,0,-1,-869.24,146.95099)" d="M985.9963-8.13759 994.13088 0 985.9963 8.13759H977.19119L973.82077 0 977.19119-8.13759Z" fill="#f49f3a"/>
<path transform="matrix(1,0,0,-1,-869.24,146.95099)" stroke-width=".3985" stroke-linecap="butt" stroke-miterlimit="10" stroke-linejoin="miter" fill="none" stroke="#000000" d="M985.9963-8.13759 994.13088 0 985.9963 8.13759H977.19119L973.82077 0 977.19119-8.13759Z"/>
<path transform="matrix(1,0,0,-1,-869.24,146.95099)" d="M1000.5927 27.11069 994.36697 33.33443 986.23538 29.967 982.8679 21.8354 989.0917 15.60867H1000.5927Z" fill="#f49f3a"/>
<path transform="matrix(1,0,0,-1,-869.24,146.95099)" stroke-width=".3985" stroke-linecap="butt" stroke-miterlimit="10" stroke-linejoin="miter" fill="none" stroke="#000000" d="M1000.5927 27.11069 994.36697 33.33443 986.23538 29.967 982.8679 21.8354 989.0917 15.60867H1000.5927Z"/>
<path transform="matrix(1,0,0,-1,-869.24,146.95099)" d="M1043.3131-15.60867H1031.812V-27.11069L1038.0379-33.33443 1046.1694-29.967 1049.5369-21.8354Z" fill="#f49f3a"/>
<path transform="matrix(1,0,0,-1,-869.24,146.95099)" stroke-width=".3985" stroke-linecap="butt" stroke-miterlimit="10" stroke-linejoin="miter" fill="none" stroke="#000000" d="M1043.3131-15.60867H1031.812V-27.11069L1038.0379-33.33443 1046.1694-29.967 1049.5369-21.8354Z"/>
<path transform="matrix(1,0,0,-1,-869.24,146.95099)" d="M1008.0648-30.20612V-39.0112L1016.2024-42.3816 1024.34-39.0112V-30.20612L1016.2024-22.07152Z" fill="#f49f3a"/>
<path transform="matrix(1,0,0,-1,-869.24,146.95099)" stroke-width=".3985" stroke-linecap="butt" stroke-miterlimit="10" stroke-linejoin="miter" fill="none" stroke="#000000" d="M1008.0648-30.20612V-39.0112L1016.2024-42.3816 1024.34-39.0112V-30.20612L1016.2024-22.07152Z"/>
<path transform="matrix(1,0,0,-1,-869.24,146.95099)" d="M1008.0648 30.20612 1016.2024 22.07152 1024.34 30.20612V39.0112L1016.2024 42.3816 1008.0648 39.0112Z" fill="#f49f3a"/>
<path transform="matrix(1,0,0,-1,-869.24,146.95099)" stroke-width=".3985" stroke-linecap="butt" stroke-miterlimit="10" stroke-linejoin="miter" fill="none" stroke="#000000" d="M1008.0648 30.20612 1016.2024 22.07152 1024.34 30.20612V39.0112L1016.2024 42.3816 1008.0648 39.0112Z"/>
<path transform="matrix(1,0,0,-1,-869.24,146.95099)" d="M1043.3131 15.60867 1049.5369 21.8354 1046.1694 29.967 1038.0379 33.33443 1031.812 27.11069V15.60867Z" fill="#f49f3a"/>
<path transform="matrix(1,0,0,-1,-869.24,146.95099)" stroke-width=".3985" stroke-linecap="butt" stroke-miterlimit="10" stroke-linejoin="miter" fill="none" stroke="#000000" d="M1043.3131 15.60867 1049.5369 21.8354 1046.1694 29.967 1038.0379 33.33443 1031.812 27.11069V15.60867Z"/>
<path transform="matrix(1,0,0,-1,-869.24,146.95099)" d="M1000.5927-37.6762 996.11947-42.14848 990.27926-39.72952 995.01358-51.15881 1006.4399-46.42549 1000.5927-44.00356Z" fill="#4ebfd5"/>
<path transform="matrix(1,0,0,-1,-869.24,146.95099)" stroke-width=".3985" stroke-linecap="butt" stroke-miterlimit="10" stroke-linejoin="miter" fill="none" stroke="#000000" d="M1000.5927-37.6762 996.11947-42.14848 990.27926-39.72952 995.01358-51.15881 1006.4399-46.42549 1000.5927-44.00356Z"/>
<path transform="matrix(1,0,0,-1,-869.24,146.95099)" d="M976.47286 25.92313 965.0436 21.18881 969.7769 9.76251 972.1988 15.60867H978.5262L974.0539 20.08295Z" fill="#4ebfd5"/>
<path transform="matrix(1,0,0,-1,-869.24,146.95099)" stroke-width=".3985" stroke-linecap="butt" stroke-miterlimit="10" stroke-linejoin="miter" fill="none" stroke="#000000" d="M976.47286 25.92313 965.0436 21.18881 969.7769 9.76251 972.1988 15.60867H978.5262L974.0539 20.08295Z"/>
<path transform="matrix(1,0,0,-1,-869.24,146.95099)" d="M1053.8786 15.60867H1060.2059L1062.6279 9.76251 1067.3612 21.18881 1055.9319 25.92313 1058.3508 20.08295Z" fill="#4ebfd5"/>
<path transform="matrix(1,0,0,-1,-869.24,146.95099)" stroke-width=".3985" stroke-linecap="butt" stroke-miterlimit="10" stroke-linejoin="miter" fill="none" stroke="#000000" d="M1053.8786 15.60867H1060.2059L1062.6279 9.76251 1067.3612 21.18881 1055.9319 25.92313 1058.3508 20.08295Z"/>
<path transform="matrix(1,0,0,-1,-869.24,146.95099)" d="M1025.9649-46.42549 1037.3912-51.15881 1042.1255-39.72952 1036.2854-42.14848 1031.812-37.6762V-44.00356Z" fill="#4ebfd5"/>
<path transform="matrix(1,0,0,-1,-869.24,146.95099)" stroke-width=".3985" stroke-linecap="butt" stroke-miterlimit="10" stroke-linejoin="miter" fill="none" stroke="#000000" d="M1025.9649-46.42549 1037.3912-51.15881 1042.1255-39.72952 1036.2854-42.14848 1031.812-37.6762V-44.00356Z"/>
<path transform="matrix(1,0,0,-1,-869.24,146.95099)" d="M1042.1255 39.72952 1037.3912 51.15881 1025.9649 46.42549 1031.812 44.00356V37.6762L1036.2854 42.14848Z" fill="#4ebfd5"/>
<path transform="matrix(1,0,0,-1,-869.24,146.95099)" stroke-width=".3985" stroke-linecap="butt" stroke-miterlimit="10" stroke-linejoin="miter" fill="none" stroke="#000000" d="M1042.1255 39.72952 1037.3912 51.15881 1025.9649 46.42549 1031.812 44.00356V37.6762L1036.2854 42.14848Z"/>
<path transform="matrix(1,0,0,-1,-869.24,146.95099)" d="M969.7769-9.76251 965.0436-21.18881 976.47286-25.92313 974.0539-20.08295 978.5262-15.60867H972.1988Z" fill="#4ebfd5"/>
<path transform="matrix(1,0,0,-1,-869.24,146.95099)" stroke-width=".3985" stroke-linecap="butt" stroke-miterlimit="10" stroke-linejoin="miter" fill="none" stroke="#000000" d="M969.7769-9.76251 965.0436-21.18881 976.47286-25.92313 974.0539-20.08295 978.5262-15.60867H972.1988Z"/>
<path transform="matrix(1,0,0,-1,-869.24,146.95099)" d="M1055.9319-25.92313 1067.3612-21.18881 1062.6279-9.76251 1060.2059-15.60867H1053.8786L1058.3508-20.08295Z" fill="#4ebfd5"/>
<path transform="matrix(1,0,0,-1,-869.24,146.95099)" stroke-width=".3985" stroke-linecap="butt" stroke-miterlimit="10" stroke-linejoin="miter" fill="none" stroke="#000000" d="M1055.9319-25.92313 1067.3612-21.18881 1062.6279-9.76251 1060.2059-15.60867H1053.8786L1058.3508-20.08295Z"/>
<path transform="matrix(1,0,0,-1,-869.24,146.95099)" d="M1006.4399 46.42549 995.01358 51.15881 990.27926 39.72952 996.11947 42.14848 1000.5927 37.6762V44.00356Z" fill="#4ebfd5"/>
<path transform="matrix(1,0,0,-1,-869.24,146.95099)" stroke-width=".3985" stroke-linecap="butt" stroke-miterlimit="10" stroke-linejoin="miter" fill="none" stroke="#000000" d="M1006.4399 46.42549 995.01358 51.15881 990.27926 39.72952 996.11947 42.14848 1000.5927 37.6762V44.00356Z"/>
<path transform="matrix(1,0,0,-1,-869.24,146.95099)" d="M997.8729-58.06201 1016.2024-102.31763 1034.5319-58.06201 1016.2024-50.46939Z" fill="#e8447e"/>
<path transform="matrix(1,0,0,-1,-869.24,146.95099)" stroke-width=".3985" stroke-linecap="butt" stroke-miterlimit="10" stroke-linejoin="miter" fill="none" stroke="#000000" d="M997.8729-58.06201 1016.2024-102.31763 1034.5319-58.06201 1016.2024-50.46939Z"/>
<path transform="matrix(1,0,0,-1,-869.24,146.95099)" d="M1070.2216 28.09201 1088.555 72.3526 1044.2944 54.01912 1051.8881 35.68564Z" fill="#e8447e"/>
<path transform="matrix(1,0,0,-1,-869.24,146.95099)" stroke-width=".3985" stroke-linecap="butt" stroke-miterlimit="10" stroke-linejoin="miter" fill="none" stroke="#000000" d="M1070.2216 28.09201 1088.555 72.3526 1044.2944 54.01912 1051.8881 35.68564Z"/>
<path transform="matrix(1,0,0,-1,-869.24,146.95099)" d="M958.1404 18.32948 913.88479 0 958.1404-18.32948 965.733 0Z" fill="#e8447e"/>
<path transform="matrix(1,0,0,-1,-869.24,146.95099)" stroke-width=".3985" stroke-linecap="butt" stroke-miterlimit="10" stroke-linejoin="miter" fill="none" stroke="#000000" d="M958.1404 18.32948 913.88479 0 958.1404-18.32948 965.733 0Z"/>
<path transform="matrix(1,0,0,-1,-869.24,146.95099)" d="M1044.2944-54.01912 1088.555-72.3526 1070.2216-28.09201 1051.8881-35.68564Z" fill="#e8447e"/>
<path transform="matrix(1,0,0,-1,-869.24,146.95099)" stroke-width=".3985" stroke-linecap="butt" stroke-miterlimit="10" stroke-linejoin="miter" fill="none" stroke="#000000" d="M1044.2944-54.01912 1088.555-72.3526 1070.2216-28.09201 1051.8881-35.68564Z"/>
<path transform="matrix(1,0,0,-1,-869.24,146.95099)" d="M1034.5319 58.06201 1016.2024 102.31763 997.8729 58.06201 1016.2024 50.46939Z" fill="#e8447e"/>
<path transform="matrix(1,0,0,-1,-869.24,146.95099)" stroke-width=".3985" stroke-linecap="butt" stroke-miterlimit="10" stroke-linejoin="miter" fill="none" stroke="#000000" d="M1034.5319 58.06201 1016.2024 102.31763 997.8729 58.06201 1016.2024 50.46939Z"/>
<path transform="matrix(1,0,0,-1,-869.24,146.95099)" d="M1074.2644 18.32948 1066.6718 0 1074.2644-18.32948 1118.52 0Z" fill="#e8447e"/>
<path transform="matrix(1,0,0,-1,-869.24,146.95099)" stroke-width=".3985" stroke-linecap="butt" stroke-miterlimit="10" stroke-linejoin="miter" fill="none" stroke="#000000" d="M1074.2644 18.32948 1066.6718 0 1074.2644-18.32948 1118.52 0Z"/>
<path transform="matrix(1,0,0,-1,-869.24,146.95099)" d="M962.1833-28.09201 943.8498-72.3526 988.11038-54.01912 980.5167-35.68564Z" fill="#e8447e"/>
<path transform="matrix(1,0,0,-1,-869.24,146.95099)" stroke-width=".3985" stroke-linecap="butt" stroke-miterlimit="10" stroke-linejoin="miter" fill="none" stroke="#000000" d="M962.1833-28.09201 943.8498-72.3526 988.11038-54.01912 980.5167-35.68564Z"/>
<path transform="matrix(1,0,0,-1,-869.24,146.95099)" d="M962.1833 28.09201 980.5167 35.68564 988.11038 54.01912 943.8498 72.3526Z" fill="#e8447e"/>
<path transform="matrix(1,0,0,-1,-869.24,146.95099)" stroke-width=".3985" stroke-linecap="butt" stroke-miterlimit="10" stroke-linejoin="miter" fill="none" stroke="#000000" d="M962.1833 28.09201 980.5167 35.68564 988.11038 54.01912 943.8498 72.3526Z"/>
<path transform="matrix(1,0,0,-1,-869.24,146.95099)" d="M1060.2059 15.60867H1053.8786L1046.4086 8.13759H1055.2136L1067.3612-21.18881 1074.2644-18.32948Z" fill="#ffffff"/>
<path transform="matrix(1,0,0,-1,-869.24,146.95099)" stroke-width=".3985" stroke-linecap="butt" stroke-miterlimit="10" stroke-linejoin="miter" fill="none" stroke="#000000" d="M1060.2059 15.60867H1053.8786L1046.4086 8.13759H1055.2136L1067.3612-21.18881 1074.2644-18.32948Z"/>
<path transform="matrix(1,0,0,-1,-869.24,146.95099)" d="M1102.3624-86.16 1077.1248-25.23369 1070.2216-28.09201 1088.555-72.3526 1025.9649-46.42549 1016.2024-50.46939Z" fill="#ffffff"/>
<path transform="matrix(1,0,0,-1,-869.24,146.95099)" stroke-width=".3985" stroke-linecap="butt" stroke-miterlimit="10" stroke-linejoin="miter" fill="none" stroke="#000000" d="M1102.3624-86.16 1077.1248-25.23369 1070.2216-28.09201 1088.555-72.3526 1025.9649-46.42549 1016.2024-50.46939Z"/>
<path transform="matrix(1,0,0,-1,-869.24,146.95099)" d="M1000.5927-44.00356 1006.4399-46.42549 1016.2024-42.3816 1008.0648-39.0112V-15.60867H1000.5927Z" fill="#ffffff"/>
<path transform="matrix(1,0,0,-1,-869.24,146.95099)" stroke-width=".3985" stroke-linecap="butt" stroke-miterlimit="10" stroke-linejoin="miter" fill="none" stroke="#000000" d="M1000.5927-44.00356 1006.4399-46.42549 1016.2024-42.3816 1008.0648-39.0112V-15.60867H1000.5927Z"/>
<path transform="matrix(1,0,0,-1,-869.24,146.95099)" d="M1000.5927-6.46384V-8.13759H1008.0648V-3.3694L996.56179 8.13759H985.9963Z" fill="#ffffff"/>
<path transform="matrix(1,0,0,-1,-869.24,146.95099)" stroke-width=".3985" stroke-linecap="butt" stroke-miterlimit="10" stroke-linejoin="miter" fill="none" stroke="#000000" d="M1000.5927-6.46384V-8.13759H1008.0648V-3.3694L996.56179 8.13759H985.9963Z"/>
<path transform="matrix(1,0,0,-1,-869.24,146.95099)" d="M974.0539 20.08295 978.5262 15.60867H989.0917L982.8679 21.8354 995.01358 51.15881 988.11038 54.01912Z" fill="#ffffff"/>
<path transform="matrix(1,0,0,-1,-869.24,146.95099)" stroke-width=".3985" stroke-linecap="butt" stroke-miterlimit="10" stroke-linejoin="miter" fill="none" stroke="#000000" d="M974.0539 20.08295 978.5262 15.60867H989.0917L982.8679 21.8354 995.01358 51.15881 988.11038 54.01912Z"/>
<path transform="matrix(1,0,0,-1,-869.24,146.95099)" d="M1016.2024 121.84465 990.9687 60.92232 997.8729 58.06201 1016.2024 102.31763 1042.1255 39.72952 1051.8881 35.68564Z" fill="#ffffff"/>
<path transform="matrix(1,0,0,-1,-869.24,146.95099)" stroke-width=".3985" stroke-linecap="butt" stroke-miterlimit="10" stroke-linejoin="miter" fill="none" stroke="#000000" d="M1016.2024 121.84465 990.9687 60.92232 997.8729 58.06201 1016.2024 102.31763 1042.1255 39.72952 1051.8881 35.68564Z"/>
<path transform="matrix(1,0,0,-1,-869.24,146.95099)" d="M1058.3508 20.08295 1055.9319 25.92313 1046.1694 29.967 1049.5369 21.8354 1032.9906 5.28424 1038.2739 0Z" fill="#ffffff"/>
<path transform="matrix(1,0,0,-1,-869.24,146.95099)" stroke-width=".3985" stroke-linecap="butt" stroke-miterlimit="10" stroke-linejoin="miter" fill="none" stroke="#000000" d="M1058.3508 20.08295 1055.9319 25.92313 1046.1694 29.967 1049.5369 21.8354 1032.9906 5.28424 1038.2739 0Z"/>
<path transform="matrix(1,0,0,-1,-869.24,146.95099)" d="M1031.812-6.46384 1032.9906-5.28424 1027.7084 0 1024.34-3.3694V-19.6406L1031.812-27.11069Z" fill="#ffffff"/>
<path transform="matrix(1,0,0,-1,-869.24,146.95099)" stroke-width=".3985" stroke-linecap="butt" stroke-miterlimit="10" stroke-linejoin="miter" fill="none" stroke="#000000" d="M1031.812-6.46384 1032.9906-5.28424 1027.7084 0 1024.34-3.3694V-19.6406L1031.812-27.11069Z"/>
<path transform="matrix(1,0,0,-1,-869.24,146.95099)" d="M1031.812-44.00356V-37.6762L1024.34-30.20612V-39.0112L995.01358-51.15881 997.8729-58.06201Z" fill="#ffffff"/>
<path transform="matrix(1,0,0,-1,-869.24,146.95099)" stroke-width=".3985" stroke-linecap="butt" stroke-miterlimit="10" stroke-linejoin="miter" fill="none" stroke="#000000" d="M1031.812-44.00356V-37.6762L1024.34-30.20612V-39.0112L995.01358-51.15881 997.8729-58.06201Z"/>
<path transform="matrix(1,0,0,-1,-869.24,146.95099)" d="M930.04238-86.16 990.9687-60.92232 988.11038-54.01912 943.8498-72.3526 969.7769-9.76251 965.733 0Z" fill="#ffffff"/>
<path transform="matrix(1,0,0,-1,-869.24,146.95099)" stroke-width=".3985" stroke-linecap="butt" stroke-miterlimit="10" stroke-linejoin="miter" fill="none" stroke="#000000" d="M930.04238-86.16 990.9687-60.92232 988.11038-54.01912 943.8498-72.3526 969.7769-9.76251 965.733 0Z"/>
<path transform="matrix(1,0,0,-1,-869.24,146.95099)" d="M972.1988 15.60867 969.7769 9.76251 973.82077 0 977.19119 8.13759H1000.5927V15.60867Z" fill="#ffffff"/>
<path transform="matrix(1,0,0,-1,-869.24,146.95099)" stroke-width=".3985" stroke-linecap="butt" stroke-miterlimit="10" stroke-linejoin="miter" fill="none" stroke="#000000" d="M972.1988 15.60867 969.7769 9.76251 973.82077 0 977.19119 8.13759H1000.5927V15.60867Z"/>
<path transform="matrix(1,0,0,-1,-869.24,146.95099)" d="M1009.7385 15.60867H1008.0648V8.13759H1012.833L1024.34 19.6406V30.20612Z" fill="#ffffff"/>
<path transform="matrix(1,0,0,-1,-869.24,146.95099)" stroke-width=".3985" stroke-linecap="butt" stroke-miterlimit="10" stroke-linejoin="miter" fill="none" stroke="#000000" d="M1009.7385 15.60867H1008.0648V8.13759H1012.833L1024.34 19.6406V30.20612Z"/>
<path transform="matrix(1,0,0,-1,-869.24,146.95099)" d="M1036.2854 42.14848 1031.812 37.6762V27.11069L1038.0379 33.33443 1067.3612 21.18881 1070.2216 28.09201Z" fill="#ffffff"/>
<path transform="matrix(1,0,0,-1,-869.24,146.95099)" stroke-width=".3985" stroke-linecap="butt" stroke-miterlimit="10" stroke-linejoin="miter" fill="none" stroke="#000000" d="M1036.2854 42.14848 1031.812 37.6762V27.11069L1038.0379 33.33443 1067.3612 21.18881 1070.2216 28.09201Z"/>
<path transform="matrix(1,0,0,-1,-869.24,146.95099)" d="M1138.047 0 1077.1248 25.23369 1074.2644 18.32948 1118.52 0 1055.9319-25.92313 1051.8881-35.68564Z" fill="#ffffff"/>
<path transform="matrix(1,0,0,-1,-869.24,146.95099)" stroke-width=".3985" stroke-linecap="butt" stroke-miterlimit="10" stroke-linejoin="miter" fill="none" stroke="#000000" d="M1138.047 0 1077.1248 25.23369 1074.2644 18.32948 1118.52 0 1055.9319-25.92313 1051.8881-35.68564Z"/>
<path transform="matrix(1,0,0,-1,-869.24,146.95099)" d="M1036.2854-42.14848 1042.1255-39.72952 1046.1694-29.967 1038.0379-33.33443 1021.48666-16.78825 1016.2024-22.07152Z" fill="#ffffff"/>
<path transform="matrix(1,0,0,-1,-869.24,146.95099)" stroke-width=".3985" stroke-linecap="butt" stroke-miterlimit="10" stroke-linejoin="miter" fill="none" stroke="#000000" d="M1036.2854-42.14848 1042.1255-39.72952 1046.1694-29.967 1038.0379-33.33443 1021.48666-16.78825 1016.2024-22.07152Z"/>
<path transform="matrix(1,0,0,-1,-869.24,146.95099)" d="M1009.7385-15.60867 1010.91818-16.78825 1016.2024-11.506 1012.833-8.13759H996.56179L989.0917-15.60867Z" fill="#ffffff"/>
<path transform="matrix(1,0,0,-1,-869.24,146.95099)" stroke-width=".3985" stroke-linecap="butt" stroke-miterlimit="10" stroke-linejoin="miter" fill="none" stroke="#000000" d="M1009.7385-15.60867 1010.91818-16.78825 1016.2024-11.506 1012.833-8.13759H996.56179L989.0917-15.60867Z"/>
<path transform="matrix(1,0,0,-1,-869.24,146.95099)" d="M972.1988-15.60867H978.5262L985.9963-8.13759H977.19119L965.0436 21.18881 958.1404 18.32948Z" fill="#ffffff"/>
<path transform="matrix(1,0,0,-1,-869.24,146.95099)" stroke-width=".3985" stroke-linecap="butt" stroke-miterlimit="10" stroke-linejoin="miter" fill="none" stroke="#000000" d="M972.1988-15.60867H978.5262L985.9963-8.13759H977.19119L965.0436 21.18881 958.1404 18.32948Z"/>
<path transform="matrix(1,0,0,-1,-869.24,146.95099)" d="M930.04238 86.16 955.2801 25.23369 962.1833 28.09201 943.8498 72.3526 1006.4399 46.42549 1016.2024 50.46939Z" fill="#ffffff"/>
<path transform="matrix(1,0,0,-1,-869.24,146.95099)" stroke-width=".3985" stroke-linecap="butt" stroke-miterlimit="10" stroke-linejoin="miter" fill="none" stroke="#000000" d="M930.04238 86.16 955.2801 25.23369 962.1833 28.09201 943.8498 72.3526 1006.4399 46.42549 1016.2024 50.46939Z"/>
<path transform="matrix(1,0,0,-1,-869.24,146.95099)" d="M1031.812 44.00356 1025.9649 46.42549 1016.2024 42.3816 1024.34 39.0112V15.60867H1031.812Z" fill="#ffffff"/>
<path transform="matrix(1,0,0,-1,-869.24,146.95099)" stroke-width=".3985" stroke-linecap="butt" stroke-miterlimit="10" stroke-linejoin="miter" fill="none" stroke="#000000" d="M1031.812 44.00356 1025.9649 46.42549 1016.2024 42.3816 1024.34 39.0112V15.60867H1031.812Z"/>
<path transform="matrix(1,0,0,-1,-869.24,146.95099)" d="M1031.812 6.46384V8.13759H1024.34V3.3694L1035.843-8.13759H1046.4086Z" fill="#ffffff"/>
<path transform="matrix(1,0,0,-1,-869.24,146.95099)" stroke-width=".3985" stroke-linecap="butt" stroke-miterlimit="10" stroke-linejoin="miter" fill="none" stroke="#000000" d="M1031.812 6.46384V8.13759H1024.34V3.3694L1035.843-8.13759H1046.4086Z"/>
<path transform="matrix(1,0,0,-1,-869.24,146.95099)" d="M1058.3508-20.08295 1053.8786-15.60867H1043.3131L1049.5369-21.8354 1037.3912-51.15881 1044.2944-54.01912Z" fill="#ffffff"/>
<path transform="matrix(1,0,0,-1,-869.24,146.95099)" stroke-width=".3985" stroke-linecap="butt" stroke-miterlimit="10" stroke-linejoin="miter" fill="none" stroke="#000000" d="M1058.3508-20.08295 1053.8786-15.60867H1043.3131L1049.5369-21.8354 1037.3912-51.15881 1044.2944-54.01912Z"/>
<path transform="matrix(1,0,0,-1,-869.24,146.95099)" d="M1016.2024-121.84465 1041.436-60.92232 1034.5319-58.06201 1016.2024-102.31763 990.27926-39.72952 980.5167-35.68564Z" fill="#ffffff"/>
<path transform="matrix(1,0,0,-1,-869.24,146.95099)" stroke-width=".3985" stroke-linecap="butt" stroke-miterlimit="10" stroke-linejoin="miter" fill="none" stroke="#000000" d="M1016.2024-121.84465 1041.436-60.92232 1034.5319-58.06201 1016.2024-102.31763 990.27926-39.72952 980.5167-35.68564Z"/>
<path transform="matrix(1,0,0,-1,-869.24,146.95099)" d="M974.0539-20.08295 976.47286-25.92313 986.23538-29.967 982.8679-21.8354 999.4141-5.28424 994.13088 0Z" fill="#ffffff"/>
<path transform="matrix(1,0,0,-1,-869.24,146.95099)" stroke-width=".3985" stroke-linecap="butt" stroke-miterlimit="10" stroke-linejoin="miter" fill="none" stroke="#000000" d="M974.0539-20.08295 976.47286-25.92313 986.23538-29.967 982.8679-21.8354 999.4141-5.28424 994.13088 0Z"/>
<path transform="matrix(1,0,0,-1,-869.24,146.95099)" d="M1000.5927 6.46384 999.4141 5.28424 1004.69638 0 1008.0648 3.3694V19.6406L1000.5927 27.11069Z" fill="#ffffff"/>
<path transform="matrix(1,0,0,-1,-869.24,146.95099)" stroke-width=".3985" stroke-linecap="butt" stroke-miterlimit="10" stroke-linejoin="miter" fill="none" stroke="#000000" d="M1000.5927 6.46384 999.4141 5.28424 1004.69638 0 1008.0648 3.3694V19.6406L1000.5927 27.11069Z"/>
<path transform="matrix(1,0,0,-1,-869.24,146.95099)" d="M1000.5927 44.00356V37.6762L1008.0648 30.20612V39.0112L1037.3912 51.15881 1034.5319 58.06201Z" fill="#ffffff"/>
<path transform="matrix(1,0,0,-1,-869.24,146.95099)" stroke-width=".3985" stroke-linecap="butt" stroke-miterlimit="10" stroke-linejoin="miter" fill="none" stroke="#000000" d="M1000.5927 44.00356V37.6762L1008.0648 30.20612V39.0112L1037.3912 51.15881 1034.5319 58.06201Z"/>
<path transform="matrix(1,0,0,-1,-869.24,146.95099)" d="M1102.3624 86.16 1041.436 60.92232 1044.2944 54.01912 1088.555 72.3526 1062.6279 9.76251 1066.6718 0Z" fill="#ffffff"/>
<path transform="matrix(1,0,0,-1,-869.24,146.95099)" stroke-width=".3985" stroke-linecap="butt" stroke-miterlimit="10" stroke-linejoin="miter" fill="none" stroke="#000000" d="M1102.3624 86.16 1041.436 60.92232 1044.2944 54.01912 1088.555 72.3526 1062.6279 9.76251 1066.6718 0Z"/>
<path transform="matrix(1,0,0,-1,-869.24,146.95099)" d="M1060.2059-15.60867 1062.6279-9.76251 1058.584 0 1055.2136-8.13759H1031.812V-15.60867Z" fill="#ffffff"/>
<path transform="matrix(1,0,0,-1,-869.24,146.95099)" stroke-width=".3985" stroke-linecap="butt" stroke-miterlimit="10" stroke-linejoin="miter" fill="none" stroke="#000000" d="M1060.2059-15.60867 1062.6279-9.76251 1058.584 0 1055.2136-8.13759H1031.812V-15.60867Z"/>
<path transform="matrix(1,0,0,-1,-869.24,146.95099)" d="M1022.66629-15.60867H1024.34V-8.13759H1019.5718L1008.0648-19.6406V-30.20612Z" fill="#ffffff"/>
<path transform="matrix(1,0,0,-1,-869.24,146.95099)" stroke-width=".3985" stroke-linecap="butt" stroke-miterlimit="10" stroke-linejoin="miter" fill="none" stroke="#000000" d="M1022.66629-15.60867H1024.34V-8.13759H1019.5718L1008.0648-19.6406V-30.20612Z"/>
<path transform="matrix(1,0,0,-1,-869.24,146.95099)" d="M996.11947-42.14848 1000.5927-37.6762V-27.11069L994.36697-33.33443 965.0436-21.18881 962.1833-28.09201Z" fill="#ffffff"/>
<path transform="matrix(1,0,0,-1,-869.24,146.95099)" stroke-width=".3985" stroke-linecap="butt" stroke-miterlimit="10" stroke-linejoin="miter" fill="none" stroke="#000000" d="M996.11947-42.14848 1000.5927-37.6762V-27.11069L994.36697-33.33443 965.0436-21.18881 962.1833-28.09201Z"/>
<path transform="matrix(1,0,0,-1,-869.24,146.95099)" d="M894.3577 0 955.2801-25.23369 958.1404-18.32948 913.88479 0 976.47286 25.92313 980.5167 35.68564Z" fill="#ffffff"/>
<path transform="matrix(1,0,0,-1,-869.24,146.95099)" stroke-width=".3985" stroke-linecap="butt" stroke-miterlimit="10" stroke-linejoin="miter" fill="none" stroke="#000000" d="M894.3577 0 955.2801-25.23369 958.1404-18.32948 913.88479 0 976.47286 25.92313 980.5167 35.68564Z"/>
<path transform="matrix(1,0,0,-1,-869.24,146.95099)" d="M996.11947 42.14848 990.27926 39.72952 986.23538 29.967 994.36697 33.33443 1010.91818 16.78825 1016.2024 22.07152Z" fill="#ffffff"/>
<path transform="matrix(1,0,0,-1,-869.24,146.95099)" stroke-width=".3985" stroke-linecap="butt" stroke-miterlimit="10" stroke-linejoin="miter" fill="none" stroke="#000000" d="M996.11947 42.14848 990.27926 39.72952 986.23538 29.967 994.36697 33.33443 1010.91818 16.78825 1016.2024 22.07152Z"/>
<path transform="matrix(1,0,0,-1,-869.24,146.95099)" d="M1022.66629 15.60867 1021.48666 16.78825 1016.2024 11.506 1019.5718 8.13759H1035.843L1043.3131 15.60867Z" fill="#ffffff"/>
<path transform="matrix(1,0,0,-1,-869.24,146.95099)" stroke-width=".3985" stroke-linecap="butt" stroke-miterlimit="10" stroke-linejoin="miter" fill="none" stroke="#000000" d="M1022.66629 15.60867 1021.48666 16.78825 1016.2024 11.506 1019.5718 8.13759H1035.843L1043.3131 15.60867Z"/>
</svg>
