<svg xmlns="http://www.w3.org/2000/svg" xmlns:xlink="http://www.w3.org/1999/xlink" xmlns:inkscape="http://www.inkscape.org/namespaces/inkscape" version="1.1" width="284.94" height="284.94" viewBox="0 0 284.94 284.94">
<path transform="matrix(1,0,0,-1,-1381.815,142.47202)" d="M1512.8862-19.77411 1520.1272-15.5937 1524.3036-22.82967 1528.48-15.5937 1535.721-19.77411V-11.41733H1544.0778L1539.8973-4.17639 1547.1333 0 1539.8973 4.17639 1544.0778 11.41733H1535.721V19.77411L1528.48 15.5937 1524.3036 22.82967 1520.1272 15.5937 1512.8862 19.77411V11.41733H1504.5294L1508.7098 4.17639 1501.4739 0 1508.7098-4.17639 1504.5294-11.41733H1512.8862Z" fill="#eaf2f6"/>
<path transform="matrix(1,0,0,-1,-1381.815,142.47202)" stroke-width=".3985" stroke-linecap="butt" stroke-miterlimit="10" stroke-linejoin="miter" fill="none" stroke="#000000" d="M1512.8862-19.77411 1520.1272-15.5937 1524.3036-22.82967 1528.48-15.5937 1535.721-19.77411V-11.41733H1544.0778L1539.8973-4.17639 1547.1333 0 1539.8973 4.17639 1544.0778 11.41733H1535.721V19.77411L1528.48 15.5937 1524.3036 22.82967 1520.1272 15.5937 1512.8862 19.77411V11.41733H1504.5294L1508.7098 4.17639 1501.4739 0 1508.7098-4.17639 1504.5294-11.41733H1512.8862Z"/>
<path transform="matrix(1,0,0,-1,-1381.815,142.47202)" d="M1512.8862-28.40285V-42.60876L1519.9898-30.30275 1517.3914-25.80156Z" fill="#d3d7d9"/>
<path transform="matrix(1,0,0,-1,-1381.815,142.47202)" stroke-width=".3985" stroke-linecap="butt" stroke-miterlimit="10" stroke-linejoin="miter" fill="none" stroke="#000000" d="M1512.8862-28.40285V-42.60876L1519.9898-30.30275 1517.3914-25.80156Z"/>
<path transform="matrix(1,0,0,-1,-1381.815,142.47202)" d="M1519.9898 30.30275 1512.8862 42.60876V28.40285L1517.3914 25.80156Z" fill="#d3d7d9"/>
<path transform="matrix(1,0,0,-1,-1381.815,142.47202)" stroke-width=".3985" stroke-linecap="butt" stroke-miterlimit="10" stroke-linejoin="miter" fill="none" stroke="#000000" d="M1519.9898 30.30275 1512.8862 42.60876V28.40285L1517.3914 25.80156Z"/>
<path transform="matrix(1,0,0,-1,-1381.815,142.47202)" d="M1543.193-24.08897 1555.495-31.19142 1548.3926-18.8894H1543.193Z" fill="#d3d7d9"/>
<path transform="matrix(1,0,0,-1,-1381.815,142.47202)" stroke-width=".3985" stroke-linecap="butt" stroke-miterlimit="10" stroke-linejoin="miter" fill="none" stroke="#000000" d="M1543.193-24.08897 1555.495-31.19142 1548.3926-18.8894H1543.193Z"/>
<path transform="matrix(1,0,0,-1,-1381.815,142.47202)" d="M1495.9008 11.41733H1481.6948L1494.0009 4.31387 1498.502 6.91217Z" fill="#d3d7d9"/>
<path transform="matrix(1,0,0,-1,-1381.815,142.47202)" stroke-width=".3985" stroke-linecap="butt" stroke-miterlimit="10" stroke-linejoin="miter" fill="none" stroke="#000000" d="M1495.9008 11.41733H1481.6948L1494.0009 4.31387 1498.502 6.91217Z"/>
<path transform="matrix(1,0,0,-1,-1381.815,142.47202)" d="M1554.6063 4.31387 1566.9124 11.41733H1552.7064L1550.1051 6.91217Z" fill="#d3d7d9"/>
<path transform="matrix(1,0,0,-1,-1381.815,142.47202)" stroke-width=".3985" stroke-linecap="butt" stroke-miterlimit="10" stroke-linejoin="miter" fill="none" stroke="#000000" d="M1554.6063 4.31387 1566.9124 11.41733H1552.7064L1550.1051 6.91217Z"/>
<path transform="matrix(1,0,0,-1,-1381.815,142.47202)" d="M1500.2146-18.8894 1493.1122-31.19142 1505.4142-24.08897V-18.8894Z" fill="#d3d7d9"/>
<path transform="matrix(1,0,0,-1,-1381.815,142.47202)" stroke-width=".3985" stroke-linecap="butt" stroke-miterlimit="10" stroke-linejoin="miter" fill="none" stroke="#000000" d="M1500.2146-18.8894 1493.1122-31.19142 1505.4142-24.08897V-18.8894Z"/>
<path transform="matrix(1,0,0,-1,-1381.815,142.47202)" d="M1535.721 28.40285V42.60876L1528.6174 30.30275 1531.2158 25.80156Z" fill="#d3d7d9"/>
<path transform="matrix(1,0,0,-1,-1381.815,142.47202)" stroke-width=".3985" stroke-linecap="butt" stroke-miterlimit="10" stroke-linejoin="miter" fill="none" stroke="#000000" d="M1535.721 28.40285V42.60876L1528.6174 30.30275 1531.2158 25.80156Z"/>
<path transform="matrix(1,0,0,-1,-1381.815,142.47202)" d="M1528.6174-30.30275 1535.721-42.60876V-28.40285L1531.2158-25.80156Z" fill="#d3d7d9"/>
<path transform="matrix(1,0,0,-1,-1381.815,142.47202)" stroke-width=".3985" stroke-linecap="butt" stroke-miterlimit="10" stroke-linejoin="miter" fill="none" stroke="#000000" d="M1528.6174-30.30275 1535.721-42.60876V-28.40285L1531.2158-25.80156Z"/>
<path transform="matrix(1,0,0,-1,-1381.815,142.47202)" d="M1505.4142 24.08897 1493.1122 31.19142 1500.2146 18.8894H1505.4142Z" fill="#d3d7d9"/>
<path transform="matrix(1,0,0,-1,-1381.815,142.47202)" stroke-width=".3985" stroke-linecap="butt" stroke-miterlimit="10" stroke-linejoin="miter" fill="none" stroke="#000000" d="M1505.4142 24.08897 1493.1122 31.19142 1500.2146 18.8894H1505.4142Z"/>
<path transform="matrix(1,0,0,-1,-1381.815,142.47202)" d="M1552.7064-11.41733H1566.9124L1554.6063-4.31387 1550.1051-6.91217Z" fill="#d3d7d9"/>
<path transform="matrix(1,0,0,-1,-1381.815,142.47202)" stroke-width=".3985" stroke-linecap="butt" stroke-miterlimit="10" stroke-linejoin="miter" fill="none" stroke="#000000" d="M1552.7064-11.41733H1566.9124L1554.6063-4.31387 1550.1051-6.91217Z"/>
<path transform="matrix(1,0,0,-1,-1381.815,142.47202)" d="M1494.0009-4.31387 1481.6948-11.41733H1495.9008L1498.502-6.91217Z" fill="#d3d7d9"/>
<path transform="matrix(1,0,0,-1,-1381.815,142.47202)" stroke-width=".3985" stroke-linecap="butt" stroke-miterlimit="10" stroke-linejoin="miter" fill="none" stroke="#000000" d="M1494.0009-4.31387 1481.6948-11.41733H1495.9008L1498.502-6.91217Z"/>
<path transform="matrix(1,0,0,-1,-1381.815,142.47202)" d="M1543.193 24.08897V18.8894H1548.3926L1555.495 31.19142Z" fill="#d3d7d9"/>
<path transform="matrix(1,0,0,-1,-1381.815,142.47202)" stroke-width=".3985" stroke-linecap="butt" stroke-miterlimit="10" stroke-linejoin="miter" fill="none" stroke="#000000" d="M1543.193 24.08897V18.8894H1548.3926L1555.495 31.19142Z"/>
<path transform="matrix(1,0,0,-1,-1381.815,142.47202)" d="M1568.4376 38.6645 1557.0203 18.8894H1579.8569L1595.0691 27.6706 1592.0095 39.0919 1583.6528 47.44868Z" fill="#6f8396"/>
<path transform="matrix(1,0,0,-1,-1381.815,142.47202)" stroke-width=".3985" stroke-linecap="butt" stroke-miterlimit="10" stroke-linejoin="miter" fill="none" stroke="#000000" d="M1568.4376 38.6645 1557.0203 18.8894H1579.8569L1595.0691 27.6706 1592.0095 39.0919 1583.6528 47.44868Z"/>
<path transform="matrix(1,0,0,-1,-1381.815,142.47202)" d="M1505.4142-55.55339V-32.71674L1485.639-44.13406 1476.8549-59.3492 1485.2117-67.70598 1496.6329-70.76553Z" fill="#6f8396"/>
<path transform="matrix(1,0,0,-1,-1381.815,142.47202)" stroke-width=".3985" stroke-linecap="butt" stroke-miterlimit="10" stroke-linejoin="miter" fill="none" stroke="#000000" d="M1505.4142-55.55339V-32.71674L1485.639-44.13406 1476.8549-59.3492 1485.2117-67.70598 1496.6329-70.76553Z"/>
<path transform="matrix(1,0,0,-1,-1381.815,142.47202)" d="M1512.8862 57.55492 1524.3036 37.77583 1535.721 57.55492V75.11926L1524.3036 78.17883 1512.8862 75.11926Z" fill="#6f8396"/>
<path transform="matrix(1,0,0,-1,-1381.815,142.47202)" stroke-width=".3985" stroke-linecap="butt" stroke-miterlimit="10" stroke-linejoin="miter" fill="none" stroke="#000000" d="M1512.8862 57.55492 1524.3036 37.77583 1535.721 57.55492V75.11926L1524.3036 78.17883 1512.8862 75.11926Z"/>
<path transform="matrix(1,0,0,-1,-1381.815,142.47202)" d="M1562.9682-44.13406 1543.193-32.71674V-55.55339L1551.9741-70.76553 1563.3955-67.70598 1571.7523-59.3492Z" fill="#6f8396"/>
<path transform="matrix(1,0,0,-1,-1381.815,142.47202)" stroke-width=".3985" stroke-linecap="butt" stroke-miterlimit="10" stroke-linejoin="miter" fill="none" stroke="#000000" d="M1562.9682-44.13406 1543.193-32.71674V-55.55339L1551.9741-70.76553 1563.3955-67.70598 1571.7523-59.3492Z"/>
<path transform="matrix(1,0,0,-1,-1381.815,142.47202)" d="M1512.8862-57.55492V-75.11926L1524.3036-78.17883 1535.721-75.11926V-57.55492L1524.3036-37.77583Z" fill="#6f8396"/>
<path transform="matrix(1,0,0,-1,-1381.815,142.47202)" stroke-width=".3985" stroke-linecap="butt" stroke-miterlimit="10" stroke-linejoin="miter" fill="none" stroke="#000000" d="M1512.8862-57.55492V-75.11926L1524.3036-78.17883 1535.721-75.11926V-57.55492L1524.3036-37.77583Z"/>
<path transform="matrix(1,0,0,-1,-1381.815,142.47202)" d="M1468.7501 18.8894H1491.5868L1480.1696 38.6645 1464.9544 47.44868 1456.5977 39.0919 1453.5381 27.6706Z" fill="#6f8396"/>
<path transform="matrix(1,0,0,-1,-1381.815,142.47202)" stroke-width=".3985" stroke-linecap="butt" stroke-miterlimit="10" stroke-linejoin="miter" fill="none" stroke="#000000" d="M1468.7501 18.8894H1491.5868L1480.1696 38.6645 1464.9544 47.44868 1456.5977 39.0919 1453.5381 27.6706Z"/>
<path transform="matrix(1,0,0,-1,-1381.815,142.47202)" d="M1505.4142 55.55339 1496.6329 70.76553 1485.2117 67.70598 1476.8549 59.3492 1485.639 44.13406 1505.4142 32.71674Z" fill="#6f8396"/>
<path transform="matrix(1,0,0,-1,-1381.815,142.47202)" stroke-width=".3985" stroke-linecap="butt" stroke-miterlimit="10" stroke-linejoin="miter" fill="none" stroke="#000000" d="M1505.4142 55.55339 1496.6329 70.76553 1485.2117 67.70598 1476.8549 59.3492 1485.639 44.13406 1505.4142 32.71674Z"/>
<path transform="matrix(1,0,0,-1,-1381.815,142.47202)" d="M1581.8585 11.41733 1562.0795 0 1581.8585-11.41733H1599.4229L1602.4824 0 1599.4229 11.41733Z" fill="#6f8396"/>
<path transform="matrix(1,0,0,-1,-1381.815,142.47202)" stroke-width=".3985" stroke-linecap="butt" stroke-miterlimit="10" stroke-linejoin="miter" fill="none" stroke="#000000" d="M1581.8585 11.41733 1562.0795 0 1581.8585-11.41733H1599.4229L1602.4824 0 1599.4229 11.41733Z"/>
<path transform="matrix(1,0,0,-1,-1381.815,142.47202)" d="M1568.4376-38.6645 1583.6528-47.44868 1592.0095-39.0919 1595.0691-27.6706 1579.8569-18.8894H1557.0203Z" fill="#6f8396"/>
<path transform="matrix(1,0,0,-1,-1381.815,142.47202)" stroke-width=".3985" stroke-linecap="butt" stroke-miterlimit="10" stroke-linejoin="miter" fill="none" stroke="#000000" d="M1568.4376-38.6645 1583.6528-47.44868 1592.0095-39.0919 1595.0691-27.6706 1579.8569-18.8894H1557.0203Z"/>
<path transform="matrix(1,0,0,-1,-1381.815,142.47202)" d="M1480.1696-38.6645 1491.5868-18.8894H1468.7501L1453.5381-27.6706 1456.5977-39.0919 1464.9544-47.44868Z" fill="#6f8396"/>
<path transform="matrix(1,0,0,-1,-1381.815,142.47202)" stroke-width=".3985" stroke-linecap="butt" stroke-miterlimit="10" stroke-linejoin="miter" fill="none" stroke="#000000" d="M1480.1696-38.6645 1491.5868-18.8894H1468.7501L1453.5381-27.6706 1456.5977-39.0919 1464.9544-47.44868Z"/>
<path transform="matrix(1,0,0,-1,-1381.815,142.47202)" d="M1466.7487 11.41733H1449.1843L1446.1248 0 1449.1843-11.41733H1466.7487L1486.5277 0Z" fill="#6f8396"/>
<path transform="matrix(1,0,0,-1,-1381.815,142.47202)" stroke-width=".3985" stroke-linecap="butt" stroke-miterlimit="10" stroke-linejoin="miter" fill="none" stroke="#000000" d="M1466.7487 11.41733H1449.1843L1446.1248 0 1449.1843-11.41733H1466.7487L1486.5277 0Z"/>
<path transform="matrix(1,0,0,-1,-1381.815,142.47202)" d="M1543.193 55.55339V32.71674L1562.9682 44.13406 1571.7523 59.3492 1563.3955 67.70598 1551.9741 70.76553Z" fill="#6f8396"/>
<path transform="matrix(1,0,0,-1,-1381.815,142.47202)" stroke-width=".3985" stroke-linecap="butt" stroke-miterlimit="10" stroke-linejoin="miter" fill="none" stroke="#000000" d="M1543.193 55.55339V32.71674L1562.9682 44.13406 1571.7523 59.3492 1563.3955 67.70598 1551.9741 70.76553Z"/>
<path transform="matrix(1,0,0,-1,-1381.815,142.47202)" d="M1606.35 14.43504 1608.5298 22.57164 1602.576 28.5244 1603.7716 24.06606 1594.8031 18.8894H1605.1564Z" fill="#676782"/>
<path transform="matrix(1,0,0,-1,-1381.815,142.47202)" stroke-width=".3985" stroke-linecap="butt" stroke-miterlimit="10" stroke-linejoin="miter" fill="none" stroke="#000000" d="M1606.35 14.43504 1608.5298 22.57164 1602.576 28.5244 1603.7716 24.06606 1594.8031 18.8894H1605.1564Z"/>
<path transform="matrix(1,0,0,-1,-1381.815,142.47202)" d="M1543.193-70.49953V-80.85284L1538.7387-82.04637 1546.8753-84.22623 1552.828-78.27249 1548.3696-79.46802Z" fill="#676782"/>
<path transform="matrix(1,0,0,-1,-1381.815,142.47202)" stroke-width=".3985" stroke-linecap="butt" stroke-miterlimit="10" stroke-linejoin="miter" fill="none" stroke="#000000" d="M1543.193-70.49953V-80.85284L1538.7387-82.04637 1546.8753-84.22623 1552.828-78.27249 1548.3696-79.46802Z"/>
<path transform="matrix(1,0,0,-1,-1381.815,142.47202)" d="M1460.4652-53.52696 1462.645-61.65858 1470.7766-63.83842 1467.5169-60.5776 1472.6964-51.60713 1463.726-56.78677Z" fill="#676782"/>
<path transform="matrix(1,0,0,-1,-1381.815,142.47202)" stroke-width=".3985" stroke-linecap="butt" stroke-miterlimit="10" stroke-linejoin="miter" fill="none" stroke="#000000" d="M1460.4652-53.52696 1462.645-61.65858 1470.7766-63.83842 1467.5169-60.5776 1472.6964-51.60713 1463.726-56.78677Z"/>
<path transform="matrix(1,0,0,-1,-1381.815,142.47202)" d="M1472.6964 51.60713 1467.5169 60.5776 1470.7766 63.83842 1462.645 61.65858 1460.4652 53.52696 1463.726 56.78677Z" fill="#676782"/>
<path transform="matrix(1,0,0,-1,-1381.815,142.47202)" stroke-width=".3985" stroke-linecap="butt" stroke-miterlimit="10" stroke-linejoin="miter" fill="none" stroke="#000000" d="M1472.6964 51.60713 1467.5169 60.5776 1470.7766 63.83842 1462.645 61.65858 1460.4652 53.52696 1463.726 56.78677Z"/>
<path transform="matrix(1,0,0,-1,-1381.815,142.47202)" d="M1552.828 78.27249 1546.8753 84.22623 1538.7387 82.04637 1543.193 80.85284V70.49953L1548.3696 79.46802Z" fill="#676782"/>
<path transform="matrix(1,0,0,-1,-1381.815,142.47202)" stroke-width=".3985" stroke-linecap="butt" stroke-miterlimit="10" stroke-linejoin="miter" fill="none" stroke="#000000" d="M1552.828 78.27249 1546.8753 84.22623 1538.7387 82.04637 1543.193 80.85284V70.49953L1548.3696 79.46802Z"/>
<path transform="matrix(1,0,0,-1,-1381.815,142.47202)" d="M1594.8031-18.8894 1603.7716-24.06606 1602.576-28.5244 1608.5298-22.57164 1606.35-14.43504 1605.1564-18.8894Z" fill="#676782"/>
<path transform="matrix(1,0,0,-1,-1381.815,142.47202)" stroke-width=".3985" stroke-linecap="butt" stroke-miterlimit="10" stroke-linejoin="miter" fill="none" stroke="#000000" d="M1594.8031-18.8894 1603.7716-24.06606 1602.576-28.5244 1608.5298-22.57164 1606.35-14.43504 1605.1564-18.8894Z"/>
<path transform="matrix(1,0,0,-1,-1381.815,142.47202)" d="M1453.8041-18.8894H1443.4507L1442.2572-14.43504 1440.0774-22.57164 1446.0311-28.5244 1444.8356-24.06606Z" fill="#676782"/>
<path transform="matrix(1,0,0,-1,-1381.815,142.47202)" stroke-width=".3985" stroke-linecap="butt" stroke-miterlimit="10" stroke-linejoin="miter" fill="none" stroke="#000000" d="M1453.8041-18.8894H1443.4507L1442.2572-14.43504 1440.0774-22.57164 1446.0311-28.5244 1444.8356-24.06606Z"/>
<path transform="matrix(1,0,0,-1,-1381.815,142.47202)" d="M1575.9108 51.60713 1584.8812 56.78677 1588.142 53.52696 1585.9622 61.65858 1577.8306 63.83842 1581.0903 60.5776Z" fill="#676782"/>
<path transform="matrix(1,0,0,-1,-1381.815,142.47202)" stroke-width=".3985" stroke-linecap="butt" stroke-miterlimit="10" stroke-linejoin="miter" fill="none" stroke="#000000" d="M1575.9108 51.60713 1584.8812 56.78677 1588.142 53.52696 1585.9622 61.65858 1577.8306 63.83842 1581.0903 60.5776Z"/>
<path transform="matrix(1,0,0,-1,-1381.815,142.47202)" d="M1505.4142-70.49953 1500.2376-79.46802 1495.7792-78.27249 1501.7319-84.22623 1509.8685-82.04637 1505.4142-80.85284Z" fill="#676782"/>
<path transform="matrix(1,0,0,-1,-1381.815,142.47202)" stroke-width=".3985" stroke-linecap="butt" stroke-miterlimit="10" stroke-linejoin="miter" fill="none" stroke="#000000" d="M1505.4142-70.49953 1500.2376-79.46802 1495.7792-78.27249 1501.7319-84.22623 1509.8685-82.04637 1505.4142-80.85284Z"/>
<path transform="matrix(1,0,0,-1,-1381.815,142.47202)" d="M1505.4142 70.49953V80.85284L1509.8685 82.04637 1501.7319 84.22623 1495.7792 78.27249 1500.2376 79.46802Z" fill="#676782"/>
<path transform="matrix(1,0,0,-1,-1381.815,142.47202)" stroke-width=".3985" stroke-linecap="butt" stroke-miterlimit="10" stroke-linejoin="miter" fill="none" stroke="#000000" d="M1505.4142 70.49953V80.85284L1509.8685 82.04637 1501.7319 84.22623 1495.7792 78.27249 1500.2376 79.46802Z"/>
<path transform="matrix(1,0,0,-1,-1381.815,142.47202)" d="M1575.9108-51.60713 1581.0903-60.5776 1577.8306-63.83842 1585.9622-61.65858 1588.142-53.52696 1584.8812-56.78677Z" fill="#676782"/>
<path transform="matrix(1,0,0,-1,-1381.815,142.47202)" stroke-width=".3985" stroke-linecap="butt" stroke-miterlimit="10" stroke-linejoin="miter" fill="none" stroke="#000000" d="M1575.9108-51.60713 1581.0903-60.5776 1577.8306-63.83842 1585.9622-61.65858 1588.142-53.52696 1584.8812-56.78677Z"/>
<path transform="matrix(1,0,0,-1,-1381.815,142.47202)" d="M1453.8041 18.8894 1444.8356 24.06606 1446.0311 28.5244 1440.0774 22.57164 1442.2572 14.43504 1443.4507 18.8894Z" fill="#676782"/>
<path transform="matrix(1,0,0,-1,-1381.815,142.47202)" stroke-width=".3985" stroke-linecap="butt" stroke-miterlimit="10" stroke-linejoin="miter" fill="none" stroke="#000000" d="M1453.8041 18.8894 1444.8356 24.06606 1446.0311 28.5244 1440.0774 22.57164 1442.2572 14.43504 1443.4507 18.8894Z"/>
<path transform="matrix(1,0,0,-1,-1381.815,142.47202)" d="M1614.631 16.47044 1610.2175 0 1614.631-16.47044 1631.1015 0Z" fill="#6e7bb3"/>
<path transform="matrix(1,0,0,-1,-1381.815,142.47202)" stroke-width=".3985" stroke-linecap="butt" stroke-miterlimit="10" stroke-linejoin="miter" fill="none" stroke="#000000" d="M1614.631 16.47044 1610.2175 0 1614.631-16.47044 1631.1015 0Z"/>
<path transform="matrix(1,0,0,-1,-1381.815,142.47202)" d="M1454.3102-59.4259 1449.8987-42.95944 1437.8438-30.90549 1431.8173-53.39845Z" fill="#6e7bb3"/>
<path transform="matrix(1,0,0,-1,-1381.815,142.47202)" stroke-width=".3985" stroke-linecap="butt" stroke-miterlimit="10" stroke-linejoin="miter" fill="none" stroke="#000000" d="M1454.3102-59.4259 1449.8987-42.95944 1437.8438-30.90549 1431.8173-53.39845Z"/>
<path transform="matrix(1,0,0,-1,-1381.815,142.47202)" d="M1555.2091 86.45988 1567.2631 74.40494 1583.7295 69.99342 1577.702 92.48636Z" fill="#6e7bb3"/>
<path transform="matrix(1,0,0,-1,-1381.815,142.47202)" stroke-width=".3985" stroke-linecap="butt" stroke-miterlimit="10" stroke-linejoin="miter" fill="none" stroke="#000000" d="M1555.2091 86.45988 1567.2631 74.40494 1583.7295 69.99342 1577.702 92.48636Z"/>
<path transform="matrix(1,0,0,-1,-1381.815,142.47202)" d="M1540.774-90.32742 1524.3036-85.91393 1507.8331-90.32742 1524.3036-106.79788Z" fill="#6e7bb3"/>
<path transform="matrix(1,0,0,-1,-1381.815,142.47202)" stroke-width=".3985" stroke-linecap="butt" stroke-miterlimit="10" stroke-linejoin="miter" fill="none" stroke="#000000" d="M1540.774-90.32742 1524.3036-85.91393 1507.8331-90.32742 1524.3036-106.79788Z"/>
<path transform="matrix(1,0,0,-1,-1381.815,142.47202)" d="M1464.8777 69.99342 1481.3441 74.40494 1493.3981 86.45988 1470.9052 92.48636Z" fill="#6e7bb3"/>
<path transform="matrix(1,0,0,-1,-1381.815,142.47202)" stroke-width=".3985" stroke-linecap="butt" stroke-miterlimit="10" stroke-linejoin="miter" fill="none" stroke="#000000" d="M1464.8777 69.99342 1481.3441 74.40494 1493.3981 86.45988 1470.9052 92.48636Z"/>
<path transform="matrix(1,0,0,-1,-1381.815,142.47202)" d="M1610.7634-30.90549 1598.7085-42.95944 1594.297-59.4259 1616.7899-53.39845Z" fill="#6e7bb3"/>
<path transform="matrix(1,0,0,-1,-1381.815,142.47202)" stroke-width=".3985" stroke-linecap="butt" stroke-miterlimit="10" stroke-linejoin="miter" fill="none" stroke="#000000" d="M1610.7634-30.90549 1598.7085-42.95944 1594.297-59.4259 1616.7899-53.39845Z"/>
<path transform="matrix(1,0,0,-1,-1381.815,142.47202)" d="M1433.9762-16.47044 1438.3897 0 1433.9762 16.47044 1417.5057 0Z" fill="#6e7bb3"/>
<path transform="matrix(1,0,0,-1,-1381.815,142.47202)" stroke-width=".3985" stroke-linecap="butt" stroke-miterlimit="10" stroke-linejoin="miter" fill="none" stroke="#000000" d="M1433.9762-16.47044 1438.3897 0 1433.9762 16.47044 1417.5057 0Z"/>
<path transform="matrix(1,0,0,-1,-1381.815,142.47202)" d="M1594.297 59.4259 1598.7085 42.95944 1610.7634 30.90549 1616.7899 53.39845Z" fill="#6e7bb3"/>
<path transform="matrix(1,0,0,-1,-1381.815,142.47202)" stroke-width=".3985" stroke-linecap="butt" stroke-miterlimit="10" stroke-linejoin="miter" fill="none" stroke="#000000" d="M1594.297 59.4259 1598.7085 42.95944 1610.7634 30.90549 1616.7899 53.39845Z"/>
<path transform="matrix(1,0,0,-1,-1381.815,142.47202)" d="M1555.2091-86.45988 1577.702-92.48636 1583.7295-69.99342 1567.2631-74.40494Z" fill="#6e7bb3"/>
<path transform="matrix(1,0,0,-1,-1381.815,142.47202)" stroke-width=".3985" stroke-linecap="butt" stroke-miterlimit="10" stroke-linejoin="miter" fill="none" stroke="#000000" d="M1555.2091-86.45988 1577.702-92.48636 1583.7295-69.99342 1567.2631-74.40494Z"/>
<path transform="matrix(1,0,0,-1,-1381.815,142.47202)" d="M1493.3981-86.45988 1481.3441-74.40494 1464.8777-69.99342 1470.9052-92.48636Z" fill="#6e7bb3"/>
<path transform="matrix(1,0,0,-1,-1381.815,142.47202)" stroke-width=".3985" stroke-linecap="butt" stroke-miterlimit="10" stroke-linejoin="miter" fill="none" stroke="#000000" d="M1493.3981-86.45988 1481.3441-74.40494 1464.8777-69.99342 1470.9052-92.48636Z"/>
<path transform="matrix(1,0,0,-1,-1381.815,142.47202)" d="M1454.3102 59.4259 1431.8173 53.39845 1437.8438 30.90549 1449.8987 42.95944Z" fill="#6e7bb3"/>
<path transform="matrix(1,0,0,-1,-1381.815,142.47202)" stroke-width=".3985" stroke-linecap="butt" stroke-miterlimit="10" stroke-linejoin="miter" fill="none" stroke="#000000" d="M1454.3102 59.4259 1431.8173 53.39845 1437.8438 30.90549 1449.8987 42.95944Z"/>
<path transform="matrix(1,0,0,-1,-1381.815,142.47202)" d="M1507.8331 90.32742 1524.3036 85.91393 1540.774 90.32742 1524.3036 106.79788Z" fill="#6e7bb3"/>
<path transform="matrix(1,0,0,-1,-1381.815,142.47202)" stroke-width=".3985" stroke-linecap="butt" stroke-miterlimit="10" stroke-linejoin="miter" fill="none" stroke="#000000" d="M1507.8331 90.32742 1524.3036 85.91393 1540.774 90.32742 1524.3036 106.79788Z"/>
<path transform="matrix(1,0,0,-1,-1381.815,142.47202)" d="M1543.193 18.8894V24.08897L1535.721 19.77411V11.41733H1566.9124L1579.8569 18.8894Z" fill="#ffffff"/>
<path transform="matrix(1,0,0,-1,-1381.815,142.47202)" stroke-width=".3985" stroke-linecap="butt" stroke-miterlimit="10" stroke-linejoin="miter" fill="none" stroke="#000000" d="M1543.193 18.8894V24.08897L1535.721 19.77411V11.41733H1566.9124L1579.8569 18.8894Z"/>
<path transform="matrix(1,0,0,-1,-1381.815,142.47202)" d="M1605.1564 18.8894H1594.8031L1581.8585 11.41733H1599.4229L1608.5298-22.57164 1614.631-16.47044Z" fill="#ffffff"/>
<path transform="matrix(1,0,0,-1,-1381.815,142.47202)" stroke-width=".3985" stroke-linecap="butt" stroke-miterlimit="10" stroke-linejoin="miter" fill="none" stroke="#000000" d="M1605.1564 18.8894H1594.8031L1581.8585 11.41733H1599.4229L1608.5298-22.57164 1614.631-16.47044Z"/>
<path transform="matrix(1,0,0,-1,-1381.815,142.47202)" d="M1625.9418-58.68268 1616.8637-24.8043 1610.7634-30.90549 1616.7899-53.39845 1577.8306-63.83842 1567.2631-74.40494Z" fill="#ffffff"/>
<path transform="matrix(1,0,0,-1,-1381.815,142.47202)" stroke-width=".3985" stroke-linecap="butt" stroke-miterlimit="10" stroke-linejoin="miter" fill="none" stroke="#000000" d="M1625.9418-58.68268 1616.8637-24.8043 1610.7634-30.90549 1616.7899-53.39845 1577.8306-63.83842 1567.2631-74.40494Z"/>
<path transform="matrix(1,0,0,-1,-1381.815,142.47202)" d="M1548.3696-79.46802 1552.828-78.27249 1563.3955-67.70598 1551.9741-70.76553 1528.6174-30.30275 1524.3036-37.77583Z" fill="#ffffff"/>
<path transform="matrix(1,0,0,-1,-1381.815,142.47202)" stroke-width=".3985" stroke-linecap="butt" stroke-miterlimit="10" stroke-linejoin="miter" fill="none" stroke="#000000" d="M1548.3696-79.46802 1552.828-78.27249 1563.3955-67.70598 1551.9741-70.76553 1528.6174-30.30275 1524.3036-37.77583Z"/>
<path transform="matrix(1,0,0,-1,-1381.815,142.47202)" d="M1517.3914-25.80156 1519.9898-30.30275 1524.3036-22.82967 1520.1272-15.5937 1493.1122-31.19142 1485.639-44.13406Z" fill="#ffffff"/>
<path transform="matrix(1,0,0,-1,-1381.815,142.47202)" stroke-width=".3985" stroke-linecap="butt" stroke-miterlimit="10" stroke-linejoin="miter" fill="none" stroke="#000000" d="M1517.3914-25.80156 1519.9898-30.30275 1524.3036-22.82967 1520.1272-15.5937 1493.1122-31.19142 1485.639-44.13406Z"/>
<path transform="matrix(1,0,0,-1,-1381.815,142.47202)" d="M1463.726-56.78677 1472.6964-51.60713 1480.1696-38.6645 1464.9544-47.44868 1440.0774-22.57164 1437.8438-30.90549Z" fill="#ffffff"/>
<path transform="matrix(1,0,0,-1,-1381.815,142.47202)" stroke-width=".3985" stroke-linecap="butt" stroke-miterlimit="10" stroke-linejoin="miter" fill="none" stroke="#000000" d="M1463.726-56.78677 1472.6964-51.60713 1480.1696-38.6645 1464.9544-47.44868 1440.0774-22.57164 1437.8438-30.90549Z"/>
<path transform="matrix(1,0,0,-1,-1381.815,142.47202)" d="M1406.9392 0 1431.7435-24.8043 1433.9762-16.47044 1417.5057 0 1446.0311 28.5244 1449.8987 42.95944Z" fill="#ffffff"/>
<path transform="matrix(1,0,0,-1,-1381.815,142.47202)" stroke-width=".3985" stroke-linecap="butt" stroke-miterlimit="10" stroke-linejoin="miter" fill="none" stroke="#000000" d="M1406.9392 0 1431.7435-24.8043 1433.9762-16.47044 1417.5057 0 1446.0311 28.5244 1449.8987 42.95944Z"/>
<path transform="matrix(1,0,0,-1,-1381.815,142.47202)" d="M1463.726 56.78677 1460.4652 53.52696 1456.5977 39.0919 1464.9544 47.44868 1505.4142 24.08897V32.71674Z" fill="#ffffff"/>
<path transform="matrix(1,0,0,-1,-1381.815,142.47202)" stroke-width=".3985" stroke-linecap="butt" stroke-miterlimit="10" stroke-linejoin="miter" fill="none" stroke="#000000" d="M1463.726 56.78677 1460.4652 53.52696 1456.5977 39.0919 1464.9544 47.44868 1505.4142 24.08897V32.71674Z"/>
<path transform="matrix(1,0,0,-1,-1381.815,142.47202)" d="M1517.3914 25.80156 1512.8862 28.40285V19.77411L1520.1272 15.5937 1535.721 42.60876V57.55492Z" fill="#ffffff"/>
<path transform="matrix(1,0,0,-1,-1381.815,142.47202)" stroke-width=".3985" stroke-linecap="butt" stroke-miterlimit="10" stroke-linejoin="miter" fill="none" stroke="#000000" d="M1517.3914 25.80156 1512.8862 28.40285V19.77411L1520.1272 15.5937 1535.721 42.60876V57.55492Z"/>
<path transform="matrix(1,0,0,-1,-1381.815,142.47202)" d="M1548.3696 79.46802 1543.193 70.49953V55.55339L1551.9741 70.76553 1585.9622 61.65858 1583.7295 69.99342Z" fill="#ffffff"/>
<path transform="matrix(1,0,0,-1,-1381.815,142.47202)" stroke-width=".3985" stroke-linecap="butt" stroke-miterlimit="10" stroke-linejoin="miter" fill="none" stroke="#000000" d="M1548.3696 79.46802 1543.193 70.49953V55.55339L1551.9741 70.76553 1585.9622 61.65858 1583.7295 69.99342Z"/>
<path transform="matrix(1,0,0,-1,-1381.815,142.47202)" d="M1625.9418 58.68268 1592.0634 67.75977 1594.297 59.4259 1616.7899 53.39845 1606.35 14.43504 1610.2175 0Z" fill="#ffffff"/>
<path transform="matrix(1,0,0,-1,-1381.815,142.47202)" stroke-width=".3985" stroke-linecap="butt" stroke-miterlimit="10" stroke-linejoin="miter" fill="none" stroke="#000000" d="M1625.9418 58.68268 1592.0634 67.75977 1594.297 59.4259 1616.7899 53.39845 1606.35 14.43504 1610.2175 0Z"/>
<path transform="matrix(1,0,0,-1,-1381.815,142.47202)" d="M1605.1564-18.8894 1606.35-14.43504 1602.4824 0 1599.4229-11.41733H1552.7064L1557.0203-18.8894Z" fill="#ffffff"/>
<path transform="matrix(1,0,0,-1,-1381.815,142.47202)" stroke-width=".3985" stroke-linecap="butt" stroke-miterlimit="10" stroke-linejoin="miter" fill="none" stroke="#000000" d="M1605.1564-18.8894 1606.35-14.43504 1602.4824 0 1599.4229-11.41733H1552.7064L1557.0203-18.8894Z"/>
<path transform="matrix(1,0,0,-1,-1381.815,142.47202)" d="M1543.193-18.8894H1548.3926L1544.0778-11.41733H1535.721V-42.60876L1543.193-55.55339Z" fill="#ffffff"/>
<path transform="matrix(1,0,0,-1,-1381.815,142.47202)" stroke-width=".3985" stroke-linecap="butt" stroke-miterlimit="10" stroke-linejoin="miter" fill="none" stroke="#000000" d="M1543.193-18.8894H1548.3926L1544.0778-11.41733H1535.721V-42.60876L1543.193-55.55339Z"/>
<path transform="matrix(1,0,0,-1,-1381.815,142.47202)" d="M1543.193-80.85284V-70.49953L1535.721-57.55492V-75.11926L1501.7319-84.22623 1507.8331-90.32742Z" fill="#ffffff"/>
<path transform="matrix(1,0,0,-1,-1381.815,142.47202)" stroke-width=".3985" stroke-linecap="butt" stroke-miterlimit="10" stroke-linejoin="miter" fill="none" stroke="#000000" d="M1543.193-80.85284V-70.49953L1535.721-57.55492V-75.11926L1501.7319-84.22623 1507.8331-90.32742Z"/>
<path transform="matrix(1,0,0,-1,-1381.815,142.47202)" d="M1465.6209-101.63817 1499.4993-92.56009 1493.3981-86.45988 1470.9052-92.48636 1460.4652-53.52696 1449.8987-42.95944Z" fill="#ffffff"/>
<path transform="matrix(1,0,0,-1,-1381.815,142.47202)" stroke-width=".3985" stroke-linecap="butt" stroke-miterlimit="10" stroke-linejoin="miter" fill="none" stroke="#000000" d="M1465.6209-101.63817 1499.4993-92.56009 1493.3981-86.45988 1470.9052-92.48636 1460.4652-53.52696 1449.8987-42.95944Z"/>
<path transform="matrix(1,0,0,-1,-1381.815,142.47202)" d="M1444.8356-24.06606 1446.0311-28.5244 1456.5977-39.0919 1453.5381-27.6706 1494.0009-4.31387 1486.5277 0Z" fill="#ffffff"/>
<path transform="matrix(1,0,0,-1,-1381.815,142.47202)" stroke-width=".3985" stroke-linecap="butt" stroke-miterlimit="10" stroke-linejoin="miter" fill="none" stroke="#000000" d="M1444.8356-24.06606 1446.0311-28.5244 1456.5977-39.0919 1453.5381-27.6706 1494.0009-4.31387 1486.5277 0Z"/>
<path transform="matrix(1,0,0,-1,-1381.815,142.47202)" d="M1498.502 6.91217 1494.0009 4.31387 1501.4739 0 1508.7098 4.17639 1493.1122 31.19142 1480.1696 38.6645Z" fill="#ffffff"/>
<path transform="matrix(1,0,0,-1,-1381.815,142.47202)" stroke-width=".3985" stroke-linecap="butt" stroke-miterlimit="10" stroke-linejoin="miter" fill="none" stroke="#000000" d="M1498.502 6.91217 1494.0009 4.31387 1501.4739 0 1508.7098 4.17639 1493.1122 31.19142 1480.1696 38.6645Z"/>
<path transform="matrix(1,0,0,-1,-1381.815,142.47202)" d="M1467.5169 60.5776 1472.6964 51.60713 1485.639 44.13406 1476.8549 59.3492 1501.7319 84.22623 1493.3981 86.45988Z" fill="#ffffff"/>
<path transform="matrix(1,0,0,-1,-1381.815,142.47202)" stroke-width=".3985" stroke-linecap="butt" stroke-miterlimit="10" stroke-linejoin="miter" fill="none" stroke="#000000" d="M1467.5169 60.5776 1472.6964 51.60713 1485.639 44.13406 1476.8549 59.3492 1501.7319 84.22623 1493.3981 86.45988Z"/>
<path transform="matrix(1,0,0,-1,-1381.815,142.47202)" d="M1524.3036 117.3644 1499.4993 92.56009 1507.8331 90.32742 1524.3036 106.79788 1552.828 78.27249 1567.2631 74.40494Z" fill="#ffffff"/>
<path transform="matrix(1,0,0,-1,-1381.815,142.47202)" stroke-width=".3985" stroke-linecap="butt" stroke-miterlimit="10" stroke-linejoin="miter" fill="none" stroke="#000000" d="M1524.3036 117.3644 1499.4993 92.56009 1507.8331 90.32742 1524.3036 106.79788 1552.828 78.27249 1567.2631 74.40494Z"/>
<path transform="matrix(1,0,0,-1,-1381.815,142.47202)" d="M1581.0903 60.5776 1577.8306 63.83842 1563.3955 67.70598 1571.7523 59.3492 1548.3926 18.8894H1557.0203Z" fill="#ffffff"/>
<path transform="matrix(1,0,0,-1,-1381.815,142.47202)" stroke-width=".3985" stroke-linecap="butt" stroke-miterlimit="10" stroke-linejoin="miter" fill="none" stroke="#000000" d="M1581.0903 60.5776 1577.8306 63.83842 1563.3955 67.70598 1571.7523 59.3492 1548.3926 18.8894H1557.0203Z"/>
<path transform="matrix(1,0,0,-1,-1381.815,142.47202)" d="M1550.1051 6.91217 1552.7064 11.41733H1544.0778L1539.8973 4.17639 1566.9124-11.41733H1581.8585Z" fill="#ffffff"/>
<path transform="matrix(1,0,0,-1,-1381.815,142.47202)" stroke-width=".3985" stroke-linecap="butt" stroke-miterlimit="10" stroke-linejoin="miter" fill="none" stroke="#000000" d="M1550.1051 6.91217 1552.7064 11.41733H1544.0778L1539.8973 4.17639 1566.9124-11.41733H1581.8585Z"/>
<path transform="matrix(1,0,0,-1,-1381.815,142.47202)" d="M1603.7716-24.06606 1594.8031-18.8894H1579.8569L1595.0691-27.6706 1585.9622-61.65858 1594.297-59.4259Z" fill="#ffffff"/>
<path transform="matrix(1,0,0,-1,-1381.815,142.47202)" stroke-width=".3985" stroke-linecap="butt" stroke-miterlimit="10" stroke-linejoin="miter" fill="none" stroke="#000000" d="M1603.7716-24.06606 1594.8031-18.8894H1579.8569L1595.0691-27.6706 1585.9622-61.65858 1594.297-59.4259Z"/>
<path transform="matrix(1,0,0,-1,-1381.815,142.47202)" d="M1582.9863-101.63817 1592.0634-67.75977 1583.7295-69.99342 1577.702-92.48636 1538.7387-82.04637 1524.3036-85.91393Z" fill="#ffffff"/>
<path transform="matrix(1,0,0,-1,-1381.815,142.47202)" stroke-width=".3985" stroke-linecap="butt" stroke-miterlimit="10" stroke-linejoin="miter" fill="none" stroke="#000000" d="M1582.9863-101.63817 1592.0634-67.75977 1583.7295-69.99342 1577.702-92.48636 1538.7387-82.04637 1524.3036-85.91393Z"/>
<path transform="matrix(1,0,0,-1,-1381.815,142.47202)" d="M1505.4142-80.85284 1509.8685-82.04637 1524.3036-78.17883 1512.8862-75.11926V-28.40285L1505.4142-32.71674Z" fill="#ffffff"/>
<path transform="matrix(1,0,0,-1,-1381.815,142.47202)" stroke-width=".3985" stroke-linecap="butt" stroke-miterlimit="10" stroke-linejoin="miter" fill="none" stroke="#000000" d="M1505.4142-80.85284 1509.8685-82.04637 1524.3036-78.17883 1512.8862-75.11926V-28.40285L1505.4142-32.71674Z"/>
<path transform="matrix(1,0,0,-1,-1381.815,142.47202)" d="M1505.4142-18.8894V-24.08897L1512.8862-19.77411V-11.41733H1481.6948L1468.7501-18.8894Z" fill="#ffffff"/>
<path transform="matrix(1,0,0,-1,-1381.815,142.47202)" stroke-width=".3985" stroke-linecap="butt" stroke-miterlimit="10" stroke-linejoin="miter" fill="none" stroke="#000000" d="M1505.4142-18.8894V-24.08897L1512.8862-19.77411V-11.41733H1481.6948L1468.7501-18.8894Z"/>
<path transform="matrix(1,0,0,-1,-1381.815,142.47202)" d="M1443.4507-18.8894H1453.8041L1466.7487-11.41733H1449.1843L1440.0774 22.57164 1433.9762 16.47044Z" fill="#ffffff"/>
<path transform="matrix(1,0,0,-1,-1381.815,142.47202)" stroke-width=".3985" stroke-linecap="butt" stroke-miterlimit="10" stroke-linejoin="miter" fill="none" stroke="#000000" d="M1443.4507-18.8894H1453.8041L1466.7487-11.41733H1449.1843L1440.0774 22.57164 1433.9762 16.47044Z"/>
<path transform="matrix(1,0,0,-1,-1381.815,142.47202)" d="M1422.6654 58.68268 1431.7435 24.8043 1437.8438 30.90549 1431.8173 53.39845 1470.7766 63.83842 1481.3441 74.40494Z" fill="#ffffff"/>
<path transform="matrix(1,0,0,-1,-1381.815,142.47202)" stroke-width=".3985" stroke-linecap="butt" stroke-miterlimit="10" stroke-linejoin="miter" fill="none" stroke="#000000" d="M1422.6654 58.68268 1431.7435 24.8043 1437.8438 30.90549 1431.8173 53.39845 1470.7766 63.83842 1481.3441 74.40494Z"/>
<path transform="matrix(1,0,0,-1,-1381.815,142.47202)" d="M1500.2376 79.46802 1495.7792 78.27249 1485.2117 67.70598 1496.6329 70.76553 1519.9898 30.30275 1524.3036 37.77583Z" fill="#ffffff"/>
<path transform="matrix(1,0,0,-1,-1381.815,142.47202)" stroke-width=".3985" stroke-linecap="butt" stroke-miterlimit="10" stroke-linejoin="miter" fill="none" stroke="#000000" d="M1500.2376 79.46802 1495.7792 78.27249 1485.2117 67.70598 1496.6329 70.76553 1519.9898 30.30275 1524.3036 37.77583Z"/>
<path transform="matrix(1,0,0,-1,-1381.815,142.47202)" d="M1531.2158 25.80156 1528.6174 30.30275 1524.3036 22.82967 1528.48 15.5937 1555.495 31.19142 1562.9682 44.13406Z" fill="#ffffff"/>
<path transform="matrix(1,0,0,-1,-1381.815,142.47202)" stroke-width=".3985" stroke-linecap="butt" stroke-miterlimit="10" stroke-linejoin="miter" fill="none" stroke="#000000" d="M1531.2158 25.80156 1528.6174 30.30275 1524.3036 22.82967 1528.48 15.5937 1555.495 31.19142 1562.9682 44.13406Z"/>
<path transform="matrix(1,0,0,-1,-1381.815,142.47202)" d="M1584.8812 56.78677 1575.9108 51.60713 1568.4376 38.6645 1583.6528 47.44868 1608.5298 22.57164 1610.7634 30.90549Z" fill="#ffffff"/>
<path transform="matrix(1,0,0,-1,-1381.815,142.47202)" stroke-width=".3985" stroke-linecap="butt" stroke-miterlimit="10" stroke-linejoin="miter" fill="none" stroke="#000000" d="M1584.8812 56.78677 1575.9108 51.60713 1568.4376 38.6645 1583.6528 47.44868 1608.5298 22.57164 1610.7634 30.90549Z"/>
<path transform="matrix(1,0,0,-1,-1381.815,142.47202)" d="M1641.668 0 1616.8637 24.8043 1614.631 16.47044 1631.1015 0 1602.576-28.5244 1598.7085-42.95944Z" fill="#ffffff"/>
<path transform="matrix(1,0,0,-1,-1381.815,142.47202)" stroke-width=".3985" stroke-linecap="butt" stroke-miterlimit="10" stroke-linejoin="miter" fill="none" stroke="#000000" d="M1641.668 0 1616.8637 24.8043 1614.631 16.47044 1631.1015 0 1602.576-28.5244 1598.7085-42.95944Z"/>
<path transform="matrix(1,0,0,-1,-1381.815,142.47202)" d="M1584.8812-56.78677 1588.142-53.52696 1592.0095-39.0919 1583.6528-47.44868 1543.193-24.08897V-32.71674Z" fill="#ffffff"/>
<path transform="matrix(1,0,0,-1,-1381.815,142.47202)" stroke-width=".3985" stroke-linecap="butt" stroke-miterlimit="10" stroke-linejoin="miter" fill="none" stroke="#000000" d="M1584.8812-56.78677 1588.142-53.52696 1592.0095-39.0919 1583.6528-47.44868 1543.193-24.08897V-32.71674Z"/>
<path transform="matrix(1,0,0,-1,-1381.815,142.47202)" d="M1531.2158-25.80156 1535.721-28.40285V-19.77411L1528.48-15.5937 1512.8862-42.60876V-57.55492Z" fill="#ffffff"/>
<path transform="matrix(1,0,0,-1,-1381.815,142.47202)" stroke-width=".3985" stroke-linecap="butt" stroke-miterlimit="10" stroke-linejoin="miter" fill="none" stroke="#000000" d="M1531.2158-25.80156 1535.721-28.40285V-19.77411L1528.48-15.5937 1512.8862-42.60876V-57.55492Z"/>
<path transform="matrix(1,0,0,-1,-1381.815,142.47202)" d="M1500.2376-79.46802 1505.4142-70.49953V-55.55339L1496.6329-70.76553 1462.645-61.65858 1464.8777-69.99342Z" fill="#ffffff"/>
<path transform="matrix(1,0,0,-1,-1381.815,142.47202)" stroke-width=".3985" stroke-linecap="butt" stroke-miterlimit="10" stroke-linejoin="miter" fill="none" stroke="#000000" d="M1500.2376-79.46802 1505.4142-70.49953V-55.55339L1496.6329-70.76553 1462.645-61.65858 1464.8777-69.99342Z"/>
<path transform="matrix(1,0,0,-1,-1381.815,142.47202)" d="M1422.6654-58.68268 1456.5438-67.75977 1454.3102-59.4259 1431.8173-53.39845 1442.2572-14.43504 1438.3897 0Z" fill="#ffffff"/>
<path transform="matrix(1,0,0,-1,-1381.815,142.47202)" stroke-width=".3985" stroke-linecap="butt" stroke-miterlimit="10" stroke-linejoin="miter" fill="none" stroke="#000000" d="M1422.6654-58.68268 1456.5438-67.75977 1454.3102-59.4259 1431.8173-53.39845 1442.2572-14.43504 1438.3897 0Z"/>
<path transform="matrix(1,0,0,-1,-1381.815,142.47202)" d="M1443.4507 18.8894 1442.2572 14.43504 1446.1248 0 1449.1843 11.41733H1495.9008L1491.5868 18.8894Z" fill="#ffffff"/>
<path transform="matrix(1,0,0,-1,-1381.815,142.47202)" stroke-width=".3985" stroke-linecap="butt" stroke-miterlimit="10" stroke-linejoin="miter" fill="none" stroke="#000000" d="M1443.4507 18.8894 1442.2572 14.43504 1446.1248 0 1449.1843 11.41733H1495.9008L1491.5868 18.8894Z"/>
<path transform="matrix(1,0,0,-1,-1381.815,142.47202)" d="M1505.4142 18.8894H1500.2146L1504.5294 11.41733H1512.8862V42.60876L1505.4142 55.55339Z" fill="#ffffff"/>
<path transform="matrix(1,0,0,-1,-1381.815,142.47202)" stroke-width=".3985" stroke-linecap="butt" stroke-miterlimit="10" stroke-linejoin="miter" fill="none" stroke="#000000" d="M1505.4142 18.8894H1500.2146L1504.5294 11.41733H1512.8862V42.60876L1505.4142 55.55339Z"/>
<path transform="matrix(1,0,0,-1,-1381.815,142.47202)" d="M1505.4142 80.85284V70.49953L1512.8862 57.55492V75.11926L1546.8753 84.22623 1540.774 90.32742Z" fill="#ffffff"/>
<path transform="matrix(1,0,0,-1,-1381.815,142.47202)" stroke-width=".3985" stroke-linecap="butt" stroke-miterlimit="10" stroke-linejoin="miter" fill="none" stroke="#000000" d="M1505.4142 80.85284V70.49953L1512.8862 57.55492V75.11926L1546.8753 84.22623 1540.774 90.32742Z"/>
<path transform="matrix(1,0,0,-1,-1381.815,142.47202)" d="M1582.9863 101.63817 1549.1079 92.56009 1555.2091 86.45988 1577.702 92.48636 1588.142 53.52696 1598.7085 42.95944Z" fill="#ffffff"/>
<path transform="matrix(1,0,0,-1,-1381.815,142.47202)" stroke-width=".3985" stroke-linecap="butt" stroke-miterlimit="10" stroke-linejoin="miter" fill="none" stroke="#000000" d="M1582.9863 101.63817 1549.1079 92.56009 1555.2091 86.45988 1577.702 92.48636 1588.142 53.52696 1598.7085 42.95944Z"/>
<path transform="matrix(1,0,0,-1,-1381.815,142.47202)" d="M1603.7716 24.06606 1602.576 28.5244 1592.0095 39.0919 1595.0691 27.6706 1554.6063 4.31387 1562.0795 0Z" fill="#ffffff"/>
<path transform="matrix(1,0,0,-1,-1381.815,142.47202)" stroke-width=".3985" stroke-linecap="butt" stroke-miterlimit="10" stroke-linejoin="miter" fill="none" stroke="#000000" d="M1603.7716 24.06606 1602.576 28.5244 1592.0095 39.0919 1595.0691 27.6706 1554.6063 4.31387 1562.0795 0Z"/>
<path transform="matrix(1,0,0,-1,-1381.815,142.47202)" d="M1550.1051-6.91217 1554.6063-4.31387 1547.1333 0 1539.8973-4.17639 1555.495-31.19142 1568.4376-38.6645Z" fill="#ffffff"/>
<path transform="matrix(1,0,0,-1,-1381.815,142.47202)" stroke-width=".3985" stroke-linecap="butt" stroke-miterlimit="10" stroke-linejoin="miter" fill="none" stroke="#000000" d="M1550.1051-6.91217 1554.6063-4.31387 1547.1333 0 1539.8973-4.17639 1555.495-31.19142 1568.4376-38.6645Z"/>
<path transform="matrix(1,0,0,-1,-1381.815,142.47202)" d="M1581.0903-60.5776 1575.9108-51.60713 1562.9682-44.13406 1571.7523-59.3492 1546.8753-84.22623 1555.2091-86.45988Z" fill="#ffffff"/>
<path transform="matrix(1,0,0,-1,-1381.815,142.47202)" stroke-width=".3985" stroke-linecap="butt" stroke-miterlimit="10" stroke-linejoin="miter" fill="none" stroke="#000000" d="M1581.0903-60.5776 1575.9108-51.60713 1562.9682-44.13406 1571.7523-59.3492 1546.8753-84.22623 1555.2091-86.45988Z"/>
<path transform="matrix(1,0,0,-1,-1381.815,142.47202)" d="M1524.3036-117.3644 1549.1079-92.56009 1540.774-90.32742 1524.3036-106.79788 1495.7792-78.27249 1481.3441-74.40494Z" fill="#ffffff"/>
<path transform="matrix(1,0,0,-1,-1381.815,142.47202)" stroke-width=".3985" stroke-linecap="butt" stroke-miterlimit="10" stroke-linejoin="miter" fill="none" stroke="#000000" d="M1524.3036-117.3644 1549.1079-92.56009 1540.774-90.32742 1524.3036-106.79788 1495.7792-78.27249 1481.3441-74.40494Z"/>
<path transform="matrix(1,0,0,-1,-1381.815,142.47202)" d="M1467.5169-60.5776 1470.7766-63.83842 1485.2117-67.70598 1476.8549-59.3492 1500.2146-18.8894H1491.5868Z" fill="#ffffff"/>
<path transform="matrix(1,0,0,-1,-1381.815,142.47202)" stroke-width=".3985" stroke-linecap="butt" stroke-miterlimit="10" stroke-linejoin="miter" fill="none" stroke="#000000" d="M1467.5169-60.5776 1470.7766-63.83842 1485.2117-67.70598 1476.8549-59.3492 1500.2146-18.8894H1491.5868Z"/>
<path transform="matrix(1,0,0,-1,-1381.815,142.47202)" d="M1498.502-6.91217 1495.9008-11.41733H1504.5294L1508.7098-4.17639 1481.6948 11.41733H1466.7487Z" fill="#ffffff"/>
<path transform="matrix(1,0,0,-1,-1381.815,142.47202)" stroke-width=".3985" stroke-linecap="butt" stroke-miterlimit="10" stroke-linejoin="miter" fill="none" stroke="#000000" d="M1498.502-6.91217 1495.9008-11.41733H1504.5294L1508.7098-4.17639 1481.6948 11.41733H1466.7487Z"/>
<path transform="matrix(1,0,0,-1,-1381.815,142.47202)" d="M1444.8356 24.06606 1453.8041 18.8894H1468.7501L1453.5381 27.6706 1462.645 61.65858 1454.3102 59.4259Z" fill="#ffffff"/>
<path transform="matrix(1,0,0,-1,-1381.815,142.47202)" stroke-width=".3985" stroke-linecap="butt" stroke-miterlimit="10" stroke-linejoin="miter" fill="none" stroke="#000000" d="M1444.8356 24.06606 1453.8041 18.8894H1468.7501L1453.5381 27.6706 1462.645 61.65858 1454.3102 59.4259Z"/>
<path transform="matrix(1,0,0,-1,-1381.815,142.47202)" d="M1465.6209 101.63817 1456.5438 67.75977 1464.8777 69.99342 1470.9052 92.48636 1509.8685 82.04637 1524.3036 85.91393Z" fill="#ffffff"/>
<path transform="matrix(1,0,0,-1,-1381.815,142.47202)" stroke-width=".3985" stroke-linecap="butt" stroke-miterlimit="10" stroke-linejoin="miter" fill="none" stroke="#000000" d="M1465.6209 101.63817 1456.5438 67.75977 1464.8777 69.99342 1470.9052 92.48636 1509.8685 82.04637 1524.3036 85.91393Z"/>
<path transform="matrix(1,0,0,-1,-1381.815,142.47202)" d="M1543.193 80.85284 1538.7387 82.04637 1524.3036 78.17883 1535.721 75.11926V28.40285L1543.193 32.71674Z" fill="#ffffff"/>
<path transform="matrix(1,0,0,-1,-1381.815,142.47202)" stroke-width=".3985" stroke-linecap="butt" stroke-miterlimit="10" stroke-linejoin="miter" fill="none" stroke="#000000" d="M1543.193 80.85284 1538.7387 82.04637 1524.3036 78.17883 1535.721 75.11926V28.40285L1543.193 32.71674Z"/>
</svg>
