<svg xmlns="http://www.w3.org/2000/svg" xmlns:xlink="http://www.w3.org/1999/xlink" xmlns:inkscape="http://www.inkscape.org/namespaces/inkscape" version="1.1" width="283.93" height="278.07" viewBox="0 0 283.93 278.07">
<path transform="matrix(1,0,0,-1,-1636.368,139.03601)" d="M1793.7765 19.33972 1785.8192 15.50803 1783.8566 24.1079 1778.3543 17.20868 1772.8518 24.1079 1770.889 15.50803 1762.9318 19.33972 1764.8965 10.7299H1756.0755L1761.5779 3.82968 1753.6246 0 1761.5779-3.82968 1756.0755-10.7299H1764.8965L1762.9318-19.33972 1770.889-15.50803 1772.8518-24.1079 1778.3543-17.20868 1783.8566-24.1079 1785.8192-15.50803 1793.7765-19.33972 1791.8119-10.7299H1800.6329L1795.1305-3.82968 1803.0838 0 1795.1305 3.82968 1800.6329 10.7299H1791.8119Z" fill="#fded52"/>
<path transform="matrix(1,0,0,-1,-1636.368,139.03601)" stroke-width=".3985" stroke-linecap="butt" stroke-miterlimit="10" stroke-linejoin="miter" fill="none" stroke="#000000" d="M1793.7765 19.33972 1785.8192 15.50803 1783.8566 24.1079 1778.3543 17.20868 1772.8518 24.1079 1770.889 15.50803 1762.9318 19.33972 1764.8965 10.7299H1756.0755L1761.5779 3.82968 1753.6246 0 1761.5779-3.82968 1756.0755-10.7299H1764.8965L1762.9318-19.33972 1770.889-15.50803 1772.8518-24.1079 1778.3543-17.20868 1783.8566-24.1079 1785.8192-15.50803 1793.7765-19.33972 1791.8119-10.7299H1800.6329L1795.1305-3.82968 1803.0838 0 1795.1305 3.82968 1800.6329 10.7299H1791.8119Z"/>
<path transform="matrix(1,0,0,-1,-1636.368,139.03601)" d="M1795.9026 28.6569 1799.278 43.44463 1789.8153 31.57997 1791.0189 26.3057Z" fill="#fbdc35"/>
<path transform="matrix(1,0,0,-1,-1636.368,139.03601)" stroke-width=".3985" stroke-linecap="butt" stroke-miterlimit="10" stroke-linejoin="miter" fill="none" stroke="#000000" d="M1795.9026 28.6569 1799.278 43.44463 1789.8153 31.57997 1791.0189 26.3057Z"/>
<path transform="matrix(1,0,0,-1,-1636.368,139.03601)" d="M1789.8153-31.57997 1799.278-43.44463 1795.9026-28.6569 1791.0189-26.3057Z" fill="#fbdc35"/>
<path transform="matrix(1,0,0,-1,-1636.368,139.03601)" stroke-width=".3985" stroke-linecap="butt" stroke-miterlimit="10" stroke-linejoin="miter" fill="none" stroke="#000000" d="M1789.8153-31.57997 1799.278-43.44463 1795.9026-28.6569 1791.0189-26.3057Z"/>
<path transform="matrix(1,0,0,-1,-1636.368,139.03601)" d="M1746.5182 10.7299H1731.3419L1745.0138 4.1465 1749.8945 6.4967Z" fill="#fbdc35"/>
<path transform="matrix(1,0,0,-1,-1636.368,139.03601)" stroke-width=".3985" stroke-linecap="butt" stroke-miterlimit="10" stroke-linejoin="miter" fill="none" stroke="#000000" d="M1746.5182 10.7299H1731.3419L1745.0138 4.1465 1749.8945 6.4967Z"/>
<path transform="matrix(1,0,0,-1,-1636.368,139.03601)" d="M1806.5917 18.20198 1816.0553 30.06763 1802.3873 23.48622 1801.1809 18.20198Z" fill="#fbdc35"/>
<path transform="matrix(1,0,0,-1,-1636.368,139.03601)" stroke-width=".3985" stroke-linecap="butt" stroke-miterlimit="10" stroke-linejoin="miter" fill="none" stroke="#000000" d="M1806.5917 18.20198 1816.0553 30.06763 1802.3873 23.48622 1801.1809 18.20198Z"/>
<path transform="matrix(1,0,0,-1,-1636.368,139.03601)" d="M1774.9788-33.42508 1778.3543-48.2138 1781.7296-33.42508 1778.3543-29.1929Z" fill="#fbdc35"/>
<path transform="matrix(1,0,0,-1,-1636.368,139.03601)" stroke-width=".3985" stroke-linecap="butt" stroke-miterlimit="10" stroke-linejoin="miter" fill="none" stroke="#000000" d="M1774.9788-33.42508 1778.3543-48.2138 1781.7296-33.42508 1778.3543-29.1929Z"/>
<path transform="matrix(1,0,0,-1,-1636.368,139.03601)" d="M1754.321 23.48622 1740.6531 30.06763 1750.1167 18.20198H1755.5275Z" fill="#fbdc35"/>
<path transform="matrix(1,0,0,-1,-1636.368,139.03601)" stroke-width=".3985" stroke-linecap="butt" stroke-miterlimit="10" stroke-linejoin="miter" fill="none" stroke="#000000" d="M1754.321 23.48622 1740.6531 30.06763 1750.1167 18.20198H1755.5275Z"/>
<path transform="matrix(1,0,0,-1,-1636.368,139.03601)" d="M1811.6946 4.1465 1825.3665 10.7299H1810.1902L1806.8139 6.4967Z" fill="#fbdc35"/>
<path transform="matrix(1,0,0,-1,-1636.368,139.03601)" stroke-width=".3985" stroke-linecap="butt" stroke-miterlimit="10" stroke-linejoin="miter" fill="none" stroke="#000000" d="M1811.6946 4.1465 1825.3665 10.7299H1810.1902L1806.8139 6.4967Z"/>
<path transform="matrix(1,0,0,-1,-1636.368,139.03601)" d="M1760.8058-28.6569 1757.4304-43.44463 1766.893-31.57997 1765.6895-26.3057Z" fill="#fbdc35"/>
<path transform="matrix(1,0,0,-1,-1636.368,139.03601)" stroke-width=".3985" stroke-linecap="butt" stroke-miterlimit="10" stroke-linejoin="miter" fill="none" stroke="#000000" d="M1760.8058-28.6569 1757.4304-43.44463 1766.893-31.57997 1765.6895-26.3057Z"/>
<path transform="matrix(1,0,0,-1,-1636.368,139.03601)" d="M1766.893 31.57997 1757.4304 43.44463 1760.8058 28.6569 1765.6895 26.3057Z" fill="#fbdc35"/>
<path transform="matrix(1,0,0,-1,-1636.368,139.03601)" stroke-width=".3985" stroke-linecap="butt" stroke-miterlimit="10" stroke-linejoin="miter" fill="none" stroke="#000000" d="M1766.893 31.57997 1757.4304 43.44463 1760.8058 28.6569 1765.6895 26.3057Z"/>
<path transform="matrix(1,0,0,-1,-1636.368,139.03601)" d="M1810.1902-10.7299H1825.3665L1811.6946-4.1465 1806.8139-6.4967Z" fill="#fbdc35"/>
<path transform="matrix(1,0,0,-1,-1636.368,139.03601)" stroke-width=".3985" stroke-linecap="butt" stroke-miterlimit="10" stroke-linejoin="miter" fill="none" stroke="#000000" d="M1810.1902-10.7299H1825.3665L1811.6946-4.1465 1806.8139-6.4967Z"/>
<path transform="matrix(1,0,0,-1,-1636.368,139.03601)" d="M1750.1167-18.20198 1740.6531-30.06763 1754.321-23.48622 1755.5275-18.20198Z" fill="#fbdc35"/>
<path transform="matrix(1,0,0,-1,-1636.368,139.03601)" stroke-width=".3985" stroke-linecap="butt" stroke-miterlimit="10" stroke-linejoin="miter" fill="none" stroke="#000000" d="M1750.1167-18.20198 1740.6531-30.06763 1754.321-23.48622 1755.5275-18.20198Z"/>
<path transform="matrix(1,0,0,-1,-1636.368,139.03601)" d="M1781.7296 33.42508 1778.3543 48.2138 1774.9788 33.42508 1778.3543 29.1929Z" fill="#fbdc35"/>
<path transform="matrix(1,0,0,-1,-1636.368,139.03601)" stroke-width=".3985" stroke-linecap="butt" stroke-miterlimit="10" stroke-linejoin="miter" fill="none" stroke="#000000" d="M1781.7296 33.42508 1778.3543 48.2138 1774.9788 33.42508 1778.3543 29.1929Z"/>
<path transform="matrix(1,0,0,-1,-1636.368,139.03601)" d="M1802.3873-23.48622 1816.0553-30.06763 1806.5917-18.20198H1801.1809Z" fill="#fbdc35"/>
<path transform="matrix(1,0,0,-1,-1636.368,139.03601)" stroke-width=".3985" stroke-linecap="butt" stroke-miterlimit="10" stroke-linejoin="miter" fill="none" stroke="#000000" d="M1802.3873-23.48622 1816.0553-30.06763 1806.5917-18.20198H1801.1809Z"/>
<path transform="matrix(1,0,0,-1,-1636.368,139.03601)" d="M1745.0138-4.1465 1731.3419-10.7299H1746.5182L1749.8945-6.4967Z" fill="#fbdc35"/>
<path transform="matrix(1,0,0,-1,-1636.368,139.03601)" stroke-width=".3985" stroke-linecap="butt" stroke-miterlimit="10" stroke-linejoin="miter" fill="none" stroke="#000000" d="M1745.0138-4.1465 1731.3419-10.7299H1746.5182L1749.8945-6.4967Z"/>
<path transform="matrix(1,0,0,-1,-1636.368,139.03601)" d="M1810.0149 56.90732 1804.5134 32.8034 1826.7921 43.53131 1838.8671 58.67073 1832.0057 67.27458 1822.0907 72.04974Z" fill="#e3bd3a"/>
<path transform="matrix(1,0,0,-1,-1636.368,139.03601)" stroke-width=".3985" stroke-linecap="butt" stroke-miterlimit="10" stroke-linejoin="miter" fill="none" stroke="#000000" d="M1810.0149 56.90732 1804.5134 32.8034 1826.7921 43.53131 1838.8671 58.67073 1832.0057 67.27458 1822.0907 72.04974Z"/>
<path transform="matrix(1,0,0,-1,-1636.368,139.03601)" d="M1803.1096-60.2329 1787.6884-40.89716 1782.1858-65.00406 1786.4967-83.88849H1797.5116L1807.4196-79.11832Z" fill="#e3bd3a"/>
<path transform="matrix(1,0,0,-1,-1636.368,139.03601)" stroke-width=".3985" stroke-linecap="butt" stroke-miterlimit="10" stroke-linejoin="miter" fill="none" stroke="#000000" d="M1803.1096-60.2329 1787.6884-40.89716 1782.1858-65.00406 1786.4967-83.88849H1797.5116L1807.4196-79.11832Z"/>
<path transform="matrix(1,0,0,-1,-1636.368,139.03601)" d="M1715.8239 18.20198H1740.5595L1725.1381 37.53871 1707.6863 45.9423 1700.8259 37.33946 1698.375 26.60457Z" fill="#e3bd3a"/>
<path transform="matrix(1,0,0,-1,-1636.368,139.03601)" stroke-width=".3985" stroke-linecap="butt" stroke-miterlimit="10" stroke-linejoin="miter" fill="none" stroke="#000000" d="M1715.8239 18.20198H1740.5595L1725.1381 37.53871 1707.6863 45.9423 1700.8259 37.33946 1698.375 26.60457Z"/>
<path transform="matrix(1,0,0,-1,-1636.368,139.03601)" d="M1831.5703 37.53871 1816.1489 18.20198H1840.8845L1858.3333 26.60457 1855.8825 37.33946 1849.0221 45.9423Z" fill="#e3bd3a"/>
<path transform="matrix(1,0,0,-1,-1636.368,139.03601)" stroke-width=".3985" stroke-linecap="butt" stroke-miterlimit="10" stroke-linejoin="miter" fill="none" stroke="#000000" d="M1831.5703 37.53871 1816.1489 18.20198H1840.8845L1858.3333 26.60457 1855.8825 37.33946 1849.0221 45.9423Z"/>
<path transform="matrix(1,0,0,-1,-1636.368,139.03601)" d="M1774.5225-65.00406 1769.02-40.89716 1753.5986-60.2329 1749.2888-79.11832 1759.1968-83.8895H1770.2117Z" fill="#e3bd3a"/>
<path transform="matrix(1,0,0,-1,-1636.368,139.03601)" stroke-width=".3985" stroke-linecap="butt" stroke-miterlimit="10" stroke-linejoin="miter" fill="none" stroke="#000000" d="M1774.5225-65.00406 1769.02-40.89716 1753.5986-60.2329 1749.2888-79.11832 1759.1968-83.8895H1770.2117Z"/>
<path transform="matrix(1,0,0,-1,-1636.368,139.03601)" d="M1729.9163 43.53131 1752.195 32.8034 1746.6935 56.90732 1734.6177 72.04974 1724.7026 67.27458 1717.8413 58.67073Z" fill="#e3bd3a"/>
<path transform="matrix(1,0,0,-1,-1636.368,139.03601)" stroke-width=".3985" stroke-linecap="butt" stroke-miterlimit="10" stroke-linejoin="miter" fill="none" stroke="#000000" d="M1729.9163 43.53131 1752.195 32.8034 1746.6935 56.90732 1734.6177 72.04974 1724.7026 67.27458 1717.8413 58.67073Z"/>
<path transform="matrix(1,0,0,-1,-1636.368,139.03601)" d="M1842.5891 10.7299 1820.3064 0 1842.5891-10.7299H1861.9537L1864.4036 0 1861.9537 10.7299Z" fill="#e3bd3a"/>
<path transform="matrix(1,0,0,-1,-1636.368,139.03601)" stroke-width=".3985" stroke-linecap="butt" stroke-miterlimit="10" stroke-linejoin="miter" fill="none" stroke="#000000" d="M1842.5891 10.7299 1820.3064 0 1842.5891-10.7299H1861.9537L1864.4036 0 1861.9537 10.7299Z"/>
<path transform="matrix(1,0,0,-1,-1636.368,139.03601)" d="M1746.6935-56.90732 1752.195-32.8034 1729.9163-43.53131 1717.8413-58.67073 1724.7026-67.27458 1734.6177-72.04974Z" fill="#e3bd3a"/>
<path transform="matrix(1,0,0,-1,-1636.368,139.03601)" stroke-width=".3985" stroke-linecap="butt" stroke-miterlimit="10" stroke-linejoin="miter" fill="none" stroke="#000000" d="M1746.6935-56.90732 1752.195-32.8034 1729.9163-43.53131 1717.8413-58.67073 1724.7026-67.27458 1734.6177-72.04974Z"/>
<path transform="matrix(1,0,0,-1,-1636.368,139.03601)" d="M1753.5986 60.2329 1769.02 40.89716 1774.5225 65.00406 1770.2117 83.8895H1759.1968L1749.2888 79.11832Z" fill="#e3bd3a"/>
<path transform="matrix(1,0,0,-1,-1636.368,139.03601)" stroke-width=".3985" stroke-linecap="butt" stroke-miterlimit="10" stroke-linejoin="miter" fill="none" stroke="#000000" d="M1753.5986 60.2329 1769.02 40.89716 1774.5225 65.00406 1770.2117 83.8895H1759.1968L1749.2888 79.11832Z"/>
<path transform="matrix(1,0,0,-1,-1636.368,139.03601)" d="M1803.1096 60.2329 1807.4196 79.11832 1797.5116 83.88849H1786.4967L1782.1858 65.00406 1787.6884 40.89716Z" fill="#e3bd3a"/>
<path transform="matrix(1,0,0,-1,-1636.368,139.03601)" stroke-width=".3985" stroke-linecap="butt" stroke-miterlimit="10" stroke-linejoin="miter" fill="none" stroke="#000000" d="M1803.1096 60.2329 1807.4196 79.11832 1797.5116 83.88849H1786.4967L1782.1858 65.00406 1787.6884 40.89716Z"/>
<path transform="matrix(1,0,0,-1,-1636.368,139.03601)" d="M1840.8845-18.20198H1816.1489L1831.5703-37.53871 1849.0221-45.9423 1855.8825-37.33946 1858.3333-26.60457Z" fill="#e3bd3a"/>
<path transform="matrix(1,0,0,-1,-1636.368,139.03601)" stroke-width=".3985" stroke-linecap="butt" stroke-miterlimit="10" stroke-linejoin="miter" fill="none" stroke="#000000" d="M1840.8845-18.20198H1816.1489L1831.5703-37.53871 1849.0221-45.9423 1855.8825-37.33946 1858.3333-26.60457Z"/>
<path transform="matrix(1,0,0,-1,-1636.368,139.03601)" d="M1810.0149-56.90732 1822.0907-72.04974 1832.0057-67.27458 1838.8671-58.67073 1826.7921-43.53131 1804.5134-32.8034Z" fill="#e3bd3a"/>
<path transform="matrix(1,0,0,-1,-1636.368,139.03601)" stroke-width=".3985" stroke-linecap="butt" stroke-miterlimit="10" stroke-linejoin="miter" fill="none" stroke="#000000" d="M1810.0149-56.90732 1822.0907-72.04974 1832.0057-67.27458 1838.8671-58.67073 1826.7921-43.53131 1804.5134-32.8034Z"/>
<path transform="matrix(1,0,0,-1,-1636.368,139.03601)" d="M1725.1381-37.53871 1740.5595-18.20198H1715.8239L1698.375-26.60457 1700.8259-37.33946 1707.6863-45.9423Z" fill="#e3bd3a"/>
<path transform="matrix(1,0,0,-1,-1636.368,139.03601)" stroke-width=".3985" stroke-linecap="butt" stroke-miterlimit="10" stroke-linejoin="miter" fill="none" stroke="#000000" d="M1725.1381-37.53871 1740.5595-18.20198H1715.8239L1698.375-26.60457 1700.8259-37.33946 1707.6863-45.9423Z"/>
<path transform="matrix(1,0,0,-1,-1636.368,139.03601)" d="M1714.1193 10.7299H1694.7546L1692.3048 0 1694.7546-10.7299H1714.1193L1736.402 0Z" fill="#e3bd3a"/>
<path transform="matrix(1,0,0,-1,-1636.368,139.03601)" stroke-width=".3985" stroke-linecap="butt" stroke-miterlimit="10" stroke-linejoin="miter" fill="none" stroke="#000000" d="M1714.1193 10.7299H1694.7546L1692.3048 0 1694.7546-10.7299H1714.1193L1736.402 0Z"/>
<path transform="matrix(1,0,0,-1,-1636.368,139.03601)" d="M1778.3543 81.79332 1780.538 91.36157H1781.9946L1778.3543 93.11403 1774.7138 91.36057H1776.1703Z" fill="#fbeca5"/>
<path transform="matrix(1,0,0,-1,-1636.368,139.03601)" stroke-width=".3985" stroke-linecap="butt" stroke-miterlimit="10" stroke-linejoin="miter" fill="none" stroke="#000000" d="M1778.3543 81.79332 1780.538 91.36157H1781.9946L1778.3543 93.11403 1774.7138 91.36057H1776.1703Z"/>
<path transform="matrix(1,0,0,-1,-1636.368,139.03601)" d="M1852.0477 54.1327 1851.1521 58.05504 1847.5197 59.8045 1848.4234 58.67073 1842.3082 51.00238 1851.1502 55.25949Z" fill="#fbeca5"/>
<path transform="matrix(1,0,0,-1,-1636.368,139.03601)" stroke-width=".3985" stroke-linecap="butt" stroke-miterlimit="10" stroke-linejoin="miter" fill="none" stroke="#000000" d="M1852.0477 54.1327 1851.1521 58.05504 1847.5197 59.8045 1848.4234 58.67073 1842.3082 51.00238 1851.1502 55.25949Z"/>
<path transform="matrix(1,0,0,-1,-1636.368,139.03601)" d="M1842.3082-51.00238 1848.4234-58.67073 1847.5197-59.8045 1851.1521-58.05504 1852.0477-54.1327 1851.1502-55.25949Z" fill="#fbeca5"/>
<path transform="matrix(1,0,0,-1,-1636.368,139.03601)" stroke-width=".3985" stroke-linecap="butt" stroke-miterlimit="10" stroke-linejoin="miter" fill="none" stroke="#000000" d="M1842.3082-51.00238 1848.4234-58.67073 1847.5197-59.8045 1851.1521-58.05504 1852.0477-54.1327 1851.1502-55.25949Z"/>
<path transform="matrix(1,0,0,-1,-1636.368,139.03601)" d="M1774.7138-91.36057 1778.3543-93.11403 1781.9946-91.36157H1780.538L1778.3543-81.79332 1776.1703-91.36057Z" fill="#fbeca5"/>
<path transform="matrix(1,0,0,-1,-1636.368,139.03601)" stroke-width=".3985" stroke-linecap="butt" stroke-miterlimit="10" stroke-linejoin="miter" fill="none" stroke="#000000" d="M1774.7138-91.36057 1778.3543-93.11403 1781.9946-91.36157H1780.538L1778.3543-81.79332 1776.1703-91.36057Z"/>
<path transform="matrix(1,0,0,-1,-1636.368,139.03601)" d="M1698.6012-18.20198H1688.7959L1688.472-16.78326 1687.5735-20.71956 1690.086-23.87079 1689.7632-22.45706Z" fill="#fbeca5"/>
<path transform="matrix(1,0,0,-1,-1636.368,139.03601)" stroke-width=".3985" stroke-linecap="butt" stroke-miterlimit="10" stroke-linejoin="miter" fill="none" stroke="#000000" d="M1698.6012-18.20198H1688.7959L1688.472-16.78326 1687.5735-20.71956 1690.086-23.87079 1689.7632-22.45706Z"/>
<path transform="matrix(1,0,0,-1,-1636.368,139.03601)" d="M1709.1887 59.8045 1705.5563 58.05504 1704.6605 54.1327 1705.5582 55.25949 1714.4002 51.00238 1708.285 58.67073Z" fill="#fbeca5"/>
<path transform="matrix(1,0,0,-1,-1636.368,139.03601)" stroke-width=".3985" stroke-linecap="butt" stroke-miterlimit="10" stroke-linejoin="miter" fill="none" stroke="#000000" d="M1709.1887 59.8045 1705.5563 58.05504 1704.6605 54.1327 1705.5582 55.25949 1714.4002 51.00238 1708.285 58.67073Z"/>
<path transform="matrix(1,0,0,-1,-1636.368,139.03601)" d="M1813.8456 73.69559 1819.9636 81.36693 1821.2708 80.73827 1818.7582 83.88849H1814.7343L1816.0294 83.26483Z" fill="#fbeca5"/>
<path transform="matrix(1,0,0,-1,-1636.368,139.03601)" stroke-width=".3985" stroke-linecap="butt" stroke-miterlimit="10" stroke-linejoin="miter" fill="none" stroke="#000000" d="M1813.8456 73.69559 1819.9636 81.36693 1821.2708 80.73827 1818.7582 83.88849H1814.7343L1816.0294 83.26483Z"/>
<path transform="matrix(1,0,0,-1,-1636.368,139.03601)" d="M1868.2363 16.78326 1869.1349 20.71956 1866.6223 23.87079 1866.9451 22.45706 1858.1072 18.20198H1867.9125Z" fill="#fbeca5"/>
<path transform="matrix(1,0,0,-1,-1636.368,139.03601)" stroke-width=".3985" stroke-linecap="butt" stroke-miterlimit="10" stroke-linejoin="miter" fill="none" stroke="#000000" d="M1868.2363 16.78326 1869.1349 20.71956 1866.6223 23.87079 1866.9451 22.45706 1858.1072 18.20198H1867.9125Z"/>
<path transform="matrix(1,0,0,-1,-1636.368,139.03601)" d="M1813.8456-73.69559 1816.0294-83.26483 1814.7343-83.88849H1818.7582L1821.2708-80.73827 1819.9636-81.36693Z" fill="#fbeca5"/>
<path transform="matrix(1,0,0,-1,-1636.368,139.03601)" stroke-width=".3985" stroke-linecap="butt" stroke-miterlimit="10" stroke-linejoin="miter" fill="none" stroke="#000000" d="M1813.8456-73.69559 1816.0294-83.26483 1814.7343-83.88849H1818.7582L1821.2708-80.73827 1819.9636-81.36693Z"/>
<path transform="matrix(1,0,0,-1,-1636.368,139.03601)" d="M1735.4375-80.73827 1737.9502-83.8895H1741.9741L1740.679-83.26483 1742.8628-73.69559 1736.7446-81.36693Z" fill="#fbeca5"/>
<path transform="matrix(1,0,0,-1,-1636.368,139.03601)" stroke-width=".3985" stroke-linecap="butt" stroke-miterlimit="10" stroke-linejoin="miter" fill="none" stroke="#000000" d="M1735.4375-80.73827 1737.9502-83.8895H1741.9741L1740.679-83.26483 1742.8628-73.69559 1736.7446-81.36693Z"/>
<path transform="matrix(1,0,0,-1,-1636.368,139.03601)" d="M1698.6012 18.20198 1689.7632 22.45706 1690.086 23.87079 1687.5735 20.71956 1688.472 16.78326 1688.7959 18.20198Z" fill="#fbeca5"/>
<path transform="matrix(1,0,0,-1,-1636.368,139.03601)" stroke-width=".3985" stroke-linecap="butt" stroke-miterlimit="10" stroke-linejoin="miter" fill="none" stroke="#000000" d="M1698.6012 18.20198 1689.7632 22.45706 1690.086 23.87079 1687.5735 20.71956 1688.472 16.78326 1688.7959 18.20198Z"/>
<path transform="matrix(1,0,0,-1,-1636.368,139.03601)" d="M1741.9741 83.8895H1737.9502L1735.4375 80.73827 1736.7446 81.36693 1742.8628 73.69559 1740.679 83.26483Z" fill="#fbeca5"/>
<path transform="matrix(1,0,0,-1,-1636.368,139.03601)" stroke-width=".3985" stroke-linecap="butt" stroke-miterlimit="10" stroke-linejoin="miter" fill="none" stroke="#000000" d="M1741.9741 83.8895H1737.9502L1735.4375 80.73827 1736.7446 81.36693 1742.8628 73.69559 1740.679 83.26483Z"/>
<path transform="matrix(1,0,0,-1,-1636.368,139.03601)" d="M1866.6223-23.87079 1869.1349-20.71956 1868.2363-16.78326 1867.9125-18.20198H1858.1072L1866.9451-22.45706Z" fill="#fbeca5"/>
<path transform="matrix(1,0,0,-1,-1636.368,139.03601)" stroke-width=".3985" stroke-linecap="butt" stroke-miterlimit="10" stroke-linejoin="miter" fill="none" stroke="#000000" d="M1866.6223-23.87079 1869.1349-20.71956 1868.2363-16.78326 1867.9125-18.20198H1858.1072L1866.9451-22.45706Z"/>
<path transform="matrix(1,0,0,-1,-1636.368,139.03601)" d="M1704.6605-54.1327 1705.5563-58.05504 1709.1887-59.8045 1708.285-58.67073 1714.4002-51.00238 1705.5582-55.25949Z" fill="#fbeca5"/>
<path transform="matrix(1,0,0,-1,-1636.368,139.03601)" stroke-width=".3985" stroke-linecap="butt" stroke-miterlimit="10" stroke-linejoin="miter" fill="none" stroke="#000000" d="M1704.6605-54.1327 1705.5563-58.05504 1709.1887-59.8045 1708.285-58.67073 1714.4002-51.00238 1705.5582-55.25949Z"/>
<path transform="matrix(1,0,0,-1,-1636.368,139.03601)" d="M1769.7434 97.26051 1754.4755 104.61305 1743.9089 91.36057H1757.4912Z" fill="#e6dd87"/>
<path transform="matrix(1,0,0,-1,-1636.368,139.03601)" stroke-width=".3985" stroke-linecap="butt" stroke-miterlimit="10" stroke-linejoin="miter" fill="none" stroke="#000000" d="M1769.7434 97.26051 1754.4755 104.61305 1743.9089 91.36057H1757.4912Z"/>
<path transform="matrix(1,0,0,-1,-1636.368,139.03601)" d="M1859.7639-53.90854 1875.0338-46.55502 1871.262-30.03674 1862.7876-40.66502Z" fill="#e6dd87"/>
<path transform="matrix(1,0,0,-1,-1636.368,139.03601)" stroke-width=".3985" stroke-linecap="butt" stroke-miterlimit="10" stroke-linejoin="miter" fill="none" stroke="#000000" d="M1859.7639-53.90854 1875.0338-46.55502 1871.262-30.03674 1862.7876-40.66502Z"/>
<path transform="matrix(1,0,0,-1,-1636.368,139.03601)" d="M1685.4464-30.03674 1681.6744-46.55502 1696.9445-53.90854 1693.9208-40.66502Z" fill="#e6dd87"/>
<path transform="matrix(1,0,0,-1,-1636.368,139.03601)" stroke-width=".3985" stroke-linecap="butt" stroke-miterlimit="10" stroke-linejoin="miter" fill="none" stroke="#000000" d="M1685.4464-30.03674 1681.6744-46.55502 1696.9445-53.90854 1693.9208-40.66502Z"/>
<path transform="matrix(1,0,0,-1,-1636.368,139.03601)" d="M1812.7994 91.36157 1802.2329 104.61305 1786.965 97.26051 1799.2172 91.36157Z" fill="#e6dd87"/>
<path transform="matrix(1,0,0,-1,-1636.368,139.03601)" stroke-width=".3985" stroke-linecap="butt" stroke-miterlimit="10" stroke-linejoin="miter" fill="none" stroke="#000000" d="M1812.7994 91.36157 1802.2329 104.61305 1786.965 97.26051 1799.2172 91.36157Z"/>
<path transform="matrix(1,0,0,-1,-1636.368,139.03601)" d="M1859.7639 53.90854 1862.7876 40.66502 1871.262 30.03674 1875.0338 46.55502Z" fill="#e6dd87"/>
<path transform="matrix(1,0,0,-1,-1636.368,139.03601)" stroke-width=".3985" stroke-linecap="butt" stroke-miterlimit="10" stroke-linejoin="miter" fill="none" stroke="#000000" d="M1859.7639 53.90854 1862.7876 40.66502 1871.262 30.03674 1875.0338 46.55502Z"/>
<path transform="matrix(1,0,0,-1,-1636.368,139.03601)" d="M1828.3145-83.88849H1845.2542L1849.025-67.37221 1836.7848-73.26718Z" fill="#e6dd87"/>
<path transform="matrix(1,0,0,-1,-1636.368,139.03601)" stroke-width=".3985" stroke-linecap="butt" stroke-miterlimit="10" stroke-linejoin="miter" fill="none" stroke="#000000" d="M1828.3145-83.88849H1845.2542L1849.025-67.37221 1836.7848-73.26718Z"/>
<path transform="matrix(1,0,0,-1,-1636.368,139.03601)" d="M1769.7434-97.26051 1757.4912-91.36057H1743.9089L1754.4755-104.61305Z" fill="#e6dd87"/>
<path transform="matrix(1,0,0,-1,-1636.368,139.03601)" stroke-width=".3985" stroke-linecap="butt" stroke-miterlimit="10" stroke-linejoin="miter" fill="none" stroke="#000000" d="M1769.7434-97.26051 1757.4912-91.36057H1743.9089L1754.4755-104.61305Z"/>
<path transform="matrix(1,0,0,-1,-1636.368,139.03601)" d="M1681.6157 13.24748 1671.0512 0 1681.6157-13.24748 1684.6404 0Z" fill="#e6dd87"/>
<path transform="matrix(1,0,0,-1,-1636.368,139.03601)" stroke-width=".3985" stroke-linecap="butt" stroke-miterlimit="10" stroke-linejoin="miter" fill="none" stroke="#000000" d="M1681.6157 13.24748 1671.0512 0 1681.6157-13.24748 1684.6404 0Z"/>
<path transform="matrix(1,0,0,-1,-1636.368,139.03601)" d="M1707.6834 67.37221 1719.9236 73.26718 1728.3939 83.8895H1711.4542Z" fill="#e6dd87"/>
<path transform="matrix(1,0,0,-1,-1636.368,139.03601)" stroke-width=".3985" stroke-linecap="butt" stroke-miterlimit="10" stroke-linejoin="miter" fill="none" stroke="#000000" d="M1707.6834 67.37221 1719.9236 73.26718 1728.3939 83.8895H1711.4542Z"/>
<path transform="matrix(1,0,0,-1,-1636.368,139.03601)" d="M1849.025 67.37221 1845.2542 83.88849H1828.3145L1836.7848 73.26718Z" fill="#e6dd87"/>
<path transform="matrix(1,0,0,-1,-1636.368,139.03601)" stroke-width=".3985" stroke-linecap="butt" stroke-miterlimit="10" stroke-linejoin="miter" fill="none" stroke="#000000" d="M1849.025 67.37221 1845.2542 83.88849H1828.3145L1836.7848 73.26718Z"/>
<path transform="matrix(1,0,0,-1,-1636.368,139.03601)" d="M1875.0927 13.24748 1872.068 0 1875.0927-13.24748 1885.6572 0Z" fill="#e6dd87"/>
<path transform="matrix(1,0,0,-1,-1636.368,139.03601)" stroke-width=".3985" stroke-linecap="butt" stroke-miterlimit="10" stroke-linejoin="miter" fill="none" stroke="#000000" d="M1875.0927 13.24748 1872.068 0 1875.0927-13.24748 1885.6572 0Z"/>
<path transform="matrix(1,0,0,-1,-1636.368,139.03601)" d="M1786.965-97.26051 1802.2329-104.61305 1812.7994-91.36157H1799.2172Z" fill="#e6dd87"/>
<path transform="matrix(1,0,0,-1,-1636.368,139.03601)" stroke-width=".3985" stroke-linecap="butt" stroke-miterlimit="10" stroke-linejoin="miter" fill="none" stroke="#000000" d="M1786.965-97.26051 1802.2329-104.61305 1812.7994-91.36157H1799.2172Z"/>
<path transform="matrix(1,0,0,-1,-1636.368,139.03601)" d="M1728.3939-83.8895 1719.9236-73.26718 1707.6834-67.37221 1711.4542-83.8895Z" fill="#e6dd87"/>
<path transform="matrix(1,0,0,-1,-1636.368,139.03601)" stroke-width=".3985" stroke-linecap="butt" stroke-miterlimit="10" stroke-linejoin="miter" fill="none" stroke="#000000" d="M1728.3939-83.8895 1719.9236-73.26718 1707.6834-67.37221 1711.4542-83.8895Z"/>
<path transform="matrix(1,0,0,-1,-1636.368,139.03601)" d="M1696.9445 53.90854 1681.6744 46.55502 1685.4464 30.03674 1693.9208 40.66502Z" fill="#e6dd87"/>
<path transform="matrix(1,0,0,-1,-1636.368,139.03601)" stroke-width=".3985" stroke-linecap="butt" stroke-miterlimit="10" stroke-linejoin="miter" fill="none" stroke="#000000" d="M1696.9445 53.90854 1681.6744 46.55502 1685.4464 30.03674 1693.9208 40.66502Z"/>
<path transform="matrix(1,0,0,-1,-1636.368,139.03601)" d="M1705.4965 91.36057 1699.0725 63.22572 1707.6834 67.37221 1711.4542 83.8895H1741.9741L1757.4912 91.36057Z" fill="#ffffff"/>
<path transform="matrix(1,0,0,-1,-1636.368,139.03601)" stroke-width=".3985" stroke-linecap="butt" stroke-miterlimit="10" stroke-linejoin="miter" fill="none" stroke="#000000" d="M1705.4965 91.36057 1699.0725 63.22572 1707.6834 67.37221 1711.4542 83.8895H1741.9741L1757.4912 91.36057Z"/>
<path transform="matrix(1,0,0,-1,-1636.368,139.03601)" d="M1776.1703 91.36057H1774.7138L1759.1968 83.8895H1770.2117L1781.7296 33.42508 1787.6884 40.89716Z" fill="#ffffff"/>
<path transform="matrix(1,0,0,-1,-1636.368,139.03601)" stroke-width=".3985" stroke-linecap="butt" stroke-miterlimit="10" stroke-linejoin="miter" fill="none" stroke="#000000" d="M1776.1703 91.36057H1774.7138L1759.1968 83.8895H1770.2117L1781.7296 33.42508 1787.6884 40.89716Z"/>
<path transform="matrix(1,0,0,-1,-1636.368,139.03601)" d="M1791.0189 26.3057 1789.8153 31.57997 1783.8566 24.1079 1785.8192 15.50803 1816.0553 30.06763 1826.7921 43.53131Z" fill="#ffffff"/>
<path transform="matrix(1,0,0,-1,-1636.368,139.03601)" stroke-width=".3985" stroke-linecap="butt" stroke-miterlimit="10" stroke-linejoin="miter" fill="none" stroke="#000000" d="M1791.0189 26.3057 1789.8153 31.57997 1783.8566 24.1079 1785.8192 15.50803 1816.0553 30.06763 1826.7921 43.53131Z"/>
<path transform="matrix(1,0,0,-1,-1636.368,139.03601)" d="M1851.1502 55.25949 1842.3082 51.00238 1831.5703 37.53871 1849.0221 45.9423 1869.1349 20.71956 1871.262 30.03674Z" fill="#ffffff"/>
<path transform="matrix(1,0,0,-1,-1636.368,139.03601)" stroke-width=".3985" stroke-linecap="butt" stroke-miterlimit="10" stroke-linejoin="miter" fill="none" stroke="#000000" d="M1851.1502 55.25949 1842.3082 51.00238 1831.5703 37.53871 1849.0221 45.9423 1869.1349 20.71956 1871.262 30.03674Z"/>
<path transform="matrix(1,0,0,-1,-1636.368,139.03601)" d="M1895.2135 0 1877.2207 22.56467 1875.0927 13.24748 1885.6572 0 1866.6223-23.87079 1862.7876-40.66502Z" fill="#ffffff"/>
<path transform="matrix(1,0,0,-1,-1636.368,139.03601)" stroke-width=".3985" stroke-linecap="butt" stroke-miterlimit="10" stroke-linejoin="miter" fill="none" stroke="#000000" d="M1895.2135 0 1877.2207 22.56467 1875.0927 13.24748 1885.6572 0 1866.6223-23.87079 1862.7876-40.66502Z"/>
<path transform="matrix(1,0,0,-1,-1636.368,139.03601)" d="M1851.1502-55.25949 1852.0477-54.1327 1855.8825-37.33946 1849.0221-45.9423 1802.3873-23.48622 1804.5134-32.8034Z" fill="#ffffff"/>
<path transform="matrix(1,0,0,-1,-1636.368,139.03601)" stroke-width=".3985" stroke-linecap="butt" stroke-miterlimit="10" stroke-linejoin="miter" fill="none" stroke="#000000" d="M1851.1502-55.25949 1852.0477-54.1327 1855.8825-37.33946 1849.0221-45.9423 1802.3873-23.48622 1804.5134-32.8034Z"/>
<path transform="matrix(1,0,0,-1,-1636.368,139.03601)" d="M1791.0189-26.3057 1795.9026-28.6569 1793.7765-19.33972 1785.8192-15.50803 1778.3543-48.2138 1782.1858-65.00406Z" fill="#ffffff"/>
<path transform="matrix(1,0,0,-1,-1636.368,139.03601)" stroke-width=".3985" stroke-linecap="butt" stroke-miterlimit="10" stroke-linejoin="miter" fill="none" stroke="#000000" d="M1791.0189-26.3057 1795.9026-28.6569 1793.7765-19.33972 1785.8192-15.50803 1778.3543-48.2138 1782.1858-65.00406Z"/>
<path transform="matrix(1,0,0,-1,-1636.368,139.03601)" d="M1776.1703-91.36057 1778.3543-81.79332 1774.5225-65.00406 1770.2117-83.8895H1737.9502L1743.9089-91.36057Z" fill="#ffffff"/>
<path transform="matrix(1,0,0,-1,-1636.368,139.03601)" stroke-width=".3985" stroke-linecap="butt" stroke-miterlimit="10" stroke-linejoin="miter" fill="none" stroke="#000000" d="M1776.1703-91.36057 1778.3543-81.79332 1774.5225-65.00406 1770.2117-83.8895H1737.9502L1743.9089-91.36057Z"/>
<path transform="matrix(1,0,0,-1,-1636.368,139.03601)" d="M1705.4965-91.36057H1734.3516L1728.3939-83.8895H1711.4542L1704.6605-54.1327 1693.9208-40.66502Z" fill="#ffffff"/>
<path transform="matrix(1,0,0,-1,-1636.368,139.03601)" stroke-width=".3985" stroke-linecap="butt" stroke-miterlimit="10" stroke-linejoin="miter" fill="none" stroke="#000000" d="M1705.4965-91.36057H1734.3516L1728.3939-83.8895H1711.4542L1704.6605-54.1327 1693.9208-40.66502Z"/>
<path transform="matrix(1,0,0,-1,-1636.368,139.03601)" d="M1689.7632-22.45706 1690.086-23.87079 1700.8259-37.33946 1698.375-26.60457 1745.0138-4.1465 1736.402 0Z" fill="#ffffff"/>
<path transform="matrix(1,0,0,-1,-1636.368,139.03601)" stroke-width=".3985" stroke-linecap="butt" stroke-miterlimit="10" stroke-linejoin="miter" fill="none" stroke="#000000" d="M1689.7632-22.45706 1690.086-23.87079 1700.8259-37.33946 1698.375-26.60457 1745.0138-4.1465 1736.402 0Z"/>
<path transform="matrix(1,0,0,-1,-1636.368,139.03601)" d="M1749.8945 6.4967 1745.0138 4.1465 1753.6246 0 1761.5779 3.82968 1740.6531 30.06763 1725.1381 37.53871Z" fill="#ffffff"/>
<path transform="matrix(1,0,0,-1,-1636.368,139.03601)" stroke-width=".3985" stroke-linecap="butt" stroke-miterlimit="10" stroke-linejoin="miter" fill="none" stroke="#000000" d="M1749.8945 6.4967 1745.0138 4.1465 1753.6246 0 1761.5779 3.82968 1740.6531 30.06763 1725.1381 37.53871Z"/>
<path transform="matrix(1,0,0,-1,-1636.368,139.03601)" d="M1708.285 58.67073 1714.4002 51.00238 1729.9163 43.53131 1717.8413 58.67073 1737.9502 83.8895H1728.3939Z" fill="#ffffff"/>
<path transform="matrix(1,0,0,-1,-1636.368,139.03601)" stroke-width=".3985" stroke-linecap="butt" stroke-miterlimit="10" stroke-linejoin="miter" fill="none" stroke="#000000" d="M1708.285 58.67073 1714.4002 51.00238 1729.9163 43.53131 1717.8413 58.67073 1737.9502 83.8895H1728.3939Z"/>
<path transform="matrix(1,0,0,-1,-1636.368,139.03601)" d="M1752.3494 113.93024 1734.3516 91.36057H1743.9089L1754.4755 104.61305 1781.9946 91.36157H1799.2172Z" fill="#ffffff"/>
<path transform="matrix(1,0,0,-1,-1636.368,139.03601)" stroke-width=".3985" stroke-linecap="butt" stroke-miterlimit="10" stroke-linejoin="miter" fill="none" stroke="#000000" d="M1752.3494 113.93024 1734.3516 91.36057H1743.9089L1754.4755 104.61305 1781.9946 91.36157H1799.2172Z"/>
<path transform="matrix(1,0,0,-1,-1636.368,139.03601)" d="M1816.0294 83.26483 1814.7343 83.88849H1797.5116L1807.4196 79.11832 1795.9026 28.6569 1804.5134 32.8034Z" fill="#ffffff"/>
<path transform="matrix(1,0,0,-1,-1636.368,139.03601)" stroke-width=".3985" stroke-linecap="butt" stroke-miterlimit="10" stroke-linejoin="miter" fill="none" stroke="#000000" d="M1816.0294 83.26483 1814.7343 83.88849H1797.5116L1807.4196 79.11832 1795.9026 28.6569 1804.5134 32.8034Z"/>
<path transform="matrix(1,0,0,-1,-1636.368,139.03601)" d="M1801.1809 18.20198 1802.3873 23.48622 1793.7765 19.33972 1791.8119 10.7299H1825.3665L1840.8845 18.20198Z" fill="#ffffff"/>
<path transform="matrix(1,0,0,-1,-1636.368,139.03601)" stroke-width=".3985" stroke-linecap="butt" stroke-miterlimit="10" stroke-linejoin="miter" fill="none" stroke="#000000" d="M1801.1809 18.20198 1802.3873 23.48622 1793.7765 19.33972 1791.8119 10.7299H1825.3665L1840.8845 18.20198Z"/>
<path transform="matrix(1,0,0,-1,-1636.368,139.03601)" d="M1867.9125 18.20198H1858.1072L1842.5891 10.7299H1861.9537L1869.1349-20.71956 1875.0927-13.24748Z" fill="#ffffff"/>
<path transform="matrix(1,0,0,-1,-1636.368,139.03601)" stroke-width=".3985" stroke-linecap="butt" stroke-miterlimit="10" stroke-linejoin="miter" fill="none" stroke="#000000" d="M1867.9125 18.20198H1858.1072L1842.5891 10.7299H1861.9537L1869.1349-20.71956 1875.0927-13.24748Z"/>
<path transform="matrix(1,0,0,-1,-1636.368,139.03601)" d="M1883.6447-50.70152 1877.2207-22.56467 1871.262-30.03674 1875.0338-46.55502 1847.5197-59.8045 1836.7848-73.26718Z" fill="#ffffff"/>
<path transform="matrix(1,0,0,-1,-1636.368,139.03601)" stroke-width=".3985" stroke-linecap="butt" stroke-miterlimit="10" stroke-linejoin="miter" fill="none" stroke="#000000" d="M1883.6447-50.70152 1877.2207-22.56467 1871.262-30.03674 1875.0338-46.55502 1847.5197-59.8045 1836.7848-73.26718Z"/>
<path transform="matrix(1,0,0,-1,-1636.368,139.03601)" d="M1819.9636-81.36693 1821.2708-80.73827 1832.0057-67.27458 1822.0907-72.04974 1789.8153-31.57997 1787.6884-40.89716Z" fill="#ffffff"/>
<path transform="matrix(1,0,0,-1,-1636.368,139.03601)" stroke-width=".3985" stroke-linecap="butt" stroke-miterlimit="10" stroke-linejoin="miter" fill="none" stroke="#000000" d="M1819.9636-81.36693 1821.2708-80.73827 1832.0057-67.27458 1822.0907-72.04974 1789.8153-31.57997 1787.6884-40.89716Z"/>
<path transform="matrix(1,0,0,-1,-1636.368,139.03601)" d="M1778.3543-29.1929 1781.7296-33.42508 1783.8566-24.1079 1778.3543-17.20868 1757.4304-43.44463 1753.5986-60.2329Z" fill="#ffffff"/>
<path transform="matrix(1,0,0,-1,-1636.368,139.03601)" stroke-width=".3985" stroke-linecap="butt" stroke-miterlimit="10" stroke-linejoin="miter" fill="none" stroke="#000000" d="M1778.3543-29.1929 1781.7296-33.42508 1783.8566-24.1079 1778.3543-17.20868 1757.4304-43.44463 1753.5986-60.2329Z"/>
<path transform="matrix(1,0,0,-1,-1636.368,139.03601)" d="M1736.7446-81.36693 1742.8628-73.69559 1746.6935-56.90732 1734.6177-72.04974 1705.5563-58.05504 1707.6834-67.37221Z" fill="#ffffff"/>
<path transform="matrix(1,0,0,-1,-1636.368,139.03601)" stroke-width=".3985" stroke-linecap="butt" stroke-miterlimit="10" stroke-linejoin="miter" fill="none" stroke="#000000" d="M1736.7446-81.36693 1742.8628-73.69559 1746.6935-56.90732 1734.6177-72.04974 1705.5563-58.05504 1707.6834-67.37221Z"/>
<path transform="matrix(1,0,0,-1,-1636.368,139.03601)" d="M1673.0636-50.70152 1699.0725-63.22572 1696.9445-53.90854 1681.6744-46.55502 1688.472-16.78326 1684.6404 0Z" fill="#ffffff"/>
<path transform="matrix(1,0,0,-1,-1636.368,139.03601)" stroke-width=".3985" stroke-linecap="butt" stroke-miterlimit="10" stroke-linejoin="miter" fill="none" stroke="#000000" d="M1673.0636-50.70152 1699.0725-63.22572 1696.9445-53.90854 1681.6744-46.55502 1688.472-16.78326 1684.6404 0Z"/>
<path transform="matrix(1,0,0,-1,-1636.368,139.03601)" d="M1688.7959 18.20198 1688.472 16.78326 1692.3048 0 1694.7546 10.7299H1746.5182L1740.5595 18.20198Z" fill="#ffffff"/>
<path transform="matrix(1,0,0,-1,-1636.368,139.03601)" stroke-width=".3985" stroke-linecap="butt" stroke-miterlimit="10" stroke-linejoin="miter" fill="none" stroke="#000000" d="M1688.7959 18.20198 1688.472 16.78326 1692.3048 0 1694.7546 10.7299H1746.5182L1740.5595 18.20198Z"/>
<path transform="matrix(1,0,0,-1,-1636.368,139.03601)" d="M1755.5275 18.20198H1750.1167L1756.0755 10.7299H1764.8965L1757.4304 43.44463 1746.6935 56.90732Z" fill="#ffffff"/>
<path transform="matrix(1,0,0,-1,-1636.368,139.03601)" stroke-width=".3985" stroke-linecap="butt" stroke-miterlimit="10" stroke-linejoin="miter" fill="none" stroke="#000000" d="M1755.5275 18.20198H1750.1167L1756.0755 10.7299H1764.8965L1757.4304 43.44463 1746.6935 56.90732Z"/>
<path transform="matrix(1,0,0,-1,-1636.368,139.03601)" d="M1740.679 83.26483 1742.8628 73.69559 1753.5986 60.2329 1749.2888 79.11832 1778.3543 93.11403 1769.7434 97.26051Z" fill="#ffffff"/>
<path transform="matrix(1,0,0,-1,-1636.368,139.03601)" stroke-width=".3985" stroke-linecap="butt" stroke-miterlimit="10" stroke-linejoin="miter" fill="none" stroke="#000000" d="M1740.679 83.26483 1742.8628 73.69559 1753.5986 60.2329 1749.2888 79.11832 1778.3543 93.11403 1769.7434 97.26051Z"/>
<path transform="matrix(1,0,0,-1,-1636.368,139.03601)" d="M1804.359 113.93024 1778.3543 101.40802 1786.965 97.26051 1802.2329 104.61305 1821.2708 80.73827 1836.7848 73.26718Z" fill="#ffffff"/>
<path transform="matrix(1,0,0,-1,-1636.368,139.03601)" stroke-width=".3985" stroke-linecap="butt" stroke-miterlimit="10" stroke-linejoin="miter" fill="none" stroke="#000000" d="M1804.359 113.93024 1778.3543 101.40802 1786.965 97.26051 1802.2329 104.61305 1821.2708 80.73827 1836.7848 73.26718Z"/>
<path transform="matrix(1,0,0,-1,-1636.368,139.03601)" d="M1848.4234 58.67073 1847.5197 59.8045 1832.0057 67.27458 1838.8671 58.67073 1806.5917 18.20198H1816.1489Z" fill="#ffffff"/>
<path transform="matrix(1,0,0,-1,-1636.368,139.03601)" stroke-width=".3985" stroke-linecap="butt" stroke-miterlimit="10" stroke-linejoin="miter" fill="none" stroke="#000000" d="M1848.4234 58.67073 1847.5197 59.8045 1832.0057 67.27458 1838.8671 58.67073 1806.5917 18.20198H1816.1489Z"/>
<path transform="matrix(1,0,0,-1,-1636.368,139.03601)" d="M1806.8139 6.4967 1810.1902 10.7299H1800.6329L1795.1305 3.82968 1825.3665-10.7299H1842.5891Z" fill="#ffffff"/>
<path transform="matrix(1,0,0,-1,-1636.368,139.03601)" stroke-width=".3985" stroke-linecap="butt" stroke-miterlimit="10" stroke-linejoin="miter" fill="none" stroke="#000000" d="M1806.8139 6.4967 1810.1902 10.7299H1800.6329L1795.1305 3.82968 1825.3665-10.7299H1842.5891Z"/>
<path transform="matrix(1,0,0,-1,-1636.368,139.03601)" d="M1866.9451-22.45706 1858.1072-18.20198H1840.8845L1858.3333-26.60457 1851.1521-58.05504 1859.7639-53.90854Z" fill="#ffffff"/>
<path transform="matrix(1,0,0,-1,-1636.368,139.03601)" stroke-width=".3985" stroke-linecap="butt" stroke-miterlimit="10" stroke-linejoin="miter" fill="none" stroke="#000000" d="M1866.9451-22.45706 1858.1072-18.20198H1840.8845L1858.3333-26.60457 1851.1521-58.05504 1859.7639-53.90854Z"/>
<path transform="matrix(1,0,0,-1,-1636.368,139.03601)" d="M1851.2119-91.36157 1857.6359-63.22572 1849.025-67.37221 1845.2542-83.88849H1814.7343L1799.2172-91.36157Z" fill="#ffffff"/>
<path transform="matrix(1,0,0,-1,-1636.368,139.03601)" stroke-width=".3985" stroke-linecap="butt" stroke-miterlimit="10" stroke-linejoin="miter" fill="none" stroke="#000000" d="M1851.2119-91.36157 1857.6359-63.22572 1849.025-67.37221 1845.2542-83.88849H1814.7343L1799.2172-91.36157Z"/>
<path transform="matrix(1,0,0,-1,-1636.368,139.03601)" d="M1780.538-91.36157H1781.9946L1797.5116-83.88849H1786.4967L1774.9788-33.42508 1769.02-40.89716Z" fill="#ffffff"/>
<path transform="matrix(1,0,0,-1,-1636.368,139.03601)" stroke-width=".3985" stroke-linecap="butt" stroke-miterlimit="10" stroke-linejoin="miter" fill="none" stroke="#000000" d="M1780.538-91.36157H1781.9946L1797.5116-83.88849H1786.4967L1774.9788-33.42508 1769.02-40.89716Z"/>
<path transform="matrix(1,0,0,-1,-1636.368,139.03601)" d="M1765.6895-26.3057 1766.893-31.57997 1772.8518-24.1079 1770.889-15.50803 1740.6531-30.06763 1729.9163-43.53131Z" fill="#ffffff"/>
<path transform="matrix(1,0,0,-1,-1636.368,139.03601)" stroke-width=".3985" stroke-linecap="butt" stroke-miterlimit="10" stroke-linejoin="miter" fill="none" stroke="#000000" d="M1765.6895-26.3057 1766.893-31.57997 1772.8518-24.1079 1770.889-15.50803 1740.6531-30.06763 1729.9163-43.53131Z"/>
<path transform="matrix(1,0,0,-1,-1636.368,139.03601)" d="M1705.5582-55.25949 1714.4002-51.00238 1725.1381-37.53871 1707.6863-45.9423 1687.5735-20.71956 1685.4464-30.03674Z" fill="#ffffff"/>
<path transform="matrix(1,0,0,-1,-1636.368,139.03601)" stroke-width=".3985" stroke-linecap="butt" stroke-miterlimit="10" stroke-linejoin="miter" fill="none" stroke="#000000" d="M1705.5582-55.25949 1714.4002-51.00238 1725.1381-37.53871 1707.6863-45.9423 1687.5735-20.71956 1685.4464-30.03674Z"/>
<path transform="matrix(1,0,0,-1,-1636.368,139.03601)" d="M1661.4949 0 1679.4877-22.56467 1681.6157-13.24748 1671.0512 0 1690.086 23.87079 1693.9208 40.66502Z" fill="#ffffff"/>
<path transform="matrix(1,0,0,-1,-1636.368,139.03601)" stroke-width=".3985" stroke-linecap="butt" stroke-miterlimit="10" stroke-linejoin="miter" fill="none" stroke="#000000" d="M1661.4949 0 1679.4877-22.56467 1681.6157-13.24748 1671.0512 0 1690.086 23.87079 1693.9208 40.66502Z"/>
<path transform="matrix(1,0,0,-1,-1636.368,139.03601)" d="M1705.5582 55.25949 1704.6605 54.1327 1700.8259 37.33946 1707.6863 45.9423 1754.321 23.48622 1752.195 32.8034Z" fill="#ffffff"/>
<path transform="matrix(1,0,0,-1,-1636.368,139.03601)" stroke-width=".3985" stroke-linecap="butt" stroke-miterlimit="10" stroke-linejoin="miter" fill="none" stroke="#000000" d="M1705.5582 55.25949 1704.6605 54.1327 1700.8259 37.33946 1707.6863 45.9423 1754.321 23.48622 1752.195 32.8034Z"/>
<path transform="matrix(1,0,0,-1,-1636.368,139.03601)" d="M1765.6895 26.3057 1760.8058 28.6569 1762.9318 19.33972 1770.889 15.50803 1778.3543 48.2138 1774.5225 65.00406Z" fill="#ffffff"/>
<path transform="matrix(1,0,0,-1,-1636.368,139.03601)" stroke-width=".3985" stroke-linecap="butt" stroke-miterlimit="10" stroke-linejoin="miter" fill="none" stroke="#000000" d="M1765.6895 26.3057 1760.8058 28.6569 1762.9318 19.33972 1770.889 15.50803 1778.3543 48.2138 1774.5225 65.00406Z"/>
<path transform="matrix(1,0,0,-1,-1636.368,139.03601)" d="M1780.538 91.36157 1778.3543 81.79332 1782.1858 65.00406 1786.4967 83.88849H1818.7582L1812.7994 91.36157Z" fill="#ffffff"/>
<path transform="matrix(1,0,0,-1,-1636.368,139.03601)" stroke-width=".3985" stroke-linecap="butt" stroke-miterlimit="10" stroke-linejoin="miter" fill="none" stroke="#000000" d="M1780.538 91.36157 1778.3543 81.79332 1782.1858 65.00406 1786.4967 83.88849H1818.7582L1812.7994 91.36157Z"/>
<path transform="matrix(1,0,0,-1,-1636.368,139.03601)" d="M1851.2119 91.36157H1822.3567L1828.3145 83.88849H1845.2542L1852.0477 54.1327 1862.7876 40.66502Z" fill="#ffffff"/>
<path transform="matrix(1,0,0,-1,-1636.368,139.03601)" stroke-width=".3985" stroke-linecap="butt" stroke-miterlimit="10" stroke-linejoin="miter" fill="none" stroke="#000000" d="M1851.2119 91.36157H1822.3567L1828.3145 83.88849H1845.2542L1852.0477 54.1327 1862.7876 40.66502Z"/>
<path transform="matrix(1,0,0,-1,-1636.368,139.03601)" d="M1866.9451 22.45706 1866.6223 23.87079 1855.8825 37.33946 1858.3333 26.60457 1811.6946 4.1465 1820.3064 0Z" fill="#ffffff"/>
<path transform="matrix(1,0,0,-1,-1636.368,139.03601)" stroke-width=".3985" stroke-linecap="butt" stroke-miterlimit="10" stroke-linejoin="miter" fill="none" stroke="#000000" d="M1866.9451 22.45706 1866.6223 23.87079 1855.8825 37.33946 1858.3333 26.60457 1811.6946 4.1465 1820.3064 0Z"/>
<path transform="matrix(1,0,0,-1,-1636.368,139.03601)" d="M1806.8139-6.4967 1811.6946-4.1465 1803.0838 0 1795.1305-3.82968 1816.0553-30.06763 1831.5703-37.53871Z" fill="#ffffff"/>
<path transform="matrix(1,0,0,-1,-1636.368,139.03601)" stroke-width=".3985" stroke-linecap="butt" stroke-miterlimit="10" stroke-linejoin="miter" fill="none" stroke="#000000" d="M1806.8139-6.4967 1811.6946-4.1465 1803.0838 0 1795.1305-3.82968 1816.0553-30.06763 1831.5703-37.53871Z"/>
<path transform="matrix(1,0,0,-1,-1636.368,139.03601)" d="M1848.4234-58.67073 1842.3082-51.00238 1826.7921-43.53131 1838.8671-58.67073 1818.7582-83.88849H1828.3145Z" fill="#ffffff"/>
<path transform="matrix(1,0,0,-1,-1636.368,139.03601)" stroke-width=".3985" stroke-linecap="butt" stroke-miterlimit="10" stroke-linejoin="miter" fill="none" stroke="#000000" d="M1848.4234-58.67073 1842.3082-51.00238 1826.7921-43.53131 1838.8671-58.67073 1818.7582-83.88849H1828.3145Z"/>
<path transform="matrix(1,0,0,-1,-1636.368,139.03601)" d="M1804.359-113.93024 1822.3567-91.36157H1812.7994L1802.2329-104.61305 1774.7138-91.36057H1757.4912Z" fill="#ffffff"/>
<path transform="matrix(1,0,0,-1,-1636.368,139.03601)" stroke-width=".3985" stroke-linecap="butt" stroke-miterlimit="10" stroke-linejoin="miter" fill="none" stroke="#000000" d="M1804.359-113.93024 1822.3567-91.36157H1812.7994L1802.2329-104.61305 1774.7138-91.36057H1757.4912Z"/>
<path transform="matrix(1,0,0,-1,-1636.368,139.03601)" d="M1740.679-83.26483 1741.9741-83.8895H1759.1968L1749.2888-79.11832 1760.8058-28.6569 1752.195-32.8034Z" fill="#ffffff"/>
<path transform="matrix(1,0,0,-1,-1636.368,139.03601)" stroke-width=".3985" stroke-linecap="butt" stroke-miterlimit="10" stroke-linejoin="miter" fill="none" stroke="#000000" d="M1740.679-83.26483 1741.9741-83.8895H1759.1968L1749.2888-79.11832 1760.8058-28.6569 1752.195-32.8034Z"/>
<path transform="matrix(1,0,0,-1,-1636.368,139.03601)" d="M1755.5275-18.20198 1754.321-23.48622 1762.9318-19.33972 1764.8965-10.7299H1731.3419L1715.8239-18.20198Z" fill="#ffffff"/>
<path transform="matrix(1,0,0,-1,-1636.368,139.03601)" stroke-width=".3985" stroke-linecap="butt" stroke-miterlimit="10" stroke-linejoin="miter" fill="none" stroke="#000000" d="M1755.5275-18.20198 1754.321-23.48622 1762.9318-19.33972 1764.8965-10.7299H1731.3419L1715.8239-18.20198Z"/>
<path transform="matrix(1,0,0,-1,-1636.368,139.03601)" d="M1688.7959-18.20198H1698.6012L1714.1193-10.7299H1694.7546L1687.5735 20.71956 1681.6157 13.24748Z" fill="#ffffff"/>
<path transform="matrix(1,0,0,-1,-1636.368,139.03601)" stroke-width=".3985" stroke-linecap="butt" stroke-miterlimit="10" stroke-linejoin="miter" fill="none" stroke="#000000" d="M1688.7959-18.20198H1698.6012L1714.1193-10.7299H1694.7546L1687.5735 20.71956 1681.6157 13.24748Z"/>
<path transform="matrix(1,0,0,-1,-1636.368,139.03601)" d="M1673.0636 50.70152 1679.4877 22.56467 1685.4464 30.03674 1681.6744 46.55502 1709.1887 59.8045 1719.9236 73.26718Z" fill="#ffffff"/>
<path transform="matrix(1,0,0,-1,-1636.368,139.03601)" stroke-width=".3985" stroke-linecap="butt" stroke-miterlimit="10" stroke-linejoin="miter" fill="none" stroke="#000000" d="M1673.0636 50.70152 1679.4877 22.56467 1685.4464 30.03674 1681.6744 46.55502 1709.1887 59.8045 1719.9236 73.26718Z"/>
<path transform="matrix(1,0,0,-1,-1636.368,139.03601)" d="M1736.7446 81.36693 1735.4375 80.73827 1724.7026 67.27458 1734.6177 72.04974 1766.893 31.57997 1769.02 40.89716Z" fill="#ffffff"/>
<path transform="matrix(1,0,0,-1,-1636.368,139.03601)" stroke-width=".3985" stroke-linecap="butt" stroke-miterlimit="10" stroke-linejoin="miter" fill="none" stroke="#000000" d="M1736.7446 81.36693 1735.4375 80.73827 1724.7026 67.27458 1734.6177 72.04974 1766.893 31.57997 1769.02 40.89716Z"/>
<path transform="matrix(1,0,0,-1,-1636.368,139.03601)" d="M1778.3543 29.1929 1774.9788 33.42508 1772.8518 24.1079 1778.3543 17.20868 1799.278 43.44463 1803.1096 60.2329Z" fill="#ffffff"/>
<path transform="matrix(1,0,0,-1,-1636.368,139.03601)" stroke-width=".3985" stroke-linecap="butt" stroke-miterlimit="10" stroke-linejoin="miter" fill="none" stroke="#000000" d="M1778.3543 29.1929 1774.9788 33.42508 1772.8518 24.1079 1778.3543 17.20868 1799.278 43.44463 1803.1096 60.2329Z"/>
<path transform="matrix(1,0,0,-1,-1636.368,139.03601)" d="M1819.9636 81.36693 1813.8456 73.69559 1810.0149 56.90732 1822.0907 72.04974 1851.1521 58.05504 1849.025 67.37221Z" fill="#ffffff"/>
<path transform="matrix(1,0,0,-1,-1636.368,139.03601)" stroke-width=".3985" stroke-linecap="butt" stroke-miterlimit="10" stroke-linejoin="miter" fill="none" stroke="#000000" d="M1819.9636 81.36693 1813.8456 73.69559 1810.0149 56.90732 1822.0907 72.04974 1851.1521 58.05504 1849.025 67.37221Z"/>
<path transform="matrix(1,0,0,-1,-1636.368,139.03601)" d="M1883.6447 50.70152 1857.6359 63.22572 1859.7639 53.90854 1875.0338 46.55502 1868.2363 16.78326 1872.068 0Z" fill="#ffffff"/>
<path transform="matrix(1,0,0,-1,-1636.368,139.03601)" stroke-width=".3985" stroke-linecap="butt" stroke-miterlimit="10" stroke-linejoin="miter" fill="none" stroke="#000000" d="M1883.6447 50.70152 1857.6359 63.22572 1859.7639 53.90854 1875.0338 46.55502 1868.2363 16.78326 1872.068 0Z"/>
<path transform="matrix(1,0,0,-1,-1636.368,139.03601)" d="M1867.9125-18.20198 1868.2363-16.78326 1864.4036 0 1861.9537-10.7299H1810.1902L1816.1489-18.20198Z" fill="#ffffff"/>
<path transform="matrix(1,0,0,-1,-1636.368,139.03601)" stroke-width=".3985" stroke-linecap="butt" stroke-miterlimit="10" stroke-linejoin="miter" fill="none" stroke="#000000" d="M1867.9125-18.20198 1868.2363-16.78326 1864.4036 0 1861.9537-10.7299H1810.1902L1816.1489-18.20198Z"/>
<path transform="matrix(1,0,0,-1,-1636.368,139.03601)" d="M1801.1809-18.20198H1806.5917L1800.6329-10.7299H1791.8119L1799.278-43.44463 1810.0149-56.90732Z" fill="#ffffff"/>
<path transform="matrix(1,0,0,-1,-1636.368,139.03601)" stroke-width=".3985" stroke-linecap="butt" stroke-miterlimit="10" stroke-linejoin="miter" fill="none" stroke="#000000" d="M1801.1809-18.20198H1806.5917L1800.6329-10.7299H1791.8119L1799.278-43.44463 1810.0149-56.90732Z"/>
<path transform="matrix(1,0,0,-1,-1636.368,139.03601)" d="M1816.0294-83.26483 1813.8456-73.69559 1803.1096-60.2329 1807.4196-79.11832 1778.3543-93.11403 1786.965-97.26051Z" fill="#ffffff"/>
<path transform="matrix(1,0,0,-1,-1636.368,139.03601)" stroke-width=".3985" stroke-linecap="butt" stroke-miterlimit="10" stroke-linejoin="miter" fill="none" stroke="#000000" d="M1816.0294-83.26483 1813.8456-73.69559 1803.1096-60.2329 1807.4196-79.11832 1778.3543-93.11403 1786.965-97.26051Z"/>
<path transform="matrix(1,0,0,-1,-1636.368,139.03601)" d="M1752.3494-113.93024 1778.3543-101.40802 1769.7434-97.26051 1754.4755-104.61305 1735.4375-80.73827 1719.9236-73.26718Z" fill="#ffffff"/>
<path transform="matrix(1,0,0,-1,-1636.368,139.03601)" stroke-width=".3985" stroke-linecap="butt" stroke-miterlimit="10" stroke-linejoin="miter" fill="none" stroke="#000000" d="M1752.3494-113.93024 1778.3543-101.40802 1769.7434-97.26051 1754.4755-104.61305 1735.4375-80.73827 1719.9236-73.26718Z"/>
<path transform="matrix(1,0,0,-1,-1636.368,139.03601)" d="M1708.285-58.67073 1709.1887-59.8045 1724.7026-67.27458 1717.8413-58.67073 1750.1167-18.20198H1740.5595Z" fill="#ffffff"/>
<path transform="matrix(1,0,0,-1,-1636.368,139.03601)" stroke-width=".3985" stroke-linecap="butt" stroke-miterlimit="10" stroke-linejoin="miter" fill="none" stroke="#000000" d="M1708.285-58.67073 1709.1887-59.8045 1724.7026-67.27458 1717.8413-58.67073 1750.1167-18.20198H1740.5595Z"/>
<path transform="matrix(1,0,0,-1,-1636.368,139.03601)" d="M1749.8945-6.4967 1746.5182-10.7299H1756.0755L1761.5779-3.82968 1731.3419 10.7299H1714.1193Z" fill="#ffffff"/>
<path transform="matrix(1,0,0,-1,-1636.368,139.03601)" stroke-width=".3985" stroke-linecap="butt" stroke-miterlimit="10" stroke-linejoin="miter" fill="none" stroke="#000000" d="M1749.8945-6.4967 1746.5182-10.7299H1756.0755L1761.5779-3.82968 1731.3419 10.7299H1714.1193Z"/>
<path transform="matrix(1,0,0,-1,-1636.368,139.03601)" d="M1689.7632 22.45706 1698.6012 18.20198H1715.8239L1698.375 26.60457 1705.5563 58.05504 1696.9445 53.90854Z" fill="#ffffff"/>
<path transform="matrix(1,0,0,-1,-1636.368,139.03601)" stroke-width=".3985" stroke-linecap="butt" stroke-miterlimit="10" stroke-linejoin="miter" fill="none" stroke="#000000" d="M1689.7632 22.45706 1698.6012 18.20198H1715.8239L1698.375 26.60457 1705.5563 58.05504 1696.9445 53.90854Z"/>
</svg>
