<svg xmlns="http://www.w3.org/2000/svg" xmlns:xlink="http://www.w3.org/1999/xlink" xmlns:inkscape="http://www.inkscape.org/namespaces/inkscape" version="1.1" width="387.69" height="306.03" viewBox="0 0 387.69 306.03">
<defs>
<path id="font_1_38" d="M.45700074-.054016115C.45700074-.038009645 .44898988-.025009156 .43099977-.025009156 .2899933-.022018433 .2899933 .0129852299 .2899933 .04498291V.20596314C.2899933 .23295594 .2849884 .2779541 .22799683 .3049469 .2899933 .33694459 .2899933 .3829193 .2899933 .41490174V.5298157C.2899933 .5527954 .2899933 .58776858 .2939911 .596756 .31098939 .633728 .4039917 .6357422 .43299867 .6357422 .44299317 .6357422 .45700074 .6437378 .45700074 .6647339 .45700074 .69374087 .43598939 .69374087 .4169922 .69374087 .36999513 .69374087 .23399353 .68673709 .22499085 .58776858V.4308777C.22499085 .3849182 .22499085 .37393189 .20298767 .35993959 .1749878 .34094239 .13999939 .33595277 .10598755 .33496095 .07598877 .33496095 .056991579 .33395387 .056991579 .30595399 .056991579 .27694703 .07899475 .2759552 .09298706 .2759552 .15699768 .27494813 .22299195 .2589569 .22499085 .21595764V.049972536C.22499085 .010986328 .22499085-.08300781 .4169922-.08300781 .43598939-.08300781 .45700074-.08300781 .45700074-.054016115Z"/>
<path id="font_1_39" d="M.45700074 .3049469C.45700074 .33395387 .43499757 .33496095 .42099 .33496095 .34700013 .33595277 .2919922 .35594178 .2899933 .39491273V.560791C.2899933 .59976199 .2899933 .69374087 .09700012 .69374087 .07899475 .69374087 .056991579 .69374087 .056991579 .6647339 .056991579 .6487274 .06498718 .6357422 .08299255 .6357422 .22499085 .6327362 .22499085 .5987549 .22499085 .56578066V.40490724C.22499085 .3869171 .22499085 .33595277 .2869873 .30595399 .22499085 .2739563 .22499085 .22796631 .22499085 .19596863V.08097839C.22499085 .0579834 .22499085 .022979737 .22099304 .013977051 .20399475-.023010254 .11099243-.025009156 .08099365-.025009156 .07199097-.025009156 .056991579-.03201294 .056991579-.054016115 .056991579-.08300781 .07899475-.08300781 .09700012-.08300781 .1499939-.08300781 .2809906-.074020389 .2899933 .022979737V.17996216C.2899933 .22796631 .2899933 .23995972 .31999208 .25595094 .34700013 .2699585 .37799073 .27494813 .4079895 .2759552 .43798829 .2759552 .45700074 .27694703 .45700074 .3049469Z"/>
<path id="font_1_83" d="M.47099305 .42918397C.47099305 .52227786 .39898683 .6113281 .2849884 .6113281H.068984989C.054992677 .6113281 .027999878 .6113281 .027999878 .58232119 .027999878 .5533142 .054992677 .5533142 .068984989 .5533142H.09599304V.057998659H.068984989C.054992677 .057998659 .027999878 .057998659 .027999878 .0289917 .027999878 0 .054992677 0 .068984989 0H.18798828C.20199585 0 .22898865 0 .22898865 .0289917 .22898865 .057998659 .20199585 .057998659 .18798828 .057998659H.16099549V.24804688H.2849884C.40098573 .24804688 .47099305 .34007264 .47099305 .42918397M.4059906 .43017579C.4059906 .3731079 .36099244 .30604554 .2669983 .30604554H.16099549V.5533142H.2669983C.36299134 .5533142 .4059906 .48324586 .4059906 .43017579Z"/>
<path id="font_1_28" d="M.5089874 .0289917C.5089874 .057998659 .48298646 .057998659 .46899415 .057998659 .44299317 .057998659 .4229889 .05999756 .40899659 .06600952V.2842865C.40899659 .36039735 .35198976 .4404297 .21699524 .4404297 .1749878 .4404297 .07798767 .4404297 .07798767 .37141419 .07798767 .3443756 .09700012 .3293457 .11898804 .3293457 .125 .3293457 .1579895 .33135987 .15899658 .3734131 .15899658 .37841798 .1599884 .37942506 .18099976 .38142396 .19299317 .38241578 .20599365 .38241578 .21798706 .38241578 .24099732 .38241578 .2749939 .38241578 .30799867 .35739137 .34399415 .3293457 .34399415 .3013153 .34399415 .27227784 .2849884 .27027894 .22698975 .26626588 .16499329 .24624634 .114990238 .22921753 .050994874 .19317627 .050994874 .1250763 .050994874 .054138185 .11399841-.005859375 .20698548-.005859375 .23899842-.005859375 .30099488-.000869751 .35299684 .035125734 .37298585 .0019989014 .4229889 0 .46099855 0 .4850006 0 .5089874 0 .5089874 .0289917M.34399415 .13198853C.34399415 .10899353 .34399415 .08799744 .30299378 .068984989 .2679901 .052139284 .22099304 .052139284 .21798706 .052139284 .15899658 .052139284 .115997318 .08418274 .115997318 .12522888 .115997318 .18431092 .22299195 .21835327 .34399415 .21835327V.13198853Z"/>
<path id="font_1_105" d="M.43998719 .123031619C.43998719 .14299011 .43998719 .16496277 .40699769 .16496277 .375 .16496277 .375 .14299011 .375 .122024539 .37399293 .06211853 .31698609 .052139284 .2939911 .052139284 .21598816 .052139284 .21598816 .10206604 .21598816 .12602234V.37265016H.37799073C.3919983 .37265016 .41799928 .37265016 .41799928 .4016571 .41799928 .43066407 .3919983 .43066407 .37799073 .43066407H.21598816V.51268008C.21598816 .5307007 .21598816 .55371096 .18399048 .55371096 .15098572 .55371096 .15098572 .5307007 .15098572 .51268008V.43066407H.06599426C.051986696 .43066407 .024993897 .43066407 .024993897 .4016571 .024993897 .37265016 .050994874 .37265016 .06498718 .37265016H.15098572V.121032718C.15098572 .028137207 .21499634-.005859375 .2869873-.005859375 .34098817-.005859375 .43998719 .021133423 .43998719 .123031619Z"/>
<path id="font_1_50" d="M.45599366 .109298709C.45599366 .11531067 .45399476 .13737488 .4229889 .13737488 .4039917 .13737488 .397995 .13035584 .3919983 .11531067 .36698915 .057144166 .3019867 .052139284 .2829895 .052139284 .19999695 .052139284 .13398743 .11531067 .12298584 .19238281H.41600038C.43699647 .19238281 .45599366 .19238281 .45599366 .22938538 .45599366 .34640504 .3899994 .4404297 .2649994 .4404297 .14898682 .4404297 .055999757 .34040834 .055999757 .21838379 .055999757 .09225464 .15699768-.005859375 .27999879-.005859375 .40899659-.005859375 .45599366 .083221439 .45599366 .109298709M.3899994 .24739075 .12399292 .24737549C.13699341 .33239747 .20199585 .38241578 .2649994 .38241578 .36499024 .38241578 .38598634 .2973938 .3899994 .24737549V.24739075Z"/>
<path id="font_1_96" d="M.47799684 .3775177C.47799684 .42051698 .43598939 .43652345 .38598634 .43652345 .31900025 .43652345 .2619934 .4065094 .21598816 .35050965V.3895111C.21598816 .4206543 .20999146 .43066407 .17599488 .43066407H.07499695C.06098938 .43066407 .034988405 .43066407 .034988405 .4016571 .034988405 .37265016 .06098938 .37265016 .07499695 .37265016H.15098572V.057998659H.07499695C.06098938 .057998659 .034988405 .057998659 .034988405 .0289917 .034988405 0 .06098938 0 .07499695 0H.32099916C.33499146 0 .36099244 0 .36099244 .0289917 .36099244 .057998659 .33499146 .057998659 .32099916 .057998659H.21598816V.18885803C.21598816 .30751039 .2999878 .37850953 .3849945 .37850953 .3899994 .37850953 .3959961 .37850953 .40098573 .3775177 .4039917 .34152223 .43199159 .33851625 .43899537 .33851625 .46199037 .33851625 .47799684 .35551454 .47799684 .3775177Z"/>
<path id="font_1_77" d="M.49899293 .0289917C.49899293 .057998659 .47299195 .057998659 .45899964 .057998659H.41799928V.29264833C.41799928 .3905182 .37199403 .43652345 .2899933 .43652345 .22200012 .43652345 .17799378 .3985138 .16099549 .3795166 .16099549 .4166565 .16099549 .43066407 .12098694 .43066407H.054992677C.040985109 .43066407 .01499939 .43066407 .01499939 .4016571 .01499939 .37265016 .040985109 .37265016 .054992677 .37265016H.09599304V.057998659H.054992677C.040985109 .057998659 .01499939 .057998659 .01499939 .0289917 .01499939 0 .040985109 0 .054992677 0H.20199585C.21598816 0 .24198914 0 .24198914 .0289917 .24198914 .057998659 .21598816 .057998659 .20199585 .057998659H.16099549V.23880005C.16099549 .3355713 .22898865 .37850953 .2829895 .37850953 .34098817 .37850953 .35299684 .3455658 .35299684 .2886505V.057998659H.31199647C.2979889 .057998659 .27198792 .057998659 .27198792 .0289917 .27198792 0 .2979889 0 .31199647 0H.45899964C.47299195 0 .49899293 0 .49899293 .0289917Z"/>
<path id="font_1_85" d="M.42799378-.057006837C.42799378-.04399109 .42099-.039993287 .40699769-.02999878 .2689972 .06504822 .23498535 .20811463 .23498535 .30516053 .23498535 .40020753 .2669983 .54426577 .40699769 .64131167 .42099 .6513214 .42799378 .6553192 .42799378 .6683197 .42799378 .67832949 .4229889 .69433596 .39898683 .69433596 .37399293 .69433596 .2999878 .63630679 .2539978 .5712738 .19799805 .49324037 .16999817 .40020753 .16999817 .30516053 .16999817 .19410706 .20999146 .10107422 .2519989 .042037965 .2979889-.021987915 .37098695-.08300781 .39898683-.08300781 .4229889-.08300781 .42799378-.06600952 .42799378-.057006837Z"/>
<path id="font_1_34" d="M.47299195 .16706848C.47299195 .2381134 .42399598 .30314637 .34498597 .3201599 .394989 .33618165 .45199586 .38420106 .45199586 .45625306 .45199586 .5292969 .3929901 .6113281 .2829895 .6113281H.06599426C.051986696 .6113281 .025985718 .6113281 .025985718 .58232119 .025985718 .5533142 .052993776 .5533142 .066986087 .5533142H.09098816V.057998659H.066986087C.052993776 .057998659 .025985718 .057998659 .025985718 .0289917 .025985718 0 .052993776 0 .06599426 0H.30299378C.4139862 .000061035159 .47299195 .08805847 .47299195 .16705323V.16706848M.3869934 .4552002C.3869934 .40812684 .34799195 .34706117 .2639923 .34706117H.1559906V.5533142H.27999879C.36299134 .5530548 .3869934 .49105836 .3869934 .4550476V.4552002M.4079895 .1690216C.4079895 .120010379 .36999513 .057998659 .2809906 .057998659H.1559906V.2890625H.2869873C.3880005 .2889862 .4079895 .20298767 .4079895 .16899109V.1690216Z"/>
<path id="font_1_43" d="M.45599366 .109176639C.45599366 .13520813 .43099977 .13520813 .4229889 .13520813 .3999939 .13520813 .3959961 .12719727 .3909912 .1131897 .36898805 .058135988 .31999208 .052139284 .29599 .052139284 .21099854 .052139284 .13899231 .12319946 .13899231 .21627808 .13899231 .26731874 .16799927 .38241578 .29899598 .38241578 .32598878 .38241578 .34700013 .38041688 .35598756 .37942506 .36299134 .37742616 .3639984 .37641908 .3639984 .37141419 .36698915 .3303833 .397995 .32937623 .4039917 .32937623 .42599488 .32937623 .44499208 .34439088 .44499208 .37141419 .44499208 .4404297 .34399415 .4404297 .2999878 .4404297 .1289978 .4404297 .07398987 .300354 .07398987 .21627808 .07398987 .094177249 .16699219-.005859375 .2869873-.005859375 .42099-.006011963 .45599366 .09298706 .45599366 .10899353V.109176639Z"/>
<path id="font_1_63" d="M.49899293 .0289917C.49899293 .057998659 .47299195 .057998659 .45899964 .057998659H.41799928V.29264833C.41799928 .3905182 .37199403 .43652345 .2899933 .43652345 .22200012 .43652345 .17799378 .3985138 .16099549 .3795166V.57032778C.16099549 .60131838 .15499878 .6113281 .12098694 .6113281H.054992677C.040985109 .6113281 .01499939 .6113281 .01499939 .58232119 .01499939 .5533142 .040985109 .5533142 .054992677 .5533142H.09599304V.057998659H.054992677C.040985109 .057998659 .01499939 .057998659 .01499939 .0289917 .01499939 0 .040985109 0 .054992677 0H.20199585C.21598816 0 .24198914 0 .24198914 .0289917 .24198914 .057998659 .21598816 .057998659 .20199585 .057998659H.16099549V.23872376C.16099549 .3355713 .22898865 .37850953 .2829895 .37850953 .34098817 .37850953 .35299684 .3455658 .35299684 .2886505V.057998659H.31199647C.2979889 .057998659 .27198792 .057998659 .27198792 .0289917 .27198792 0 .2979889 0 .31199647 0H.45899964C.47299195 0 .49899293 0 .49899293 .0289917Z"/>
<path id="font_1_45" d="M.33499146 .017990113C.33499146 .070999149 .3019867 .11299133 .2579956 .11299133 .22099304 .11299133 .20098877 .083999637 .20098877 .056991579 .20098877 .023986817 .22599793 0 .25698854 0 .2630005 0 .269989 .0009918213 .27598573 .0029907227 .2709961-.027938843 .25099183-.06585693 .20199585-.08280945 .19299317-.08480835 .17799378-.08979797 .17799378-.10874939 .17799378-.12171936 .19299317-.13867188 .20899964-.13867188 .23599243-.13867188 .33499146-.08979797 .33499146 .017990113Z"/>
<path id="font_1_97" d="M.46299745 .16421509C.46299745 .2341919 .41999818 .27816773 .4169922 .28216554 .3769989 .32315064 .35798646 .32714845 .25698854 .35113526L.18699646 .36813355C.1459961 .38311769 .11299133 .41810609 .11299133 .463089 .11299133 .5160675 .16299439 .56503298 .23199463 .56503298 .30699159 .56503298 .35798646 .52505496 .37098695 .440094 .37399293 .42111207 .37599183 .40811158 .4039917 .40811158 .43699647 .40811158 .43699647 .42610169 .43699647 .4460907V.58503726C.43699647 .6010437 .43699647 .6230469 .40899659 .6230469 .3880005 .6230469 .38598634 .615036 .37399293 .5730438 .32499696 .6160431 .2679901 .6230469 .23298645 .6230469 .1269989 .6230469 .050994874 .5470581 .050994874 .4590912 .050994874 .40011598 .085998538 .36112977 .09199524 .35513307 .13398743 .31315614 .15098572 .30915834 .2559967 .28416444 .33099366 .2671814 .34799195 .2631836 .37298585 .23518372 .3909912 .2131958 .40098573 .18821717 .40098573 .16021729 .40098573 .10624695 .35798646 .046279909 .2789917 .046279909 .19299317 .046279909 .12098694 .08325195 .115997318 .17121887 .114990238 .18621826 .11399841 .2032013 .083999637 .2032013 .050994874 .2032013 .050994874 .18421936 .050994874 .16421509V.026275635C.050994874 .010269165 .050994874-.01171875 .07899475-.01171875 .099990848-.01171875 .101989749-.0037231446 .11399841 .038269044 .16899109-.0047302248 .23799134-.01171875 .2789917-.01171875 .3919983-.01171875 .46299745 .07525635 .46299745 .16421509Z"/>
<path id="font_1_118" d="M.4909973 .4016571C.4909973 .43066407 .46398927 .43066407 .44999696 .43066407H.33999635C.32598878 .43066407 .29899598 .43066407 .29899598 .4016571 .29899598 .37265016 .32598878 .37265016 .33999635 .37265016H.36499024C.33699037 .2906494 .27999879 .12365723 .2659912 .06665039H.2649994C.2599945 .088653568 .2559967 .09965515 .24598694 .12666321L.15299988 .37265016H.17599488C.18998719 .37265016 .21699524 .37265016 .21699524 .4016571 .21699524 .43066407 .18998719 .43066407 .17599488 .43066407H.06599426C.051986696 .43066407 .024993897 .43066407 .024993897 .4016571 .024993897 .37265016 .051986696 .37265016 .06599426 .37265016H.09298706L.23298645 .012649536C.23699951 .0026550294 .23699951-.00035095216 .23699951-.00035095216 .23699951-.00035095216 .21099854-.08934021 .19599915-.11734009 .18998719-.12734986 .16499329-.17434693 .116989139-.16934204 .117996219-.16583252 .12098694-.15982056 .12098694-.14883423 .12098694-.12635803 .10499573-.11035156 .08198547-.11035156 .056991579-.11035156 .041992189-.12736511 .041992189-.1503601 .041992189-.18835449 .07398987-.22836304 .12399292-.22836304 .22099304-.22782898 .2639923-.09883118 .2669983-.09082031L.42399598 .37265016H.44999696C.46398927 .37265016 .4909973 .37265016 .4909973 .4016571Z"/>
<path id="font_1_72" d="M.45199586 .0289917C.45199586 .057998659 .42599488 .057998659 .4119873 .057998659H.2899933V.57032778C.2899933 .60131838 .28399659 .6113281 .25 .6113281H.102996829C.08898926 .6113281 .06298828 .6113281 .06298828 .58232119 .06298828 .5533142 .08898926 .5533142 .102996829 .5533142H.22499085V.057998659H.102996829C.08898926 .057998659 .06298828 .057998659 .06298828 .0289917 .06298828 0 .08898926 0 .102996829 0H.4119873C.42599488 0 .45199586 0 .45199586 .0289917Z"/>
<path id="font_1_74" d="M.49699403 .0289917C.49699403 .057998659 .47200013 .057998659 .44599916 .057998659V.5533142C.47200013 .5533142 .49699403 .5533142 .49699403 .58232119 .49699403 .6113281 .46998597 .6113281 .45599366 .6113281H.40299989C.3639984 .6113281 .35798646 .59931948 .34999085 .5733185L.2919922 .39421083C.2789917 .35317994 .2630005 .30516053 .25698854 .2721405H.2559967C.24798584 .3221588 .16099549 .58432009 .15899658 .5883179 .147995 .6113281 .12799073 .6113281 .11099243 .6113281H.057998659C.04399109 .6113281 .016998291 .6113281 .016998291 .58232119 .016998291 .5533142 .041992189 .5533142 .067993167 .5533142V.057998659C.041992189 .057998659 .016998291 .057998659 .016998291 .0289917 .016998291 0 .04399109 0 .057998659 0H.13398743C.147995 0 .1749878 0 .1749878 .0289917 .1749878 .057998659 .1499939 .057998659 .12399292 .057998659V.54130557H.125C.1309967 .5102844 .13398743 .49928285 .1459961 .46325685L.21699524 .2401123C.21899414 .23210144 .22799683 .2040863 .25698854 .2040863 .2689972 .2040863 .28599549 .21209717 .2939911 .23010254 .29899598 .24511719 .3889923 .5252991 .3899994 .53930667V.057998659C.3639984 .057998659 .33898927 .057998659 .33898927 .0289917 .33898927 0 .3659973 0 .37998963 0H.45599366C.46998597 0 .49699403 0 .49699403 .0289917Z"/>
<path id="font_1_66" d="M.44099427 .0289917C.44099427 .057998659 .4149933 .057998659 .40098573 .057998659H.3019867V.3896637C.3019867 .4206543 .29599 .43066407 .2619934 .43066407H.12998963C.115997318 .43066407 .08999634 .43066407 .08999634 .4016571 .08999634 .37265016 .115997318 .37265016 .12998963 .37265016H.23699951V.057998659H.12298584C.10899353 .057998659 .08198547 .057998659 .08198547 .0289917 .08198547 0 .10899353 0 .12298584 0H.40098573C.4149933 0 .44099427 0 .44099427 .0289917M.3019867 .55574038C.3019867 .58073428 .28199769 .6007385 .25698854 .6007385 .23199463 .6007385 .21199036 .58073428 .21199036 .55574038 .21199036 .5307312 .23199463 .5107422 .25698854 .5107422 .28199769 .5107422 .3019867 .5307312 .3019867 .55574038Z"/>
<path id="font_1_116" d="M.48599244 .0289917C.48599244 .057998659 .45999146 .057998659 .44599916 .057998659H.41099549L.28199769 .22181702 .39698792 .37265016H.43199159C.44599916 .37265016 .47200013 .37265016 .47200013 .4016571 .47200013 .43066407 .44599916 .43066407 .43199159 .43066407H.32099916C.30699159 .43066407 .2809906 .43066407 .2809906 .4016571 .2809906 .37265016 .30499269 .37265016 .32899476 .37265016L.2539978 .26976014 .1769867 .37265016C.19999695 .37265016 .22399903 .37265016 .22399903 .4016571 .22399903 .43066407 .19799805 .43066407 .18399048 .43066407H.07299805C.05899048 .43066407 .032989503 .43066407 .032989503 .4016571 .032989503 .37265016 .05899048 .37265016 .07299805 .37265016H.10798645L.22698975 .22181702 .101989749 .057998659H.067993167C.053985597 .057998659 .026992798 .057998659 .026992798 .0289917 .026992798 0 .053985597 0 .067993167 0H.17799378C.19198609 0 .21798706 0 .21798706 .0289917 .21798706 .057998659 .19499207 .057998659 .16799927 .057998659L.2539978 .18385315 .34399415 .057998659C.31900025 .057998659 .29499818 .057998659 .29499818 .0289917 .29499818 0 .32099916 0 .33499146 0H.44599916C.45999146 0 .48599244 0 .48599244 .0289917Z"/>
<path id="font_1_86" d="M.34399415 .30516053C.34399415 .38319398 .32499696 .48423768 .25299073 .58128359 .21899414 .6273041 .14498902 .69433596 .114990238 .69433596 .09199524 .69433596 .085998538 .6773224 .085998538 .6683197 .085998538 .65631106 .09298706 .6513214 .11099243 .63931277 .23298645 .55326846 .2789917 .4192047 .2789917 .30615235 .2789917 .21612549 .25 .06904602 .10699463-.02999878 .09399414-.039001466 .085998538-.04399109 .085998538-.057006837 .085998538-.06600952 .09199524-.08300781 .114990238-.08300781 .13999939-.08300781 .21398926-.024993897 .2599945 .040039064 .31799317 .12207031 .34399415 .21612549 .34399415 .30516053Z"/>
<path id="font_1_70" d="M.49699403 .0289917C.49699403 .057998659 .47099305 .057998659 .45700074 .057998659H.42999269L.28199769 .254776 .4059906 .37265016H.43598939C.44999696 .37265016 .47599793 .37265016 .47599793 .4016571 .47599793 .43066407 .44999696 .43066407 .43598939 .43066407H.2899933C.27598573 .43066407 .24899292 .43066407 .24899292 .4016571 .24899292 .37265016 .27598573 .37265016 .2899933 .37265016H.32499696L.16299439 .2188263V.57032778C.16299439 .60131838 .15699768 .6113281 .12298584 .6113281H.06199646C.04798889 .6113281 .020996094 .6113281 .020996094 .58232119 .020996094 .5533142 .04798889 .5533142 .06199646 .5533142H.10699463V.057998659H.06199646C.04798889 .057998659 .020996094 .057998659 .020996094 .0289917 .020996094 0 .04798889 0 .06199646 0H.20799256C.22200012 0 .24899292 0 .24899292 .0289917 .24899292 .057998659 .22200012 .057998659 .20799256 .057998659H.16299439V.14190674L.24099732 .21582031 .3600006 .057998659C.32798768 .057998659 .3039856 .057998659 .3039856 .0289917 .3039856 0 .33099366 0 .34498597 0H.45700074C.47099305 0 .49699403 0 .49699403 .0289917Z"/>
<path id="font_1_44" d="M.31399537 .37365724C.31399537 .406662 .2869873 .43066407 .2579956 .43066407 .22599793 .43066407 .20098877 .4056549 .20098877 .37365724 .20098877 .34365846 .22698975 .31765748 .25698854 .31765748 .2899933 .31765748 .31399537 .34465028 .31399537 .37365724M.31399537 .055999757C.31399537 .08898926 .2869873 .11299133 .2579956 .11299133 .22599793 .11299133 .20098877 .08799744 .20098877 .055999757 .20098877 .025985718 .22698975 0 .25698854 0 .2899933 0 .31399537 .026992798 .31399537 .055999757Z"/>
<path id="font_1_84" d="M.47698976 .21551514C.47698976 .33851625 .3929901 .43652345 .2889862 .43652345 .21598816 .43652345 .16999817 .3925171 .16099549 .38252259 .16099549 .4156494 .16099549 .43066407 .12098694 .43066407H.054992677C.040985109 .43066407 .01499939 .43066407 .01499939 .4016571 .01499939 .37265016 .040985109 .37265016 .054992677 .37265016H.09599304V-.16368103H.054992677C.040985109-.16368103 .01499939-.16368103 .01499939-.19268799 .01499939-.22167969 .040985109-.22167969 .054992677-.22167969H.20199585C.21598816-.22167969 .24198914-.22167969 .24198914-.19268799 .24198914-.16368103 .21598816-.16368103 .20199585-.16368103H.16099549V.05014038C.18499756 .023132325 .22200012-.005859375 .27799989-.005859375 .38398744-.005859375 .47698976 .08908081 .47698976 .2158966V.21551514M.4119873 .2158966C.4119873 .120025638 .34399415 .052139284 .272995 .052139284 .19799805 .052139284 .16099549 .13700867 .16099549 .18693543V.2658081C.16099549 .32250978 .21699524 .37850953 .28199769 .37850953 .35398866 .37850953 .4119873 .30551148 .4119873 .21551514V.2158966Z"/>
<path id="font_1_98" d="M.44898988 .124420169C.44898988 .22842407 .32499696 .24942017 .2769928 .25642396 .18899536 .27142335 .1289978 .28141786 .1289978 .3234253 .1289978 .3504181 .1599884 .38241578 .2539978 .38241578 .34899903 .38241578 .35299684 .3374176 .35499574 .31141664 .35699464 .2914276 .375 .28842164 .3869934 .28842164 .41999818 .28842164 .41999818 .306427 .41999818 .32641603V.40242005C.41999818 .4184265 .41999818 .4404297 .3919983 .4404297 .36799623 .4404297 .3619995 .4164276 .3619995 .4164276 .32199098 .4404297 .27598573 .4404297 .2559967 .4404297 .09298706 .4404297 .070999149 .35742188 .070999149 .3234253 .070999149 .28242494 .09498596 .25442506 .1289978 .23542786 .16099549 .21742249 .18998719 .2124176 .27198792 .19941712 .31098939 .19213867 .3909912 .17913819 .3909912 .12413025 .3909912 .087127689 .35699464 .052139284 .2639923 .052139284 .19999695 .052139284 .1579895 .07713318 .13699341 .1491394 .13198853 .16313172 .1289978 .1741333 .10398865 .1741333 .070999149 .1741333 .070999149 .15513611 .070999149 .13513184V.03213501C.070999149 .01612854 .070999149-.005859375 .09899902-.005859375 .11099243-.005859375 .11999512-.005859375 .1349945 .035125734 .18099976-.0028686524 .23298645-.005859375 .2639923-.005859375 .44898988-.005859375 .44898988 .11413574 .44898988 .12413025V.124420169Z"/>
<path id="font_1_55" d="M.42900086 .56018069C.42900086 .6171875 .35299684 .6171875 .33799745 .6171875 .2619934 .6171875 .18199158 .574173 .18199158 .48487855V.43066407H.08299255C.068984989 .43066407 .041992189 .43066407 .041992189 .4016571 .041992189 .37265016 .067993167 .37265016 .08198547 .37265016H.18199158V.057998659H.08699036C.07299805 .057998659 .04699707 .057998659 .04699707 .0289917 .04699707 0 .07299805 0 .08699036 0H.34199525C.35598756 0 .38198854 0 .38198854 .0289917 .38198854 .057998659 .35598756 .057998659 .34199525 .057998659H.24699402V.37265016H.36799623C.38198854 .37265016 .4079895 .37265016 .4079895 .4016571 .4079895 .43066407 .38198854 .43066407 .36799623 .43066407H.24699402V.48086549C.24699402 .5591736 .31698609 .5591736 .34899903 .5591736 .34899903 .5591736 .35699464 .52001956 .3899994 .52001956 .4059906 .52001956 .42900086 .532074 .42900086 .56018069Z"/>
<path id="font_1_81" d="M.45599366 .21627808C.45599366 .3413849 .36499024 .4404297 .25698854 .4404297 .14898682 .4404297 .057998659 .3413849 .057998659 .21627808 .057998659 .090164188 .1499939-.005859375 .25698854-.005859375 .3639984-.005859375 .45599366 .090164188 .45599366 .21627808M.3909912 .22328186C.3909912 .12719727 .32899476 .052139284 .25698854 .052139284 .18499756 .052139284 .12298584 .12820435 .12298584 .22328186 .12298584 .31636048 .18699646 .38241578 .25698854 .38241578 .32699586 .38241578 .3909912 .31636048 .3909912 .22328186Z"/>
<path id="font_1_75" d="M.5069885 .0289917C.5069885 .057998659 .48399354 .057998659 .45298768 .057998659V.30262757C.45298768 .32460023 .45298768 .43652345 .36499024 .43652345 .32998658 .43652345 .29599 .42051698 .2689972 .3835144 .2630005 .3985138 .24099732 .43652345 .19299317 .43652345 .147995 .43652345 .116989139 .40751649 .10899353 .3985138 .10798645 .43066407 .08699036 .43066407 .068984989 .43066407H.038986207C.024993897 .43066407-.0010070801 .43066407-.0010070801 .4016571-.0010070801 .37265016 .021987915 .37265016 .052993776 .37265016V.057998659C.020996094 .057998659-.0010070801 .057998659-.0010070801 .0289917-.0010070801 0 .024993897 0 .038986207 0H.12298584C.13699341 0 .16299439 0 .16299439 .0289917 .16299439 .057998659 .13999939 .057998659 .10899353 .057998659V.24179077C.10899353 .32559205 .14498902 .37850953 .18899536 .37850953 .21699524 .37850953 .22499085 .3435669 .22499085 .29663087V.057998659C.20799256 .057998659 .18099976 .057998659 .18099976 .0289917 .18099976 0 .20799256 0 .22200012 0H.29499818C.30899049 0 .33499146 0 .33499146 .0289917 .33499146 .057998659 .31199647 .057998659 .2809906 .057998659V.24171448C.2809906 .32559205 .31698609 .37850953 .36099244 .37850953 .3889923 .37850953 .39698792 .3435669 .39698792 .29663087V.057998659C.37998963 .057998659 .35299684 .057998659 .35299684 .0289917 .35299684 0 .37998963 0 .3939972 0H.46699525C.48098756 0 .5069885 0 .5069885 .0289917Z"/>
<path id="font_1_104" d="M.48799134 .5042877V.57032778C.48799134 .60131838 .48199464 .6113281 .44799806 .6113281H.066986087C.033996583 .6113281 .025985718 .60331729 .025985718 .57032778V.5042877C.025985718 .4862671 .025985718 .46325685 .057998659 .46325685 .09098816 .46325685 .09098816 .48527528 .09098816 .5042877V.5533142H.22499085V.057998659H.1769867C.16299439 .057998659 .13699341 .057998659 .13699341 .0289917 .13699341 0 .16299439 0 .1769867 0H.33799745C.35198976 0 .37799073 0 .37799073 .0289917 .37799073 .057998659 .35198976 .057998659 .33799745 .057998659H.2899933V.5533142H.4229889V.5042877C.4229889 .4862671 .4229889 .46325685 .45498658 .46325685 .48799134 .46325685 .48799134 .48527528 .48799134 .5042877Z"/>
<path id="font_1_71" d="M.47898866 .040985109V.123031619C.47898866 .14004517 .47898866 .16305542 .44699098 .16305542 .4139862 .16305542 .4139862 .14105225 .4139862 .123031619V.057998659H.17298889V.5533142H.22499085C.23899842 .5533142 .2649994 .5533142 .2649994 .58232119 .2649994 .6113281 .23899842 .6113281 .22499085 .6113281H.07499695C.06098938 .6113281 .033996583 .6113281 .033996583 .58232119 .033996583 .5533142 .06098938 .5533142 .07499695 .5533142H.10798645V.057998659H.07499695C.06098938 .057998659 .033996583 .057998659 .033996583 .0289917 .033996583 0 .06098938 0 .07499695 0H.43899537C.47200013 0 .47898866 .008987427 .47898866 .040985109Z"/>
<path id="font_1_40" d="M.47399903-.054016115C.47399903-.025009156 .44799806-.025009156 .43399049-.025009156H.2849884V.6357422H.43399049C.44799806 .6357422 .47399903 .6357422 .47399903 .6647339 .47399903 .69374087 .44799806 .69374087 .43399049 .69374087H.2599945C.22698975 .69374087 .21998596 .68473818 .21998596 .6527405V-.042022706C.21998596-.073013309 .22599793-.08300781 .2599945-.08300781H.43399049C.44799806-.08300781 .47399903-.08300781 .47399903-.054016115Z"/>
<path id="font_1_41" d="M.2939911-.042022706V.6527405C.2939911 .6837311 .28799439 .69374087 .2539978 .69374087H.07998657C.06599426 .69374087 .039993287 .69374087 .039993287 .6647339 .039993287 .6357422 .06599426 .6357422 .07998657 .6357422H.22898865V-.025009156H.07998657C.06599426-.025009156 .039993287-.025009156 .039993287-.054016115 .039993287-.08300781 .06599426-.08300781 .07998657-.08300781H.2539978C.2869873-.08300781 .2939911-.074020389 .2939911-.042022706Z"/>
<path id="font_1_110" d="M.45899964-.16819763C.45899964-.13520813 .42799378-.13520813 .4139862-.13520813H.099990848C.08699036-.13520813 .054992677-.13520813 .054992677-.16720581 .054992677-.20019531 .085998538-.20019531 .099990848-.20019531H.4139862C.4269867-.20019531 .45899964-.20019531 .45899964-.16819763Z"/>
<path id="font_1_64" d="M.45899964 .30488587C.45899964 .33789063 .42799378 .33789063 .4139862 .33789063H.099990848C.08699036 .33789063 .054992677 .33789063 .054992677 .3058777 .054992677 .27288819 .085998538 .27288819 .099990848 .27288819H.4139862C.4269867 .27288819 .45899964 .27288819 .45899964 .30488587Z"/>
<path id="font_1_61" d="M.45899964 .30467225C.45899964 .32266236 .44799806 .32966615 .43998719 .33467103L.11199951 .5437012C.10499573 .547699 .09700012 .55371096 .08799744 .55371096 .07299805 .55371096 .054992677 .5417023 .054992677 .5206909 .054992677 .5027008 .06599426 .49668885 .07598877 .48968507L.3659973 .30566407 .07598877 .12063599C.06599426 .11364746 .054992677 .1076355 .054992677 .08963013 .054992677 .06863403 .07299805 .056640626 .08799744 .056640626L.08999634 .057632448C.09799194 .058639528 .099990848 .058639528 .11099243 .06663513L.43998719 .2746582C.45199586 .281662 .45899964 .29266358 .45899964 .30467225Z"/>
<path id="font_1_109" d="M.49899293 .0289917C.49899293 .057998659 .47299195 .057998659 .45899964 .057998659H.41799928V.3896637C.41799928 .4206543 .4119873 .43066407 .37799073 .43066407H.31199647C.2979889 .43066407 .27198792 .43066407 .27198792 .4016571 .27198792 .37265016 .2979889 .37265016 .31199647 .37265016H.35299684V.15588379C.35299684 .07409668 .2849884 .052139284 .23999024 .052139284 .16099549 .052139284 .16099549 .08807373 .16099549 .11903381V.3896637C.16099549 .4206543 .15499878 .43066407 .12098694 .43066407H.054992677C.040985109 .43066407 .01499939 .43066407 .01499939 .4016571 .01499939 .37265016 .040985109 .37265016 .054992677 .37265016H.09599304V.11404419C.09599304 .022140503 .1559906-.005859375 .23298645-.005859375 .2939911-.005859375 .33198548 .019134522 .35198976 .036132814 .35198976 0 .37599183 0 .3929901 0H.45899964C.47299195 0 .49899293 0 .49899293 .0289917Z"/>
</defs>
<path transform="matrix(1,0,0,-1,0,306.03)" d="M0 0H387.685V306.026H0Z" fill="#fdfdfd"/>
<path transform="matrix(1,0,0,-1,31.880002,14.480999)" stroke-width="1.74348" stroke-linecap="round" stroke-miterlimit="10" stroke-linejoin="miter" fill="none" stroke="#929591" d="M0-19.92554V-259.03199"/>
<path transform="matrix(1,0,0,-1,31.880002,14.480999)" d="M4.93156-14.99396-6.97394-19.92554 4.93156-24.8571 0-12.9516-4.93156-24.8571 6.97394-19.92554-4.93156-14.99396 0-26.89948Z" fill="#e50000"/>
<use data-text="{" xlink:href="#font_1_38" transform="matrix(11.9552,0,0,-11.9552,42.220998,37.191999)" fill="#f97306"/>
<use data-text="}" xlink:href="#font_1_39" transform="matrix(11.9552,0,0,-11.9552,48.377927,37.191999)" fill="#f97306"/>
<use data-text="P" xlink:href="#font_1_83" transform="matrix(11.9552,0,0,-11.9552,60.691785,37.191999)" fill="#f97306"/>
<use data-text="a" xlink:href="#font_1_28" transform="matrix(11.9552,0,0,-11.9552,66.84871,37.191999)" fill="#f97306"/>
<use data-text="t" xlink:href="#font_1_105" transform="matrix(11.9552,0,0,-11.9552,73.00564,37.191999)" fill="#f97306"/>
<use data-text="t" xlink:href="#font_1_105" transform="matrix(11.9552,0,0,-11.9552,79.16257,37.191999)" fill="#f97306"/>
<use data-text="e" xlink:href="#font_1_50" transform="matrix(11.9552,0,0,-11.9552,85.319499,37.191999)" fill="#f97306"/>
<use data-text="r" xlink:href="#font_1_96" transform="matrix(11.9552,0,0,-11.9552,91.476428,37.191999)" fill="#f97306"/>
<use data-text="n" xlink:href="#font_1_77" transform="matrix(11.9552,0,0,-11.9552,97.633358,37.191999)" fill="#f97306"/>
<use data-text="(" xlink:href="#font_1_85" transform="matrix(11.9552,0,0,-11.9552,103.79028,37.191999)" fill="#f97306"/>
<use data-text="B" xlink:href="#font_1_34" transform="matrix(11.9552,0,0,-11.9552,109.94721,37.191999)" fill="#f97306"/>
<use data-text="a" xlink:href="#font_1_28" transform="matrix(11.9552,0,0,-11.9552,116.10414,37.191999)" fill="#f97306"/>
<use data-text="t" xlink:href="#font_1_105" transform="matrix(11.9552,0,0,-11.9552,122.26107,37.191999)" fill="#f97306"/>
<use data-text="c" xlink:href="#font_1_43" transform="matrix(11.9552,0,0,-11.9552,128.418,37.191999)" fill="#f97306"/>
<use data-text="h" xlink:href="#font_1_63" transform="matrix(11.9552,0,0,-11.9552,134.57492,37.191999)" fill="#f97306"/>
<use data-text="," xlink:href="#font_1_45" transform="matrix(11.9552,0,0,-11.9552,140.73186,37.191999)" fill="#f97306"/>
<use data-text="S" xlink:href="#font_1_97" transform="matrix(11.9552,0,0,-11.9552,153.04572,37.191999)" fill="#f97306"/>
<use data-text="t" xlink:href="#font_1_105" transform="matrix(11.9552,0,0,-11.9552,159.20264,37.191999)" fill="#f97306"/>
<use data-text="y" xlink:href="#font_1_118" transform="matrix(11.9552,0,0,-11.9552,165.35958,37.191999)" fill="#f97306"/>
<use data-text="l" xlink:href="#font_1_72" transform="matrix(11.9552,0,0,-11.9552,171.51651,37.191999)" fill="#f97306"/>
<use data-text="e" xlink:href="#font_1_50" transform="matrix(11.9552,0,0,-11.9552,177.67343,37.191999)" fill="#f97306"/>
<use data-text="M" xlink:href="#font_1_74" transform="matrix(11.9552,0,0,-11.9552,183.83036,37.191999)" fill="#f97306"/>
<use data-text="i" xlink:href="#font_1_66" transform="matrix(11.9552,0,0,-11.9552,189.98729,37.191999)" fill="#f97306"/>
<use data-text="x" xlink:href="#font_1_116" transform="matrix(11.9552,0,0,-11.9552,196.14423,37.191999)" fill="#f97306"/>
<use data-text="i" xlink:href="#font_1_66" transform="matrix(11.9552,0,0,-11.9552,202.30115,37.191999)" fill="#f97306"/>
<use data-text="n" xlink:href="#font_1_77" transform="matrix(11.9552,0,0,-11.9552,208.45807,37.191999)" fill="#f97306"/>
<use data-text=")" xlink:href="#font_1_86" transform="matrix(11.9552,0,0,-11.9552,214.61499,37.191999)" fill="#f97306"/>
<path transform="matrix(1,0,0,-1,31.880002,14.480999)" stroke-width=".3985" stroke-linecap="round" stroke-miterlimit="10" stroke-linejoin="miter" fill="none" stroke="#929591" d="M0-39.85107H29.8883"/>
<path transform="matrix(1,0,0,-1,31.880002,14.480999)" d="M4.98138-39.85107 0-34.86969-4.98138-39.85107 0-44.83246Z" fill="#0343df"/>
<path transform="matrix(1,0,0,-1,31.880002,14.480999)" d="M3.52283-36.32823H-3.52283V-43.3739H3.52283Z" fill="#0343df"/>
<use data-text="k" xlink:href="#font_1_70" transform="matrix(11.9552,0,0,-11.9552,72.10899,56.729)"/>
<use data-text="e" xlink:href="#font_1_50" transform="matrix(11.9552,0,0,-11.9552,78.26593,56.729)"/>
<use data-text="r" xlink:href="#font_1_96" transform="matrix(11.9552,0,0,-11.9552,84.42285,56.729)"/>
<use data-text="n" xlink:href="#font_1_77" transform="matrix(11.9552,0,0,-11.9552,90.57979,56.729)"/>
<use data-text="e" xlink:href="#font_1_50" transform="matrix(11.9552,0,0,-11.9552,96.73671,56.729)"/>
<use data-text="l" xlink:href="#font_1_72" transform="matrix(11.9552,0,0,-11.9552,102.89364,56.729)"/>
<use data-text=":" xlink:href="#font_1_44" transform="matrix(11.9552,0,0,-11.9552,109.05057,56.729)"/>
<use data-text="S" xlink:href="#font_1_97" transform="matrix(11.9552,0,0,-11.9552,123.40877,56.729)"/>
<use data-text="h" xlink:href="#font_1_63" transform="matrix(11.9552,0,0,-11.9552,129.5657,56.729)"/>
<use data-text="a" xlink:href="#font_1_28" transform="matrix(11.9552,0,0,-11.9552,135.72263,56.729)"/>
<use data-text="p" xlink:href="#font_1_84" transform="matrix(11.9552,0,0,-11.9552,141.87955,56.729)"/>
<use data-text="e" xlink:href="#font_1_50" transform="matrix(11.9552,0,0,-11.9552,148.03649,56.729)"/>
<path transform="matrix(1,0,0,-1,31.880002,14.480999)" stroke-width="1.74348" stroke-linecap="round" stroke-miterlimit="10" stroke-linejoin="miter" fill="none" stroke="#929591" d="M14.94415-59.77661V-219.18091"/>
<path transform="matrix(1,0,0,-1,31.880002,14.480999)" stroke-width=".3985" stroke-linecap="round" stroke-miterlimit="10" stroke-linejoin="miter" fill="none" stroke="#929591" d="M0-59.77661H29.8883"/>
<path transform="matrix(1,0,0,-1,31.880002,14.480999)" d="M19.92554-59.77661 14.94415-54.79523 9.96277-59.77661 14.94415-64.758Z" fill="#0343df"/>
<path transform="matrix(1,0,0,-1,31.880002,14.480999)" d="M18.46698-56.25377H11.42131V-63.29944H18.46698Z" fill="#0343df"/>
<path transform="matrix(1,0,0,-1,31.880002,14.480999)" d="M4.98138-59.77661 0-54.79523-4.98138-59.77661 0-64.758Z" fill="#0343df"/>
<path transform="matrix(1,0,0,-1,31.880002,14.480999)" d="M3.52283-56.25377H-3.52283V-63.29944H3.52283Z" fill="#0343df"/>
<use data-text="t" xlink:href="#font_1_105" transform="matrix(11.9552,0,0,-11.9552,72.10899,77.91)"/>
<use data-text="r" xlink:href="#font_1_96" transform="matrix(11.9552,0,0,-11.9552,78.26593,77.91)"/>
<use data-text="a" xlink:href="#font_1_28" transform="matrix(11.9552,0,0,-11.9552,84.42285,77.91)"/>
<use data-text="n" xlink:href="#font_1_77" transform="matrix(11.9552,0,0,-11.9552,90.57979,77.91)"/>
<use data-text="s" xlink:href="#font_1_98" transform="matrix(11.9552,0,0,-11.9552,96.73671,77.91)"/>
<use data-text="f" xlink:href="#font_1_55" transform="matrix(11.9552,0,0,-11.9552,102.89364,77.91)"/>
<use data-text="o" xlink:href="#font_1_81" transform="matrix(11.9552,0,0,-11.9552,109.05057,77.91)"/>
<use data-text="r" xlink:href="#font_1_96" transform="matrix(11.9552,0,0,-11.9552,115.2075,77.91)"/>
<use data-text="m" xlink:href="#font_1_75" transform="matrix(11.9552,0,0,-11.9552,121.364429,77.91)"/>
<use data-text="a" xlink:href="#font_1_28" transform="matrix(11.9552,0,0,-11.9552,127.521358,77.91)"/>
<use data-text="t" xlink:href="#font_1_105" transform="matrix(11.9552,0,0,-11.9552,133.67829,77.91)"/>
<use data-text="i" xlink:href="#font_1_66" transform="matrix(11.9552,0,0,-11.9552,139.8352,77.91)"/>
<use data-text="o" xlink:href="#font_1_81" transform="matrix(11.9552,0,0,-11.9552,145.99214,77.91)"/>
<use data-text="n" xlink:href="#font_1_77" transform="matrix(11.9552,0,0,-11.9552,152.14908,77.91)"/>
<use data-text=":" xlink:href="#font_1_44" transform="matrix(11.9552,0,0,-11.9552,158.306,77.91)"/>
<use data-text="T" xlink:href="#font_1_104" transform="matrix(11.9552,0,0,-11.9552,172.6642,77.91)"/>
<use data-text="r" xlink:href="#font_1_96" transform="matrix(11.9552,0,0,-11.9552,178.82114,77.91)"/>
<use data-text="a" xlink:href="#font_1_28" transform="matrix(11.9552,0,0,-11.9552,184.97806,77.91)"/>
<use data-text="n" xlink:href="#font_1_77" transform="matrix(11.9552,0,0,-11.9552,191.13498,77.91)"/>
<use data-text="s" xlink:href="#font_1_98" transform="matrix(11.9552,0,0,-11.9552,197.29192,77.91)"/>
<use data-text="f" xlink:href="#font_1_55" transform="matrix(11.9552,0,0,-11.9552,203.44886,77.91)"/>
<use data-text="o" xlink:href="#font_1_81" transform="matrix(11.9552,0,0,-11.9552,209.60578,77.91)"/>
<use data-text="r" xlink:href="#font_1_96" transform="matrix(11.9552,0,0,-11.9552,215.7627,77.91)"/>
<use data-text="m" xlink:href="#font_1_75" transform="matrix(11.9552,0,0,-11.9552,221.91963,77.91)"/>
<use data-text="a" xlink:href="#font_1_28" transform="matrix(11.9552,0,0,-11.9552,228.07657,77.91)"/>
<use data-text="t" xlink:href="#font_1_105" transform="matrix(11.9552,0,0,-11.9552,234.23349,77.91)"/>
<use data-text="i" xlink:href="#font_1_66" transform="matrix(11.9552,0,0,-11.9552,240.39041,77.91)"/>
<use data-text="o" xlink:href="#font_1_81" transform="matrix(11.9552,0,0,-11.9552,246.54734,77.91)"/>
<use data-text="n" xlink:href="#font_1_77" transform="matrix(11.9552,0,0,-11.9552,252.70426,77.91)"/>
<path transform="matrix(1,0,0,-1,31.880002,14.480999)" stroke-width="1.74348" stroke-linecap="round" stroke-miterlimit="10" stroke-linejoin="miter" fill="none" stroke="#929591" d="M29.8883-79.70215V-99.62769"/>
<path transform="matrix(1,0,0,-1,31.880002,14.480999)" stroke-width=".3985" stroke-linecap="round" stroke-miterlimit="10" stroke-linejoin="miter" fill="none" stroke="#929591" d="M14.94415-79.70215H59.77661"/>
<path transform="matrix(1,0,0,-1,31.880002,14.480999)" d="M29.8883-74.72076 32.87714-79.70215 29.8883-84.68353 26.89948-79.70215Z"/>
<path transform="matrix(1,0,0,-1,31.880002,14.480999)" d="M18.92926-79.70215 16.9367-76.25104H12.9516L10.95905-79.70215 12.9516-83.15324H16.9367Z" fill="#029386"/>
<path transform="matrix(1,0,0,-1,31.880002,14.480999)" d="M16.43857-79.70215C16.43857-78.8768 15.76949-78.20773 14.94415-78.20773 14.1188-78.20773 13.44974-78.8768 13.44974-79.70215 13.44974-80.52748 14.1188-81.19656 14.94415-81.19656 15.76949-81.19656 16.43857-80.52748 16.43857-79.70215ZM14.94415-79.70215" fill="#ffffff"/>
<use data-text="c" xlink:href="#font_1_43" transform="matrix(11.9552,0,0,-11.9552,101.998,97.005008)"/>
<use data-text="o" xlink:href="#font_1_81" transform="matrix(11.9552,0,0,-11.9552,108.15492,97.005008)"/>
<use data-text="m" xlink:href="#font_1_75" transform="matrix(11.9552,0,0,-11.9552,114.31186,97.005008)"/>
<use data-text="p" xlink:href="#font_1_84" transform="matrix(11.9552,0,0,-11.9552,120.46878,97.005008)"/>
<use data-text="o" xlink:href="#font_1_81" transform="matrix(11.9552,0,0,-11.9552,126.62572,97.005008)"/>
<use data-text="n" xlink:href="#font_1_77" transform="matrix(11.9552,0,0,-11.9552,132.78264,97.005008)"/>
<use data-text="e" xlink:href="#font_1_50" transform="matrix(11.9552,0,0,-11.9552,138.93958,97.005008)"/>
<use data-text="n" xlink:href="#font_1_77" transform="matrix(11.9552,0,0,-11.9552,145.0965,97.005008)"/>
<use data-text="t" xlink:href="#font_1_105" transform="matrix(11.9552,0,0,-11.9552,151.25344,97.005008)"/>
<use data-text="s" xlink:href="#font_1_98" transform="matrix(11.9552,0,0,-11.9552,157.41036,97.005008)"/>
<use data-text=":" xlink:href="#font_1_44" transform="matrix(11.9552,0,0,-11.9552,163.56729,97.005008)"/>
<use data-text="L" xlink:href="#font_1_71" transform="matrix(11.9552,0,0,-11.9552,177.92548,97.005008)"/>
<use data-text="i" xlink:href="#font_1_66" transform="matrix(11.9552,0,0,-11.9552,184.08242,97.005008)"/>
<use data-text="s" xlink:href="#font_1_98" transform="matrix(11.9552,0,0,-11.9552,190.23934,97.005008)"/>
<use data-text="t" xlink:href="#font_1_105" transform="matrix(11.9552,0,0,-11.9552,196.39627,97.005008)"/>
<use data-text="[" xlink:href="#font_1_40" transform="matrix(11.9552,0,0,-11.9552,202.55319,97.005008)"/>
<use data-text="T" xlink:href="#font_1_104" transform="matrix(11.9552,0,0,-11.9552,208.71012,97.005008)"/>
<use data-text="r" xlink:href="#font_1_96" transform="matrix(11.9552,0,0,-11.9552,214.86705,97.005008)"/>
<use data-text="a" xlink:href="#font_1_28" transform="matrix(11.9552,0,0,-11.9552,221.02399,97.005008)"/>
<use data-text="n" xlink:href="#font_1_77" transform="matrix(11.9552,0,0,-11.9552,227.18091,97.005008)"/>
<use data-text="s" xlink:href="#font_1_98" transform="matrix(11.9552,0,0,-11.9552,233.33783,97.005008)"/>
<use data-text="f" xlink:href="#font_1_55" transform="matrix(11.9552,0,0,-11.9552,239.49477,97.005008)"/>
<use data-text="o" xlink:href="#font_1_81" transform="matrix(11.9552,0,0,-11.9552,245.6517,97.005008)"/>
<use data-text="r" xlink:href="#font_1_96" transform="matrix(11.9552,0,0,-11.9552,251.80863,97.005008)"/>
<use data-text="m" xlink:href="#font_1_75" transform="matrix(11.9552,0,0,-11.9552,257.96556,97.005008)"/>
<use data-text="]" xlink:href="#font_1_41" transform="matrix(11.9552,0,0,-11.9552,264.1225,97.005008)"/>
<path transform="matrix(1,0,0,-1,31.880002,14.480999)" stroke-width="1.74348" stroke-linecap="round" stroke-miterlimit="10" stroke-linejoin="miter" fill="none" stroke="#929591" d="M44.83246-99.62769V-179.32984"/>
<path transform="matrix(1,0,0,-1,31.880002,14.480999)" stroke-width=".3985" stroke-linecap="round" stroke-miterlimit="10" stroke-linejoin="miter" fill="none" stroke="#929591" d="M29.8883-99.62769H89.66492"/>
<path transform="matrix(1,0,0,-1,31.880002,14.480999)" d="M49.81384-99.62769 44.83246-94.6463 39.85107-99.62769 44.83246-104.60907Z" fill="#0343df"/>
<path transform="matrix(1,0,0,-1,31.880002,14.480999)" d="M48.35529-96.10484H41.30962V-103.15051H48.35529Z" fill="#0343df"/>
<path transform="matrix(1,0,0,-1,31.880002,14.480999)" d="M33.87341-99.62769 31.88086-96.17657H27.89575L25.9032-99.62769 27.89575-103.07878H31.88086Z" fill="#029386"/>
<path transform="matrix(1,0,0,-1,31.880002,14.480999)" d="M31.38272-99.62769C31.38272-98.80234 30.71364-98.13327 29.8883-98.13327 29.06296-98.13327 28.39389-98.80234 28.39389-99.62769 28.39389-100.45302 29.06296-101.1221 29.8883-101.1221 30.71364-101.1221 31.38272-100.45302 31.38272-99.62769ZM29.8883-99.62769" fill="#ffffff"/>
<use data-text="T" xlink:href="#font_1_104" transform="matrix(11.9552,0,0,-11.9552,131.886,117.761)"/>
<use data-text="r" xlink:href="#font_1_96" transform="matrix(11.9552,0,0,-11.9552,138.04293,117.761)"/>
<use data-text="a" xlink:href="#font_1_28" transform="matrix(11.9552,0,0,-11.9552,144.19986,117.761)"/>
<use data-text="n" xlink:href="#font_1_77" transform="matrix(11.9552,0,0,-11.9552,150.35678,117.761)"/>
<use data-text="s" xlink:href="#font_1_98" transform="matrix(11.9552,0,0,-11.9552,156.51372,117.761)"/>
<use data-text="f" xlink:href="#font_1_55" transform="matrix(11.9552,0,0,-11.9552,162.67064,117.761)"/>
<use data-text="o" xlink:href="#font_1_81" transform="matrix(11.9552,0,0,-11.9552,168.82758,117.761)"/>
<use data-text="r" xlink:href="#font_1_96" transform="matrix(11.9552,0,0,-11.9552,174.9845,117.761)"/>
<use data-text="m" xlink:href="#font_1_75" transform="matrix(11.9552,0,0,-11.9552,181.14144,117.761)"/>
<path transform="matrix(1,0,0,-1,31.880002,14.480999)" stroke-width=".3985" stroke-linecap="round" stroke-miterlimit="10" stroke-linejoin="miter" fill="none" stroke="#929591" d="M44.83246-119.55322H119.55322"/>
<path transform="matrix(1,0,0,-1,31.880002,14.480999)" d="M48.81757-119.55322 46.82501-116.10211H42.8399L40.84735-119.55322 42.8399-123.00432H46.82501Z" fill="#029386"/>
<path transform="matrix(1,0,0,-1,31.880002,14.480999)" d="M46.32687-119.55322C46.32687-118.72787 45.65779-118.0588 44.83246-118.0588 44.00711-118.0588 43.33804-118.72787 43.33804-119.55322 43.33804-120.37856 44.00711-121.04764 44.83246-121.04764 45.65779-121.04764 46.32687-120.37856 46.32687-119.55322ZM44.83246-119.55322" fill="#ffffff"/>
<use data-text="x" xlink:href="#font_1_116" transform="matrix(11.9552,0,0,-11.9552,161.774,136.36)"/>
<use data-text="f" xlink:href="#font_1_55" transform="matrix(11.9552,0,0,-11.9552,167.93093,136.36)"/>
<use data-text="o" xlink:href="#font_1_81" transform="matrix(11.9552,0,0,-11.9552,174.08786,136.36)"/>
<use data-text="r" xlink:href="#font_1_96" transform="matrix(11.9552,0,0,-11.9552,180.24478,136.36)"/>
<use data-text="m" xlink:href="#font_1_75" transform="matrix(11.9552,0,0,-11.9552,186.40172,136.36)"/>
<use data-text="_" xlink:href="#font_1_110" transform="matrix(11.9552,0,0,-11.9552,192.55864,136.36)"/>
<use data-text="m" xlink:href="#font_1_75" transform="matrix(11.9552,0,0,-11.9552,198.71558,136.36)"/>
<use data-text="a" xlink:href="#font_1_28" transform="matrix(11.9552,0,0,-11.9552,204.8725,136.36)"/>
<use data-text="t" xlink:href="#font_1_105" transform="matrix(11.9552,0,0,-11.9552,211.02944,136.36)"/>
<use data-text="r" xlink:href="#font_1_96" transform="matrix(11.9552,0,0,-11.9552,217.18636,136.36)"/>
<use data-text="i" xlink:href="#font_1_66" transform="matrix(11.9552,0,0,-11.9552,223.34329,136.36)"/>
<use data-text="x" xlink:href="#font_1_116" transform="matrix(11.9552,0,0,-11.9552,229.50022,136.36)"/>
<use data-text=":" xlink:href="#font_1_44" transform="matrix(11.9552,0,0,-11.9552,235.65714,136.36)"/>
<use data-text="a" xlink:href="#font_1_28" transform="matrix(11.9552,0,0,-11.9552,250.01534,136.36)"/>
<use data-text="r" xlink:href="#font_1_96" transform="matrix(11.9552,0,0,-11.9552,256.17228,136.36)"/>
<use data-text="r" xlink:href="#font_1_96" transform="matrix(11.9552,0,0,-11.9552,262.3292,136.36)"/>
<use data-text="a" xlink:href="#font_1_28" transform="matrix(11.9552,0,0,-11.9552,268.4861,136.36)"/>
<use data-text="y" xlink:href="#font_1_118" transform="matrix(11.9552,0,0,-11.9552,274.64308,136.36)"/>
<path transform="matrix(1,0,0,-1,31.880002,14.480999)" stroke-width=".3985" stroke-linecap="round" stroke-miterlimit="10" stroke-linejoin="miter" fill="none" stroke="#929591" d="M44.83246-139.47876H119.55322"/>
<path transform="matrix(1,0,0,-1,31.880002,14.480999)" d="M48.81757-139.47876 46.82501-136.02765H42.8399L40.84735-139.47876 42.8399-142.92986H46.82501Z" fill="#029386"/>
<path transform="matrix(1,0,0,-1,31.880002,14.480999)" d="M46.32687-139.47876C46.32687-138.65341 45.65779-137.98435 44.83246-137.98435 44.00711-137.98435 43.33804-138.65341 43.33804-139.47876 43.33804-140.3041 44.00711-140.97318 44.83246-140.97318 45.65779-140.97318 46.32687-140.3041 46.32687-139.47876ZM44.83246-139.47876" fill="#ffffff"/>
<use data-text="r" xlink:href="#font_1_96" transform="matrix(11.9552,0,0,-11.9552,161.774,156.225)"/>
<use data-text="e" xlink:href="#font_1_50" transform="matrix(11.9552,0,0,-11.9552,167.93093,156.225)"/>
<use data-text="p" xlink:href="#font_1_84" transform="matrix(11.9552,0,0,-11.9552,174.08786,156.225)"/>
<use data-text="s" xlink:href="#font_1_98" transform="matrix(11.9552,0,0,-11.9552,180.24478,156.225)"/>
<use data-text=":" xlink:href="#font_1_44" transform="matrix(11.9552,0,0,-11.9552,186.40172,156.225)"/>
<use data-text="i" xlink:href="#font_1_66" transform="matrix(11.9552,0,0,-11.9552,200.75992,156.225)"/>
<use data-text="n" xlink:href="#font_1_77" transform="matrix(11.9552,0,0,-11.9552,206.91684,156.225)"/>
<use data-text="t" xlink:href="#font_1_105" transform="matrix(11.9552,0,0,-11.9552,213.07376,156.225)"/>
<path transform="matrix(1,0,0,-1,31.880002,14.480999)" stroke-width=".3985" stroke-linecap="round" stroke-miterlimit="10" stroke-linejoin="miter" fill="none" stroke="#929591" d="M44.83246-159.4043H119.55322"/>
<path transform="matrix(1,0,0,-1,31.880002,14.480999)" d="M48.81757-159.4043 46.82501-155.95319H42.8399L40.84735-159.4043 42.8399-162.8554H46.82501Z" fill="#029386"/>
<path transform="matrix(1,0,0,-1,31.880002,14.480999)" d="M46.32687-159.4043C46.32687-158.57895 45.65779-157.90988 44.83246-157.90988 44.00711-157.90988 43.33804-158.57895 43.33804-159.4043 43.33804-160.22963 44.00711-160.89871 44.83246-160.89871 45.65779-160.89871 46.32687-160.22963 46.32687-159.4043ZM44.83246-159.4043" fill="#ffffff"/>
<use data-text="p" xlink:href="#font_1_84" transform="matrix(11.9552,0,0,-11.9552,161.774,176.707)"/>
<use data-text="a" xlink:href="#font_1_28" transform="matrix(11.9552,0,0,-11.9552,167.93093,176.707)"/>
<use data-text="r" xlink:href="#font_1_96" transform="matrix(11.9552,0,0,-11.9552,174.08786,176.707)"/>
<use data-text="t" xlink:href="#font_1_105" transform="matrix(11.9552,0,0,-11.9552,180.24478,176.707)"/>
<use data-text="i" xlink:href="#font_1_66" transform="matrix(11.9552,0,0,-11.9552,186.40172,176.707)"/>
<use data-text="t" xlink:href="#font_1_105" transform="matrix(11.9552,0,0,-11.9552,192.55864,176.707)"/>
<use data-text="i" xlink:href="#font_1_66" transform="matrix(11.9552,0,0,-11.9552,198.71558,176.707)"/>
<use data-text="o" xlink:href="#font_1_81" transform="matrix(11.9552,0,0,-11.9552,204.8725,176.707)"/>
<use data-text="n" xlink:href="#font_1_77" transform="matrix(11.9552,0,0,-11.9552,211.02944,176.707)"/>
<use data-text="s" xlink:href="#font_1_98" transform="matrix(11.9552,0,0,-11.9552,217.18636,176.707)"/>
<use data-text="-" xlink:href="#font_1_64" transform="matrix(11.9552,0,0,-11.9552,229.50022,176.707)"/>
<use data-text="&#x003e;" xlink:href="#font_1_61" transform="matrix(11.9552,0,0,-11.9552,235.65714,176.707)"/>
<use data-text="L" xlink:href="#font_1_71" transform="matrix(11.9552,0,0,-11.9552,247.97101,176.707)"/>
<use data-text="i" xlink:href="#font_1_66" transform="matrix(11.9552,0,0,-11.9552,254.12793,176.707)"/>
<use data-text="s" xlink:href="#font_1_98" transform="matrix(11.9552,0,0,-11.9552,260.28486,176.707)"/>
<use data-text="t" xlink:href="#font_1_105" transform="matrix(11.9552,0,0,-11.9552,266.44178,176.707)"/>
<use data-text="[" xlink:href="#font_1_40" transform="matrix(11.9552,0,0,-11.9552,272.59873,176.707)"/>
<use data-text="x" xlink:href="#font_1_116" transform="matrix(11.9552,0,0,-11.9552,278.75566,176.707)"/>
<use data-text="f" xlink:href="#font_1_55" transform="matrix(11.9552,0,0,-11.9552,284.91258,176.707)"/>
<use data-text="o" xlink:href="#font_1_81" transform="matrix(11.9552,0,0,-11.9552,291.06953,176.707)"/>
<use data-text="r" xlink:href="#font_1_96" transform="matrix(11.9552,0,0,-11.9552,297.22645,176.707)"/>
<use data-text="m" xlink:href="#font_1_75" transform="matrix(11.9552,0,0,-11.9552,303.38337,176.707)"/>
<use data-text="_" xlink:href="#font_1_110" transform="matrix(11.9552,0,0,-11.9552,309.54029,176.707)"/>
<use data-text="m" xlink:href="#font_1_75" transform="matrix(11.9552,0,0,-11.9552,315.6972,176.707)"/>
<use data-text="a" xlink:href="#font_1_28" transform="matrix(11.9552,0,0,-11.9552,321.85417,176.707)"/>
<use data-text="t" xlink:href="#font_1_105" transform="matrix(11.9552,0,0,-11.9552,328.01109,176.707)"/>
<use data-text="r" xlink:href="#font_1_96" transform="matrix(11.9552,0,0,-11.9552,334.168,176.707)"/>
<use data-text="i" xlink:href="#font_1_66" transform="matrix(11.9552,0,0,-11.9552,340.32493,176.707)"/>
<use data-text="x" xlink:href="#font_1_116" transform="matrix(11.9552,0,0,-11.9552,346.48185,176.707)"/>
<use data-text="]" xlink:href="#font_1_41" transform="matrix(11.9552,0,0,-11.9552,352.63877,176.707)"/>
<path transform="matrix(1,0,0,-1,31.880002,14.480999)" stroke-width=".3985" stroke-linecap="round" stroke-miterlimit="10" stroke-linejoin="miter" fill="none" stroke="#929591" d="M44.83246-179.32984H119.55322"/>
<path transform="matrix(1,0,0,-1,31.880002,14.480999)" d="M48.81757-179.32984 46.82501-175.87873H42.8399L40.84735-179.32984 42.8399-182.78093H46.82501Z" fill="#029386"/>
<path transform="matrix(1,0,0,-1,31.880002,14.480999)" d="M46.32687-179.32984C46.32687-178.50449 45.65779-177.83542 44.83246-177.83542 44.00711-177.83542 43.33804-178.50449 43.33804-179.32984 43.33804-180.15517 44.00711-180.82425 44.83246-180.82425 45.65779-180.82425 46.32687-180.15517 46.32687-179.32984ZM44.83246-179.32984" fill="#ffffff"/>
<use data-text="c" xlink:href="#font_1_43" transform="matrix(11.9552,0,0,-11.9552,161.774,196.041)"/>
<use data-text="o" xlink:href="#font_1_81" transform="matrix(11.9552,0,0,-11.9552,167.93093,196.041)"/>
<use data-text="m" xlink:href="#font_1_75" transform="matrix(11.9552,0,0,-11.9552,174.08786,196.041)"/>
<use data-text="p" xlink:href="#font_1_84" transform="matrix(11.9552,0,0,-11.9552,180.24478,196.041)"/>
<use data-text="o" xlink:href="#font_1_81" transform="matrix(11.9552,0,0,-11.9552,186.40172,196.041)"/>
<use data-text="s" xlink:href="#font_1_98" transform="matrix(11.9552,0,0,-11.9552,192.55864,196.041)"/>
<use data-text="i" xlink:href="#font_1_66" transform="matrix(11.9552,0,0,-11.9552,198.71558,196.041)"/>
<use data-text="t" xlink:href="#font_1_105" transform="matrix(11.9552,0,0,-11.9552,204.8725,196.041)"/>
<use data-text="e" xlink:href="#font_1_50" transform="matrix(11.9552,0,0,-11.9552,211.02944,196.041)"/>
<use data-text="-" xlink:href="#font_1_64" transform="matrix(11.9552,0,0,-11.9552,223.34329,196.041)"/>
<use data-text="&#x003e;" xlink:href="#font_1_61" transform="matrix(11.9552,0,0,-11.9552,229.50022,196.041)"/>
<use data-text="a" xlink:href="#font_1_28" transform="matrix(11.9552,0,0,-11.9552,241.81407,196.041)"/>
<use data-text="r" xlink:href="#font_1_96" transform="matrix(11.9552,0,0,-11.9552,247.97101,196.041)"/>
<use data-text="r" xlink:href="#font_1_96" transform="matrix(11.9552,0,0,-11.9552,254.12793,196.041)"/>
<use data-text="a" xlink:href="#font_1_28" transform="matrix(11.9552,0,0,-11.9552,260.28486,196.041)"/>
<use data-text="y" xlink:href="#font_1_118" transform="matrix(11.9552,0,0,-11.9552,266.44178,196.041)"/>
<path transform="matrix(1,0,0,-1,31.880002,14.480999)" stroke-width=".3985" stroke-linecap="round" stroke-miterlimit="10" stroke-linejoin="miter" fill="none" stroke="#929591" d="M14.94415-199.25537H59.77661"/>
<path transform="matrix(1,0,0,-1,31.880002,14.480999)" d="M18.92926-199.25537 16.9367-195.80426H12.9516L10.95905-199.25537 12.9516-202.70647H16.9367Z" fill="#029386"/>
<path transform="matrix(1,0,0,-1,31.880002,14.480999)" d="M16.43857-199.25537C16.43857-198.43003 15.76949-197.76096 14.94415-197.76096 14.1188-197.76096 13.44974-198.43003 13.44974-199.25537 13.44974-200.0807 14.1188-200.74979 14.94415-200.74979 15.76949-200.74979 16.43857-200.0807 16.43857-199.25537ZM14.94415-199.25537" fill="#ffffff"/>
<use data-text="p" xlink:href="#font_1_84" transform="matrix(11.9552,0,0,-11.9552,101.998,216.558)"/>
<use data-text="a" xlink:href="#font_1_28" transform="matrix(11.9552,0,0,-11.9552,108.15492,216.558)"/>
<use data-text="r" xlink:href="#font_1_96" transform="matrix(11.9552,0,0,-11.9552,114.31186,216.558)"/>
<use data-text="t" xlink:href="#font_1_105" transform="matrix(11.9552,0,0,-11.9552,120.46878,216.558)"/>
<use data-text="i" xlink:href="#font_1_66" transform="matrix(11.9552,0,0,-11.9552,126.62572,216.558)"/>
<use data-text="t" xlink:href="#font_1_105" transform="matrix(11.9552,0,0,-11.9552,132.78264,216.558)"/>
<use data-text="i" xlink:href="#font_1_66" transform="matrix(11.9552,0,0,-11.9552,138.93958,216.558)"/>
<use data-text="o" xlink:href="#font_1_81" transform="matrix(11.9552,0,0,-11.9552,145.0965,216.558)"/>
<use data-text="n" xlink:href="#font_1_77" transform="matrix(11.9552,0,0,-11.9552,151.25344,216.558)"/>
<use data-text="s" xlink:href="#font_1_98" transform="matrix(11.9552,0,0,-11.9552,157.41036,216.558)"/>
<use data-text="-" xlink:href="#font_1_64" transform="matrix(11.9552,0,0,-11.9552,169.72422,216.558)"/>
<use data-text="&#x003e;" xlink:href="#font_1_61" transform="matrix(11.9552,0,0,-11.9552,175.88114,216.558)"/>
<use data-text="L" xlink:href="#font_1_71" transform="matrix(11.9552,0,0,-11.9552,188.195,216.558)"/>
<use data-text="i" xlink:href="#font_1_66" transform="matrix(11.9552,0,0,-11.9552,194.35193,216.558)"/>
<use data-text="s" xlink:href="#font_1_98" transform="matrix(11.9552,0,0,-11.9552,200.50885,216.558)"/>
<use data-text="t" xlink:href="#font_1_105" transform="matrix(11.9552,0,0,-11.9552,206.66579,216.558)"/>
<use data-text="[" xlink:href="#font_1_40" transform="matrix(11.9552,0,0,-11.9552,212.82273,216.558)"/>
<use data-text="x" xlink:href="#font_1_116" transform="matrix(11.9552,0,0,-11.9552,218.97965,216.558)"/>
<use data-text="f" xlink:href="#font_1_55" transform="matrix(11.9552,0,0,-11.9552,225.13657,216.558)"/>
<use data-text="o" xlink:href="#font_1_81" transform="matrix(11.9552,0,0,-11.9552,231.2935,216.558)"/>
<use data-text="r" xlink:href="#font_1_96" transform="matrix(11.9552,0,0,-11.9552,237.45044,216.558)"/>
<use data-text="m" xlink:href="#font_1_75" transform="matrix(11.9552,0,0,-11.9552,243.60736,216.558)"/>
<use data-text="_" xlink:href="#font_1_110" transform="matrix(11.9552,0,0,-11.9552,249.76428,216.558)"/>
<use data-text="m" xlink:href="#font_1_75" transform="matrix(11.9552,0,0,-11.9552,255.92122,216.558)"/>
<use data-text="a" xlink:href="#font_1_28" transform="matrix(11.9552,0,0,-11.9552,262.07817,216.558)"/>
<use data-text="t" xlink:href="#font_1_105" transform="matrix(11.9552,0,0,-11.9552,268.23509,216.558)"/>
<use data-text="r" xlink:href="#font_1_96" transform="matrix(11.9552,0,0,-11.9552,274.392,216.558)"/>
<use data-text="i" xlink:href="#font_1_66" transform="matrix(11.9552,0,0,-11.9552,280.54893,216.558)"/>
<use data-text="x" xlink:href="#font_1_116" transform="matrix(11.9552,0,0,-11.9552,286.70585,216.558)"/>
<use data-text="]" xlink:href="#font_1_41" transform="matrix(11.9552,0,0,-11.9552,292.86277,216.558)"/>
<path transform="matrix(1,0,0,-1,31.880002,14.480999)" stroke-width=".3985" stroke-linecap="round" stroke-miterlimit="10" stroke-linejoin="miter" fill="none" stroke="#929591" d="M14.94415-219.18091H59.77661"/>
<path transform="matrix(1,0,0,-1,31.880002,14.480999)" d="M18.92926-219.18091 16.9367-215.7298H12.9516L10.95905-219.18091 12.9516-222.632H16.9367Z" fill="#029386"/>
<path transform="matrix(1,0,0,-1,31.880002,14.480999)" d="M16.43857-219.18091C16.43857-218.35556 15.76949-217.6865 14.94415-217.6865 14.1188-217.6865 13.44974-218.35556 13.44974-219.18091 13.44974-220.00624 14.1188-220.67533 14.94415-220.67533 15.76949-220.67533 16.43857-220.00624 16.43857-219.18091ZM14.94415-219.18091" fill="#ffffff"/>
<use data-text="c" xlink:href="#font_1_43" transform="matrix(11.9552,0,0,-11.9552,101.998,235.89199)"/>
<use data-text="o" xlink:href="#font_1_81" transform="matrix(11.9552,0,0,-11.9552,108.15492,235.89199)"/>
<use data-text="m" xlink:href="#font_1_75" transform="matrix(11.9552,0,0,-11.9552,114.31186,235.89199)"/>
<use data-text="p" xlink:href="#font_1_84" transform="matrix(11.9552,0,0,-11.9552,120.46878,235.89199)"/>
<use data-text="o" xlink:href="#font_1_81" transform="matrix(11.9552,0,0,-11.9552,126.62572,235.89199)"/>
<use data-text="s" xlink:href="#font_1_98" transform="matrix(11.9552,0,0,-11.9552,132.78264,235.89199)"/>
<use data-text="i" xlink:href="#font_1_66" transform="matrix(11.9552,0,0,-11.9552,138.93958,235.89199)"/>
<use data-text="t" xlink:href="#font_1_105" transform="matrix(11.9552,0,0,-11.9552,145.0965,235.89199)"/>
<use data-text="e" xlink:href="#font_1_50" transform="matrix(11.9552,0,0,-11.9552,151.25344,235.89199)"/>
<use data-text="-" xlink:href="#font_1_64" transform="matrix(11.9552,0,0,-11.9552,163.56729,235.89199)"/>
<use data-text="&#x003e;" xlink:href="#font_1_61" transform="matrix(11.9552,0,0,-11.9552,169.72422,235.89199)"/>
<use data-text="a" xlink:href="#font_1_28" transform="matrix(11.9552,0,0,-11.9552,182.03807,235.89199)"/>
<use data-text="r" xlink:href="#font_1_96" transform="matrix(11.9552,0,0,-11.9552,188.195,235.89199)"/>
<use data-text="r" xlink:href="#font_1_96" transform="matrix(11.9552,0,0,-11.9552,194.35193,235.89199)"/>
<use data-text="a" xlink:href="#font_1_28" transform="matrix(11.9552,0,0,-11.9552,200.50885,235.89199)"/>
<use data-text="y" xlink:href="#font_1_118" transform="matrix(11.9552,0,0,-11.9552,206.66579,235.89199)"/>
<path transform="matrix(1,0,0,-1,31.880002,14.480999)" stroke-width=".3985" stroke-linecap="round" stroke-miterlimit="10" stroke-linejoin="miter" fill="none" stroke="#929591" d="M0-239.10645H29.8883"/>
<path transform="matrix(1,0,0,-1,31.880002,14.480999)" d="M0-234.12506 2.98883-239.10645 0-244.08783-2.98883-239.10645Z"/>
<use data-text="c" xlink:href="#font_1_43" transform="matrix(11.9552,0,0,-11.9552,72.10899,255.817)"/>
<use data-text="o" xlink:href="#font_1_81" transform="matrix(11.9552,0,0,-11.9552,78.26593,255.817)"/>
<use data-text="m" xlink:href="#font_1_75" transform="matrix(11.9552,0,0,-11.9552,84.42285,255.817)"/>
<use data-text="p" xlink:href="#font_1_84" transform="matrix(11.9552,0,0,-11.9552,90.57979,255.817)"/>
<use data-text="o" xlink:href="#font_1_81" transform="matrix(11.9552,0,0,-11.9552,96.73671,255.817)"/>
<use data-text="s" xlink:href="#font_1_98" transform="matrix(11.9552,0,0,-11.9552,102.89364,255.817)"/>
<use data-text="i" xlink:href="#font_1_66" transform="matrix(11.9552,0,0,-11.9552,109.05057,255.817)"/>
<use data-text="t" xlink:href="#font_1_105" transform="matrix(11.9552,0,0,-11.9552,115.2075,255.817)"/>
<use data-text="e" xlink:href="#font_1_50" transform="matrix(11.9552,0,0,-11.9552,121.364429,255.817)"/>
<use data-text="-" xlink:href="#font_1_64" transform="matrix(11.9552,0,0,-11.9552,133.67829,255.817)"/>
<use data-text="&#x003e;" xlink:href="#font_1_61" transform="matrix(11.9552,0,0,-11.9552,139.8352,255.817)"/>
<use data-text="a" xlink:href="#font_1_28" transform="matrix(11.9552,0,0,-11.9552,152.14908,255.817)"/>
<use data-text="r" xlink:href="#font_1_96" transform="matrix(11.9552,0,0,-11.9552,158.306,255.817)"/>
<use data-text="r" xlink:href="#font_1_96" transform="matrix(11.9552,0,0,-11.9552,164.46292,255.817)"/>
<use data-text="a" xlink:href="#font_1_28" transform="matrix(11.9552,0,0,-11.9552,170.61986,255.817)"/>
<use data-text="y" xlink:href="#font_1_118" transform="matrix(11.9552,0,0,-11.9552,176.7768,255.817)"/>
<path transform="matrix(1,0,0,-1,31.880002,14.480999)" stroke-width=".3985" stroke-linecap="round" stroke-miterlimit="10" stroke-linejoin="miter" fill="none" stroke="#929591" d="M0-259.03199H29.8883"/>
<path transform="matrix(1,0,0,-1,31.880002,14.480999)" d="M0-254.0506 2.98883-259.03199 0-264.01338-2.98883-259.03199Z"/>
<use data-text="c" xlink:href="#font_1_43" transform="matrix(11.9552,0,0,-11.9552,72.10899,277.06999)"/>
<use data-text="o" xlink:href="#font_1_81" transform="matrix(11.9552,0,0,-11.9552,78.26593,277.06999)"/>
<use data-text="u" xlink:href="#font_1_109" transform="matrix(11.9552,0,0,-11.9552,84.42285,277.06999)"/>
<use data-text="n" xlink:href="#font_1_77" transform="matrix(11.9552,0,0,-11.9552,90.57979,277.06999)"/>
<use data-text="t" xlink:href="#font_1_105" transform="matrix(11.9552,0,0,-11.9552,96.73671,277.06999)"/>
<use data-text="-" xlink:href="#font_1_64" transform="matrix(11.9552,0,0,-11.9552,109.05057,277.06999)"/>
<use data-text="&#x003e;" xlink:href="#font_1_61" transform="matrix(11.9552,0,0,-11.9552,115.2075,277.06999)"/>
<use data-text="i" xlink:href="#font_1_66" transform="matrix(11.9552,0,0,-11.9552,127.521358,277.06999)"/>
<use data-text="n" xlink:href="#font_1_77" transform="matrix(11.9552,0,0,-11.9552,133.67829,277.06999)"/>
<use data-text="t" xlink:href="#font_1_105" transform="matrix(11.9552,0,0,-11.9552,139.8352,277.06999)"/>
</svg>
