<svg xmlns="http://www.w3.org/2000/svg" xmlns:xlink="http://www.w3.org/1999/xlink" xmlns:inkscape="http://www.inkscape.org/namespaces/inkscape" version="1.1" width="601.74" height="494.07" viewBox="0 0 601.74 494.07">
<path transform="matrix(1,0,0,-1,81.694,433.656)" d="M37.36044 4.31393 22.41615 30.1981C21.0406 32.58064 17.69533 34.51204 14.94415 34.51204H-14.94415C-17.69533 34.51204-21.0406 32.58064-22.41615 30.1981L-37.36044 4.31393C-38.736 1.93138-38.736-1.93138-37.36044-4.31393L-22.41615-30.1981C-21.0406-32.58064-17.69533-34.51204-14.94415-34.51204H14.94415C17.69533-34.51204 21.0406-32.58064 22.41615-30.1981L37.36044-4.31393C38.736-1.93138 38.736 1.93138 37.36044 4.31393Z" fill="#54ac68"/>
<path transform="matrix(1,0,0,-1,81.694,433.656)" stroke-width="1.99255" stroke-linecap="butt" stroke-miterlimit="10" stroke-linejoin="miter" fill="none" stroke="#000000" d="M37.36044 4.31393 22.41615 30.1981C21.0406 32.58064 17.69533 34.51204 14.94415 34.51204H-14.94415C-17.69533 34.51204-21.0406 32.58064-22.41615 30.1981L-37.36044 4.31393C-38.736 1.93138-38.736-1.93138-37.36044-4.31393L-22.41615-30.1981C-21.0406-32.58064-17.69533-34.51204-14.94415-34.51204H14.94415C17.69533-34.51204 21.0406-32.58064 22.41615-30.1981L37.36044-4.31393C38.736-1.93138 38.736 1.93138 37.36044 4.31393Z"/>
<path transform="matrix(1,0,0,-1,81.694,433.656)" d="M33.37534 88.99747 18.43105 114.88164C17.0555 117.26418 13.71022 119.19557 10.95905 119.19557H-18.92926C-21.68044 119.19557-25.02571 117.26418-26.40126 114.88164L-41.34555 88.99747C-42.7211 86.61491-42.7211 82.75214-41.34555 80.36958L-26.40126 54.48541C-25.02571 52.10287-21.68044 50.17148-18.92926 50.17148H10.95905C13.71022 50.17148 17.0555 52.10287 18.43105 54.48541L33.37534 80.36958C34.75089 82.75214 34.75089 86.61491 33.37534 88.99747Z" fill="#54ac68"/>
<path transform="matrix(1,0,0,-1,81.694,433.656)" stroke-width="1.99255" stroke-linecap="butt" stroke-miterlimit="10" stroke-linejoin="miter" fill="none" stroke="#000000" d="M33.37534 88.99747 18.43105 114.88164C17.0555 117.26418 13.71022 119.19557 10.95905 119.19557H-18.92926C-21.68044 119.19557-25.02571 117.26418-26.40126 114.88164L-41.34555 88.99747C-42.7211 86.61491-42.7211 82.75214-41.34555 80.36958L-26.40126 54.48541C-25.02571 52.10287-21.68044 50.17148-18.92926 50.17148H10.95905C13.71022 50.17148 17.0555 52.10287 18.43105 54.48541L33.37534 80.36958C34.75089 82.75214 34.75089 86.61491 33.37534 88.99747Z"/>
<path transform="matrix(1,0,0,-1,81.694,433.656)" d="M29.39023 173.681 14.44594 199.56517C13.07039 201.94771 9.72511 203.8791 6.97394 203.8791H-22.91437C-25.66554 203.8791-29.01082 201.94771-30.38637 199.56517L-45.33066 173.681C-46.7062 171.29845-46.7062 167.43567-45.33066 165.05312L-30.38637 139.16895C-29.01082 136.7864-25.66554 134.85501-22.91437 134.85501H6.97394C9.72511 134.85501 13.07039 136.7864 14.44594 139.16895L29.39023 165.05312C30.76578 167.43567 30.76578 171.29845 29.39023 173.681Z" fill="#54ac68"/>
<path transform="matrix(1,0,0,-1,81.694,433.656)" stroke-width="1.99255" stroke-linecap="butt" stroke-miterlimit="10" stroke-linejoin="miter" fill="none" stroke="#000000" d="M29.39023 173.681 14.44594 199.56517C13.07039 201.94771 9.72511 203.8791 6.97394 203.8791H-22.91437C-25.66554 203.8791-29.01082 201.94771-30.38637 199.56517L-45.33066 173.681C-46.7062 171.29845-46.7062 167.43567-45.33066 165.05312L-30.38637 139.16895C-29.01082 136.7864-25.66554 134.85501-22.91437 134.85501H6.97394C9.72511 134.85501 13.07039 136.7864 14.44594 139.16895L29.39023 165.05312C30.76578 167.43567 30.76578 171.29845 29.39023 173.681Z"/>
<path transform="matrix(1,0,0,-1,81.694,433.656)" d="M25.40512 258.36454 10.46083 284.2487C9.08528 286.63124 5.74 288.56266 2.98883 288.56266H-26.89948C-29.65065 288.56266-32.99593 286.63124-34.37148 284.2487L-49.31577 258.36454C-50.69131 255.98198-50.69131 252.1192-49.31577 249.73665L-34.37148 223.85248C-32.99593 221.46994-29.65065 219.53855-26.89948 219.53855H2.98883C5.74 219.53855 9.08528 221.46994 10.46083 223.85248L25.40512 249.73665C26.78067 252.1192 26.78067 255.98198 25.40512 258.36454Z" fill="#54ac68"/>
<path transform="matrix(1,0,0,-1,81.694,433.656)" stroke-width="1.99255" stroke-linecap="butt" stroke-miterlimit="10" stroke-linejoin="miter" fill="none" stroke="#000000" d="M25.40512 258.36454 10.46083 284.2487C9.08528 286.63124 5.74 288.56266 2.98883 288.56266H-26.89948C-29.65065 288.56266-32.99593 286.63124-34.37148 284.2487L-49.31577 258.36454C-50.69131 255.98198-50.69131 252.1192-49.31577 249.73665L-34.37148 223.85248C-32.99593 221.46994-29.65065 219.53855-26.89948 219.53855H2.98883C5.74 219.53855 9.08528 221.46994 10.46083 223.85248L25.40512 249.73665C26.78067 252.1192 26.78067 255.98198 25.40512 258.36454Z"/>
<path transform="matrix(1,0,0,-1,81.694,433.656)" d="M21.42001 343.04808 6.47572 368.93226C5.10017 371.31477 1.7549 373.24617-.99628 373.24617H-30.88458C-33.63576 373.24617-36.98103 371.31477-38.35658 368.93226L-53.30087 343.04808C-54.67642 340.6655-54.67642 336.80274-53.30087 334.42018L-38.35658 308.536C-36.98103 306.15348-33.63576 304.22209-30.88458 304.22209H-.99628C1.7549 304.22209 5.10017 306.15348 6.47572 308.536L21.42001 334.42018C22.79556 336.80274 22.79556 340.6655 21.42001 343.04808Z" fill="#54ac68"/>
<path transform="matrix(1,0,0,-1,81.694,433.656)" stroke-width="1.99255" stroke-linecap="butt" stroke-miterlimit="10" stroke-linejoin="miter" fill="none" stroke="#000000" d="M21.42001 343.04808 6.47572 368.93226C5.10017 371.31477 1.7549 373.24617-.99628 373.24617H-30.88458C-33.63576 373.24617-36.98103 371.31477-38.35658 368.93226L-53.30087 343.04808C-54.67642 340.6655-54.67642 336.80274-53.30087 334.42018L-38.35658 308.536C-36.98103 306.15348-33.63576 304.22209-30.88458 304.22209H-.99628C1.7549 304.22209 5.10017 306.15348 6.47572 308.536L21.42001 334.42018C22.79556 336.80274 22.79556 340.6655 21.42001 343.04808Z"/>
<path transform="matrix(1,0,0,-1,81.694,433.656)" d="M168.86899 4.31393 153.9247 30.1981C152.54915 32.58064 149.20388 34.51204 146.4527 34.51204H116.56439C113.8132 34.51204 110.46793 32.58064 109.09238 30.1981L94.14809 4.31393C92.77254 1.93138 92.77254-1.93138 94.14809-4.31393L109.09238-30.1981C110.46793-32.58064 113.8132-34.51204 116.56439-34.51204H146.4527C149.20388-34.51204 152.54915-32.58064 153.9247-30.1981L168.86899-4.31393C170.24454-1.93138 170.24454 1.93138 168.86899 4.31393Z" fill="#54ac68"/>
<path transform="matrix(1,0,0,-1,81.694,433.656)" stroke-width="1.99255" stroke-linecap="butt" stroke-miterlimit="10" stroke-linejoin="miter" fill="none" stroke="#000000" d="M168.86899 4.31393 153.9247 30.1981C152.54915 32.58064 149.20388 34.51204 146.4527 34.51204H116.56439C113.8132 34.51204 110.46793 32.58064 109.09238 30.1981L94.14809 4.31393C92.77254 1.93138 92.77254-1.93138 94.14809-4.31393L109.09238-30.1981C110.46793-32.58064 113.8132-34.51204 116.56439-34.51204H146.4527C149.20388-34.51204 152.54915-32.58064 153.9247-30.1981L168.86899-4.31393C170.24454-1.93138 170.24454 1.93138 168.86899 4.31393Z"/>
<path transform="matrix(1,0,0,-1,81.694,433.656)" d="M164.88388 88.99747 149.93959 114.88164C148.56404 117.26418 145.21877 119.19557 142.46759 119.19557H112.57928C109.8281 119.19557 106.48282 117.26418 105.10727 114.88164L90.16298 88.99747C88.78743 86.61491 88.78743 82.75214 90.16298 80.36958L105.10727 54.48541C106.48282 52.10287 109.8281 50.17148 112.57928 50.17148H142.46759C145.21877 50.17148 148.56404 52.10287 149.93959 54.48541L164.88388 80.36958C166.25943 82.75214 166.25943 86.61491 164.88388 88.99747Z" fill="#54ac68"/>
<path transform="matrix(1,0,0,-1,81.694,433.656)" stroke-width="1.99255" stroke-linecap="butt" stroke-miterlimit="10" stroke-linejoin="miter" fill="none" stroke="#000000" d="M164.88388 88.99747 149.93959 114.88164C148.56404 117.26418 145.21877 119.19557 142.46759 119.19557H112.57928C109.8281 119.19557 106.48282 117.26418 105.10727 114.88164L90.16298 88.99747C88.78743 86.61491 88.78743 82.75214 90.16298 80.36958L105.10727 54.48541C106.48282 52.10287 109.8281 50.17148 112.57928 50.17148H142.46759C145.21877 50.17148 148.56404 52.10287 149.93959 54.48541L164.88388 80.36958C166.25943 82.75214 166.25943 86.61491 164.88388 88.99747Z"/>
<path transform="matrix(1,0,0,-1,81.694,433.656)" d="M160.89878 173.681 145.95449 199.56517C144.57894 201.94771 141.23366 203.8791 138.48249 203.8791H108.59418C105.84299 203.8791 102.49771 201.94771 101.12216 199.56517L86.17787 173.681C84.80232 171.29845 84.80232 167.43567 86.17787 165.05312L101.12216 139.16895C102.49771 136.7864 105.84299 134.85501 108.59418 134.85501H138.48249C141.23366 134.85501 144.57894 136.7864 145.95449 139.16895L160.89878 165.05312C162.27433 167.43567 162.27433 171.29845 160.89878 173.681Z" fill="#54ac68"/>
<path transform="matrix(1,0,0,-1,81.694,433.656)" stroke-width="1.99255" stroke-linecap="butt" stroke-miterlimit="10" stroke-linejoin="miter" fill="none" stroke="#000000" d="M160.89878 173.681 145.95449 199.56517C144.57894 201.94771 141.23366 203.8791 138.48249 203.8791H108.59418C105.84299 203.8791 102.49771 201.94771 101.12216 199.56517L86.17787 173.681C84.80232 171.29845 84.80232 167.43567 86.17787 165.05312L101.12216 139.16895C102.49771 136.7864 105.84299 134.85501 108.59418 134.85501H138.48249C141.23366 134.85501 144.57894 136.7864 145.95449 139.16895L160.89878 165.05312C162.27433 167.43567 162.27433 171.29845 160.89878 173.681Z"/>
<path transform="matrix(1,0,0,-1,81.694,433.656)" d="M156.91367 258.36454 141.96938 284.2487C140.59383 286.63124 137.24855 288.56266 134.49738 288.56266H104.60907C101.85788 288.56266 98.5126 286.63124 97.13705 284.2487L82.19276 258.36454C80.81721 255.98198 80.81721 252.1192 82.19276 249.73665L97.13705 223.85248C98.5126 221.46994 101.85788 219.53855 104.60907 219.53855H134.49738C137.24855 219.53855 140.59383 221.46994 141.96938 223.85248L156.91367 249.73665C158.28922 252.1192 158.28922 255.98198 156.91367 258.36454Z" fill="#54ac68"/>
<path transform="matrix(1,0,0,-1,81.694,433.656)" stroke-width="1.99255" stroke-linecap="butt" stroke-miterlimit="10" stroke-linejoin="miter" fill="none" stroke="#000000" d="M156.91367 258.36454 141.96938 284.2487C140.59383 286.63124 137.24855 288.56266 134.49738 288.56266H104.60907C101.85788 288.56266 98.5126 286.63124 97.13705 284.2487L82.19276 258.36454C80.81721 255.98198 80.81721 252.1192 82.19276 249.73665L97.13705 223.85248C98.5126 221.46994 101.85788 219.53855 104.60907 219.53855H134.49738C137.24855 219.53855 140.59383 221.46994 141.96938 223.85248L156.91367 249.73665C158.28922 252.1192 158.28922 255.98198 156.91367 258.36454Z"/>
<path transform="matrix(1,0,0,-1,81.694,433.656)" d="M152.92856 343.04808 137.98427 368.93226C136.60872 371.31477 133.26345 373.24617 130.51227 373.24617H100.62396C97.87277 373.24617 94.5275 371.31477 93.15195 368.93226L78.20766 343.04808C76.8321 340.6655 76.8321 336.80274 78.20766 334.42018L93.15195 308.536C94.5275 306.15348 97.87277 304.22209 100.62396 304.22209H130.51227C133.26345 304.22209 136.60872 306.15348 137.98427 308.536L152.92856 334.42018C154.30411 336.80274 154.30411 340.6655 152.92856 343.04808Z" fill="#54ac68"/>
<path transform="matrix(1,0,0,-1,81.694,433.656)" stroke-width="1.99255" stroke-linecap="butt" stroke-miterlimit="10" stroke-linejoin="miter" fill="none" stroke="#000000" d="M152.92856 343.04808 137.98427 368.93226C136.60872 371.31477 133.26345 373.24617 130.51227 373.24617H100.62396C97.87277 373.24617 94.5275 371.31477 93.15195 368.93226L78.20766 343.04808C76.8321 340.6655 76.8321 336.80274 78.20766 334.42018L93.15195 308.536C94.5275 306.15348 97.87277 304.22209 100.62396 304.22209H130.51227C133.26345 304.22209 136.60872 306.15348 137.98427 308.536L152.92856 334.42018C154.30411 336.80274 154.30411 340.6655 152.92856 343.04808Z"/>
<path transform="matrix(1,0,0,-1,81.694,433.656)" d="M300.37754 4.31393 285.43324 30.1981C284.0577 32.58064 280.71244 34.51204 277.96125 34.51204H248.07294C245.32175 34.51204 241.97647 32.58064 240.60092 30.1981L225.65663 4.31393C224.28108 1.93138 224.28108-1.93138 225.65663-4.31393L240.60092-30.1981C241.97647-32.58064 245.32175-34.51204 248.07294-34.51204H277.96125C280.71244-34.51204 284.0577-32.58064 285.43324-30.1981L300.37754-4.31393C301.75309-1.93138 301.75309 1.93138 300.37754 4.31393Z" fill="#54ac68"/>
<path transform="matrix(1,0,0,-1,81.694,433.656)" stroke-width="1.99255" stroke-linecap="butt" stroke-miterlimit="10" stroke-linejoin="miter" fill="none" stroke="#000000" d="M300.37754 4.31393 285.43324 30.1981C284.0577 32.58064 280.71244 34.51204 277.96125 34.51204H248.07294C245.32175 34.51204 241.97647 32.58064 240.60092 30.1981L225.65663 4.31393C224.28108 1.93138 224.28108-1.93138 225.65663-4.31393L240.60092-30.1981C241.97647-32.58064 245.32175-34.51204 248.07294-34.51204H277.96125C280.71244-34.51204 284.0577-32.58064 285.43324-30.1981L300.37754-4.31393C301.75309-1.93138 301.75309 1.93138 300.37754 4.31393Z"/>
<path transform="matrix(1,0,0,-1,81.694,433.656)" d="M296.39244 88.99747 281.44816 114.88164C280.0726 117.26418 276.7273 119.19557 273.97615 119.19557H244.08783C241.33664 119.19557 237.99137 117.26418 236.61582 114.88164L221.67153 88.99747C220.29598 86.61491 220.29598 82.75214 221.67153 80.36958L236.61582 54.48541C237.99137 52.10287 241.33664 50.17148 244.08783 50.17148H273.97615C276.7273 50.17148 280.0726 52.10287 281.44816 54.48541L296.39244 80.36958C297.76799 82.75214 297.76799 86.61491 296.39244 88.99747Z" fill="#54ac68"/>
<path transform="matrix(1,0,0,-1,81.694,433.656)" stroke-width="1.99255" stroke-linecap="butt" stroke-miterlimit="10" stroke-linejoin="miter" fill="none" stroke="#000000" d="M296.39244 88.99747 281.44816 114.88164C280.0726 117.26418 276.7273 119.19557 273.97615 119.19557H244.08783C241.33664 119.19557 237.99137 117.26418 236.61582 114.88164L221.67153 88.99747C220.29598 86.61491 220.29598 82.75214 221.67153 80.36958L236.61582 54.48541C237.99137 52.10287 241.33664 50.17148 244.08783 50.17148H273.97615C276.7273 50.17148 280.0726 52.10287 281.44816 54.48541L296.39244 80.36958C297.76799 82.75214 297.76799 86.61491 296.39244 88.99747Z"/>
<path transform="matrix(1,0,0,-1,81.694,433.656)" d="M292.40733 173.681 277.46305 199.56517C276.0875 201.94771 272.7422 203.8791 269.99104 203.8791H240.10272C237.35153 203.8791 234.00626 201.94771 232.6307 199.56517L217.68642 173.681C216.31087 171.29845 216.31087 167.43567 217.68642 165.05312L232.6307 139.16895C234.00626 136.7864 237.35153 134.85501 240.10272 134.85501H269.99104C272.7422 134.85501 276.0875 136.7864 277.46305 139.16895L292.40733 165.05312C293.78288 167.43567 293.78288 171.29845 292.40733 173.681Z" fill="#54ac68"/>
<path transform="matrix(1,0,0,-1,81.694,433.656)" stroke-width="1.99255" stroke-linecap="butt" stroke-miterlimit="10" stroke-linejoin="miter" fill="none" stroke="#000000" d="M292.40733 173.681 277.46305 199.56517C276.0875 201.94771 272.7422 203.8791 269.99104 203.8791H240.10272C237.35153 203.8791 234.00626 201.94771 232.6307 199.56517L217.68642 173.681C216.31087 171.29845 216.31087 167.43567 217.68642 165.05312L232.6307 139.16895C234.00626 136.7864 237.35153 134.85501 240.10272 134.85501H269.99104C272.7422 134.85501 276.0875 136.7864 277.46305 139.16895L292.40733 165.05312C293.78288 167.43567 293.78288 171.29845 292.40733 173.681Z"/>
<path transform="matrix(1,0,0,-1,81.694,433.656)" d="M288.4222 258.36454 273.4779 284.2487C272.10237 286.63124 268.7571 288.56266 266.00593 288.56266H236.11762C233.36643 288.56266 230.02115 286.63124 228.6456 284.2487L213.70131 258.36454C212.32576 255.98198 212.32576 252.1192 213.70131 249.73665L228.6456 223.85248C230.02115 221.46994 233.36643 219.53855 236.11762 219.53855H266.00593C268.7571 219.53855 272.10237 221.46994 273.4779 223.85248L288.4222 249.73665C289.79777 252.1192 289.79777 255.98198 288.4222 258.36454Z" fill="#54ac68"/>
<path transform="matrix(1,0,0,-1,81.694,433.656)" stroke-width="1.99255" stroke-linecap="butt" stroke-miterlimit="10" stroke-linejoin="miter" fill="none" stroke="#000000" d="M288.4222 258.36454 273.4779 284.2487C272.10237 286.63124 268.7571 288.56266 266.00593 288.56266H236.11762C233.36643 288.56266 230.02115 286.63124 228.6456 284.2487L213.70131 258.36454C212.32576 255.98198 212.32576 252.1192 213.70131 249.73665L228.6456 223.85248C230.02115 221.46994 233.36643 219.53855 236.11762 219.53855H266.00593C268.7571 219.53855 272.10237 221.46994 273.4779 223.85248L288.4222 249.73665C289.79777 252.1192 289.79777 255.98198 288.4222 258.36454Z"/>
<path transform="matrix(1,0,0,-1,81.694,433.656)" d="M284.4371 343.04808 269.4928 368.93226C268.11726 371.31477 264.772 373.24617 262.0208 373.24617H232.1325C229.38132 373.24617 226.03604 371.31477 224.66049 368.93226L209.7162 343.04808C208.34066 340.6655 208.34066 336.80274 209.7162 334.42018L224.66049 308.536C226.03604 306.15348 229.38132 304.22209 232.1325 304.22209H262.0208C264.772 304.22209 268.11726 306.15348 269.4928 308.536L284.4371 334.42018C285.81266 336.80274 285.81266 340.6655 284.4371 343.04808Z" fill="#54ac68"/>
<path transform="matrix(1,0,0,-1,81.694,433.656)" stroke-width="1.99255" stroke-linecap="butt" stroke-miterlimit="10" stroke-linejoin="miter" fill="none" stroke="#000000" d="M284.4371 343.04808 269.4928 368.93226C268.11726 371.31477 264.772 373.24617 262.0208 373.24617H232.1325C229.38132 373.24617 226.03604 371.31477 224.66049 368.93226L209.7162 343.04808C208.34066 340.6655 208.34066 336.80274 209.7162 334.42018L224.66049 308.536C226.03604 306.15348 229.38132 304.22209 232.1325 304.22209H262.0208C264.772 304.22209 268.11726 306.15348 269.4928 308.536L284.4371 334.42018C285.81266 336.80274 285.81266 340.6655 284.4371 343.04808Z"/>
<path transform="matrix(1,0,0,-1,81.694,433.656)" d="M431.88609 4.31393 416.9418 30.1981C415.56626 32.58064 412.22096 34.51204 409.4698 34.51204H379.58149C376.8303 34.51204 373.48503 32.58064 372.10948 30.1981L357.1652 4.31393C355.78965 1.93138 355.78965-1.93138 357.1652-4.31393L372.10948-30.1981C373.48503-32.58064 376.8303-34.51204 379.58149-34.51204H409.4698C412.22096-34.51204 415.56626-32.58064 416.9418-30.1981L431.88609-4.31393C433.26164-1.93138 433.26164 1.93138 431.88609 4.31393Z" fill="#54ac68"/>
<path transform="matrix(1,0,0,-1,81.694,433.656)" stroke-width="1.99255" stroke-linecap="butt" stroke-miterlimit="10" stroke-linejoin="miter" fill="none" stroke="#000000" d="M431.88609 4.31393 416.9418 30.1981C415.56626 32.58064 412.22096 34.51204 409.4698 34.51204H379.58149C376.8303 34.51204 373.48503 32.58064 372.10948 30.1981L357.1652 4.31393C355.78965 1.93138 355.78965-1.93138 357.1652-4.31393L372.10948-30.1981C373.48503-32.58064 376.8303-34.51204 379.58149-34.51204H409.4698C412.22096-34.51204 415.56626-32.58064 416.9418-30.1981L431.88609-4.31393C433.26164-1.93138 433.26164 1.93138 431.88609 4.31393Z"/>
<path transform="matrix(1,0,0,-1,81.694,433.656)" d="M427.90098 88.99747 412.95668 114.88164C411.58113 117.26418 408.23588 119.19557 405.48469 119.19557H375.59638C372.84519 119.19557 369.4999 117.26418 368.12437 114.88164L353.18009 88.99747C351.80455 86.61491 351.80455 82.75214 353.18009 80.36958L368.12437 54.48541C369.4999 52.10287 372.84519 50.17148 375.59638 50.17148H405.48469C408.23588 50.17148 411.58113 52.10287 412.95668 54.48541L427.90098 80.36958C429.27653 82.75214 429.27653 86.61491 427.90098 88.99747Z" fill="#54ac68"/>
<path transform="matrix(1,0,0,-1,81.694,433.656)" stroke-width="1.99255" stroke-linecap="butt" stroke-miterlimit="10" stroke-linejoin="miter" fill="none" stroke="#000000" d="M427.90098 88.99747 412.95668 114.88164C411.58113 117.26418 408.23588 119.19557 405.48469 119.19557H375.59638C372.84519 119.19557 369.4999 117.26418 368.12437 114.88164L353.18009 88.99747C351.80455 86.61491 351.80455 82.75214 353.18009 80.36958L368.12437 54.48541C369.4999 52.10287 372.84519 50.17148 375.59638 50.17148H405.48469C408.23588 50.17148 411.58113 52.10287 412.95668 54.48541L427.90098 80.36958C429.27653 82.75214 429.27653 86.61491 427.90098 88.99747Z"/>
<path transform="matrix(1,0,0,-1,81.694,433.656)" d="M423.91587 173.681 408.97157 199.56517C407.596 201.94771 404.25077 203.8791 401.49958 203.8791H371.61128C368.86009 203.8791 365.5148 201.94771 364.13926 199.56517L349.19496 173.681C347.8194 171.29845 347.8194 167.43567 349.19496 165.05312L364.13926 139.16895C365.5148 136.7864 368.86009 134.85501 371.61128 134.85501H401.49958C404.25077 134.85501 407.596 136.7864 408.97157 139.16895L423.91587 165.05312C425.2914 167.43567 425.2914 171.29845 423.91587 173.681Z" fill="#54ac68"/>
<path transform="matrix(1,0,0,-1,81.694,433.656)" stroke-width="1.99255" stroke-linecap="butt" stroke-miterlimit="10" stroke-linejoin="miter" fill="none" stroke="#000000" d="M423.91587 173.681 408.97157 199.56517C407.596 201.94771 404.25077 203.8791 401.49958 203.8791H371.61128C368.86009 203.8791 365.5148 201.94771 364.13926 199.56517L349.19496 173.681C347.8194 171.29845 347.8194 167.43567 349.19496 165.05312L364.13926 139.16895C365.5148 136.7864 368.86009 134.85501 371.61128 134.85501H401.49958C404.25077 134.85501 407.596 136.7864 408.97157 139.16895L423.91587 165.05312C425.2914 167.43567 425.2914 171.29845 423.91587 173.681Z"/>
<path transform="matrix(1,0,0,-1,81.694,433.656)" d="M419.93077 258.36454 404.98649 284.2487C403.61094 286.63124 400.26564 288.56266 397.51448 288.56266H367.62617C364.87498 288.56266 361.5297 286.63124 360.15415 284.2487L345.20985 258.36454C343.8343 255.98198 343.8343 252.1192 345.20985 249.73665L360.15415 223.85248C361.5297 221.46994 364.87498 219.53855 367.62617 219.53855H397.51448C400.26564 219.53855 403.61094 221.46994 404.98649 223.85248L419.93077 249.73665C421.3063 252.1192 421.3063 255.98198 419.93077 258.36454Z" fill="#54ac68"/>
<path transform="matrix(1,0,0,-1,81.694,433.656)" stroke-width="1.99255" stroke-linecap="butt" stroke-miterlimit="10" stroke-linejoin="miter" fill="none" stroke="#000000" d="M419.93077 258.36454 404.98649 284.2487C403.61094 286.63124 400.26564 288.56266 397.51448 288.56266H367.62617C364.87498 288.56266 361.5297 286.63124 360.15415 284.2487L345.20985 258.36454C343.8343 255.98198 343.8343 252.1192 345.20985 249.73665L360.15415 223.85248C361.5297 221.46994 364.87498 219.53855 367.62617 219.53855H397.51448C400.26564 219.53855 403.61094 221.46994 404.98649 223.85248L419.93077 249.73665C421.3063 252.1192 421.3063 255.98198 419.93077 258.36454Z"/>
<path transform="matrix(1,0,0,-1,81.694,433.656)" d="M415.94566 343.04808 401.00138 368.93226C399.62583 371.31477 396.28053 373.24617 393.52937 373.24617H363.64106C360.88987 373.24617 357.5446 371.31477 356.16905 368.93226L341.22477 343.04808C339.8492 340.6655 339.8492 336.80274 341.22477 334.42018L356.16905 308.536C357.5446 306.15348 360.88987 304.22209 363.64106 304.22209H393.52937C396.28053 304.22209 399.62583 306.15348 401.00138 308.536L415.94566 334.42018C417.3212 336.80274 417.3212 340.6655 415.94566 343.04808Z" fill="#54ac68"/>
<path transform="matrix(1,0,0,-1,81.694,433.656)" stroke-width="1.99255" stroke-linecap="butt" stroke-miterlimit="10" stroke-linejoin="miter" fill="none" stroke="#000000" d="M415.94566 343.04808 401.00138 368.93226C399.62583 371.31477 396.28053 373.24617 393.52937 373.24617H363.64106C360.88987 373.24617 357.5446 371.31477 356.16905 368.93226L341.22477 343.04808C339.8492 340.6655 339.8492 336.80274 341.22477 334.42018L356.16905 308.536C357.5446 306.15348 360.88987 304.22209 363.64106 304.22209H393.52937C396.28053 304.22209 399.62583 306.15348 401.00138 308.536L415.94566 334.42018C417.3212 336.80274 417.3212 340.6655 415.94566 343.04808Z"/>
<path transform="matrix(1,0,0,-1,81.694,433.656)" d="M37.36044 4.31393 22.41615 30.1981C21.0406 32.58064 21.0406 36.44344 22.41615 38.82599L37.36044 64.71013C38.736 67.09268 42.08127 69.02408 44.83246 69.02408H74.72076C77.47194 69.02408 80.81721 67.09268 82.19276 64.71013L97.13705 38.82599C98.5126 36.44344 98.5126 32.58064 97.13705 30.1981L82.19276 4.31393C80.81721 1.93138 77.47194 0 74.72076 0H44.83246C42.08127 0 38.736 1.93138 37.36044 4.31393Z" fill="#54ac68"/>
<path transform="matrix(1,0,0,-1,81.694,433.656)" stroke-width="1.99255" stroke-linecap="butt" stroke-miterlimit="10" stroke-linejoin="miter" fill="none" stroke="#000000" d="M37.36044 4.31393 22.41615 30.1981C21.0406 32.58064 21.0406 36.44344 22.41615 38.82599L37.36044 64.71013C38.736 67.09268 42.08127 69.02408 44.83246 69.02408H74.72076C77.47194 69.02408 80.81721 67.09268 82.19276 64.71013L97.13705 38.82599C98.5126 36.44344 98.5126 32.58064 97.13705 30.1981L82.19276 4.31393C80.81721 1.93138 77.47194 0 74.72076 0H44.83246C42.08127 0 38.736 1.93138 37.36044 4.31393Z"/>
<path transform="matrix(1,0,0,-1,81.694,433.656)" d="M33.37534 88.99747 18.43105 114.88164C17.0555 117.26418 17.0555 121.12697 18.43105 123.50952L33.37534 149.39366C34.75089 151.77622 38.09616 153.70761 40.84735 153.70761H70.73566C73.48683 153.70761 76.8321 151.77622 78.20766 149.39366L93.15195 123.50952C94.5275 121.12697 94.5275 117.26418 93.15195 114.88164L78.20766 88.99747C76.8321 86.61491 73.48683 84.68353 70.73566 84.68353H40.84735C38.09616 84.68353 34.75089 86.61491 33.37534 88.99747Z" fill="#54ac68"/>
<path transform="matrix(1,0,0,-1,81.694,433.656)" stroke-width="1.99255" stroke-linecap="butt" stroke-miterlimit="10" stroke-linejoin="miter" fill="none" stroke="#000000" d="M33.37534 88.99747 18.43105 114.88164C17.0555 117.26418 17.0555 121.12697 18.43105 123.50952L33.37534 149.39366C34.75089 151.77622 38.09616 153.70761 40.84735 153.70761H70.73566C73.48683 153.70761 76.8321 151.77622 78.20766 149.39366L93.15195 123.50952C94.5275 121.12697 94.5275 117.26418 93.15195 114.88164L78.20766 88.99747C76.8321 86.61491 73.48683 84.68353 70.73566 84.68353H40.84735C38.09616 84.68353 34.75089 86.61491 33.37534 88.99747Z"/>
<path transform="matrix(1,0,0,-1,81.694,433.656)" d="M29.39023 173.681 14.44594 199.56517C13.07039 201.94771 13.07039 205.8105 14.44594 208.19306L29.39023 234.0772C30.76578 236.45975 34.11105 238.39115 36.86224 238.39115H66.75055C69.50172 238.39115 72.847 236.45975 74.22255 234.0772L89.16684 208.19306C90.54239 205.8105 90.54239 201.94771 89.16684 199.56517L74.22255 173.681C72.847 171.29845 69.50172 169.36707 66.75055 169.36707H36.86224C34.11105 169.36707 30.76578 171.29845 29.39023 173.681Z" fill="#54ac68"/>
<path transform="matrix(1,0,0,-1,81.694,433.656)" stroke-width="1.99255" stroke-linecap="butt" stroke-miterlimit="10" stroke-linejoin="miter" fill="none" stroke="#000000" d="M29.39023 173.681 14.44594 199.56517C13.07039 201.94771 13.07039 205.8105 14.44594 208.19306L29.39023 234.0772C30.76578 236.45975 34.11105 238.39115 36.86224 238.39115H66.75055C69.50172 238.39115 72.847 236.45975 74.22255 234.0772L89.16684 208.19306C90.54239 205.8105 90.54239 201.94771 89.16684 199.56517L74.22255 173.681C72.847 171.29845 69.50172 169.36707 66.75055 169.36707H36.86224C34.11105 169.36707 30.76578 171.29845 29.39023 173.681Z"/>
<path transform="matrix(1,0,0,-1,81.694,433.656)" d="M25.40512 258.36454 10.46083 284.2487C9.08528 286.63124 9.08528 290.49403 10.46083 292.8766L25.40512 318.76075C26.78067 321.14329 30.12595 323.07469 32.87714 323.07469H62.76544C65.51662 323.07469 68.8619 321.14329 70.23744 318.76075L85.18173 292.8766C86.55728 290.49403 86.55728 286.63124 85.18173 284.2487L70.23744 258.36454C68.8619 255.98198 65.51662 254.0506 62.76544 254.0506H32.87714C30.12595 254.0506 26.78067 255.98198 25.40512 258.36454Z" fill="#54ac68"/>
<path transform="matrix(1,0,0,-1,81.694,433.656)" stroke-width="1.99255" stroke-linecap="butt" stroke-miterlimit="10" stroke-linejoin="miter" fill="none" stroke="#000000" d="M25.40512 258.36454 10.46083 284.2487C9.08528 286.63124 9.08528 290.49403 10.46083 292.8766L25.40512 318.76075C26.78067 321.14329 30.12595 323.07469 32.87714 323.07469H62.76544C65.51662 323.07469 68.8619 321.14329 70.23744 318.76075L85.18173 292.8766C86.55728 290.49403 86.55728 286.63124 85.18173 284.2487L70.23744 258.36454C68.8619 255.98198 65.51662 254.0506 62.76544 254.0506H32.87714C30.12595 254.0506 26.78067 255.98198 25.40512 258.36454Z"/>
<path transform="matrix(1,0,0,-1,81.694,433.656)" d="M21.42001 343.04808 6.47572 368.93226C5.10017 371.31477 5.10017 375.17759 6.47572 377.56013L21.42001 403.44429C22.79556 405.8268 26.14084 407.7582 28.89203 407.7582H58.78033C61.53151 407.7582 64.87679 405.8268 66.25233 403.44429L81.19662 377.56013C82.57217 375.17759 82.57217 371.31477 81.19662 368.93226L66.25233 343.04808C64.87679 340.6655 61.53151 338.73414 58.78033 338.73414H28.89203C26.14084 338.73414 22.79556 340.6655 21.42001 343.04808Z" fill="#54ac68"/>
<path transform="matrix(1,0,0,-1,81.694,433.656)" stroke-width="1.99255" stroke-linecap="butt" stroke-miterlimit="10" stroke-linejoin="miter" fill="none" stroke="#000000" d="M21.42001 343.04808 6.47572 368.93226C5.10017 371.31477 5.10017 375.17759 6.47572 377.56013L21.42001 403.44429C22.79556 405.8268 26.14084 407.7582 28.89203 407.7582H58.78033C61.53151 407.7582 64.87679 405.8268 66.25233 403.44429L81.19662 377.56013C82.57217 375.17759 82.57217 371.31477 81.19662 368.93226L66.25233 343.04808C64.87679 340.6655 61.53151 338.73414 58.78033 338.73414H28.89203C26.14084 338.73414 22.79556 340.6655 21.42001 343.04808Z"/>
<path transform="matrix(1,0,0,-1,81.694,433.656)" d="M168.86899 4.31393 153.9247 30.1981C152.54915 32.58064 152.54915 36.44344 153.9247 38.82599L168.86899 64.71013C170.24454 67.09268 173.58982 69.02408 176.341 69.02408H206.22931C208.98049 69.02408 212.32576 67.09268 213.70131 64.71013L228.6456 38.82599C230.02115 36.44344 230.02115 32.58064 228.6456 30.1981L213.70131 4.31393C212.32576 1.93138 208.98049 0 206.22931 0H176.341C173.58982 0 170.24454 1.93138 168.86899 4.31393Z" fill="#54ac68"/>
<path transform="matrix(1,0,0,-1,81.694,433.656)" stroke-width="1.99255" stroke-linecap="butt" stroke-miterlimit="10" stroke-linejoin="miter" fill="none" stroke="#000000" d="M168.86899 4.31393 153.9247 30.1981C152.54915 32.58064 152.54915 36.44344 153.9247 38.82599L168.86899 64.71013C170.24454 67.09268 173.58982 69.02408 176.341 69.02408H206.22931C208.98049 69.02408 212.32576 67.09268 213.70131 64.71013L228.6456 38.82599C230.02115 36.44344 230.02115 32.58064 228.6456 30.1981L213.70131 4.31393C212.32576 1.93138 208.98049 0 206.22931 0H176.341C173.58982 0 170.24454 1.93138 168.86899 4.31393Z"/>
<path transform="matrix(1,0,0,-1,81.694,433.656)" d="M164.88388 88.99747 149.93959 114.88164C148.56404 117.26418 148.56404 121.12697 149.93959 123.50952L164.88388 149.39366C166.25943 151.77622 169.6047 153.70761 172.3559 153.70761H202.2442C204.99538 153.70761 208.34066 151.77622 209.7162 149.39366L224.66049 123.50952C226.03604 121.12697 226.03604 117.26418 224.66049 114.88164L209.7162 88.99747C208.34066 86.61491 204.99538 84.68353 202.2442 84.68353H172.3559C169.6047 84.68353 166.25943 86.61491 164.88388 88.99747Z" fill="#54ac68"/>
<path transform="matrix(1,0,0,-1,81.694,433.656)" stroke-width="1.99255" stroke-linecap="butt" stroke-miterlimit="10" stroke-linejoin="miter" fill="none" stroke="#000000" d="M164.88388 88.99747 149.93959 114.88164C148.56404 117.26418 148.56404 121.12697 149.93959 123.50952L164.88388 149.39366C166.25943 151.77622 169.6047 153.70761 172.3559 153.70761H202.2442C204.99538 153.70761 208.34066 151.77622 209.7162 149.39366L224.66049 123.50952C226.03604 121.12697 226.03604 117.26418 224.66049 114.88164L209.7162 88.99747C208.34066 86.61491 204.99538 84.68353 202.2442 84.68353H172.3559C169.6047 84.68353 166.25943 86.61491 164.88388 88.99747Z"/>
<path transform="matrix(1,0,0,-1,81.694,433.656)" d="M160.89878 173.681 145.95449 199.56517C144.57894 201.94771 144.57894 205.8105 145.95449 208.19306L160.89878 234.0772C162.27433 236.45975 165.6196 238.39115 168.37079 238.39115H198.2591C201.01027 238.39115 204.35555 236.45975 205.7311 234.0772L220.67539 208.19306C222.05094 205.8105 222.05094 201.94771 220.67539 199.56517L205.7311 173.681C204.35555 171.29845 201.01027 169.36707 198.2591 169.36707H168.37079C165.6196 169.36707 162.27433 171.29845 160.89878 173.681Z" fill="#54ac68"/>
<path transform="matrix(1,0,0,-1,81.694,433.656)" stroke-width="1.99255" stroke-linecap="butt" stroke-miterlimit="10" stroke-linejoin="miter" fill="none" stroke="#000000" d="M160.89878 173.681 145.95449 199.56517C144.57894 201.94771 144.57894 205.8105 145.95449 208.19306L160.89878 234.0772C162.27433 236.45975 165.6196 238.39115 168.37079 238.39115H198.2591C201.01027 238.39115 204.35555 236.45975 205.7311 234.0772L220.67539 208.19306C222.05094 205.8105 222.05094 201.94771 220.67539 199.56517L205.7311 173.681C204.35555 171.29845 201.01027 169.36707 198.2591 169.36707H168.37079C165.6196 169.36707 162.27433 171.29845 160.89878 173.681Z"/>
<path transform="matrix(1,0,0,-1,81.694,433.656)" d="M156.91367 258.36454 141.96938 284.2487C140.59383 286.63124 140.59383 290.49403 141.96938 292.8766L156.91367 318.76075C158.28922 321.14329 161.63449 323.07469 164.38568 323.07469H194.27399C197.02516 323.07469 200.37044 321.14329 201.74599 318.76075L216.69028 292.8766C218.06583 290.49403 218.06583 286.63124 216.69028 284.2487L201.74599 258.36454C200.37044 255.98198 197.02516 254.0506 194.27399 254.0506H164.38568C161.63449 254.0506 158.28922 255.98198 156.91367 258.36454Z" fill="#54ac68"/>
<path transform="matrix(1,0,0,-1,81.694,433.656)" stroke-width="1.99255" stroke-linecap="butt" stroke-miterlimit="10" stroke-linejoin="miter" fill="none" stroke="#000000" d="M156.91367 258.36454 141.96938 284.2487C140.59383 286.63124 140.59383 290.49403 141.96938 292.8766L156.91367 318.76075C158.28922 321.14329 161.63449 323.07469 164.38568 323.07469H194.27399C197.02516 323.07469 200.37044 321.14329 201.74599 318.76075L216.69028 292.8766C218.06583 290.49403 218.06583 286.63124 216.69028 284.2487L201.74599 258.36454C200.37044 255.98198 197.02516 254.0506 194.27399 254.0506H164.38568C161.63449 254.0506 158.28922 255.98198 156.91367 258.36454Z"/>
<path transform="matrix(1,0,0,-1,81.694,433.656)" d="M152.92856 343.04808 137.98427 368.93226C136.60872 371.31477 136.60872 375.17759 137.98427 377.56013L152.92856 403.44429C154.30411 405.8268 157.64939 407.7582 160.40058 407.7582H190.28888C193.04006 407.7582 196.38533 405.8268 197.76088 403.44429L212.70517 377.56013C214.08072 375.17759 214.08072 371.31477 212.70517 368.93226L197.76088 343.04808C196.38533 340.6655 193.04006 338.73414 190.28888 338.73414H160.40058C157.64939 338.73414 154.30411 340.6655 152.92856 343.04808Z" fill="#54ac68"/>
<path transform="matrix(1,0,0,-1,81.694,433.656)" stroke-width="1.99255" stroke-linecap="butt" stroke-miterlimit="10" stroke-linejoin="miter" fill="none" stroke="#000000" d="M152.92856 343.04808 137.98427 368.93226C136.60872 371.31477 136.60872 375.17759 137.98427 377.56013L152.92856 403.44429C154.30411 405.8268 157.64939 407.7582 160.40058 407.7582H190.28888C193.04006 407.7582 196.38533 405.8268 197.76088 403.44429L212.70517 377.56013C214.08072 375.17759 214.08072 371.31477 212.70517 368.93226L197.76088 343.04808C196.38533 340.6655 193.04006 338.73414 190.28888 338.73414H160.40058C157.64939 338.73414 154.30411 340.6655 152.92856 343.04808Z"/>
<path transform="matrix(1,0,0,-1,81.694,433.656)" d="M300.37754 4.31393 285.43324 30.1981C284.0577 32.58064 284.0577 36.44344 285.43324 38.82599L300.37754 64.71013C301.75309 67.09268 305.09837 69.02408 307.84956 69.02408H337.73786C340.48905 69.02408 343.8343 67.09268 345.20985 64.71013L360.15415 38.82599C361.5297 36.44344 361.5297 32.58064 360.15415 30.1981L345.20985 4.31393C343.8343 1.93138 340.48905 0 337.73786 0H307.84956C305.09837 0 301.75309 1.93138 300.37754 4.31393Z" fill="#54ac68"/>
<path transform="matrix(1,0,0,-1,81.694,433.656)" stroke-width="1.99255" stroke-linecap="butt" stroke-miterlimit="10" stroke-linejoin="miter" fill="none" stroke="#000000" d="M300.37754 4.31393 285.43324 30.1981C284.0577 32.58064 284.0577 36.44344 285.43324 38.82599L300.37754 64.71013C301.75309 67.09268 305.09837 69.02408 307.84956 69.02408H337.73786C340.48905 69.02408 343.8343 67.09268 345.20985 64.71013L360.15415 38.82599C361.5297 36.44344 361.5297 32.58064 360.15415 30.1981L345.20985 4.31393C343.8343 1.93138 340.48905 0 337.73786 0H307.84956C305.09837 0 301.75309 1.93138 300.37754 4.31393Z"/>
<path transform="matrix(1,0,0,-1,81.694,433.656)" d="M296.39244 88.99747 281.44816 114.88164C280.0726 117.26418 280.0726 121.12697 281.44816 123.50952L296.39244 149.39366C297.76799 151.77622 301.11326 153.70761 303.86445 153.70761H333.75276C336.5039 153.70761 339.8492 151.77622 341.22477 149.39366L356.16905 123.50952C357.5446 121.12697 357.5446 117.26418 356.16905 114.88164L341.22477 88.99747C339.8492 86.61491 336.5039 84.68353 333.75276 84.68353H303.86445C301.11326 84.68353 297.76799 86.61491 296.39244 88.99747Z" fill="#54ac68"/>
<path transform="matrix(1,0,0,-1,81.694,433.656)" stroke-width="1.99255" stroke-linecap="butt" stroke-miterlimit="10" stroke-linejoin="miter" fill="none" stroke="#000000" d="M296.39244 88.99747 281.44816 114.88164C280.0726 117.26418 280.0726 121.12697 281.44816 123.50952L296.39244 149.39366C297.76799 151.77622 301.11326 153.70761 303.86445 153.70761H333.75276C336.5039 153.70761 339.8492 151.77622 341.22477 149.39366L356.16905 123.50952C357.5446 121.12697 357.5446 117.26418 356.16905 114.88164L341.22477 88.99747C339.8492 86.61491 336.5039 84.68353 333.75276 84.68353H303.86445C301.11326 84.68353 297.76799 86.61491 296.39244 88.99747Z"/>
<path transform="matrix(1,0,0,-1,81.694,433.656)" d="M292.40733 173.681 277.46305 199.56517C276.0875 201.94771 276.0875 205.8105 277.46305 208.19306L292.40733 234.0772C293.78288 236.45975 297.12815 238.39115 299.87934 238.39115H329.76765C332.5188 238.39115 335.8641 236.45975 337.23966 234.0772L352.18394 208.19306C353.55949 205.8105 353.55949 201.94771 352.18394 199.56517L337.23966 173.681C335.8641 171.29845 332.5188 169.36707 329.76765 169.36707H299.87934C297.12815 169.36707 293.78288 171.29845 292.40733 173.681Z" fill="#54ac68"/>
<path transform="matrix(1,0,0,-1,81.694,433.656)" stroke-width="1.99255" stroke-linecap="butt" stroke-miterlimit="10" stroke-linejoin="miter" fill="none" stroke="#000000" d="M292.40733 173.681 277.46305 199.56517C276.0875 201.94771 276.0875 205.8105 277.46305 208.19306L292.40733 234.0772C293.78288 236.45975 297.12815 238.39115 299.87934 238.39115H329.76765C332.5188 238.39115 335.8641 236.45975 337.23966 234.0772L352.18394 208.19306C353.55949 205.8105 353.55949 201.94771 352.18394 199.56517L337.23966 173.681C335.8641 171.29845 332.5188 169.36707 329.76765 169.36707H299.87934C297.12815 169.36707 293.78288 171.29845 292.40733 173.681Z"/>
<path transform="matrix(1,0,0,-1,81.694,433.656)" d="M288.4222 258.36454 273.4779 284.2487C272.10237 286.63124 272.10237 290.49403 273.4779 292.8766L288.4222 318.76075C289.79777 321.14329 293.14305 323.07469 295.89424 323.07469H325.78254C328.5337 323.07469 331.87898 321.14329 333.25453 318.76075L348.19883 292.8766C349.57438 290.49403 349.57438 286.63124 348.19883 284.2487L333.25453 258.36454C331.87898 255.98198 328.5337 254.0506 325.78254 254.0506H295.89424C293.14305 254.0506 289.79777 255.98198 288.4222 258.36454Z" fill="#54ac68"/>
<path transform="matrix(1,0,0,-1,81.694,433.656)" stroke-width="1.99255" stroke-linecap="butt" stroke-miterlimit="10" stroke-linejoin="miter" fill="none" stroke="#000000" d="M288.4222 258.36454 273.4779 284.2487C272.10237 286.63124 272.10237 290.49403 273.4779 292.8766L288.4222 318.76075C289.79777 321.14329 293.14305 323.07469 295.89424 323.07469H325.78254C328.5337 323.07469 331.87898 321.14329 333.25453 318.76075L348.19883 292.8766C349.57438 290.49403 349.57438 286.63124 348.19883 284.2487L333.25453 258.36454C331.87898 255.98198 328.5337 254.0506 325.78254 254.0506H295.89424C293.14305 254.0506 289.79777 255.98198 288.4222 258.36454Z"/>
<path transform="matrix(1,0,0,-1,81.694,433.656)" d="M284.4371 343.04808 269.4928 368.93226C268.11726 371.31477 268.11726 375.17759 269.4928 377.56013L284.4371 403.44429C285.81266 405.8268 289.15794 407.7582 291.90913 407.7582H321.79743C324.5486 407.7582 327.8939 405.8268 329.2694 403.44429L344.2137 377.56013C345.58927 375.17759 345.58927 371.31477 344.2137 368.93226L329.2694 343.04808C327.8939 340.6655 324.5486 338.73414 321.79743 338.73414H291.90913C289.15794 338.73414 285.81266 340.6655 284.4371 343.04808Z" fill="#54ac68"/>
<path transform="matrix(1,0,0,-1,81.694,433.656)" stroke-width="1.99255" stroke-linecap="butt" stroke-miterlimit="10" stroke-linejoin="miter" fill="none" stroke="#000000" d="M284.4371 343.04808 269.4928 368.93226C268.11726 371.31477 268.11726 375.17759 269.4928 377.56013L284.4371 403.44429C285.81266 405.8268 289.15794 407.7582 291.90913 407.7582H321.79743C324.5486 407.7582 327.8939 405.8268 329.2694 403.44429L344.2137 377.56013C345.58927 375.17759 345.58927 371.31477 344.2137 368.93226L329.2694 343.04808C327.8939 340.6655 324.5486 338.73414 321.79743 338.73414H291.90913C289.15794 338.73414 285.81266 340.6655 284.4371 343.04808Z"/>
<path transform="matrix(1,0,0,-1,81.694,433.656)" d="M431.88609 4.31393 416.9418 30.1981C415.56626 32.58064 415.56626 36.44344 416.9418 38.82599L431.88609 64.71013C433.26164 67.09268 436.6069 69.02408 439.3581 69.02408H469.2464C471.99757 69.02408 475.34288 67.09268 476.7184 64.71013L491.6627 38.82599C493.03825 36.44344 493.03825 32.58064 491.6627 30.1981L476.7184 4.31393C475.34288 1.93138 471.99757 0 469.2464 0H439.3581C436.6069 0 433.26164 1.93138 431.88609 4.31393Z" fill="#54ac68"/>
<path transform="matrix(1,0,0,-1,81.694,433.656)" stroke-width="1.99255" stroke-linecap="butt" stroke-miterlimit="10" stroke-linejoin="miter" fill="none" stroke="#000000" d="M431.88609 4.31393 416.9418 30.1981C415.56626 32.58064 415.56626 36.44344 416.9418 38.82599L431.88609 64.71013C433.26164 67.09268 436.6069 69.02408 439.3581 69.02408H469.2464C471.99757 69.02408 475.34288 67.09268 476.7184 64.71013L491.6627 38.82599C493.03825 36.44344 493.03825 32.58064 491.6627 30.1981L476.7184 4.31393C475.34288 1.93138 471.99757 0 469.2464 0H439.3581C436.6069 0 433.26164 1.93138 431.88609 4.31393Z"/>
<path transform="matrix(1,0,0,-1,81.694,433.656)" d="M427.90098 88.99747 412.95668 114.88164C411.58113 117.26418 411.58113 121.12697 412.95668 123.50952L427.90098 149.39366C429.27653 151.77622 432.6218 153.70761 435.373 153.70761H465.2613C468.01249 153.70761 471.35774 151.77622 472.73329 149.39366L487.67759 123.50952C489.05314 121.12697 489.05314 117.26418 487.67759 114.88164L472.73329 88.99747C471.35774 86.61491 468.01249 84.68353 465.2613 84.68353H435.373C432.6218 84.68353 429.27653 86.61491 427.90098 88.99747Z" fill="#54ac68"/>
<path transform="matrix(1,0,0,-1,81.694,433.656)" stroke-width="1.99255" stroke-linecap="butt" stroke-miterlimit="10" stroke-linejoin="miter" fill="none" stroke="#000000" d="M427.90098 88.99747 412.95668 114.88164C411.58113 117.26418 411.58113 121.12697 412.95668 123.50952L427.90098 149.39366C429.27653 151.77622 432.6218 153.70761 435.373 153.70761H465.2613C468.01249 153.70761 471.35774 151.77622 472.73329 149.39366L487.67759 123.50952C489.05314 121.12697 489.05314 117.26418 487.67759 114.88164L472.73329 88.99747C471.35774 86.61491 468.01249 84.68353 465.2613 84.68353H435.373C432.6218 84.68353 429.27653 86.61491 427.90098 88.99747Z"/>
<path transform="matrix(1,0,0,-1,81.694,433.656)" d="M423.91587 173.681 408.97157 199.56517C407.596 201.94771 407.596 205.8105 408.97157 208.19306L423.91587 234.0772C425.2914 236.45975 428.6367 238.39115 431.38789 238.39115H461.27619C464.02738 238.39115 467.37263 236.45975 468.74818 234.0772L483.69248 208.19306C485.06803 205.8105 485.06803 201.94771 483.69248 199.56517L468.74818 173.681C467.37263 171.29845 464.02738 169.36707 461.27619 169.36707H431.38789C428.6367 169.36707 425.2914 171.29845 423.91587 173.681Z" fill="#54ac68"/>
<path transform="matrix(1,0,0,-1,81.694,433.656)" stroke-width="1.99255" stroke-linecap="butt" stroke-miterlimit="10" stroke-linejoin="miter" fill="none" stroke="#000000" d="M423.91587 173.681 408.97157 199.56517C407.596 201.94771 407.596 205.8105 408.97157 208.19306L423.91587 234.0772C425.2914 236.45975 428.6367 238.39115 431.38789 238.39115H461.27619C464.02738 238.39115 467.37263 236.45975 468.74818 234.0772L483.69248 208.19306C485.06803 205.8105 485.06803 201.94771 483.69248 199.56517L468.74818 173.681C467.37263 171.29845 464.02738 169.36707 461.27619 169.36707H431.38789C428.6367 169.36707 425.2914 171.29845 423.91587 173.681Z"/>
<path transform="matrix(1,0,0,-1,81.694,433.656)" d="M419.93077 258.36454 404.98649 284.2487C403.61094 286.63124 403.61094 290.49403 404.98649 292.8766L419.93077 318.76075C421.3063 321.14329 424.65159 323.07469 427.40278 323.07469H457.29109C460.04225 323.07469 463.38755 321.14329 464.7631 318.76075L479.70738 292.8766C481.08293 290.49403 481.08293 286.63124 479.70738 284.2487L464.7631 258.36454C463.38755 255.98198 460.04225 254.0506 457.29109 254.0506H427.40278C424.65159 254.0506 421.3063 255.98198 419.93077 258.36454Z" fill="#54ac68"/>
<path transform="matrix(1,0,0,-1,81.694,433.656)" stroke-width="1.99255" stroke-linecap="butt" stroke-miterlimit="10" stroke-linejoin="miter" fill="none" stroke="#000000" d="M419.93077 258.36454 404.98649 284.2487C403.61094 286.63124 403.61094 290.49403 404.98649 292.8766L419.93077 318.76075C421.3063 321.14329 424.65159 323.07469 427.40278 323.07469H457.29109C460.04225 323.07469 463.38755 321.14329 464.7631 318.76075L479.70738 292.8766C481.08293 290.49403 481.08293 286.63124 479.70738 284.2487L464.7631 258.36454C463.38755 255.98198 460.04225 254.0506 457.29109 254.0506H427.40278C424.65159 254.0506 421.3063 255.98198 419.93077 258.36454Z"/>
<path transform="matrix(1,0,0,-1,81.694,433.656)" d="M415.94566 343.04808 401.00138 368.93226C399.62583 371.31477 399.62583 375.17759 401.00138 377.56013L415.94566 403.44429C417.3212 405.8268 420.66648 407.7582 423.41767 407.7582H453.30598C456.05714 407.7582 459.4024 405.8268 460.77799 403.44429L475.72227 377.56013C477.0978 375.17759 477.0978 371.31477 475.72227 368.93226L460.77799 343.04808C459.4024 340.6655 456.05714 338.73414 453.30598 338.73414H423.41767C420.66648 338.73414 417.3212 340.6655 415.94566 343.04808Z" fill="#54ac68"/>
<path transform="matrix(1,0,0,-1,81.694,433.656)" stroke-width="1.99255" stroke-linecap="butt" stroke-miterlimit="10" stroke-linejoin="miter" fill="none" stroke="#000000" d="M415.94566 343.04808 401.00138 368.93226C399.62583 371.31477 399.62583 375.17759 401.00138 377.56013L415.94566 403.44429C417.3212 405.8268 420.66648 407.7582 423.41767 407.7582H453.30598C456.05714 407.7582 459.4024 405.8268 460.77799 403.44429L475.72227 377.56013C477.0978 375.17759 477.0978 371.31477 475.72227 368.93226L460.77799 343.04808C459.4024 340.6655 456.05714 338.73414 453.30598 338.73414H423.41767C420.66648 338.73414 417.3212 340.6655 415.94566 343.04808Z"/>
</svg>
