<svg xmlns="http://www.w3.org/2000/svg" xmlns:xlink="http://www.w3.org/1999/xlink" xmlns:inkscape="http://www.inkscape.org/namespaces/inkscape" version="1.1" width="852.8" height="185.31" viewBox="0 0 852.8 185.31">
<path transform="matrix(1,0,0,-1,77.709,62.769998)" d="M164.38568-14.94415 149.44153 0 134.49738-14.94415 149.44153-29.8883Z" fill="#feb308"/>
<path transform="matrix(1,0,0,-1,77.709,62.769998)" stroke-width="5.97766" stroke-linecap="butt" stroke-miterlimit="10" stroke-linejoin="miter" fill="none" stroke="#feb308" d="M164.38568-14.94415 149.44153 0 134.49738-14.94415 149.44153-29.8883Z"/>
<path transform="matrix(1,0,0,-1,77.709,62.769998)" d="M363.64106-14.94415 348.6969 0 333.75276-14.94415 348.6969-29.8883Z" fill="#feb308"/>
<path transform="matrix(1,0,0,-1,77.709,62.769998)" stroke-width="5.97766" stroke-linecap="butt" stroke-miterlimit="10" stroke-linejoin="miter" fill="none" stroke="#feb308" d="M363.64106-14.94415 348.6969 0 333.75276-14.94415 348.6969-29.8883Z"/>
<path transform="matrix(1,0,0,-1,77.709,62.769998)" d="M562.8964-14.94415 547.9523 0 533.0081-14.94415 547.9523-29.8883Z" fill="#feb308"/>
<path transform="matrix(1,0,0,-1,77.709,62.769998)" stroke-width="5.97766" stroke-linecap="butt" stroke-miterlimit="10" stroke-linejoin="miter" fill="none" stroke="#feb308" d="M562.8964-14.94415 547.9523 0 533.0081-14.94415 547.9523-29.8883Z"/>
<path transform="matrix(1,0,0,-1,77.709,62.769998)" d="M64.758-44.83246 49.81384-29.8883 34.86969-44.83246 49.81384-59.77661Z" fill="#feb308"/>
<path transform="matrix(1,0,0,-1,77.709,62.769998)" stroke-width="5.97766" stroke-linecap="butt" stroke-miterlimit="10" stroke-linejoin="miter" fill="none" stroke="#feb308" d="M64.758-44.83246 49.81384-29.8883 34.86969-44.83246 49.81384-59.77661Z"/>
<path transform="matrix(1,0,0,-1,77.709,62.769998)" d="M264.01338-44.83246 249.06922-29.8883 234.12506-44.83246 249.06922-59.77661Z" fill="#feb308"/>
<path transform="matrix(1,0,0,-1,77.709,62.769998)" stroke-width="5.97766" stroke-linecap="butt" stroke-miterlimit="10" stroke-linejoin="miter" fill="none" stroke="#feb308" d="M264.01338-44.83246 249.06922-29.8883 234.12506-44.83246 249.06922-59.77661Z"/>
<path transform="matrix(1,0,0,-1,77.709,62.769998)" d="M463.26875-44.83246 448.3246-29.8883 433.38044-44.83246 448.3246-59.77661Z" fill="#feb308"/>
<path transform="matrix(1,0,0,-1,77.709,62.769998)" stroke-width="5.97766" stroke-linecap="butt" stroke-miterlimit="10" stroke-linejoin="miter" fill="none" stroke="#feb308" d="M463.26875-44.83246 448.3246-29.8883 433.38044-44.83246 448.3246-59.77661Z"/>
<path transform="matrix(1,0,0,-1,77.709,62.769998)" d="M662.5241-44.83246 647.57998-29.8883 632.6358-44.83246 647.57998-59.77661Z" fill="#feb308"/>
<path transform="matrix(1,0,0,-1,77.709,62.769998)" stroke-width="5.97766" stroke-linecap="butt" stroke-miterlimit="10" stroke-linejoin="miter" fill="none" stroke="#feb308" d="M662.5241-44.83246 647.57998-29.8883 632.6358-44.83246 647.57998-59.77661Z"/>
<path transform="matrix(1,0,0,-1,77.709,62.769998)" stroke-width="5.97766" stroke-linecap="butt" stroke-miterlimit="10" stroke-linejoin="miter" fill="none" stroke="#feb308" d="M747.20767-49.81384 712.33798-14.94415 737.2449 9.96277V34.86969H717.31936V19.92554L697.3938 0 677.46829 19.92554V34.86969H657.5427V9.96277L737.2449-69.73938V-94.6463H717.31936V-79.70215L697.3938-59.77661 677.46829-79.70215V-94.6463H657.5427V-69.73938L682.44967-44.83246 647.57998-9.96277 612.71029-44.83246 637.6172-69.73938V-94.6463H617.69168V-79.70215L597.7661-59.77661 577.8406-79.70215V-94.6463H557.91506V-69.73938L637.6172 9.96277V34.86969H617.69168V19.92554L597.7661 0 577.8406 19.92554V34.86969H557.91506V9.96277L582.82199-14.94415 547.9523-49.81384 513.0826-14.94415 537.9895 9.96277V34.86969H518.06399V19.92554L498.13844 0 478.2129 19.92554V34.86969H458.28736V9.96277L537.9895-69.73938V-94.6463H518.06399V-79.70215L498.13844-59.77661 478.2129-79.70215V-94.6463H458.28736V-69.73938L483.19429-44.83246 448.3246-9.96277 413.4549-44.83246 438.36183-69.73938V-94.6463H418.43629V-79.70215L398.51075-59.77661 378.5852-79.70215V-94.6463H358.65968V-69.73938L438.36183 9.96277V34.86969H418.43629V19.92554L398.51075 0 378.5852 19.92554V34.86969H358.65968V9.96277L383.5666-14.94415 348.6969-49.81384 313.8272-14.94415 338.73414 9.96277V34.86969H318.8086V19.92554L298.88307 0 278.95753 19.92554V34.86969H259.03199V9.96277L338.73414-69.73938V-94.6463H318.8086V-79.70215L298.88307-59.77661 278.95753-79.70215V-94.6463H259.03199V-69.73938L283.9389-44.83246 249.06922-9.96277 214.19953-44.83246 239.10645-69.73938V-94.6463H219.18091V-79.70215L199.25537-59.77661 179.32984-79.70215V-94.6463H159.4043V-69.73938L239.10645 9.96277V34.86969H219.18091V19.92554L199.25537 0 179.32984 19.92554V34.86969H159.4043V9.96277L184.31122-14.94415 149.44153-49.81384 114.57184-14.94415 139.47876 9.96277V34.86969H119.55322V19.92554L99.62769 0 79.70215 19.92554V34.86969H59.77661V9.96277L139.47876-69.73938V-94.6463H119.55322V-79.70215L99.62769-59.77661 79.70215-79.70215V-94.6463H59.77661V-69.73938L84.68353-44.83246 49.81384-9.96277 14.94415-44.83246 39.85107-69.73938V-94.6463H19.92554V-79.70215L0-59.77661-19.92554-79.70215V-94.6463H-39.85107V-69.73938L39.85107 9.96277V34.86969H19.92554V19.92554L0 0-19.92554 19.92554V34.86969H-39.85107V9.96277L-14.94415-14.94415-49.81384-49.81384"/>
<path transform="matrix(1,0,0,-1,77.709,62.769998)" stroke-width="5.97766" stroke-linecap="butt" stroke-miterlimit="10" stroke-linejoin="miter" fill="none" stroke="#feb308" d="M747.20767 0 732.2635-14.94415 747.20767-29.8883"/>
<path transform="matrix(1,0,0,-1,77.709,62.769998)" stroke-width="5.97766" stroke-linecap="butt" stroke-miterlimit="10" stroke-linejoin="miter" fill="none" stroke="#feb308" d="M-49.81384-29.8883-34.86969-14.94415-49.81384 0"/>
</svg>
