<svg xmlns="http://www.w3.org/2000/svg" xmlns:xlink="http://www.w3.org/1999/xlink" xmlns:inkscape="http://www.inkscape.org/namespaces/inkscape" version="1.1" width="36.96" height="57.88" viewBox="0 0 36.96 57.88">
<path transform="matrix(1,0,0,-1,16.986,22.961003)" d="M-.29887 0H-11.65643C-11.82149 0-11.95532 .13382-11.95532 .29887V17.6341C-11.95532 17.79915-11.82149 17.93298-11.65643 17.93298H2.68994C2.855 17.93298 2.98883 17.79915 2.98883 17.6341V6.27654C2.98883 6.11148 2.855 5.97766 2.68994 5.97766H-5.67877C-5.84383 5.97766-5.97766 6.11148-5.97766 6.27654V11.65643C-5.97766 11.82149-5.84383 11.95532-5.67877 11.95532H-3.2877C-3.12265 11.95532-2.98883 11.82149-2.98883 11.65643V9.26537C-2.98883 9.10031-2.855 8.96649-2.68994 8.96649H-.29887C-.13382 8.96649 0 9.10031 0 9.26537V14.64526C0 14.81032-.13382 14.94415-.29887 14.94415H-8.6676C-8.83266 14.94415-8.96649 14.81032-8.96649 14.64526V3.2877C-8.96649 3.12265-8.83266 2.98883-8.6676 2.98883H14.64526C14.81032 2.98883 14.94415 2.855 14.94415 2.68994V-29.58942C14.94415-29.75447 14.81032-29.8883 14.64526-29.8883H.29887C.13382-29.8883 0-29.75447 0-29.58942V-18.23186C0-18.0668 .13382-17.93298 .29887-17.93298H8.6676C8.83266-17.93298 8.96649-18.0668 8.96649-18.23186V-23.61176C8.96649-23.77681 8.83266-23.91064 8.6676-23.91064H6.27654C6.11148-23.91064 5.97766-23.77681 5.97766-23.61176V-21.22069C5.97766-21.05563 5.84383-20.92181 5.67877-20.92181H3.2877C3.12265-20.92181 2.98883-21.05563 2.98883-21.22069V-26.60059C2.98883-26.76564 3.12265-26.89948 3.2877-26.89948H11.65643C11.82149-26.89948 11.95532-26.76564 11.95532-26.60059V-15.24303C11.95532-15.07797 11.82149-14.94415 11.65643-14.94415H-11.65643C-11.82149-14.94415-11.95532-14.81032-11.95532-14.64526V-3.2877C-11.95532-3.12265-11.82149-2.98883-11.65643-2.98883H-3.2877C-3.12265-2.98883-2.98883-3.12265-2.98883-3.2877V-8.6676C-2.98883-8.83266-3.12265-8.96649-3.2877-8.96649H-5.67877C-5.84383-8.96649-5.97766-8.83266-5.97766-8.6676V-6.27654C-5.97766-6.11148-6.11148-5.97766-6.27654-5.97766H-8.6676C-8.83266-5.97766-8.96649-6.11148-8.96649-6.27654V-11.65643C-8.96649-11.82149-8.83266-11.95532-8.6676-11.95532H-.29887C-.13382-11.95532 0-11.82149 0-11.65643V-.29887C0-.13382-.13382 0-.29887 0Z"/>
<path transform="matrix(1,0,0,-1,16.986,22.961003)" stroke-width=".09962" stroke-linecap="butt" stroke-miterlimit="10" stroke-linejoin="miter" fill="none" stroke="#000000" d="M-.29887 0H-11.65643C-11.82149 0-11.95532 .13382-11.95532 .29887V17.6341C-11.95532 17.79915-11.82149 17.93298-11.65643 17.93298H2.68994C2.855 17.93298 2.98883 17.79915 2.98883 17.6341V6.27654C2.98883 6.11148 2.855 5.97766 2.68994 5.97766H-5.67877C-5.84383 5.97766-5.97766 6.11148-5.97766 6.27654V11.65643C-5.97766 11.82149-5.84383 11.95532-5.67877 11.95532H-3.2877C-3.12265 11.95532-2.98883 11.82149-2.98883 11.65643V9.26537C-2.98883 9.10031-2.855 8.96649-2.68994 8.96649H-.29887C-.13382 8.96649 0 9.10031 0 9.26537V14.64526C0 14.81032-.13382 14.94415-.29887 14.94415H-8.6676C-8.83266 14.94415-8.96649 14.81032-8.96649 14.64526V3.2877C-8.96649 3.12265-8.83266 2.98883-8.6676 2.98883H14.64526C14.81032 2.98883 14.94415 2.855 14.94415 2.68994V-29.58942C14.94415-29.75447 14.81032-29.8883 14.64526-29.8883H.29887C.13382-29.8883 0-29.75447 0-29.58942V-18.23186C0-18.0668 .13382-17.93298 .29887-17.93298H8.6676C8.83266-17.93298 8.96649-18.0668 8.96649-18.23186V-23.61176C8.96649-23.77681 8.83266-23.91064 8.6676-23.91064H6.27654C6.11148-23.91064 5.97766-23.77681 5.97766-23.61176V-21.22069C5.97766-21.05563 5.84383-20.92181 5.67877-20.92181H3.2877C3.12265-20.92181 2.98883-21.05563 2.98883-21.22069V-26.60059C2.98883-26.76564 3.12265-26.89948 3.2877-26.89948H11.65643C11.82149-26.89948 11.95532-26.76564 11.95532-26.60059V-15.24303C11.95532-15.07797 11.82149-14.94415 11.65643-14.94415H-11.65643C-11.82149-14.94415-11.95532-14.81032-11.95532-14.64526V-3.2877C-11.95532-3.12265-11.82149-2.98883-11.65643-2.98883H-3.2877C-3.12265-2.98883-2.98883-3.12265-2.98883-3.2877V-8.6676C-2.98883-8.83266-3.12265-8.96649-3.2877-8.96649H-5.67877C-5.84383-8.96649-5.97766-8.83266-5.97766-8.6676V-6.27654C-5.97766-6.11148-6.11148-5.97766-6.27654-5.97766H-8.6676C-8.83266-5.97766-8.96649-6.11148-8.96649-6.27654V-11.65643C-8.96649-11.82149-8.83266-11.95532-8.6676-11.95532H-.29887C-.13382-11.95532 0-11.82149 0-11.65643V-.29887C0-.13382-.13382 0-.29887 0Z"/>
<path transform="matrix(1,0,0,-1,16.986,22.961003)" d="M2.98883-.29887V-11.65643C2.98883-11.82149 3.12265-11.95532 3.2877-11.95532H11.65643C11.82149-11.95532 11.95532-11.82149 11.95532-11.65643V-9.26537C11.95532-9.10031 11.82149-8.96649 11.65643-8.96649H6.27654C6.11148-8.96649 5.97766-8.83266 5.97766-8.6676V-3.2877C5.97766-3.12265 6.11148-2.98883 6.27654-2.98883H8.6676C8.83266-2.98883 8.96649-3.12265 8.96649-3.2877V-5.67877C8.96649-5.84383 9.10031-5.97766 9.26537-5.97766H11.65643C11.82149-5.97766 11.95532-5.84383 11.95532-5.67877V-.29887C11.95532-.13382 11.82149 0 11.65643 0H3.2877C3.12265 0 2.98883-.13382 2.98883-.29887Z" fill="#ffffff"/>
<path transform="matrix(1,0,0,-1,16.986,22.961003)" stroke-width=".09962" stroke-linecap="butt" stroke-miterlimit="10" stroke-linejoin="miter" fill="none" stroke="#000000" d="M2.98883-.29887V-11.65643C2.98883-11.82149 3.12265-11.95532 3.2877-11.95532H11.65643C11.82149-11.95532 11.95532-11.82149 11.95532-11.65643V-9.26537C11.95532-9.10031 11.82149-8.96649 11.65643-8.96649H6.27654C6.11148-8.96649 5.97766-8.83266 5.97766-8.6676V-3.2877C5.97766-3.12265 6.11148-2.98883 6.27654-2.98883H8.6676C8.83266-2.98883 8.96649-3.12265 8.96649-3.2877V-5.67877C8.96649-5.84383 9.10031-5.97766 9.26537-5.97766H11.65643C11.82149-5.97766 11.95532-5.84383 11.95532-5.67877V-.29887C11.95532-.13382 11.82149 0 11.65643 0H3.2877C3.12265 0 2.98883-.13382 2.98883-.29887Z"/>
</svg>
