<svg xmlns="http://www.w3.org/2000/svg" xmlns:xlink="http://www.w3.org/1999/xlink" xmlns:inkscape="http://www.inkscape.org/namespaces/inkscape" version="1.1" width="192.56" height="171.36" viewBox="0 0 192.56 171.36">
<path transform="matrix(1,0,0,-1,47.902,145.45801)" stroke-width=".3985" stroke-linecap="butt" stroke-miterlimit="10" stroke-linejoin="miter" fill="none" stroke="#000000" d="M0 0H119.55322"/>
<path transform="matrix(1,0,0,-1,47.902,145.45801)" stroke-width="1.99255" stroke-linecap="butt" stroke-miterlimit="10" stroke-linejoin="miter" fill="none" stroke="#000000" d="M-6.81752 12.49629 112.08115 0"/>
<path transform="matrix(1,0,0,-1,47.902,145.45801)" stroke-width="1.99255" stroke-linecap="butt" stroke-miterlimit="10" stroke-linejoin="miter" fill="none" stroke="#000000" d="M-12.33191 24.85611 104.60907 0"/>
<path transform="matrix(1,0,0,-1,47.902,145.45801)" stroke-width="1.99255" stroke-linecap="butt" stroke-miterlimit="10" stroke-linejoin="miter" fill="none" stroke="#000000" d="M-16.5651 36.94392 97.137 0"/>
<path transform="matrix(1,0,0,-1,47.902,145.45801)" stroke-width="1.99255" stroke-linecap="butt" stroke-miterlimit="10" stroke-linejoin="miter" fill="none" stroke="#000000" d="M-19.55193 48.62627 89.66492 0"/>
<path transform="matrix(1,0,0,-1,47.902,145.45801)" stroke-width="1.99255" stroke-linecap="butt" stroke-miterlimit="10" stroke-linejoin="miter" fill="none" stroke="#000000" d="M-21.34323 59.77661 82.19284 0"/>
<path transform="matrix(1,0,0,-1,47.902,145.45801)" stroke-width="1.99255" stroke-linecap="butt" stroke-miterlimit="10" stroke-linejoin="miter" fill="none" stroke="#000000" d="M-21.99977 70.27138 74.72076 0"/>
<path transform="matrix(1,0,0,-1,47.902,145.45801)" stroke-width="1.99255" stroke-linecap="butt" stroke-miterlimit="10" stroke-linejoin="miter" fill="none" stroke="#000000" d="M-21.59628 79.99704 67.24869 0"/>
<path transform="matrix(1,0,0,-1,47.902,145.45801)" stroke-width="1.99255" stroke-linecap="butt" stroke-miterlimit="10" stroke-linejoin="miter" fill="none" stroke="#000000" d="M-20.22043 88.84497 59.77661 0"/>
<path transform="matrix(1,0,0,-1,47.902,145.45801)" stroke-width="1.99255" stroke-linecap="butt" stroke-miterlimit="10" stroke-linejoin="miter" fill="none" stroke="#000000" d="M-17.96684 96.72054 52.30453 0"/>
<path transform="matrix(1,0,0,-1,47.902,145.45801)" stroke-width="1.99255" stroke-linecap="butt" stroke-miterlimit="10" stroke-linejoin="miter" fill="none" stroke="#000000" d="M-14.94415 103.53607 44.83246 0"/>
<path transform="matrix(1,0,0,-1,47.902,145.45801)" stroke-width="1.99255" stroke-linecap="butt" stroke-miterlimit="10" stroke-linejoin="miter" fill="none" stroke="#000000" d="M-11.26588 109.21684 37.36038 0"/>
<path transform="matrix(1,0,0,-1,47.902,145.45801)" stroke-width="1.99255" stroke-linecap="butt" stroke-miterlimit="10" stroke-linejoin="miter" fill="none" stroke="#000000" d="M-7.05562 113.70209 29.8883 0"/>
<path transform="matrix(1,0,0,-1,47.902,145.45801)" stroke-width="1.99255" stroke-linecap="butt" stroke-miterlimit="10" stroke-linejoin="miter" fill="none" stroke="#000000" d="M-2.43988 116.94098 22.41623 0"/>
<path transform="matrix(1,0,0,-1,47.902,145.45801)" stroke-width="1.99255" stroke-linecap="butt" stroke-miterlimit="10" stroke-linejoin="miter" fill="none" stroke="#000000" d="M2.44785 118.89867 14.94415 0"/>
<path transform="matrix(1,0,0,-1,47.902,145.45801)" stroke-width="1.99255" stroke-linecap="butt" stroke-miterlimit="10" stroke-linejoin="miter" fill="none" stroke="#000000" d="M7.47208 119.55322V0"/>
<path transform="matrix(1,0,0,-1,47.902,145.45801)" stroke-width="1.99255" stroke-linecap="butt" stroke-miterlimit="10" stroke-linejoin="miter" fill="none" stroke="#000000" d="M12.49629 118.89867 0 0"/>
</svg>
