<svg xmlns="http://www.w3.org/2000/svg" xmlns:xlink="http://www.w3.org/1999/xlink" xmlns:inkscape="http://www.inkscape.org/namespaces/inkscape" version="1.1" width="331.6" height="331.6" viewBox="0 0 331.6 331.6">
<path transform="matrix(1,0,0,-1,165.79901,165.80002)" d="M-99.62769-99.62769H99.62769V99.62769H-99.62769Z" fill="#c65102"/>
<path transform="matrix(1,0,0,-1,165.79901,165.80002)" d="M0-140.89447 140.89447 0 0 140.89447-140.89447 0Z" fill="#c65102"/>
<path transform="matrix(1,0,0,-1,165.79901,165.80002)" d="M79.70215-33.11024 112.8124 0 79.70215 33.11024 46.59189 0Z" fill="#ffffff"/>
<path transform="matrix(1,0,0,-1,165.79901,165.80002)" d="M79.77089 32.94588V79.77089H32.94588V32.94588Z" fill="#ffffff"/>
<path transform="matrix(1,0,0,-1,165.79901,165.80002)" d="M33.11024 79.70215 0 112.8124-33.11024 79.70215 0 46.59189Z" fill="#ffffff"/>
<path transform="matrix(1,0,0,-1,165.79901,165.80002)" d="M-32.94588 79.77089H-79.77089V32.94588H-32.94588Z" fill="#ffffff"/>
<path transform="matrix(1,0,0,-1,165.79901,165.80002)" d="M-79.70215 33.11024-112.8124 0-79.70215-33.11024-46.59189 0Z" fill="#ffffff"/>
<path transform="matrix(1,0,0,-1,165.79901,165.80002)" d="M-79.77089-32.94588V-79.77089H-32.94588V-32.94588Z" fill="#ffffff"/>
<path transform="matrix(1,0,0,-1,165.79901,165.80002)" d="M-33.11024-79.70215 0-112.8124 33.11024-79.70215 0-46.59189Z" fill="#ffffff"/>
<path transform="matrix(1,0,0,-1,165.79901,165.80002)" d="M32.94588-79.77089H79.77089V-32.94588H32.94588Z" fill="#ffffff"/>
<path transform="matrix(1,0,0,-1,165.79901,165.80002)" d="M45.82874 0C45.82874 25.31084 25.31084 45.82874 0 45.82874-25.31084 45.82874-45.82874 25.31084-45.82874 0-45.82874-25.31084-25.31084-45.82874 0-45.82874 25.31084-45.82874 45.82874-25.31084 45.82874 0ZM0 0" fill="#ffffff"/>
<path transform="matrix(1,0,0,-1,165.79901,165.80002)" stroke-width=".3985" stroke-linecap="butt" stroke-miterlimit="10" stroke-linejoin="miter" fill="none" stroke="#000000" d="M45.82874 0C45.82874 25.31084 25.31084 45.82874 0 45.82874-25.31084 45.82874-45.82874 25.31084-45.82874 0-45.82874-25.31084-25.31084-45.82874 0-45.82874 25.31084-45.82874 45.82874-25.31084 45.82874 0ZM0 0"/>
</svg>
