<?xml version="1.0" encoding="UTF-8" standalone="no"?>
<svg
   width="226.73204pt"
   height="196.69144pt"
   version="1.1"
   id="svg46"
   xmlns="http://www.w3.org/2000/svg"
   xmlns:svg="http://www.w3.org/2000/svg">
  <defs
     id="defs46" />
  <polygon
     points="250,119.911 100,379.718 400,379.718 "
     style="fill:#ffffff;stroke:#e18282;stroke-width:1pt;stroke-opacity:1"
     id="polygon1"
     transform="translate(-98.845299,-118.57767)" />
  <polygon
     points="239.362,137.595 120.634,380.089 390.004,361.664 "
     style="fill:#ffffff;stroke:#e18282;stroke-width:1pt;stroke-opacity:1"
     id="polygon2"
     transform="translate(-98.845299,-118.57767)" />
  <polygon
     points="230.896,154.126 139.183,379.155 379.92,346.066 "
     style="fill:#ffffff;stroke:#e18282;stroke-width:1pt;stroke-opacity:1"
     id="polygon3"
     transform="translate(-98.845299,-118.57767)" />
  <polygon
     points="224.31,169.49 155.782,377.177 369.908,332.681 "
     style="fill:#ffffff;stroke:#e18282;stroke-width:1pt;stroke-opacity:1"
     id="polygon4"
     transform="translate(-98.845299,-118.57767)" />
  <polygon
     points="219.34,183.69 170.564,374.381 360.095,321.277 "
     style="fill:#ffffff;stroke:#e18282;stroke-width:1pt;stroke-opacity:1"
     id="polygon5"
     transform="translate(-98.845299,-118.57767)" />
  <polygon
     points="215.75,196.745 183.666,370.963 350.584,311.64 "
     style="fill:#ffffff;stroke:#e18282;stroke-width:1pt;stroke-opacity:1"
     id="polygon6"
     transform="translate(-98.845299,-118.57767)" />
  <polygon
     points="213.328,208.688 195.22,367.089 341.453,303.571 "
     style="fill:#ffffff;stroke:#e18282;stroke-width:1pt;stroke-opacity:1"
     id="polygon7"
     transform="translate(-98.845299,-118.57767)" />
  <polygon
     points="211.887,219.56 205.356,362.901 332.758,296.886 "
     style="fill:#ffffff;stroke:#e18282;stroke-width:1pt;stroke-opacity:1"
     id="polygon8"
     transform="translate(-98.845299,-118.57767)" />
  <polygon
     points="211.26,229.411 214.2,358.518 324.54,291.419 "
     style="fill:#ffffff;stroke:#e18282;stroke-width:1pt;stroke-opacity:1"
     id="polygon9"
     transform="translate(-98.845299,-118.57767)" />
  <polygon
     points="211.303,238.295 221.872,354.039 316.825,287.014 "
     style="fill:#ffffff;stroke:#e18282;stroke-width:1pt;stroke-opacity:1"
     id="polygon10"
     transform="translate(-98.845299,-118.57767)" />
  <polygon
     points="211.887,246.268 228.486,349.547 309.628,283.533 "
     style="fill:#ffffff;stroke:#e18282;stroke-width:1pt;stroke-opacity:1"
     id="polygon11"
     transform="translate(-98.845299,-118.57767)" />
  <polygon
     points="212.901,253.392 234.148,345.107 302.951,280.849 "
     style="fill:#ffffff;stroke:#e18282;stroke-width:1pt;stroke-opacity:1"
     id="polygon12"
     transform="translate(-98.845299,-118.57767)" />
  <polygon
     points="214.249,259.727 238.96,340.772 296.792,278.849 "
     style="fill:#ffffff;stroke:#e18282;stroke-width:1pt;stroke-opacity:1"
     id="polygon13"
     transform="translate(-98.845299,-118.57767)" />
  <polygon
     points="215.848,265.331 243.014,336.584 291.138,277.432 "
     style="fill:#ffffff;stroke:#e18282;stroke-width:1pt;stroke-opacity:1"
     id="polygon14"
     transform="translate(-98.845299,-118.57767)" />
  <polygon
     points="217.629,270.266 246.397,332.575 285.975,276.507 "
     style="fill:#ffffff;stroke:#e18282;stroke-width:1pt;stroke-opacity:1"
     id="polygon15"
     transform="translate(-98.845299,-118.57767)" />
  <polygon
     points="219.53,274.587 249.188,328.768 281.282,275.993 "
     style="fill:#ffffff;stroke:#e18282;stroke-width:1pt;stroke-opacity:1"
     id="polygon16"
     transform="translate(-98.845299,-118.57767)" />
  <polygon
     points="221.503,278.35 251.461,325.178 277.036,275.82 "
     style="fill:#ffffff;stroke:#e18282;stroke-width:1pt;stroke-opacity:1"
     id="polygon17"
     transform="translate(-98.845299,-118.57767)" />
  <polygon
     points="223.506,281.608 253.281,321.815 273.213,275.925 "
     style="fill:#ffffff;stroke:#e18282;stroke-width:1pt;stroke-opacity:1"
     id="polygon18"
     transform="translate(-98.845299,-118.57767)" />
  <polygon
     points="225.504,284.41 254.709,318.683 269.788,276.255 "
     style="fill:#ffffff;stroke:#e18282;stroke-width:1pt;stroke-opacity:1"
     id="polygon19"
     transform="translate(-98.845299,-118.57767)" />
  <polygon
     points="227.47,286.803 255.798,315.784 266.732,276.761 "
     style="fill:#ffffff;stroke:#e18282;stroke-width:1pt;stroke-opacity:1"
     id="polygon20"
     transform="translate(-98.845299,-118.57767)" />
  <polygon
     points="229.383,288.832 256.598,313.113 264.019,277.403 "
     style="fill:#ffffff;stroke:#e18282;stroke-width:1pt;stroke-opacity:1"
     id="polygon21"
     transform="translate(-98.845299,-118.57767)" />
  <polygon
     points="231.225,290.535 257.153,310.666 261.623,278.146 "
     style="fill:#ffffff;stroke:#e18282;stroke-width:1pt;stroke-opacity:1"
     id="polygon22"
     transform="translate(-98.845299,-118.57767)" />
  <polygon
     points="232.983,291.952 257.5,308.435 259.517,278.961 "
     style="fill:#ffffff;stroke:#e18282;stroke-width:1pt;stroke-opacity:1"
     id="polygon23"
     transform="translate(-98.845299,-118.57767)" />
  <polygon
     points="234.649,293.116 257.676,306.41 257.676,279.821 "
     style="fill:#ffffff;stroke:#e18282;stroke-width:1pt;stroke-opacity:1"
     id="polygon24"
     transform="translate(-98.845299,-118.57767)" />
  <polygon
     points="236.216,294.059 257.708,304.582 256.075,280.707 "
     style="fill:#ffffff;stroke:#e18282;stroke-width:1pt;stroke-opacity:1"
     id="polygon25"
     transform="translate(-98.845299,-118.57767)" />
  <polygon
     points="237.681,294.809 257.626,302.937 254.693,281.601 "
     style="fill:#ffffff;stroke:#e18282;stroke-width:1pt;stroke-opacity:1"
     id="polygon26"
     transform="translate(-98.845299,-118.57767)" />
  <polygon
     points="239.043,295.393 257.45,301.466 253.507,282.489 "
     style="fill:#ffffff;stroke:#e18282;stroke-width:1pt;stroke-opacity:1"
     id="polygon27"
     transform="translate(-98.845299,-118.57767)" />
  <polygon
     points="240.302,295.833 257.202,300.156 252.496,283.358 "
     style="fill:#ffffff;stroke:#e18282;stroke-width:1pt;stroke-opacity:1"
     id="polygon28"
     transform="translate(-98.845299,-118.57767)" />
  <polygon
     points="241.459,296.151 256.9,298.995 251.642,284.201 "
     style="fill:#ffffff;stroke:#e18282;stroke-width:1pt;stroke-opacity:1"
     id="polygon29"
     transform="translate(-98.845299,-118.57767)" />
  <polygon
     points="242.517,296.366 256.556,297.971 250.927,285.01 "
     style="fill:#ffffff;stroke:#e18282;stroke-width:1pt;stroke-opacity:1"
     id="polygon30"
     transform="translate(-98.845299,-118.57767)" />
  <polygon
     points="243.481,296.494 256.185,297.073 250.334,285.781 "
     style="fill:#ffffff;stroke:#e18282;stroke-width:1pt;stroke-opacity:1"
     id="polygon31"
     transform="translate(-98.845299,-118.57767)" />
  <polygon
     points="244.354,296.549 255.797,296.289 249.85,286.509 "
     style="fill:#ffffff;stroke:#e18282;stroke-width:1pt;stroke-opacity:1"
     id="polygon32"
     transform="translate(-98.845299,-118.57767)" />
  <polygon
     points="245.141,296.546 255.4,295.609 249.459,287.193 "
     style="fill:#ffffff;stroke:#e18282;stroke-width:1pt;stroke-opacity:1"
     id="polygon33"
     transform="translate(-98.845299,-118.57767)" />
  <polygon
     points="245.848,296.494 255.001,295.023 249.151,287.831 "
     style="fill:#ffffff;stroke:#e18282;stroke-width:1pt;stroke-opacity:1"
     id="polygon34"
     transform="translate(-98.845299,-118.57767)" />
  <polygon
     points="246.479,296.404 254.608,294.521 248.913,288.423 "
     style="fill:#ffffff;stroke:#e18282;stroke-width:1pt;stroke-opacity:1"
     id="polygon35"
     transform="translate(-98.845299,-118.57767)" />
  <polygon
     points="247.041,296.284 254.224,294.094 248.736,288.969 "
     style="fill:#ffffff;stroke:#e18282;stroke-width:1pt;stroke-opacity:1"
     id="polygon36"
     transform="translate(-98.845299,-118.57767)" />
  <polygon
     points="247.537,296.143 253.853,293.735 248.61,289.47 "
     style="fill:#ffffff;stroke:#e18282;stroke-width:1pt;stroke-opacity:1"
     id="polygon37"
     transform="translate(-98.845299,-118.57767)" />
  <polygon
     points="247.975,295.985 253.497,293.435 248.528,289.927 "
     style="fill:#ffffff;stroke:#e18282;stroke-width:1pt;stroke-opacity:1"
     id="polygon38"
     transform="translate(-98.845299,-118.57767)" />
  <polygon
     points="248.358,295.816 253.16,293.188 248.482,290.343 "
     style="fill:#ffffff;stroke:#e18282;stroke-width:1pt;stroke-opacity:1"
     id="polygon39"
     transform="translate(-98.845299,-118.57767)" />
  <polygon
     points="248.691,295.642 252.842,292.986 248.467,290.72 "
     style="fill:#ffffff;stroke:#e18282;stroke-width:1pt;stroke-opacity:1"
     id="polygon40"
     transform="translate(-98.845299,-118.57767)" />
  <polygon
     points="248.98,295.464 252.544,292.825 248.476,291.058 "
     style="fill:#ffffff;stroke:#e18282;stroke-width:1pt;stroke-opacity:1"
     id="polygon41"
     transform="translate(-98.845299,-118.57767)" />
  <polygon
     points="249.228,295.287 252.266,292.699 248.506,291.362 "
     style="fill:#ffffff;stroke:#e18282;stroke-width:1pt;stroke-opacity:1"
     id="polygon42"
     transform="translate(-98.845299,-118.57767)" />
  <polygon
     points="249.441,295.113 252.009,292.602 248.55,291.633 "
     style="fill:#ffffff;stroke:#e18282;stroke-width:1pt;stroke-opacity:1"
     id="polygon43"
     transform="translate(-98.845299,-118.57767)" />
  <polygon
     points="249.62,294.943 251.772,292.531 248.607,291.873 "
     style="fill:#ffffff;stroke:#e18282;stroke-width:1pt;stroke-opacity:1"
     id="polygon44"
     transform="translate(-98.845299,-118.57767)" />
  <polygon
     points="249.771,294.78 251.555,292.482 248.673,292.086 "
     style="fill:#ffffff;stroke:#e18282;stroke-width:1pt;stroke-opacity:1"
     id="polygon45"
     transform="translate(-98.845299,-118.57767)" />
  <polygon
     points="249.897,294.624 251.358,292.451 248.745,292.272 "
     style="fill:#ffffff;stroke:#e18282;stroke-width:1pt;stroke-opacity:1"
     id="polygon46"
     transform="translate(-98.845299,-118.57767)" />
</svg>
