<svg xmlns="http://www.w3.org/2000/svg" xmlns:xlink="http://www.w3.org/1999/xlink" xmlns:inkscape="http://www.inkscape.org/namespaces/inkscape" version="1.1" width="283.61" height="272.19" viewBox="0 0 283.61 272.19">
<path transform="matrix(1,0,0,-1,-1128.433,136.098)" d="M1287.0722 23.14948 1276.679 19.7731 1270.2529 28.61705 1263.827 19.7731 1253.4338 23.14948V12.22232L1243.0397 8.84494 1249.4657 0 1243.0397-8.84494 1253.4338-12.22232V-23.14948L1263.827-19.7731 1270.2529-28.61705 1276.679-19.7731 1287.0722-23.14948V-12.22232L1297.4663-8.84494 1291.0403 0 1297.4663 8.84494 1287.0722 12.22232Z" fill="#e1eecb"/>
<path transform="matrix(1,0,0,-1,-1128.433,136.098)" stroke-width=".3985" stroke-linecap="butt" stroke-miterlimit="10" stroke-linejoin="miter" fill="none" stroke="#000000" d="M1287.0722 23.14948 1276.679 19.7731 1270.2529 28.61705 1263.827 19.7731 1253.4338 23.14948V12.22232L1243.0397 8.84494 1249.4657 0 1243.0397-8.84494 1253.4338-12.22232V-23.14948L1263.827-19.7731 1270.2529-28.61705 1276.679-19.7731 1287.0722-23.14948V-12.22232L1297.4663-8.84494 1291.0403 0 1297.4663 8.84494 1287.0722 12.22232Z"/>
<path transform="matrix(1,0,0,-1,-1128.433,136.098)" d="M1287.0722 31.00612V51.76753L1274.8707 34.9733 1279.5333 28.55627Z" fill="#f2f6da"/>
<path transform="matrix(1,0,0,-1,-1128.433,136.098)" stroke-width=".3985" stroke-linecap="butt" stroke-miterlimit="10" stroke-linejoin="miter" fill="none" stroke="#000000" d="M1287.0722 31.00612V51.76753L1274.8707 34.9733 1279.5333 28.55627Z"/>
<path transform="matrix(1,0,0,-1,-1128.433,136.098)" d="M1274.8707-34.9733 1287.0722-51.76753V-31.00612L1279.5333-28.55627Z" fill="#f2f6da"/>
<path transform="matrix(1,0,0,-1,-1128.433,136.098)" stroke-width=".3985" stroke-linecap="butt" stroke-miterlimit="10" stroke-linejoin="miter" fill="none" stroke="#000000" d="M1274.8707-34.9733 1287.0722-51.76753V-31.00612L1279.5333-28.55627Z"/>
<path transform="matrix(1,0,0,-1,-1128.433,136.098)" d="M1245.9618 25.57741 1226.2235 31.99045 1238.422 15.2002 1245.9618 17.65103Z" fill="#f2f6da"/>
<path transform="matrix(1,0,0,-1,-1128.433,136.098)" stroke-width=".3985" stroke-linecap="butt" stroke-miterlimit="10" stroke-linejoin="miter" fill="none" stroke="#000000" d="M1245.9618 25.57741 1226.2235 31.99045 1238.422 15.2002 1245.9618 17.65103Z"/>
<path transform="matrix(1,0,0,-1,-1128.433,136.098)" d="M1304.9374-6.41602 1324.6776 0 1304.9374 6.41602 1300.2758 0Z" fill="#f2f6da"/>
<path transform="matrix(1,0,0,-1,-1128.433,136.098)" stroke-width=".3985" stroke-linecap="butt" stroke-miterlimit="10" stroke-linejoin="miter" fill="none" stroke="#000000" d="M1304.9374-6.41602 1324.6776 0 1304.9374 6.41602 1300.2758 0Z"/>
<path transform="matrix(1,0,0,-1,-1128.433,136.098)" d="M1238.422-15.2002 1226.2235-31.99045 1245.9618-25.57741V-17.65103Z" fill="#f2f6da"/>
<path transform="matrix(1,0,0,-1,-1128.433,136.098)" stroke-width=".3985" stroke-linecap="butt" stroke-miterlimit="10" stroke-linejoin="miter" fill="none" stroke="#000000" d="M1238.422-15.2002 1226.2235-31.99045 1245.9618-25.57741V-17.65103Z"/>
<path transform="matrix(1,0,0,-1,-1128.433,136.098)" d="M1253.4338 31.00612 1260.9727 28.55627 1265.6353 34.9733 1253.4338 51.76753Z" fill="#f2f6da"/>
<path transform="matrix(1,0,0,-1,-1128.433,136.098)" stroke-width=".3985" stroke-linecap="butt" stroke-miterlimit="10" stroke-linejoin="miter" fill="none" stroke="#000000" d="M1253.4338 31.00612 1260.9727 28.55627 1265.6353 34.9733 1253.4338 51.76753Z"/>
<path transform="matrix(1,0,0,-1,-1128.433,136.098)" d="M1302.084 15.2002 1314.2825 31.99045 1294.5452 25.57741V17.65103Z" fill="#f2f6da"/>
<path transform="matrix(1,0,0,-1,-1128.433,136.098)" stroke-width=".3985" stroke-linecap="butt" stroke-miterlimit="10" stroke-linejoin="miter" fill="none" stroke="#000000" d="M1302.084 15.2002 1314.2825 31.99045 1294.5452 25.57741V17.65103Z"/>
<path transform="matrix(1,0,0,-1,-1128.433,136.098)" d="M1302.084-15.2002 1294.5452-17.65103V-25.57741L1314.2825-31.99045Z" fill="#f2f6da"/>
<path transform="matrix(1,0,0,-1,-1128.433,136.098)" stroke-width=".3985" stroke-linecap="butt" stroke-miterlimit="10" stroke-linejoin="miter" fill="none" stroke="#000000" d="M1302.084-15.2002 1294.5452-17.65103V-25.57741L1314.2825-31.99045Z"/>
<path transform="matrix(1,0,0,-1,-1128.433,136.098)" d="M1253.4338-31.00612V-51.76753L1265.6353-34.9733 1260.9727-28.55627Z" fill="#f2f6da"/>
<path transform="matrix(1,0,0,-1,-1128.433,136.098)" stroke-width=".3985" stroke-linecap="butt" stroke-miterlimit="10" stroke-linejoin="miter" fill="none" stroke="#000000" d="M1253.4338-31.00612V-51.76753L1265.6353-34.9733 1260.9727-28.55627Z"/>
<path transform="matrix(1,0,0,-1,-1128.433,136.098)" d="M1235.5686-6.41602 1240.2302 0 1235.5686 6.41602 1215.8284 0Z" fill="#f2f6da"/>
<path transform="matrix(1,0,0,-1,-1128.433,136.098)" stroke-width=".3985" stroke-linecap="butt" stroke-miterlimit="10" stroke-linejoin="miter" fill="none" stroke="#000000" d="M1235.5686-6.41602 1240.2302 0 1235.5686 6.41602 1215.8284 0Z"/>
<path transform="matrix(1,0,0,-1,-1128.433,136.098)" d="M1245.9618 62.0521 1233.341 79.42218 1216.5238 73.9576 1206.1276 59.64908 1218.7515 42.27501 1245.9618 33.43405Z" fill="#f1d984"/>
<path transform="matrix(1,0,0,-1,-1128.433,136.098)" stroke-width=".3985" stroke-linecap="butt" stroke-miterlimit="10" stroke-linejoin="miter" fill="none" stroke="#000000" d="M1245.9618 62.0521 1233.341 79.42218 1216.5238 73.9576 1206.1276 59.64908 1218.7515 42.27501 1245.9618 33.43405Z"/>
<path transform="matrix(1,0,0,-1,-1128.433,136.098)" d="M1346.797 42.55496 1326.3722 35.91876 1309.555 12.77226 1336.7644 3.9283 1357.1901 10.56749V28.25043Z" fill="#f1d984"/>
<path transform="matrix(1,0,0,-1,-1128.433,136.098)" stroke-width=".3985" stroke-linecap="butt" stroke-miterlimit="10" stroke-linejoin="miter" fill="none" stroke="#000000" d="M1346.797 42.55496 1326.3722 35.91876 1309.555 12.77226 1336.7644 3.9283 1357.1901 10.56749V28.25043Z"/>
<path transform="matrix(1,0,0,-1,-1128.433,136.098)" d="M1326.3722-35.91876 1346.797-42.55496 1357.1901-28.25043V-10.56749L1336.7644-3.9283 1309.555-12.77226Z" fill="#f1d984"/>
<path transform="matrix(1,0,0,-1,-1128.433,136.098)" stroke-width=".3985" stroke-linecap="butt" stroke-miterlimit="10" stroke-linejoin="miter" fill="none" stroke="#000000" d="M1326.3722-35.91876 1346.797-42.55496 1357.1901-28.25043V-10.56749L1336.7644-3.9283 1309.555-12.77226Z"/>
<path transform="matrix(1,0,0,-1,-1128.433,136.098)" d="M1233.341-79.42218 1245.9618-62.0521V-33.43405L1218.7515-42.27501 1206.1276-59.64908 1216.5238-73.9576Z" fill="#f1d984"/>
<path transform="matrix(1,0,0,-1,-1128.433,136.098)" stroke-width=".3985" stroke-linecap="butt" stroke-miterlimit="10" stroke-linejoin="miter" fill="none" stroke="#000000" d="M1233.341-79.42218 1245.9618-62.0521V-33.43405L1218.7515-42.27501 1206.1276-59.64908 1216.5238-73.9576Z"/>
<path transform="matrix(1,0,0,-1,-1128.433,136.098)" d="M1203.7416-3.9283 1183.3159-10.56749V-28.25043L1193.709-42.55496 1214.1337-35.91876 1230.9508-12.77226Z" fill="#f1d984"/>
<path transform="matrix(1,0,0,-1,-1128.433,136.098)" stroke-width=".3985" stroke-linecap="butt" stroke-miterlimit="10" stroke-linejoin="miter" fill="none" stroke="#000000" d="M1203.7416-3.9283 1183.3159-10.56749V-28.25043L1193.709-42.55496 1214.1337-35.91876 1230.9508-12.77226Z"/>
<path transform="matrix(1,0,0,-1,-1128.433,136.098)" d="M1253.4338 85.94978V64.48003L1270.2529 41.32953 1287.0722 64.48003V85.94978L1270.2529 91.41437Z" fill="#f1d984"/>
<path transform="matrix(1,0,0,-1,-1128.433,136.098)" stroke-width=".3985" stroke-linecap="butt" stroke-miterlimit="10" stroke-linejoin="miter" fill="none" stroke="#000000" d="M1253.4338 85.94978V64.48003L1270.2529 41.32953 1287.0722 64.48003V85.94978L1270.2529 91.41437Z"/>
<path transform="matrix(1,0,0,-1,-1128.433,136.098)" d="M1321.7545 42.27501 1334.3783 59.64908 1323.9822 73.9576 1307.165 79.42218 1294.5442 62.0521 1294.5452 33.43405Z" fill="#f1d984"/>
<path transform="matrix(1,0,0,-1,-1128.433,136.098)" stroke-width=".3985" stroke-linecap="butt" stroke-miterlimit="10" stroke-linejoin="miter" fill="none" stroke="#000000" d="M1321.7545 42.27501 1334.3783 59.64908 1323.9822 73.9576 1307.165 79.42218 1294.5442 62.0521 1294.5452 33.43405Z"/>
<path transform="matrix(1,0,0,-1,-1128.433,136.098)" d="M1334.3783-59.64908 1321.7545-42.27501 1294.5452-33.43405 1294.5442-62.0521 1307.165-79.42218 1323.9822-73.9576Z" fill="#f1d984"/>
<path transform="matrix(1,0,0,-1,-1128.433,136.098)" stroke-width=".3985" stroke-linecap="butt" stroke-miterlimit="10" stroke-linejoin="miter" fill="none" stroke="#000000" d="M1334.3783-59.64908 1321.7545-42.27501 1294.5452-33.43405 1294.5442-62.0521 1307.165-79.42218 1323.9822-73.9576Z"/>
<path transform="matrix(1,0,0,-1,-1128.433,136.098)" d="M1253.4338-64.48003V-85.94978L1270.2529-91.41437 1287.0722-85.94978V-64.48003L1270.2529-41.32953Z" fill="#f1d984"/>
<path transform="matrix(1,0,0,-1,-1128.433,136.098)" stroke-width=".3985" stroke-linecap="butt" stroke-miterlimit="10" stroke-linejoin="miter" fill="none" stroke="#000000" d="M1253.4338-64.48003V-85.94978L1270.2529-91.41437 1287.0722-85.94978V-64.48003L1270.2529-41.32953Z"/>
<path transform="matrix(1,0,0,-1,-1128.433,136.098)" d="M1183.3159 10.56749 1203.7416 3.9283 1230.9508 12.77226 1214.1337 35.91876 1193.709 42.55496 1183.3159 28.25043Z" fill="#f1d984"/>
<path transform="matrix(1,0,0,-1,-1128.433,136.098)" stroke-width=".3985" stroke-linecap="butt" stroke-miterlimit="10" stroke-linejoin="miter" fill="none" stroke="#000000" d="M1183.3159 10.56749 1203.7416 3.9283 1230.9508 12.77226 1214.1337 35.91876 1193.709 42.55496 1183.3159 28.25043Z"/>
<path transform="matrix(1,0,0,-1,-1128.433,136.098)" d="M1245.9618 74.7646V91.3775L1258.1632 95.3427 1237.0471 102.20505 1223.9959 84.24219 1236.1953 88.20636Z" fill="#fff78c"/>
<path transform="matrix(1,0,0,-1,-1128.433,136.098)" stroke-width=".3985" stroke-linecap="butt" stroke-miterlimit="10" stroke-linejoin="miter" fill="none" stroke="#000000" d="M1245.9618 74.7646V91.3775L1258.1632 95.3427 1237.0471 102.20505 1223.9959 84.24219 1236.1953 88.20636Z"/>
<path transform="matrix(1,0,0,-1,-1128.433,136.098)" d="M1357.1901 40.96191V63.16693L1336.073 70.02928 1343.6138 59.65007 1333.8444 46.20334 1349.6513 51.33914Z" fill="#fff78c"/>
<path transform="matrix(1,0,0,-1,-1128.433,136.098)" stroke-width=".3985" stroke-linecap="butt" stroke-miterlimit="10" stroke-linejoin="miter" fill="none" stroke="#000000" d="M1357.1901 40.96191V63.16693L1336.073 70.02928 1343.6138 59.65007 1333.8444 46.20334 1349.6513 51.33914Z"/>
<path transform="matrix(1,0,0,-1,-1128.433,136.098)" d="M1333.8444-46.20334 1343.6138-59.65007 1336.073-70.02928 1357.1901-63.16693V-40.96191L1349.6513-51.33914Z" fill="#fff78c"/>
<path transform="matrix(1,0,0,-1,-1128.433,136.098)" stroke-width=".3985" stroke-linecap="butt" stroke-miterlimit="10" stroke-linejoin="miter" fill="none" stroke="#000000" d="M1333.8444-46.20334 1343.6138-59.65007 1336.073-70.02928 1357.1901-63.16693V-40.96191L1349.6513-51.33914Z"/>
<path transform="matrix(1,0,0,-1,-1128.433,136.098)" d="M1223.9959-84.24219 1237.0471-102.20505 1258.1632-95.3427 1245.9618-91.3775V-74.7646L1236.1953-88.20636Z" fill="#fff78c"/>
<path transform="matrix(1,0,0,-1,-1128.433,136.098)" stroke-width=".3985" stroke-linecap="butt" stroke-miterlimit="10" stroke-linejoin="miter" fill="none" stroke="#000000" d="M1223.9959-84.24219 1237.0471-102.20505 1258.1632-95.3427 1245.9618-91.3775V-74.7646L1236.1953-88.20636Z"/>
<path transform="matrix(1,0,0,-1,-1128.433,136.098)" d="M1191.6547 0 1175.8438 5.1388V17.96585L1162.7896 0 1175.8438-17.96585V-5.1388Z" fill="#fff78c"/>
<path transform="matrix(1,0,0,-1,-1128.433,136.098)" stroke-width=".3985" stroke-linecap="butt" stroke-miterlimit="10" stroke-linejoin="miter" fill="none" stroke="#000000" d="M1191.6547 0 1175.8438 5.1388V17.96585L1162.7896 0 1175.8438-17.96585V-5.1388Z"/>
<path transform="matrix(1,0,0,-1,-1128.433,136.098)" d="M1364.6632-17.96585 1377.7164 0 1364.6632 17.96585V5.1388L1348.8513 0 1364.6632-5.1388Z" fill="#fff78c"/>
<path transform="matrix(1,0,0,-1,-1128.433,136.098)" stroke-width=".3985" stroke-linecap="butt" stroke-miterlimit="10" stroke-linejoin="miter" fill="none" stroke="#000000" d="M1364.6632-17.96585 1377.7164 0 1364.6632 17.96585V5.1388L1348.8513 0 1364.6632-5.1388Z"/>
<path transform="matrix(1,0,0,-1,-1128.433,136.098)" d="M1183.3159-40.96191V-63.16693L1204.433-70.02928 1196.8921-59.65007 1206.6616-46.20334 1190.8547-51.33914Z" fill="#fff78c"/>
<path transform="matrix(1,0,0,-1,-1128.433,136.098)" stroke-width=".3985" stroke-linecap="butt" stroke-miterlimit="10" stroke-linejoin="miter" fill="none" stroke="#000000" d="M1183.3159-40.96191V-63.16693L1204.433-70.02928 1196.8921-59.65007 1206.6616-46.20334 1190.8547-51.33914Z"/>
<path transform="matrix(1,0,0,-1,-1128.433,136.098)" d="M1316.5101 84.24219 1303.4589 102.20505 1282.3428 95.3427 1294.5442 91.3775V74.7646L1304.3107 88.20636Z" fill="#fff78c"/>
<path transform="matrix(1,0,0,-1,-1128.433,136.098)" stroke-width=".3985" stroke-linecap="butt" stroke-miterlimit="10" stroke-linejoin="miter" fill="none" stroke="#000000" d="M1316.5101 84.24219 1303.4589 102.20505 1282.3428 95.3427 1294.5442 91.3775V74.7646L1304.3107 88.20636Z"/>
<path transform="matrix(1,0,0,-1,-1128.433,136.098)" d="M1282.3428-95.3427 1303.4589-102.20505 1316.5101-84.24219 1304.3107-88.20636 1294.5442-74.7646V-91.3775Z" fill="#fff78c"/>
<path transform="matrix(1,0,0,-1,-1128.433,136.098)" stroke-width=".3985" stroke-linecap="butt" stroke-miterlimit="10" stroke-linejoin="miter" fill="none" stroke="#000000" d="M1282.3428-95.3427 1303.4589-102.20505 1316.5101-84.24219 1304.3107-88.20636 1294.5442-74.7646V-91.3775Z"/>
<path transform="matrix(1,0,0,-1,-1128.433,136.098)" d="M1183.3159 40.96191 1190.8547 51.33914 1206.6616 46.20334 1196.8921 59.65007 1204.433 70.02928 1183.3159 63.16693Z" fill="#fff78c"/>
<path transform="matrix(1,0,0,-1,-1128.433,136.098)" stroke-width=".3985" stroke-linecap="butt" stroke-miterlimit="10" stroke-linejoin="miter" fill="none" stroke="#000000" d="M1183.3159 40.96191 1190.8547 51.33914 1206.6616 46.20334 1196.8921 59.65007 1204.433 70.02928 1183.3159 63.16693Z"/>
<path transform="matrix(1,0,0,-1,-1128.433,136.098)" d="M1175.8438 68.59566V5.1388L1191.6547 0 1203.7416 3.9283 1183.3159 10.56749V63.16693L1204.433 70.02928 1211.906 80.31386Z" fill="#ffffff"/>
<path transform="matrix(1,0,0,-1,-1128.433,136.098)" stroke-width=".3985" stroke-linecap="butt" stroke-miterlimit="10" stroke-linejoin="miter" fill="none" stroke="#000000" d="M1175.8438 68.59566V5.1388L1191.6547 0 1203.7416 3.9283 1183.3159 10.56749V63.16693L1204.433 70.02928 1211.906 80.31386Z"/>
<path transform="matrix(1,0,0,-1,-1128.433,136.098)" d="M1236.1953 88.20636 1223.9959 84.24219 1216.5238 73.9576 1233.341 79.42218 1265.6353 34.9733 1270.2529 41.32953Z" fill="#ffffff"/>
<path transform="matrix(1,0,0,-1,-1128.433,136.098)" stroke-width=".3985" stroke-linecap="butt" stroke-miterlimit="10" stroke-linejoin="miter" fill="none" stroke="#000000" d="M1236.1953 88.20636 1223.9959 84.24219 1216.5238 73.9576 1233.341 79.42218 1265.6353 34.9733 1270.2529 41.32953Z"/>
<path transform="matrix(1,0,0,-1,-1128.433,136.098)" d="M1279.5333 28.55627 1274.8707 34.9733 1270.2529 28.61705 1276.679 19.7731 1314.2825 31.99045 1321.7545 42.27501Z" fill="#ffffff"/>
<path transform="matrix(1,0,0,-1,-1128.433,136.098)" stroke-width=".3985" stroke-linecap="butt" stroke-miterlimit="10" stroke-linejoin="miter" fill="none" stroke="#000000" d="M1279.5333 28.55627 1274.8707 34.9733 1270.2529 28.61705 1276.679 19.7731 1314.2825 31.99045 1321.7545 42.27501Z"/>
<path transform="matrix(1,0,0,-1,-1128.433,136.098)" d="M1349.6513 51.33914 1333.8444 46.20334 1326.3722 35.91876 1346.797 42.55496 1377.7164 0 1364.6632-17.96585V-30.67834L1386.9519 0Z" fill="#ffffff"/>
<path transform="matrix(1,0,0,-1,-1128.433,136.098)" stroke-width=".3985" stroke-linecap="butt" stroke-miterlimit="10" stroke-linejoin="miter" fill="none" stroke="#000000" d="M1349.6513 51.33914 1333.8444 46.20334 1326.3722 35.91876 1346.797 42.55496 1377.7164 0 1364.6632-17.96585V-30.67834L1386.9519 0Z"/>
<path transform="matrix(1,0,0,-1,-1128.433,136.098)" d="M1349.6513-51.33914 1357.1901-40.96191V-28.25043L1346.797-42.55496 1294.5452-25.57741V-33.43405Z" fill="#ffffff"/>
<path transform="matrix(1,0,0,-1,-1128.433,136.098)" stroke-width=".3985" stroke-linecap="butt" stroke-miterlimit="10" stroke-linejoin="miter" fill="none" stroke="#000000" d="M1349.6513-51.33914 1357.1901-40.96191V-28.25043L1346.797-42.55496 1294.5452-25.57741V-33.43405Z"/>
<path transform="matrix(1,0,0,-1,-1128.433,136.098)" d="M1279.5333-28.55627 1287.0722-31.00612V-23.14948L1276.679-19.7731 1253.4338-51.76753V-64.48003Z" fill="#ffffff"/>
<path transform="matrix(1,0,0,-1,-1128.433,136.098)" stroke-width=".3985" stroke-linecap="butt" stroke-miterlimit="10" stroke-linejoin="miter" fill="none" stroke="#000000" d="M1279.5333-28.55627 1287.0722-31.00612V-23.14948L1276.679-19.7731 1253.4338-51.76753V-64.48003Z"/>
<path transform="matrix(1,0,0,-1,-1128.433,136.098)" d="M1236.1953-88.20636 1245.9618-74.7646V-62.0521L1233.341-79.42218 1183.3159-63.16693V-40.96191L1175.8438-30.67834V-68.59566Z" fill="#ffffff"/>
<path transform="matrix(1,0,0,-1,-1128.433,136.098)" stroke-width=".3985" stroke-linecap="butt" stroke-miterlimit="10" stroke-linejoin="miter" fill="none" stroke="#000000" d="M1236.1953-88.20636 1245.9618-74.7646V-62.0521L1233.341-79.42218 1183.3159-63.16693V-40.96191L1175.8438-30.67834V-68.59566Z"/>
<path transform="matrix(1,0,0,-1,-1128.433,136.098)" d="M1175.8438-5.1388V-17.96585L1183.3159-28.25043V-10.56749L1235.5686 6.41602 1230.9508 12.77226Z" fill="#ffffff"/>
<path transform="matrix(1,0,0,-1,-1128.433,136.098)" stroke-width=".3985" stroke-linecap="butt" stroke-miterlimit="10" stroke-linejoin="miter" fill="none" stroke="#000000" d="M1175.8438-5.1388V-17.96585L1183.3159-28.25043V-10.56749L1235.5686 6.41602 1230.9508 12.77226Z"/>
<path transform="matrix(1,0,0,-1,-1128.433,136.098)" d="M1245.9618 17.65103 1238.422 15.2002 1243.0397 8.84494 1253.4338 12.22232V51.76753L1245.9618 62.0521Z" fill="#ffffff"/>
<path transform="matrix(1,0,0,-1,-1128.433,136.098)" stroke-width=".3985" stroke-linecap="butt" stroke-miterlimit="10" stroke-linejoin="miter" fill="none" stroke="#000000" d="M1245.9618 17.65103 1238.422 15.2002 1243.0397 8.84494 1253.4338 12.22232V51.76753L1245.9618 62.0521Z"/>
<path transform="matrix(1,0,0,-1,-1128.433,136.098)" d="M1245.9618 91.3775V74.7646L1253.4338 64.48003V85.94978L1303.4589 102.20505 1316.5101 84.24219 1328.6 80.31386 1306.3132 110.98822Z" fill="#ffffff"/>
<path transform="matrix(1,0,0,-1,-1128.433,136.098)" stroke-width=".3985" stroke-linecap="butt" stroke-miterlimit="10" stroke-linejoin="miter" fill="none" stroke="#000000" d="M1245.9618 91.3775V74.7646L1253.4338 64.48003V85.94978L1303.4589 102.20505 1316.5101 84.24219 1328.6 80.31386 1306.3132 110.98822Z"/>
<path transform="matrix(1,0,0,-1,-1128.433,136.098)" d="M1343.6138 59.65007 1336.073 70.02928 1323.9822 73.9576 1334.3783 59.64908 1302.084 15.2002 1309.555 12.77226Z" fill="#ffffff"/>
<path transform="matrix(1,0,0,-1,-1128.433,136.098)" stroke-width=".3985" stroke-linecap="butt" stroke-miterlimit="10" stroke-linejoin="miter" fill="none" stroke="#000000" d="M1343.6138 59.65007 1336.073 70.02928 1323.9822 73.9576 1334.3783 59.64908 1302.084 15.2002 1309.555 12.77226Z"/>
<path transform="matrix(1,0,0,-1,-1128.433,136.098)" d="M1300.2758 0 1304.9374 6.41602 1297.4663 8.84494 1291.0403 0 1314.2825-31.99045 1326.3722-35.91876Z" fill="#ffffff"/>
<path transform="matrix(1,0,0,-1,-1128.433,136.098)" stroke-width=".3985" stroke-linecap="butt" stroke-miterlimit="10" stroke-linejoin="miter" fill="none" stroke="#000000" d="M1300.2758 0 1304.9374 6.41602 1297.4663 8.84494 1291.0403 0 1314.2825-31.99045 1326.3722-35.91876Z"/>
<path transform="matrix(1,0,0,-1,-1128.433,136.098)" d="M1343.6138-59.65007 1333.8444-46.20334 1321.7545-42.27501 1334.3783-59.64908 1303.4589-102.20505 1282.3428-95.3427 1270.2529-99.27101 1306.3132-110.98822Z" fill="#ffffff"/>
<path transform="matrix(1,0,0,-1,-1128.433,136.098)" stroke-width=".3985" stroke-linecap="butt" stroke-miterlimit="10" stroke-linejoin="miter" fill="none" stroke="#000000" d="M1343.6138-59.65007 1333.8444-46.20334 1321.7545-42.27501 1334.3783-59.64908 1303.4589-102.20505 1282.3428-95.3427 1270.2529-99.27101 1306.3132-110.98822Z"/>
<path transform="matrix(1,0,0,-1,-1128.433,136.098)" d="M1245.9618-91.3775 1258.1632-95.3427 1270.2529-91.41437 1253.4338-85.94978V-31.00612L1245.9618-33.43405Z" fill="#ffffff"/>
<path transform="matrix(1,0,0,-1,-1128.433,136.098)" stroke-width=".3985" stroke-linecap="butt" stroke-miterlimit="10" stroke-linejoin="miter" fill="none" stroke="#000000" d="M1245.9618-91.3775 1258.1632-95.3427 1270.2529-91.41437 1253.4338-85.94978V-31.00612L1245.9618-33.43405Z"/>
<path transform="matrix(1,0,0,-1,-1128.433,136.098)" d="M1245.9618-17.65103V-25.57741L1253.4338-23.14948V-12.22232L1215.8284 0 1203.7416-3.9283Z" fill="#ffffff"/>
<path transform="matrix(1,0,0,-1,-1128.433,136.098)" stroke-width=".3985" stroke-linecap="butt" stroke-miterlimit="10" stroke-linejoin="miter" fill="none" stroke="#000000" d="M1245.9618-17.65103V-25.57741L1253.4338-23.14948V-12.22232L1215.8284 0 1203.7416-3.9283Z"/>
<path transform="matrix(1,0,0,-1,-1128.433,136.098)" d="M1294.5452 17.65103V25.57741L1287.0722 23.14948V12.22232L1324.6776 0 1336.7644 3.9283Z" fill="#ffffff"/>
<path transform="matrix(1,0,0,-1,-1128.433,136.098)" stroke-width=".3985" stroke-linecap="butt" stroke-miterlimit="10" stroke-linejoin="miter" fill="none" stroke="#000000" d="M1294.5452 17.65103V25.57741L1287.0722 23.14948V12.22232L1324.6776 0 1336.7644 3.9283Z"/>
<path transform="matrix(1,0,0,-1,-1128.433,136.098)" d="M1364.6632-5.1388 1348.8513 0 1336.7644-3.9283 1357.1901-10.56749V-63.16693L1336.073-70.02928 1328.6-80.31386 1364.6632-68.59566Z" fill="#ffffff"/>
<path transform="matrix(1,0,0,-1,-1128.433,136.098)" stroke-width=".3985" stroke-linecap="butt" stroke-miterlimit="10" stroke-linejoin="miter" fill="none" stroke="#000000" d="M1364.6632-5.1388 1348.8513 0 1336.7644-3.9283 1357.1901-10.56749V-63.16693L1336.073-70.02928 1328.6-80.31386 1364.6632-68.59566Z"/>
<path transform="matrix(1,0,0,-1,-1128.433,136.098)" d="M1304.3107-88.20636 1316.5101-84.24219 1323.9822-73.9576 1307.165-79.42218 1274.8707-34.9733 1270.2529-41.32953Z" fill="#ffffff"/>
<path transform="matrix(1,0,0,-1,-1128.433,136.098)" stroke-width=".3985" stroke-linecap="butt" stroke-miterlimit="10" stroke-linejoin="miter" fill="none" stroke="#000000" d="M1304.3107-88.20636 1316.5101-84.24219 1323.9822-73.9576 1307.165-79.42218 1274.8707-34.9733 1270.2529-41.32953Z"/>
<path transform="matrix(1,0,0,-1,-1128.433,136.098)" d="M1260.9727-28.55627 1265.6353-34.9733 1270.2529-28.61705 1263.827-19.7731 1226.2235-31.99045 1218.7515-42.27501Z" fill="#ffffff"/>
<path transform="matrix(1,0,0,-1,-1128.433,136.098)" stroke-width=".3985" stroke-linecap="butt" stroke-miterlimit="10" stroke-linejoin="miter" fill="none" stroke="#000000" d="M1260.9727-28.55627 1265.6353-34.9733 1270.2529-28.61705 1263.827-19.7731 1226.2235-31.99045 1218.7515-42.27501Z"/>
<path transform="matrix(1,0,0,-1,-1128.433,136.098)" d="M1190.8547-51.33914 1206.6616-46.20334 1214.1337-35.91876 1193.709-42.55496 1162.7896 0 1175.8438 17.96585V30.67834L1153.5541 0Z" fill="#ffffff"/>
<path transform="matrix(1,0,0,-1,-1128.433,136.098)" stroke-width=".3985" stroke-linecap="butt" stroke-miterlimit="10" stroke-linejoin="miter" fill="none" stroke="#000000" d="M1190.8547-51.33914 1206.6616-46.20334 1214.1337-35.91876 1193.709-42.55496 1162.7896 0 1175.8438 17.96585V30.67834L1153.5541 0Z"/>
<path transform="matrix(1,0,0,-1,-1128.433,136.098)" d="M1190.8547 51.33914 1183.3159 40.96191V28.25043L1193.709 42.55496 1245.9618 25.57741V33.43405Z" fill="#ffffff"/>
<path transform="matrix(1,0,0,-1,-1128.433,136.098)" stroke-width=".3985" stroke-linecap="butt" stroke-miterlimit="10" stroke-linejoin="miter" fill="none" stroke="#000000" d="M1190.8547 51.33914 1183.3159 40.96191V28.25043L1193.709 42.55496 1245.9618 25.57741V33.43405Z"/>
<path transform="matrix(1,0,0,-1,-1128.433,136.098)" d="M1260.9727 28.55627 1253.4338 31.00612V23.14948L1263.827 19.7731 1287.0722 51.76753V64.48003Z" fill="#ffffff"/>
<path transform="matrix(1,0,0,-1,-1128.433,136.098)" stroke-width=".3985" stroke-linecap="butt" stroke-miterlimit="10" stroke-linejoin="miter" fill="none" stroke="#000000" d="M1260.9727 28.55627 1253.4338 31.00612V23.14948L1263.827 19.7731 1287.0722 51.76753V64.48003Z"/>
<path transform="matrix(1,0,0,-1,-1128.433,136.098)" d="M1304.3107 88.20636 1294.5442 74.7646V62.0521L1307.165 79.42218 1357.1901 63.16693V40.96191L1364.6632 30.67834V68.59566Z" fill="#ffffff"/>
<path transform="matrix(1,0,0,-1,-1128.433,136.098)" stroke-width=".3985" stroke-linecap="butt" stroke-miterlimit="10" stroke-linejoin="miter" fill="none" stroke="#000000" d="M1304.3107 88.20636 1294.5442 74.7646V62.0521L1307.165 79.42218 1357.1901 63.16693V40.96191L1364.6632 30.67834V68.59566Z"/>
<path transform="matrix(1,0,0,-1,-1128.433,136.098)" d="M1364.6632 5.1388V17.96585L1357.1901 28.25043V10.56749L1304.9374-6.41602 1309.555-12.77226Z" fill="#ffffff"/>
<path transform="matrix(1,0,0,-1,-1128.433,136.098)" stroke-width=".3985" stroke-linecap="butt" stroke-miterlimit="10" stroke-linejoin="miter" fill="none" stroke="#000000" d="M1364.6632 5.1388V17.96585L1357.1901 28.25043V10.56749L1304.9374-6.41602 1309.555-12.77226Z"/>
<path transform="matrix(1,0,0,-1,-1128.433,136.098)" d="M1294.5452-17.65103 1302.084-15.2002 1297.4663-8.84494 1287.0722-12.22232V-51.76753L1294.5442-62.0521Z" fill="#ffffff"/>
<path transform="matrix(1,0,0,-1,-1128.433,136.098)" stroke-width=".3985" stroke-linecap="butt" stroke-miterlimit="10" stroke-linejoin="miter" fill="none" stroke="#000000" d="M1294.5452-17.65103 1302.084-15.2002 1297.4663-8.84494 1287.0722-12.22232V-51.76753L1294.5442-62.0521Z"/>
<path transform="matrix(1,0,0,-1,-1128.433,136.098)" d="M1294.5442-91.3775V-74.7646L1287.0722-64.48003V-85.94978L1237.0471-102.20505 1223.9959-84.24219 1211.906-80.31386 1234.1928-110.98822Z" fill="#ffffff"/>
<path transform="matrix(1,0,0,-1,-1128.433,136.098)" stroke-width=".3985" stroke-linecap="butt" stroke-miterlimit="10" stroke-linejoin="miter" fill="none" stroke="#000000" d="M1294.5442-91.3775V-74.7646L1287.0722-64.48003V-85.94978L1237.0471-102.20505 1223.9959-84.24219 1211.906-80.31386 1234.1928-110.98822Z"/>
<path transform="matrix(1,0,0,-1,-1128.433,136.098)" d="M1196.8921-59.65007 1204.433-70.02928 1216.5238-73.9576 1206.1276-59.64908 1238.422-15.2002 1230.9508-12.77226Z" fill="#ffffff"/>
<path transform="matrix(1,0,0,-1,-1128.433,136.098)" stroke-width=".3985" stroke-linecap="butt" stroke-miterlimit="10" stroke-linejoin="miter" fill="none" stroke="#000000" d="M1196.8921-59.65007 1204.433-70.02928 1216.5238-73.9576 1206.1276-59.64908 1238.422-15.2002 1230.9508-12.77226Z"/>
<path transform="matrix(1,0,0,-1,-1128.433,136.098)" d="M1240.2302 0 1235.5686-6.41602 1243.0397-8.84494 1249.4657 0 1226.2235 31.99045 1214.1337 35.91876Z" fill="#ffffff"/>
<path transform="matrix(1,0,0,-1,-1128.433,136.098)" stroke-width=".3985" stroke-linecap="butt" stroke-miterlimit="10" stroke-linejoin="miter" fill="none" stroke="#000000" d="M1240.2302 0 1235.5686-6.41602 1243.0397-8.84494 1249.4657 0 1226.2235 31.99045 1214.1337 35.91876Z"/>
<path transform="matrix(1,0,0,-1,-1128.433,136.098)" d="M1196.8921 59.65007 1206.6616 46.20334 1218.7515 42.27501 1206.1276 59.64908 1237.0471 102.20505 1258.1632 95.3427 1270.2529 99.27101 1234.1928 110.98822Z" fill="#ffffff"/>
<path transform="matrix(1,0,0,-1,-1128.433,136.098)" stroke-width=".3985" stroke-linecap="butt" stroke-miterlimit="10" stroke-linejoin="miter" fill="none" stroke="#000000" d="M1196.8921 59.65007 1206.6616 46.20334 1218.7515 42.27501 1206.1276 59.64908 1237.0471 102.20505 1258.1632 95.3427 1270.2529 99.27101 1234.1928 110.98822Z"/>
<path transform="matrix(1,0,0,-1,-1128.433,136.098)" d="M1294.5442 91.3775 1282.3428 95.3427 1270.2529 91.41437 1287.0722 85.94978V31.00612L1294.5452 33.43405Z" fill="#ffffff"/>
<path transform="matrix(1,0,0,-1,-1128.433,136.098)" stroke-width=".3985" stroke-linecap="butt" stroke-miterlimit="10" stroke-linejoin="miter" fill="none" stroke="#000000" d="M1294.5442 91.3775 1282.3428 95.3427 1270.2529 91.41437 1287.0722 85.94978V31.00612L1294.5452 33.43405Z"/>
</svg>
