<svg xmlns="http://www.w3.org/2000/svg" xmlns:xlink="http://www.w3.org/1999/xlink" xmlns:inkscape="http://www.inkscape.org/namespaces/inkscape" version="1.1" width="284.94" height="284.94" viewBox="0 0 284.94 284.94">
<path transform="matrix(1,0,0,-1,-873.721,142.47202)" d="M1006.3502 23.77614 1002.27249 13.92993 992.4263 9.85219 996.508 0 992.4263-9.85219 1002.27249-13.92993 1006.3502-23.77614 1016.2024-19.6944 1026.0546-23.77614 1030.1323-13.92993 1039.9785-9.85219 1035.8969 0 1039.9785 9.85219 1030.1323 13.92993 1026.0546 23.77614 1016.2024 19.6944Z" fill="#3472a1"/>
<path transform="matrix(1,0,0,-1,-873.721,142.47202)" stroke-width=".3985" stroke-linecap="butt" stroke-miterlimit="10" stroke-linejoin="miter" fill="none" stroke="#000000" d="M1006.3502 23.77614 1002.27249 13.92993 992.4263 9.85219 996.508 0 992.4263-9.85219 1002.27249-13.92993 1006.3502-23.77614 1016.2024-19.6944 1026.0546-23.77614 1030.1323-13.92993 1039.9785-9.85219 1035.8969 0 1039.9785 9.85219 1030.1323 13.92993 1026.0546 23.77614 1016.2024 19.6944Z"/>
<path transform="matrix(1,0,0,-1,-873.721,142.47202)" d="M999.447 26.63545 982.58 33.62234 989.56698 16.75537 996.5528 19.64957Z" fill="#09568c"/>
<path transform="matrix(1,0,0,-1,-873.721,142.47202)" stroke-width=".3985" stroke-linecap="butt" stroke-miterlimit="10" stroke-linejoin="miter" fill="none" stroke="#000000" d="M999.447 26.63545 982.58 33.62234 989.56698 16.75537 996.5528 19.64957Z"/>
<path transform="matrix(1,0,0,-1,-873.721,142.47202)" d="M1042.8379-16.75537 1035.8519-19.64957 1032.9578-26.63545 1049.8247-33.62234Z" fill="#09568c"/>
<path transform="matrix(1,0,0,-1,-873.721,142.47202)" stroke-width=".3985" stroke-linecap="butt" stroke-miterlimit="10" stroke-linejoin="miter" fill="none" stroke="#000000" d="M1042.8379-16.75537 1035.8519-19.64957 1032.9578-26.63545 1049.8247-33.62234Z"/>
<path transform="matrix(1,0,0,-1,-873.721,142.47202)" d="M1016.2024-27.78316 1009.20956-30.67935 1016.2024-47.55927 1023.19528-30.67935Z" fill="#09568c"/>
<path transform="matrix(1,0,0,-1,-873.721,142.47202)" stroke-width=".3985" stroke-linecap="butt" stroke-miterlimit="10" stroke-linejoin="miter" fill="none" stroke="#000000" d="M1016.2024-27.78316 1009.20956-30.67935 1016.2024-47.55927 1023.19528-30.67935Z"/>
<path transform="matrix(1,0,0,-1,-873.721,142.47202)" d="M1016.2024 27.78316 1023.19528 30.67935 1016.2024 47.55927 1009.20956 30.67935Z" fill="#09568c"/>
<path transform="matrix(1,0,0,-1,-873.721,142.47202)" stroke-width=".3985" stroke-linecap="butt" stroke-miterlimit="10" stroke-linejoin="miter" fill="none" stroke="#000000" d="M1016.2024 27.78316 1023.19528 30.67935 1016.2024 47.55927 1009.20956 30.67935Z"/>
<path transform="matrix(1,0,0,-1,-873.721,142.47202)" d="M1043.9856 0 1046.8817-6.99286 1063.7617 0 1046.8817 6.99286Z" fill="#09568c"/>
<path transform="matrix(1,0,0,-1,-873.721,142.47202)" stroke-width=".3985" stroke-linecap="butt" stroke-miterlimit="10" stroke-linejoin="miter" fill="none" stroke="#000000" d="M1043.9856 0 1046.8817-6.99286 1063.7617 0 1046.8817 6.99286Z"/>
<path transform="matrix(1,0,0,-1,-873.721,142.47202)" d="M985.523 6.99286 968.6431 0 985.523-6.99286 988.41928 0Z" fill="#09568c"/>
<path transform="matrix(1,0,0,-1,-873.721,142.47202)" stroke-width=".3985" stroke-linecap="butt" stroke-miterlimit="10" stroke-linejoin="miter" fill="none" stroke="#000000" d="M985.523 6.99286 968.6431 0 985.523-6.99286 988.41928 0Z"/>
<path transform="matrix(1,0,0,-1,-873.721,142.47202)" d="M989.56698-16.75537 982.58-33.62234 999.447-26.63545 996.5528-19.64957Z" fill="#09568c"/>
<path transform="matrix(1,0,0,-1,-873.721,142.47202)" stroke-width=".3985" stroke-linecap="butt" stroke-miterlimit="10" stroke-linejoin="miter" fill="none" stroke="#000000" d="M989.56698-16.75537 982.58-33.62234 999.447-26.63545 996.5528-19.64957Z"/>
<path transform="matrix(1,0,0,-1,-873.721,142.47202)" d="M1042.8379 16.75537 1049.8247 33.62234 1032.9578 26.63545 1035.8519 19.64957Z" fill="#09568c"/>
<path transform="matrix(1,0,0,-1,-873.721,142.47202)" stroke-width=".3985" stroke-linecap="butt" stroke-miterlimit="10" stroke-linejoin="miter" fill="none" stroke="#000000" d="M1042.8379 16.75537 1049.8247 33.62234 1032.9578 26.63545 1035.8519 19.64957Z"/>
<path transform="matrix(1,0,0,-1,-873.721,142.47202)" d="M984.9253-75.51978H1004.6197L1012.1585-57.32178 1002.30636-33.53865 978.53616-43.38586 970.9943-61.58983Z" fill="#faf8f0"/>
<path transform="matrix(1,0,0,-1,-873.721,142.47202)" stroke-width=".3985" stroke-linecap="butt" stroke-miterlimit="10" stroke-linejoin="miter" fill="none" stroke="#000000" d="M984.9253-75.51978H1004.6197L1012.1585-57.32178 1002.30636-33.53865 978.53616-43.38586 970.9943-61.58983Z"/>
<path transform="matrix(1,0,0,-1,-873.721,142.47202)" d="M958.8806-4.04388 940.6826-11.58272V-31.2771L954.61257-45.20805 972.8165-37.66624 982.66378-13.89606Z" fill="#faf8f0"/>
<path transform="matrix(1,0,0,-1,-873.721,142.47202)" stroke-width=".3985" stroke-linecap="butt" stroke-miterlimit="10" stroke-linejoin="miter" fill="none" stroke="#000000" d="M958.8806-4.04388 940.6826-11.58272V-31.2771L954.61257-45.20805 972.8165-37.66624 982.66378-13.89606Z"/>
<path transform="matrix(1,0,0,-1,-873.721,142.47202)" d="M1047.4795 75.51978H1027.7852L1020.2463 57.32178 1030.0985 33.53865 1053.8687 43.38586 1061.4104 61.58983Z" fill="#faf8f0"/>
<path transform="matrix(1,0,0,-1,-873.721,142.47202)" stroke-width=".3985" stroke-linecap="butt" stroke-miterlimit="10" stroke-linejoin="miter" fill="none" stroke="#000000" d="M1047.4795 75.51978H1027.7852L1020.2463 57.32178 1030.0985 33.53865 1053.8687 43.38586 1061.4104 61.58983Z"/>
<path transform="matrix(1,0,0,-1,-873.721,142.47202)" d="M1073.5242 4.04388 1091.7222 11.58272V31.2771L1077.7922 45.20805 1059.5883 37.66624 1049.7411 13.89606Z" fill="#faf8f0"/>
<path transform="matrix(1,0,0,-1,-873.721,142.47202)" stroke-width=".3985" stroke-linecap="butt" stroke-miterlimit="10" stroke-linejoin="miter" fill="none" stroke="#000000" d="M1073.5242 4.04388 1091.7222 11.58272V31.2771L1077.7922 45.20805 1059.5883 37.66624 1049.7411 13.89606Z"/>
<path transform="matrix(1,0,0,-1,-873.721,142.47202)" d="M1053.8687-43.38586 1030.0985-33.53865 1020.2463-57.32178 1027.7852-75.51978H1047.4795L1061.4104-61.58983Z" fill="#faf8f0"/>
<path transform="matrix(1,0,0,-1,-873.721,142.47202)" stroke-width=".3985" stroke-linecap="butt" stroke-miterlimit="10" stroke-linejoin="miter" fill="none" stroke="#000000" d="M1053.8687-43.38586 1030.0985-33.53865 1020.2463-57.32178 1027.7852-75.51978H1047.4795L1061.4104-61.58983Z"/>
<path transform="matrix(1,0,0,-1,-873.721,142.47202)" d="M978.53616 43.38586 1002.30636 33.53865 1012.1585 57.32178 1004.6197 75.51978H984.9253L970.9943 61.58983Z" fill="#faf8f0"/>
<path transform="matrix(1,0,0,-1,-873.721,142.47202)" stroke-width=".3985" stroke-linecap="butt" stroke-miterlimit="10" stroke-linejoin="miter" fill="none" stroke="#000000" d="M978.53616 43.38586 1002.30636 33.53865 1012.1585 57.32178 1004.6197 75.51978H984.9253L970.9943 61.58983Z"/>
<path transform="matrix(1,0,0,-1,-873.721,142.47202)" d="M972.8165 37.66624 954.61257 45.20805 940.6826 31.2771V11.58272L958.8806 4.04388 982.66378 13.89606Z" fill="#faf8f0"/>
<path transform="matrix(1,0,0,-1,-873.721,142.47202)" stroke-width=".3985" stroke-linecap="butt" stroke-miterlimit="10" stroke-linejoin="miter" fill="none" stroke="#000000" d="M972.8165 37.66624 954.61257 45.20805 940.6826 31.2771V11.58272L958.8806 4.04388 982.66378 13.89606Z"/>
<path transform="matrix(1,0,0,-1,-873.721,142.47202)" d="M1091.7222-31.2771V-11.58272L1073.5242-4.04388 1049.7411-13.89606 1059.5883-37.66624 1077.7922-45.20805Z" fill="#faf8f0"/>
<path transform="matrix(1,0,0,-1,-873.721,142.47202)" stroke-width=".3985" stroke-linecap="butt" stroke-miterlimit="10" stroke-linejoin="miter" fill="none" stroke="#000000" d="M1091.7222-31.2771V-11.58272L1073.5242-4.04388 1049.7411-13.89606 1059.5883-37.66624 1077.7922-45.20805Z"/>
<path transform="matrix(1,0,0,-1,-873.721,142.47202)" d="M992.39736-82.99185 1016.2024-106.79788 1040.0075-82.99284H1022.79177L1016.2024-67.0843 1009.613-82.99185Z" fill="#eaebef"/>
<path transform="matrix(1,0,0,-1,-873.721,142.47202)" stroke-width=".3985" stroke-linecap="butt" stroke-miterlimit="10" stroke-linejoin="miter" fill="none" stroke="#000000" d="M992.39736-82.99185 1016.2024-106.79788 1040.0075-82.99284H1022.79177L1016.2024-67.0843 1009.613-82.99185Z"/>
<path transform="matrix(1,0,0,-1,-873.721,142.47202)" d="M949.11807 0 933.2105 6.58937V23.80502L909.4045 0 933.2105-23.80502V-6.58937Z" fill="#eaebef"/>
<path transform="matrix(1,0,0,-1,-873.721,142.47202)" stroke-width=".3985" stroke-linecap="butt" stroke-miterlimit="10" stroke-linejoin="miter" fill="none" stroke="#000000" d="M949.11807 0 933.2105 6.58937V23.80502L909.4045 0 933.2105-23.80502V-6.58937Z"/>
<path transform="matrix(1,0,0,-1,-873.721,142.47202)" d="M1040.0075 82.99284 1016.2024 106.79788 992.39736 82.99185H1009.613L1016.2024 67.0843 1022.79177 82.99284Z" fill="#eaebef"/>
<path transform="matrix(1,0,0,-1,-873.721,142.47202)" stroke-width=".3985" stroke-linecap="butt" stroke-miterlimit="10" stroke-linejoin="miter" fill="none" stroke="#000000" d="M1040.0075 82.99284 1016.2024 106.79788 992.39736 82.99185H1009.613L1016.2024 67.0843 1022.79177 82.99284Z"/>
<path transform="matrix(1,0,0,-1,-873.721,142.47202)" d="M1083.2868 0 1099.1942-6.58937V-23.80502L1123.0003 0 1099.1942 23.80502V6.58937Z" fill="#eaebef"/>
<path transform="matrix(1,0,0,-1,-873.721,142.47202)" stroke-width=".3985" stroke-linecap="butt" stroke-miterlimit="10" stroke-linejoin="miter" fill="none" stroke="#000000" d="M1083.2868 0 1099.1942-6.58937V-23.80502L1123.0003 0 1099.1942 23.80502V6.58937Z"/>
<path transform="matrix(1,0,0,-1,-873.721,142.47202)" d="M940.6826-41.84462V-75.51978H974.3578L962.1813-63.34328 968.77267-47.42973 952.8591-54.02112Z" fill="#eaebef"/>
<path transform="matrix(1,0,0,-1,-873.721,142.47202)" stroke-width=".3985" stroke-linecap="butt" stroke-miterlimit="10" stroke-linejoin="miter" fill="none" stroke="#000000" d="M940.6826-41.84462V-75.51978H974.3578L962.1813-63.34328 968.77267-47.42973 952.8591-54.02112Z"/>
<path transform="matrix(1,0,0,-1,-873.721,142.47202)" d="M1091.7222 41.84462V75.51978H1058.047L1070.2235 63.34328 1063.6321 47.42973 1079.5457 54.02112Z" fill="#eaebef"/>
<path transform="matrix(1,0,0,-1,-873.721,142.47202)" stroke-width=".3985" stroke-linecap="butt" stroke-miterlimit="10" stroke-linejoin="miter" fill="none" stroke="#000000" d="M1091.7222 41.84462V75.51978H1058.047L1070.2235 63.34328 1063.6321 47.42973 1079.5457 54.02112Z"/>
<path transform="matrix(1,0,0,-1,-873.721,142.47202)" d="M968.77267 47.42973 962.1813 63.34328 974.3578 75.51978H940.6826V41.84462L952.8591 54.02112Z" fill="#eaebef"/>
<path transform="matrix(1,0,0,-1,-873.721,142.47202)" stroke-width=".3985" stroke-linecap="butt" stroke-miterlimit="10" stroke-linejoin="miter" fill="none" stroke="#000000" d="M968.77267 47.42973 962.1813 63.34328 974.3578 75.51978H940.6826V41.84462L952.8591 54.02112Z"/>
<path transform="matrix(1,0,0,-1,-873.721,142.47202)" d="M1091.7222-41.84462 1079.5457-54.02112 1063.6321-47.42973 1070.2235-63.34328 1058.047-75.51978H1091.7222Z" fill="#eaebef"/>
<path transform="matrix(1,0,0,-1,-873.721,142.47202)" stroke-width=".3985" stroke-linecap="butt" stroke-miterlimit="10" stroke-linejoin="miter" fill="none" stroke="#000000" d="M1091.7222-41.84462 1079.5457-54.02112 1063.6321-47.42973 1070.2235-63.34328 1058.047-75.51978H1091.7222Z"/>
<path transform="matrix(1,0,0,-1,-873.721,142.47202)" d="M1035.8519-19.64957 1042.8379-16.75537 1039.9785-9.85219 1030.1323-13.92993 1016.2024-47.55927 1020.2463-57.32178Z" fill="#ffffff"/>
<path transform="matrix(1,0,0,-1,-873.721,142.47202)" stroke-width=".3985" stroke-linecap="butt" stroke-miterlimit="10" stroke-linejoin="miter" fill="none" stroke="#000000" d="M1035.8519-19.64957 1042.8379-16.75537 1039.9785-9.85219 1030.1323-13.92993 1016.2024-47.55927 1020.2463-57.32178Z"/>
<path transform="matrix(1,0,0,-1,-873.721,142.47202)" d="M1009.613-82.99185 1016.2024-67.0843 1012.1585-57.32178 1004.6197-75.51978H940.6826V-41.84462L933.2105-34.37254V-82.99185Z" fill="#ffffff"/>
<path transform="matrix(1,0,0,-1,-873.721,142.47202)" stroke-width=".3985" stroke-linecap="butt" stroke-miterlimit="10" stroke-linejoin="miter" fill="none" stroke="#000000" d="M1009.613-82.99185 1016.2024-67.0843 1012.1585-57.32178 1004.6197-75.51978H940.6826V-41.84462L933.2105-34.37254V-82.99185Z"/>
<path transform="matrix(1,0,0,-1,-873.721,142.47202)" d="M933.2105-6.58937V-23.80502L940.6826-31.2771V-11.58272L985.523 6.99286 982.66378 13.89606Z" fill="#ffffff"/>
<path transform="matrix(1,0,0,-1,-873.721,142.47202)" stroke-width=".3985" stroke-linecap="butt" stroke-miterlimit="10" stroke-linejoin="miter" fill="none" stroke="#000000" d="M933.2105-6.58937V-23.80502L940.6826-31.2771V-11.58272L985.523 6.99286 982.66378 13.89606Z"/>
<path transform="matrix(1,0,0,-1,-873.721,142.47202)" d="M996.5528 19.64957 989.56698 16.75537 992.4263 9.85219 1002.27249 13.92993 1016.2024 47.55927 1012.1585 57.32178Z" fill="#ffffff"/>
<path transform="matrix(1,0,0,-1,-873.721,142.47202)" stroke-width=".3985" stroke-linecap="butt" stroke-miterlimit="10" stroke-linejoin="miter" fill="none" stroke="#000000" d="M996.5528 19.64957 989.56698 16.75537 992.4263 9.85219 1002.27249 13.92993 1016.2024 47.55927 1012.1585 57.32178Z"/>
<path transform="matrix(1,0,0,-1,-873.721,142.47202)" d="M1022.79177 82.99284 1016.2024 67.0843 1020.2463 57.32178 1027.7852 75.51978H1091.7222V41.84462L1099.1942 34.37254V82.99284Z" fill="#ffffff"/>
<path transform="matrix(1,0,0,-1,-873.721,142.47202)" stroke-width=".3985" stroke-linecap="butt" stroke-miterlimit="10" stroke-linejoin="miter" fill="none" stroke="#000000" d="M1022.79177 82.99284 1016.2024 67.0843 1020.2463 57.32178 1027.7852 75.51978H1091.7222V41.84462L1099.1942 34.37254V82.99284Z"/>
<path transform="matrix(1,0,0,-1,-873.721,142.47202)" d="M1099.1942 6.58937V23.80502L1091.7222 31.2771V11.58272L1046.8817-6.99286 1049.7411-13.89606Z" fill="#ffffff"/>
<path transform="matrix(1,0,0,-1,-873.721,142.47202)" stroke-width=".3985" stroke-linecap="butt" stroke-miterlimit="10" stroke-linejoin="miter" fill="none" stroke="#000000" d="M1099.1942 6.58937V23.80502L1091.7222 31.2771V11.58272L1046.8817-6.99286 1049.7411-13.89606Z"/>
<path transform="matrix(1,0,0,-1,-873.721,142.47202)" d="M1079.5457-54.02112 1091.7222-41.84462V-31.2771L1077.7922-45.20805 1032.9578-26.63545 1030.0985-33.53865Z" fill="#ffffff"/>
<path transform="matrix(1,0,0,-1,-873.721,142.47202)" stroke-width=".3985" stroke-linecap="butt" stroke-miterlimit="10" stroke-linejoin="miter" fill="none" stroke="#000000" d="M1079.5457-54.02112 1091.7222-41.84462V-31.2771L1077.7922-45.20805 1032.9578-26.63545 1030.0985-33.53865Z"/>
<path transform="matrix(1,0,0,-1,-873.721,142.47202)" d="M1016.2024-27.78316 1023.19528-30.67935 1026.0546-23.77614 1016.2024-19.6944 982.58-33.62234 978.53616-43.38586Z" fill="#ffffff"/>
<path transform="matrix(1,0,0,-1,-873.721,142.47202)" stroke-width=".3985" stroke-linecap="butt" stroke-miterlimit="10" stroke-linejoin="miter" fill="none" stroke="#000000" d="M1016.2024-27.78316 1023.19528-30.67935 1026.0546-23.77614 1016.2024-19.6944 982.58-33.62234 978.53616-43.38586Z"/>
<path transform="matrix(1,0,0,-1,-873.721,142.47202)" d="M952.8591-54.02112 968.77267-47.42973 972.8165-37.66624 954.61257-45.20805 909.4045 0 933.2105 23.80502V34.37254L898.83798 0Z" fill="#ffffff"/>
<path transform="matrix(1,0,0,-1,-873.721,142.47202)" stroke-width=".3985" stroke-linecap="butt" stroke-miterlimit="10" stroke-linejoin="miter" fill="none" stroke="#000000" d="M952.8591-54.02112 968.77267-47.42973 972.8165-37.66624 954.61257-45.20805 909.4045 0 933.2105 23.80502V34.37254L898.83798 0Z"/>
<path transform="matrix(1,0,0,-1,-873.721,142.47202)" d="M952.8591 54.02112 940.6826 41.84462V31.2771L954.61257 45.20805 999.447 26.63545 1002.30636 33.53865Z" fill="#ffffff"/>
<path transform="matrix(1,0,0,-1,-873.721,142.47202)" stroke-width=".3985" stroke-linecap="butt" stroke-miterlimit="10" stroke-linejoin="miter" fill="none" stroke="#000000" d="M952.8591 54.02112 940.6826 41.84462V31.2771L954.61257 45.20805 999.447 26.63545 1002.30636 33.53865Z"/>
<path transform="matrix(1,0,0,-1,-873.721,142.47202)" d="M1016.2024 27.78316 1009.20956 30.67935 1006.3502 23.77614 1016.2024 19.6944 1049.8247 33.62234 1053.8687 43.38586Z" fill="#ffffff"/>
<path transform="matrix(1,0,0,-1,-873.721,142.47202)" stroke-width=".3985" stroke-linecap="butt" stroke-miterlimit="10" stroke-linejoin="miter" fill="none" stroke="#000000" d="M1016.2024 27.78316 1009.20956 30.67935 1006.3502 23.77614 1016.2024 19.6944 1049.8247 33.62234 1053.8687 43.38586Z"/>
<path transform="matrix(1,0,0,-1,-873.721,142.47202)" d="M1079.5457 54.02112 1063.6321 47.42973 1059.5883 37.66624 1077.7922 45.20805 1123.0003 0 1099.1942-23.80502V-34.37254L1133.5668 0Z" fill="#ffffff"/>
<path transform="matrix(1,0,0,-1,-873.721,142.47202)" stroke-width=".3985" stroke-linecap="butt" stroke-miterlimit="10" stroke-linejoin="miter" fill="none" stroke="#000000" d="M1079.5457 54.02112 1063.6321 47.42973 1059.5883 37.66624 1077.7922 45.20805 1123.0003 0 1099.1942-23.80502V-34.37254L1133.5668 0Z"/>
<path transform="matrix(1,0,0,-1,-873.721,142.47202)" d="M1043.9856 0 1046.8817 6.99286 1039.9785 9.85219 1035.8969 0 1049.8247-33.62234 1059.5883-37.66624Z" fill="#ffffff"/>
<path transform="matrix(1,0,0,-1,-873.721,142.47202)" stroke-width=".3985" stroke-linecap="butt" stroke-miterlimit="10" stroke-linejoin="miter" fill="none" stroke="#000000" d="M1043.9856 0 1046.8817 6.99286 1039.9785 9.85219 1035.8969 0 1049.8247-33.62234 1059.5883-37.66624Z"/>
<path transform="matrix(1,0,0,-1,-873.721,142.47202)" d="M1070.2235-63.34328 1063.6321-47.42973 1053.8687-43.38586 1061.4104-61.58983 1016.2024-106.79788 992.39736-82.99185H981.82986L1016.2024-117.3644Z" fill="#ffffff"/>
<path transform="matrix(1,0,0,-1,-873.721,142.47202)" stroke-width=".3985" stroke-linecap="butt" stroke-miterlimit="10" stroke-linejoin="miter" fill="none" stroke="#000000" d="M1070.2235-63.34328 1063.6321-47.42973 1053.8687-43.38586 1061.4104-61.58983 1016.2024-106.79788 992.39736-82.99185H981.82986L1016.2024-117.3644Z"/>
<path transform="matrix(1,0,0,-1,-873.721,142.47202)" d="M962.1813-63.34328 974.3578-75.51978H984.9253L970.9943-61.58983 989.56698-16.75537 982.66378-13.89606Z" fill="#ffffff"/>
<path transform="matrix(1,0,0,-1,-873.721,142.47202)" stroke-width=".3985" stroke-linecap="butt" stroke-miterlimit="10" stroke-linejoin="miter" fill="none" stroke="#000000" d="M962.1813-63.34328 974.3578-75.51978H984.9253L970.9943-61.58983 989.56698-16.75537 982.66378-13.89606Z"/>
<path transform="matrix(1,0,0,-1,-873.721,142.47202)" d="M988.41928 0 985.523-6.99286 992.4263-9.85219 996.508 0 982.58 33.62234 972.8165 37.66624Z" fill="#ffffff"/>
<path transform="matrix(1,0,0,-1,-873.721,142.47202)" stroke-width=".3985" stroke-linecap="butt" stroke-miterlimit="10" stroke-linejoin="miter" fill="none" stroke="#000000" d="M988.41928 0 985.523-6.99286 992.4263-9.85219 996.508 0 982.58 33.62234 972.8165 37.66624Z"/>
<path transform="matrix(1,0,0,-1,-873.721,142.47202)" d="M962.1813 63.34328 968.77267 47.42973 978.53616 43.38586 970.9943 61.58983 1016.2024 106.79788 1040.0075 82.99284H1050.575L1016.2024 117.3644Z" fill="#ffffff"/>
<path transform="matrix(1,0,0,-1,-873.721,142.47202)" stroke-width=".3985" stroke-linecap="butt" stroke-miterlimit="10" stroke-linejoin="miter" fill="none" stroke="#000000" d="M962.1813 63.34328 968.77267 47.42973 978.53616 43.38586 970.9943 61.58983 1016.2024 106.79788 1040.0075 82.99284H1050.575L1016.2024 117.3644Z"/>
<path transform="matrix(1,0,0,-1,-873.721,142.47202)" d="M1070.2235 63.34328 1058.047 75.51978H1047.4795L1061.4104 61.58983 1042.8379 16.75537 1049.7411 13.89606Z" fill="#ffffff"/>
<path transform="matrix(1,0,0,-1,-873.721,142.47202)" stroke-width=".3985" stroke-linecap="butt" stroke-miterlimit="10" stroke-linejoin="miter" fill="none" stroke="#000000" d="M1070.2235 63.34328 1058.047 75.51978H1047.4795L1061.4104 61.58983 1042.8379 16.75537 1049.7411 13.89606Z"/>
<path transform="matrix(1,0,0,-1,-873.721,142.47202)" d="M1009.613 82.99185H992.39736L984.9253 75.51978H1004.6197L1023.19528 30.67935 1030.0985 33.53865Z" fill="#ffffff"/>
<path transform="matrix(1,0,0,-1,-873.721,142.47202)" stroke-width=".3985" stroke-linecap="butt" stroke-miterlimit="10" stroke-linejoin="miter" fill="none" stroke="#000000" d="M1009.613 82.99185H992.39736L984.9253 75.51978H1004.6197L1023.19528 30.67935 1030.0985 33.53865Z"/>
<path transform="matrix(1,0,0,-1,-873.721,142.47202)" d="M1035.8519 19.64957 1032.9578 26.63545 1026.0546 23.77614 1030.1323 13.92993 1063.7617 0 1073.5242 4.04388Z" fill="#ffffff"/>
<path transform="matrix(1,0,0,-1,-873.721,142.47202)" stroke-width=".3985" stroke-linecap="butt" stroke-miterlimit="10" stroke-linejoin="miter" fill="none" stroke="#000000" d="M1035.8519 19.64957 1032.9578 26.63545 1026.0546 23.77614 1030.1323 13.92993 1063.7617 0 1073.5242 4.04388Z"/>
<path transform="matrix(1,0,0,-1,-873.721,142.47202)" d="M1099.1942-6.58937 1083.2868 0 1073.5242-4.04388 1091.7222-11.58272V-75.51978H1058.047L1050.575-82.99284H1099.1942Z" fill="#ffffff"/>
<path transform="matrix(1,0,0,-1,-873.721,142.47202)" stroke-width=".3985" stroke-linecap="butt" stroke-miterlimit="10" stroke-linejoin="miter" fill="none" stroke="#000000" d="M1099.1942-6.58937 1083.2868 0 1073.5242-4.04388 1091.7222-11.58272V-75.51978H1058.047L1050.575-82.99284H1099.1942Z"/>
<path transform="matrix(1,0,0,-1,-873.721,142.47202)" d="M1022.79177-82.99284H1040.0075L1047.4795-75.51978H1027.7852L1009.20956-30.67935 1002.30636-33.53865Z" fill="#ffffff"/>
<path transform="matrix(1,0,0,-1,-873.721,142.47202)" stroke-width=".3985" stroke-linecap="butt" stroke-miterlimit="10" stroke-linejoin="miter" fill="none" stroke="#000000" d="M1022.79177-82.99284H1040.0075L1047.4795-75.51978H1027.7852L1009.20956-30.67935 1002.30636-33.53865Z"/>
<path transform="matrix(1,0,0,-1,-873.721,142.47202)" d="M996.5528-19.64957 999.447-26.63545 1006.3502-23.77614 1002.27249-13.92993 968.6431 0 958.8806-4.04388Z" fill="#ffffff"/>
<path transform="matrix(1,0,0,-1,-873.721,142.47202)" stroke-width=".3985" stroke-linecap="butt" stroke-miterlimit="10" stroke-linejoin="miter" fill="none" stroke="#000000" d="M996.5528-19.64957 999.447-26.63545 1006.3502-23.77614 1002.27249-13.92993 968.6431 0 958.8806-4.04388Z"/>
<path transform="matrix(1,0,0,-1,-873.721,142.47202)" d="M933.2105 6.58937 949.11807 0 958.8806 4.04388 940.6826 11.58272V75.51978H974.3578L981.82986 82.99185H933.2105Z" fill="#ffffff"/>
<path transform="matrix(1,0,0,-1,-873.721,142.47202)" stroke-width=".3985" stroke-linecap="butt" stroke-miterlimit="10" stroke-linejoin="miter" fill="none" stroke="#000000" d="M933.2105 6.58937 949.11807 0 958.8806 4.04388 940.6826 11.58272V75.51978H974.3578L981.82986 82.99185H933.2105Z"/>
</svg>
