<svg xmlns="http://www.w3.org/2000/svg" xmlns:xlink="http://www.w3.org/1999/xlink" xmlns:inkscape="http://www.inkscape.org/namespaces/inkscape" version="1.1" width="287.08" height="275.49" viewBox="0 0 287.08 275.49">
<path transform="matrix(1,0,0,-1,-1126.695,137.743)" d="M1264.365 18.1163 1262.1184 11.20013H1254.8425L1257.0932 4.27402 1251.2101 0 1257.0932-4.27402 1254.8425-11.20013H1262.1184L1264.365-18.1163 1270.2529-13.83827 1276.141-18.1163 1278.3876-11.20113H1285.6633L1283.4129-4.27402 1289.2958 0 1283.4129 4.27402 1285.6633 11.20113H1278.3876L1276.141 18.1163 1270.2529 13.83827Z" fill="#00a5d5"/>
<path transform="matrix(1,0,0,-1,-1126.695,137.743)" stroke-width=".3985" stroke-linecap="butt" stroke-miterlimit="10" stroke-linejoin="miter" fill="none" stroke="#000000" d="M1264.365 18.1163 1262.1184 11.20013H1254.8425L1257.0932 4.27402 1251.2101 0 1257.0932-4.27402 1254.8425-11.20013H1262.1184L1264.365-18.1163 1270.2529-13.83827 1276.141-18.1163 1278.3876-11.20113H1285.6633L1283.4129-4.27402 1289.2958 0 1283.4129 4.27402 1285.6633 11.20113H1278.3876L1276.141 18.1163 1270.2529 13.83827Z"/>
<path transform="matrix(1,0,0,-1,-1126.695,137.743)" d="M1258.0088 22.73404 1248.9566 29.31046 1252.4137 18.67221H1256.6887Z" fill="#59c3e1"/>
<path transform="matrix(1,0,0,-1,-1126.695,137.743)" stroke-width=".3985" stroke-linecap="butt" stroke-miterlimit="10" stroke-linejoin="miter" fill="none" stroke="#000000" d="M1258.0088 22.73404 1248.9566 29.31046 1252.4137 18.67221H1256.6887Z"/>
<path transform="matrix(1,0,0,-1,-1126.695,137.743)" d="M1288.0923-18.6732H1283.8173L1282.4972-22.73404 1291.5494-29.31046Z" fill="#59c3e1"/>
<path transform="matrix(1,0,0,-1,-1126.695,137.743)" stroke-width=".3985" stroke-linecap="butt" stroke-miterlimit="10" stroke-linejoin="miter" fill="none" stroke="#000000" d="M1288.0923-18.6732H1283.8173L1282.4972-22.73404 1291.5494-29.31046Z"/>
<path transform="matrix(1,0,0,-1,-1126.695,137.743)" d="M1252.4137-18.67221 1248.9566-29.31046 1258.0088-22.73404 1256.6887-18.67221Z" fill="#59c3e1"/>
<path transform="matrix(1,0,0,-1,-1126.695,137.743)" stroke-width=".3985" stroke-linecap="butt" stroke-miterlimit="10" stroke-linejoin="miter" fill="none" stroke="#000000" d="M1252.4137-18.67221 1248.9566-29.31046 1258.0088-22.73404 1256.6887-18.67221Z"/>
<path transform="matrix(1,0,0,-1,-1126.695,137.743)" d="M1282.4972 22.73404 1283.8173 18.6732H1288.0923L1291.5494 29.31046Z" fill="#59c3e1"/>
<path transform="matrix(1,0,0,-1,-1126.695,137.743)" stroke-width=".3985" stroke-linecap="butt" stroke-miterlimit="10" stroke-linejoin="miter" fill="none" stroke="#000000" d="M1282.4972 22.73404 1283.8173 18.6732H1288.0923L1291.5494 29.31046Z"/>
<path transform="matrix(1,0,0,-1,-1126.695,137.743)" d="M1266.7919-25.58838 1270.2529-36.24057 1273.714-25.58838 1270.2529-23.07376Z" fill="#59c3e1"/>
<path transform="matrix(1,0,0,-1,-1126.695,137.743)" stroke-width=".3985" stroke-linecap="butt" stroke-miterlimit="10" stroke-linejoin="miter" fill="none" stroke="#000000" d="M1266.7919-25.58838 1270.2529-36.24057 1273.714-25.58838 1270.2529-23.07376Z"/>
<path transform="matrix(1,0,0,-1,-1126.695,137.743)" d="M1273.714 25.58838 1270.2529 36.24057 1266.7919 25.58838 1270.2529 23.07376Z" fill="#59c3e1"/>
<path transform="matrix(1,0,0,-1,-1126.695,137.743)" stroke-width=".3985" stroke-linecap="butt" stroke-miterlimit="10" stroke-linejoin="miter" fill="none" stroke="#000000" d="M1273.714 25.58838 1270.2529 36.24057 1266.7919 25.58838 1270.2529 23.07376Z"/>
<path transform="matrix(1,0,0,-1,-1126.695,137.743)" d="M1246.986 11.20013H1235.7937L1244.8539 4.61774 1248.309 7.12836Z" fill="#59c3e1"/>
<path transform="matrix(1,0,0,-1,-1126.695,137.743)" stroke-width=".3985" stroke-linecap="butt" stroke-miterlimit="10" stroke-linejoin="miter" fill="none" stroke="#000000" d="M1246.986 11.20013H1235.7937L1244.8539 4.61774 1248.309 7.12836Z"/>
<path transform="matrix(1,0,0,-1,-1126.695,137.743)" d="M1293.52-11.20113H1304.7122L1295.6521-4.61774 1292.197-7.12836Z" fill="#59c3e1"/>
<path transform="matrix(1,0,0,-1,-1126.695,137.743)" stroke-width=".3985" stroke-linecap="butt" stroke-miterlimit="10" stroke-linejoin="miter" fill="none" stroke="#000000" d="M1293.52-11.20113H1304.7122L1295.6521-4.61774 1292.197-7.12836Z"/>
<path transform="matrix(1,0,0,-1,-1126.695,137.743)" d="M1244.8539-4.61774 1235.7937-11.20013H1246.986L1248.309-7.12836Z" fill="#59c3e1"/>
<path transform="matrix(1,0,0,-1,-1126.695,137.743)" stroke-width=".3985" stroke-linecap="butt" stroke-miterlimit="10" stroke-linejoin="miter" fill="none" stroke="#000000" d="M1244.8539-4.61774 1235.7937-11.20013H1246.986L1248.309-7.12836Z"/>
<path transform="matrix(1,0,0,-1,-1126.695,137.743)" d="M1295.6521 4.61774 1304.7122 11.20113H1293.52L1292.197 7.12836Z" fill="#59c3e1"/>
<path transform="matrix(1,0,0,-1,-1126.695,137.743)" stroke-width=".3985" stroke-linecap="butt" stroke-miterlimit="10" stroke-linejoin="miter" fill="none" stroke="#000000" d="M1295.6521 4.61774 1304.7122 11.20113H1293.52L1292.197 7.12836Z"/>
<path transform="matrix(1,0,0,-1,-1126.695,137.743)" d="M1250.0585-62.14575H1261.8374L1266.3247-48.33237 1260.4357-30.20612 1245.0282-41.40128 1240.535-55.22661Z" fill="#a1d8e1"/>
<path transform="matrix(1,0,0,-1,-1126.695,137.743)" stroke-width=".3985" stroke-linecap="butt" stroke-miterlimit="10" stroke-linejoin="miter" fill="none" stroke="#000000" d="M1250.0585-62.14575H1261.8374L1266.3247-48.33237 1260.4357-30.20612 1245.0282-41.40128 1240.535-55.22661Z"/>
<path transform="matrix(1,0,0,-1,-1126.695,137.743)" d="M1223.0823 11.20013H1208.5505L1204.9121 0 1208.5505-11.20013H1223.0823L1238.4977 0Z" fill="#a1d8e1"/>
<path transform="matrix(1,0,0,-1,-1126.695,137.743)" stroke-width=".3985" stroke-linecap="butt" stroke-miterlimit="10" stroke-linejoin="miter" fill="none" stroke="#000000" d="M1223.0823 11.20013H1208.5505L1204.9121 0 1208.5505-11.20013H1223.0823L1238.4977 0Z"/>
<path transform="matrix(1,0,0,-1,-1126.695,137.743)" d="M1290.4475 62.14575H1278.6686L1274.1813 48.33237 1280.0703 30.20612 1295.4777 41.40128 1299.971 55.22661Z" fill="#a1d8e1"/>
<path transform="matrix(1,0,0,-1,-1126.695,137.743)" stroke-width=".3985" stroke-linecap="butt" stroke-miterlimit="10" stroke-linejoin="miter" fill="none" stroke="#000000" d="M1290.4475 62.14575H1278.6686L1274.1813 48.33237 1280.0703 30.20612 1295.4777 41.40128 1299.971 55.22661Z"/>
<path transform="matrix(1,0,0,-1,-1126.695,137.743)" d="M1317.4237-11.20113H1331.9555L1335.5938 0 1331.9555 11.20113H1317.4237L1302.0083 0Z" fill="#a1d8e1"/>
<path transform="matrix(1,0,0,-1,-1126.695,137.743)" stroke-width=".3985" stroke-linecap="butt" stroke-miterlimit="10" stroke-linejoin="miter" fill="none" stroke="#000000" d="M1317.4237-11.20113H1331.9555L1335.5938 0 1331.9555 11.20113H1317.4237L1302.0083 0Z"/>
<path transform="matrix(1,0,0,-1,-1126.695,137.743)" d="M1274.1813-48.33237 1278.6686-62.14575H1290.4475L1299.971-55.22661 1295.4777-41.40128 1280.0703-30.20612Z" fill="#a1d8e1"/>
<path transform="matrix(1,0,0,-1,-1126.695,137.743)" stroke-width=".3985" stroke-linecap="butt" stroke-miterlimit="10" stroke-linejoin="miter" fill="none" stroke="#000000" d="M1274.1813-48.33237 1278.6686-62.14575H1290.4475L1299.971-55.22661 1295.4777-41.40128 1280.0703-30.20612Z"/>
<path transform="matrix(1,0,0,-1,-1126.695,137.743)" d="M1266.3247 48.33237 1261.8374 62.14575H1250.0585L1240.535 55.22661 1245.0282 41.40128 1260.4357 30.20612Z" fill="#a1d8e1"/>
<path transform="matrix(1,0,0,-1,-1126.695,137.743)" stroke-width=".3985" stroke-linecap="butt" stroke-miterlimit="10" stroke-linejoin="miter" fill="none" stroke="#000000" d="M1266.3247 48.33237 1261.8374 62.14575H1250.0585L1240.535 55.22661 1245.0282 41.40128 1260.4357 30.20612Z"/>
<path transform="matrix(1,0,0,-1,-1126.695,137.743)" d="M1238.672 36.78354 1226.9149 45.3256 1217.3926 38.40646 1213.7551 27.2133 1225.5103 18.67221H1244.557Z" fill="#a1d8e1"/>
<path transform="matrix(1,0,0,-1,-1126.695,137.743)" stroke-width=".3985" stroke-linecap="butt" stroke-miterlimit="10" stroke-linejoin="miter" fill="none" stroke="#000000" d="M1238.672 36.78354 1226.9149 45.3256 1217.3926 38.40646 1213.7551 27.2133 1225.5103 18.67221H1244.557Z"/>
<path transform="matrix(1,0,0,-1,-1126.695,137.743)" d="M1301.834-36.78354 1313.5911-45.3256 1323.1134-38.40646 1326.7509-27.2133 1314.9957-18.6732H1295.949Z" fill="#a1d8e1"/>
<path transform="matrix(1,0,0,-1,-1126.695,137.743)" stroke-width=".3985" stroke-linecap="butt" stroke-miterlimit="10" stroke-linejoin="miter" fill="none" stroke="#000000" d="M1301.834-36.78354 1313.5911-45.3256 1323.1134-38.40646 1326.7509-27.2133 1314.9957-18.6732H1295.949Z"/>
<path transform="matrix(1,0,0,-1,-1126.695,137.743)" d="M1225.5103-18.67221 1213.7551-27.2133 1217.3926-38.40646 1226.9149-45.3256 1238.672-36.78354 1244.557-18.67221Z" fill="#a1d8e1"/>
<path transform="matrix(1,0,0,-1,-1126.695,137.743)" stroke-width=".3985" stroke-linecap="butt" stroke-miterlimit="10" stroke-linejoin="miter" fill="none" stroke="#000000" d="M1225.5103-18.67221 1213.7551-27.2133 1217.3926-38.40646 1226.9149-45.3256 1238.672-36.78354 1244.557-18.67221Z"/>
<path transform="matrix(1,0,0,-1,-1126.695,137.743)" d="M1314.9957 18.6732 1326.7509 27.2133 1323.1134 38.40646 1313.5911 45.3256 1301.834 36.78354 1295.949 18.6732Z" fill="#a1d8e1"/>
<path transform="matrix(1,0,0,-1,-1126.695,137.743)" stroke-width=".3985" stroke-linecap="butt" stroke-miterlimit="10" stroke-linejoin="miter" fill="none" stroke="#000000" d="M1314.9957 18.6732 1326.7509 27.2133 1323.1134 38.40646 1313.5911 45.3256 1301.834 36.78354 1295.949 18.6732Z"/>
<path transform="matrix(1,0,0,-1,-1126.695,137.743)" d="M1260.343-69.61684 1270.2529-76.81693 1280.163-69.61684H1273.2399L1270.2529-60.42418 1267.2661-69.61684Z" fill="#4cbbb4"/>
<path transform="matrix(1,0,0,-1,-1126.695,137.743)" stroke-width=".3985" stroke-linecap="butt" stroke-miterlimit="10" stroke-linejoin="miter" fill="none" stroke="#000000" d="M1260.343-69.61684 1270.2529-76.81693 1280.163-69.61684H1273.2399L1270.2529-60.42418 1267.2661-69.61684Z"/>
<path transform="matrix(1,0,0,-1,-1126.695,137.743)" d="M1212.7977 18.67221 1204.971 24.35896 1207.1079 30.93538 1197.2 23.73628 1200.9839 12.0908 1203.1218 18.67221Z" fill="#4cbbb4"/>
<path transform="matrix(1,0,0,-1,-1126.695,137.743)" stroke-width=".3985" stroke-linecap="butt" stroke-miterlimit="10" stroke-linejoin="miter" fill="none" stroke="#000000" d="M1212.7977 18.67221 1204.971 24.35896 1207.1079 30.93538 1197.2 23.73628 1200.9839 12.0908 1203.1218 18.67221Z"/>
<path transform="matrix(1,0,0,-1,-1126.695,137.743)" d="M1280.163 69.61684 1270.2529 76.81693 1260.343 69.61684H1267.2661L1270.2529 60.42418 1273.2399 69.61684Z" fill="#4cbbb4"/>
<path transform="matrix(1,0,0,-1,-1126.695,137.743)" stroke-width=".3985" stroke-linecap="butt" stroke-miterlimit="10" stroke-linejoin="miter" fill="none" stroke="#000000" d="M1280.163 69.61684 1270.2529 76.81693 1260.343 69.61684H1267.2661L1270.2529 60.42418 1273.2399 69.61684Z"/>
<path transform="matrix(1,0,0,-1,-1126.695,137.743)" d="M1327.7083-18.6732 1335.535-24.35896 1333.398-30.93538 1343.306-23.73628 1339.5221-12.0908 1337.3842-18.6732Z" fill="#4cbbb4"/>
<path transform="matrix(1,0,0,-1,-1126.695,137.743)" stroke-width=".3985" stroke-linecap="butt" stroke-miterlimit="10" stroke-linejoin="miter" fill="none" stroke="#000000" d="M1327.7083-18.6732 1335.535-24.35896 1333.398-30.93538 1343.306-23.73628 1339.5221-12.0908 1337.3842-18.6732Z"/>
<path transform="matrix(1,0,0,-1,-1126.695,137.743)" d="M1339.5221 12.0908 1343.306 23.73628 1333.398 30.93538 1335.535 24.35896 1327.7083 18.6732H1337.3842Z" fill="#4cbbb4"/>
<path transform="matrix(1,0,0,-1,-1126.695,137.743)" stroke-width=".3985" stroke-linecap="butt" stroke-miterlimit="10" stroke-linejoin="miter" fill="none" stroke="#000000" d="M1339.5221 12.0908 1343.306 23.73628 1333.398 30.93538 1335.535 24.35896 1327.7083 18.6732H1337.3842Z"/>
<path transform="matrix(1,0,0,-1,-1126.695,137.743)" d="M1200.9839-12.0908 1197.2-23.73628 1207.1079-30.93538 1204.971-24.35896 1212.7977-18.67221H1203.1218Z" fill="#4cbbb4"/>
<path transform="matrix(1,0,0,-1,-1126.695,137.743)" stroke-width=".3985" stroke-linecap="butt" stroke-miterlimit="10" stroke-linejoin="miter" fill="none" stroke="#000000" d="M1200.9839-12.0908 1197.2-23.73628 1207.1079-30.93538 1204.971-24.35896 1212.7977-18.67221H1203.1218Z"/>
<path transform="matrix(1,0,0,-1,-1126.695,137.743)" d="M1237.346 62.14575H1225.1047L1221.3198 50.49628 1226.9149 54.5611 1234.7427 48.87436 1231.7509 58.07994Z" fill="#4cbbb4"/>
<path transform="matrix(1,0,0,-1,-1126.695,137.743)" stroke-width=".3985" stroke-linecap="butt" stroke-miterlimit="10" stroke-linejoin="miter" fill="none" stroke="#000000" d="M1237.346 62.14575H1225.1047L1221.3198 50.49628 1226.9149 54.5611 1234.7427 48.87436 1231.7509 58.07994Z"/>
<path transform="matrix(1,0,0,-1,-1126.695,137.743)" d="M1303.16-62.14575H1315.4013L1319.1862-50.49628 1313.5911-54.5611 1305.7633-48.87436 1308.7551-58.07994Z" fill="#4cbbb4"/>
<path transform="matrix(1,0,0,-1,-1126.695,137.743)" stroke-width=".3985" stroke-linecap="butt" stroke-miterlimit="10" stroke-linejoin="miter" fill="none" stroke="#000000" d="M1303.16-62.14575H1315.4013L1319.1862-50.49628 1313.5911-54.5611 1305.7633-48.87436 1308.7551-58.07994Z"/>
<path transform="matrix(1,0,0,-1,-1126.695,137.743)" d="M1221.3198-50.49628 1225.1047-62.14575H1237.346L1231.7509-58.07994 1234.7427-48.87436 1226.9149-54.5611Z" fill="#4cbbb4"/>
<path transform="matrix(1,0,0,-1,-1126.695,137.743)" stroke-width=".3985" stroke-linecap="butt" stroke-miterlimit="10" stroke-linejoin="miter" fill="none" stroke="#000000" d="M1221.3198-50.49628 1225.1047-62.14575H1237.346L1231.7509-58.07994 1234.7427-48.87436 1226.9149-54.5611Z"/>
<path transform="matrix(1,0,0,-1,-1126.695,137.743)" d="M1319.1862 50.49628 1315.4013 62.14575H1303.16L1308.7551 58.07994 1305.7633 48.87436 1313.5911 54.5611Z" fill="#4cbbb4"/>
<path transform="matrix(1,0,0,-1,-1126.695,137.743)" stroke-width=".3985" stroke-linecap="butt" stroke-miterlimit="10" stroke-linejoin="miter" fill="none" stroke="#000000" d="M1319.1862 50.49628 1315.4013 62.14575H1303.16L1308.7551 58.07994 1305.7633 48.87436 1313.5911 54.5611Z"/>
<path transform="matrix(1,0,0,-1,-1126.695,137.743)" d="M1194.7721-31.20937 1184.7217-62.14575H1217.248L1211.0363-43.0252Z" fill="#86cab6"/>
<path transform="matrix(1,0,0,-1,-1126.695,137.743)" stroke-width=".3985" stroke-linecap="butt" stroke-miterlimit="10" stroke-linejoin="miter" fill="none" stroke="#000000" d="M1194.7721-31.20937 1184.7217-62.14575H1217.248L1211.0363-43.0252Z"/>
<path transform="matrix(1,0,0,-1,-1126.695,137.743)" d="M1345.7339 31.20937 1355.7843 62.14575H1323.2579L1329.4697 43.0252Z" fill="#86cab6"/>
<path transform="matrix(1,0,0,-1,-1126.695,137.743)" stroke-width=".3985" stroke-linecap="butt" stroke-miterlimit="10" stroke-linejoin="miter" fill="none" stroke="#000000" d="M1345.7339 31.20937 1355.7843 62.14575H1323.2579L1329.4697 43.0252Z"/>
<path transform="matrix(1,0,0,-1,-1126.695,137.743)" d="M1349.6622-19.11855 1375.9779 0 1349.6622 19.11855 1343.4505 0Z" fill="#86cab6"/>
<path transform="matrix(1,0,0,-1,-1126.695,137.743)" stroke-width=".3985" stroke-linecap="butt" stroke-miterlimit="10" stroke-linejoin="miter" fill="none" stroke="#000000" d="M1349.6622-19.11855 1375.9779 0 1349.6622 19.11855 1343.4505 0Z"/>
<path transform="matrix(1,0,0,-1,-1126.695,137.743)" d="M1190.8438 19.11855 1164.5281 0 1190.8438-19.11855 1197.0556 0Z" fill="#86cab6"/>
<path transform="matrix(1,0,0,-1,-1126.695,137.743)" stroke-width=".3985" stroke-linecap="butt" stroke-miterlimit="10" stroke-linejoin="miter" fill="none" stroke="#000000" d="M1190.8438 19.11855 1164.5281 0 1190.8438-19.11855 1197.0556 0Z"/>
<path transform="matrix(1,0,0,-1,-1126.695,137.743)" d="M1323.2579-62.14575H1355.7843L1345.7339-31.20937 1329.4697-43.0252Z" fill="#86cab6"/>
<path transform="matrix(1,0,0,-1,-1126.695,137.743)" stroke-width=".3985" stroke-linecap="butt" stroke-miterlimit="10" stroke-linejoin="miter" fill="none" stroke="#000000" d="M1323.2579-62.14575H1355.7843L1345.7339-31.20937 1329.4697-43.0252Z"/>
<path transform="matrix(1,0,0,-1,-1126.695,137.743)" d="M1217.248 62.14575H1184.7217L1194.7721 31.20937 1211.0363 43.0252Z" fill="#86cab6"/>
<path transform="matrix(1,0,0,-1,-1126.695,137.743)" stroke-width=".3985" stroke-linecap="butt" stroke-miterlimit="10" stroke-linejoin="miter" fill="none" stroke="#000000" d="M1217.248 62.14575H1184.7217L1194.7721 31.20937 1211.0363 43.0252Z"/>
<path transform="matrix(1,0,0,-1,-1126.695,137.743)" d="M1263.8967 81.43466 1237.5841 100.55122 1227.5326 69.61684H1247.6305Z" fill="#86cab6"/>
<path transform="matrix(1,0,0,-1,-1126.695,137.743)" stroke-width=".3985" stroke-linecap="butt" stroke-miterlimit="10" stroke-linejoin="miter" fill="none" stroke="#000000" d="M1263.8967 81.43466 1237.5841 100.55122 1227.5326 69.61684H1247.6305Z"/>
<path transform="matrix(1,0,0,-1,-1126.695,137.743)" d="M1276.6093-81.43466 1302.9219-100.55122 1312.9734-69.61684H1292.8755Z" fill="#86cab6"/>
<path transform="matrix(1,0,0,-1,-1126.695,137.743)" stroke-width=".3985" stroke-linecap="butt" stroke-miterlimit="10" stroke-linejoin="miter" fill="none" stroke="#000000" d="M1276.6093-81.43466 1302.9219-100.55122 1312.9734-69.61684H1292.8755Z"/>
<path transform="matrix(1,0,0,-1,-1126.695,137.743)" d="M1237.5841-100.55122 1263.8967-81.43466 1247.6305-69.61684H1227.5326Z" fill="#86cab6"/>
<path transform="matrix(1,0,0,-1,-1126.695,137.743)" stroke-width=".3985" stroke-linecap="butt" stroke-miterlimit="10" stroke-linejoin="miter" fill="none" stroke="#000000" d="M1237.5841-100.55122 1263.8967-81.43466 1247.6305-69.61684H1227.5326Z"/>
<path transform="matrix(1,0,0,-1,-1126.695,137.743)" d="M1312.9734 69.61684 1302.9219 100.55122 1276.6093 81.43466 1292.8755 69.61684Z" fill="#86cab6"/>
<path transform="matrix(1,0,0,-1,-1126.695,137.743)" stroke-width=".3985" stroke-linecap="butt" stroke-miterlimit="10" stroke-linejoin="miter" fill="none" stroke="#000000" d="M1312.9734 69.61684 1302.9219 100.55122 1276.6093 81.43466 1292.8755 69.61684Z"/>
<path transform="matrix(1,0,0,-1,-1126.695,137.743)" d="M1283.8173-18.6732H1288.0923L1285.6633-11.20113H1278.3876L1270.2529-36.24057 1274.1813-48.33237Z" fill="#ffffff"/>
<path transform="matrix(1,0,0,-1,-1126.695,137.743)" stroke-width=".3985" stroke-linecap="butt" stroke-miterlimit="10" stroke-linejoin="miter" fill="none" stroke="#000000" d="M1283.8173-18.6732H1288.0923L1285.6633-11.20113H1278.3876L1270.2529-36.24057 1274.1813-48.33237Z"/>
<path transform="matrix(1,0,0,-1,-1126.695,137.743)" d="M1267.2661-69.61684 1270.2529-60.42418 1266.3247-48.33237 1261.8374-62.14575H1225.1047L1227.5326-69.61684Z" fill="#ffffff"/>
<path transform="matrix(1,0,0,-1,-1126.695,137.743)" stroke-width=".3985" stroke-linecap="butt" stroke-miterlimit="10" stroke-linejoin="miter" fill="none" stroke="#000000" d="M1267.2661-69.61684 1270.2529-60.42418 1266.3247-48.33237 1261.8374-62.14575H1225.1047L1227.5326-69.61684Z"/>
<path transform="matrix(1,0,0,-1,-1126.695,137.743)" d="M1174.437-69.61684H1219.676L1217.248-62.14575H1184.7217L1200.9839-12.0908 1197.0556 0Z" fill="#ffffff"/>
<path transform="matrix(1,0,0,-1,-1126.695,137.743)" stroke-width=".3985" stroke-linecap="butt" stroke-miterlimit="10" stroke-linejoin="miter" fill="none" stroke="#000000" d="M1174.437-69.61684H1219.676L1217.248-62.14575H1184.7217L1200.9839-12.0908 1197.0556 0Z"/>
<path transform="matrix(1,0,0,-1,-1126.695,137.743)" d="M1203.1218 18.67221 1200.9839 12.0908 1204.9121 0 1208.5505 11.20013H1246.986L1244.557 18.67221Z" fill="#ffffff"/>
<path transform="matrix(1,0,0,-1,-1126.695,137.743)" stroke-width=".3985" stroke-linecap="butt" stroke-miterlimit="10" stroke-linejoin="miter" fill="none" stroke="#000000" d="M1203.1218 18.67221 1200.9839 12.0908 1204.9121 0 1208.5505 11.20013H1246.986L1244.557 18.67221Z"/>
<path transform="matrix(1,0,0,-1,-1126.695,137.743)" d="M1256.6887 18.67221H1252.4137L1254.8425 11.20013H1262.1184L1270.2529 36.24057 1266.3247 48.33237Z" fill="#ffffff"/>
<path transform="matrix(1,0,0,-1,-1126.695,137.743)" stroke-width=".3985" stroke-linecap="butt" stroke-miterlimit="10" stroke-linejoin="miter" fill="none" stroke="#000000" d="M1256.6887 18.67221H1252.4137L1254.8425 11.20013H1262.1184L1270.2529 36.24057 1266.3247 48.33237Z"/>
<path transform="matrix(1,0,0,-1,-1126.695,137.743)" d="M1273.2399 69.61684 1270.2529 60.42418 1274.1813 48.33237 1278.6686 62.14575H1315.4013L1312.9734 69.61684Z" fill="#ffffff"/>
<path transform="matrix(1,0,0,-1,-1126.695,137.743)" stroke-width=".3985" stroke-linecap="butt" stroke-miterlimit="10" stroke-linejoin="miter" fill="none" stroke="#000000" d="M1273.2399 69.61684 1270.2529 60.42418 1274.1813 48.33237 1278.6686 62.14575H1315.4013L1312.9734 69.61684Z"/>
<path transform="matrix(1,0,0,-1,-1126.695,137.743)" d="M1366.069 69.61684H1320.83L1323.2579 62.14575H1355.7843L1339.5221 12.0908 1343.4505 0Z" fill="#ffffff"/>
<path transform="matrix(1,0,0,-1,-1126.695,137.743)" stroke-width=".3985" stroke-linecap="butt" stroke-miterlimit="10" stroke-linejoin="miter" fill="none" stroke="#000000" d="M1366.069 69.61684H1320.83L1323.2579 62.14575H1355.7843L1339.5221 12.0908 1343.4505 0Z"/>
<path transform="matrix(1,0,0,-1,-1126.695,137.743)" d="M1337.3842-18.6732 1339.5221-12.0908 1335.5938 0 1331.9555-11.20113H1293.52L1295.949-18.6732Z" fill="#ffffff"/>
<path transform="matrix(1,0,0,-1,-1126.695,137.743)" stroke-width=".3985" stroke-linecap="butt" stroke-miterlimit="10" stroke-linejoin="miter" fill="none" stroke="#000000" d="M1337.3842-18.6732 1339.5221-12.0908 1335.5938 0 1331.9555-11.20113H1293.52L1295.949-18.6732Z"/>
<path transform="matrix(1,0,0,-1,-1126.695,137.743)" d="M1283.8173 18.6732 1282.4972 22.73404 1276.141 18.1163 1278.3876 11.20113H1304.7122L1314.9957 18.6732Z" fill="#ffffff"/>
<path transform="matrix(1,0,0,-1,-1126.695,137.743)" stroke-width=".3985" stroke-linecap="butt" stroke-miterlimit="10" stroke-linejoin="miter" fill="none" stroke="#000000" d="M1283.8173 18.6732 1282.4972 22.73404 1276.141 18.1163 1278.3876 11.20113H1304.7122L1314.9957 18.6732Z"/>
<path transform="matrix(1,0,0,-1,-1126.695,137.743)" d="M1337.3842 18.6732H1327.7083L1317.4237 11.20113H1331.9555L1343.306-23.73628 1349.6622-19.11855Z" fill="#ffffff"/>
<path transform="matrix(1,0,0,-1,-1126.695,137.743)" stroke-width=".3985" stroke-linecap="butt" stroke-miterlimit="10" stroke-linejoin="miter" fill="none" stroke="#000000" d="M1337.3842 18.6732H1327.7083L1317.4237 11.20113H1331.9555L1343.306-23.73628 1349.6622-19.11855Z"/>
<path transform="matrix(1,0,0,-1,-1126.695,137.743)" d="M1366.069-69.61684 1352.0902-26.59062 1345.7339-31.20937 1355.7843-62.14575H1303.16L1292.8755-69.61684Z" fill="#ffffff"/>
<path transform="matrix(1,0,0,-1,-1126.695,137.743)" stroke-width=".3985" stroke-linecap="butt" stroke-miterlimit="10" stroke-linejoin="miter" fill="none" stroke="#000000" d="M1366.069-69.61684 1352.0902-26.59062 1345.7339-31.20937 1355.7843-62.14575H1303.16L1292.8755-69.61684Z"/>
<path transform="matrix(1,0,0,-1,-1126.695,137.743)" d="M1273.2399-69.61684H1280.163L1290.4475-62.14575H1278.6686L1266.7919-25.58838 1260.4357-30.20612Z" fill="#ffffff"/>
<path transform="matrix(1,0,0,-1,-1126.695,137.743)" stroke-width=".3985" stroke-linecap="butt" stroke-miterlimit="10" stroke-linejoin="miter" fill="none" stroke="#000000" d="M1273.2399-69.61684H1280.163L1290.4475-62.14575H1278.6686L1266.7919-25.58838 1260.4357-30.20612Z"/>
<path transform="matrix(1,0,0,-1,-1126.695,137.743)" d="M1256.6887-18.67221 1258.0088-22.73404 1264.365-18.1163 1262.1184-11.20013H1235.7937L1225.5103-18.67221Z" fill="#ffffff"/>
<path transform="matrix(1,0,0,-1,-1126.695,137.743)" stroke-width=".3985" stroke-linecap="butt" stroke-miterlimit="10" stroke-linejoin="miter" fill="none" stroke="#000000" d="M1256.6887-18.67221 1258.0088-22.73404 1264.365-18.1163 1262.1184-11.20013H1235.7937L1225.5103-18.67221Z"/>
<path transform="matrix(1,0,0,-1,-1126.695,137.743)" d="M1203.1218-18.67221H1212.7977L1223.0823-11.20013H1208.5505L1197.2 23.73628 1190.8438 19.11855Z" fill="#ffffff"/>
<path transform="matrix(1,0,0,-1,-1126.695,137.743)" stroke-width=".3985" stroke-linecap="butt" stroke-miterlimit="10" stroke-linejoin="miter" fill="none" stroke="#000000" d="M1203.1218-18.67221H1212.7977L1223.0823-11.20013H1208.5505L1197.2 23.73628 1190.8438 19.11855Z"/>
<path transform="matrix(1,0,0,-1,-1126.695,137.743)" d="M1174.437 69.61684 1188.4158 26.59062 1194.7721 31.20937 1184.7217 62.14575H1237.346L1247.6305 69.61684Z" fill="#ffffff"/>
<path transform="matrix(1,0,0,-1,-1126.695,137.743)" stroke-width=".3985" stroke-linecap="butt" stroke-miterlimit="10" stroke-linejoin="miter" fill="none" stroke="#000000" d="M1174.437 69.61684 1188.4158 26.59062 1194.7721 31.20937 1184.7217 62.14575H1237.346L1247.6305 69.61684Z"/>
<path transform="matrix(1,0,0,-1,-1126.695,137.743)" d="M1267.2661 69.61684H1260.343L1250.0585 62.14575H1261.8374L1273.714 25.58838 1280.0703 30.20612Z" fill="#ffffff"/>
<path transform="matrix(1,0,0,-1,-1126.695,137.743)" stroke-width=".3985" stroke-linecap="butt" stroke-miterlimit="10" stroke-linejoin="miter" fill="none" stroke="#000000" d="M1267.2661 69.61684H1260.343L1250.0585 62.14575H1261.8374L1273.714 25.58838 1280.0703 30.20612Z"/>
<path transform="matrix(1,0,0,-1,-1126.695,137.743)" d="M1233.6558-112.64204 1270.2529-86.0524 1263.8967-81.43466 1237.5841-100.55122 1221.3198-50.49628 1211.0363-43.0252Z" fill="#ffffff"/>
<path transform="matrix(1,0,0,-1,-1126.695,137.743)" stroke-width=".3985" stroke-linecap="butt" stroke-miterlimit="10" stroke-linejoin="miter" fill="none" stroke="#000000" d="M1233.6558-112.64204 1270.2529-86.0524 1263.8967-81.43466 1237.5841-100.55122 1221.3198-50.49628 1211.0363-43.0252Z"/>
<path transform="matrix(1,0,0,-1,-1126.695,137.743)" d="M1204.971-24.35896 1207.1079-30.93538 1217.3926-38.40646 1213.7551-27.2133 1244.8539-4.61774 1238.4977 0Z" fill="#ffffff"/>
<path transform="matrix(1,0,0,-1,-1126.695,137.743)" stroke-width=".3985" stroke-linecap="butt" stroke-miterlimit="10" stroke-linejoin="miter" fill="none" stroke="#000000" d="M1204.971-24.35896 1207.1079-30.93538 1217.3926-38.40646 1213.7551-27.2133 1244.8539-4.61774 1238.4977 0Z"/>
<path transform="matrix(1,0,0,-1,-1126.695,137.743)" d="M1248.309 7.12836 1244.8539 4.61774 1251.2101 0 1257.0932 4.27402 1248.9566 29.31046 1238.672 36.78354Z" fill="#ffffff"/>
<path transform="matrix(1,0,0,-1,-1126.695,137.743)" stroke-width=".3985" stroke-linecap="butt" stroke-miterlimit="10" stroke-linejoin="miter" fill="none" stroke="#000000" d="M1248.309 7.12836 1244.8539 4.61774 1251.2101 0 1257.0932 4.27402 1248.9566 29.31046 1238.672 36.78354Z"/>
<path transform="matrix(1,0,0,-1,-1126.695,137.743)" d="M1231.7509 58.07994 1234.7427 48.87436 1245.0282 41.40128 1240.535 55.22661 1270.2529 76.81693 1263.8967 81.43466Z" fill="#ffffff"/>
<path transform="matrix(1,0,0,-1,-1126.695,137.743)" stroke-width=".3985" stroke-linecap="butt" stroke-miterlimit="10" stroke-linejoin="miter" fill="none" stroke="#000000" d="M1231.7509 58.07994 1234.7427 48.87436 1245.0282 41.40128 1240.535 55.22661 1270.2529 76.81693 1263.8967 81.43466Z"/>
<path transform="matrix(1,0,0,-1,-1126.695,137.743)" d="M1306.8502 112.64204 1270.2529 86.0524 1276.6093 81.43466 1302.9219 100.55122 1319.1862 50.49628 1329.4697 43.0252Z" fill="#ffffff"/>
<path transform="matrix(1,0,0,-1,-1126.695,137.743)" stroke-width=".3985" stroke-linecap="butt" stroke-miterlimit="10" stroke-linejoin="miter" fill="none" stroke="#000000" d="M1306.8502 112.64204 1270.2529 86.0524 1276.6093 81.43466 1302.9219 100.55122 1319.1862 50.49628 1329.4697 43.0252Z"/>
<path transform="matrix(1,0,0,-1,-1126.695,137.743)" d="M1335.535 24.35896 1333.398 30.93538 1323.1134 38.40646 1326.7509 27.2133 1295.6521 4.61774 1302.0083 0Z" fill="#ffffff"/>
<path transform="matrix(1,0,0,-1,-1126.695,137.743)" stroke-width=".3985" stroke-linecap="butt" stroke-miterlimit="10" stroke-linejoin="miter" fill="none" stroke="#000000" d="M1335.535 24.35896 1333.398 30.93538 1323.1134 38.40646 1326.7509 27.2133 1295.6521 4.61774 1302.0083 0Z"/>
<path transform="matrix(1,0,0,-1,-1126.695,137.743)" d="M1292.197-7.12836 1295.6521-4.61774 1289.2958 0 1283.4129-4.27402 1291.5494-29.31046 1301.834-36.78354Z" fill="#ffffff"/>
<path transform="matrix(1,0,0,-1,-1126.695,137.743)" stroke-width=".3985" stroke-linecap="butt" stroke-miterlimit="10" stroke-linejoin="miter" fill="none" stroke="#000000" d="M1292.197-7.12836 1295.6521-4.61774 1289.2958 0 1283.4129-4.27402 1291.5494-29.31046 1301.834-36.78354Z"/>
<path transform="matrix(1,0,0,-1,-1126.695,137.743)" d="M1308.7551-58.07994 1305.7633-48.87436 1295.4777-41.40128 1299.971-55.22661 1270.2529-76.81693 1276.6093-81.43466Z" fill="#ffffff"/>
<path transform="matrix(1,0,0,-1,-1126.695,137.743)" stroke-width=".3985" stroke-linecap="butt" stroke-miterlimit="10" stroke-linejoin="miter" fill="none" stroke="#000000" d="M1308.7551-58.07994 1305.7633-48.87436 1295.4777-41.40128 1299.971-55.22661 1270.2529-76.81693 1276.6093-81.43466Z"/>
<path transform="matrix(1,0,0,-1,-1126.695,137.743)" d="M1313.5911-54.5611 1319.1862-50.49628 1323.1134-38.40646 1313.5911-45.3256 1282.4972-22.73404 1280.0703-30.20612Z" fill="#ffffff"/>
<path transform="matrix(1,0,0,-1,-1126.695,137.743)" stroke-width=".3985" stroke-linecap="butt" stroke-miterlimit="10" stroke-linejoin="miter" fill="none" stroke="#000000" d="M1313.5911-54.5611 1319.1862-50.49628 1323.1134-38.40646 1313.5911-45.3256 1282.4972-22.73404 1280.0703-30.20612Z"/>
<path transform="matrix(1,0,0,-1,-1126.695,137.743)" d="M1270.2529-23.07376 1273.714-25.58838 1276.141-18.1163 1270.2529-13.83827 1248.9566-29.31046 1245.0282-41.40128Z" fill="#ffffff"/>
<path transform="matrix(1,0,0,-1,-1126.695,137.743)" stroke-width=".3985" stroke-linecap="butt" stroke-miterlimit="10" stroke-linejoin="miter" fill="none" stroke="#000000" d="M1270.2529-23.07376 1273.714-25.58838 1276.141-18.1163 1270.2529-13.83827 1248.9566-29.31046 1245.0282-41.40128Z"/>
<path transform="matrix(1,0,0,-1,-1126.695,137.743)" d="M1226.9149-54.5611 1234.7427-48.87436 1238.672-36.78354 1226.9149-45.3256 1197.2-23.73628 1194.7721-31.20937Z" fill="#ffffff"/>
<path transform="matrix(1,0,0,-1,-1126.695,137.743)" stroke-width=".3985" stroke-linecap="butt" stroke-miterlimit="10" stroke-linejoin="miter" fill="none" stroke="#000000" d="M1226.9149-54.5611 1234.7427-48.87436 1238.672-36.78354 1226.9149-45.3256 1197.2-23.73628 1194.7721-31.20937Z"/>
<path transform="matrix(1,0,0,-1,-1126.695,137.743)" d="M1151.8156 0 1188.4158-26.59062 1190.8438-19.11855 1164.5281 0 1207.1079 30.93538 1211.0363 43.0252Z" fill="#ffffff"/>
<path transform="matrix(1,0,0,-1,-1126.695,137.743)" stroke-width=".3985" stroke-linecap="butt" stroke-miterlimit="10" stroke-linejoin="miter" fill="none" stroke="#000000" d="M1151.8156 0 1188.4158-26.59062 1190.8438-19.11855 1164.5281 0 1207.1079 30.93538 1211.0363 43.0252Z"/>
<path transform="matrix(1,0,0,-1,-1126.695,137.743)" d="M1226.9149 54.5611 1221.3198 50.49628 1217.3926 38.40646 1226.9149 45.3256 1258.0088 22.73404 1260.4357 30.20612Z" fill="#ffffff"/>
<path transform="matrix(1,0,0,-1,-1126.695,137.743)" stroke-width=".3985" stroke-linecap="butt" stroke-miterlimit="10" stroke-linejoin="miter" fill="none" stroke="#000000" d="M1226.9149 54.5611 1221.3198 50.49628 1217.3926 38.40646 1226.9149 45.3256 1258.0088 22.73404 1260.4357 30.20612Z"/>
<path transform="matrix(1,0,0,-1,-1126.695,137.743)" d="M1270.2529 23.07376 1266.7919 25.58838 1264.365 18.1163 1270.2529 13.83827 1291.5494 29.31046 1295.4777 41.40128Z" fill="#ffffff"/>
<path transform="matrix(1,0,0,-1,-1126.695,137.743)" stroke-width=".3985" stroke-linecap="butt" stroke-miterlimit="10" stroke-linejoin="miter" fill="none" stroke="#000000" d="M1270.2529 23.07376 1266.7919 25.58838 1264.365 18.1163 1270.2529 13.83827 1291.5494 29.31046 1295.4777 41.40128Z"/>
<path transform="matrix(1,0,0,-1,-1126.695,137.743)" d="M1313.5911 54.5611 1305.7633 48.87436 1301.834 36.78354 1313.5911 45.3256 1343.306 23.73628 1345.7339 31.20937Z" fill="#ffffff"/>
<path transform="matrix(1,0,0,-1,-1126.695,137.743)" stroke-width=".3985" stroke-linecap="butt" stroke-miterlimit="10" stroke-linejoin="miter" fill="none" stroke="#000000" d="M1313.5911 54.5611 1305.7633 48.87436 1301.834 36.78354 1313.5911 45.3256 1343.306 23.73628 1345.7339 31.20937Z"/>
<path transform="matrix(1,0,0,-1,-1126.695,137.743)" d="M1388.6904 0 1352.0902 26.59062 1349.6622 19.11855 1375.9779 0 1333.398-30.93538 1329.4697-43.0252Z" fill="#ffffff"/>
<path transform="matrix(1,0,0,-1,-1126.695,137.743)" stroke-width=".3985" stroke-linecap="butt" stroke-miterlimit="10" stroke-linejoin="miter" fill="none" stroke="#000000" d="M1388.6904 0 1352.0902 26.59062 1349.6622 19.11855 1375.9779 0 1333.398-30.93538 1329.4697-43.0252Z"/>
<path transform="matrix(1,0,0,-1,-1126.695,137.743)" d="M1204.971 24.35896 1212.7977 18.67221H1225.5103L1213.7551 27.2133 1225.1047 62.14575H1217.248Z" fill="#ffffff"/>
<path transform="matrix(1,0,0,-1,-1126.695,137.743)" stroke-width=".3985" stroke-linecap="butt" stroke-miterlimit="10" stroke-linejoin="miter" fill="none" stroke="#000000" d="M1204.971 24.35896 1212.7977 18.67221H1225.5103L1213.7551 27.2133 1225.1047 62.14575H1217.248Z"/>
<path transform="matrix(1,0,0,-1,-1126.695,137.743)" d="M1233.6558 112.64204 1219.676 69.61684H1227.5326L1237.5841 100.55122 1280.163 69.61684H1292.8755Z" fill="#ffffff"/>
<path transform="matrix(1,0,0,-1,-1126.695,137.743)" stroke-width=".3985" stroke-linecap="butt" stroke-miterlimit="10" stroke-linejoin="miter" fill="none" stroke="#000000" d="M1233.6558 112.64204 1219.676 69.61684H1227.5326L1237.5841 100.55122 1280.163 69.61684H1292.8755Z"/>
<path transform="matrix(1,0,0,-1,-1126.695,137.743)" d="M1308.7551 58.07994 1303.16 62.14575H1290.4475L1299.971 55.22661 1288.0923 18.6732H1295.949Z" fill="#ffffff"/>
<path transform="matrix(1,0,0,-1,-1126.695,137.743)" stroke-width=".3985" stroke-linecap="butt" stroke-miterlimit="10" stroke-linejoin="miter" fill="none" stroke="#000000" d="M1308.7551 58.07994 1303.16 62.14575H1290.4475L1299.971 55.22661 1288.0923 18.6732H1295.949Z"/>
<path transform="matrix(1,0,0,-1,-1126.695,137.743)" d="M1292.197 7.12836 1293.52 11.20113H1285.6633L1283.4129 4.27402 1304.7122-11.20113H1317.4237Z" fill="#ffffff"/>
<path transform="matrix(1,0,0,-1,-1126.695,137.743)" stroke-width=".3985" stroke-linecap="butt" stroke-miterlimit="10" stroke-linejoin="miter" fill="none" stroke="#000000" d="M1292.197 7.12836 1293.52 11.20113H1285.6633L1283.4129 4.27402 1304.7122-11.20113H1317.4237Z"/>
<path transform="matrix(1,0,0,-1,-1126.695,137.743)" d="M1335.535-24.35896 1327.7083-18.6732H1314.9957L1326.7509-27.2133 1315.4013-62.14575H1323.2579Z" fill="#ffffff"/>
<path transform="matrix(1,0,0,-1,-1126.695,137.743)" stroke-width=".3985" stroke-linecap="butt" stroke-miterlimit="10" stroke-linejoin="miter" fill="none" stroke="#000000" d="M1335.535-24.35896 1327.7083-18.6732H1314.9957L1326.7509-27.2133 1315.4013-62.14575H1323.2579Z"/>
<path transform="matrix(1,0,0,-1,-1126.695,137.743)" d="M1306.8502-112.64204 1320.83-69.61684H1312.9734L1302.9219-100.55122 1260.343-69.61684H1247.6305Z" fill="#ffffff"/>
<path transform="matrix(1,0,0,-1,-1126.695,137.743)" stroke-width=".3985" stroke-linecap="butt" stroke-miterlimit="10" stroke-linejoin="miter" fill="none" stroke="#000000" d="M1306.8502-112.64204 1320.83-69.61684H1312.9734L1302.9219-100.55122 1260.343-69.61684H1247.6305Z"/>
<path transform="matrix(1,0,0,-1,-1126.695,137.743)" d="M1231.7509-58.07994 1237.346-62.14575H1250.0585L1240.535-55.22661 1252.4137-18.67221H1244.557Z" fill="#ffffff"/>
<path transform="matrix(1,0,0,-1,-1126.695,137.743)" stroke-width=".3985" stroke-linecap="butt" stroke-miterlimit="10" stroke-linejoin="miter" fill="none" stroke="#000000" d="M1231.7509-58.07994 1237.346-62.14575H1250.0585L1240.535-55.22661 1252.4137-18.67221H1244.557Z"/>
<path transform="matrix(1,0,0,-1,-1126.695,137.743)" d="M1248.309-7.12836 1246.986-11.20013H1254.8425L1257.0932-4.27402 1235.7937 11.20013H1223.0823Z" fill="#ffffff"/>
<path transform="matrix(1,0,0,-1,-1126.695,137.743)" stroke-width=".3985" stroke-linecap="butt" stroke-miterlimit="10" stroke-linejoin="miter" fill="none" stroke="#000000" d="M1248.309-7.12836 1246.986-11.20013H1254.8425L1257.0932-4.27402 1235.7937 11.20013H1223.0823Z"/>
</svg>
