<svg xmlns="http://www.w3.org/2000/svg" xmlns:xlink="http://www.w3.org/1999/xlink" xmlns:inkscape="http://www.inkscape.org/namespaces/inkscape" version="1.1" width="282.66" height="276.84" viewBox="0 0 282.66 276.84">
<path transform="matrix(1,0,0,-1,-1636.999,138.42099)" d="M1749.2888 6.63618 1757.6117 0 1749.2888-6.63618 1759.663-9.00433 1755.0473-18.58952 1765.4205-16.22237V-26.86261L1773.7394-20.2284 1778.3543-29.8096 1782.9689-20.2284 1791.2879-26.86261V-16.22237L1801.661-18.58952 1797.0453-9.00433 1807.4196-6.63618 1799.0967 0 1807.4196 6.63618 1797.0453 9.00433 1801.661 18.58952 1791.2879 16.22237V26.86261L1782.9689 20.2284 1778.3543 29.8096 1773.7394 20.2284 1765.4205 26.86261V16.22237L1755.0473 18.58952 1759.663 9.00433Z" fill="#ad80af"/>
<path transform="matrix(1,0,0,-1,-1636.999,138.42099)" stroke-width=".3985" stroke-linecap="butt" stroke-miterlimit="10" stroke-linejoin="miter" fill="none" stroke="#000000" d="M1749.2888 6.63618 1757.6117 0 1749.2888-6.63618 1759.663-9.00433 1755.0473-18.58952 1765.4205-16.22237V-26.86261L1773.7394-20.2284 1778.3543-29.8096 1782.9689-20.2284 1791.2879-26.86261V-16.22237L1801.661-18.58952 1797.0453-9.00433 1807.4196-6.63618 1799.0967 0 1807.4196 6.63618 1797.0453 9.00433 1801.661 18.58952 1791.2879 16.22237V26.86261L1782.9689 20.2284 1778.3543 29.8096 1773.7394 20.2284 1765.4205 26.86261V16.22237L1755.0473 18.58952 1759.663 9.00433Z"/>
<path transform="matrix(1,0,0,-1,-1636.999,138.42099)" d="M1739.9717 4.50914 1720.2145 0 1739.9717-4.50914 1745.6265 0Z" fill="#f6ed43"/>
<path transform="matrix(1,0,0,-1,-1636.999,138.42099)" stroke-width=".3985" stroke-linecap="butt" stroke-miterlimit="10" stroke-linejoin="miter" fill="none" stroke="#000000" d="M1739.9717 4.50914 1720.2145 0 1739.9717-4.50914 1745.6265 0Z"/>
<path transform="matrix(1,0,0,-1,-1636.999,138.42099)" d="M1791.2879 36.41989 1791.2888 56.66623 1782.5007 38.42041 1785.635 31.91174Z" fill="#f6ed43"/>
<path transform="matrix(1,0,0,-1,-1636.999,138.42099)" stroke-width=".3985" stroke-linecap="butt" stroke-miterlimit="10" stroke-linejoin="miter" fill="none" stroke="#000000" d="M1791.2879 36.41989 1791.2888 56.66623 1782.5007 38.42041 1785.635 31.91174Z"/>
<path transform="matrix(1,0,0,-1,-1636.999,138.42099)" d="M1810.9783-20.71458 1830.7245-25.21974 1814.8916-12.59492 1807.843-14.20392Z" fill="#f6ed43"/>
<path transform="matrix(1,0,0,-1,-1636.999,138.42099)" stroke-width=".3985" stroke-linecap="butt" stroke-miterlimit="10" stroke-linejoin="miter" fill="none" stroke="#000000" d="M1810.9783-20.71458 1830.7245-25.21974 1814.8916-12.59492 1807.843-14.20392Z"/>
<path transform="matrix(1,0,0,-1,-1636.999,138.42099)" d="M1750.9008-27.19934 1742.1116-45.44914 1757.9474-32.82133V-25.59135Z" fill="#f6ed43"/>
<path transform="matrix(1,0,0,-1,-1636.999,138.42099)" stroke-width=".3985" stroke-linecap="butt" stroke-miterlimit="10" stroke-linejoin="miter" fill="none" stroke="#000000" d="M1750.9008-27.19934 1742.1116-45.44914 1757.9474-32.82133V-25.59135Z"/>
<path transform="matrix(1,0,0,-1,-1636.999,138.42099)" d="M1757.9474 32.82133 1742.1116 45.44914 1750.9008 27.19934 1757.9474 25.59135Z" fill="#f6ed43"/>
<path transform="matrix(1,0,0,-1,-1636.999,138.42099)" stroke-width=".3985" stroke-linecap="butt" stroke-miterlimit="10" stroke-linejoin="miter" fill="none" stroke="#000000" d="M1757.9474 32.82133 1742.1116 45.44914 1750.9008 27.19934 1757.9474 25.59135Z"/>
<path transform="matrix(1,0,0,-1,-1636.999,138.42099)" d="M1814.8916 12.59492 1830.7245 25.21974 1810.9783 20.71458 1807.843 14.20392Z" fill="#f6ed43"/>
<path transform="matrix(1,0,0,-1,-1636.999,138.42099)" stroke-width=".3985" stroke-linecap="butt" stroke-miterlimit="10" stroke-linejoin="miter" fill="none" stroke="#000000" d="M1814.8916 12.59492 1830.7245 25.21974 1810.9783 20.71458 1807.843 14.20392Z"/>
<path transform="matrix(1,0,0,-1,-1636.999,138.42099)" d="M1782.5007-38.42041 1791.2888-56.66623 1791.2879-36.41989 1785.635-31.91174Z" fill="#f6ed43"/>
<path transform="matrix(1,0,0,-1,-1636.999,138.42099)" stroke-width=".3985" stroke-linecap="butt" stroke-miterlimit="10" stroke-linejoin="miter" fill="none" stroke="#000000" d="M1782.5007-38.42041 1791.2888-56.66623 1791.2879-36.41989 1785.635-31.91174Z"/>
<path transform="matrix(1,0,0,-1,-1636.999,138.42099)" d="M1745.7301-20.71458 1748.8654-14.20392 1741.8168-12.59492 1725.9839-25.21974Z" fill="#f6ed43"/>
<path transform="matrix(1,0,0,-1,-1636.999,138.42099)" stroke-width=".3985" stroke-linecap="butt" stroke-miterlimit="10" stroke-linejoin="miter" fill="none" stroke="#000000" d="M1745.7301-20.71458 1748.8654-14.20392 1741.8168-12.59492 1725.9839-25.21974Z"/>
<path transform="matrix(1,0,0,-1,-1636.999,138.42099)" d="M1745.7301 20.71458 1725.9839 25.21974 1741.8168 12.59492 1748.8654 14.20392Z" fill="#f6ed43"/>
<path transform="matrix(1,0,0,-1,-1636.999,138.42099)" stroke-width=".3985" stroke-linecap="butt" stroke-miterlimit="10" stroke-linejoin="miter" fill="none" stroke="#000000" d="M1745.7301 20.71458 1725.9839 25.21974 1741.8168 12.59492 1748.8654 14.20392Z"/>
<path transform="matrix(1,0,0,-1,-1636.999,138.42099)" d="M1765.4205 36.41989 1771.0734 31.91174 1774.2077 38.42041 1765.4205 56.66623Z" fill="#f6ed43"/>
<path transform="matrix(1,0,0,-1,-1636.999,138.42099)" stroke-width=".3985" stroke-linecap="butt" stroke-miterlimit="10" stroke-linejoin="miter" fill="none" stroke="#000000" d="M1765.4205 36.41989 1771.0734 31.91174 1774.2077 38.42041 1765.4205 56.66623Z"/>
<path transform="matrix(1,0,0,-1,-1636.999,138.42099)" d="M1805.8076 27.19934 1814.5967 45.44914 1798.7599 32.82133V25.59135Z" fill="#f6ed43"/>
<path transform="matrix(1,0,0,-1,-1636.999,138.42099)" stroke-width=".3985" stroke-linecap="butt" stroke-miterlimit="10" stroke-linejoin="miter" fill="none" stroke="#000000" d="M1805.8076 27.19934 1814.5967 45.44914 1798.7599 32.82133V25.59135Z"/>
<path transform="matrix(1,0,0,-1,-1636.999,138.42099)" d="M1816.7367 4.50914 1811.0819 0 1816.7367-4.50914 1836.4939 0Z" fill="#f6ed43"/>
<path transform="matrix(1,0,0,-1,-1636.999,138.42099)" stroke-width=".3985" stroke-linecap="butt" stroke-miterlimit="10" stroke-linejoin="miter" fill="none" stroke="#000000" d="M1816.7367 4.50914 1811.0819 0 1816.7367-4.50914 1836.4939 0Z"/>
<path transform="matrix(1,0,0,-1,-1636.999,138.42099)" d="M1798.7599-32.82133 1814.5967-45.44914 1805.8076-27.19934 1798.7599-25.59135Z" fill="#f6ed43"/>
<path transform="matrix(1,0,0,-1,-1636.999,138.42099)" stroke-width=".3985" stroke-linecap="butt" stroke-miterlimit="10" stroke-linejoin="miter" fill="none" stroke="#000000" d="M1798.7599-32.82133 1814.5967-45.44914 1805.8076-27.19934 1798.7599-25.59135Z"/>
<path transform="matrix(1,0,0,-1,-1636.999,138.42099)" d="M1774.2077-38.42041 1771.0734-31.91174 1765.4205-36.41989V-56.66623Z" fill="#f6ed43"/>
<path transform="matrix(1,0,0,-1,-1636.999,138.42099)" stroke-width=".3985" stroke-linecap="butt" stroke-miterlimit="10" stroke-linejoin="miter" fill="none" stroke="#000000" d="M1774.2077-38.42041 1771.0734-31.91174 1765.4205-36.41989V-56.66623Z"/>
<path transform="matrix(1,0,0,-1,-1636.999,138.42099)" d="M1694.6111-50.23726 1700.3726-62.19656 1710.7399-70.46567 1728.647-56.18602 1741.5827-29.3254 1712.5202-35.95662Z" fill="#f49f3a"/>
<path transform="matrix(1,0,0,-1,-1636.999,138.42099)" stroke-width=".3985" stroke-linecap="butt" stroke-miterlimit="10" stroke-linejoin="miter" fill="none" stroke="#000000" d="M1694.6111-50.23726 1700.3726-62.19656 1710.7399-70.46567 1728.647-56.18602 1741.5827-29.3254 1712.5202-35.95662Z"/>
<path transform="matrix(1,0,0,-1,-1636.999,138.42099)" d="M1694.6111 50.23726 1712.5202 35.95662 1741.5827 29.3254 1728.647 56.18602 1710.7399 70.46567 1700.3726 62.19656Z" fill="#f49f3a"/>
<path transform="matrix(1,0,0,-1,-1636.999,138.42099)" stroke-width=".3985" stroke-linecap="butt" stroke-miterlimit="10" stroke-linejoin="miter" fill="none" stroke="#000000" d="M1694.6111 50.23726 1712.5202 35.95662 1741.5827 29.3254 1728.647 56.18602 1710.7399 70.46567 1700.3726 62.19656Z"/>
<path transform="matrix(1,0,0,-1,-1636.999,138.42099)" d="M1757.9474 72.18124 1748.0066 92.82411 1735.0709 89.86815 1724.7007 81.60005 1734.6395 60.96417 1757.9474 42.37762Z" fill="#f49f3a"/>
<path transform="matrix(1,0,0,-1,-1636.999,138.42099)" stroke-width=".3985" stroke-linecap="butt" stroke-miterlimit="10" stroke-linejoin="miter" fill="none" stroke="#000000" d="M1757.9474 72.18124 1748.0066 92.82411 1735.0709 89.86815 1724.7007 81.60005 1734.6395 60.96417 1757.9474 42.37762Z"/>
<path transform="matrix(1,0,0,-1,-1636.999,138.42099)" d="M1845.9685 70.46567 1828.0614 56.18602 1815.1257 29.3254 1844.1881 35.95662 1862.0973 50.23726 1856.3357 62.19656Z" fill="#f49f3a"/>
<path transform="matrix(1,0,0,-1,-1636.999,138.42099)" stroke-width=".3985" stroke-linecap="butt" stroke-miterlimit="10" stroke-linejoin="miter" fill="none" stroke="#000000" d="M1845.9685 70.46567 1828.0614 56.18602 1815.1257 29.3254 1844.1881 35.95662 1862.0973 50.23726 1856.3357 62.19656Z"/>
<path transform="matrix(1,0,0,-1,-1636.999,138.42099)" d="M1853.2822 3.83167 1875.6038 8.92664V22.19006L1869.8463 34.1464 1847.5127 29.05043 1824.2098 10.46788Z" fill="#f49f3a"/>
<path transform="matrix(1,0,0,-1,-1636.999,138.42099)" stroke-width=".3985" stroke-linecap="butt" stroke-miterlimit="10" stroke-linejoin="miter" fill="none" stroke="#000000" d="M1853.2822 3.83167 1875.6038 8.92664V22.19006L1869.8463 34.1464 1847.5127 29.05043 1824.2098 10.46788Z"/>
<path transform="matrix(1,0,0,-1,-1636.999,138.42099)" d="M1832.0077-81.60005 1822.0689-60.96417 1798.7599-42.37762V-72.18124L1808.7018-92.82411 1821.6375-89.86815Z" fill="#f49f3a"/>
<path transform="matrix(1,0,0,-1,-1636.999,138.42099)" stroke-width=".3985" stroke-linecap="butt" stroke-miterlimit="10" stroke-linejoin="miter" fill="none" stroke="#000000" d="M1832.0077-81.60005 1822.0689-60.96417 1798.7599-42.37762V-72.18124L1808.7018-92.82411 1821.6375-89.86815Z"/>
<path transform="matrix(1,0,0,-1,-1636.999,138.42099)" d="M1765.4205-73.88687V-96.79526L1778.3543-99.74722 1791.2888-96.79526V-73.88687L1778.3543-47.03023Z" fill="#f49f3a"/>
<path transform="matrix(1,0,0,-1,-1636.999,138.42099)" stroke-width=".3985" stroke-linecap="butt" stroke-miterlimit="10" stroke-linejoin="miter" fill="none" stroke="#000000" d="M1765.4205-73.88687V-96.79526L1778.3543-99.74722 1791.2888-96.79526V-73.88687L1778.3543-47.03023Z"/>
<path transform="matrix(1,0,0,-1,-1636.999,138.42099)" d="M1686.862-34.1464 1709.1957-29.05043 1732.4985-10.46788 1703.4262-3.83167 1681.1046-8.92664V-22.19006Z" fill="#f49f3a"/>
<path transform="matrix(1,0,0,-1,-1636.999,138.42099)" stroke-width=".3985" stroke-linecap="butt" stroke-miterlimit="10" stroke-linejoin="miter" fill="none" stroke="#000000" d="M1686.862-34.1464 1709.1957-29.05043 1732.4985-10.46788 1703.4262-3.83167 1681.1046-8.92664V-22.19006Z"/>
<path transform="matrix(1,0,0,-1,-1636.999,138.42099)" d="M1709.1957 29.05043 1686.862 34.1464 1681.1046 22.19006V8.92664L1703.4262 3.83167 1732.4985 10.46788Z" fill="#f49f3a"/>
<path transform="matrix(1,0,0,-1,-1636.999,138.42099)" stroke-width=".3985" stroke-linecap="butt" stroke-miterlimit="10" stroke-linejoin="miter" fill="none" stroke="#000000" d="M1709.1957 29.05043 1686.862 34.1464 1681.1046 22.19006V8.92664L1703.4262 3.83167 1732.4985 10.46788Z"/>
<path transform="matrix(1,0,0,-1,-1636.999,138.42099)" d="M1765.4205 96.79526V73.88687L1778.3543 47.03023 1791.2888 73.88687V96.79526L1778.3543 99.74722Z" fill="#f49f3a"/>
<path transform="matrix(1,0,0,-1,-1636.999,138.42099)" stroke-width=".3985" stroke-linecap="butt" stroke-miterlimit="10" stroke-linejoin="miter" fill="none" stroke="#000000" d="M1765.4205 96.79526V73.88687L1778.3543 47.03023 1791.2888 73.88687V96.79526L1778.3543 99.74722Z"/>
<path transform="matrix(1,0,0,-1,-1636.999,138.42099)" d="M1822.0689 60.96417 1832.0077 81.60005 1821.6375 89.86815 1808.7018 92.82411 1798.7599 72.18124V42.37762Z" fill="#f49f3a"/>
<path transform="matrix(1,0,0,-1,-1636.999,138.42099)" stroke-width=".3985" stroke-linecap="butt" stroke-miterlimit="10" stroke-linejoin="miter" fill="none" stroke="#000000" d="M1822.0689 60.96417 1832.0077 81.60005 1821.6375 89.86815 1808.7018 92.82411 1798.7599 72.18124V42.37762Z"/>
<path transform="matrix(1,0,0,-1,-1636.999,138.42099)" d="M1875.6038-8.92664 1853.2822-3.83167 1824.2098-10.46788 1847.5127-29.05043 1869.8463-34.1464 1875.6038-22.19006Z" fill="#f49f3a"/>
<path transform="matrix(1,0,0,-1,-1636.999,138.42099)" stroke-width=".3985" stroke-linecap="butt" stroke-miterlimit="10" stroke-linejoin="miter" fill="none" stroke="#000000" d="M1875.6038-8.92664 1853.2822-3.83167 1824.2098-10.46788 1847.5127-29.05043 1869.8463-34.1464 1875.6038-22.19006Z"/>
<path transform="matrix(1,0,0,-1,-1636.999,138.42099)" d="M1828.0614-56.18602 1845.9685-70.46567 1856.3357-62.19656 1862.0973-50.23726 1844.1881-35.95662 1815.1257-29.3254Z" fill="#f49f3a"/>
<path transform="matrix(1,0,0,-1,-1636.999,138.42099)" stroke-width=".3985" stroke-linecap="butt" stroke-miterlimit="10" stroke-linejoin="miter" fill="none" stroke="#000000" d="M1828.0614-56.18602 1845.9685-70.46567 1856.3357-62.19656 1862.0973-50.23726 1844.1881-35.95662 1815.1257-29.3254Z"/>
<path transform="matrix(1,0,0,-1,-1636.999,138.42099)" d="M1748.0066-92.82411 1757.9474-72.18124V-42.37762L1734.6395-60.96417 1724.7007-81.60005 1735.0709-89.86815Z" fill="#f49f3a"/>
<path transform="matrix(1,0,0,-1,-1636.999,138.42099)" stroke-width=".3985" stroke-linecap="butt" stroke-miterlimit="10" stroke-linejoin="miter" fill="none" stroke="#000000" d="M1748.0066-92.82411 1757.9474-72.18124V-42.37762L1734.6395-60.96417 1724.7007-81.60005 1735.0709-89.86815Z"/>
<path transform="matrix(1,0,0,-1,-1636.999,138.42099)" d="M1686.9039 51.4537 1681.1046 46.829V39.4127L1682.7156 42.75621 1695.7319 39.7863 1685.293 48.1102Z" fill="#4ebfd5"/>
<path transform="matrix(1,0,0,-1,-1636.999,138.42099)" stroke-width=".3985" stroke-linecap="butt" stroke-miterlimit="10" stroke-linejoin="miter" fill="none" stroke="#000000" d="M1686.9039 51.4537 1681.1046 46.829V39.4127L1682.7156 42.75621 1695.7319 39.7863 1685.293 48.1102Z"/>
<path transform="matrix(1,0,0,-1,-1636.999,138.42099)" d="M1757.9474 89.4029V102.754L1761.564 103.57892 1754.335 105.22874 1748.5426 100.61101 1752.1531 101.43492Z" fill="#4ebfd5"/>
<path transform="matrix(1,0,0,-1,-1636.999,138.42099)" stroke-width=".3985" stroke-linecap="butt" stroke-miterlimit="10" stroke-linejoin="miter" fill="none" stroke="#000000" d="M1757.9474 89.4029V102.754L1761.564 103.57892 1754.335 105.22874 1748.5426 100.61101 1752.1531 101.43492Z"/>
<path transform="matrix(1,0,0,-1,-1636.999,138.42099)" d="M1848.8587 77.71756 1845.6477 84.38365 1838.4357 86.0305 1841.3248 83.7271 1835.5336 71.70103 1845.9695 80.02194Z" fill="#4ebfd5"/>
<path transform="matrix(1,0,0,-1,-1636.999,138.42099)" stroke-width=".3985" stroke-linecap="butt" stroke-miterlimit="10" stroke-linejoin="miter" fill="none" stroke="#000000" d="M1848.8587 77.71756 1845.6477 84.38365 1838.4357 86.0305 1841.3248 83.7271 1835.5336 71.70103 1845.9695 80.02194Z"/>
<path transform="matrix(1,0,0,-1,-1636.999,138.42099)" d="M1870.0704 0 1883.0758-2.96889V-6.67305L1886.2888 0 1883.0758 6.67305V2.96889Z" fill="#4ebfd5"/>
<path transform="matrix(1,0,0,-1,-1636.999,138.42099)" stroke-width=".3985" stroke-linecap="butt" stroke-miterlimit="10" stroke-linejoin="miter" fill="none" stroke="#000000" d="M1870.0704 0 1883.0758-2.96889V-6.67305L1886.2888 0 1883.0758 6.67305V2.96889Z"/>
<path transform="matrix(1,0,0,-1,-1636.999,138.42099)" d="M1838.4357-86.0305 1845.6477-84.38365 1848.8587-77.71756 1845.9695-80.02194 1835.5336-71.70103 1841.3248-83.7271Z" fill="#4ebfd5"/>
<path transform="matrix(1,0,0,-1,-1636.999,138.42099)" stroke-width=".3985" stroke-linecap="butt" stroke-miterlimit="10" stroke-linejoin="miter" fill="none" stroke="#000000" d="M1838.4357-86.0305 1845.6477-84.38365 1848.8587-77.71756 1845.9695-80.02194 1835.5336-71.70103 1841.3248-83.7271Z"/>
<path transform="matrix(1,0,0,-1,-1636.999,138.42099)" d="M1757.9474-89.4029 1752.1531-101.43492 1748.5426-100.61101 1754.335-105.22874 1761.564-103.57892 1757.9474-102.754Z" fill="#4ebfd5"/>
<path transform="matrix(1,0,0,-1,-1636.999,138.42099)" stroke-width=".3985" stroke-linecap="butt" stroke-miterlimit="10" stroke-linejoin="miter" fill="none" stroke="#000000" d="M1757.9474-89.4029 1752.1531-101.43492 1748.5426-100.61101 1754.335-105.22874 1761.564-103.57892 1757.9474-102.754Z"/>
<path transform="matrix(1,0,0,-1,-1636.999,138.42099)" d="M1682.7156-42.75621 1681.1046-39.4127V-46.829L1686.9039-51.4537 1685.293-48.1102 1695.7319-39.7863Z" fill="#4ebfd5"/>
<path transform="matrix(1,0,0,-1,-1636.999,138.42099)" stroke-width=".3985" stroke-linecap="butt" stroke-miterlimit="10" stroke-linejoin="miter" fill="none" stroke="#000000" d="M1682.7156-42.75621 1681.1046-39.4127V-46.829L1686.9039-51.4537 1685.293-48.1102 1695.7319-39.7863Z"/>
<path transform="matrix(1,0,0,-1,-1636.999,138.42099)" d="M1718.2727 86.0305 1711.0607 84.38365 1707.8496 77.71756 1710.7389 80.02194 1721.1748 71.70103 1715.3836 83.7271Z" fill="#4ebfd5"/>
<path transform="matrix(1,0,0,-1,-1636.999,138.42099)" stroke-width=".3985" stroke-linecap="butt" stroke-miterlimit="10" stroke-linejoin="miter" fill="none" stroke="#000000" d="M1718.2727 86.0305 1711.0607 84.38365 1707.8496 77.71756 1710.7389 80.02194 1721.1748 71.70103 1715.3836 83.7271Z"/>
<path transform="matrix(1,0,0,-1,-1636.999,138.42099)" d="M1875.6038 39.4127V46.829L1869.8045 51.4537 1871.4154 48.1102 1860.9765 39.7863 1873.9928 42.75621Z" fill="#4ebfd5"/>
<path transform="matrix(1,0,0,-1,-1636.999,138.42099)" stroke-width=".3985" stroke-linecap="butt" stroke-miterlimit="10" stroke-linejoin="miter" fill="none" stroke="#000000" d="M1875.6038 39.4127V46.829L1869.8045 51.4537 1871.4154 48.1102 1860.9765 39.7863 1873.9928 42.75621Z"/>
<path transform="matrix(1,0,0,-1,-1636.999,138.42099)" d="M1795.1444-103.57892 1802.3734-105.22874 1808.1658-100.61101 1804.5553-101.43492 1798.7599-89.4029V-102.754Z" fill="#4ebfd5"/>
<path transform="matrix(1,0,0,-1,-1636.999,138.42099)" stroke-width=".3985" stroke-linecap="butt" stroke-miterlimit="10" stroke-linejoin="miter" fill="none" stroke="#000000" d="M1795.1444-103.57892 1802.3734-105.22874 1808.1658-100.61101 1804.5553-101.43492 1798.7599-89.4029V-102.754Z"/>
<path transform="matrix(1,0,0,-1,-1636.999,138.42099)" d="M1673.6326 6.67305 1670.4196 0 1673.6326-6.67305V-2.96889L1686.638 0 1673.6326 2.96889Z" fill="#4ebfd5"/>
<path transform="matrix(1,0,0,-1,-1636.999,138.42099)" stroke-width=".3985" stroke-linecap="butt" stroke-miterlimit="10" stroke-linejoin="miter" fill="none" stroke="#000000" d="M1673.6326 6.67305 1670.4196 0 1673.6326-6.67305V-2.96889L1686.638 0 1673.6326 2.96889Z"/>
<path transform="matrix(1,0,0,-1,-1636.999,138.42099)" d="M1808.1658 100.61101 1802.3734 105.22874 1795.1444 103.57892 1798.7599 102.754V89.4029L1804.5553 101.43492Z" fill="#4ebfd5"/>
<path transform="matrix(1,0,0,-1,-1636.999,138.42099)" stroke-width=".3985" stroke-linecap="butt" stroke-miterlimit="10" stroke-linejoin="miter" fill="none" stroke="#000000" d="M1808.1658 100.61101 1802.3734 105.22874 1795.1444 103.57892 1798.7599 102.754V89.4029L1804.5553 101.43492Z"/>
<path transform="matrix(1,0,0,-1,-1636.999,138.42099)" d="M1869.8045-51.4537 1875.6038-46.829V-39.4127L1873.9928-42.75621 1860.9765-39.7863 1871.4154-48.1102Z" fill="#4ebfd5"/>
<path transform="matrix(1,0,0,-1,-1636.999,138.42099)" stroke-width=".3985" stroke-linecap="butt" stroke-miterlimit="10" stroke-linejoin="miter" fill="none" stroke="#000000" d="M1869.8045-51.4537 1875.6038-46.829V-39.4127L1873.9928-42.75621 1860.9765-39.7863 1871.4154-48.1102Z"/>
<path transform="matrix(1,0,0,-1,-1636.999,138.42099)" d="M1707.8496-77.71756 1711.0607-84.38365 1718.2727-86.0305 1715.3836-83.7271 1721.1748-71.70103 1710.7389-80.02194Z" fill="#4ebfd5"/>
<path transform="matrix(1,0,0,-1,-1636.999,138.42099)" stroke-width=".3985" stroke-linecap="butt" stroke-miterlimit="10" stroke-linejoin="miter" fill="none" stroke="#000000" d="M1707.8496-77.71756 1711.0607-84.38365 1718.2727-86.0305 1715.3836-83.7271 1721.1748-71.70103 1710.7389-80.02194Z"/>
<path transform="matrix(1,0,0,-1,-1636.999,138.42099)" d="M1685.293-48.1102 1686.9039-51.4537 1700.3726-62.19656 1694.6111-50.23726 1741.8168-12.59492 1732.4985-10.46788Z" fill="#ffffff"/>
<path transform="matrix(1,0,0,-1,-1636.999,138.42099)" stroke-width=".3985" stroke-linecap="butt" stroke-miterlimit="10" stroke-linejoin="miter" fill="none" stroke="#000000" d="M1685.293-48.1102 1686.9039-51.4537 1700.3726-62.19656 1694.6111-50.23726 1741.8168-12.59492 1732.4985-10.46788Z"/>
<path transform="matrix(1,0,0,-1,-1636.999,138.42099)" d="M1745.6265 0 1739.9717-4.50914 1749.2888-6.63618 1757.6117 0 1725.9839 25.21974 1709.1957 29.05043Z" fill="#ffffff"/>
<path transform="matrix(1,0,0,-1,-1636.999,138.42099)" stroke-width=".3985" stroke-linecap="butt" stroke-miterlimit="10" stroke-linejoin="miter" fill="none" stroke="#000000" d="M1745.6265 0 1739.9717-4.50914 1749.2888-6.63618 1757.6117 0 1725.9839 25.21974 1709.1957 29.05043Z"/>
<path transform="matrix(1,0,0,-1,-1636.999,138.42099)" d="M1685.293 48.1102 1695.7319 39.7863 1712.5202 35.95662 1694.6111 50.23726 1711.0607 84.38365 1718.2727 86.0305 1731.7454 96.77335 1705.89 90.86641Z" fill="#ffffff"/>
<path transform="matrix(1,0,0,-1,-1636.999,138.42099)" stroke-width=".3985" stroke-linecap="butt" stroke-miterlimit="10" stroke-linejoin="miter" fill="none" stroke="#000000" d="M1685.293 48.1102 1695.7319 39.7863 1712.5202 35.95662 1694.6111 50.23726 1711.0607 84.38365 1718.2727 86.0305 1731.7454 96.77335 1705.89 90.86641Z"/>
<path transform="matrix(1,0,0,-1,-1636.999,138.42099)" d="M1752.1531 101.43492 1748.5426 100.61101 1735.0709 89.86815 1748.0066 92.82411 1774.2077 38.42041 1778.3543 47.03023Z" fill="#ffffff"/>
<path transform="matrix(1,0,0,-1,-1636.999,138.42099)" stroke-width=".3985" stroke-linecap="butt" stroke-miterlimit="10" stroke-linejoin="miter" fill="none" stroke="#000000" d="M1752.1531 101.43492 1748.5426 100.61101 1735.0709 89.86815 1748.0066 92.82411 1774.2077 38.42041 1778.3543 47.03023Z"/>
<path transform="matrix(1,0,0,-1,-1636.999,138.42099)" d="M1785.635 31.91174 1782.5007 38.42041 1778.3543 29.8096 1782.9689 20.2284 1814.5967 45.44914 1822.0689 60.96417Z" fill="#ffffff"/>
<path transform="matrix(1,0,0,-1,-1636.999,138.42099)" stroke-width=".3985" stroke-linecap="butt" stroke-miterlimit="10" stroke-linejoin="miter" fill="none" stroke="#000000" d="M1785.635 31.91174 1782.5007 38.42041 1778.3543 29.8096 1782.9689 20.2284 1814.5967 45.44914 1822.0689 60.96417Z"/>
<path transform="matrix(1,0,0,-1,-1636.999,138.42099)" d="M1845.9695 80.02194 1835.5336 71.70103 1828.0614 56.18602 1845.9685 70.46567 1875.6038 46.829V39.4127L1883.0758 23.89569V50.42754Z" fill="#ffffff"/>
<path transform="matrix(1,0,0,-1,-1636.999,138.42099)" stroke-width=".3985" stroke-linecap="butt" stroke-miterlimit="10" stroke-linejoin="miter" fill="none" stroke="#000000" d="M1845.9695 80.02194 1835.5336 71.70103 1828.0614 56.18602 1845.9685 70.46567 1875.6038 46.829V39.4127L1883.0758 23.89569V50.42754Z"/>
<path transform="matrix(1,0,0,-1,-1636.999,138.42099)" d="M1883.0758 2.96889V6.67305L1875.6038 22.19006V8.92664L1816.7367-4.50914 1824.2098-10.46788Z" fill="#ffffff"/>
<path transform="matrix(1,0,0,-1,-1636.999,138.42099)" stroke-width=".3985" stroke-linecap="butt" stroke-miterlimit="10" stroke-linejoin="miter" fill="none" stroke="#000000" d="M1883.0758 2.96889V6.67305L1875.6038 22.19006V8.92664L1816.7367-4.50914 1824.2098-10.46788Z"/>
<path transform="matrix(1,0,0,-1,-1636.999,138.42099)" d="M1807.843-14.20392 1814.8916-12.59492 1807.4196-6.63618 1797.0453-9.00433 1814.5967-45.44914 1828.0614-56.18602Z" fill="#ffffff"/>
<path transform="matrix(1,0,0,-1,-1636.999,138.42099)" stroke-width=".3985" stroke-linecap="butt" stroke-miterlimit="10" stroke-linejoin="miter" fill="none" stroke="#000000" d="M1807.843-14.20392 1814.8916-12.59492 1807.4196-6.63618 1797.0453-9.00433 1814.5967-45.44914 1828.0614-56.18602Z"/>
<path transform="matrix(1,0,0,-1,-1636.999,138.42099)" d="M1841.3248-83.7271 1835.5336-71.70103 1822.0689-60.96417 1832.0077-81.60005 1802.3734-105.22874 1795.1444-103.57892 1778.3543-107.41159 1804.2185-113.31453Z" fill="#ffffff"/>
<path transform="matrix(1,0,0,-1,-1636.999,138.42099)" stroke-width=".3985" stroke-linecap="butt" stroke-miterlimit="10" stroke-linejoin="miter" fill="none" stroke="#000000" d="M1841.3248-83.7271 1835.5336-71.70103 1822.0689-60.96417 1832.0077-81.60005 1802.3734-105.22874 1795.1444-103.57892 1778.3543-107.41159 1804.2185-113.31453Z"/>
<path transform="matrix(1,0,0,-1,-1636.999,138.42099)" d="M1757.9474-102.754 1761.564-103.57892 1778.3543-99.74722 1765.4205-96.79526V-36.41989L1757.9474-42.37762Z" fill="#ffffff"/>
<path transform="matrix(1,0,0,-1,-1636.999,138.42099)" stroke-width=".3985" stroke-linecap="butt" stroke-miterlimit="10" stroke-linejoin="miter" fill="none" stroke="#000000" d="M1757.9474-102.754 1761.564-103.57892 1778.3543-99.74722 1765.4205-96.79526V-36.41989L1757.9474-42.37762Z"/>
<path transform="matrix(1,0,0,-1,-1636.999,138.42099)" d="M1757.9474-25.59135V-32.82133L1765.4205-26.86261V-16.22237L1725.9839-25.21974 1712.5202-35.95662Z" fill="#ffffff"/>
<path transform="matrix(1,0,0,-1,-1636.999,138.42099)" stroke-width=".3985" stroke-linecap="butt" stroke-miterlimit="10" stroke-linejoin="miter" fill="none" stroke="#000000" d="M1757.9474-25.59135V-32.82133L1765.4205-26.86261V-16.22237L1725.9839-25.21974 1712.5202-35.95662Z"/>
<path transform="matrix(1,0,0,-1,-1636.999,138.42099)" d="M1682.7156-42.75621 1695.7319-39.7863 1709.1957-29.05043 1686.862-34.1464 1670.4196 0 1673.6326 6.67305V23.89569L1662.1266 0Z" fill="#ffffff"/>
<path transform="matrix(1,0,0,-1,-1636.999,138.42099)" stroke-width=".3985" stroke-linecap="butt" stroke-miterlimit="10" stroke-linejoin="miter" fill="none" stroke="#000000" d="M1682.7156-42.75621 1695.7319-39.7863 1709.1957-29.05043 1686.862-34.1464 1670.4196 0 1673.6326 6.67305V23.89569L1662.1266 0Z"/>
<path transform="matrix(1,0,0,-1,-1636.999,138.42099)" d="M1682.7156 42.75621 1681.1046 39.4127V22.19006L1686.862 34.1464 1745.7301 20.71458 1741.5827 29.3254Z" fill="#ffffff"/>
<path transform="matrix(1,0,0,-1,-1636.999,138.42099)" stroke-width=".3985" stroke-linecap="butt" stroke-miterlimit="10" stroke-linejoin="miter" fill="none" stroke="#000000" d="M1682.7156 42.75621 1681.1046 39.4127V22.19006L1686.862 34.1464 1745.7301 20.71458 1741.5827 29.3254Z"/>
<path transform="matrix(1,0,0,-1,-1636.999,138.42099)" d="M1757.9474 25.59135 1750.9008 27.19934 1755.0473 18.58952 1765.4205 16.22237V56.66623L1757.9474 72.18124Z" fill="#ffffff"/>
<path transform="matrix(1,0,0,-1,-1636.999,138.42099)" stroke-width=".3985" stroke-linecap="butt" stroke-miterlimit="10" stroke-linejoin="miter" fill="none" stroke="#000000" d="M1757.9474 25.59135 1750.9008 27.19934 1755.0473 18.58952 1765.4205 16.22237V56.66623L1757.9474 72.18124Z"/>
<path transform="matrix(1,0,0,-1,-1636.999,138.42099)" d="M1757.9474 102.754V89.4029L1765.4205 73.88687V96.79526L1802.3734 105.22874 1808.1658 100.61101 1824.963 96.77335 1804.2185 113.31453Z" fill="#ffffff"/>
<path transform="matrix(1,0,0,-1,-1636.999,138.42099)" stroke-width=".3985" stroke-linecap="butt" stroke-miterlimit="10" stroke-linejoin="miter" fill="none" stroke="#000000" d="M1757.9474 102.754V89.4029L1765.4205 73.88687V96.79526L1802.3734 105.22874 1808.1658 100.61101 1824.963 96.77335 1804.2185 113.31453Z"/>
<path transform="matrix(1,0,0,-1,-1636.999,138.42099)" d="M1841.3248 83.7271 1838.4357 86.0305 1821.6375 89.86815 1832.0077 81.60005 1805.8076 27.19934 1815.1257 29.3254Z" fill="#ffffff"/>
<path transform="matrix(1,0,0,-1,-1636.999,138.42099)" stroke-width=".3985" stroke-linecap="butt" stroke-miterlimit="10" stroke-linejoin="miter" fill="none" stroke="#000000" d="M1841.3248 83.7271 1838.4357 86.0305 1821.6375 89.86815 1832.0077 81.60005 1805.8076 27.19934 1815.1257 29.3254Z"/>
<path transform="matrix(1,0,0,-1,-1636.999,138.42099)" d="M1807.843 14.20392 1810.9783 20.71458 1801.661 18.58952 1797.0453 9.00433 1836.4939 0 1853.2822 3.83167Z" fill="#ffffff"/>
<path transform="matrix(1,0,0,-1,-1636.999,138.42099)" stroke-width=".3985" stroke-linecap="butt" stroke-miterlimit="10" stroke-linejoin="miter" fill="none" stroke="#000000" d="M1807.843 14.20392 1810.9783 20.71458 1801.661 18.58952 1797.0453 9.00433 1836.4939 0 1853.2822 3.83167Z"/>
<path transform="matrix(1,0,0,-1,-1636.999,138.42099)" d="M1883.0758-2.96889 1870.0704 0 1853.2822-3.83167 1875.6038-8.92664V-46.829L1869.8045-51.4537 1862.3274-66.9757 1883.0758-50.42754Z" fill="#ffffff"/>
<path transform="matrix(1,0,0,-1,-1636.999,138.42099)" stroke-width=".3985" stroke-linecap="butt" stroke-miterlimit="10" stroke-linejoin="miter" fill="none" stroke="#000000" d="M1883.0758-2.96889 1870.0704 0 1853.2822-3.83167 1875.6038-8.92664V-46.829L1869.8045-51.4537 1862.3274-66.9757 1883.0758-50.42754Z"/>
<path transform="matrix(1,0,0,-1,-1636.999,138.42099)" d="M1845.9695-80.02194 1848.8587-77.71756 1856.3357-62.19656 1845.9685-70.46567 1798.7599-32.82133V-42.37762Z" fill="#ffffff"/>
<path transform="matrix(1,0,0,-1,-1636.999,138.42099)" stroke-width=".3985" stroke-linecap="butt" stroke-miterlimit="10" stroke-linejoin="miter" fill="none" stroke="#000000" d="M1845.9695-80.02194 1848.8587-77.71756 1856.3357-62.19656 1845.9685-70.46567 1798.7599-32.82133V-42.37762Z"/>
<path transform="matrix(1,0,0,-1,-1636.999,138.42099)" d="M1785.635-31.91174 1791.2879-36.41989V-26.86261L1782.9689-20.2284 1765.4205-56.66623V-73.88687Z" fill="#ffffff"/>
<path transform="matrix(1,0,0,-1,-1636.999,138.42099)" stroke-width=".3985" stroke-linecap="butt" stroke-miterlimit="10" stroke-linejoin="miter" fill="none" stroke="#000000" d="M1785.635-31.91174 1791.2879-36.41989V-26.86261L1782.9689-20.2284 1765.4205-56.66623V-73.88687Z"/>
<path transform="matrix(1,0,0,-1,-1636.999,138.42099)" d="M1752.1531-101.43492 1757.9474-89.4029V-72.18124L1748.0066-92.82411 1711.0607-84.38365 1707.8496-77.71756 1694.381-66.9757 1705.89-90.86641Z" fill="#ffffff"/>
<path transform="matrix(1,0,0,-1,-1636.999,138.42099)" stroke-width=".3985" stroke-linecap="butt" stroke-miterlimit="10" stroke-linejoin="miter" fill="none" stroke="#000000" d="M1752.1531-101.43492 1757.9474-89.4029V-72.18124L1748.0066-92.82411 1711.0607-84.38365 1707.8496-77.71756 1694.381-66.9757 1705.89-90.86641Z"/>
<path transform="matrix(1,0,0,-1,-1636.999,138.42099)" d="M1871.4154 48.1102 1869.8045 51.4537 1856.3357 62.19656 1862.0973 50.23726 1814.8916 12.59492 1824.2098 10.46788Z" fill="#ffffff"/>
<path transform="matrix(1,0,0,-1,-1636.999,138.42099)" stroke-width=".3985" stroke-linecap="butt" stroke-miterlimit="10" stroke-linejoin="miter" fill="none" stroke="#000000" d="M1871.4154 48.1102 1869.8045 51.4537 1856.3357 62.19656 1862.0973 50.23726 1814.8916 12.59492 1824.2098 10.46788Z"/>
<path transform="matrix(1,0,0,-1,-1636.999,138.42099)" d="M1811.0819 0 1816.7367 4.50914 1807.4196 6.63618 1799.0967 0 1830.7245-25.21974 1847.5127-29.05043Z" fill="#ffffff"/>
<path transform="matrix(1,0,0,-1,-1636.999,138.42099)" stroke-width=".3985" stroke-linecap="butt" stroke-miterlimit="10" stroke-linejoin="miter" fill="none" stroke="#000000" d="M1811.0819 0 1816.7367 4.50914 1807.4196 6.63618 1799.0967 0 1830.7245-25.21974 1847.5127-29.05043Z"/>
<path transform="matrix(1,0,0,-1,-1636.999,138.42099)" d="M1871.4154-48.1102 1860.9765-39.7863 1844.1881-35.95662 1862.0973-50.23726 1845.6477-84.38365 1838.4357-86.0305 1824.963-96.77335 1850.8184-90.86641Z" fill="#ffffff"/>
<path transform="matrix(1,0,0,-1,-1636.999,138.42099)" stroke-width=".3985" stroke-linecap="butt" stroke-miterlimit="10" stroke-linejoin="miter" fill="none" stroke="#000000" d="M1871.4154-48.1102 1860.9765-39.7863 1844.1881-35.95662 1862.0973-50.23726 1845.6477-84.38365 1838.4357-86.0305 1824.963-96.77335 1850.8184-90.86641Z"/>
<path transform="matrix(1,0,0,-1,-1636.999,138.42099)" d="M1804.5553-101.43492 1808.1658-100.61101 1821.6375-89.86815 1808.7018-92.82411 1782.5007-38.42041 1778.3543-47.03023Z" fill="#ffffff"/>
<path transform="matrix(1,0,0,-1,-1636.999,138.42099)" stroke-width=".3985" stroke-linecap="butt" stroke-miterlimit="10" stroke-linejoin="miter" fill="none" stroke="#000000" d="M1804.5553-101.43492 1808.1658-100.61101 1821.6375-89.86815 1808.7018-92.82411 1782.5007-38.42041 1778.3543-47.03023Z"/>
<path transform="matrix(1,0,0,-1,-1636.999,138.42099)" d="M1771.0734-31.91174 1774.2077-38.42041 1778.3543-29.8096 1773.7394-20.2284 1742.1116-45.44914 1734.6395-60.96417Z" fill="#ffffff"/>
<path transform="matrix(1,0,0,-1,-1636.999,138.42099)" stroke-width=".3985" stroke-linecap="butt" stroke-miterlimit="10" stroke-linejoin="miter" fill="none" stroke="#000000" d="M1771.0734-31.91174 1774.2077-38.42041 1778.3543-29.8096 1773.7394-20.2284 1742.1116-45.44914 1734.6395-60.96417Z"/>
<path transform="matrix(1,0,0,-1,-1636.999,138.42099)" d="M1710.7389-80.02194 1721.1748-71.70103 1728.647-56.18602 1710.7399-70.46567 1681.1046-46.829V-39.4127L1673.6326-23.89569V-50.42754Z" fill="#ffffff"/>
<path transform="matrix(1,0,0,-1,-1636.999,138.42099)" stroke-width=".3985" stroke-linecap="butt" stroke-miterlimit="10" stroke-linejoin="miter" fill="none" stroke="#000000" d="M1710.7389-80.02194 1721.1748-71.70103 1728.647-56.18602 1710.7399-70.46567 1681.1046-46.829V-39.4127L1673.6326-23.89569V-50.42754Z"/>
<path transform="matrix(1,0,0,-1,-1636.999,138.42099)" d="M1673.6326-2.96889V-6.67305L1681.1046-22.19006V-8.92664L1739.9717 4.50914 1732.4985 10.46788Z" fill="#ffffff"/>
<path transform="matrix(1,0,0,-1,-1636.999,138.42099)" stroke-width=".3985" stroke-linecap="butt" stroke-miterlimit="10" stroke-linejoin="miter" fill="none" stroke="#000000" d="M1673.6326-2.96889V-6.67305L1681.1046-22.19006V-8.92664L1739.9717 4.50914 1732.4985 10.46788Z"/>
<path transform="matrix(1,0,0,-1,-1636.999,138.42099)" d="M1748.8654 14.20392 1741.8168 12.59492 1749.2888 6.63618 1759.663 9.00433 1742.1116 45.44914 1728.647 56.18602Z" fill="#ffffff"/>
<path transform="matrix(1,0,0,-1,-1636.999,138.42099)" stroke-width=".3985" stroke-linecap="butt" stroke-miterlimit="10" stroke-linejoin="miter" fill="none" stroke="#000000" d="M1748.8654 14.20392 1741.8168 12.59492 1749.2888 6.63618 1759.663 9.00433 1742.1116 45.44914 1728.647 56.18602Z"/>
<path transform="matrix(1,0,0,-1,-1636.999,138.42099)" d="M1715.3836 83.7271 1721.1748 71.70103 1734.6395 60.96417 1724.7007 81.60005 1754.335 105.22874 1761.564 103.57892 1778.3543 107.41159 1752.4899 113.31453Z" fill="#ffffff"/>
<path transform="matrix(1,0,0,-1,-1636.999,138.42099)" stroke-width=".3985" stroke-linecap="butt" stroke-miterlimit="10" stroke-linejoin="miter" fill="none" stroke="#000000" d="M1715.3836 83.7271 1721.1748 71.70103 1734.6395 60.96417 1724.7007 81.60005 1754.335 105.22874 1761.564 103.57892 1778.3543 107.41159 1752.4899 113.31453Z"/>
<path transform="matrix(1,0,0,-1,-1636.999,138.42099)" d="M1798.7599 102.754 1795.1444 103.57892 1778.3543 99.74722 1791.2888 96.79526 1791.2879 36.41989 1798.7599 42.37762Z" fill="#ffffff"/>
<path transform="matrix(1,0,0,-1,-1636.999,138.42099)" stroke-width=".3985" stroke-linecap="butt" stroke-miterlimit="10" stroke-linejoin="miter" fill="none" stroke="#000000" d="M1798.7599 102.754 1795.1444 103.57892 1778.3543 99.74722 1791.2888 96.79526 1791.2879 36.41989 1798.7599 42.37762Z"/>
<path transform="matrix(1,0,0,-1,-1636.999,138.42099)" d="M1798.7599 25.59135V32.82133L1791.2879 26.86261V16.22237L1830.7245 25.21974 1844.1881 35.95662Z" fill="#ffffff"/>
<path transform="matrix(1,0,0,-1,-1636.999,138.42099)" stroke-width=".3985" stroke-linecap="butt" stroke-miterlimit="10" stroke-linejoin="miter" fill="none" stroke="#000000" d="M1798.7599 25.59135V32.82133L1791.2879 26.86261V16.22237L1830.7245 25.21974 1844.1881 35.95662Z"/>
<path transform="matrix(1,0,0,-1,-1636.999,138.42099)" d="M1873.9928 42.75621 1860.9765 39.7863 1847.5127 29.05043 1869.8463 34.1464 1886.2888 0 1883.0758-6.67305V-23.89569L1894.5818 0Z" fill="#ffffff"/>
<path transform="matrix(1,0,0,-1,-1636.999,138.42099)" stroke-width=".3985" stroke-linecap="butt" stroke-miterlimit="10" stroke-linejoin="miter" fill="none" stroke="#000000" d="M1873.9928 42.75621 1860.9765 39.7863 1847.5127 29.05043 1869.8463 34.1464 1886.2888 0 1883.0758-6.67305V-23.89569L1894.5818 0Z"/>
<path transform="matrix(1,0,0,-1,-1636.999,138.42099)" d="M1873.9928-42.75621 1875.6038-39.4127V-22.19006L1869.8463-34.1464 1810.9783-20.71458 1815.1257-29.3254Z" fill="#ffffff"/>
<path transform="matrix(1,0,0,-1,-1636.999,138.42099)" stroke-width=".3985" stroke-linecap="butt" stroke-miterlimit="10" stroke-linejoin="miter" fill="none" stroke="#000000" d="M1873.9928-42.75621 1875.6038-39.4127V-22.19006L1869.8463-34.1464 1810.9783-20.71458 1815.1257-29.3254Z"/>
<path transform="matrix(1,0,0,-1,-1636.999,138.42099)" d="M1798.7599-25.59135 1805.8076-27.19934 1801.661-18.58952 1791.2879-16.22237 1791.2888-56.66623 1798.7599-72.18124Z" fill="#ffffff"/>
<path transform="matrix(1,0,0,-1,-1636.999,138.42099)" stroke-width=".3985" stroke-linecap="butt" stroke-miterlimit="10" stroke-linejoin="miter" fill="none" stroke="#000000" d="M1798.7599-25.59135 1805.8076-27.19934 1801.661-18.58952 1791.2879-16.22237 1791.2888-56.66623 1798.7599-72.18124Z"/>
<path transform="matrix(1,0,0,-1,-1636.999,138.42099)" d="M1798.7599-102.754V-89.4029L1791.2888-73.88687V-96.79526L1754.335-105.22874 1748.5426-100.61101 1731.7454-96.77335 1752.4899-113.31453Z" fill="#ffffff"/>
<path transform="matrix(1,0,0,-1,-1636.999,138.42099)" stroke-width=".3985" stroke-linecap="butt" stroke-miterlimit="10" stroke-linejoin="miter" fill="none" stroke="#000000" d="M1798.7599-102.754V-89.4029L1791.2888-73.88687V-96.79526L1754.335-105.22874 1748.5426-100.61101 1731.7454-96.77335 1752.4899-113.31453Z"/>
<path transform="matrix(1,0,0,-1,-1636.999,138.42099)" d="M1715.3836-83.7271 1718.2727-86.0305 1735.0709-89.86815 1724.7007-81.60005 1750.9008-27.19934 1741.5827-29.3254Z" fill="#ffffff"/>
<path transform="matrix(1,0,0,-1,-1636.999,138.42099)" stroke-width=".3985" stroke-linecap="butt" stroke-miterlimit="10" stroke-linejoin="miter" fill="none" stroke="#000000" d="M1715.3836-83.7271 1718.2727-86.0305 1735.0709-89.86815 1724.7007-81.60005 1750.9008-27.19934 1741.5827-29.3254Z"/>
<path transform="matrix(1,0,0,-1,-1636.999,138.42099)" d="M1748.8654-14.20392 1745.7301-20.71458 1755.0473-18.58952 1759.663-9.00433 1720.2145 0 1703.4262-3.83167Z" fill="#ffffff"/>
<path transform="matrix(1,0,0,-1,-1636.999,138.42099)" stroke-width=".3985" stroke-linecap="butt" stroke-miterlimit="10" stroke-linejoin="miter" fill="none" stroke="#000000" d="M1748.8654-14.20392 1745.7301-20.71458 1755.0473-18.58952 1759.663-9.00433 1720.2145 0 1703.4262-3.83167Z"/>
<path transform="matrix(1,0,0,-1,-1636.999,138.42099)" d="M1673.6326 2.96889 1686.638 0 1703.4262 3.83167 1681.1046 8.92664V46.829L1686.9039 51.4537 1694.381 66.9757 1673.6326 50.42754Z" fill="#ffffff"/>
<path transform="matrix(1,0,0,-1,-1636.999,138.42099)" stroke-width=".3985" stroke-linecap="butt" stroke-miterlimit="10" stroke-linejoin="miter" fill="none" stroke="#000000" d="M1673.6326 2.96889 1686.638 0 1703.4262 3.83167 1681.1046 8.92664V46.829L1686.9039 51.4537 1694.381 66.9757 1673.6326 50.42754Z"/>
<path transform="matrix(1,0,0,-1,-1636.999,138.42099)" d="M1710.7389 80.02194 1707.8496 77.71756 1700.3726 62.19656 1710.7399 70.46567 1757.9474 32.82133V42.37762Z" fill="#ffffff"/>
<path transform="matrix(1,0,0,-1,-1636.999,138.42099)" stroke-width=".3985" stroke-linecap="butt" stroke-miterlimit="10" stroke-linejoin="miter" fill="none" stroke="#000000" d="M1710.7389 80.02194 1707.8496 77.71756 1700.3726 62.19656 1710.7399 70.46567 1757.9474 32.82133V42.37762Z"/>
<path transform="matrix(1,0,0,-1,-1636.999,138.42099)" d="M1771.0734 31.91174 1765.4205 36.41989V26.86261L1773.7394 20.2284 1791.2888 56.66623V73.88687Z" fill="#ffffff"/>
<path transform="matrix(1,0,0,-1,-1636.999,138.42099)" stroke-width=".3985" stroke-linecap="butt" stroke-miterlimit="10" stroke-linejoin="miter" fill="none" stroke="#000000" d="M1771.0734 31.91174 1765.4205 36.41989V26.86261L1773.7394 20.2284 1791.2888 56.66623V73.88687Z"/>
<path transform="matrix(1,0,0,-1,-1636.999,138.42099)" d="M1804.5553 101.43492 1798.7599 89.4029V72.18124L1808.7018 92.82411 1845.6477 84.38365 1848.8587 77.71756 1862.3274 66.9757 1850.8184 90.86641Z" fill="#ffffff"/>
<path transform="matrix(1,0,0,-1,-1636.999,138.42099)" stroke-width=".3985" stroke-linecap="butt" stroke-miterlimit="10" stroke-linejoin="miter" fill="none" stroke="#000000" d="M1804.5553 101.43492 1798.7599 89.4029V72.18124L1808.7018 92.82411 1845.6477 84.38365 1848.8587 77.71756 1862.3274 66.9757 1850.8184 90.86641Z"/>
</svg>
