<svg xmlns="http://www.w3.org/2000/svg" xmlns:xlink="http://www.w3.org/1999/xlink" xmlns:inkscape="http://www.inkscape.org/namespaces/inkscape" version="1.1" width="141.47" height="211.21" viewBox="0 0 141.47 211.21">
<path transform="matrix(1,0,0,-1,65.753,85.681018)" d="M0 0H-38.8548C-39.40503 0-39.85107 .44603-39.85107 .99628V58.78033C-39.85107 59.33057-39.40503 59.77661-38.8548 59.77661H8.96649C9.51672 59.77661 9.96277 59.33057 9.96277 58.78033V20.92181C9.96277 20.37157 9.51672 19.92554 8.96649 19.92554H-18.92926C-19.47949 19.92554-19.92554 20.37157-19.92554 20.92181V38.8548C-19.92554 39.40503-19.47949 39.85107-18.92926 39.85107H-10.95905C-10.4088 39.85107-9.96277 39.40503-9.96277 38.8548V30.88458C-9.96277 30.33434-9.51672 29.8883-8.96649 29.8883H-.99628C-.44603 29.8883 0 30.33434 0 30.88458V48.81757C0 49.3678-.44603 49.81384-.99628 49.81384H-28.89203C-29.44226 49.81384-29.8883 49.3678-29.8883 48.81757V10.95905C-29.8883 10.4088-29.44226 9.96277-28.89203 9.96277H48.81757C49.3678 9.96277 49.81384 9.51672 49.81384 8.96649V-98.63141C49.81384-99.18164 49.3678-99.62769 48.81757-99.62769H.99628C.44603-99.62769 0-99.18164 0-98.63141V-60.77289C0-60.22264 .44603-59.77661 .99628-59.77661H28.89203C29.44226-59.77661 29.8883-60.22264 29.8883-60.77289V-78.70587C29.8883-79.2561 29.44226-79.70215 28.89203-79.70215H20.92181C20.37157-79.70215 19.92554-79.2561 19.92554-78.70587V-70.73566C19.92554-70.18541 19.47949-69.73938 18.92926-69.73938H10.95905C10.4088-69.73938 9.96277-70.18541 9.96277-70.73566V-88.66864C9.96277-89.21887 10.4088-89.66492 10.95905-89.66492H38.8548C39.40503-89.66492 39.85107-89.21887 39.85107-88.66864V-50.81012C39.85107-50.25987 39.40503-49.81384 38.8548-49.81384H-38.8548C-39.40503-49.81384-39.85107-49.3678-39.85107-48.81757V-10.95905C-39.85107-10.4088-39.40503-9.96277-38.8548-9.96277H-10.95905C-10.4088-9.96277-9.96277-10.4088-9.96277-10.95905V-28.89203C-9.96277-29.44226-10.4088-29.8883-10.95905-29.8883H-18.92926C-19.47949-29.8883-19.92554-29.44226-19.92554-28.89203V-20.92181C-19.92554-20.37157-20.37157-19.92554-20.92181-19.92554H-28.89203C-29.44226-19.92554-29.8883-20.37157-29.8883-20.92181V-38.8548C-29.8883-39.40503-29.44226-39.85107-28.89203-39.85107H-.99628C-.44603-39.85107 0-39.40503 0-38.8548V0M9.96277 0V-38.8548C9.96277-39.40503 10.4088-39.85107 10.95905-39.85107H38.8548C39.40503-39.85107 39.85107-39.40503 39.85107-38.8548V-30.88458C39.85107-30.33434 39.40503-29.8883 38.8548-29.8883H20.92181C20.37157-29.8883 19.92554-29.44226 19.92554-28.89203V-10.95905C19.92554-10.4088 20.37157-9.96277 20.92181-9.96277H28.89203C29.44226-9.96277 29.8883-10.4088 29.8883-10.95905V-18.92926C29.8883-19.47949 30.33434-19.92554 30.88458-19.92554H38.8548C39.40503-19.92554 39.85107-19.47949 39.85107-18.92926V-.99628C39.85107-.44603 39.40503 0 38.8548 0H9.96277" fill="#82add3" fill-rule="evenodd"/>
<path transform="matrix(1,0,0,-1,65.753,85.681018)" stroke-width="1.99255" stroke-linecap="butt" stroke-miterlimit="10" stroke-linejoin="miter" fill="none" stroke="#000000" d="M0 0H-38.8548C-39.40503 0-39.85107 .44603-39.85107 .99628V58.78033C-39.85107 59.33057-39.40503 59.77661-38.8548 59.77661H8.96649C9.51672 59.77661 9.96277 59.33057 9.96277 58.78033V20.92181C9.96277 20.37157 9.51672 19.92554 8.96649 19.92554H-18.92926C-19.47949 19.92554-19.92554 20.37157-19.92554 20.92181V38.8548C-19.92554 39.40503-19.47949 39.85107-18.92926 39.85107H-10.95905C-10.4088 39.85107-9.96277 39.40503-9.96277 38.8548V30.88458C-9.96277 30.33434-9.51672 29.8883-8.96649 29.8883H-.99628C-.44603 29.8883 0 30.33434 0 30.88458V48.81757C0 49.3678-.44603 49.81384-.99628 49.81384H-28.89203C-29.44226 49.81384-29.8883 49.3678-29.8883 48.81757V10.95905C-29.8883 10.4088-29.44226 9.96277-28.89203 9.96277H48.81757C49.3678 9.96277 49.81384 9.51672 49.81384 8.96649V-98.63141C49.81384-99.18164 49.3678-99.62769 48.81757-99.62769H.99628C.44603-99.62769 0-99.18164 0-98.63141V-60.77289C0-60.22264 .44603-59.77661 .99628-59.77661H28.89203C29.44226-59.77661 29.8883-60.22264 29.8883-60.77289V-78.70587C29.8883-79.2561 29.44226-79.70215 28.89203-79.70215H20.92181C20.37157-79.70215 19.92554-79.2561 19.92554-78.70587V-70.73566C19.92554-70.18541 19.47949-69.73938 18.92926-69.73938H10.95905C10.4088-69.73938 9.96277-70.18541 9.96277-70.73566V-88.66864C9.96277-89.21887 10.4088-89.66492 10.95905-89.66492H38.8548C39.40503-89.66492 39.85107-89.21887 39.85107-88.66864V-50.81012C39.85107-50.25987 39.40503-49.81384 38.8548-49.81384H-38.8548C-39.40503-49.81384-39.85107-49.3678-39.85107-48.81757V-10.95905C-39.85107-10.4088-39.40503-9.96277-38.8548-9.96277H-10.95905C-10.4088-9.96277-9.96277-10.4088-9.96277-10.95905V-28.89203C-9.96277-29.44226-10.4088-29.8883-10.95905-29.8883H-18.92926C-19.47949-29.8883-19.92554-29.44226-19.92554-28.89203V-20.92181C-19.92554-20.37157-20.37157-19.92554-20.92181-19.92554H-28.89203C-29.44226-19.92554-29.8883-20.37157-29.8883-20.92181V-38.8548C-29.8883-39.40503-29.44226-39.85107-28.89203-39.85107H-.99628C-.44603-39.85107 0-39.40503 0-38.8548V0M9.96277 0V-38.8548C9.96277-39.40503 10.4088-39.85107 10.95905-39.85107H38.8548C39.40503-39.85107 39.85107-39.40503 39.85107-38.8548V-30.88458C39.85107-30.33434 39.40503-29.8883 38.8548-29.8883H20.92181C20.37157-29.8883 19.92554-29.44226 19.92554-28.89203V-10.95905C19.92554-10.4088 20.37157-9.96277 20.92181-9.96277H28.89203C29.44226-9.96277 29.8883-10.4088 29.8883-10.95905V-18.92926C29.8883-19.47949 30.33434-19.92554 30.88458-19.92554H38.8548C39.40503-19.92554 39.85107-19.47949 39.85107-18.92926V-.99628C39.85107-.44603 39.40503 0 38.8548 0H9.96277"/>
</svg>
