<svg xmlns="http://www.w3.org/2000/svg" xmlns:xlink="http://www.w3.org/1999/xlink" xmlns:inkscape="http://www.inkscape.org/namespaces/inkscape" version="1.1" width="433.05" height="289.92" viewBox="0 0 433.05 289.92">
<defs>
<path id="font_1_83" d="M.70599368 .49264527C.70599368 .6005707 .61099246 .6855469 .44599916 .6855469H.037994386V.64253237H.14399719V.042999269H.037994386V0C.066986087 .0019989014 .17399597 .0019989014 .20999146 .0019989014 .24598694 .0019989014 .35299684 .0019989014 .38198854 0V.042999269H.27598573V.3047638H.44599916C.61299136 .3047638 .70599368 .38972474 .70599368 .49264527M.5649872 .49264527C.5649872 .42669679 .5649872 .34277345 .4099884 .34277345H.2709961V.64253237H.4099884C.5649872 .64253237 .5649872 .5606079 .5649872 .49264527Z"/>
<path id="font_1_81" d="M.5299988 .21913147C.5299988 .35412599 .43798829 .453125 .2809906 .453125 .117996219 .453125 .0309906 .3491211 .0309906 .21913147 .0309906 .088134769 .12298584-.005859375 .27999879-.005859375 .44299317-.005859375 .5299988 .09312439 .5299988 .21913147M.4099884 .22912598C.4099884 .14613343 .4099884 .030136109 .2809906 .030136109 .15098572 .030136109 .15098572 .14712525 .15098572 .22912598 .15098572 .27612306 .15098572 .3261261 .16999817 .36212159 .19198609 .40211488 .23699951 .42012025 .27999879 .42012025 .33699037 .42012025 .37298585 .39311219 .3899994 .3651123 .4099884 .32911683 .4099884 .27713014 .4099884 .22912598Z"/>
<path id="font_1_66" d="M.2789917 0V.042999269H.21699524V.4501953L.04699707 .4423828V.3993683C.10598755 .3993683 .11299133 .3993683 .11299133 .3603363V.042999269H.04399109V0C.066986087 .0019989014 .13598633 .0019989014 .16299439 .0019989014 .19099427 .0019989014 .25498963 .0019989014 .2789917 0M.22898865 .6081238C.22898865 .64912417 .19499207 .68013 .15699768 .68013 .115997318 .68013 .083999637 .64712527 .083999637 .6081238 .083999637 .5671234 .117996219 .5361328 .1559906 .5361328 .19699097 .5361328 .22898865 .5691223 .22898865 .6081238Z"/>
<path id="font_1_77" d="M.59999087 0V.042999269H.5309906V.30613709C.5309906 .40118409 .48999024 .4501953 .37998963 .4501953 .30799867 .4501953 .24598694 .41519166 .21199036 .34014894H.21099854V.4501953L.041992189 .4423828V.3993683C.10398865 .3993683 .11099243 .3993683 .11099243 .36035157V.042999269H.041992189V0C.06498718 .0019989014 .13699341 .0019989014 .16499329 .0019989014 .19299317 .0019989014 .2659912 .0019989014 .2889862 0V.042999269H.21998596V.25627137C.21998596 .3643341 .2999878 .41719056 .3639984 .41719056 .40098573 .41719056 .42199708 .3932495 .42199708 .31733705V.042999269H.35299684V0C.37599183 .0019989014 .44799806 .0019989014 .47599793 .0019989014 .5039978 .0019989014 .57699587 .0019989014 .59999087 0Z"/>
<path id="font_1_105" d="M.37399293 .124176029V.17721558H.33198548V.1251831C.33198548 .059143068 .3019867 .030136109 .2709961 .030136109 .21099854 .030136109 .21099854 .09716797 .21099854 .12017822V.4013214H.35499574V.44433595H.21099854V.6357422H.16899109C.16799927 .53652957 .11999512 .43733216 .020996094 .43432618V.4013214H.101989749V.123184207C.101989749 .01713562 .18399048-.005859375 .2559967-.005859375 .32998658-.005859375 .37399293 .05014038 .37399293 .124176029Z"/>
<path id="font_1_98" d="M.40499879 .13912964C.40499879 .18711853 .3789978 .22012329 .35899354 .23812866 .31799317 .27212525 .28399659 .27812196 .22999573 .28811646 .1659851 .29911805 .10598755 .31011964 .10598755 .35812379 .10598755 .42311097 .19499207 .42311097 .21598816 .42311097 .32699586 .42311097 .33299256 .3531189 .33499146 .328125 .33599855 .3151245 .34399415 .3151245 .35598756 .3151245 .3769989 .3151245 .3769989 .31811524 .3769989 .34111024V.42712403C.3769989 .44612123 .3769989 .453125 .3619995 .453125 .35598756 .453125 .35398866 .453125 .33898927 .4441223 .33499146 .44111634 .32398988 .43411256 .31900025 .43112184 .29100038 .44711305 .2539978 .453125 .21798706 .453125 .18798828 .453125 .037994386 .453125 .037994386 .32312013 .037994386 .21812439 .1619873 .19612122 .19299317 .19113159 .21998596 .18612671 .25299073 .18013 .25698854 .18013 .29699708 .17112732 .33699037 .14613343 .33699037 .10412598 .33699037 .027130127 .24598694 .027130127 .22499085 .027130127 .17399597 .027130127 .11099243 .043136598 .08299255 .14012146 .07699585 .16012573 .07598877 .16113281 .05899048 .16113281 .037994386 .16113281 .037994386 .15812683 .037994386 .13513184V.020126343C.037994386 .0011291504 .037994386-.005859375 .052993776-.005859375 .05999756-.005859375 .06199646-.005859375 .08198547 .010131836L.10798645 .029129029C.15299988-.005859375 .20698548-.005859375 .22499085-.005859375 .27999879-.005859375 .40499879 .006134033 .40499879 .13912964Z"/>
<path id="font_1_116" d="M.57598879 0V.042999269H.5059967L.33699037 .24717713 .45298768 .38031007C.46398927 .3933258 .47299195 .4013214 .55599978 .4013214V.44433595L.46398927 .44232179C.43499757 .44232179 .3919983 .44232179 .3639984 .44433595V.4013214C.3829956 .4013214 .4039917 .3963318 .4039917 .38931275 .4039917 .38931275 .39898683 .38031007 .39698792 .37831117L.30999757 .2802124 .21099854 .4013214H.25299073V.44433595C.22999573 .44232179 .1619873 .44232179 .1349945 .44232179 .10499573 .44232179 .050994874 .44232179 .022994996 .44433595V.4013214H.09399414L.25 .21115113 .11999512 .06401062C.10798645 .05000305 .100997928 .042999269 .017990113 .042999269V0L.11099243 .0019989014C.13999939 .0019989014 .18199158 .0019989014 .20999146 0V.042999269C.19099427 .042999269 .16999817 .04800415 .16999817 .055007936 .16999817 .055007936 .16999817 .057006837 .1769867 .0650177L.2769928 .17811585 .3880005 .042999269H.34599305V0C.36999513 .0019989014 .43699647 .0019989014 .46499635 .0019989014 .49499513 .0019989014 .5479889 .0019989014 .57598879 0Z"/>
<path id="font_1_55" d="M.42199708 .617218C.42199708 .65818789 .38598634 .7001953 .31498719 .7001953 .22399903 .7001953 .11299133 .66218569 .11299133 .54626467V.44433595H.038986207V.4013214H.11299133V.042999269H.04399109V0C.066986087 .0019989014 .14199829 .0019989014 .16999817 .0019989014 .19898987 .0019989014 .27999879 .0019989014 .3039856 0V.042999269H.21699524V.4013214H.33099366V.44433595H.21199036V.54725649C.21199036 .65119937 .27799989 .66719058 .31098939 .66719058 .32199098 .66719058 .32398988 .6661835 .32998658 .6641846 .31498719 .65419009 .30599977 .63720706 .30599977 .6162262 .30599977 .57624819 .33799745 .55825808 .3639984 .55825808 .38598634 .55825808 .42199708 .5732422 .42199708 .617218Z"/>
<path id="font_1_96" d="M.4269867 .3711853C.4269867 .42218019 .375 .4501953 .32699586 .4501953 .24798584 .4501953 .21398926 .38119508 .19999695 .33918763H.19898987V.4501953L.034988405 .4423828V.3993683C.09700012 .3993683 .10398865 .3993683 .10398865 .3603363V.042999269H.034988405V0C.057998659 .0019989014 .1329956 .0019989014 .16099549 .0019989014 .18998719 .0019989014 .2709961 .0019989014 .29499818 0V.042999269H.20799256V.22518921C.20799256 .25819398 .21499634 .41719056 .33198548 .41719056 .31799317 .40618897 .31098939 .38919068 .31098939 .3711853 .31098939 .33018495 .34399415 .31318666 .36898805 .31318666 .3939972 .31318666 .4269867 .33018495 .4269867 .3711853Z"/>
<path id="font_1_75" d="M.9129944 0V.042999269H.84399417V.30636598C.84399417 .39823915 .8049927 .4501953 .69299319 .4501953 .59199526 .4501953 .54499819 .38227845 .5289917 .3503723 .5130005 .43518067 .44499208 .4501953 .3809967 .4501953 .2849884 .4501953 .23298645 .38827516 .21199036 .3403778H.21099854V.4501953L.041992189 .4423828V.3993683C.10398865 .3993683 .11099243 .3993683 .11099243 .36035157V.042999269H.041992189V0C.06498718 .0019989014 .13699341 .0019989014 .16499329 .0019989014 .19299317 .0019989014 .2659912 .0019989014 .2889862 0V.042999269H.21998596V.25627137C.21998596 .36532594 .30099488 .41719056 .3639984 .41719056 .40098573 .41719056 .4229889 .3952484 .4229889 .3173828V.042999269H.35398866V0C.3769989 .0019989014 .44898988 .0019989014 .47698976 .0019989014 .5049896 .0019989014 .5779877 .0019989014 .6009979 0V.042999269H.5319977V.25628663C.5319977 .36532594 .61299136 .41719056 .6759949 .41719056 .71299746 .41719056 .7350006 .3952484 .7350006 .3173828V.042999269H.66600039V0C.68899539 .0019989014 .7609863 .0019989014 .78900149 .0019989014 .81700137 .0019989014 .8899994 .0019989014 .9129944 0Z"/>
<path id="font_1_28" d="M.54100039 .022140503C.54100039 .043136598 .5319977 .043136598 .5179901 .043136598 .45498658 .044128419 .45498658 .060134889 .45498658 .08312988V.29911805C.45498658 .39111329 .38198854 .453125 .24099732 .453125 .18499756 .453125 .066986087 .44812013 .066986087 .36412049 .066986087 .32211305 .09899902 .30412293 .12599182 .30412293 .1559906 .30412293 .18499756 .32511903 .18499756 .3631134 .18499756 .3821106 .17799378 .40011598 .16099549 .41111756 .19400025 .42012025 .21798706 .42012025 .23699951 .42012025 .30499269 .42012025 .34599305 .3821106 .34599305 .30012513V.26011659C.18798828 .26011659 .0289917 .21612549 .0289917 .10513306 .0289917 .014129639 .14498902-.005859375 .21398926-.005859375 .29100038-.005859375 .33999635 .036132814 .3600006 .0801239 .3600006 .042999269 .3600006 0 .46099855 0H.5119934C.5329895 0 .54100039 0 .54100039 .021987915V.022140503M.34599305 .13899231C.34599305 .04499817 .2619934 .026992798 .22999573 .026992798 .18099976 .026992798 .13999939 .05999756 .13999939 .10598755 .13999939 .19699097 .24798584 .22799683 .34599305 .23298645V.13899231Z"/>
<path id="font_1_88" d="M.22799683 .07199097C.22799683 .11299133 .19499207 .14399719 .1559906 .14399719 .116989139 .14399719 .083999637 .11299133 .083999637 .07199097 .083999637 .0309906 .116989139 0 .1559906 0 .19499207 0 .22799683 .0309906 .22799683 .07199097Z"/>
<path id="font_1_33" d="M.81199648 .07711792C.81199648 .08911133 .8019867 .08911133 .7859955 .08911133H.7619934C.7480011 .08911133 .74598696 .08911133 .73399356 .084121707 .69499209 .069122318 .58499148 .027130127 .43998719 .027130127 .21499634 .027130127 .10398865 .17210388 .10398865 .34713746 .10398865 .53515627 .22799683 .66719058 .43699647 .66719058 .6100006 .66719058 .769989 .571167 .769989 .3391266 .769989 .24911499 .7579956 .16210938 .69599917 .16210938 .6619873 .16210938 .6619873 .21011353 .6619873 .22210694V.45315553C.6619873 .47920228 .6609955 .47920228 .6369934 .47920228H.59498599C.5629883 .53422549 .5039978 .56521609 .43499757 .56521609 .30699159 .56521609 .21199036 .48320008 .21199036 .3471527 .21199036 .21011353 .30799867 .12910462 .43499757 .12910462 .48999024 .12910462 .5329895 .1481018 .56399539 .17610169 .5970001 .12910462 .67099 .12910462 .6859894 .12910462 .72698977 .12910462 .7649994 .1461029 .7899933 .20510865 .81199648 .26113893 .81199648 .3311615 .81199648 .3451538 .81199648 .56121829 .6629944 .7001953 .43699647 .7001953 .20399475 .7001953 .06199646 .5542145 .06199646 .3471527 .06199646 .15609741 .18598938-.005859375 .44099427-.005859375 .5379944-.005859375 .6629944 .010131836 .7969971 .06411743 .8049927 .06712341 .81199648 .069122318 .81199648 .07711792M.5529938 .22111511C.5119934 .16410828 .45199586 .16210938 .43899537 .16210938 .37799073 .16210938 .32099916 .21812439 .32099916 .3471527 .32099916 .4781952 .3789978 .53222659 .43899537 .53222659 .45199586 .5319977 .5119934 .5299988 .5529938 .47299195V.22111511Z"/>
<path id="font_1_111" d="M.82499697 .64253237V.6855469C.7939911 .6835327 .7220001 .6835327 .71398928 .6835327 .6859894 .6835327 .61499026 .6835327 .59199526 .6855469V.64253237C.6139984 .64253237 .651001 .64253237 .67900088 .6315613L.673996 .61756899 .46899415 .15003968 .25299073 .64253237H.34599305V.6855469C.31399537 .6835327 .21798706 .6835327 .17999268 .6835327 .147995 .6835327 .04899597 .6835327 .023986817 .6855469V.64253237H.11399841L.3899994 .012176514C.39898683-.007797241 .4079895-.0087890629 .42399598-.0087890629 .43998719-.0087890629 .44999696-.0087890629 .45899964 .012176514L.723999 .6195679C.7299957 .6325531 .73399356 .64253237 .80799868 .64253237H.82499697Z"/>
<path id="font_1_50" d="M.48098756 .11706543C.48098756 .13206482 .46598817 .13206482 .45999146 .13206482 .44400025 .13206482 .44299317 .12905884 .43699647 .11607361 .41099549 .051116945 .34498597 .030136109 .29699708 .030136109 .1519928 .030136109 .15098572 .16503906 .15098572 .22099304H.45199586C.47499085 .22099304 .48098756 .22099304 .48098756 .24598694 .48098756 .27601625 .47399903 .35105897 .42799378 .3981018 .38598634 .4401245 .32998658 .453125 .27198792 .453125 .115997318 .453125 .0309906 .35105897 .0309906 .22499085 .0309906 .08509827 .13398743-.005859375 .2849884-.005859375 .43598939-.005859375 .48098756 .1000824 .48098756 .11706543M.3889923 .25H.15098572C.15299988 .29101563 .1539917 .3300476 .1749878 .3660736 .19400025 .3981018 .22898865 .42012025 .27198792 .42012025 .3789978 .42012025 .3880005 .30003358 .3889923 .25Z"/>
<path id="font_1_43" d="M.46798707 .117126468C.46798707 .12913513 .45700074 .12913513 .44699098 .12913513 .43099977 .12913513 .42999269 .12812805 .4249878 .11613464 .41799928 .09713745 .3909912 .030136109 .29899598 .030136109 .1579895 .030136109 .1579895 .1821289 .1579895 .22712708 .1579895 .28611756 .15899658 .41711427 .2899933 .41711427 .29699708 .41711427 .35598756 .41511537 .35598756 .41011048 .35598756 .41011048 .35499574 .40811158 .35299684 .40711976 .34999085 .40411378 .33699037 .38911439 .33699037 .36412049 .33699037 .32211305 .37098695 .30511476 .3959961 .30511476 .4169922 .30511476 .45498658 .31811524 .45498658 .3651123 .45498658 .44711305 .33999635 .453125 .28599549 .453125 .10798645 .453125 .037994386 .33711244 .037994386 .22212219 .037994386 .086135867 .1329956-.005859375 .27999879-.005859375 .43699647-.005859375 .46798707 .11012268 .46798707 .117126468Z"/>
<path id="font_1_97" d="M.56199648 .20014954C.56199648 .2942047 .5 .38433839 .3909912 .40937806L.2539978 .4404297C.15499878 .4624176 .1519928 .5343628 .1519928 .5483551 .1519928 .59928897 .18499756 .65823367 .28199769 .65823367 .3789978 .65823367 .46598817 .61128237 .4869995 .48042298 .48999024 .45942689 .48999024 .4584198 .5089874 .4584198 .5299988 .4584198 .5299988 .46142579 .5299988 .48442079V.6722412C.5299988 .6912384 .5299988 .6982422 .5149994 .6982422 .5079956 .6982422 .5049896 .6972351 .49598695 .6872406L.45298768 .6382599C.42799378 .6592407 .37799073 .6982422 .2809906 .6982422 .13798523 .6982422 .06199646 .6082916 .06199646 .4994049 .06199646 .43241883 .09799194 .38534547 .11199951 .37132264 .1639862 .31924439 .19198609 .31323243 .29599 .2902069 .3959961 .26817323 .4079895 .26617433 .42999269 .2451477 .44299317 .23214722 .47200013 .20414734 .47200013 .15318299 .47200013 .11021423 .45098878 .031280519 .33898927 .031280519 .25099183 .031280519 .11199951 .06124878 .10398865 .20713806 .102996829 .22514344 .102996829 .22813416 .08299255 .22813416 .06199646 .22813416 .06199646 .22514344 .06199646 .20214844V.014266968C.06199646-.0047302248 .06199646-.01171875 .07699585-.01171875 .083999637-.01171875 .084991458-.010726929 .09498596-.0017242432 .10598755 .009277344 .114990238 .022277832 .13999939 .04725647 .19799805 .0012664795 .27999879-.01171875 .33999635-.01171875 .49598695-.01171875 .56199648 .09422302 .56199648 .20014954Z"/>
<path id="font_1_118" d="M.56900027 .4013214V.44433595C.5349884 .44232179 .5309906 .44232179 .48999024 .44232179L.4039917 .44433595V.4013214C.4039917 .4013214 .45199586 .4013214 .45199586 .38832093 .45199586 .38531495 .44898988 .37931825 .44799806 .37631227L.33099366 .124176029 .20298767 .4013214H.2579956V.44433595C.23399353 .44232179 .1659851 .44232179 .13798523 .44232179 .10899353 .44232179 .049987794 .44232179 .023986817 .44433595V.4013214H.08799744L.272995 .000091552738C.2679901-.0119018559 .2539978-.040924074 .24899292-.05293274 .22799683-.097961429 .19599915-.16699219 .12599182-.16699219 .12199402-.16699219 .10998535-.16699219 .09899902-.16099549 .100997928-.1599884 .1309967-.147995 .1309967-.10997009 .1309967-.07695007 .10699463-.05593872 .07699585-.05593872 .04598999-.05593872 .021987915-.07695007 .021987915-.110961917 .021987915-.1579895 .06599426-.19999695 .12599182-.19999695 .20799256-.19999695 .2619934-.12597656 .28199769-.081954959L.49499513 .37931825C.5009918 .3933258 .5049896 .4013214 .56900027 .4013214Z"/>
<path id="font_1_72" d="M.28599549 0V.042999269H.21699524V.69433596L.04399109 .6855469V.64253237C.10598755 .64253237 .11299133 .64253237 .11299133 .6035614V.042999269H.04399109V0C.066986087 .0019989014 .13798523 .0019989014 .16499329 .0019989014 .19198609 .0019989014 .2630005 .0019989014 .28599549 0Z"/>
<path id="font_1_34" d="M.7369995 .18492127C.7369995 .2798767 .6539917 .34883119 .5329895 .35783387 .6769867 .38482667 .7049866 .46673585 .7049866 .51368716 .7049866 .60557559 .62098696 .6855469 .46099855 .6855469H.038986207V.64253237H.14498902V.042999269H.038986207V0H.4909973C.6559906 0 .7369995 .088974 .7369995 .18492127M.57299807 .51467898C.57299807 .44476319 .5339966 .37283326 .4169922 .37283326H.2679901V.64253237H.44898988C.5519867 .64253237 .57299807 .564621 .57299807 .51467898M.6009979 .18692017C.6009979 .12394714 .5669861 .042999269 .45199586 .042999269H.2679901V.33984376H.46699525C.58399966 .33984376 .6009979 .23188782 .6009979 .18692017Z"/>
<path id="font_1_109" d="M.59999087 0V.042999269C.5379944 .042999269 .5309906 .042999269 .5309906 .08201599V.4501953L.35299684 .4423828V.3993683C.4149933 .3993683 .42199708 .3993683 .42199708 .36035157V.16423035C.42199708 .08818054 .3769989 .027130127 .29899598 .027130127 .22399903 .027130127 .21998596 .05215454 .21998596 .10719299V.4501953L.041992189 .4423828V.3993683C.10398865 .3993683 .11099243 .3993683 .11099243 .36035157V.12319946C.11099243 .023132325 .17799378-.005859375 .2849884-.005859375 .30899049-.005859375 .3829956-.005859375 .42599488 .075164798H.4269867V-.005859375L.59999087 0Z"/>
<path id="font_1_47" d="M.58898928 0V.042999269C.5269928 .042999269 .519989 .042999269 .519989 .08201599V.69433596L.34700013 .6855469V.64253237C.40899659 .64253237 .41600038 .64253237 .41600038 .6036682V.40219117C.3939972 .42118836 .34999085 .4501953 .2809906 .4501953 .13899231 .4501953 .037994386 .36218263 .037994386 .22215271 .037994386 .07914734 .13699341-.005859375 .269989-.005859375 .32499696-.005859375 .37199403 .013137817 .41099549 .046142579V-.005859375L.58898928 0M.41099549 .100997928C.36898805 .040130617 .31799317 .027130127 .28199769 .027130127 .1579895 .027130127 .1579895 .15414429 .1579895 .22015381 .1579895 .26716615 .1579895 .3171692 .17999268 .35517884 .21099854 .4111786 .269989 .41719056 .29299928 .41719056 .33399964 .41719056 .37799073 .39918519 .41099549 .35517884V.100997928Z"/>
<path id="font_1_59" d="M.54499819 .40003968C.54499819 .42404176 .5269928 .4560547 .4850006 .4560547 .44198609 .4560547 .40098573 .43504334 .37998963 .41705323 .33898927 .44119264 .2999878 .4501953 .24899292 .4501953 .11099243 .4501953 .055999757 .3731842 .055999757 .30319215 .055999757 .27218629 .06599426 .23118592 .10798645 .19718933 .09098816 .17819214 .07299805 .14318848 .07299805 .10719299 .07299805 .064193729 .09599304 .027191163 .116989139 .011184692 .09298706 .0052490236 .0309906-.01776123 .0309906-.0748291 .0309906-.13391114 .09599304-.20095825 .27999879-.20095825 .44599916-.20095825 .5299988-.14692688 .5299988-.07182312 .5299988 .01625061 .47200013 .04525757 .44699098 .057250978 .39898683 .08125305 .33499146 .08125305 .24699402 .08125305 .22200012 .08125305 .17799378 .08125305 .17298889 .08224487 .12998963 .08924866 .117996219 .12724304 .117996219 .14624024 .117996219 .15423584 .11898804 .16923523 .12998963 .18223572 .17799378 .15625 .23399353 .15625 .24899292 .15625 .3869934 .15625 .44198609 .23320008 .44198609 .30314637 .44198609 .35411073 .41299439 .39007569 .40098573 .4000702 .42999269 .41604615 .45399476 .42004396 .47099305 .42204286 .46798707 .41705323 .46499635 .41305543 .46499635 .4000702 .46499635 .37908937 .47898866 .36009217 .5049896 .36009217 .5309906 .36009217 .54499819 .37908937 .54499819 .4000702V.40003968M.33599855 .30314637C.33599855 .2571869 .33599855 .18824768 .24899292 .18824768 .1619873 .18812561 .1619873 .25715638 .1619873 .30316163 .1619873 .34916688 .1619873 .41818238 .24899292 .41818238 .33599855 .41818238 .33599855 .34916688 .33599855 .30316163V.30314637M.44799806-.075927738C.44799806-.1109314 .41299439-.16894531 .2809906-.16894531 .14898682-.16874695 .11299133-.11274719 .11299133-.07475281 .11299133-.0107421879 .17599488-.0107421879 .19099427-.0107421879H.30499269C.37799073-.0107421879 .44799806-.023742676 .44799806-.07574463V-.075927738Z"/>
<path id="font_1_63" d="M.59999087 0V.042999269H.5309906V.30659486C.5309906 .4012909 .48999024 .4501953 .37998963 .4501953 .2789917 .4501953 .22999573 .37942506 .21598816 .34960938H.21499634V.69433596L.041992189 .6855469V.64253237C.10398865 .64253237 .11099243 .64253237 .11099243 .6036682V.042999269H.041992189V0C.06498718 .0019989014 .13699341 .0019989014 .16499329 .0019989014 .19299317 .0019989014 .2659912 .0019989014 .2889862 0V.042999269H.21998596V.25610353C.21998596 .36416627 .2999878 .41719056 .3639984 .41719056 .40098573 .41719056 .42199708 .39317323 .42199708 .31713868V.042999269H.35299684V0C.37599183 .0019989014 .44799806 .0019989014 .47599793 .0019989014 .5039978 .0019989014 .57699587 .0019989014 .59999087 0Z"/>
<path id="font_1_84" d="M.58599856 .22319031C.58599856 .3611908 .49299623 .4501953 .35798646 .4501953 .29899598 .4501953 .24798584 .43019105 .20799256 .39819337V.4501953L.034988405 .4423828V.3993683C.09700012 .3993683 .10398865 .3993683 .10398865 .36035157V-.15039063H.034988405V-.19340515C.057998659-.19139099 .12998963-.19139099 .1579895-.19139099 .18598938-.19139099 .25898744-.19139099 .28199769-.19340515V-.15039063H.21299744V.041137697C.23799134 .019134522 .28199769-.005859375 .34199525-.005859375 .47898866-.005859375 .58599856 .0771637 .58599856 .2232666V.22319031M.46598817 .2232666C.46598817 .07817078 .3939972 .027130127 .32998658 .027130127 .2869873 .027130127 .24398804 .04914856 .21299744 .09617615V.3503418C.25 .39819337 .30299378 .41418458 .34199525 .41418458 .40699769 .41418458 .46598817 .3551941 .46598817 .22319031V.2232666Z"/>
</defs>
<path transform="matrix(1,0,0,-1,0,289.92)" d="M0 0H433.052V289.923H0Z" fill="#fdfdfd"/>
<path transform="matrix(1,0,0,-1,216.526,251.49102)" stroke-width="1.99255" stroke-linecap="butt" stroke-miterlimit="10" stroke-linejoin="miter" fill="none" stroke="#000000" d="M-106.76302 115.06998H-111.7444V149.93967"/>
<path transform="matrix(1,0,0,-1,216.526,251.49102)" stroke-width="1.99255" stroke-linecap="butt" stroke-miterlimit="10" stroke-linejoin="miter" fill="none" stroke="#000000" d="M-106.76302 184.80936H-111.7444V149.93967"/>
<path transform="matrix(1,0,0,-1,216.526,251.49102)" stroke-width="1.99255" stroke-linecap="butt" stroke-miterlimit="10" stroke-linejoin="miter" fill="none" stroke="#000000" d="M-76.87471 115.06998H-71.89333V149.93967"/>
<path transform="matrix(1,0,0,-1,216.526,251.49102)" stroke-width="1.99255" stroke-linecap="butt" stroke-miterlimit="10" stroke-linejoin="miter" fill="none" stroke="#000000" d="M-76.87471 184.80936H-71.89333V149.93967"/>
<path transform="matrix(1,0,0,-1,216.526,251.49102)" d="M-99.78882 144.95829C-99.78882 146.05875-100.68091 146.95084-101.78137 146.95084-102.88185 146.95084-103.77393 146.05875-103.77393 144.95829-103.77393 143.8578-102.88185 142.96573-101.78137 142.96573-100.68091 142.96573-99.78882 143.8578-99.78882 144.95829ZM-101.78137 144.95829" fill="#c9643b"/>
<path transform="matrix(1,0,0,-1,216.526,251.49102)" d="M-89.82605 144.95829C-89.82605 146.05875-90.71814 146.95084-91.8186 146.95084-92.91908 146.95084-93.81116 146.05875-93.81116 144.95829-93.81116 143.8578-92.91908 142.96573-91.8186 142.96573-90.71814 142.96573-89.82605 143.8578-89.82605 144.95829ZM-91.8186 144.95829" fill="#c9643b"/>
<path transform="matrix(1,0,0,-1,216.526,251.49102)" d="M-79.86328 144.95829C-79.86328 146.05875-80.75537 146.95084-81.85583 146.95084-82.95631 146.95084-83.84839 146.05875-83.84839 144.95829-83.84839 143.8578-82.95631 142.96573-81.85583 142.96573-80.75537 142.96573-79.86328 143.8578-79.86328 144.95829ZM-81.85583 144.95829" fill="#c9643b"/>
<path transform="matrix(1,0,0,-1,216.526,251.49102)" d="M-99.78882 154.92105C-99.78882 156.02152-100.68091 156.9136-101.78137 156.9136-102.88185 156.9136-103.77393 156.02152-103.77393 154.92105-103.77393 153.82057-102.88185 152.9285-101.78137 152.9285-100.68091 152.9285-99.78882 153.82057-99.78882 154.92105ZM-101.78137 154.92105" fill="#c9643b"/>
<path transform="matrix(1,0,0,-1,216.526,251.49102)" d="M-89.82605 154.92105C-89.82605 156.02152-90.71814 156.9136-91.8186 156.9136-92.91908 156.9136-93.81116 156.02152-93.81116 154.92105-93.81116 153.82057-92.91908 152.9285-91.8186 152.9285-90.71814 152.9285-89.82605 153.82057-89.82605 154.92105ZM-91.8186 154.92105" fill="#c9643b"/>
<path transform="matrix(1,0,0,-1,216.526,251.49102)" d="M-79.86328 154.92105C-79.86328 156.02152-80.75537 156.9136-81.85583 156.9136-82.95631 156.9136-83.84839 156.02152-83.84839 154.92105-83.84839 153.82057-82.95631 152.9285-81.85583 152.9285-80.75537 152.9285-79.86328 153.82057-79.86328 154.92105ZM-81.85583 154.92105" fill="#c9643b"/>
<path transform="matrix(1,0,0,-1,216.526,251.49102)" d="M-99.78882 164.88382C-99.78882 165.98429-100.68091 166.87638-101.78137 166.87638-102.88185 166.87638-103.77393 165.98429-103.77393 164.88382-103.77393 163.78334-102.88185 162.89127-101.78137 162.89127-100.68091 162.89127-99.78882 163.78334-99.78882 164.88382ZM-101.78137 164.88382" fill="#c9643b"/>
<path transform="matrix(1,0,0,-1,216.526,251.49102)" d="M-89.82605 164.88382C-89.82605 165.98429-90.71814 166.87638-91.8186 166.87638-92.91908 166.87638-93.81116 165.98429-93.81116 164.88382-93.81116 163.78334-92.91908 162.89127-91.8186 162.89127-90.71814 162.89127-89.82605 163.78334-89.82605 164.88382ZM-91.8186 164.88382" fill="#c9643b"/>
<path transform="matrix(1,0,0,-1,216.526,251.49102)" d="M-79.86328 164.88382C-79.86328 165.98429-80.75537 166.87638-81.85583 166.87638-82.95631 166.87638-83.84839 165.98429-83.84839 164.88382-83.84839 163.78334-82.95631 162.89127-81.85583 162.89127-80.75537 162.89127-79.86328 163.78334-79.86328 164.88382ZM-81.85583 164.88382" fill="#c9643b"/>
<path transform="matrix(1,0,0,-1,216.526,251.49102)" d="M-99.78882 174.84659C-99.78882 175.94705-100.68091 176.83914-101.78137 176.83914-102.88185 176.83914-103.77393 175.94705-103.77393 174.84659-103.77393 173.74611-102.88185 172.85404-101.78137 172.85404-100.68091 172.85404-99.78882 173.74611-99.78882 174.84659ZM-101.78137 174.84659" fill="#c9643b"/>
<path transform="matrix(1,0,0,-1,216.526,251.49102)" d="M-89.82605 174.84659C-89.82605 175.94705-90.71814 176.83914-91.8186 176.83914-92.91908 176.83914-93.81116 175.94705-93.81116 174.84659-93.81116 173.74611-92.91908 172.85404-91.8186 172.85404-90.71814 172.85404-89.82605 173.74611-89.82605 174.84659ZM-91.8186 174.84659" fill="#c9643b"/>
<path transform="matrix(1,0,0,-1,216.526,251.49102)" d="M-79.86328 174.84659C-79.86328 175.94705-80.75537 176.83914-81.85583 176.83914-82.95631 176.83914-83.84839 175.94705-83.84839 174.84659-83.84839 173.74611-82.95631 172.85404-81.85583 172.85404-80.75537 172.85404-79.86328 173.74611-79.86328 174.84659ZM-81.85583 174.84659" fill="#c9643b"/>
<path transform="matrix(1,0,0,-1,216.526,251.49102)" d="M-90.82233 120.05136C-90.82233 120.6016-91.26837 121.04764-91.8186 121.04764-92.36884 121.04764-92.81488 120.6016-92.81488 120.05136-92.81488 119.50111-92.36884 119.05508-91.8186 119.05508-91.26837 119.05508-90.82233 119.50111-90.82233 120.05136ZM-91.8186 120.05136"/>
<path transform="matrix(1,0,0,-1,216.526,251.49102)" d="M-90.82233 125.03275C-90.82233 125.58298-91.26837 126.02902-91.8186 126.02902-92.36884 126.02902-92.81488 125.58298-92.81488 125.03275-92.81488 124.4825-92.36884 124.03647-91.8186 124.03647-91.26837 124.03647-90.82233 124.4825-90.82233 125.03275ZM-91.8186 125.03275"/>
<path transform="matrix(1,0,0,-1,216.526,251.49102)" d="M-90.82233 130.01413C-90.82233 130.56436-91.26837 131.0104-91.8186 131.0104-92.36884 131.0104-92.81488 130.56436-92.81488 130.01413-92.81488 129.46389-92.36884 129.01786-91.8186 129.01786-91.26837 129.01786-90.82233 129.46389-90.82233 130.01413ZM-91.8186 130.01413"/>
<path transform="matrix(1,0,0,-1,216.526,251.49102)" d="M-119.96797 91.31517H-63.66925V108.93645H-119.96797Z" fill="#ffffff"/>
<use data-text="P" xlink:href="#font_1_83" transform="matrix(13.9477,0,0,-13.9477,105.772998,156.10701)"/>
<use data-text="o" xlink:href="#font_1_81" transform="matrix(13.9477,0,0,-13.9477,116.08035,156.10701)"/>
<use data-text="i" xlink:href="#font_1_66" transform="matrix(13.9477,0,0,-13.9477,123.93291,156.10701)"/>
<use data-text="n" xlink:href="#font_1_77" transform="matrix(13.9477,0,0,-13.9477,128.29854,156.10701)"/>
<use data-text="t" xlink:href="#font_1_105" transform="matrix(13.9477,0,0,-13.9477,136.58348,156.10701)"/>
<use data-text="s" xlink:href="#font_1_98" transform="matrix(13.9477,0,0,-13.9477,142.69257,156.10701)"/>
<path transform="matrix(1,0,0,-1,216.526,251.49102)" stroke-width="1.99255" stroke-linecap="butt" stroke-miterlimit="10" stroke-linejoin="miter" fill="none" stroke="#000000" d="M-37.02364 130.01413H-42.00502V149.93967"/>
<path transform="matrix(1,0,0,-1,216.526,251.49102)" stroke-width="1.99255" stroke-linecap="butt" stroke-miterlimit="10" stroke-linejoin="miter" fill="none" stroke="#000000" d="M-37.02364 169.8652H-42.00502V149.93967"/>
<path transform="matrix(1,0,0,-1,216.526,251.49102)" stroke-width="1.99255" stroke-linecap="butt" stroke-miterlimit="10" stroke-linejoin="miter" fill="none" stroke="#000000" d="M-7.13533 130.01413H-2.15395V149.93967"/>
<path transform="matrix(1,0,0,-1,216.526,251.49102)" stroke-width="1.99255" stroke-linecap="butt" stroke-miterlimit="10" stroke-linejoin="miter" fill="none" stroke="#000000" d="M-7.13533 169.8652H-2.15395V149.93967"/>
<path transform="matrix(1,0,0,-1,216.526,251.49102)" d="M-30.04944 139.9769C-30.04944 141.07736-30.94153 141.96945-32.04199 141.96945-33.14247 141.96945-34.03455 141.07736-34.03455 139.9769-34.03455 138.87642-33.14247 137.98435-32.04199 137.98435-30.94153 137.98435-30.04944 138.87642-30.04944 139.9769ZM-32.04199 139.9769"/>
<path transform="matrix(1,0,0,-1,216.526,251.49102)" d="M-20.08667 139.9769C-20.08667 141.07736-20.97876 141.96945-22.07922 141.96945-23.1797 141.96945-24.07178 141.07736-24.07178 139.9769-24.07178 138.87642-23.1797 137.98435-22.07922 137.98435-20.97876 137.98435-20.08667 138.87642-20.08667 139.9769ZM-22.07922 139.9769"/>
<path transform="matrix(1,0,0,-1,216.526,251.49102)" d="M-10.1239 139.9769C-10.1239 141.07736-11.01599 141.96945-12.11646 141.96945-13.21693 141.96945-14.10901 141.07736-14.10901 139.9769-14.10901 138.87642-13.21693 137.98435-12.11646 137.98435-11.01599 137.98435-10.1239 138.87642-10.1239 139.9769ZM-12.11646 139.9769"/>
<path transform="matrix(1,0,0,-1,216.526,251.49102)" d="M-30.04944 149.93967C-30.04944 151.04013-30.94153 151.93222-32.04199 151.93222-33.14247 151.93222-34.03455 151.04013-34.03455 149.93967-34.03455 148.83919-33.14247 147.94712-32.04199 147.94712-30.94153 147.94712-30.04944 148.83919-30.04944 149.93967ZM-32.04199 149.93967"/>
<path transform="matrix(1,0,0,-1,216.526,251.49102)" d="M-20.08667 149.93967C-20.08667 151.04013-20.97876 151.93222-22.07922 151.93222-23.1797 151.93222-24.07178 151.04013-24.07178 149.93967-24.07178 148.83919-23.1797 147.94712-22.07922 147.94712-20.97876 147.94712-20.08667 148.83919-20.08667 149.93967ZM-22.07922 149.93967"/>
<path transform="matrix(1,0,0,-1,216.526,251.49102)" d="M-10.1239 149.93967C-10.1239 151.04013-11.01599 151.93222-12.11646 151.93222-13.21693 151.93222-14.10901 151.04013-14.10901 149.93967-14.10901 148.83919-13.21693 147.94712-12.11646 147.94712-11.01599 147.94712-10.1239 148.83919-10.1239 149.93967ZM-12.11646 149.93967"/>
<path transform="matrix(1,0,0,-1,216.526,251.49102)" d="M-30.04944 159.90244C-30.04944 161.0029-30.94153 161.89499-32.04199 161.89499-33.14247 161.89499-34.03455 161.0029-34.03455 159.90244-34.03455 158.80196-33.14247 157.90988-32.04199 157.90988-30.94153 157.90988-30.04944 158.80196-30.04944 159.90244ZM-32.04199 159.90244"/>
<path transform="matrix(1,0,0,-1,216.526,251.49102)" d="M-20.08667 159.90244C-20.08667 161.0029-20.97876 161.89499-22.07922 161.89499-23.1797 161.89499-24.07178 161.0029-24.07178 159.90244-24.07178 158.80196-23.1797 157.90988-22.07922 157.90988-20.97876 157.90988-20.08667 158.80196-20.08667 159.90244ZM-22.07922 159.90244"/>
<path transform="matrix(1,0,0,-1,216.526,251.49102)" d="M-10.1239 159.90244C-10.1239 161.0029-11.01599 161.89499-12.11646 161.89499-13.21693 161.89499-14.10901 161.0029-14.10901 159.90244-14.10901 158.80196-13.21693 157.90988-12.11646 157.90988-11.01599 157.90988-10.1239 158.80196-10.1239 159.90244ZM-12.11646 159.90244"/>
<path transform="matrix(1,0,0,-1,216.526,251.49102)" d="M-67.10553 106.1617H22.947068V123.978229H-67.10553Z" fill="#ffffff"/>
<use data-text="x" xlink:href="#font_1_116" transform="matrix(13.9477,0,0,-13.9477,158.635,141.26102)"/>
<use data-text="f" xlink:href="#font_1_55" transform="matrix(13.9477,0,0,-13.9477,166.91992,141.26102)"/>
<use data-text="o" xlink:href="#font_1_81" transform="matrix(13.9477,0,0,-13.9477,171.71793,141.26102)"/>
<use data-text="r" xlink:href="#font_1_96" transform="matrix(13.9477,0,0,-13.9477,179.57048,141.26102)"/>
<use data-text="m" xlink:href="#font_1_75" transform="matrix(13.9477,0,0,-13.9477,185.98642,141.26102)"/>
<use data-text="m" xlink:href="#font_1_75" transform="matrix(13.9477,0,0,-13.9477,204.29976,141.26102)"/>
<use data-text="a" xlink:href="#font_1_28" transform="matrix(13.9477,0,0,-13.9477,217.3827,141.26102)"/>
<use data-text="t" xlink:href="#font_1_105" transform="matrix(13.9477,0,0,-13.9477,225.0121,141.26102)"/>
<use data-text="." xlink:href="#font_1_88" transform="matrix(13.9477,0,0,-13.9477,231.12119,141.26102)"/>
<use data-text="@" xlink:href="#font_1_33" transform="matrix(15.9402,0,0,-15.9402,153.6,107.08301)"/>
<path transform="matrix(1,0,0,-1,216.526,251.49102)" stroke-width="1.99255" stroke-linecap="butt" stroke-dasharray="4.98138,4.98138" stroke-miterlimit="10" stroke-linejoin="miter" fill="none" stroke="#000000" d="M83.43518 140.07653C82.50613 143.46015 80.25795 148.85793 78.42392 152.10955 76.58987 155.36116 72.90822 160.47652 70.2166 163.51194 67.52496 166.54737 62.50383 171.24622 59.02441 173.98679 55.545 176.72736 49.31624 180.88933 45.1393 183.26413 40.96236 185.63893 33.6864 189.15543 28.91992 191.10283 24.15343 193.05023 16.01843 195.83014 10.78569 197.29967 5.55295 198.76921-3.23087 200.7406-8.79413 201.69425-14.35738 202.6479-23.56099 203.75983-29.31046 204.17299-35.05992 204.58615-44.4452 204.81006-50.23227 204.67212-56.01933 204.53418-65.34477 203.86434-71.01959 203.17871-76.69441 202.49309-85.71693 200.94618-91.13243 199.73059-96.54793 198.515-105.03487 196.13152-110.05074 194.41744-115.06659 192.70337-122.79703 189.5449-127.28333 187.37676-131.76964 185.2086-138.54413 181.35683-142.3849 178.79085-146.22566 176.22486-151.86934 171.7802-154.96489 168.88288-158.06044 165.98555-162.42536 161.0626-164.69553 157.90888-166.9657 154.75513-169.94069 149.4813-171.32674 146.15282-172.71277 142.82434-174.21921 137.33646-174.68518 133.91953-175.15116 130.5026-175.15116 124.94278-174.68518 121.52583-174.21921 118.1089-172.71277 112.62103-171.32674 109.29256-169.94069 105.9641-166.9657 100.69023-164.69553 97.5365-162.42536 94.38275-158.06044 89.45984-154.96489 86.5625-151.86934 83.66518-146.22566 79.2205-142.3849 76.65453-138.54413 74.08853-131.76964 70.23677-127.28333 68.06862-122.79703 65.90047-115.06659 62.74199-110.05074 61.02792-105.03487 59.31386-96.54793 56.93039-91.13243 55.71478-85.71693 54.49919-76.69441 52.9523-71.01959 52.26668-65.34477 51.58105-56.01933 50.9112-50.23227 50.77325-44.4452 50.6353-35.05992 50.85922-29.31046 51.27238-23.56099 51.68555-14.35738 52.79747-8.79413 53.75111-3.23087 54.70477 5.55295 56.67618 10.78569 58.1457 16.01843 59.61523 24.15343 62.39513 28.91992 64.34253 33.6864 66.28993 40.96236 69.80644 45.1393 72.18124 49.31624 74.55606 55.545 78.71802 59.02441 81.45857 62.50383 84.19914 67.52496 88.898 70.2166 91.93343 72.90822 94.96886 76.58987 100.08421 78.42392 103.33582 80.25795 106.58743 82.50613 111.98523 83.43518 115.36885 84.36424 118.75249 85.1199 124.29454 85.1199 127.72269 85.1199 131.15082 84.36424 136.6929 83.43518 140.07653Z"/>
<path transform="matrix(1,0,0,-1,216.526,251.49102)" d="M-83.13489 41.24898H-6.4303896V60.29689H-83.13489Z" fill="#ffffff"/>
<use data-text="V" xlink:href="#font_1_111" transform="matrix(15.9402,0,0,-15.9402,143.354,206.11402)"/>
<use data-text="e" xlink:href="#font_1_50" transform="matrix(15.9402,0,0,-15.9402,155.40479,206.11402)"/>
<use data-text="r" xlink:href="#font_1_96" transform="matrix(15.9402,0,0,-15.9402,163.58209,206.11402)"/>
<use data-text="t" xlink:href="#font_1_105" transform="matrix(15.9402,0,0,-15.9402,170.91458,206.11402)"/>
<use data-text="i" xlink:href="#font_1_66" transform="matrix(15.9402,0,0,-15.9402,177.8964,206.11402)"/>
<use data-text="c" xlink:href="#font_1_43" transform="matrix(15.9402,0,0,-15.9402,182.88568,206.11402)"/>
<use data-text="e" xlink:href="#font_1_50" transform="matrix(15.9402,0,0,-15.9402,190.85578,206.11402)"/>
<use data-text="s" xlink:href="#font_1_98" transform="matrix(15.9402,0,0,-15.9402,199.03311,206.11402)"/>
<path transform="matrix(1,0,0,-1,216.526,251.49102)" d="M110.02682 65.3189H139.91513V75.28166H110.02682Z" fill="#c79c79" fill-opacity=".5"/>
<path transform="matrix(1,0,0,-1,216.526,251.49102)" d="M110.02682 75.28166H139.91513V85.24443H110.02682Z" fill="#f0cab8" fill-opacity=".5"/>
<path transform="matrix(1,0,0,-1,216.526,251.49102)" d="M110.02682 85.24443H139.91513V95.2072H110.02682Z" fill="#4836c9" fill-opacity=".5"/>
<path transform="matrix(1,0,0,-1,216.526,251.49102)" d="M110.02682 95.2072H139.91513V105.16997H110.02682Z" fill="#c4bb5c" fill-opacity=".5"/>
<path transform="matrix(1,0,0,-1,216.526,251.49102)" d="M110.02682 105.16997H139.91513V115.13274H110.02682Z" fill="#99080a" fill-opacity=".5"/>
<path transform="matrix(1,0,0,-1,216.526,251.49102)" d="M110.02682 115.13274H139.91513V125.0955H110.02682Z" fill="#34da8f" fill-opacity=".5"/>
<path transform="matrix(1,0,0,-1,216.526,251.49102)" d="M110.02682 125.0955H139.91513V135.05828H110.02682Z" fill="#56b9c3" fill-opacity=".5"/>
<path transform="matrix(1,0,0,-1,216.526,251.49102)" d="M110.02682 135.05828H139.91513V145.02104H110.02682Z" fill="#7fc803" fill-opacity=".5"/>
<path transform="matrix(1,0,0,-1,216.526,251.49102)" d="M110.02682 145.02104H139.91513V154.98381H110.02682Z" fill="#a6802d" fill-opacity=".5"/>
<path transform="matrix(1,0,0,-1,216.526,251.49102)" d="M110.02682 154.98381H139.91513V164.94658H110.02682Z" fill="#af4d28" fill-opacity=".5"/>
<path transform="matrix(1,0,0,-1,216.526,251.49102)" d="M98.45474 39.2325H151.48769V61.51634H98.45474Z" fill="#ffffff"/>
<use data-text="S" xlink:href="#font_1_97" transform="matrix(15.9402,0,0,-15.9402,324.943,205.08602)"/>
<use data-text="t" xlink:href="#font_1_105" transform="matrix(15.9402,0,0,-15.9402,334.90565,205.08602)"/>
<use data-text="y" xlink:href="#font_1_118" transform="matrix(15.9402,0,0,-15.9402,341.3933,205.08602)"/>
<use data-text="l" xlink:href="#font_1_72" transform="matrix(15.9402,0,0,-15.9402,350.86177,205.08602)"/>
<use data-text="e" xlink:href="#font_1_50" transform="matrix(15.9402,0,0,-15.9402,355.85108,205.08602)"/>
<path transform="matrix(1,0,0,-1,216.526,251.49102)" stroke-width="3.9851" stroke-linecap="butt" stroke-miterlimit="10" stroke-linejoin="miter" fill="none" stroke="#000000" d="M-169.7038-2.42792H169.7038L189.62934 12.51622V209.6535L169.7038 224.59766H-169.7038L-189.62934 209.6535V12.51622Z"/>
<path transform="matrix(1,0,0,-1,216.526,251.49102)" stroke-width="1.99255" stroke-linecap="butt" stroke-dasharray="4.98138,1.99255,2.98883,1.99255" stroke-miterlimit="10" stroke-linejoin="miter" fill="none" stroke="#000000" d="M-179.66657 27.46037H174.68518V211.64606H-179.66657Z"/>
<path transform="matrix(1,0,0,-1,216.526,251.49102)" d="M-65.57451 16.34204H60.593126V38.578058H-65.57451Z" fill="#ffffff"/>
<use data-text="B" xlink:href="#font_1_34" transform="matrix(15.9402,0,0,-15.9402,160.914,227.96002)"/>
<use data-text="o" xlink:href="#font_1_81" transform="matrix(15.9402,0,0,-15.9402,173.66617,227.96002)"/>
<use data-text="u" xlink:href="#font_1_109" transform="matrix(15.9402,0,0,-15.9402,182.6405,227.96002)"/>
<use data-text="n" xlink:href="#font_1_77" transform="matrix(15.9402,0,0,-15.9402,192.60314,227.96002)"/>
<use data-text="d" xlink:href="#font_1_47" transform="matrix(15.9402,0,0,-15.9402,202.56577,227.96002)"/>
<use data-text="i" xlink:href="#font_1_66" transform="matrix(15.9402,0,0,-15.9402,212.5284,227.96002)"/>
<use data-text="n" xlink:href="#font_1_77" transform="matrix(15.9402,0,0,-15.9402,217.51769,227.96002)"/>
<use data-text="g" xlink:href="#font_1_59" transform="matrix(15.9402,0,0,-15.9402,227.48032,227.96002)"/>
<use data-text="B" xlink:href="#font_1_34" transform="matrix(15.9402,0,0,-15.9402,242.41629,227.96002)"/>
<use data-text="o" xlink:href="#font_1_81" transform="matrix(15.9402,0,0,-15.9402,255.16846,227.96002)"/>
<use data-text="x" xlink:href="#font_1_116" transform="matrix(15.9402,0,0,-15.9402,263.66459,227.96002)"/>
<path transform="matrix(1,0,0,-1,216.526,251.49102)" d="M-30.61316-13.52234H30.61316V8.665851H-30.61316Z" fill="#ffffff"/>
<use data-text="S" xlink:href="#font_1_97" transform="matrix(15.9402,0,0,-15.9402,195.876,257.936)"/>
<use data-text="h" xlink:href="#font_1_63" transform="matrix(15.9402,0,0,-15.9402,205.83863,257.936)"/>
<use data-text="a" xlink:href="#font_1_28" transform="matrix(15.9402,0,0,-15.9402,215.80127,257.936)"/>
<use data-text="p" xlink:href="#font_1_84" transform="matrix(15.9402,0,0,-15.9402,224.52054,257.936)"/>
<use data-text="e" xlink:href="#font_1_50" transform="matrix(15.9402,0,0,-15.9402,234.9614,257.936)"/>
</svg>
