<svg xmlns="http://www.w3.org/2000/svg" xmlns:xlink="http://www.w3.org/1999/xlink" xmlns:inkscape="http://www.inkscape.org/namespaces/inkscape" version="1.1" width="1924.48" height="441.34" viewBox="0 0 1924.48 441.34">
<path transform="matrix(1,0,0,-1,52.304,355.163)" stroke-width="2.98883" stroke-linecap="butt" stroke-miterlimit="10" stroke-linejoin="miter" fill="none" stroke="#f97306" d="M0 29.8883V-29.8883"/>
<path transform="matrix(1,0,0,-1,52.304,355.163)" stroke-width="2.98883" stroke-linecap="butt" stroke-miterlimit="10" stroke-linejoin="miter" fill="none" stroke="#f97306" d="M-25.9032 14.94415 25.9032-14.94415"/>
<path transform="matrix(1,0,0,-1,52.304,355.163)" stroke-width="2.98883" stroke-linecap="butt" stroke-miterlimit="10" stroke-linejoin="miter" fill="none" stroke="#f97306" d="M-25.9032-14.94415 25.9032 14.94415"/>
<path transform="matrix(1,0,0,-1,52.304,355.163)" stroke-width="2.98883" stroke-linecap="butt" stroke-miterlimit="10" stroke-linejoin="miter" fill="none" stroke="#f97306" d="M51.8064 0V-59.77661"/>
<path transform="matrix(1,0,0,-1,52.304,355.163)" stroke-width="2.98883" stroke-linecap="butt" stroke-miterlimit="10" stroke-linejoin="miter" fill="none" stroke="#f97306" d="M25.9032-14.94415 77.7096-44.83246"/>
<path transform="matrix(1,0,0,-1,52.304,355.163)" stroke-width="2.98883" stroke-linecap="butt" stroke-miterlimit="10" stroke-linejoin="miter" fill="none" stroke="#f97306" d="M25.9032-44.83246 77.7096-14.94415"/>
<path transform="matrix(1,0,0,-1,52.304,355.163)" stroke-width="2.98883" stroke-linecap="butt" stroke-miterlimit="10" stroke-linejoin="miter" fill="none" stroke="#f97306" d="M0 89.66492V29.8883"/>
<path transform="matrix(1,0,0,-1,52.304,355.163)" stroke-width="2.98883" stroke-linecap="butt" stroke-miterlimit="10" stroke-linejoin="miter" fill="none" stroke="#f97306" d="M-25.9032 74.72076 25.9032 44.83246"/>
<path transform="matrix(1,0,0,-1,52.304,355.163)" stroke-width="2.98883" stroke-linecap="butt" stroke-miterlimit="10" stroke-linejoin="miter" fill="none" stroke="#f97306" d="M-25.9032 44.83246 25.9032 74.72076"/>
<path transform="matrix(1,0,0,-1,52.304,355.163)" stroke-width="2.98883" stroke-linecap="butt" stroke-miterlimit="10" stroke-linejoin="miter" fill="none" stroke="#f97306" d="M51.8064 59.77661V0"/>
<path transform="matrix(1,0,0,-1,52.304,355.163)" stroke-width="2.98883" stroke-linecap="butt" stroke-miterlimit="10" stroke-linejoin="miter" fill="none" stroke="#f97306" d="M25.9032 44.83246 77.7096 14.94415"/>
<path transform="matrix(1,0,0,-1,52.304,355.163)" stroke-width="2.98883" stroke-linecap="butt" stroke-miterlimit="10" stroke-linejoin="miter" fill="none" stroke="#f97306" d="M25.9032 14.94415 77.7096 44.83246"/>
<path transform="matrix(1,0,0,-1,52.304,355.163)" stroke-width="2.98883" stroke-linecap="butt" stroke-miterlimit="10" stroke-linejoin="miter" fill="none" stroke="#f97306" d="M0 149.44153V89.66492"/>
<path transform="matrix(1,0,0,-1,52.304,355.163)" stroke-width="2.98883" stroke-linecap="butt" stroke-miterlimit="10" stroke-linejoin="miter" fill="none" stroke="#f97306" d="M-25.9032 134.49738 25.9032 104.60907"/>
<path transform="matrix(1,0,0,-1,52.304,355.163)" stroke-width="2.98883" stroke-linecap="butt" stroke-miterlimit="10" stroke-linejoin="miter" fill="none" stroke="#f97306" d="M-25.9032 104.60907 25.9032 134.49738"/>
<path transform="matrix(1,0,0,-1,52.304,355.163)" stroke-width="2.98883" stroke-linecap="butt" stroke-miterlimit="10" stroke-linejoin="miter" fill="none" stroke="#f97306" d="M51.8064 119.55322V59.77661"/>
<path transform="matrix(1,0,0,-1,52.304,355.163)" stroke-width="2.98883" stroke-linecap="butt" stroke-miterlimit="10" stroke-linejoin="miter" fill="none" stroke="#f97306" d="M25.9032 104.60907 77.7096 74.72076"/>
<path transform="matrix(1,0,0,-1,52.304,355.163)" stroke-width="2.98883" stroke-linecap="butt" stroke-miterlimit="10" stroke-linejoin="miter" fill="none" stroke="#f97306" d="M25.9032 74.72076 77.7096 104.60907"/>
<path transform="matrix(1,0,0,-1,52.304,355.163)" stroke-width="2.98883" stroke-linecap="butt" stroke-miterlimit="10" stroke-linejoin="miter" fill="none" stroke="#f97306" d="M0 209.21814V149.44153"/>
<path transform="matrix(1,0,0,-1,52.304,355.163)" stroke-width="2.98883" stroke-linecap="butt" stroke-miterlimit="10" stroke-linejoin="miter" fill="none" stroke="#f97306" d="M-25.9032 194.27399 25.9032 164.38568"/>
<path transform="matrix(1,0,0,-1,52.304,355.163)" stroke-width="2.98883" stroke-linecap="butt" stroke-miterlimit="10" stroke-linejoin="miter" fill="none" stroke="#f97306" d="M-25.9032 164.38568 25.9032 194.27399"/>
<path transform="matrix(1,0,0,-1,52.304,355.163)" stroke-width="2.98883" stroke-linecap="butt" stroke-miterlimit="10" stroke-linejoin="miter" fill="none" stroke="#f97306" d="M51.8064 179.32984V119.55322"/>
<path transform="matrix(1,0,0,-1,52.304,355.163)" stroke-width="2.98883" stroke-linecap="butt" stroke-miterlimit="10" stroke-linejoin="miter" fill="none" stroke="#f97306" d="M25.9032 164.38568 77.7096 134.49738"/>
<path transform="matrix(1,0,0,-1,52.304,355.163)" stroke-width="2.98883" stroke-linecap="butt" stroke-miterlimit="10" stroke-linejoin="miter" fill="none" stroke="#f97306" d="M25.9032 134.49738 77.7096 164.38568"/>
<path transform="matrix(1,0,0,-1,52.304,355.163)" stroke-width="2.98883" stroke-linecap="butt" stroke-miterlimit="10" stroke-linejoin="miter" fill="none" stroke="#f97306" d="M0 268.99476V209.21814"/>
<path transform="matrix(1,0,0,-1,52.304,355.163)" stroke-width="2.98883" stroke-linecap="butt" stroke-miterlimit="10" stroke-linejoin="miter" fill="none" stroke="#f97306" d="M-25.9032 254.0506 25.9032 224.1623"/>
<path transform="matrix(1,0,0,-1,52.304,355.163)" stroke-width="2.98883" stroke-linecap="butt" stroke-miterlimit="10" stroke-linejoin="miter" fill="none" stroke="#f97306" d="M-25.9032 224.1623 25.9032 254.0506"/>
<path transform="matrix(1,0,0,-1,52.304,355.163)" stroke-width="2.98883" stroke-linecap="butt" stroke-miterlimit="10" stroke-linejoin="miter" fill="none" stroke="#f97306" d="M51.8064 239.10645V179.32984"/>
<path transform="matrix(1,0,0,-1,52.304,355.163)" stroke-width="2.98883" stroke-linecap="butt" stroke-miterlimit="10" stroke-linejoin="miter" fill="none" stroke="#f97306" d="M25.9032 224.1623 77.7096 194.27399"/>
<path transform="matrix(1,0,0,-1,52.304,355.163)" stroke-width="2.98883" stroke-linecap="butt" stroke-miterlimit="10" stroke-linejoin="miter" fill="none" stroke="#f97306" d="M25.9032 194.27399 77.7096 224.1623"/>
<path transform="matrix(1,0,0,-1,52.304,355.163)" stroke-width="2.98883" stroke-linecap="butt" stroke-miterlimit="10" stroke-linejoin="miter" fill="none" stroke="#f97306" d="M0 328.77137V268.99476"/>
<path transform="matrix(1,0,0,-1,52.304,355.163)" stroke-width="2.98883" stroke-linecap="butt" stroke-miterlimit="10" stroke-linejoin="miter" fill="none" stroke="#f97306" d="M-25.9032 313.8272 25.9032 283.9389"/>
<path transform="matrix(1,0,0,-1,52.304,355.163)" stroke-width="2.98883" stroke-linecap="butt" stroke-miterlimit="10" stroke-linejoin="miter" fill="none" stroke="#f97306" d="M-25.9032 283.9389 25.9032 313.8272"/>
<path transform="matrix(1,0,0,-1,52.304,355.163)" stroke-width="2.98883" stroke-linecap="butt" stroke-miterlimit="10" stroke-linejoin="miter" fill="none" stroke="#f97306" d="M51.8064 298.88307V239.10645"/>
<path transform="matrix(1,0,0,-1,52.304,355.163)" stroke-width="2.98883" stroke-linecap="butt" stroke-miterlimit="10" stroke-linejoin="miter" fill="none" stroke="#f97306" d="M25.9032 283.9389 77.7096 254.0506"/>
<path transform="matrix(1,0,0,-1,52.304,355.163)" stroke-width="2.98883" stroke-linecap="butt" stroke-miterlimit="10" stroke-linejoin="miter" fill="none" stroke="#f97306" d="M25.9032 254.0506 77.7096 283.9389"/>
<path transform="matrix(1,0,0,-1,52.304,355.163)" stroke-width="2.98883" stroke-linecap="butt" stroke-miterlimit="10" stroke-linejoin="miter" fill="none" stroke="#f97306" d="M129.43927-14.94415 104.53235-1.79329 103.53607-29.8883 102.5398-1.79329 77.63287-14.94415"/>
<path transform="matrix(1,0,0,-1,52.304,355.163)" stroke-width="2.98883" stroke-linecap="butt" stroke-miterlimit="10" stroke-linejoin="miter" fill="none" stroke="#f97306" d="M77.63287 14.94415 102.5398 1.79329 103.53607 29.8883 104.53235 1.79329 129.43927 14.94415"/>
<path transform="matrix(1,0,0,-1,52.304,355.163)" stroke-width="2.98883" stroke-linecap="butt" stroke-miterlimit="10" stroke-linejoin="miter" fill="none" stroke="#f97306" d="M181.24567-44.83246 156.33875-31.6816 155.34247-59.77661 154.34619-31.6816 129.43927-44.83246"/>
<path transform="matrix(1,0,0,-1,52.304,355.163)" stroke-width="2.98883" stroke-linecap="butt" stroke-miterlimit="10" stroke-linejoin="miter" fill="none" stroke="#f97306" d="M129.43927-14.94415 154.34619-28.095 155.34247 0 156.33875-28.095 181.24567-14.94415"/>
<path transform="matrix(1,0,0,-1,52.304,355.163)" stroke-width="2.98883" stroke-linecap="butt" stroke-miterlimit="10" stroke-linejoin="miter" fill="none" stroke="#f97306" d="M129.43927 44.83246 104.53235 57.9833 103.53607 29.8883 102.5398 57.9833 77.63287 44.83246"/>
<path transform="matrix(1,0,0,-1,52.304,355.163)" stroke-width="2.98883" stroke-linecap="butt" stroke-miterlimit="10" stroke-linejoin="miter" fill="none" stroke="#f97306" d="M77.63287 74.72076 102.5398 61.5699 103.53607 89.66492 104.53235 61.5699 129.43927 74.72076"/>
<path transform="matrix(1,0,0,-1,52.304,355.163)" stroke-width="2.98883" stroke-linecap="butt" stroke-miterlimit="10" stroke-linejoin="miter" fill="none" stroke="#f97306" d="M181.24567 14.94415 156.33875 28.095 155.34247 0 154.34619 28.095 129.43927 14.94415"/>
<path transform="matrix(1,0,0,-1,52.304,355.163)" stroke-width="2.98883" stroke-linecap="butt" stroke-miterlimit="10" stroke-linejoin="miter" fill="none" stroke="#f97306" d="M129.43927 44.83246 154.34619 31.6816 155.34247 59.77661 156.33875 31.6816 181.24567 44.83246"/>
<path transform="matrix(1,0,0,-1,52.304,355.163)" stroke-width="2.98883" stroke-linecap="butt" stroke-miterlimit="10" stroke-linejoin="miter" fill="none" stroke="#f97306" d="M129.43927 104.60907 104.53235 117.75992 103.53607 89.66492 102.5398 117.75992 77.63287 104.60907"/>
<path transform="matrix(1,0,0,-1,52.304,355.163)" stroke-width="2.98883" stroke-linecap="butt" stroke-miterlimit="10" stroke-linejoin="miter" fill="none" stroke="#f97306" d="M77.63287 134.49738 102.5398 121.34651 103.53607 149.44153 104.53235 121.34651 129.43927 134.49738"/>
<path transform="matrix(1,0,0,-1,52.304,355.163)" stroke-width="2.98883" stroke-linecap="butt" stroke-miterlimit="10" stroke-linejoin="miter" fill="none" stroke="#f97306" d="M181.24567 74.72076 156.33875 87.87161 155.34247 59.77661 154.34619 87.87161 129.43927 74.72076"/>
<path transform="matrix(1,0,0,-1,52.304,355.163)" stroke-width="2.98883" stroke-linecap="butt" stroke-miterlimit="10" stroke-linejoin="miter" fill="none" stroke="#f97306" d="M129.43927 104.60907 154.34619 91.4582 155.34247 119.55322 156.33875 91.4582 181.24567 104.60907"/>
<path transform="matrix(1,0,0,-1,52.304,355.163)" stroke-width="2.98883" stroke-linecap="butt" stroke-miterlimit="10" stroke-linejoin="miter" fill="none" stroke="#f97306" d="M129.43927 164.38568 104.53235 177.53653 103.53607 149.44153 102.5398 177.53653 77.63287 164.38568"/>
<path transform="matrix(1,0,0,-1,52.304,355.163)" stroke-width="2.98883" stroke-linecap="butt" stroke-miterlimit="10" stroke-linejoin="miter" fill="none" stroke="#f97306" d="M77.63287 194.27399 102.5398 181.12313 103.53607 209.21814 104.53235 181.12313 129.43927 194.27399"/>
<path transform="matrix(1,0,0,-1,52.304,355.163)" stroke-width="2.98883" stroke-linecap="butt" stroke-miterlimit="10" stroke-linejoin="miter" fill="none" stroke="#f97306" d="M181.24567 134.49738 156.33875 147.64823 155.34247 119.55322 154.34619 147.64823 129.43927 134.49738"/>
<path transform="matrix(1,0,0,-1,52.304,355.163)" stroke-width="2.98883" stroke-linecap="butt" stroke-miterlimit="10" stroke-linejoin="miter" fill="none" stroke="#f97306" d="M129.43927 164.38568 154.34619 151.23482 155.34247 179.32984 156.33875 151.23482 181.24567 164.38568"/>
<path transform="matrix(1,0,0,-1,52.304,355.163)" stroke-width="2.98883" stroke-linecap="butt" stroke-miterlimit="10" stroke-linejoin="miter" fill="none" stroke="#f97306" d="M129.43927 224.1623 104.53235 237.31314 103.53607 209.21814 102.5398 237.31314 77.63287 224.1623"/>
<path transform="matrix(1,0,0,-1,52.304,355.163)" stroke-width="2.98883" stroke-linecap="butt" stroke-miterlimit="10" stroke-linejoin="miter" fill="none" stroke="#f97306" d="M77.63287 254.0506 102.5398 240.89974 103.53607 268.99476 104.53235 240.89974 129.43927 254.0506"/>
<path transform="matrix(1,0,0,-1,52.304,355.163)" stroke-width="2.98883" stroke-linecap="butt" stroke-miterlimit="10" stroke-linejoin="miter" fill="none" stroke="#f97306" d="M181.24567 194.27399 156.33875 207.42484 155.34247 179.32984 154.34619 207.42484 129.43927 194.27399"/>
<path transform="matrix(1,0,0,-1,52.304,355.163)" stroke-width="2.98883" stroke-linecap="butt" stroke-miterlimit="10" stroke-linejoin="miter" fill="none" stroke="#f97306" d="M129.43927 224.1623 154.34619 211.01143 155.34247 239.10645 156.33875 211.01143 181.24567 224.1623"/>
<path transform="matrix(1,0,0,-1,52.304,355.163)" stroke-width="2.98883" stroke-linecap="butt" stroke-miterlimit="10" stroke-linejoin="miter" fill="none" stroke="#f97306" d="M129.43927 283.9389 104.53235 297.08976 103.53607 268.99476 102.5398 297.08976 77.63287 283.9389"/>
<path transform="matrix(1,0,0,-1,52.304,355.163)" stroke-width="2.98883" stroke-linecap="butt" stroke-miterlimit="10" stroke-linejoin="miter" fill="none" stroke="#f97306" d="M77.63287 313.8272 102.5398 300.67637 103.53607 328.77137 104.53235 300.67637 129.43927 313.8272"/>
<path transform="matrix(1,0,0,-1,52.304,355.163)" stroke-width="2.98883" stroke-linecap="butt" stroke-miterlimit="10" stroke-linejoin="miter" fill="none" stroke="#f97306" d="M181.24567 254.0506 156.33875 267.20146 155.34247 239.10645 154.34619 267.20146 129.43927 254.0506"/>
<path transform="matrix(1,0,0,-1,52.304,355.163)" stroke-width="2.98883" stroke-linecap="butt" stroke-miterlimit="10" stroke-linejoin="miter" fill="none" stroke="#f97306" d="M129.43927 283.9389 154.34619 270.78804 155.34247 298.88307 156.33875 270.78804 181.24567 283.9389"/>
<path transform="matrix(1,0,0,-1,52.304,355.163)" stroke-width="2.98883" stroke-linecap="butt" stroke-miterlimit="10" stroke-linejoin="miter" fill="none" stroke="#f97306" d="M205.07959-3.38733 207.07215-29.8883 209.0647-3.38733 232.97534-14.94415 211.05725 0 232.97534 14.94415 209.0647 3.38733 207.07215 29.8883 205.07959 3.38733 181.16895 14.94415 203.08704 0 181.16895-14.94415Z"/>
<path transform="matrix(1,0,0,-1,52.304,355.163)" stroke-width="2.98883" stroke-linecap="butt" stroke-miterlimit="10" stroke-linejoin="miter" fill="none" stroke="#f97306" d="M256.886-33.27563 258.87855-59.77661 260.8711-33.27563 284.78175-44.83246 262.86366-29.8883 284.78175-14.94415 260.8711-26.50096 258.87855 0 256.886-26.50096 232.97534-14.94415 254.89344-29.8883 232.97534-44.83246Z"/>
<path transform="matrix(1,0,0,-1,52.304,355.163)" stroke-width="2.98883" stroke-linecap="butt" stroke-miterlimit="10" stroke-linejoin="miter" fill="none" stroke="#f97306" d="M205.07959 56.38927 207.07215 29.8883 209.0647 56.38927 232.97534 44.83246 211.05725 59.77661 232.97534 74.72076 209.0647 63.16394 207.07215 89.66492 205.07959 63.16394 181.16895 74.72076 203.08704 59.77661 181.16895 44.83246Z"/>
<path transform="matrix(1,0,0,-1,52.304,355.163)" stroke-width="2.98883" stroke-linecap="butt" stroke-miterlimit="10" stroke-linejoin="miter" fill="none" stroke="#f97306" d="M256.886 26.50096 258.87855 0 260.8711 26.50096 284.78175 14.94415 262.86366 29.8883 284.78175 44.83246 260.8711 33.27563 258.87855 59.77661 256.886 33.27563 232.97534 44.83246 254.89344 29.8883 232.97534 14.94415Z"/>
<path transform="matrix(1,0,0,-1,52.304,355.163)" stroke-width="2.98883" stroke-linecap="butt" stroke-miterlimit="10" stroke-linejoin="miter" fill="none" stroke="#f97306" d="M205.07959 116.16588 207.07215 89.66492 209.0647 116.16588 232.97534 104.60907 211.05725 119.55322 232.97534 134.49738 209.0647 122.94055 207.07215 149.44153 205.07959 122.94055 181.16895 134.49738 203.08704 119.55322 181.16895 104.60907Z"/>
<path transform="matrix(1,0,0,-1,52.304,355.163)" stroke-width="2.98883" stroke-linecap="butt" stroke-miterlimit="10" stroke-linejoin="miter" fill="none" stroke="#f97306" d="M256.886 86.27757 258.87855 59.77661 260.8711 86.27757 284.78175 74.72076 262.86366 89.66492 284.78175 104.60907 260.8711 93.05225 258.87855 119.55322 256.886 93.05225 232.97534 104.60907 254.89344 89.66492 232.97534 74.72076Z"/>
<path transform="matrix(1,0,0,-1,52.304,355.163)" stroke-width="2.98883" stroke-linecap="butt" stroke-miterlimit="10" stroke-linejoin="miter" fill="none" stroke="#f97306" d="M205.07959 175.94249 207.07215 149.44153 209.0647 175.94249 232.97534 164.38568 211.05725 179.32984 232.97534 194.27399 209.0647 182.71717 207.07215 209.21814 205.07959 182.71717 181.16895 194.27399 203.08704 179.32984 181.16895 164.38568Z"/>
<path transform="matrix(1,0,0,-1,52.304,355.163)" stroke-width="2.98883" stroke-linecap="butt" stroke-miterlimit="10" stroke-linejoin="miter" fill="none" stroke="#f97306" d="M256.886 146.05419 258.87855 119.55322 260.8711 146.05419 284.78175 134.49738 262.86366 149.44153 284.78175 164.38568 260.8711 152.82886 258.87855 179.32984 256.886 152.82886 232.97534 164.38568 254.89344 149.44153 232.97534 134.49738Z"/>
<path transform="matrix(1,0,0,-1,52.304,355.163)" stroke-width="2.98883" stroke-linecap="butt" stroke-miterlimit="10" stroke-linejoin="miter" fill="none" stroke="#f97306" d="M205.07959 235.7191 207.07215 209.21814 209.0647 235.7191 232.97534 224.1623 211.05725 239.10645 232.97534 254.0506 209.0647 242.49378 207.07215 268.99476 205.07959 242.49378 181.16895 254.0506 203.08704 239.10645 181.16895 224.1623Z"/>
<path transform="matrix(1,0,0,-1,52.304,355.163)" stroke-width="2.98883" stroke-linecap="butt" stroke-miterlimit="10" stroke-linejoin="miter" fill="none" stroke="#f97306" d="M256.886 205.8308 258.87855 179.32984 260.8711 205.8308 284.78175 194.27399 262.86366 209.21814 284.78175 224.1623 260.8711 212.60547 258.87855 239.10645 256.886 212.60547 232.97534 224.1623 254.89344 209.21814 232.97534 194.27399Z"/>
<path transform="matrix(1,0,0,-1,52.304,355.163)" stroke-width="2.98883" stroke-linecap="butt" stroke-miterlimit="10" stroke-linejoin="miter" fill="none" stroke="#f97306" d="M205.07959 295.4957 207.07215 268.99476 209.0647 295.4957 232.97534 283.9389 211.05725 298.88307 232.97534 313.8272 209.0647 302.2704 207.07215 328.77137 205.07959 302.2704 181.16895 313.8272 203.08704 298.88307 181.16895 283.9389Z"/>
<path transform="matrix(1,0,0,-1,52.304,355.163)" stroke-width="2.98883" stroke-linecap="butt" stroke-miterlimit="10" stroke-linejoin="miter" fill="none" stroke="#f97306" d="M256.886 265.6074 258.87855 239.10645 260.8711 265.6074 284.78175 254.0506 262.86366 268.99476 284.78175 283.9389 260.8711 272.38209 258.87855 298.88307 256.886 272.38209 232.97534 283.9389 254.89344 268.99476 232.97534 254.0506Z"/>
<path transform="matrix(1,0,0,-1,52.304,355.163)" stroke-width="2.98883" stroke-linecap="butt" stroke-miterlimit="10" stroke-linejoin="miter" fill="none" stroke="#f97306" d="M307.6194-5.18063 310.60823-29.8883 313.59706-5.18063 336.51145-14.94415 316.58589 0 336.51145 14.94415 313.59706 5.18063 310.60823 29.8883 307.6194 5.18063 284.70503 14.94415 304.63059 0 284.70503-14.94415Z"/>
<path transform="matrix(1,0,0,-1,52.304,355.163)" stroke-width="2.98883" stroke-linecap="butt" stroke-miterlimit="10" stroke-linejoin="miter" fill="none" stroke="#f97306" d="M359.4258-35.06894 362.41465-59.77661 365.40348-35.06894 388.31785-44.83246 368.3923-29.8883 388.31785-14.94415 365.40348-24.70766 362.41465 0 359.4258-24.70766 336.51145-14.94415 356.43699-29.8883 336.51145-44.83246Z"/>
<path transform="matrix(1,0,0,-1,52.304,355.163)" stroke-width="2.98883" stroke-linecap="butt" stroke-miterlimit="10" stroke-linejoin="miter" fill="none" stroke="#f97306" d="M307.6194 54.59596 310.60823 29.8883 313.59706 54.59596 336.51145 44.83246 316.58589 59.77661 336.51145 74.72076 313.59706 64.95724 310.60823 89.66492 307.6194 64.95724 284.70503 74.72076 304.63059 59.77661 284.70503 44.83246Z"/>
<path transform="matrix(1,0,0,-1,52.304,355.163)" stroke-width="2.98883" stroke-linecap="butt" stroke-miterlimit="10" stroke-linejoin="miter" fill="none" stroke="#f97306" d="M359.4258 24.70766 362.41465 0 365.40348 24.70766 388.31785 14.94415 368.3923 29.8883 388.31785 44.83246 365.40348 35.06894 362.41465 59.77661 359.4258 35.06894 336.51145 44.83246 356.43699 29.8883 336.51145 14.94415Z"/>
<path transform="matrix(1,0,0,-1,52.304,355.163)" stroke-width="2.98883" stroke-linecap="butt" stroke-miterlimit="10" stroke-linejoin="miter" fill="none" stroke="#f97306" d="M307.6194 114.37257 310.60823 89.66492 313.59706 114.37257 336.51145 104.60907 316.58589 119.55322 336.51145 134.49738 313.59706 124.73386 310.60823 149.44153 307.6194 124.73386 284.70503 134.49738 304.63059 119.55322 284.70503 104.60907Z"/>
<path transform="matrix(1,0,0,-1,52.304,355.163)" stroke-width="2.98883" stroke-linecap="butt" stroke-miterlimit="10" stroke-linejoin="miter" fill="none" stroke="#f97306" d="M359.4258 84.48427 362.41465 59.77661 365.40348 84.48427 388.31785 74.72076 368.3923 89.66492 388.31785 104.60907 365.40348 94.84555 362.41465 119.55322 359.4258 94.84555 336.51145 104.60907 356.43699 89.66492 336.51145 74.72076Z"/>
<path transform="matrix(1,0,0,-1,52.304,355.163)" stroke-width="2.98883" stroke-linecap="butt" stroke-miterlimit="10" stroke-linejoin="miter" fill="none" stroke="#f97306" d="M307.6194 174.14919 310.60823 149.44153 313.59706 174.14919 336.51145 164.38568 316.58589 179.32984 336.51145 194.27399 313.59706 184.51047 310.60823 209.21814 307.6194 184.51047 284.70503 194.27399 304.63059 179.32984 284.70503 164.38568Z"/>
<path transform="matrix(1,0,0,-1,52.304,355.163)" stroke-width="2.98883" stroke-linecap="butt" stroke-miterlimit="10" stroke-linejoin="miter" fill="none" stroke="#f97306" d="M359.4258 144.26088 362.41465 119.55322 365.40348 144.26088 388.31785 134.49738 368.3923 149.44153 388.31785 164.38568 365.40348 154.62216 362.41465 179.32984 359.4258 154.62216 336.51145 164.38568 356.43699 149.44153 336.51145 134.49738Z"/>
<path transform="matrix(1,0,0,-1,52.304,355.163)" stroke-width="2.98883" stroke-linecap="butt" stroke-miterlimit="10" stroke-linejoin="miter" fill="none" stroke="#f97306" d="M307.6194 233.9258 310.60823 209.21814 313.59706 233.9258 336.51145 224.1623 316.58589 239.10645 336.51145 254.0506 313.59706 244.28708 310.60823 268.99476 307.6194 244.28708 284.70503 254.0506 304.63059 239.10645 284.70503 224.1623Z"/>
<path transform="matrix(1,0,0,-1,52.304,355.163)" stroke-width="2.98883" stroke-linecap="butt" stroke-miterlimit="10" stroke-linejoin="miter" fill="none" stroke="#f97306" d="M359.4258 204.03749 362.41465 179.32984 365.40348 204.03749 388.31785 194.27399 368.3923 209.21814 388.31785 224.1623 365.40348 214.39878 362.41465 239.10645 359.4258 214.39878 336.51145 224.1623 356.43699 209.21814 336.51145 194.27399Z"/>
<path transform="matrix(1,0,0,-1,52.304,355.163)" stroke-width="2.98883" stroke-linecap="butt" stroke-miterlimit="10" stroke-linejoin="miter" fill="none" stroke="#f97306" d="M307.6194 293.70243 310.60823 268.99476 313.59706 293.70243 336.51145 283.9389 316.58589 298.88307 336.51145 313.8272 313.59706 304.0637 310.60823 328.77137 307.6194 304.0637 284.70503 313.8272 304.63059 298.88307 284.70503 283.9389Z"/>
<path transform="matrix(1,0,0,-1,52.304,355.163)" stroke-width="2.98883" stroke-linecap="butt" stroke-miterlimit="10" stroke-linejoin="miter" fill="none" stroke="#f97306" d="M359.4258 263.8141 362.41465 239.10645 365.40348 263.8141 388.31785 254.0506 368.3923 268.99476 388.31785 283.9389 365.40348 274.17539 362.41465 298.88307 359.4258 274.17539 336.51145 283.9389 356.43699 268.99476 336.51145 254.0506Z"/>
<path transform="matrix(1,0,0,-1,52.304,355.163)" stroke-width="2.98883" stroke-linecap="butt" stroke-miterlimit="10" stroke-linejoin="miter" fill="none" stroke="#f97306" d="M410.1592-6.97394 414.14433-29.8883 418.12944-6.97394 440.04753-14.94415 422.11454 0 440.04753 14.94415 418.12944 6.97394 414.14433 29.8883 410.1592 6.97394 388.24113 14.94415 406.1741 0 388.24113-14.94415Z"/>
<path transform="matrix(1,0,0,-1,52.304,355.163)" stroke-width="2.98883" stroke-linecap="butt" stroke-miterlimit="10" stroke-linejoin="miter" fill="none" stroke="#f97306" d="M461.9656-36.86224 465.9507-59.77661 469.93583-36.86224 491.8539-44.83246 473.92094-29.8883 491.8539-14.94415 469.93583-22.91437 465.9507 0 461.9656-22.91437 440.04753-14.94415 457.9805-29.8883 440.04753-44.83246Z"/>
<path transform="matrix(1,0,0,-1,52.304,355.163)" stroke-width="2.98883" stroke-linecap="butt" stroke-miterlimit="10" stroke-linejoin="miter" fill="none" stroke="#f97306" d="M410.1592 52.80267 414.14433 29.8883 418.12944 52.80267 440.04753 44.83246 422.11454 59.77661 440.04753 74.72076 418.12944 66.75055 414.14433 89.66492 410.1592 66.75055 388.24113 74.72076 406.1741 59.77661 388.24113 44.83246Z"/>
<path transform="matrix(1,0,0,-1,52.304,355.163)" stroke-width="2.98883" stroke-linecap="butt" stroke-miterlimit="10" stroke-linejoin="miter" fill="none" stroke="#f97306" d="M461.9656 22.91437 465.9507 0 469.93583 22.91437 491.8539 14.94415 473.92094 29.8883 491.8539 44.83246 469.93583 36.86224 465.9507 59.77661 461.9656 36.86224 440.04753 44.83246 457.9805 29.8883 440.04753 14.94415Z"/>
<path transform="matrix(1,0,0,-1,52.304,355.163)" stroke-width="2.98883" stroke-linecap="butt" stroke-miterlimit="10" stroke-linejoin="miter" fill="none" stroke="#f97306" d="M410.1592 112.57928 414.14433 89.66492 418.12944 112.57928 440.04753 104.60907 422.11454 119.55322 440.04753 134.49738 418.12944 126.52716 414.14433 149.44153 410.1592 126.52716 388.24113 134.49738 406.1741 119.55322 388.24113 104.60907Z"/>
<path transform="matrix(1,0,0,-1,52.304,355.163)" stroke-width="2.98883" stroke-linecap="butt" stroke-miterlimit="10" stroke-linejoin="miter" fill="none" stroke="#f97306" d="M461.9656 82.69098 465.9507 59.77661 469.93583 82.69098 491.8539 74.72076 473.92094 89.66492 491.8539 104.60907 469.93583 96.63885 465.9507 119.55322 461.9656 96.63885 440.04753 104.60907 457.9805 89.66492 440.04753 74.72076Z"/>
<path transform="matrix(1,0,0,-1,52.304,355.163)" stroke-width="2.98883" stroke-linecap="butt" stroke-miterlimit="10" stroke-linejoin="miter" fill="none" stroke="#f97306" d="M410.1592 172.3559 414.14433 149.44153 418.12944 172.3559 440.04753 164.38568 422.11454 179.32984 440.04753 194.27399 418.12944 186.30377 414.14433 209.21814 410.1592 186.30377 388.24113 194.27399 406.1741 179.32984 388.24113 164.38568Z"/>
<path transform="matrix(1,0,0,-1,52.304,355.163)" stroke-width="2.98883" stroke-linecap="butt" stroke-miterlimit="10" stroke-linejoin="miter" fill="none" stroke="#f97306" d="M461.9656 142.46759 465.9507 119.55322 469.93583 142.46759 491.8539 134.49738 473.92094 149.44153 491.8539 164.38568 469.93583 156.41547 465.9507 179.32984 461.9656 156.41547 440.04753 164.38568 457.9805 149.44153 440.04753 134.49738Z"/>
<path transform="matrix(1,0,0,-1,52.304,355.163)" stroke-width="2.98883" stroke-linecap="butt" stroke-miterlimit="10" stroke-linejoin="miter" fill="none" stroke="#f97306" d="M410.1592 232.1325 414.14433 209.21814 418.12944 232.1325 440.04753 224.1623 422.11454 239.10645 440.04753 254.0506 418.12944 246.08039 414.14433 268.99476 410.1592 246.08039 388.24113 254.0506 406.1741 239.10645 388.24113 224.1623Z"/>
<path transform="matrix(1,0,0,-1,52.304,355.163)" stroke-width="2.98883" stroke-linecap="butt" stroke-miterlimit="10" stroke-linejoin="miter" fill="none" stroke="#f97306" d="M461.9656 202.2442 465.9507 179.32984 469.93583 202.2442 491.8539 194.27399 473.92094 209.21814 491.8539 224.1623 469.93583 216.19208 465.9507 239.10645 461.9656 216.19208 440.04753 224.1623 457.9805 209.21814 440.04753 194.27399Z"/>
<path transform="matrix(1,0,0,-1,52.304,355.163)" stroke-width="2.98883" stroke-linecap="butt" stroke-miterlimit="10" stroke-linejoin="miter" fill="none" stroke="#f97306" d="M410.1592 291.90913 414.14433 268.99476 418.12944 291.90913 440.04753 283.9389 422.11454 298.88307 440.04753 313.8272 418.12944 305.857 414.14433 328.77137 410.1592 305.857 388.24113 313.8272 406.1741 298.88307 388.24113 283.9389Z"/>
<path transform="matrix(1,0,0,-1,52.304,355.163)" stroke-width="2.98883" stroke-linecap="butt" stroke-miterlimit="10" stroke-linejoin="miter" fill="none" stroke="#f97306" d="M461.9656 262.0208 465.9507 239.10645 469.93583 262.0208 491.8539 254.0506 473.92094 268.99476 491.8539 283.9389 469.93583 275.9687 465.9507 298.88307 461.9656 275.9687 440.04753 283.9389 457.9805 268.99476 440.04753 254.0506Z"/>
<path transform="matrix(1,0,0,-1,52.304,355.163)" stroke-width="2.98883" stroke-linecap="butt" stroke-miterlimit="10" stroke-linejoin="miter" fill="none" stroke="#f97306" d="M512.699-8.56798 517.6804-29.8883 522.66177-8.56798 543.5836-14.94415 527.6432 0 543.5836 14.94415 522.66177 8.56798 517.6804 29.8883 512.699 8.56798 491.7772 14.94415 507.71763 0 491.7772-14.94415Z"/>
<path transform="matrix(1,0,0,-1,52.304,355.163)" stroke-width="2.98883" stroke-linecap="butt" stroke-miterlimit="10" stroke-linejoin="miter" fill="none" stroke="#f97306" d="M564.5054-38.45628 569.4868-59.77661 574.46817-38.45628 595.38998-44.83246 579.4495-29.8883 595.38998-14.94415 574.46817-21.32031 569.4868 0 564.5054-21.32031 543.5836-14.94415 559.52407-29.8883 543.5836-44.83246Z"/>
<path transform="matrix(1,0,0,-1,52.304,355.163)" stroke-width="2.98883" stroke-linecap="butt" stroke-miterlimit="10" stroke-linejoin="miter" fill="none" stroke="#f97306" d="M512.699 51.20862 517.6804 29.8883 522.66177 51.20862 543.5836 44.83246 527.6432 59.77661 543.5836 74.72076 522.66177 68.34459 517.6804 89.66492 512.699 68.34459 491.7772 74.72076 507.71763 59.77661 491.7772 44.83246Z"/>
<path transform="matrix(1,0,0,-1,52.304,355.163)" stroke-width="2.98883" stroke-linecap="butt" stroke-miterlimit="10" stroke-linejoin="miter" fill="none" stroke="#f97306" d="M564.5054 21.32031 569.4868 0 574.46817 21.32031 595.38998 14.94415 579.4495 29.8883 595.38998 44.83246 574.46817 38.45628 569.4868 59.77661 564.5054 38.45628 543.5836 44.83246 559.52407 29.8883 543.5836 14.94415Z"/>
<path transform="matrix(1,0,0,-1,52.304,355.163)" stroke-width="2.98883" stroke-linecap="butt" stroke-miterlimit="10" stroke-linejoin="miter" fill="none" stroke="#f97306" d="M512.699 110.98523 517.6804 89.66492 522.66177 110.98523 543.5836 104.60907 527.6432 119.55322 543.5836 134.49738 522.66177 128.1212 517.6804 149.44153 512.699 128.1212 491.7772 134.49738 507.71763 119.55322 491.7772 104.60907Z"/>
<path transform="matrix(1,0,0,-1,52.304,355.163)" stroke-width="2.98883" stroke-linecap="butt" stroke-miterlimit="10" stroke-linejoin="miter" fill="none" stroke="#f97306" d="M564.5054 81.09692 569.4868 59.77661 574.46817 81.09692 595.38998 74.72076 579.4495 89.66492 595.38998 104.60907 574.46817 98.2329 569.4868 119.55322 564.5054 98.2329 543.5836 104.60907 559.52407 89.66492 543.5836 74.72076Z"/>
<path transform="matrix(1,0,0,-1,52.304,355.163)" stroke-width="2.98883" stroke-linecap="butt" stroke-miterlimit="10" stroke-linejoin="miter" fill="none" stroke="#f97306" d="M512.699 170.76184 517.6804 149.44153 522.66177 170.76184 543.5836 164.38568 527.6432 179.32984 543.5836 194.27399 522.66177 187.89781 517.6804 209.21814 512.699 187.89781 491.7772 194.27399 507.71763 179.32984 491.7772 164.38568Z"/>
<path transform="matrix(1,0,0,-1,52.304,355.163)" stroke-width="2.98883" stroke-linecap="butt" stroke-miterlimit="10" stroke-linejoin="miter" fill="none" stroke="#f97306" d="M564.5054 140.87354 569.4868 119.55322 574.46817 140.87354 595.38998 134.49738 579.4495 149.44153 595.38998 164.38568 574.46817 158.0095 569.4868 179.32984 564.5054 158.0095 543.5836 164.38568 559.52407 149.44153 543.5836 134.49738Z"/>
<path transform="matrix(1,0,0,-1,52.304,355.163)" stroke-width="2.98883" stroke-linecap="butt" stroke-miterlimit="10" stroke-linejoin="miter" fill="none" stroke="#f97306" d="M512.699 230.53845 517.6804 209.21814 522.66177 230.53845 543.5836 224.1623 527.6432 239.10645 543.5836 254.0506 522.66177 247.67443 517.6804 268.99476 512.699 247.67443 491.7772 254.0506 507.71763 239.10645 491.7772 224.1623Z"/>
<path transform="matrix(1,0,0,-1,52.304,355.163)" stroke-width="2.98883" stroke-linecap="butt" stroke-miterlimit="10" stroke-linejoin="miter" fill="none" stroke="#f97306" d="M564.5054 200.65015 569.4868 179.32984 574.46817 200.65015 595.38998 194.27399 579.4495 209.21814 595.38998 224.1623 574.46817 217.78612 569.4868 239.10645 564.5054 217.78612 543.5836 224.1623 559.52407 209.21814 543.5836 194.27399Z"/>
<path transform="matrix(1,0,0,-1,52.304,355.163)" stroke-width="2.98883" stroke-linecap="butt" stroke-miterlimit="10" stroke-linejoin="miter" fill="none" stroke="#f97306" d="M512.699 290.31507 517.6804 268.99476 522.66177 290.31507 543.5836 283.9389 527.6432 298.88307 543.5836 313.8272 522.66177 307.45103 517.6804 328.77137 512.699 307.45103 491.7772 313.8272 507.71763 298.88307 491.7772 283.9389Z"/>
<path transform="matrix(1,0,0,-1,52.304,355.163)" stroke-width="2.98883" stroke-linecap="butt" stroke-miterlimit="10" stroke-linejoin="miter" fill="none" stroke="#f97306" d="M564.5054 260.42677 569.4868 239.10645 574.46817 260.42677 595.38998 254.0506 579.4495 268.99476 595.38998 283.9389 574.46817 277.56275 569.4868 298.88307 564.5054 277.56275 543.5836 283.9389 559.52407 268.99476 543.5836 254.0506Z"/>
<path transform="matrix(1,0,0,-1,52.304,355.163)" stroke-width="2.98883" stroke-linecap="butt" stroke-miterlimit="10" stroke-linejoin="miter" fill="none" stroke="#f97306" d="M615.2388-10.36127 621.21646-29.8883 627.1941-10.36127 647.1197-14.94415 633.17178 0 647.1197 14.94415 627.1941 10.36127 621.21646 29.8883 615.2388 10.36127 595.31326 14.94415 609.26119 0 595.31326-14.94415Z"/>
<path transform="matrix(1,0,0,-1,52.304,355.163)" stroke-width="2.98883" stroke-linecap="butt" stroke-miterlimit="10" stroke-linejoin="miter" fill="none" stroke="#f97306" d="M667.0452-40.24957 673.0229-59.77661 679.00057-40.24957 698.9261-44.83246 684.9782-29.8883 698.9261-14.94415 679.00057-19.52702 673.0229 0 667.0452-19.52702 647.1197-14.94415 661.06759-29.8883 647.1197-44.83246Z"/>
<path transform="matrix(1,0,0,-1,52.304,355.163)" stroke-width="2.98883" stroke-linecap="butt" stroke-miterlimit="10" stroke-linejoin="miter" fill="none" stroke="#f97306" d="M615.2388 49.41533 621.21646 29.8883 627.1941 49.41533 647.1197 44.83246 633.17178 59.77661 647.1197 74.72076 627.1941 70.13788 621.21646 89.66492 615.2388 70.13788 595.31326 74.72076 609.26119 59.77661 595.31326 44.83246Z"/>
<path transform="matrix(1,0,0,-1,52.304,355.163)" stroke-width="2.98883" stroke-linecap="butt" stroke-miterlimit="10" stroke-linejoin="miter" fill="none" stroke="#f97306" d="M667.0452 19.52702 673.0229 0 679.00057 19.52702 698.9261 14.94415 684.9782 29.8883 698.9261 44.83246 679.00057 40.24957 673.0229 59.77661 667.0452 40.24957 647.1197 44.83246 661.06759 29.8883 647.1197 14.94415Z"/>
<path transform="matrix(1,0,0,-1,52.304,355.163)" stroke-width="2.98883" stroke-linecap="butt" stroke-miterlimit="10" stroke-linejoin="miter" fill="none" stroke="#f97306" d="M615.2388 109.19194 621.21646 89.66492 627.1941 109.19194 647.1197 104.60907 633.17178 119.55322 647.1197 134.49738 627.1941 129.91449 621.21646 149.44153 615.2388 129.91449 595.31326 134.49738 609.26119 119.55322 595.31326 104.60907Z"/>
<path transform="matrix(1,0,0,-1,52.304,355.163)" stroke-width="2.98883" stroke-linecap="butt" stroke-miterlimit="10" stroke-linejoin="miter" fill="none" stroke="#f97306" d="M667.0452 79.30363 673.0229 59.77661 679.00057 79.30363 698.9261 74.72076 684.9782 89.66492 698.9261 104.60907 679.00057 100.02618 673.0229 119.55322 667.0452 100.02618 647.1197 104.60907 661.06759 89.66492 647.1197 74.72076Z"/>
<path transform="matrix(1,0,0,-1,52.304,355.163)" stroke-width="2.98883" stroke-linecap="butt" stroke-miterlimit="10" stroke-linejoin="miter" fill="none" stroke="#f97306" d="M615.2388 168.96855 621.21646 149.44153 627.1941 168.96855 647.1197 164.38568 633.17178 179.32984 647.1197 194.27399 627.1941 189.6911 621.21646 209.21814 615.2388 189.6911 595.31326 194.27399 609.26119 179.32984 595.31326 164.38568Z"/>
<path transform="matrix(1,0,0,-1,52.304,355.163)" stroke-width="2.98883" stroke-linecap="butt" stroke-miterlimit="10" stroke-linejoin="miter" fill="none" stroke="#f97306" d="M667.0452 139.08025 673.0229 119.55322 679.00057 139.08025 698.9261 134.49738 684.9782 149.44153 698.9261 164.38568 679.00057 159.8028 673.0229 179.32984 667.0452 159.8028 647.1197 164.38568 661.06759 149.44153 647.1197 134.49738Z"/>
<path transform="matrix(1,0,0,-1,52.304,355.163)" stroke-width="2.98883" stroke-linecap="butt" stroke-miterlimit="10" stroke-linejoin="miter" fill="none" stroke="#f97306" d="M615.2388 228.74517 621.21646 209.21814 627.1941 228.74517 647.1197 224.1623 633.17178 239.10645 647.1197 254.0506 627.1941 249.46772 621.21646 268.99476 615.2388 249.46772 595.31326 254.0506 609.26119 239.10645 595.31326 224.1623Z"/>
<path transform="matrix(1,0,0,-1,52.304,355.163)" stroke-width="2.98883" stroke-linecap="butt" stroke-miterlimit="10" stroke-linejoin="miter" fill="none" stroke="#f97306" d="M667.0452 198.85686 673.0229 179.32984 679.00057 198.85686 698.9261 194.27399 684.9782 209.21814 698.9261 224.1623 679.00057 219.5794 673.0229 239.10645 667.0452 219.5794 647.1197 224.1623 661.06759 209.21814 647.1197 194.27399Z"/>
<path transform="matrix(1,0,0,-1,52.304,355.163)" stroke-width="2.98883" stroke-linecap="butt" stroke-miterlimit="10" stroke-linejoin="miter" fill="none" stroke="#f97306" d="M615.2388 288.52177 621.21646 268.99476 627.1941 288.52177 647.1197 283.9389 633.17178 298.88307 647.1197 313.8272 627.1941 309.24433 621.21646 328.77137 615.2388 309.24433 595.31326 313.8272 609.26119 298.88307 595.31326 283.9389Z"/>
<path transform="matrix(1,0,0,-1,52.304,355.163)" stroke-width="2.98883" stroke-linecap="butt" stroke-miterlimit="10" stroke-linejoin="miter" fill="none" stroke="#f97306" d="M667.0452 258.63349 673.0229 239.10645 679.00057 258.63349 698.9261 254.0506 684.9782 268.99476 698.9261 283.9389 679.00057 279.35603 673.0229 298.88307 667.0452 279.35603 647.1197 283.9389 661.06759 268.99476 647.1197 254.0506Z"/>
<path transform="matrix(1,0,0,-1,52.304,355.163)" stroke-width="2.98883" stroke-linecap="butt" stroke-miterlimit="10" stroke-linejoin="miter" fill="none" stroke="#f97306" d="M717.7786-12.15457 724.75259-29.8883 731.7265-12.15457 750.65579-14.94415 738.70046 0 750.65579 14.94415 731.7265 12.15457 724.75259 29.8883 717.7786 12.15457 698.84939 14.94415 710.8047 0 698.84939-14.94415Z"/>
<path transform="matrix(1,0,0,-1,52.304,355.163)" stroke-width="2.98883" stroke-linecap="butt" stroke-miterlimit="10" stroke-linejoin="miter" fill="none" stroke="#f97306" d="M769.585-42.04288 776.55899-59.77661 783.5329-42.04288 802.46218-44.83246 790.50686-29.8883 802.46218-14.94415 783.5329-17.73372 776.55899 0 769.585-17.73372 750.65579-14.94415 762.6111-29.8883 750.65579-44.83246Z"/>
<path transform="matrix(1,0,0,-1,52.304,355.163)" stroke-width="2.98883" stroke-linecap="butt" stroke-miterlimit="10" stroke-linejoin="miter" fill="none" stroke="#f97306" d="M717.7786 47.62202 724.75259 29.8883 731.7265 47.62202 750.65579 44.83246 738.70046 59.77661 750.65579 74.72076 731.7265 71.93118 724.75259 89.66492 717.7786 71.93118 698.84939 74.72076 710.8047 59.77661 698.84939 44.83246Z"/>
<path transform="matrix(1,0,0,-1,52.304,355.163)" stroke-width="2.98883" stroke-linecap="butt" stroke-miterlimit="10" stroke-linejoin="miter" fill="none" stroke="#f97306" d="M769.585 17.73372 776.55899 0 783.5329 17.73372 802.46218 14.94415 790.50686 29.8883 802.46218 44.83246 783.5329 42.04288 776.55899 59.77661 769.585 42.04288 750.65579 44.83246 762.6111 29.8883 750.65579 14.94415Z"/>
<path transform="matrix(1,0,0,-1,52.304,355.163)" stroke-width="2.98883" stroke-linecap="butt" stroke-miterlimit="10" stroke-linejoin="miter" fill="none" stroke="#f97306" d="M717.7786 107.39864 724.75259 89.66492 731.7265 107.39864 750.65579 104.60907 738.70046 119.55322 750.65579 134.49738 731.7265 131.7078 724.75259 149.44153 717.7786 131.7078 698.84939 134.49738 710.8047 119.55322 698.84939 104.60907Z"/>
<path transform="matrix(1,0,0,-1,52.304,355.163)" stroke-width="2.98883" stroke-linecap="butt" stroke-miterlimit="10" stroke-linejoin="miter" fill="none" stroke="#f97306" d="M769.585 77.51033 776.55899 59.77661 783.5329 77.51033 802.46218 74.72076 790.50686 89.66492 802.46218 104.60907 783.5329 101.81949 776.55899 119.55322 769.585 101.81949 750.65579 104.60907 762.6111 89.66492 750.65579 74.72076Z"/>
<path transform="matrix(1,0,0,-1,52.304,355.163)" stroke-width="2.98883" stroke-linecap="butt" stroke-miterlimit="10" stroke-linejoin="miter" fill="none" stroke="#f97306" d="M717.7786 167.17525 724.75259 149.44153 731.7265 167.17525 750.65579 164.38568 738.70046 179.32984 750.65579 194.27399 731.7265 191.4844 724.75259 209.21814 717.7786 191.4844 698.84939 194.27399 710.8047 179.32984 698.84939 164.38568Z"/>
<path transform="matrix(1,0,0,-1,52.304,355.163)" stroke-width="2.98883" stroke-linecap="butt" stroke-miterlimit="10" stroke-linejoin="miter" fill="none" stroke="#f97306" d="M769.585 137.28694 776.55899 119.55322 783.5329 137.28694 802.46218 134.49738 790.50686 149.44153 802.46218 164.38568 783.5329 161.5961 776.55899 179.32984 769.585 161.5961 750.65579 164.38568 762.6111 149.44153 750.65579 134.49738Z"/>
<path transform="matrix(1,0,0,-1,52.304,355.163)" stroke-width="2.98883" stroke-linecap="butt" stroke-miterlimit="10" stroke-linejoin="miter" fill="none" stroke="#f97306" d="M717.7786 226.95186 724.75259 209.21814 731.7265 226.95186 750.65579 224.1623 738.70046 239.10645 750.65579 254.0506 731.7265 251.26102 724.75259 268.99476 717.7786 251.26102 698.84939 254.0506 710.8047 239.10645 698.84939 224.1623Z"/>
<path transform="matrix(1,0,0,-1,52.304,355.163)" stroke-width="2.98883" stroke-linecap="butt" stroke-miterlimit="10" stroke-linejoin="miter" fill="none" stroke="#f97306" d="M769.585 197.06356 776.55899 179.32984 783.5329 197.06356 802.46218 194.27399 790.50686 209.21814 802.46218 224.1623 783.5329 221.37271 776.55899 239.10645 769.585 221.37271 750.65579 224.1623 762.6111 209.21814 750.65579 194.27399Z"/>
<path transform="matrix(1,0,0,-1,52.304,355.163)" stroke-width="2.98883" stroke-linecap="butt" stroke-miterlimit="10" stroke-linejoin="miter" fill="none" stroke="#f97306" d="M717.7786 286.7285 724.75259 268.99476 731.7265 286.7285 750.65579 283.9389 738.70046 298.88307 750.65579 313.8272 731.7265 311.03764 724.75259 328.77137 717.7786 311.03764 698.84939 313.8272 710.8047 298.88307 698.84939 283.9389Z"/>
<path transform="matrix(1,0,0,-1,52.304,355.163)" stroke-width="2.98883" stroke-linecap="butt" stroke-miterlimit="10" stroke-linejoin="miter" fill="none" stroke="#f97306" d="M769.585 256.84016 776.55899 239.10645 783.5329 256.84016 802.46218 254.0506 790.50686 268.99476 802.46218 283.9389 783.5329 281.14933 776.55899 298.88307 769.585 281.14933 750.65579 283.9389 762.6111 268.99476 750.65579 254.0506Z"/>
<path transform="matrix(1,0,0,-1,52.304,355.163)" stroke-width="2.98883" stroke-linecap="butt" stroke-miterlimit="10" stroke-linejoin="miter" fill="none" stroke="#f97306" d="M820.3184-13.74861 828.28866-29.8883 836.25888-13.74861 854.19186-14.94415 844.22909 0 854.19186 14.94415 836.25888 13.74861 828.28866 29.8883 820.3184 13.74861 802.38546 14.94415 812.3482 0 802.38546-14.94415Z"/>
<path transform="matrix(1,0,0,-1,52.304,355.163)" stroke-width="2.98883" stroke-linecap="butt" stroke-miterlimit="10" stroke-linejoin="miter" fill="none" stroke="#f97306" d="M872.1248-43.63692 880.09506-59.77661 888.06527-43.63692 905.9982-44.83246 896.03549-29.8883 905.9982-14.94415 888.06527-16.13968 880.09506 0 872.1248-16.13968 854.19186-14.94415 864.1546-29.8883 854.19186-44.83246Z"/>
<path transform="matrix(1,0,0,-1,52.304,355.163)" stroke-width="2.98883" stroke-linecap="butt" stroke-miterlimit="10" stroke-linejoin="miter" fill="none" stroke="#f97306" d="M820.3184 46.02798 828.28866 29.8883 836.25888 46.02798 854.19186 44.83246 844.22909 59.77661 854.19186 74.72076 836.25888 73.52522 828.28866 89.66492 820.3184 73.52522 802.38546 74.72076 812.3482 59.77661 802.38546 44.83246Z"/>
<path transform="matrix(1,0,0,-1,52.304,355.163)" stroke-width="2.98883" stroke-linecap="butt" stroke-miterlimit="10" stroke-linejoin="miter" fill="none" stroke="#f97306" d="M872.1248 16.13968 880.09506 0 888.06527 16.13968 905.9982 14.94415 896.03549 29.8883 905.9982 44.83246 888.06527 43.63692 880.09506 59.77661 872.1248 43.63692 854.19186 44.83246 864.1546 29.8883 854.19186 14.94415Z"/>
<path transform="matrix(1,0,0,-1,52.304,355.163)" stroke-width="2.98883" stroke-linecap="butt" stroke-miterlimit="10" stroke-linejoin="miter" fill="none" stroke="#f97306" d="M820.3184 105.8046 828.28866 89.66492 836.25888 105.8046 854.19186 104.60907 844.22909 119.55322 854.19186 134.49738 836.25888 133.30184 828.28866 149.44153 820.3184 133.30184 802.38546 134.49738 812.3482 119.55322 802.38546 104.60907Z"/>
<path transform="matrix(1,0,0,-1,52.304,355.163)" stroke-width="2.98883" stroke-linecap="butt" stroke-miterlimit="10" stroke-linejoin="miter" fill="none" stroke="#f97306" d="M872.1248 75.91629 880.09506 59.77661 888.06527 75.91629 905.9982 74.72076 896.03549 89.66492 905.9982 104.60907 888.06527 103.41353 880.09506 119.55322 872.1248 103.41353 854.19186 104.60907 864.1546 89.66492 854.19186 74.72076Z"/>
<path transform="matrix(1,0,0,-1,52.304,355.163)" stroke-width="2.98883" stroke-linecap="butt" stroke-miterlimit="10" stroke-linejoin="miter" fill="none" stroke="#f97306" d="M820.3184 165.5812 828.28866 149.44153 836.25888 165.5812 854.19186 164.38568 844.22909 179.32984 854.19186 194.27399 836.25888 193.07845 828.28866 209.21814 820.3184 193.07845 802.38546 194.27399 812.3482 179.32984 802.38546 164.38568Z"/>
<path transform="matrix(1,0,0,-1,52.304,355.163)" stroke-width="2.98883" stroke-linecap="butt" stroke-miterlimit="10" stroke-linejoin="miter" fill="none" stroke="#f97306" d="M872.1248 135.6929 880.09506 119.55322 888.06527 135.6929 905.9982 134.49738 896.03549 149.44153 905.9982 164.38568 888.06527 163.19014 880.09506 179.32984 872.1248 163.19014 854.19186 164.38568 864.1546 149.44153 854.19186 134.49738Z"/>
<path transform="matrix(1,0,0,-1,52.304,355.163)" stroke-width="2.98883" stroke-linecap="butt" stroke-miterlimit="10" stroke-linejoin="miter" fill="none" stroke="#f97306" d="M820.3184 225.35782 828.28866 209.21814 836.25888 225.35782 854.19186 224.1623 844.22909 239.10645 854.19186 254.0506 836.25888 252.85506 828.28866 268.99476 820.3184 252.85506 802.38546 254.0506 812.3482 239.10645 802.38546 224.1623Z"/>
<path transform="matrix(1,0,0,-1,52.304,355.163)" stroke-width="2.98883" stroke-linecap="butt" stroke-miterlimit="10" stroke-linejoin="miter" fill="none" stroke="#f97306" d="M872.1248 195.46952 880.09506 179.32984 888.06527 195.46952 905.9982 194.27399 896.03549 209.21814 905.9982 224.1623 888.06527 222.96675 880.09506 239.10645 872.1248 222.96675 854.19186 224.1623 864.1546 209.21814 854.19186 194.27399Z"/>
<path transform="matrix(1,0,0,-1,52.304,355.163)" stroke-width="2.98883" stroke-linecap="butt" stroke-miterlimit="10" stroke-linejoin="miter" fill="none" stroke="#f97306" d="M820.3184 285.13444 828.28866 268.99476 836.25888 285.13444 854.19186 283.9389 844.22909 298.88307 854.19186 313.8272 836.25888 312.63169 828.28866 328.77137 820.3184 312.63169 802.38546 313.8272 812.3482 298.88307 802.38546 283.9389Z"/>
<path transform="matrix(1,0,0,-1,52.304,355.163)" stroke-width="2.98883" stroke-linecap="butt" stroke-miterlimit="10" stroke-linejoin="miter" fill="none" stroke="#f97306" d="M872.1248 255.24613 880.09506 239.10645 888.06527 255.24613 905.9982 254.0506 896.03549 268.99476 905.9982 283.9389 888.06527 282.74336 880.09506 298.88307 872.1248 282.74336 854.19186 283.9389 864.1546 268.99476 854.19186 254.0506Z"/>
<path transform="matrix(1,0,0,-1,52.304,355.163)" stroke-width="2.98883" stroke-linecap="butt" stroke-miterlimit="10" stroke-linejoin="miter" fill="none" stroke="#f97306" d="M905.9215 14.94415 913.8917 0 905.9215-14.94415 922.8582-15.54192 931.8247-29.8883 940.7912-15.54192 957.7279-14.94415 949.7577 0 957.7279 14.94415 940.7912 15.54192 931.8247 29.8883 922.8582 15.54192Z"/>
<path transform="matrix(1,0,0,-1,52.304,355.163)" stroke-width="2.98883" stroke-linecap="butt" stroke-miterlimit="10" stroke-linejoin="miter" fill="none" stroke="#f97306" d="M957.7279-14.94415 965.6981-29.8883 957.7279-44.83246 974.6646-45.43022 983.6311-59.77661 992.5976-45.43022 1009.5343-44.83246 1001.5641-29.8883 1009.5343-14.94415 992.5976-14.34637 983.6311 0 974.6646-14.34637Z"/>
<path transform="matrix(1,0,0,-1,52.304,355.163)" stroke-width="2.98883" stroke-linecap="butt" stroke-miterlimit="10" stroke-linejoin="miter" fill="none" stroke="#f97306" d="M905.9215 74.72076 913.8917 59.77661 905.9215 44.83246 922.8582 44.23468 931.8247 29.8883 940.7912 44.23468 957.7279 44.83246 949.7577 59.77661 957.7279 74.72076 940.7912 75.31853 931.8247 89.66492 922.8582 75.31853Z"/>
<path transform="matrix(1,0,0,-1,52.304,355.163)" stroke-width="2.98883" stroke-linecap="butt" stroke-miterlimit="10" stroke-linejoin="miter" fill="none" stroke="#f97306" d="M957.7279 44.83246 965.6981 29.8883 957.7279 14.94415 974.6646 14.34637 983.6311 0 992.5976 14.34637 1009.5343 14.94415 1001.5641 29.8883 1009.5343 44.83246 992.5976 45.43022 983.6311 59.77661 974.6646 45.43022Z"/>
<path transform="matrix(1,0,0,-1,52.304,355.163)" stroke-width="2.98883" stroke-linecap="butt" stroke-miterlimit="10" stroke-linejoin="miter" fill="none" stroke="#f97306" d="M905.9215 134.49738 913.8917 119.55322 905.9215 104.60907 922.8582 104.01129 931.8247 89.66492 940.7912 104.01129 957.7279 104.60907 949.7577 119.55322 957.7279 134.49738 940.7912 135.09514 931.8247 149.44153 922.8582 135.09514Z"/>
<path transform="matrix(1,0,0,-1,52.304,355.163)" stroke-width="2.98883" stroke-linecap="butt" stroke-miterlimit="10" stroke-linejoin="miter" fill="none" stroke="#f97306" d="M957.7279 104.60907 965.6981 89.66492 957.7279 74.72076 974.6646 74.12299 983.6311 59.77661 992.5976 74.12299 1009.5343 74.72076 1001.5641 89.66492 1009.5343 104.60907 992.5976 105.20683 983.6311 119.55322 974.6646 105.20683Z"/>
<path transform="matrix(1,0,0,-1,52.304,355.163)" stroke-width="2.98883" stroke-linecap="butt" stroke-miterlimit="10" stroke-linejoin="miter" fill="none" stroke="#f97306" d="M905.9215 194.27399 913.8917 179.32984 905.9215 164.38568 922.8582 163.7879 931.8247 149.44153 940.7912 163.7879 957.7279 164.38568 949.7577 179.32984 957.7279 194.27399 940.7912 194.87175 931.8247 209.21814 922.8582 194.87175Z"/>
<path transform="matrix(1,0,0,-1,52.304,355.163)" stroke-width="2.98883" stroke-linecap="butt" stroke-miterlimit="10" stroke-linejoin="miter" fill="none" stroke="#f97306" d="M957.7279 164.38568 965.6981 149.44153 957.7279 134.49738 974.6646 133.8996 983.6311 119.55322 992.5976 133.8996 1009.5343 134.49738 1001.5641 149.44153 1009.5343 164.38568 992.5976 164.98345 983.6311 179.32984 974.6646 164.98345Z"/>
<path transform="matrix(1,0,0,-1,52.304,355.163)" stroke-width="2.98883" stroke-linecap="butt" stroke-miterlimit="10" stroke-linejoin="miter" fill="none" stroke="#f97306" d="M905.9215 254.0506 913.8917 239.10645 905.9215 224.1623 922.8582 223.56452 931.8247 209.21814 940.7912 223.56452 957.7279 224.1623 949.7577 239.10645 957.7279 254.0506 940.7912 254.64836 931.8247 268.99476 922.8582 254.64836Z"/>
<path transform="matrix(1,0,0,-1,52.304,355.163)" stroke-width="2.98883" stroke-linecap="butt" stroke-miterlimit="10" stroke-linejoin="miter" fill="none" stroke="#f97306" d="M957.7279 224.1623 965.6981 209.21814 957.7279 194.27399 974.6646 193.67621 983.6311 179.32984 992.5976 193.67621 1009.5343 194.27399 1001.5641 209.21814 1009.5343 224.1623 992.5976 224.76006 983.6311 239.10645 974.6646 224.76006Z"/>
<path transform="matrix(1,0,0,-1,52.304,355.163)" stroke-width="2.98883" stroke-linecap="butt" stroke-miterlimit="10" stroke-linejoin="miter" fill="none" stroke="#f97306" d="M905.9215 313.8272 913.8917 298.88307 905.9215 283.9389 922.8582 283.34114 931.8247 268.99476 940.7912 283.34114 957.7279 283.9389 949.7577 298.88307 957.7279 313.8272 940.7912 314.42497 931.8247 328.77137 922.8582 314.42497Z"/>
<path transform="matrix(1,0,0,-1,52.304,355.163)" stroke-width="2.98883" stroke-linecap="butt" stroke-miterlimit="10" stroke-linejoin="miter" fill="none" stroke="#f97306" d="M957.7279 283.9389 965.6981 268.99476 957.7279 254.0506 974.6646 253.45282 983.6311 239.10645 992.5976 253.45282 1009.5343 254.0506 1001.5641 268.99476 1009.5343 283.9389 992.5976 284.53669 983.6311 298.88307 974.6646 284.53669Z"/>
<path transform="matrix(1,0,0,-1,52.304,355.163)" stroke-width="2.98883" stroke-linecap="butt" stroke-miterlimit="10" stroke-linejoin="miter" fill="none" stroke="#f97306" d="M1009.4576 14.94415 1015.43527 0 1009.4576-14.94415 1025.398-17.3352 1035.3609-29.8883 1045.3236-17.3352 1061.264-14.94415 1055.2864 0 1061.264 14.94415 1045.3236 17.3352 1035.3609 29.8883 1025.398 17.3352Z"/>
<path transform="matrix(1,0,0,-1,52.304,355.163)" stroke-width="2.98883" stroke-linecap="butt" stroke-miterlimit="10" stroke-linejoin="miter" fill="none" stroke="#f97306" d="M1061.264-14.94415 1067.2417-29.8883 1061.264-44.83246 1077.2044-47.22351 1087.1672-59.77661 1097.1299-47.22351 1113.0703-44.83246 1107.0927-29.8883 1113.0703-14.94415 1097.1299-12.55309 1087.1672 0 1077.2044-12.55309Z"/>
<path transform="matrix(1,0,0,-1,52.304,355.163)" stroke-width="2.98883" stroke-linecap="butt" stroke-miterlimit="10" stroke-linejoin="miter" fill="none" stroke="#f97306" d="M1009.4576 74.72076 1015.43527 59.77661 1009.4576 44.83246 1025.398 42.44139 1035.3609 29.8883 1045.3236 42.44139 1061.264 44.83246 1055.2864 59.77661 1061.264 74.72076 1045.3236 77.11182 1035.3609 89.66492 1025.398 77.11182Z"/>
<path transform="matrix(1,0,0,-1,52.304,355.163)" stroke-width="2.98883" stroke-linecap="butt" stroke-miterlimit="10" stroke-linejoin="miter" fill="none" stroke="#f97306" d="M1061.264 44.83246 1067.2417 29.8883 1061.264 14.94415 1077.2044 12.55309 1087.1672 0 1097.1299 12.55309 1113.0703 14.94415 1107.0927 29.8883 1113.0703 44.83246 1097.1299 47.22351 1087.1672 59.77661 1077.2044 47.22351Z"/>
<path transform="matrix(1,0,0,-1,52.304,355.163)" stroke-width="2.98883" stroke-linecap="butt" stroke-miterlimit="10" stroke-linejoin="miter" fill="none" stroke="#f97306" d="M1009.4576 134.49738 1015.43527 119.55322 1009.4576 104.60907 1025.398 102.218 1035.3609 89.66492 1045.3236 102.218 1061.264 104.60907 1055.2864 119.55322 1061.264 134.49738 1045.3236 136.88843 1035.3609 149.44153 1025.398 136.88843Z"/>
<path transform="matrix(1,0,0,-1,52.304,355.163)" stroke-width="2.98883" stroke-linecap="butt" stroke-miterlimit="10" stroke-linejoin="miter" fill="none" stroke="#f97306" d="M1061.264 104.60907 1067.2417 89.66492 1061.264 74.72076 1077.2044 72.3297 1087.1672 59.77661 1097.1299 72.3297 1113.0703 74.72076 1107.0927 89.66492 1113.0703 104.60907 1097.1299 107.00012 1087.1672 119.55322 1077.2044 107.00012Z"/>
<path transform="matrix(1,0,0,-1,52.304,355.163)" stroke-width="2.98883" stroke-linecap="butt" stroke-miterlimit="10" stroke-linejoin="miter" fill="none" stroke="#f97306" d="M1009.4576 194.27399 1015.43527 179.32984 1009.4576 164.38568 1025.398 161.99462 1035.3609 149.44153 1045.3236 161.99462 1061.264 164.38568 1055.2864 179.32984 1061.264 194.27399 1045.3236 196.66504 1035.3609 209.21814 1025.398 196.66504Z"/>
<path transform="matrix(1,0,0,-1,52.304,355.163)" stroke-width="2.98883" stroke-linecap="butt" stroke-miterlimit="10" stroke-linejoin="miter" fill="none" stroke="#f97306" d="M1061.264 164.38568 1067.2417 149.44153 1061.264 134.49738 1077.2044 132.10631 1087.1672 119.55322 1097.1299 132.10631 1113.0703 134.49738 1107.0927 149.44153 1113.0703 164.38568 1097.1299 166.77674 1087.1672 179.32984 1077.2044 166.77674Z"/>
<path transform="matrix(1,0,0,-1,52.304,355.163)" stroke-width="2.98883" stroke-linecap="butt" stroke-miterlimit="10" stroke-linejoin="miter" fill="none" stroke="#f97306" d="M1009.4576 254.0506 1015.43527 239.10645 1009.4576 224.1623 1025.398 221.77123 1035.3609 209.21814 1045.3236 221.77123 1061.264 224.1623 1055.2864 239.10645 1061.264 254.0506 1045.3236 256.44166 1035.3609 268.99476 1025.398 256.44166Z"/>
<path transform="matrix(1,0,0,-1,52.304,355.163)" stroke-width="2.98883" stroke-linecap="butt" stroke-miterlimit="10" stroke-linejoin="miter" fill="none" stroke="#f97306" d="M1061.264 224.1623 1067.2417 209.21814 1061.264 194.27399 1077.2044 191.88292 1087.1672 179.32984 1097.1299 191.88292 1113.0703 194.27399 1107.0927 209.21814 1113.0703 224.1623 1097.1299 226.55335 1087.1672 239.10645 1077.2044 226.55335Z"/>
<path transform="matrix(1,0,0,-1,52.304,355.163)" stroke-width="2.98883" stroke-linecap="butt" stroke-miterlimit="10" stroke-linejoin="miter" fill="none" stroke="#f97306" d="M1009.4576 313.8272 1015.43527 298.88307 1009.4576 283.9389 1025.398 281.54786 1035.3609 268.99476 1045.3236 281.54786 1061.264 283.9389 1055.2864 298.88307 1061.264 313.8272 1045.3236 316.21827 1035.3609 328.77137 1025.398 316.21827Z"/>
<path transform="matrix(1,0,0,-1,52.304,355.163)" stroke-width="2.98883" stroke-linecap="butt" stroke-miterlimit="10" stroke-linejoin="miter" fill="none" stroke="#f97306" d="M1061.264 283.9389 1067.2417 268.99476 1061.264 254.0506 1077.2044 251.65953 1087.1672 239.10645 1097.1299 251.65953 1113.0703 254.0506 1107.0927 268.99476 1113.0703 283.9389 1097.1299 286.32997 1087.1672 298.88307 1077.2044 286.32997Z"/>
<path transform="matrix(1,0,0,-1,52.304,355.163)" stroke-width="2.98883" stroke-linecap="butt" stroke-miterlimit="10" stroke-linejoin="miter" fill="none" stroke="#f97306" d="M1112.9946 14.94415 1116.9797 0 1112.9946-14.94415 1127.9389-18.92926 1138.8978-29.8883 1149.8569-18.92926 1164.801-14.94415 1160.8159 0 1164.801 14.94415 1149.8569 18.92926 1138.8978 29.8883 1127.9389 18.92926Z"/>
<path transform="matrix(1,0,0,-1,52.304,355.163)" stroke-width="2.98883" stroke-linecap="butt" stroke-miterlimit="10" stroke-linejoin="miter" fill="none" stroke="#f97306" d="M1164.801-14.94415 1168.7861-29.8883 1164.801-44.83246 1179.7453-48.81757 1190.7042-59.77661 1201.6633-48.81757 1216.6074-44.83246 1212.6223-29.8883 1216.6074-14.94415 1201.6633-10.95905 1190.7042 0 1179.7453-10.95905Z"/>
<path transform="matrix(1,0,0,-1,52.304,355.163)" stroke-width="2.98883" stroke-linecap="butt" stroke-miterlimit="10" stroke-linejoin="miter" fill="none" stroke="#f97306" d="M1112.9946 74.72076 1116.9797 59.77661 1112.9946 44.83246 1127.9389 40.84735 1138.8978 29.8883 1149.8569 40.84735 1164.801 44.83246 1160.8159 59.77661 1164.801 74.72076 1149.8569 78.70587 1138.8978 89.66492 1127.9389 78.70587Z"/>
<path transform="matrix(1,0,0,-1,52.304,355.163)" stroke-width="2.98883" stroke-linecap="butt" stroke-miterlimit="10" stroke-linejoin="miter" fill="none" stroke="#f97306" d="M1164.801 44.83246 1168.7861 29.8883 1164.801 14.94415 1179.7453 10.95905 1190.7042 0 1201.6633 10.95905 1216.6074 14.94415 1212.6223 29.8883 1216.6074 44.83246 1201.6633 48.81757 1190.7042 59.77661 1179.7453 48.81757Z"/>
<path transform="matrix(1,0,0,-1,52.304,355.163)" stroke-width="2.98883" stroke-linecap="butt" stroke-miterlimit="10" stroke-linejoin="miter" fill="none" stroke="#f97306" d="M1112.9946 134.49738 1116.9797 119.55322 1112.9946 104.60907 1127.9389 100.62396 1138.8978 89.66492 1149.8569 100.62396 1164.801 104.60907 1160.8159 119.55322 1164.801 134.49738 1149.8569 138.48249 1138.8978 149.44153 1127.9389 138.48249Z"/>
<path transform="matrix(1,0,0,-1,52.304,355.163)" stroke-width="2.98883" stroke-linecap="butt" stroke-miterlimit="10" stroke-linejoin="miter" fill="none" stroke="#f97306" d="M1164.801 104.60907 1168.7861 89.66492 1164.801 74.72076 1179.7453 70.73566 1190.7042 59.77661 1201.6633 70.73566 1216.6074 74.72076 1212.6223 89.66492 1216.6074 104.60907 1201.6633 108.59418 1190.7042 119.55322 1179.7453 108.59418Z"/>
<path transform="matrix(1,0,0,-1,52.304,355.163)" stroke-width="2.98883" stroke-linecap="butt" stroke-miterlimit="10" stroke-linejoin="miter" fill="none" stroke="#f97306" d="M1112.9946 194.27399 1116.9797 179.32984 1112.9946 164.38568 1127.9389 160.40058 1138.8978 149.44153 1149.8569 160.40058 1164.801 164.38568 1160.8159 179.32984 1164.801 194.27399 1149.8569 198.2591 1138.8978 209.21814 1127.9389 198.2591Z"/>
<path transform="matrix(1,0,0,-1,52.304,355.163)" stroke-width="2.98883" stroke-linecap="butt" stroke-miterlimit="10" stroke-linejoin="miter" fill="none" stroke="#f97306" d="M1164.801 164.38568 1168.7861 149.44153 1164.801 134.49738 1179.7453 130.51227 1190.7042 119.55322 1201.6633 130.51227 1216.6074 134.49738 1212.6223 149.44153 1216.6074 164.38568 1201.6633 168.37079 1190.7042 179.32984 1179.7453 168.37079Z"/>
<path transform="matrix(1,0,0,-1,52.304,355.163)" stroke-width="2.98883" stroke-linecap="butt" stroke-miterlimit="10" stroke-linejoin="miter" fill="none" stroke="#f97306" d="M1112.9946 254.0506 1116.9797 239.10645 1112.9946 224.1623 1127.9389 220.17719 1138.8978 209.21814 1149.8569 220.17719 1164.801 224.1623 1160.8159 239.10645 1164.801 254.0506 1149.8569 258.0357 1138.8978 268.99476 1127.9389 258.0357Z"/>
<path transform="matrix(1,0,0,-1,52.304,355.163)" stroke-width="2.98883" stroke-linecap="butt" stroke-miterlimit="10" stroke-linejoin="miter" fill="none" stroke="#f97306" d="M1164.801 224.1623 1168.7861 209.21814 1164.801 194.27399 1179.7453 190.28888 1190.7042 179.32984 1201.6633 190.28888 1216.6074 194.27399 1212.6223 209.21814 1216.6074 224.1623 1201.6633 228.1474 1190.7042 239.10645 1179.7453 228.1474Z"/>
<path transform="matrix(1,0,0,-1,52.304,355.163)" stroke-width="2.98883" stroke-linecap="butt" stroke-miterlimit="10" stroke-linejoin="miter" fill="none" stroke="#f97306" d="M1112.9946 313.8272 1116.9797 298.88307 1112.9946 283.9389 1127.9389 279.9538 1138.8978 268.99476 1149.8569 279.9538 1164.801 283.9389 1160.8159 298.88307 1164.801 313.8272 1149.8569 317.81233 1138.8978 328.77137 1127.9389 317.81233Z"/>
<path transform="matrix(1,0,0,-1,52.304,355.163)" stroke-width="2.98883" stroke-linecap="butt" stroke-miterlimit="10" stroke-linejoin="miter" fill="none" stroke="#f97306" d="M1164.801 283.9389 1168.7861 268.99476 1164.801 254.0506 1179.7453 250.06549 1190.7042 239.10645 1201.6633 250.06549 1216.6074 254.0506 1212.6223 268.99476 1216.6074 283.9389 1201.6633 287.924 1190.7042 298.88307 1179.7453 287.924Z"/>
<path transform="matrix(1,0,0,-1,52.304,355.163)" stroke-width="2.98883" stroke-linecap="butt" stroke-miterlimit="10" stroke-linejoin="miter" fill="none" stroke="#f97306" d="M1216.5308 14.94415 1218.5233 0 1216.5308-14.94415 1230.4786-20.72255 1242.434-29.8883 1254.3893-20.72255 1268.3372-14.94415 1266.3446 0 1268.3372 14.94415 1254.3893 20.72255 1242.434 29.8883 1230.4786 20.72255Z"/>
<path transform="matrix(1,0,0,-1,52.304,355.163)" stroke-width="2.98883" stroke-linecap="butt" stroke-miterlimit="10" stroke-linejoin="miter" fill="none" stroke="#f97306" d="M1268.3372-14.94415 1270.3297-29.8883 1268.3372-44.83246 1282.285-50.61086 1294.2404-59.77661 1306.1957-50.61086 1320.1436-44.83246 1318.151-29.8883 1320.1436-14.94415 1306.1957-9.16574 1294.2404 0 1282.285-9.16574Z"/>
<path transform="matrix(1,0,0,-1,52.304,355.163)" stroke-width="2.98883" stroke-linecap="butt" stroke-miterlimit="10" stroke-linejoin="miter" fill="none" stroke="#f97306" d="M1216.5308 74.72076 1218.5233 59.77661 1216.5308 44.83246 1230.4786 39.05405 1242.434 29.8883 1254.3893 39.05405 1268.3372 44.83246 1266.3446 59.77661 1268.3372 74.72076 1254.3893 80.49916 1242.434 89.66492 1230.4786 80.49916Z"/>
<path transform="matrix(1,0,0,-1,52.304,355.163)" stroke-width="2.98883" stroke-linecap="butt" stroke-miterlimit="10" stroke-linejoin="miter" fill="none" stroke="#f97306" d="M1268.3372 44.83246 1270.3297 29.8883 1268.3372 14.94415 1282.285 9.16574 1294.2404 0 1306.1957 9.16574 1320.1436 14.94415 1318.151 29.8883 1320.1436 44.83246 1306.1957 50.61086 1294.2404 59.77661 1282.285 50.61086Z"/>
<path transform="matrix(1,0,0,-1,52.304,355.163)" stroke-width="2.98883" stroke-linecap="butt" stroke-miterlimit="10" stroke-linejoin="miter" fill="none" stroke="#f97306" d="M1216.5308 134.49738 1218.5233 119.55322 1216.5308 104.60907 1230.4786 98.83066 1242.434 89.66492 1254.3893 98.83066 1268.3372 104.60907 1266.3446 119.55322 1268.3372 134.49738 1254.3893 140.27577 1242.434 149.44153 1230.4786 140.27577Z"/>
<path transform="matrix(1,0,0,-1,52.304,355.163)" stroke-width="2.98883" stroke-linecap="butt" stroke-miterlimit="10" stroke-linejoin="miter" fill="none" stroke="#f97306" d="M1268.3372 104.60907 1270.3297 89.66492 1268.3372 74.72076 1282.285 68.94235 1294.2404 59.77661 1306.1957 68.94235 1320.1436 74.72076 1318.151 89.66492 1320.1436 104.60907 1306.1957 110.38747 1294.2404 119.55322 1282.285 110.38747Z"/>
<path transform="matrix(1,0,0,-1,52.304,355.163)" stroke-width="2.98883" stroke-linecap="butt" stroke-miterlimit="10" stroke-linejoin="miter" fill="none" stroke="#f97306" d="M1216.5308 194.27399 1218.5233 179.32984 1216.5308 164.38568 1230.4786 158.60727 1242.434 149.44153 1254.3893 158.60727 1268.3372 164.38568 1266.3446 179.32984 1268.3372 194.27399 1254.3893 200.05239 1242.434 209.21814 1230.4786 200.05239Z"/>
<path transform="matrix(1,0,0,-1,52.304,355.163)" stroke-width="2.98883" stroke-linecap="butt" stroke-miterlimit="10" stroke-linejoin="miter" fill="none" stroke="#f97306" d="M1268.3372 164.38568 1270.3297 149.44153 1268.3372 134.49738 1282.285 128.71897 1294.2404 119.55322 1306.1957 128.71897 1320.1436 134.49738 1318.151 149.44153 1320.1436 164.38568 1306.1957 170.16408 1294.2404 179.32984 1282.285 170.16408Z"/>
<path transform="matrix(1,0,0,-1,52.304,355.163)" stroke-width="2.98883" stroke-linecap="butt" stroke-miterlimit="10" stroke-linejoin="miter" fill="none" stroke="#f97306" d="M1216.5308 254.0506 1218.5233 239.10645 1216.5308 224.1623 1230.4786 218.38388 1242.434 209.21814 1254.3893 218.38388 1268.3372 224.1623 1266.3446 239.10645 1268.3372 254.0506 1254.3893 259.829 1242.434 268.99476 1230.4786 259.829Z"/>
<path transform="matrix(1,0,0,-1,52.304,355.163)" stroke-width="2.98883" stroke-linecap="butt" stroke-miterlimit="10" stroke-linejoin="miter" fill="none" stroke="#f97306" d="M1268.3372 224.1623 1270.3297 209.21814 1268.3372 194.27399 1282.285 188.49558 1294.2404 179.32984 1306.1957 188.49558 1320.1436 194.27399 1318.151 209.21814 1320.1436 224.1623 1306.1957 229.94069 1294.2404 239.10645 1282.285 229.94069Z"/>
<path transform="matrix(1,0,0,-1,52.304,355.163)" stroke-width="2.98883" stroke-linecap="butt" stroke-miterlimit="10" stroke-linejoin="miter" fill="none" stroke="#f97306" d="M1216.5308 313.8272 1218.5233 298.88307 1216.5308 283.9389 1230.4786 278.1605 1242.434 268.99476 1254.3893 278.1605 1268.3372 283.9389 1266.3446 298.88307 1268.3372 313.8272 1254.3893 319.6056 1242.434 328.77137 1230.4786 319.6056Z"/>
<path transform="matrix(1,0,0,-1,52.304,355.163)" stroke-width="2.98883" stroke-linecap="butt" stroke-miterlimit="10" stroke-linejoin="miter" fill="none" stroke="#f97306" d="M1268.3372 283.9389 1270.3297 268.99476 1268.3372 254.0506 1282.285 248.27219 1294.2404 239.10645 1306.1957 248.27219 1320.1436 254.0506 1318.151 268.99476 1320.1436 283.9389 1306.1957 289.7173 1294.2404 298.88307 1282.285 289.7173Z"/>
<path transform="matrix(1,0,0,-1,52.304,355.163)" stroke-width="2.98883" stroke-linecap="butt" stroke-miterlimit="10" stroke-linejoin="miter" fill="none" stroke="#f97306" d="M1320.0668-14.94415 1345.97-29.8883 1371.8733-14.94415V14.94415L1345.97 29.8883 1320.0668 14.94415Z"/>
<path transform="matrix(1,0,0,-1,52.304,355.163)" stroke-width="2.98883" stroke-linecap="butt" stroke-miterlimit="10" stroke-linejoin="miter" fill="none" stroke="#f97306" d="M1371.8733-44.83246 1397.7765-59.77661 1423.6797-44.83246V-14.94415L1397.7765 0 1371.8733-14.94415Z"/>
<path transform="matrix(1,0,0,-1,52.304,355.163)" stroke-width="2.98883" stroke-linecap="butt" stroke-miterlimit="10" stroke-linejoin="miter" fill="none" stroke="#f97306" d="M1320.0668 44.83246 1345.97 29.8883 1371.8733 44.83246V74.72076L1345.97 89.66492 1320.0668 74.72076Z"/>
<path transform="matrix(1,0,0,-1,52.304,355.163)" stroke-width="2.98883" stroke-linecap="butt" stroke-miterlimit="10" stroke-linejoin="miter" fill="none" stroke="#f97306" d="M1371.8733 14.94415 1397.7765 0 1423.6797 14.94415V44.83246L1397.7765 59.77661 1371.8733 44.83246Z"/>
<path transform="matrix(1,0,0,-1,52.304,355.163)" stroke-width="2.98883" stroke-linecap="butt" stroke-miterlimit="10" stroke-linejoin="miter" fill="none" stroke="#f97306" d="M1320.0668 104.60907 1345.97 89.66492 1371.8733 104.60907V134.49738L1345.97 149.44153 1320.0668 134.49738Z"/>
<path transform="matrix(1,0,0,-1,52.304,355.163)" stroke-width="2.98883" stroke-linecap="butt" stroke-miterlimit="10" stroke-linejoin="miter" fill="none" stroke="#f97306" d="M1371.8733 74.72076 1397.7765 59.77661 1423.6797 74.72076V104.60907L1397.7765 119.55322 1371.8733 104.60907Z"/>
<path transform="matrix(1,0,0,-1,52.304,355.163)" stroke-width="2.98883" stroke-linecap="butt" stroke-miterlimit="10" stroke-linejoin="miter" fill="none" stroke="#f97306" d="M1320.0668 164.38568 1345.97 149.44153 1371.8733 164.38568V194.27399L1345.97 209.21814 1320.0668 194.27399Z"/>
<path transform="matrix(1,0,0,-1,52.304,355.163)" stroke-width="2.98883" stroke-linecap="butt" stroke-miterlimit="10" stroke-linejoin="miter" fill="none" stroke="#f97306" d="M1371.8733 134.49738 1397.7765 119.55322 1423.6797 134.49738V164.38568L1397.7765 179.32984 1371.8733 164.38568Z"/>
<path transform="matrix(1,0,0,-1,52.304,355.163)" stroke-width="2.98883" stroke-linecap="butt" stroke-miterlimit="10" stroke-linejoin="miter" fill="none" stroke="#f97306" d="M1320.0668 224.1623 1345.97 209.21814 1371.8733 224.1623V254.0506L1345.97 268.99476 1320.0668 254.0506Z"/>
<path transform="matrix(1,0,0,-1,52.304,355.163)" stroke-width="2.98883" stroke-linecap="butt" stroke-miterlimit="10" stroke-linejoin="miter" fill="none" stroke="#f97306" d="M1371.8733 194.27399 1397.7765 179.32984 1423.6797 194.27399V224.1623L1397.7765 239.10645 1371.8733 224.1623Z"/>
<path transform="matrix(1,0,0,-1,52.304,355.163)" stroke-width="2.98883" stroke-linecap="butt" stroke-miterlimit="10" stroke-linejoin="miter" fill="none" stroke="#f97306" d="M1320.0668 283.9389 1345.97 268.99476 1371.8733 283.9389V313.8272L1345.97 328.77137 1320.0668 313.8272Z"/>
<path transform="matrix(1,0,0,-1,52.304,355.163)" stroke-width="2.98883" stroke-linecap="butt" stroke-miterlimit="10" stroke-linejoin="miter" fill="none" stroke="#f97306" d="M1371.8733 254.0506 1397.7765 239.10645 1423.6797 254.0506V283.9389L1397.7765 298.88307 1371.8733 283.9389Z"/>
<path transform="matrix(1,0,0,-1,52.304,355.163)" stroke-width="2.98883" stroke-linecap="butt" stroke-miterlimit="10" stroke-linejoin="miter" fill="none" stroke="#f97306" d="M1435.5582 24.1099 1423.6029 14.94415 1421.6104 0 1423.6029-14.94415 1435.5582-24.1099 1449.5061-29.8883 1463.454-24.1099 1475.4093-14.94415 1477.4019 0 1475.4093 14.94415 1463.454 24.1099 1449.5061 29.8883Z"/>
<path transform="matrix(1,0,0,-1,52.304,355.163)" stroke-width="2.98883" stroke-linecap="butt" stroke-miterlimit="10" stroke-linejoin="miter" fill="none" stroke="#f97306" d="M1487.3646-5.7784 1475.4093-14.94415 1473.4168-29.8883 1475.4093-44.83246 1487.3646-53.9982 1501.3125-59.77661 1515.2604-53.9982 1527.2157-44.83246 1529.2083-29.8883 1527.2157-14.94415 1515.2604-5.7784 1501.3125 0Z"/>
<path transform="matrix(1,0,0,-1,52.304,355.163)" stroke-width="2.98883" stroke-linecap="butt" stroke-miterlimit="10" stroke-linejoin="miter" fill="none" stroke="#f97306" d="M1435.5582 83.8865 1423.6029 74.72076 1421.6104 59.77661 1423.6029 44.83246 1435.5582 35.6667 1449.5061 29.8883 1463.454 35.6667 1475.4093 44.83246 1477.4019 59.77661 1475.4093 74.72076 1463.454 83.8865 1449.5061 89.66492Z"/>
<path transform="matrix(1,0,0,-1,52.304,355.163)" stroke-width="2.98883" stroke-linecap="butt" stroke-miterlimit="10" stroke-linejoin="miter" fill="none" stroke="#f97306" d="M1487.3646 53.9982 1475.4093 44.83246 1473.4168 29.8883 1475.4093 14.94415 1487.3646 5.7784 1501.3125 0 1515.2604 5.7784 1527.2157 14.94415 1529.2083 29.8883 1527.2157 44.83246 1515.2604 53.9982 1501.3125 59.77661Z"/>
<path transform="matrix(1,0,0,-1,52.304,355.163)" stroke-width="2.98883" stroke-linecap="butt" stroke-miterlimit="10" stroke-linejoin="miter" fill="none" stroke="#f97306" d="M1435.5582 143.66312 1423.6029 134.49738 1421.6104 119.55322 1423.6029 104.60907 1435.5582 95.44331 1449.5061 89.66492 1463.454 95.44331 1475.4093 104.60907 1477.4019 119.55322 1475.4093 134.49738 1463.454 143.66312 1449.5061 149.44153Z"/>
<path transform="matrix(1,0,0,-1,52.304,355.163)" stroke-width="2.98883" stroke-linecap="butt" stroke-miterlimit="10" stroke-linejoin="miter" fill="none" stroke="#f97306" d="M1487.3646 113.77481 1475.4093 104.60907 1473.4168 89.66492 1475.4093 74.72076 1487.3646 65.55501 1501.3125 59.77661 1515.2604 65.55501 1527.2157 74.72076 1529.2083 89.66492 1527.2157 104.60907 1515.2604 113.77481 1501.3125 119.55322Z"/>
<path transform="matrix(1,0,0,-1,52.304,355.163)" stroke-width="2.98883" stroke-linecap="butt" stroke-miterlimit="10" stroke-linejoin="miter" fill="none" stroke="#f97306" d="M1435.5582 203.43973 1423.6029 194.27399 1421.6104 179.32984 1423.6029 164.38568 1435.5582 155.21993 1449.5061 149.44153 1463.454 155.21993 1475.4093 164.38568 1477.4019 179.32984 1475.4093 194.27399 1463.454 203.43973 1449.5061 209.21814Z"/>
<path transform="matrix(1,0,0,-1,52.304,355.163)" stroke-width="2.98883" stroke-linecap="butt" stroke-miterlimit="10" stroke-linejoin="miter" fill="none" stroke="#f97306" d="M1487.3646 173.55142 1475.4093 164.38568 1473.4168 149.44153 1475.4093 134.49738 1487.3646 125.33162 1501.3125 119.55322 1515.2604 125.33162 1527.2157 134.49738 1529.2083 149.44153 1527.2157 164.38568 1515.2604 173.55142 1501.3125 179.32984Z"/>
<path transform="matrix(1,0,0,-1,52.304,355.163)" stroke-width="2.98883" stroke-linecap="butt" stroke-miterlimit="10" stroke-linejoin="miter" fill="none" stroke="#f97306" d="M1435.5582 263.21635 1423.6029 254.0506 1421.6104 239.10645 1423.6029 224.1623 1435.5582 214.99654 1449.5061 209.21814 1463.454 214.99654 1475.4093 224.1623 1477.4019 239.10645 1475.4093 254.0506 1463.454 263.21635 1449.5061 268.99476Z"/>
<path transform="matrix(1,0,0,-1,52.304,355.163)" stroke-width="2.98883" stroke-linecap="butt" stroke-miterlimit="10" stroke-linejoin="miter" fill="none" stroke="#f97306" d="M1487.3646 233.32804 1475.4093 224.1623 1473.4168 209.21814 1475.4093 194.27399 1487.3646 185.10823 1501.3125 179.32984 1515.2604 185.10823 1527.2157 194.27399 1529.2083 209.21814 1527.2157 224.1623 1515.2604 233.32804 1501.3125 239.10645Z"/>
<path transform="matrix(1,0,0,-1,52.304,355.163)" stroke-width="2.98883" stroke-linecap="butt" stroke-miterlimit="10" stroke-linejoin="miter" fill="none" stroke="#f97306" d="M1435.5582 322.99296 1423.6029 313.8272 1421.6104 298.88307 1423.6029 283.9389 1435.5582 274.77317 1449.5061 268.99476 1463.454 274.77317 1475.4093 283.9389 1477.4019 298.88307 1475.4093 313.8272 1463.454 322.99296 1449.5061 328.77137Z"/>
<path transform="matrix(1,0,0,-1,52.304,355.163)" stroke-width="2.98883" stroke-linecap="butt" stroke-miterlimit="10" stroke-linejoin="miter" fill="none" stroke="#f97306" d="M1487.3646 293.10466 1475.4093 283.9389 1473.4168 268.99476 1475.4093 254.0506 1487.3646 244.88484 1501.3125 239.10645 1515.2604 244.88484 1527.2157 254.0506 1529.2083 268.99476 1527.2157 283.9389 1515.2604 293.10466 1501.3125 298.88307Z"/>
<path transform="matrix(1,0,0,-1,52.304,355.163)" stroke-width="2.98883" stroke-linecap="butt" stroke-miterlimit="10" stroke-linejoin="miter" fill="none" stroke="#f97306" d="M1538.098 25.9032 1527.139 14.94415 1523.1539 0 1527.139-14.94415 1538.098-25.9032 1553.0422-29.8883 1567.9863-25.9032 1578.9453-14.94415 1582.9304 0 1578.9453 14.94415 1567.9863 25.9032 1553.0422 29.8883Z"/>
<path transform="matrix(1,0,0,-1,52.304,355.163)" stroke-width="2.98883" stroke-linecap="butt" stroke-miterlimit="10" stroke-linejoin="miter" fill="none" stroke="#f97306" d="M1589.9044-3.9851 1578.9453-14.94415 1574.9603-29.8883 1578.9453-44.83246 1589.9044-55.7915 1604.8485-59.77661 1619.7927-55.7915 1630.7517-44.83246 1634.7369-29.8883 1630.7517-14.94415 1619.7927-3.9851 1604.8485 0Z"/>
<path transform="matrix(1,0,0,-1,52.304,355.163)" stroke-width="2.98883" stroke-linecap="butt" stroke-miterlimit="10" stroke-linejoin="miter" fill="none" stroke="#f97306" d="M1538.098 85.67981 1527.139 74.72076 1523.1539 59.77661 1527.139 44.83246 1538.098 33.87341 1553.0422 29.8883 1567.9863 33.87341 1578.9453 44.83246 1582.9304 59.77661 1578.9453 74.72076 1567.9863 85.67981 1553.0422 89.66492Z"/>
<path transform="matrix(1,0,0,-1,52.304,355.163)" stroke-width="2.98883" stroke-linecap="butt" stroke-miterlimit="10" stroke-linejoin="miter" fill="none" stroke="#f97306" d="M1589.9044 55.7915 1578.9453 44.83246 1574.9603 29.8883 1578.9453 14.94415 1589.9044 3.9851 1604.8485 0 1619.7927 3.9851 1630.7517 14.94415 1634.7369 29.8883 1630.7517 44.83246 1619.7927 55.7915 1604.8485 59.77661Z"/>
<path transform="matrix(1,0,0,-1,52.304,355.163)" stroke-width="2.98883" stroke-linecap="butt" stroke-miterlimit="10" stroke-linejoin="miter" fill="none" stroke="#f97306" d="M1538.098 145.45642 1527.139 134.49738 1523.1539 119.55322 1527.139 104.60907 1538.098 93.65002 1553.0422 89.66492 1567.9863 93.65002 1578.9453 104.60907 1582.9304 119.55322 1578.9453 134.49738 1567.9863 145.45642 1553.0422 149.44153Z"/>
<path transform="matrix(1,0,0,-1,52.304,355.163)" stroke-width="2.98883" stroke-linecap="butt" stroke-miterlimit="10" stroke-linejoin="miter" fill="none" stroke="#f97306" d="M1589.9044 115.56812 1578.9453 104.60907 1574.9603 89.66492 1578.9453 74.72076 1589.9044 63.76172 1604.8485 59.77661 1619.7927 63.76172 1630.7517 74.72076 1634.7369 89.66492 1630.7517 104.60907 1619.7927 115.56812 1604.8485 119.55322Z"/>
<path transform="matrix(1,0,0,-1,52.304,355.163)" stroke-width="2.98883" stroke-linecap="butt" stroke-miterlimit="10" stroke-linejoin="miter" fill="none" stroke="#f97306" d="M1538.098 205.23303 1527.139 194.27399 1523.1539 179.32984 1527.139 164.38568 1538.098 153.42664 1553.0422 149.44153 1567.9863 153.42664 1578.9453 164.38568 1582.9304 179.32984 1578.9453 194.27399 1567.9863 205.23303 1553.0422 209.21814Z"/>
<path transform="matrix(1,0,0,-1,52.304,355.163)" stroke-width="2.98883" stroke-linecap="butt" stroke-miterlimit="10" stroke-linejoin="miter" fill="none" stroke="#f97306" d="M1589.9044 175.34473 1578.9453 164.38568 1574.9603 149.44153 1578.9453 134.49738 1589.9044 123.53833 1604.8485 119.55322 1619.7927 123.53833 1630.7517 134.49738 1634.7369 149.44153 1630.7517 164.38568 1619.7927 175.34473 1604.8485 179.32984Z"/>
<path transform="matrix(1,0,0,-1,52.304,355.163)" stroke-width="2.98883" stroke-linecap="butt" stroke-miterlimit="10" stroke-linejoin="miter" fill="none" stroke="#f97306" d="M1538.098 265.00965 1527.139 254.0506 1523.1539 239.10645 1527.139 224.1623 1538.098 213.20325 1553.0422 209.21814 1567.9863 213.20325 1578.9453 224.1623 1582.9304 239.10645 1578.9453 254.0506 1567.9863 265.00965 1553.0422 268.99476Z"/>
<path transform="matrix(1,0,0,-1,52.304,355.163)" stroke-width="2.98883" stroke-linecap="butt" stroke-miterlimit="10" stroke-linejoin="miter" fill="none" stroke="#f97306" d="M1589.9044 235.12134 1578.9453 224.1623 1574.9603 209.21814 1578.9453 194.27399 1589.9044 183.31494 1604.8485 179.32984 1619.7927 183.31494 1630.7517 194.27399 1634.7369 209.21814 1630.7517 224.1623 1619.7927 235.12134 1604.8485 239.10645Z"/>
<path transform="matrix(1,0,0,-1,52.304,355.163)" stroke-width="2.98883" stroke-linecap="butt" stroke-miterlimit="10" stroke-linejoin="miter" fill="none" stroke="#f97306" d="M1538.098 324.78627 1527.139 313.8272 1523.1539 298.88307 1527.139 283.9389 1538.098 272.97987 1553.0422 268.99476 1567.9863 272.97987 1578.9453 283.9389 1582.9304 298.88307 1578.9453 313.8272 1567.9863 324.78627 1553.0422 328.77137Z"/>
<path transform="matrix(1,0,0,-1,52.304,355.163)" stroke-width="2.98883" stroke-linecap="butt" stroke-miterlimit="10" stroke-linejoin="miter" fill="none" stroke="#f97306" d="M1589.9044 294.89796 1578.9453 283.9389 1574.9603 268.99476 1578.9453 254.0506 1589.9044 243.09156 1604.8485 239.10645 1619.7927 243.09156 1630.7517 254.0506 1634.7369 268.99476 1630.7517 283.9389 1619.7927 294.89796 1604.8485 298.88307Z"/>
<path transform="matrix(1,0,0,-1,52.304,355.163)" stroke-width="2.98883" stroke-linecap="butt" stroke-miterlimit="10" stroke-linejoin="miter" fill="none" stroke="#f97306" d="M1640.6378 27.69649 1630.675 14.94415 1624.6974 0 1630.675-14.94415 1640.6378-27.69649 1656.5783-29.8883 1672.5187-27.69649 1682.4815-14.94415 1688.4591 0 1682.4815 14.94415 1672.5187 27.69649 1656.5783 29.8883Z"/>
<path transform="matrix(1,0,0,-1,52.304,355.163)" stroke-width="2.98883" stroke-linecap="butt" stroke-miterlimit="10" stroke-linejoin="miter" fill="none" stroke="#f97306" d="M1692.4442-2.1918 1682.4815-14.94415 1676.5038-29.8883 1682.4815-44.83246 1692.4442-57.5848 1708.3847-59.77661 1724.3251-57.5848 1734.2879-44.83246 1740.2655-29.8883 1734.2879-14.94415 1724.3251-2.1918 1708.3847 0Z"/>
<path transform="matrix(1,0,0,-1,52.304,355.163)" stroke-width="2.98883" stroke-linecap="butt" stroke-miterlimit="10" stroke-linejoin="miter" fill="none" stroke="#f97306" d="M1640.6378 87.4731 1630.675 74.72076 1624.6974 59.77661 1630.675 44.83246 1640.6378 32.08011 1656.5783 29.8883 1672.5187 32.08011 1682.4815 44.83246 1688.4591 59.77661 1682.4815 74.72076 1672.5187 87.4731 1656.5783 89.66492Z"/>
<path transform="matrix(1,0,0,-1,52.304,355.163)" stroke-width="2.98883" stroke-linecap="butt" stroke-miterlimit="10" stroke-linejoin="miter" fill="none" stroke="#f97306" d="M1692.4442 57.5848 1682.4815 44.83246 1676.5038 29.8883 1682.4815 14.94415 1692.4442 2.1918 1708.3847 0 1724.3251 2.1918 1734.2879 14.94415 1740.2655 29.8883 1734.2879 44.83246 1724.3251 57.5848 1708.3847 59.77661Z"/>
<path transform="matrix(1,0,0,-1,52.304,355.163)" stroke-width="2.98883" stroke-linecap="butt" stroke-miterlimit="10" stroke-linejoin="miter" fill="none" stroke="#f97306" d="M1640.6378 147.24971 1630.675 134.49738 1624.6974 119.55322 1630.675 104.60907 1640.6378 91.85672 1656.5783 89.66492 1672.5187 91.85672 1682.4815 104.60907 1688.4591 119.55322 1682.4815 134.49738 1672.5187 147.24971 1656.5783 149.44153Z"/>
<path transform="matrix(1,0,0,-1,52.304,355.163)" stroke-width="2.98883" stroke-linecap="butt" stroke-miterlimit="10" stroke-linejoin="miter" fill="none" stroke="#f97306" d="M1692.4442 117.3614 1682.4815 104.60907 1676.5038 89.66492 1682.4815 74.72076 1692.4442 61.96841 1708.3847 59.77661 1724.3251 61.96841 1734.2879 74.72076 1740.2655 89.66492 1734.2879 104.60907 1724.3251 117.3614 1708.3847 119.55322Z"/>
<path transform="matrix(1,0,0,-1,52.304,355.163)" stroke-width="2.98883" stroke-linecap="butt" stroke-miterlimit="10" stroke-linejoin="miter" fill="none" stroke="#f97306" d="M1640.6378 207.02632 1630.675 194.27399 1624.6974 179.32984 1630.675 164.38568 1640.6378 151.63333 1656.5783 149.44153 1672.5187 151.63333 1682.4815 164.38568 1688.4591 179.32984 1682.4815 194.27399 1672.5187 207.02632 1656.5783 209.21814Z"/>
<path transform="matrix(1,0,0,-1,52.304,355.163)" stroke-width="2.98883" stroke-linecap="butt" stroke-miterlimit="10" stroke-linejoin="miter" fill="none" stroke="#f97306" d="M1692.4442 177.13802 1682.4815 164.38568 1676.5038 149.44153 1682.4815 134.49738 1692.4442 121.74503 1708.3847 119.55322 1724.3251 121.74503 1734.2879 134.49738 1740.2655 149.44153 1734.2879 164.38568 1724.3251 177.13802 1708.3847 179.32984Z"/>
<path transform="matrix(1,0,0,-1,52.304,355.163)" stroke-width="2.98883" stroke-linecap="butt" stroke-miterlimit="10" stroke-linejoin="miter" fill="none" stroke="#f97306" d="M1640.6378 266.80293 1630.675 254.0506 1624.6974 239.10645 1630.675 224.1623 1640.6378 211.40995 1656.5783 209.21814 1672.5187 211.40995 1682.4815 224.1623 1688.4591 239.10645 1682.4815 254.0506 1672.5187 266.80293 1656.5783 268.99476Z"/>
<path transform="matrix(1,0,0,-1,52.304,355.163)" stroke-width="2.98883" stroke-linecap="butt" stroke-miterlimit="10" stroke-linejoin="miter" fill="none" stroke="#f97306" d="M1692.4442 236.91463 1682.4815 224.1623 1676.5038 209.21814 1682.4815 194.27399 1692.4442 181.52164 1708.3847 179.32984 1724.3251 181.52164 1734.2879 194.27399 1740.2655 209.21814 1734.2879 224.1623 1724.3251 236.91463 1708.3847 239.10645Z"/>
<path transform="matrix(1,0,0,-1,52.304,355.163)" stroke-width="2.98883" stroke-linecap="butt" stroke-miterlimit="10" stroke-linejoin="miter" fill="none" stroke="#f97306" d="M1640.6378 326.57954 1630.675 313.8272 1624.6974 298.88307 1630.675 283.9389 1640.6378 271.18656 1656.5783 268.99476 1672.5187 271.18656 1682.4815 283.9389 1688.4591 298.88307 1682.4815 313.8272 1672.5187 326.57954 1656.5783 328.77137Z"/>
<path transform="matrix(1,0,0,-1,52.304,355.163)" stroke-width="2.98883" stroke-linecap="butt" stroke-miterlimit="10" stroke-linejoin="miter" fill="none" stroke="#f97306" d="M1692.4442 296.69126 1682.4815 283.9389 1676.5038 268.99476 1682.4815 254.0506 1692.4442 241.29825 1708.3847 239.10645 1724.3251 241.29825 1734.2879 254.0506 1740.2655 268.99476 1734.2879 283.9389 1724.3251 296.69126 1708.3847 298.88307Z"/>
<path transform="matrix(1,0,0,-1,52.304,355.163)" stroke-width="2.98883" stroke-linecap="butt" stroke-miterlimit="10" stroke-linejoin="miter" fill="none" stroke="#f97306" d="M1743.1776-29.29053H1777.051L1793.9878 0 1777.051 29.29053H1743.1776L1726.241 0Z"/>
<path transform="matrix(1,0,0,-1,52.304,355.163)" stroke-width="2.98883" stroke-linecap="butt" stroke-miterlimit="10" stroke-linejoin="miter" fill="none" stroke="#f97306" d="M1794.984-59.17883H1828.8574L1845.7942-29.8883 1828.8574-.59776H1794.984L1778.0474-29.8883Z"/>
<path transform="matrix(1,0,0,-1,52.304,355.163)" stroke-width="2.98883" stroke-linecap="butt" stroke-miterlimit="10" stroke-linejoin="miter" fill="none" stroke="#f97306" d="M1743.1776 30.48607H1777.051L1793.9878 59.77661 1777.051 89.06714H1743.1776L1726.241 59.77661Z"/>
<path transform="matrix(1,0,0,-1,52.304,355.163)" stroke-width="2.98883" stroke-linecap="butt" stroke-miterlimit="10" stroke-linejoin="miter" fill="none" stroke="#f97306" d="M1794.984 .59776H1828.8574L1845.7942 29.8883 1828.8574 59.17883H1794.984L1778.0474 29.8883Z"/>
<path transform="matrix(1,0,0,-1,52.304,355.163)" stroke-width="2.98883" stroke-linecap="butt" stroke-miterlimit="10" stroke-linejoin="miter" fill="none" stroke="#f97306" d="M1743.1776 90.26268H1777.051L1793.9878 119.55322 1777.051 148.84375H1743.1776L1726.241 119.55322Z"/>
<path transform="matrix(1,0,0,-1,52.304,355.163)" stroke-width="2.98883" stroke-linecap="butt" stroke-miterlimit="10" stroke-linejoin="miter" fill="none" stroke="#f97306" d="M1794.984 60.37437H1828.8574L1845.7942 89.66492 1828.8574 118.95544H1794.984L1778.0474 89.66492Z"/>
<path transform="matrix(1,0,0,-1,52.304,355.163)" stroke-width="2.98883" stroke-linecap="butt" stroke-miterlimit="10" stroke-linejoin="miter" fill="none" stroke="#f97306" d="M1743.1776 150.03929H1777.051L1793.9878 179.32984 1777.051 208.62036H1743.1776L1726.241 179.32984Z"/>
<path transform="matrix(1,0,0,-1,52.304,355.163)" stroke-width="2.98883" stroke-linecap="butt" stroke-miterlimit="10" stroke-linejoin="miter" fill="none" stroke="#f97306" d="M1794.984 120.15099H1828.8574L1845.7942 149.44153 1828.8574 178.73206H1794.984L1778.0474 149.44153Z"/>
<path transform="matrix(1,0,0,-1,52.304,355.163)" stroke-width="2.98883" stroke-linecap="butt" stroke-miterlimit="10" stroke-linejoin="miter" fill="none" stroke="#f97306" d="M1743.1776 209.8159H1777.051L1793.9878 239.10645 1777.051 268.39698H1743.1776L1726.241 239.10645Z"/>
<path transform="matrix(1,0,0,-1,52.304,355.163)" stroke-width="2.98883" stroke-linecap="butt" stroke-miterlimit="10" stroke-linejoin="miter" fill="none" stroke="#f97306" d="M1794.984 179.9276H1828.8574L1845.7942 209.21814 1828.8574 238.50867H1794.984L1778.0474 209.21814Z"/>
<path transform="matrix(1,0,0,-1,52.304,355.163)" stroke-width="2.98883" stroke-linecap="butt" stroke-miterlimit="10" stroke-linejoin="miter" fill="none" stroke="#f97306" d="M1743.1776 269.5925H1777.051L1793.9878 298.88307 1777.051 328.17359H1743.1776L1726.241 298.88307Z"/>
<path transform="matrix(1,0,0,-1,52.304,355.163)" stroke-width="2.98883" stroke-linecap="butt" stroke-miterlimit="10" stroke-linejoin="miter" fill="none" stroke="#f97306" d="M1794.984 239.70421H1828.8574L1845.7942 268.99476 1828.8574 298.28529H1794.984L1778.0474 268.99476Z"/>
</svg>
