<svg xmlns="http://www.w3.org/2000/svg" xmlns:xlink="http://www.w3.org/1999/xlink" xmlns:inkscape="http://www.inkscape.org/namespaces/inkscape" version="1.1" width="498.63" height="299.38" viewBox="0 0 498.63 299.38">
<path transform="matrix(1,0,0,-1,74.969,224.41101)" stroke-width=".49814" stroke-linecap="butt" stroke-dasharray="1.99255,1.99255" stroke-miterlimit="10" stroke-linejoin="miter" fill="none" stroke="#929591" d="M-49.81384-49.81384H398.51075"/>
<path transform="matrix(1,0,0,-1,74.969,224.41101)" stroke-width=".49814" stroke-linecap="butt" stroke-dasharray="1.99255,1.99255" stroke-miterlimit="10" stroke-linejoin="miter" fill="none" stroke="#929591" d="M-49.81384-24.90692H398.51075"/>
<path transform="matrix(1,0,0,-1,74.969,224.41101)" stroke-width=".49814" stroke-linecap="butt" stroke-dasharray="1.99255,1.99255" stroke-miterlimit="10" stroke-linejoin="miter" fill="none" stroke="#929591" d="M-49.81384 0H398.51075"/>
<path transform="matrix(1,0,0,-1,74.969,224.41101)" stroke-width=".49814" stroke-linecap="butt" stroke-dasharray="1.99255,1.99255" stroke-miterlimit="10" stroke-linejoin="miter" fill="none" stroke="#929591" d="M-49.81384 24.90692H398.51075"/>
<path transform="matrix(1,0,0,-1,74.969,224.41101)" stroke-width=".49814" stroke-linecap="butt" stroke-dasharray="1.99255,1.99255" stroke-miterlimit="10" stroke-linejoin="miter" fill="none" stroke="#929591" d="M-49.81384 49.81384H398.51075"/>
<path transform="matrix(1,0,0,-1,74.969,224.41101)" stroke-width=".49814" stroke-linecap="butt" stroke-dasharray="1.99255,1.99255" stroke-miterlimit="10" stroke-linejoin="miter" fill="none" stroke="#929591" d="M-49.81384 74.72076H398.51075"/>
<path transform="matrix(1,0,0,-1,74.969,224.41101)" stroke-width=".49814" stroke-linecap="butt" stroke-dasharray="1.99255,1.99255" stroke-miterlimit="10" stroke-linejoin="miter" fill="none" stroke="#929591" d="M-49.81384 99.62769H398.51075"/>
<path transform="matrix(1,0,0,-1,74.969,224.41101)" stroke-width=".49814" stroke-linecap="butt" stroke-dasharray="1.99255,1.99255" stroke-miterlimit="10" stroke-linejoin="miter" fill="none" stroke="#929591" d="M-49.81384 124.5346H398.51075"/>
<path transform="matrix(1,0,0,-1,74.969,224.41101)" stroke-width=".49814" stroke-linecap="butt" stroke-dasharray="1.99255,1.99255" stroke-miterlimit="10" stroke-linejoin="miter" fill="none" stroke="#929591" d="M-49.81384 149.44153H398.51075"/>
<path transform="matrix(1,0,0,-1,74.969,224.41101)" stroke-width=".49814" stroke-linecap="butt" stroke-dasharray="1.99255,1.99255" stroke-miterlimit="10" stroke-linejoin="miter" fill="none" stroke="#929591" d="M-49.81384 174.34845H398.51075"/>
<path transform="matrix(1,0,0,-1,74.969,224.41101)" stroke-width=".49814" stroke-linecap="butt" stroke-dasharray="1.99255,1.99255" stroke-miterlimit="10" stroke-linejoin="miter" fill="none" stroke="#929591" d="M-49.81384 199.25537H398.51075"/>
<path transform="matrix(1,0,0,-1,74.969,224.41101)" stroke-width=".49814" stroke-linecap="butt" stroke-dasharray="1.99255,1.99255" stroke-miterlimit="10" stroke-linejoin="miter" fill="none" stroke="#929591" d="M-49.81384-49.81384V199.25537"/>
<path transform="matrix(1,0,0,-1,74.969,224.41101)" stroke-width=".49814" stroke-linecap="butt" stroke-dasharray="1.99255,1.99255" stroke-miterlimit="10" stroke-linejoin="miter" fill="none" stroke="#929591" d="M-24.90692-49.81384V199.25537"/>
<path transform="matrix(1,0,0,-1,74.969,224.41101)" stroke-width=".49814" stroke-linecap="butt" stroke-dasharray="1.99255,1.99255" stroke-miterlimit="10" stroke-linejoin="miter" fill="none" stroke="#929591" d="M0-49.81384V199.25537"/>
<path transform="matrix(1,0,0,-1,74.969,224.41101)" stroke-width=".49814" stroke-linecap="butt" stroke-dasharray="1.99255,1.99255" stroke-miterlimit="10" stroke-linejoin="miter" fill="none" stroke="#929591" d="M24.90692-49.81384V199.25537"/>
<path transform="matrix(1,0,0,-1,74.969,224.41101)" stroke-width=".49814" stroke-linecap="butt" stroke-dasharray="1.99255,1.99255" stroke-miterlimit="10" stroke-linejoin="miter" fill="none" stroke="#929591" d="M49.81384-49.81384V199.25537"/>
<path transform="matrix(1,0,0,-1,74.969,224.41101)" stroke-width=".49814" stroke-linecap="butt" stroke-dasharray="1.99255,1.99255" stroke-miterlimit="10" stroke-linejoin="miter" fill="none" stroke="#929591" d="M74.72076-49.81384V199.25537"/>
<path transform="matrix(1,0,0,-1,74.969,224.41101)" stroke-width=".49814" stroke-linecap="butt" stroke-dasharray="1.99255,1.99255" stroke-miterlimit="10" stroke-linejoin="miter" fill="none" stroke="#929591" d="M99.62769-49.81384V199.25537"/>
<path transform="matrix(1,0,0,-1,74.969,224.41101)" stroke-width=".49814" stroke-linecap="butt" stroke-dasharray="1.99255,1.99255" stroke-miterlimit="10" stroke-linejoin="miter" fill="none" stroke="#929591" d="M124.5346-49.81384V199.25537"/>
<path transform="matrix(1,0,0,-1,74.969,224.41101)" stroke-width=".49814" stroke-linecap="butt" stroke-dasharray="1.99255,1.99255" stroke-miterlimit="10" stroke-linejoin="miter" fill="none" stroke="#929591" d="M149.44153-49.81384V199.25537"/>
<path transform="matrix(1,0,0,-1,74.969,224.41101)" stroke-width=".49814" stroke-linecap="butt" stroke-dasharray="1.99255,1.99255" stroke-miterlimit="10" stroke-linejoin="miter" fill="none" stroke="#929591" d="M174.34845-49.81384V199.25537"/>
<path transform="matrix(1,0,0,-1,74.969,224.41101)" stroke-width=".49814" stroke-linecap="butt" stroke-dasharray="1.99255,1.99255" stroke-miterlimit="10" stroke-linejoin="miter" fill="none" stroke="#929591" d="M199.25537-49.81384V199.25537"/>
<path transform="matrix(1,0,0,-1,74.969,224.41101)" stroke-width=".49814" stroke-linecap="butt" stroke-dasharray="1.99255,1.99255" stroke-miterlimit="10" stroke-linejoin="miter" fill="none" stroke="#929591" d="M224.1623-49.81384V199.25537"/>
<path transform="matrix(1,0,0,-1,74.969,224.41101)" stroke-width=".49814" stroke-linecap="butt" stroke-dasharray="1.99255,1.99255" stroke-miterlimit="10" stroke-linejoin="miter" fill="none" stroke="#929591" d="M249.06922-49.81384V199.25537"/>
<path transform="matrix(1,0,0,-1,74.969,224.41101)" stroke-width=".49814" stroke-linecap="butt" stroke-dasharray="1.99255,1.99255" stroke-miterlimit="10" stroke-linejoin="miter" fill="none" stroke="#929591" d="M273.97615-49.81384V199.25537"/>
<path transform="matrix(1,0,0,-1,74.969,224.41101)" stroke-width=".49814" stroke-linecap="butt" stroke-dasharray="1.99255,1.99255" stroke-miterlimit="10" stroke-linejoin="miter" fill="none" stroke="#929591" d="M298.88307-49.81384V199.25537"/>
<path transform="matrix(1,0,0,-1,74.969,224.41101)" stroke-width=".49814" stroke-linecap="butt" stroke-dasharray="1.99255,1.99255" stroke-miterlimit="10" stroke-linejoin="miter" fill="none" stroke="#929591" d="M323.78999-49.81384V199.25537"/>
<path transform="matrix(1,0,0,-1,74.969,224.41101)" stroke-width=".49814" stroke-linecap="butt" stroke-dasharray="1.99255,1.99255" stroke-miterlimit="10" stroke-linejoin="miter" fill="none" stroke="#929591" d="M348.6969-49.81384V199.25537"/>
<path transform="matrix(1,0,0,-1,74.969,224.41101)" stroke-width=".49814" stroke-linecap="butt" stroke-dasharray="1.99255,1.99255" stroke-miterlimit="10" stroke-linejoin="miter" fill="none" stroke="#929591" d="M373.60383-49.81384V199.25537"/>
<path transform="matrix(1,0,0,-1,74.969,224.41101)" stroke-width=".49814" stroke-linecap="butt" stroke-dasharray="1.99255,1.99255" stroke-miterlimit="10" stroke-linejoin="miter" fill="none" stroke="#929591" d="M398.51075-49.81384V199.25537"/>
<path transform="matrix(1,0,0,-1,74.969,224.41101)" stroke-width="1.99255" stroke-linecap="butt" stroke-miterlimit="10" stroke-linejoin="miter" fill="none" stroke="#e50000" d="M0 0H24.90692"/>
<path transform="matrix(1,0,0,-1,74.969,224.41101)" stroke-width="1.99255" stroke-linecap="butt" stroke-miterlimit="10" stroke-linejoin="miter" fill="none" stroke="#15b01a" d="M0 0V24.90692"/>
<path transform="matrix(1,0,0,-1,74.969,224.41101)" d="M1.99255 0C1.99255 1.10046 1.10046 1.99255 0 1.99255-1.10046 1.99255-1.99255 1.10046-1.99255 0-1.99255-1.10046-1.10046-1.99255 0-1.99255 1.10046-1.99255 1.99255-1.10046 1.99255 0ZM0 0"/>
<path transform="matrix(1,0,0,-1,74.969,224.41101)" stroke-width="1.99255" stroke-linecap="butt" stroke-miterlimit="10" stroke-linejoin="miter" fill="none" stroke="#929591" d="M1.99255 0C1.99255 1.10046 1.10046 1.99255 0 1.99255-1.10046 1.99255-1.99255 1.10046-1.99255 0-1.99255-1.10046-1.10046-1.99255 0-1.99255 1.10046-1.99255 1.99255-1.10046 1.99255 0ZM0 0"/>
<path transform="matrix(1,0,0,-1,74.969,224.41101)" d="M0 74.72076 74.72076 149.44153 124.5346 24.90692Z" fill="#feb308"/>
<path transform="matrix(1,0,0,-1,74.969,224.41101)" stroke-width=".3985" stroke-linecap="butt" stroke-miterlimit="10" stroke-linejoin="miter" fill="none" stroke="#000000" d="M0 74.72076 74.72076 149.44153 124.5346 24.90692Z"/>
<path transform="matrix(1,0,0,-1,74.969,224.41101)" d="M49.81384 74.72076 124.5346 149.44153 174.34845 24.90692Z" fill="#feb308"/>
<path transform="matrix(1,0,0,-1,74.969,224.41101)" stroke-width=".3985" stroke-linecap="butt" stroke-miterlimit="10" stroke-linejoin="miter" fill="none" stroke="#000000" d="M49.81384 74.72076 124.5346 149.44153 174.34845 24.90692Z"/>
<path transform="matrix(1,0,0,-1,74.969,224.41101)" d="M99.62769 74.72076 174.34845 149.44153 224.1623 24.90692Z" fill="#feb308"/>
<path transform="matrix(1,0,0,-1,74.969,224.41101)" stroke-width=".3985" stroke-linecap="butt" stroke-miterlimit="10" stroke-linejoin="miter" fill="none" stroke="#000000" d="M99.62769 74.72076 174.34845 149.44153 224.1623 24.90692Z"/>
<path transform="matrix(1,0,0,-1,74.969,224.41101)" d="M149.44153 74.72076 224.1623 149.44153 273.97615 24.90692Z" fill="#feb308"/>
<path transform="matrix(1,0,0,-1,74.969,224.41101)" stroke-width=".3985" stroke-linecap="butt" stroke-miterlimit="10" stroke-linejoin="miter" fill="none" stroke="#000000" d="M149.44153 74.72076 224.1623 149.44153 273.97615 24.90692Z"/>
<path transform="matrix(1,0,0,-1,74.969,224.41101)" d="M199.25537 74.72076 273.97615 149.44153 323.78999 24.90692Z" fill="#feb308"/>
<path transform="matrix(1,0,0,-1,74.969,224.41101)" stroke-width=".3985" stroke-linecap="butt" stroke-miterlimit="10" stroke-linejoin="miter" fill="none" stroke="#000000" d="M199.25537 74.72076 273.97615 149.44153 323.78999 24.90692Z"/>
<path transform="matrix(1,0,0,-1,74.969,224.41101)" d="M249.06922 74.72076 323.78999 149.44153 373.60383 24.90692Z" fill="#feb308"/>
<path transform="matrix(1,0,0,-1,74.969,224.41101)" stroke-width=".3985" stroke-linecap="butt" stroke-miterlimit="10" stroke-linejoin="miter" fill="none" stroke="#000000" d="M249.06922 74.72076 323.78999 149.44153 373.60383 24.90692Z"/>
</svg>
